<?xml version="1.0" encoding="utf-8"?>
<!-- Generator: Adobe Illustrator 19.0.0, SVG Export Plug-In . SVG Version: 6.00 Build 0)  -->
<svg version="1.2" baseProfile="tiny" xmlns="http://www.w3.org/2000/svg" xmlns:xlink="http://www.w3.org/1999/xlink" x="0px"
	 y="0px" width="3812.2px" height="2343px" viewBox="0 0 3812.2 2343" xml:space="preserve">
<g id="Laag_1">
	<g id="XMLID_1173_">
		<path id="XMLID_1205_" fill="#1E1D21" d="M792.5,1851.8H217.1v-326.6c0-17.4,14.1-31.5,31.5-31.5H761c17.4,0,31.5,14.1,31.5,31.5
			V1851.8z"/>
		<rect id="XMLID_1204_" x="248.5" y="1525.3" fill="#FFFFFF" width="512.5" height="325.6"/>
		<path id="XMLID_1203_" fill="#1E1D21" d="M792.5,1851.8H217.1l-86.8,212.4c-6.4,15.5,5,32.6,21.8,32.6h165.3h374.8h165.3
			c16.8,0,28.2-17.1,21.8-32.6L792.5,1851.8z"/>
		<polygon id="XMLID_1202_" fill="#FFFFFF" points="761,1874.5 248.5,1874.5 208.2,1971.9 585,1971.9 735.6,1971.9 801.3,1971.9 		
			"/>
		<polygon id="XMLID_1201_" fill="#FFFFFF" points="568.7,1995.5 440.8,1995.5 422,2040.9 587.5,2040.9 		"/>
		<g id="XMLID_1198_">
			<polygon id="XMLID_1200_" fill="#C6CACB" points="761,1752.4 761,1525.3 274.6,1525.3 			"/>
			<polygon id="XMLID_1199_" fill="#C6CACB" points="248.5,1695.3 248.5,1850.9 582.5,1850.9 			"/>
		</g>
		<polygon id="XMLID_1197_" fill="#1E1D21" points="745.2,2064.5 713.3,2064.5 625.2,1851.8 657.1,1851.8 		"/>
		
			<line id="XMLID_1196_" fill="none" stroke="#FFFFFF" stroke-width="12" stroke-linecap="round" stroke-linejoin="round" stroke-miterlimit="10" x1="155.7" y1="2071.9" x2="853.8" y2="2071.9"/>
		<rect id="XMLID_1195_" x="664.2" y="1900.5" fill="#1E1D21" width="132.7" height="22.7"/>
		<g id="XMLID_1174_">
			<path id="XMLID_100_" fill="#1E1D21" d="M487.1,1709.7c-0.9,0-1.8-0.2-2.6-0.6c-2.7-1.3-4-4.5-3-7.4l85.9-241l-104.3-2.9
				c-2.2-0.1-4.1-1.3-5.1-3.2s-0.9-4.2,0.2-6l208.8-327.4c1.1-1.8,3.1-2.8,5.1-2.8c0.9,0,1.8,0.2,2.6,0.6c2.7,1.3,4,4.5,3,7.4
				l-85.9,241l104.3,2.9c2.2,0.1,4.1,1.3,5.1,3.2s0.9,4.2-0.2,6L492.2,1707C491,1708.7,489.1,1709.7,487.1,1709.7z"/>
			<path id="XMLID_96_" fill="#FFFFFF" d="M672,1124.4L672,1124.4 M672,1124.4l-88.6,248.8l112.5,3.1l-208.8,327.4l88.6-248.8
				l-112.5-3.1L672,1124.4 M672,1112.4c-0.4,0-0.8,0-1.1,0.1c-1.9,0.2-3.7,0.8-5.2,1.7c-1.2,0.7-2.3,1.7-3.2,2.9
				c-0.3,0.3-0.5,0.7-0.7,1.1l-208.7,327.3c-2.3,3.6-2.5,8.3-0.5,12.1c2,3.8,5.9,6.3,10.3,6.4l96,2.6l-83.1,233.2
				c-2,5.8,0.5,12.1,6,14.8c1.7,0.8,3.5,1.2,5.3,1.2c4,0,7.9-2,10.1-5.5L706,1382.8c2.3-3.6,2.5-8.3,0.5-12.1
				c-2-3.8-5.9-6.3-10.3-6.4l-96-2.6l83-232.9c0.5-1.4,0.8-2.8,0.8-4.4c0-6.1-4.5-11.1-10.4-11.9
				C673.1,1112.4,672.5,1112.4,672,1112.4L672,1112.4z"/>
		</g>
	</g>
	<g id="XMLID_319_">
		<g id="XMLID_326_">
			<g id="XMLID_1168_">
				
					<path id="XMLID_1172_" fill="#FFFFFF" stroke="#1E1D21" stroke-width="8" stroke-linecap="round" stroke-linejoin="round" stroke-miterlimit="10" d="
					M644.4,989.2H362c-8.8,0-16-7.1-16-16V552.9c0-8.8,7.1-16,16-16h282.4c8.8,0,16,7.1,16,16v420.4
					C660.3,982,653.2,989.2,644.4,989.2z"/>
				
					<rect id="XMLID_1171_" x="371" y="584.8" fill="none" stroke="#1E1D21" stroke-width="8" stroke-linecap="round" stroke-linejoin="round" stroke-miterlimit="10" width="264.4" height="351.4"/>
				<circle id="XMLID_1170_" fill="#1E1D21" cx="494.3" cy="962.3" r="11.3"/>
				<circle id="XMLID_1169_" fill="#1E1D21" cx="494.3" cy="559.7" r="5.6"/>
			</g>
			<g id="XMLID_1139_">
				<g id="XMLID_133_">
					<path id="XMLID_138_" fill="#C6CACB" d="M413.8,633.3h-9.3c-4.4,0-8-3.6-8-8V616c0-4.4,3.6-8,8-8h9.3c4.4,0,8,3.6,8,8v9.3
						C421.7,629.7,418.2,633.3,413.8,633.3z"/>
					<path id="XMLID_137_" fill="#C6CACB" d="M460.5,633.3h-9.3c-4.4,0-8-3.6-8-8V616c0-4.4,3.6-8,8-8h9.3c4.4,0,8,3.6,8,8v9.3
						C468.5,629.7,464.9,633.3,460.5,633.3z"/>
					<path id="XMLID_136_" fill="#C6CACB" d="M507.2,633.3h-9.3c-4.4,0-8-3.6-8-8V616c0-4.4,3.6-8,8-8h9.3c4.4,0,8,3.6,8,8v9.3
						C515.2,629.7,511.6,633.3,507.2,633.3z"/>
					<path id="XMLID_135_" fill="#C6CACB" d="M553.9,633.3h-9.3c-4.4,0-8-3.6-8-8V616c0-4.4,3.6-8,8-8h9.3c4.4,0,8,3.6,8,8v9.3
						C561.9,629.7,558.4,633.3,553.9,633.3z"/>
					<path id="XMLID_134_" fill="#C6CACB" d="M600.7,633.3h-9.3c-4.4,0-8-3.6-8-8V616c0-4.4,3.6-8,8-8h9.3c4.4,0,8,3.6,8,8v9.3
						C608.7,629.7,605.1,633.3,600.7,633.3z"/>
				</g>
				<g id="XMLID_91_">
					<path id="XMLID_131_" fill="#C6CACB" d="M413.8,633.3h-9.3c-4.4,0-8-3.6-8-8V616c0-4.4,3.6-8,8-8h9.3c4.4,0,8,3.6,8,8v9.3
						C421.7,629.7,418.2,633.3,413.8,633.3z"/>
					<path id="XMLID_95_" fill="#C6CACB" d="M460.5,633.3h-9.3c-4.4,0-8-3.6-8-8V616c0-4.4,3.6-8,8-8h9.3c4.4,0,8,3.6,8,8v9.3
						C468.5,629.7,464.9,633.3,460.5,633.3z"/>
					<path id="XMLID_94_" fill="#C6CACB" d="M507.2,633.3h-9.3c-4.4,0-8-3.6-8-8V616c0-4.4,3.6-8,8-8h9.3c4.4,0,8,3.6,8,8v9.3
						C515.2,629.7,511.6,633.3,507.2,633.3z"/>
					<path id="XMLID_93_" fill="#C6CACB" d="M553.9,633.3h-9.3c-4.4,0-8-3.6-8-8V616c0-4.4,3.6-8,8-8h9.3c4.4,0,8,3.6,8,8v9.3
						C561.9,629.7,558.4,633.3,553.9,633.3z"/>
					<path id="XMLID_92_" fill="#C6CACB" d="M600.7,633.3h-9.3c-4.4,0-8-3.6-8-8V616c0-4.4,3.6-8,8-8h9.3c4.4,0,8,3.6,8,8v9.3
						C608.7,629.7,605.1,633.3,600.7,633.3z"/>
				</g>
			</g>
			<g id="XMLID_1107_">
				<g id="XMLID_116_">
					<path id="XMLID_126_" fill="#C6CACB" d="M413.8,675.6h-9.3c-4.4,0-8-3.6-8-8v-9.3c0-4.4,3.6-8,8-8h9.3c4.4,0,8,3.6,8,8v9.3
						C421.7,672,418.2,675.6,413.8,675.6z"/>
					<path id="XMLID_125_" fill="#C6CACB" d="M460.5,675.6h-9.3c-4.4,0-8-3.6-8-8v-9.3c0-4.4,3.6-8,8-8h9.3c4.4,0,8,3.6,8,8v9.3
						C468.5,672,464.9,675.6,460.5,675.6z"/>
					<path id="XMLID_124_" fill="#C6CACB" d="M507.2,675.6h-9.3c-4.4,0-8-3.6-8-8v-9.3c0-4.4,3.6-8,8-8h9.3c4.4,0,8,3.6,8,8v9.3
						C515.2,672,511.6,675.6,507.2,675.6z"/>
					<path id="XMLID_123_" fill="#C6CACB" d="M553.9,675.6h-9.3c-4.4,0-8-3.6-8-8v-9.3c0-4.4,3.6-8,8-8h9.3c4.4,0,8,3.6,8,8v9.3
						C561.9,672,558.4,675.6,553.9,675.6z"/>
					<path id="XMLID_117_" fill="#C6CACB" d="M600.7,675.6h-9.3c-4.4,0-8-3.6-8-8v-9.3c0-4.4,3.6-8,8-8h9.3c4.4,0,8,3.6,8,8v9.3
						C608.7,672,605.1,675.6,600.7,675.6z"/>
				</g>
				<g id="XMLID_86_">
					<path id="XMLID_115_" fill="#C6CACB" d="M413.8,675.6h-9.3c-4.4,0-8-3.6-8-8v-9.3c0-4.4,3.6-8,8-8h9.3c4.4,0,8,3.6,8,8v9.3
						C421.7,672,418.2,675.6,413.8,675.6z"/>
					<path id="XMLID_90_" fill="#C6CACB" d="M460.5,675.6h-9.3c-4.4,0-8-3.6-8-8v-9.3c0-4.4,3.6-8,8-8h9.3c4.4,0,8,3.6,8,8v9.3
						C468.5,672,464.9,675.6,460.5,675.6z"/>
					<path id="XMLID_89_" fill="#C6CACB" d="M507.2,675.6h-9.3c-4.4,0-8-3.6-8-8v-9.3c0-4.4,3.6-8,8-8h9.3c4.4,0,8,3.6,8,8v9.3
						C515.2,672,511.6,675.6,507.2,675.6z"/>
					<path id="XMLID_88_" fill="#C6CACB" d="M553.9,675.6h-9.3c-4.4,0-8-3.6-8-8v-9.3c0-4.4,3.6-8,8-8h9.3c4.4,0,8,3.6,8,8v9.3
						C561.9,672,558.4,675.6,553.9,675.6z"/>
					<path id="XMLID_87_" fill="#C6CACB" d="M600.7,675.6h-9.3c-4.4,0-8-3.6-8-8v-9.3c0-4.4,3.6-8,8-8h9.3c4.4,0,8,3.6,8,8v9.3
						C608.7,672,605.1,675.6,600.7,675.6z"/>
				</g>
			</g>
			<g id="XMLID_834_">
				<g id="XMLID_109_">
					<path id="XMLID_114_" fill="#C6CACB" d="M413.8,717.9h-9.3c-4.4,0-8-3.6-8-8v-9.3c0-4.4,3.6-8,8-8h9.3c4.4,0,8,3.6,8,8v9.3
						C421.7,714.3,418.2,717.9,413.8,717.9z"/>
					<path id="XMLID_113_" fill="#C6CACB" d="M460.5,717.9h-9.3c-4.4,0-8-3.6-8-8v-9.3c0-4.4,3.6-8,8-8h9.3c4.4,0,8,3.6,8,8v9.3
						C468.5,714.3,464.9,717.9,460.5,717.9z"/>
					<path id="XMLID_112_" fill="#C6CACB" d="M507.2,717.9h-9.3c-4.4,0-8-3.6-8-8v-9.3c0-4.4,3.6-8,8-8h9.3c4.4,0,8,3.6,8,8v9.3
						C515.2,714.3,511.6,717.9,507.2,717.9z"/>
					<path id="XMLID_111_" fill="#C6CACB" d="M553.9,717.9h-9.3c-4.4,0-8-3.6-8-8v-9.3c0-4.4,3.6-8,8-8h9.3c4.4,0,8,3.6,8,8v9.3
						C561.9,714.3,558.4,717.9,553.9,717.9z"/>
					<path id="XMLID_110_" fill="#C6CACB" d="M600.7,717.9h-9.3c-4.4,0-8-3.6-8-8v-9.3c0-4.4,3.6-8,8-8h9.3c4.4,0,8,3.6,8,8v9.3
						C608.7,714.3,605.1,717.9,600.7,717.9z"/>
				</g>
				<g id="XMLID_81_">
					<path id="XMLID_107_" fill="#C6CACB" d="M413.8,717.9h-9.3c-4.4,0-8-3.6-8-8v-9.3c0-4.4,3.6-8,8-8h9.3c4.4,0,8,3.6,8,8v9.3
						C421.7,714.3,418.2,717.9,413.8,717.9z"/>
					<path id="XMLID_85_" fill="#C6CACB" d="M460.5,717.9h-9.3c-4.4,0-8-3.6-8-8v-9.3c0-4.4,3.6-8,8-8h9.3c4.4,0,8,3.6,8,8v9.3
						C468.5,714.3,464.9,717.9,460.5,717.9z"/>
					<path id="XMLID_84_" fill="#C6CACB" d="M507.2,717.9h-9.3c-4.4,0-8-3.6-8-8v-9.3c0-4.4,3.6-8,8-8h9.3c4.4,0,8,3.6,8,8v9.3
						C515.2,714.3,511.6,717.9,507.2,717.9z"/>
					<path id="XMLID_83_" fill="#C6CACB" d="M553.9,717.9h-9.3c-4.4,0-8-3.6-8-8v-9.3c0-4.4,3.6-8,8-8h9.3c4.4,0,8,3.6,8,8v9.3
						C561.9,714.3,558.4,717.9,553.9,717.9z"/>
					<path id="XMLID_82_" fill="#C6CACB" d="M600.7,717.9h-9.3c-4.4,0-8-3.6-8-8v-9.3c0-4.4,3.6-8,8-8h9.3c4.4,0,8,3.6,8,8v9.3
						C608.7,714.3,605.1,717.9,600.7,717.9z"/>
				</g>
			</g>
			<g id="XMLID_707_">
				<g id="XMLID_101_">
					<path id="XMLID_106_" fill="#C6CACB" d="M413.8,760.1h-9.3c-4.4,0-8-3.6-8-8v-9.3c0-4.4,3.6-8,8-8h9.3c4.4,0,8,3.6,8,8v9.3
						C421.7,756.6,418.2,760.1,413.8,760.1z"/>
					<path id="XMLID_105_" fill="#C6CACB" d="M460.5,760.1h-9.3c-4.4,0-8-3.6-8-8v-9.3c0-4.4,3.6-8,8-8h9.3c4.4,0,8,3.6,8,8v9.3
						C468.5,756.6,464.9,760.1,460.5,760.1z"/>
					<path id="XMLID_104_" fill="#C6CACB" d="M507.2,760.1h-9.3c-4.4,0-8-3.6-8-8v-9.3c0-4.4,3.6-8,8-8h9.3c4.4,0,8,3.6,8,8v9.3
						C515.2,756.6,511.6,760.1,507.2,760.1z"/>
					<path id="XMLID_103_" fill="#C6CACB" d="M553.9,760.1h-9.3c-4.4,0-8-3.6-8-8v-9.3c0-4.4,3.6-8,8-8h9.3c4.4,0,8,3.6,8,8v9.3
						C561.9,756.6,558.4,760.1,553.9,760.1z"/>
					<path id="XMLID_102_" fill="#C6CACB" d="M600.7,760.1h-9.3c-4.4,0-8-3.6-8-8v-9.3c0-4.4,3.6-8,8-8h9.3c4.4,0,8,3.6,8,8v9.3
						C608.7,756.6,605.1,760.1,600.7,760.1z"/>
				</g>
				<g id="XMLID_66_">
					<path id="XMLID_79_" fill="#C6CACB" d="M413.8,760.1h-9.3c-4.4,0-8-3.6-8-8v-9.3c0-4.4,3.6-8,8-8h9.3c4.4,0,8,3.6,8,8v9.3
						C421.7,756.6,418.2,760.1,413.8,760.1z"/>
					<path id="XMLID_77_" fill="#C6CACB" d="M460.5,760.1h-9.3c-4.4,0-8-3.6-8-8v-9.3c0-4.4,3.6-8,8-8h9.3c4.4,0,8,3.6,8,8v9.3
						C468.5,756.6,464.9,760.1,460.5,760.1z"/>
					<path id="XMLID_76_" fill="#C6CACB" d="M507.2,760.1h-9.3c-4.4,0-8-3.6-8-8v-9.3c0-4.4,3.6-8,8-8h9.3c4.4,0,8,3.6,8,8v9.3
						C515.2,756.6,511.6,760.1,507.2,760.1z"/>
					<path id="XMLID_68_" fill="#C6CACB" d="M553.9,760.1h-9.3c-4.4,0-8-3.6-8-8v-9.3c0-4.4,3.6-8,8-8h9.3c4.4,0,8,3.6,8,8v9.3
						C561.9,756.6,558.4,760.1,553.9,760.1z"/>
					<path id="XMLID_67_" fill="#C6CACB" d="M600.7,760.1h-9.3c-4.4,0-8-3.6-8-8v-9.3c0-4.4,3.6-8,8-8h9.3c4.4,0,8,3.6,8,8v9.3
						C608.7,756.6,605.1,760.1,600.7,760.1z"/>
				</g>
			</g>
			<g id="XMLID_434_">
				<g id="XMLID_70_">
					<path id="XMLID_75_" fill="#C6CACB" d="M413.8,802.4h-9.3c-4.4,0-8-3.6-8-8v-9.3c0-4.4,3.6-8,8-8h9.3c4.4,0,8,3.6,8,8v9.3
						C421.7,798.8,418.2,802.4,413.8,802.4z"/>
					<path id="XMLID_74_" fill="#C6CACB" d="M460.5,802.4h-9.3c-4.4,0-8-3.6-8-8v-9.3c0-4.4,3.6-8,8-8h9.3c4.4,0,8,3.6,8,8v9.3
						C468.5,798.8,464.9,802.4,460.5,802.4z"/>
					<path id="XMLID_73_" fill="#C6CACB" d="M507.2,802.4h-9.3c-4.4,0-8-3.6-8-8v-9.3c0-4.4,3.6-8,8-8h9.3c4.4,0,8,3.6,8,8v9.3
						C515.2,798.8,511.6,802.4,507.2,802.4z"/>
					<path id="XMLID_72_" fill="#C6CACB" d="M553.9,802.4h-9.3c-4.4,0-8-3.6-8-8v-9.3c0-4.4,3.6-8,8-8h9.3c4.4,0,8,3.6,8,8v9.3
						C561.9,798.8,558.4,802.4,553.9,802.4z"/>
					<path id="XMLID_71_" fill="#C6CACB" d="M600.7,802.4h-9.3c-4.4,0-8-3.6-8-8v-9.3c0-4.4,3.6-8,8-8h9.3c4.4,0,8,3.6,8,8v9.3
						C608.7,798.8,605.1,802.4,600.7,802.4z"/>
				</g>
				<g id="XMLID_58_">
					<path id="XMLID_69_" fill="#C6CACB" d="M413.8,802.4h-9.3c-4.4,0-8-3.6-8-8v-9.3c0-4.4,3.6-8,8-8h9.3c4.4,0,8,3.6,8,8v9.3
						C421.7,798.8,418.2,802.4,413.8,802.4z"/>
					<path id="XMLID_62_" fill="#C6CACB" d="M460.5,802.4h-9.3c-4.4,0-8-3.6-8-8v-9.3c0-4.4,3.6-8,8-8h9.3c4.4,0,8,3.6,8,8v9.3
						C468.5,798.8,464.9,802.4,460.5,802.4z"/>
					<path id="XMLID_61_" fill="#C6CACB" d="M507.2,802.4h-9.3c-4.4,0-8-3.6-8-8v-9.3c0-4.4,3.6-8,8-8h9.3c4.4,0,8,3.6,8,8v9.3
						C515.2,798.8,511.6,802.4,507.2,802.4z"/>
					<path id="XMLID_60_" fill="#C6CACB" d="M553.9,802.4h-9.3c-4.4,0-8-3.6-8-8v-9.3c0-4.4,3.6-8,8-8h9.3c4.4,0,8,3.6,8,8v9.3
						C561.9,798.8,558.4,802.4,553.9,802.4z"/>
					<path id="XMLID_59_" fill="#C6CACB" d="M600.7,802.4h-9.3c-4.4,0-8-3.6-8-8v-9.3c0-4.4,3.6-8,8-8h9.3c4.4,0,8,3.6,8,8v9.3
						C608.7,798.8,605.1,802.4,600.7,802.4z"/>
				</g>
			</g>
			<g id="XMLID_327_">
				<path id="XMLID_433_" fill="#C6CACB" d="M460.6,902.2h-9.3c-4.4,0-8-3.6-8-8v-9.3c0-4.4,3.6-8,8-8h9.3c4.4,0,8,3.6,8,8v9.3
					C468.6,898.7,465,902.2,460.6,902.2z"/>
				<path id="XMLID_432_" fill="#C6CACB" d="M554,902.2h-9.3c-4.4,0-8-3.6-8-8v-9.3c0-4.4,3.6-8,8-8h9.3c4.4,0,8,3.6,8,8v9.3
					C562,898.7,558.4,902.2,554,902.2z"/>
				<path id="XMLID_431_" fill="#C6CACB" d="M507.3,902.2h-9.3c-4.4,0-8-3.6-8-8v-9.3c0-4.4,3.6-8,8-8h9.3c4.4,0,8,3.6,8,8v9.3
					C515.3,898.7,511.7,902.2,507.3,902.2z"/>
			</g>
		</g>
		<g id="XMLID_320_">
			<path id="XMLID_57_" fill="#1E1D21" d="M464.4,745.2c-2,0-3.9-1-5-2.7L253.8,432c-1.2-1.8-1.3-4.1-0.3-6s2.9-3.2,5.1-3.3
				l99.6-4.5l-86.2-229.4c-1.1-2.9,0.2-6.1,2.9-7.5c0.9-0.4,1.8-0.7,2.7-0.7c2,0,3.9,1,5,2.7l205.6,310.5c1.2,1.8,1.3,4.1,0.3,6
				c-1,1.9-2.9,3.2-5.1,3.3l-99.6,4.5L470,737.1c1.1,2.9-0.2,6.1-2.9,7.5C466.3,745,465.3,745.2,464.4,745.2z"/>
			<path id="XMLID_54_" fill="#FFFFFF" d="M277.5,186.7l205.6,310.5l-107.9,4.8l89.1,237.1L258.8,428.7l107.9-4.8L277.5,186.7
				 M277.5,174.7c-1.8,0-3.7,0.4-5.4,1.3c-5.4,2.8-7.9,9.2-5.8,14.9l83.3,221.7l-91.3,4.1c-4.3,0.2-8.2,2.7-10.2,6.5
				c-2,3.9-1.7,8.5,0.7,12.1l205.6,310.5c2.3,3.5,6.1,5.4,10,5.4c1.8,0,3.7-0.4,5.4-1.3c5.4-2.8,7.9-9.2,5.8-14.9l-83.3-221.7
				l91.3-4.1c4.3-0.2,8.2-2.7,10.2-6.5c2-3.9,1.7-8.5-0.7-12.1L287.6,180.1C285.3,176.6,281.5,174.7,277.5,174.7L277.5,174.7z"/>
		</g>
	</g>
	<g id="XMLID_1357_">
		<path id="XMLID_1378_" fill="#000004" d="M1538.9,665.8c0.2,5.6-1.7,11.5-6,15.8c-5.1,5.1-11.2,6.6-16.8,5.8
			c-5.3-0.7-8.7-2.7-19.1-13.1c-10.3-10.3-12.4-13.7-13-19c-0.7-5.6,0.7-11.6,5.8-16.8c4.3-4.3,9.7-5.7,15.9-5.9l-21.5-21.5l8.5-8.5
			l59.1,59.1l-8.5,8.5L1538.9,665.8z M1505.5,665.8c6.6,6.6,13.5,12.7,21.5,4.7c7.9-7.9,1.3-15.3-4.8-21.4
			c-6.1-6.1-13.5-12.6-21.3-4.7C1492.9,652.3,1499,659.3,1505.5,665.8z"/>
		<path id="XMLID_1375_" fill="#000004" d="M1551.8,625.9c6.9,6.9,14.6,6.1,20.4,0.3c3.2-3.2,5.2-8.2,5.1-13.3l11.4-0.9
			c0.7,9-2.7,16.4-8.4,22c-8.6,8.6-22.8,14.5-40.1-2.7c-16.4-16.4-12.5-30.9-4.3-39c9.3-9.3,24.3-10.5,35.1,0.4l7,7L1551.8,625.9z
			 M1562.6,601.2c-6.6-6.1-13.7-5.9-18.7-0.9s-5.3,12.1,0.9,18.7L1562.6,601.2z"/>
		<path id="XMLID_1373_" fill="#000004" d="M1552.5,551.2l8.5-8.5l12.8,12.8l6.1-6.1l6.5,6.5l-6.1,6.1l24.5,24.5
			c2.3,2.3,4.1,2.2,6.1,0.2l3.2-3.2l8,8l-4.4,4.4c-5.9,5.9-14,6.5-20.6-0.2l-25.3-25.3l-4.2,4.2l-6.5-6.5l4.2-4.2L1552.5,551.2z"/>
		<path id="XMLID_1370_" fill="#000004" d="M1620.6,557.1c6.9,6.9,14.6,6.1,20.4,0.3c3.2-3.2,5.2-8.2,5.1-13.3l11.4-0.9
			c0.7,9-2.7,16.4-8.4,22c-8.6,8.6-22.8,14.5-40.1-2.7c-16.4-16.4-12.5-30.9-4.3-39c9.3-9.3,24.3-10.5,35.1,0.4l7,7L1620.6,557.1z
			 M1631.4,532.4c-6.6-6.1-13.7-5.9-18.7-0.9s-5.3,12.1,0.9,18.7L1631.4,532.4z"/>
		<path id="XMLID_1368_" fill="#000004" d="M1699.8,500c0.6,7.9-1.4,16-7.8,22.4c-9.7,9.7-25.3,13-40.6-2.4
			c-15.5-15.5-12.2-31-2.5-40.7c6.4-6.4,14.5-8.4,22.4-7.8l-0.7,11.8c-4.7-0.5-9.5,0.7-13,4.2c-6.9,6.9-7.1,14.9,2.2,24.1
			c9.1,9.1,17.1,9,24,2.1c3.5-3.5,4.7-8.3,4.2-13L1699.8,500z"/>
		<path id="XMLID_1366_" fill="#000004" d="M1660.2,443.4l8.5-8.5l12.8,12.8l6.1-6.1l6.5,6.5l-6.1,6.1l24.5,24.5
			c2.3,2.3,4.1,2.2,6.1,0.2l3.2-3.2l8,8l-4.4,4.4c-5.9,5.9-14,6.5-20.6-0.2l-25.3-25.3l-4.2,4.2l-6.5-6.5l4.2-4.2L1660.2,443.4z"/>
		<path id="XMLID_1363_" fill="#000004" d="M1680.9,414.3l8.5-8.5l8.5,8.5l-8.5,8.5L1680.9,414.3z M1697.9,431.3l8.5-8.5l42.1,42.1
			l-8.5,8.5L1697.9,431.3z"/>
		<path id="XMLID_1361_" fill="#000004" d="M1719.7,409.5l8.5-8.5l4.5,4.5l0.2-0.2c-0.7-6,1.5-11.5,6-15.9c6.6-6.6,19.1-9,28.7,0.6
			l28,28l-8.5,8.5l-25.1-25.1c-5.7-5.7-12.6-5.5-17.4-0.7c-4.8,4.8-5.1,11.7,0.7,17.4l25.1,25.1l-8.5,8.5L1719.7,409.5z"/>
		<path id="XMLID_1358_" fill="#000004" d="M1827.8,376.9c0.2,5.6-1.7,11.5-6,15.8c-5.5,5.5-12,6.5-16.3,6
			c-5.6-0.7-7.9-1.6-19.5-13.2c-11.7-11.7-12.5-14-13.3-19.6c-0.5-4.3,0.5-10.8,6-16.3c4.3-4.3,9.4-6.1,15.9-5.9l-4.5-4.5l8.5-8.5
			l41.1,41.1c12.7,12.7,9.9,27.2,0.2,36.8c-5.4,5.4-13.7,8.1-21.7,7.6l1.3-11.8c4.2,0,8.8-1.2,12-4.4c5.6-5.6,6.4-12.9,0.5-18.8
			L1827.8,376.9z M1805.9,385.1c2.7,0.3,6.6-0.1,10-3.5c3.3-3.3,3.7-7.2,3.4-9.9c-0.4-3.4-1.4-4.7-8.1-11.5
			c-6.8-6.8-8.1-7.8-11.5-8.2c-2.7-0.3-6.6,0.1-9.9,3.4c-3.4,3.4-3.8,7.3-3.5,10c0.4,3.4,1.4,4.7,8.2,11.5
			C1801.2,383.7,1802.5,384.7,1805.9,385.1z"/>
	</g>
	<g id="XMLID_1325_">
		<path id="XMLID_1354_" fill="#000004" d="M1364.8,1193.5l8.5-8.5l4.4,4.4c-0.2-5.6,1.7-11.5,6-15.8c5.2-5.2,11.2-6.6,16.8-5.8
			c5.3,0.7,8.7,2.7,19.1,13.1c10.3,10.3,12.4,13.7,13,19c0.7,5.6-0.7,11.6-5.8,16.8c-4.3,4.3-9.7,5.7-15.9,5.9l21.5,21.5l-8.5,8.5
			L1364.8,1193.5z M1411.1,1189.4c-6.6-6.6-13.5-12.7-21.5-4.7c-7.9,7.9-1.3,15.3,4.8,21.4c6.1,6.1,13.5,12.6,21.3,4.7
			C1423.7,1202.8,1417.6,1195.9,1411.1,1189.4z"/>
		<path id="XMLID_1352_" fill="#000004" d="M1410,1148.3l8.5-8.5l4.5,4.5l0.2-0.2c-0.7-6,1.5-11.5,6-15.9c3.4-3.4,7.5-5,12-5.6
			l1.2,13.5c-3.5,0.5-5.5,1.3-7.6,3.5c-4.2,4.2-5.6,10.9,0.6,17l25.3,25.3l-8.5,8.5L1410,1148.3z"/>
		<path id="XMLID_1349_" fill="#000004" d="M1427.6,1096.6l8.5-8.5l8.5,8.5l-8.5,8.5L1427.6,1096.6z M1444.6,1113.6l8.5-8.5
			l42.1,42.1l-8.5,8.5L1444.6,1113.6z"/>
		<path id="XMLID_1346_" fill="#000004" d="M1473.8,1094.3c-0.2-4.9,0.8-11.6,7.4-18.2s13.3-7.6,18.2-7.4
			c6.8,0.3,11.6,2.5,20.7,11.5c9.1,9.1,11.3,14,11.6,20.8c0.2,4.9-0.8,11.6-7.4,18.2c-6.6,6.6-13.3,7.6-18.2,7.4
			c-6.8-0.3-11.6-2.5-20.8-11.6C1476.3,1105.9,1474.1,1101.1,1473.8,1094.3z M1499.5,1080.8c-3-0.5-7,0.8-9.9,3.7
			c-2.9,2.9-4.2,6.9-3.7,9.9c0.7,3.8,1.8,6,7.9,12c6.1,6.1,8.3,7.3,12.1,8c3,0.5,7-0.8,9.9-3.7c2.9-2.9,4.2-6.9,3.7-9.9
			c-0.7-3.8-1.8-6-7.9-12C1505.5,1082.7,1503.4,1081.5,1499.5,1080.8z"/>
		<path id="XMLID_1344_" fill="#000004" d="M1510,1048.3l8.5-8.5l4.5,4.5l0.2-0.2c-0.7-6,1.5-11.5,6-15.9c3.4-3.4,7.5-5,12-5.6
			l1.2,13.5c-3.5,0.5-5.5,1.3-7.6,3.5c-4.2,4.2-5.6,10.9,0.6,17l25.3,25.3l-8.5,8.5L1510,1048.3z"/>
		<path id="XMLID_1341_" fill="#000004" d="M1527.6,996.6l8.5-8.5l8.5,8.5l-8.5,8.5L1527.6,996.6z M1544.6,1013.6l8.5-8.5l42.1,42.1
			l-8.5,8.5L1544.6,1013.6z"/>
		<path id="XMLID_1339_" fill="#000004" d="M1554.1,978.6l8.5-8.5l12.8,12.8l6.1-6.1l6.5,6.5l-6.1,6.1l24.5,24.5
			c2.3,2.3,4.1,2.2,6.1,0.2l3.2-3.2l8,8l-4.4,4.4c-5.9,5.9-14,6.5-20.6-0.2l-25.3-25.3l-4.2,4.2l-6.5-6.5l4.2-4.2L1554.1,978.6z"/>
		<path id="XMLID_1336_" fill="#000004" d="M1574.8,949.4l8.5-8.5l8.5,8.5l-8.5,8.5L1574.8,949.4z M1591.8,966.5l8.5-8.5l42.1,42.1
			l-8.5,8.5L1591.8,966.5z"/>
		<path id="XMLID_1334_" fill="#000004" d="M1646.2,982.8l-6.8-49l-19.9,19.9l-7.5-7.5l30.2-30.2l6.7,6.7l6.3,48.5l21.1-21.1l8,8
			l-31.4,31.4L1646.2,982.8z"/>
		<path id="XMLID_1331_" fill="#000004" d="M1635.8,888.5l8.5-8.5l8.5,8.5l-8.5,8.5L1635.8,888.5z M1652.8,905.5l8.5-8.5l42.1,42.1
			l-8.5,8.5L1652.8,905.5z"/>
		<path id="XMLID_1329_" fill="#000004" d="M1674.6,883.7l8.5-8.5l4.5,4.5l0.2-0.2c-0.7-6,1.5-11.5,6-15.9c6.6-6.6,19.1-9,28.7,0.6
			l28,28l-8.5,8.5l-25.1-25.1c-5.7-5.7-12.6-5.5-17.4-0.7c-4.8,4.8-5.1,11.7,0.7,17.4l25.1,25.1l-8.5,8.5L1674.6,883.7z"/>
		<path id="XMLID_1326_" fill="#000004" d="M1782.6,851.1c0.2,5.6-1.7,11.5-6,15.8c-5.5,5.5-12,6.5-16.3,6
			c-5.6-0.7-7.9-1.6-19.5-13.2c-11.7-11.7-12.5-14-13.3-19.6c-0.5-4.3,0.5-10.8,6-16.3c4.3-4.3,9.4-6.1,15.9-5.9l-4.5-4.5l8.5-8.5
			l41.1,41.1c12.7,12.7,9.9,27.2,0.2,36.8c-5.4,5.4-13.7,8.1-21.7,7.6l1.3-11.8c4.2,0,8.8-1.2,12-4.4c5.6-5.6,6.4-12.9,0.5-18.8
			L1782.6,851.1z M1760.8,859.3c2.7,0.3,6.6-0.1,10-3.5c3.3-3.3,3.7-7.2,3.4-9.9c-0.4-3.4-1.4-4.7-8.1-11.5
			c-6.8-6.8-8.1-7.8-11.5-8.2c-2.7-0.3-6.6,0.1-9.9,3.4c-3.4,3.4-3.8,7.3-3.5,10c0.4,3.4,1.4,4.7,8.2,11.5
			C1756,857.9,1757.4,858.9,1760.8,859.3z"/>
	</g>
	<g id="XMLID_1395_">
		
			<path id="XMLID_1406_" fill="none" stroke="#1E1D21" stroke-width="8" stroke-linecap="round" stroke-linejoin="round" stroke-miterlimit="10" d="
			M1696.7,1494.6c0,10.4-8.4,18.8-18.8,18.8c-10.4,0-18.8-8.4-18.8-18.8"/>
		
			<path id="XMLID_1401_" fill="#FFFFFF" stroke="#1E1D21" stroke-width="8" stroke-linecap="round" stroke-linejoin="round" stroke-miterlimit="10" d="
			M1781,1461.7L1781,1461.7c-13.1,0-23.7-10.6-23.7-23.7v-64.5c0-37.5-25.6-69.5-60.4-78.2c1.3-2.8,2.1-5.9,2.1-9.1
			c0-11.6-9.4-21.1-21.1-21.1c-11.6,0-21.1,9.4-21.1,21.1c0,3.3,0.8,6.3,2.1,9.1c-34.7,8.5-60.4,39.8-60.4,77.1v65.7
			c0,13.1-10.6,23.7-23.7,23.7 M1574.8,1481.8H1781 M1781,1461.7L1781,1461.7c-13.1,0-23.7-10.6-23.7-23.7v-64.5
			c0-37.5-25.6-69.5-60.4-78.2c1.3-2.8,2.1-5.9,2.1-9.1c0-11.6-9.4-21.1-21.1-21.1c-11.6,0-21.1,9.4-21.1,21.1
			c0,3.3,0.8,6.3,2.1,9.1c-34.7,8.5-60.4,39.8-60.4,77.1v65.7c0,13.1-10.6,23.7-23.7,23.7 M1676.3,1278.7c2-0.4,4.2,0.2,5.8,1.8
			c2.5,2.5,2.5,6.6,0,9.1c-2.5,2.5-6.6,2.5-9.1,0"/>
		<path id="XMLID_1400_" fill="#C6CACB" d="M1581.5,1465.1c13.1,0,23.7-13,23.7-26.1v-66.7c0-44.2,26.3-71.8,70.6-71.3
			c9.6,0.1,0.3-0.2,8.7,3.1c-16,10.4-47.4,47.4-47.4,94.5l0.9,63.1c0,2.7-0.3,6.7-1,9.2l-60.1,0.8"/>
		
			<path id="XMLID_1399_" fill="none" stroke="#1E1D21" stroke-width="8" stroke-linecap="round" stroke-linejoin="round" stroke-miterlimit="10" d="
			M1566,1420.3c-7.3-10.8-12.5-23-15.2-35.9s-3-26.6-0.3-40.4c2.7-13.8,8-26.4,15.4-37.4"/>
		
			<path id="XMLID_1398_" fill="none" stroke="#1E1D21" stroke-width="8" stroke-linecap="round" stroke-linejoin="round" stroke-miterlimit="10" d="
			M1789.8,1306.5c7.3,10.8,12.5,23,15.2,35.9s3,26.6,0.3,40.4c-2.7,13.8-8,26.4-15.4,37.4"/>
		
			<path id="XMLID_1397_" fill="none" stroke="#1E1D21" stroke-width="8" stroke-linecap="round" stroke-linejoin="round" stroke-miterlimit="10" d="
			M1537.8,1439.4c-9.7-14.4-16.7-30.7-20.3-47.9c-3.6-17.3-4-35.5-0.4-53.9c3.6-18.4,10.7-35.2,20.6-49.9"/>
		
			<path id="XMLID_1396_" fill="none" stroke="#1E1D21" stroke-width="8" stroke-linecap="round" stroke-linejoin="round" stroke-miterlimit="10" d="
			M1818,1287.4c9.7,14.4,16.7,30.7,20.3,47.9c3.6,17.3,4,35.5,0.4,53.9c-3.6,18.4-10.7,35.2-20.6,49.9"/>
	</g>
	<g id="XMLID_1304_">
		<path id="XMLID_1322_" fill="#000004" d="M1902.7,1240.9l-0.2,0.2c1.2,4.7-0.4,8.9-6.1,14.6c-9.4,9.4-20.4,9.3-27.7,2
			c-6.7-6.7-7.8-17.1,1.2-26.2l11.7-11.7l-4.4-4.4c-4-4-8-2.8-14,3.2c-4.4,4.4-5.6,7.3-4.7,11.2l-11.7,1.6c-1.2-7.7,1.7-14,8.1-20.4
			c10.4-10.4,21-14,31.4-3.7l28.7,28.7l-8.5,8.5L1902.7,1240.9z M1888.6,1226.8l-10.1,10.1c-5,5-5.3,9.3-2.2,12.4
			c2.8,2.8,7.6,3.1,13.3-2.7c7.1-7.1,8.7-10.2,2.2-16.8L1888.6,1226.8z"/>
		<path id="XMLID_1320_" fill="#000004" d="M1868.9,1164l8.5-8.5l48.3,48.3c1.9,1.9,4,1.8,6.1-0.2l2.9-2.9l8,8l-3.7,3.7
			c-6.1,6.1-13.5,8.1-21,0.6L1868.9,1164z"/>
		<path id="XMLID_1317_" fill="#000004" d="M1940,1175.4c6.9,6.9,14.6,6.1,20.4,0.3c3.2-3.2,5.2-8.2,5.1-13.3l11.4-0.9
			c0.7,9-2.7,16.4-8.4,22c-8.6,8.6-22.8,14.5-40.1-2.7c-16.4-16.4-12.5-30.9-4.3-39c9.3-9.3,24.3-10.5,35.1,0.4l7,7L1940,1175.4z
			 M1950.8,1150.6c-6.6-6.1-13.7-5.9-18.7-0.9c-5,5-5.3,12.1,0.9,18.7L1950.8,1150.6z"/>
		<path id="XMLID_1315_" fill="#000004" d="M1953,1113.9l8.5-8.5l4.5,4.5l0.2-0.2c-0.7-6,1.5-11.5,6-15.9c3.4-3.4,7.5-5,12-5.6
			l1.2,13.5c-3.5,0.5-5.5,1.3-7.6,3.5c-4.2,4.2-5.6,10.9,0.6,17l25.3,25.3l-8.5,8.5L1953,1113.9z"/>
		<path id="XMLID_1313_" fill="#000004" d="M1975.1,1066.2l8.5-8.5l12.8,12.8l6.1-6.1l6.5,6.5l-6.1,6.1l24.5,24.5
			c2.3,2.3,4.1,2.2,6.1,0.2l3.2-3.2l8,8l-4.4,4.4c-5.9,5.9-14,6.5-20.6-0.2l-25.3-25.3l-4.2,4.2l-6.5-6.5l4.2-4.2L1975.1,1066.2z"/>
		<path id="XMLID_1310_" fill="#000004" d="M1995.8,1037.1l8.5-8.5l8.5,8.5l-8.5,8.5L1995.8,1037.1z M2012.8,1054.1l8.5-8.5
			l42.1,42.1l-8.5,8.5L2012.8,1054.1z"/>
		<path id="XMLID_1308_" fill="#000004" d="M2034.6,1032.4l8.5-8.5l4.5,4.5l0.2-0.2c-0.7-6,1.5-11.5,6-15.9c6.6-6.6,19.1-9,28.7,0.6
			l28,28l-8.5,8.5l-25.1-25.1c-5.7-5.7-12.6-5.5-17.4-0.7c-4.8,4.8-5.1,11.7,0.7,17.4l25.1,25.1l-8.5,8.5L2034.6,1032.4z"/>
		<path id="XMLID_1305_" fill="#000004" d="M2142.6,999.7c0.2,5.6-1.7,11.5-6,15.8c-5.5,5.5-12,6.5-16.3,6
			c-5.6-0.7-7.9-1.6-19.5-13.2c-11.7-11.7-12.5-14-13.3-19.6c-0.5-4.3,0.5-10.8,6-16.3c4.3-4.3,9.4-6.1,15.9-5.9l-4.5-4.5l8.5-8.5
			l41.1,41.1c12.7,12.7,9.9,27.2,0.2,36.8c-5.4,5.4-13.7,8.1-21.7,7.6l1.3-11.8c4.2,0,8.8-1.2,12-4.4c5.6-5.6,6.4-12.9,0.5-18.8
			L2142.6,999.7z M2120.8,1007.9c2.7,0.3,6.6-0.1,10-3.5c3.3-3.3,3.7-7.2,3.4-9.9c-0.4-3.4-1.4-4.7-8.1-11.5
			c-6.8-6.8-8.1-7.8-11.5-8.2c-2.7-0.3-6.6,0.1-9.9,3.4c-3.4,3.4-3.8,7.3-3.5,10c0.4,3.4,1.4,4.7,8.2,11.5
			C2116,1006.5,2117.4,1007.5,2120.8,1007.9z"/>
	</g>
	<g id="XMLID_1381_">
		<polygon id="XMLID_1394_" fill="#E0E1E2" points="1453,2092.9 1439,2092.9 1433,1988.3 1344.6,1870.8 1344.6,1839.1 
			1405.7,1839.1 1405.7,1870.8 1449.9,1988.3 		"/>
		<polygon id="XMLID_1393_" fill="#E0E1E2" points="1463.2,2092.9 1470.7,2092.9 1476.8,1988.3 1565.2,1870.8 1565.2,1839.1 
			1532.9,1839.1 1532.9,1870.8 1466.2,1988.3 		"/>
		
			<polygon id="XMLID_1392_" fill="none" stroke="#1E1D21" stroke-width="8" stroke-linecap="round" stroke-linejoin="round" stroke-miterlimit="10" points="
			1567,1839.1 1567,1870.8 1476.4,1991.2 1470.5,2092.9 1436.6,2092.9 1430.6,1988.3 1342.2,1870.8 1342.2,1839.1 		"/>
		
			<line id="XMLID_1391_" fill="none" stroke="#1E1D21" stroke-width="8" stroke-linecap="round" stroke-linejoin="round" stroke-miterlimit="10" x1="1342.2" y1="1870.8" x2="1465" y2="1870.8"/>
		
			<line id="XMLID_1390_" fill="none" stroke="#1E1D21" stroke-width="8" stroke-linecap="round" stroke-linejoin="round" stroke-miterlimit="10" x1="1514.1" y1="1870.8" x2="1567" y2="1870.8"/>
		<g id="XMLID_1385_">
			
				<path id="XMLID_1389_" fill="none" stroke="#1E1D21" stroke-width="8" stroke-linecap="round" stroke-linejoin="round" stroke-miterlimit="10" d="
				M1360.8,1696.7c7.5,3.2,14.3,7.8,20,13.5s10.3,12.5,13.5,20c3.2,7.5,4.9,15.8,4.9,24.5v12.5v12.5v12.5v12.5"/>
			
				<path id="XMLID_1388_" fill="none" stroke="#1E1D21" stroke-width="8" stroke-linecap="round" stroke-linejoin="round" stroke-miterlimit="10" d="
				M1549.6,1696.7c-7.5,3.2-14.3,7.8-20,13.5s-10.3,12.5-13.5,20c-3.2,7.5-4.9,15.8-4.9,24.5v12.5v12.5v12.5v12.5"/>
			
				<line id="XMLID_1387_" fill="none" stroke="#1E1D21" stroke-width="8" stroke-linecap="round" stroke-linejoin="round" stroke-miterlimit="10" x1="1454.8" y1="1647.5" x2="1454.8" y2="1764"/>
			
				<path id="XMLID_1386_" fill="none" stroke="#1E1D21" stroke-width="8" stroke-linecap="round" stroke-linejoin="round" stroke-miterlimit="10" d="
				M1517.7,1691.8"/>
		</g>
		
			<polyline id="XMLID_1384_" fill="none" stroke="#1E1D21" stroke-width="8" stroke-linecap="round" stroke-linejoin="round" stroke-miterlimit="10" points="
			1378.6,1789.5 1399.2,1810.1 1419.8,1789.5 		"/>
		
			<polyline id="XMLID_1383_" fill="none" stroke="#1E1D21" stroke-width="8" stroke-linecap="round" stroke-linejoin="round" stroke-miterlimit="10" points="
			1490.6,1789.5 1511.2,1810.1 1531.8,1789.5 		"/>
		
			<polyline id="XMLID_1382_" fill="none" stroke="#1E1D21" stroke-width="8" stroke-linecap="round" stroke-linejoin="round" stroke-miterlimit="10" points="
			1434.2,1749.3 1454.8,1769.9 1475.4,1749.3 		"/>
	</g>
	<g id="XMLID_1277_">
		<path id="XMLID_1301_" fill="#000004" d="M1638.4,1819.2c-0.2-4.9,0.8-11.6,7.4-18.2c6.6-6.6,13.3-7.6,18.2-7.4
			c6.8,0.3,11.6,2.5,20.7,11.5c9.1,9.1,11.3,14,11.6,20.8c0.2,4.9-0.8,11.6-7.4,18.2c-6.6,6.6-13.3,7.6-18.2,7.4
			c-6.8-0.3-11.6-2.5-20.8-11.6C1640.9,1830.9,1638.8,1826,1638.4,1819.2z M1664.2,1805.8c-3-0.5-7,0.8-9.9,3.7
			c-2.9,2.9-4.2,6.9-3.7,9.9c0.7,3.8,1.8,6,7.9,12c6.1,6.1,8.3,7.3,12.1,8c3,0.5,7-0.8,9.9-3.7c2.9-2.9,4.2-6.9,3.7-9.9
			c-0.7-3.8-1.8-6-7.9-12C1670.2,1807.6,1668,1806.4,1664.2,1805.8z"/>
		<path id="XMLID_1299_" fill="#000004" d="M1674.7,1773.2l8.5-8.5l4.5,4.5l0.2-0.2c-0.7-6,1.5-11.5,6-15.9c3.4-3.4,7.5-5,12-5.6
			l1.2,13.5c-3.5,0.5-5.5,1.3-7.6,3.5c-4.2,4.2-5.6,10.9,0.6,17l25.3,25.3l-8.5,8.5L1674.7,1773.2z"/>
		<path id="XMLID_1296_" fill="#000004" d="M1770.4,1752.9c0.2,5.6-1.7,11.5-6,15.8c-5.5,5.5-12,6.5-16.3,6
			c-5.6-0.7-7.9-1.6-19.5-13.2c-11.7-11.7-12.5-14-13.3-19.6c-0.5-4.3,0.5-10.8,6-16.3c4.3-4.3,9.4-6.1,15.9-5.9l-4.5-4.5l8.5-8.5
			l41.1,41.1c12.7,12.7,9.9,27.2,0.2,36.8c-5.4,5.4-13.7,8.1-21.7,7.6l1.3-11.8c4.2,0,8.8-1.2,12-4.4c5.6-5.6,6.4-12.9,0.5-18.8
			L1770.4,1752.9z M1748.6,1761.1c2.7,0.3,6.6-0.1,10-3.5c3.3-3.3,3.7-7.2,3.4-9.9c-0.4-3.4-1.4-4.7-8.1-11.5
			c-6.8-6.8-8.1-7.8-11.5-8.2c-2.7-0.3-6.6,0.1-9.9,3.4c-3.4,3.4-3.8,7.3-3.5,10c0.4,3.4,1.4,4.7,8.2,11.5
			C1743.9,1759.7,1745.2,1760.7,1748.6,1761.1z"/>
		<path id="XMLID_1293_" fill="#000004" d="M1814.7,1709.9l-0.2,0.2c1.2,4.7-0.4,8.9-6.1,14.6c-9.4,9.4-20.4,9.3-27.7,2
			c-6.7-6.7-7.8-17.1,1.2-26.2l11.7-11.7l-4.4-4.4c-4-4-8-2.8-14,3.2c-4.4,4.4-5.6,7.3-4.7,11.2l-11.7,1.6c-1.2-7.7,1.7-14,8.1-20.4
			c10.4-10.4,21-14,31.4-3.7l28.7,28.7l-8.5,8.5L1814.7,1709.9z M1800.6,1695.8l-10.1,10.1c-5,5-5.3,9.3-2.2,12.4
			c2.8,2.8,7.6,3.1,13.3-2.7c7.1-7.1,8.7-10.2,2.2-16.8L1800.6,1695.8z"/>
		<path id="XMLID_1291_" fill="#000004" d="M1797.8,1650l8.5-8.5l4.5,4.5l0.2-0.2c-0.7-6,1.5-11.5,6-15.9c6.6-6.6,19.1-9,28.7,0.6
			l28,28l-8.5,8.5l-25.1-25.1c-5.7-5.7-12.6-5.5-17.4-0.7c-4.8,4.8-5.1,11.7,0.7,17.4l25.1,25.1l-8.5,8.5L1797.8,1650z"/>
		<path id="XMLID_1288_" fill="#000004" d="M1827.7,1586.1l8.5-8.5l8.5,8.5l-8.5,8.5L1827.7,1586.1z M1844.8,1603.1l8.5-8.5
			l42.1,42.1l-8.5,8.5L1844.8,1603.1z"/>
		<path id="XMLID_1286_" fill="#000004" d="M1899.2,1619.5l-6.8-49l-19.9,19.9l-7.5-7.5l30.2-30.2l6.7,6.7l6.3,48.5l21.1-21.1l8,8
			l-31.4,31.4L1899.2,1619.5z"/>
		<path id="XMLID_1283_" fill="#000004" d="M1888.7,1525.1l8.5-8.5l8.5,8.5l-8.5,8.5L1888.7,1525.1z M1905.7,1542.1l8.5-8.5
			l42.1,42.1l-8.5,8.5L1905.7,1542.1z"/>
		<path id="XMLID_1281_" fill="#000004" d="M1927.5,1520.4l8.5-8.5l4.5,4.5l0.2-0.2c-0.7-6,1.5-11.5,6-15.9c6.6-6.6,19.1-9,28.7,0.6
			l28,28l-8.5,8.5l-25.1-25.1c-5.7-5.7-12.6-5.5-17.4-0.7c-4.8,4.8-5.1,11.7,0.7,17.4l25.1,25.1l-8.5,8.5L1927.5,1520.4z"/>
		<path id="XMLID_1278_" fill="#000004" d="M2035.6,1487.7c0.2,5.6-1.7,11.5-6,15.8c-5.5,5.5-12,6.5-16.3,6
			c-5.6-0.7-7.9-1.6-19.5-13.2c-11.7-11.7-12.5-14-13.3-19.6c-0.5-4.3,0.5-10.8,6-16.3c4.3-4.3,9.4-6.1,15.9-5.9l-4.5-4.5l8.5-8.5
			l41.1,41.1c12.7,12.7,9.9,27.2,0.2,36.8c-5.4,5.4-13.7,8.1-21.7,7.6l1.3-11.8c4.2,0,8.8-1.2,12-4.4c5.6-5.6,6.4-12.9,0.5-18.8
			L2035.6,1487.7z M2013.7,1495.9c2.7,0.3,6.6-0.1,10-3.5c3.3-3.3,3.7-7.2,3.4-9.9c-0.4-3.4-1.4-4.7-8.1-11.5
			c-6.8-6.8-8.1-7.8-11.5-8.2c-2.7-0.3-6.6,0.1-9.9,3.4c-3.4,3.4-3.8,7.3-3.5,10c0.4,3.4,1.4,4.7,8.2,11.5
			C2009,1494.5,2010.3,1495.5,2013.7,1495.9z"/>
	</g>
	<g id="XMLID_1236_">
		
			<rect id="XMLID_1243_" x="3178.7" y="765.2" fill="#E0E1E2" stroke="#1E1D21" stroke-width="8" stroke-miterlimit="10" width="56.8" height="98.9"/>
		
			<rect id="XMLID_1242_" x="3235.5" y="684.8" fill="#B0B5B7" stroke="#1E1D21" stroke-width="8" stroke-miterlimit="10" width="56.8" height="179.3"/>
		
			<rect id="XMLID_1241_" x="3340.4" y="723.7" fill="#E0E1E2" stroke="#1E1D21" stroke-width="8" stroke-miterlimit="10" width="56.8" height="140.4"/>
		
			<rect id="XMLID_1240_" x="3397.2" y="684.8" fill="#B0B5B7" stroke="#1E1D21" stroke-width="8" stroke-miterlimit="10" width="56.8" height="179.3"/>
		
			<rect id="XMLID_1239_" x="3502.1" y="743.7" fill="#E0E1E2" stroke="#1E1D21" stroke-width="8" stroke-miterlimit="10" width="56.8" height="120.4"/>
		
			<rect id="XMLID_1238_" x="3558.9" y="642.7" fill="#B0B5B7" stroke="#1E1D21" stroke-width="8" stroke-miterlimit="10" width="56.8" height="221.4"/>
		
			<polyline id="XMLID_1237_" fill="none" stroke="#1E1D21" stroke-width="8" stroke-linecap="round" stroke-linejoin="round" stroke-miterlimit="10" points="
			3142.6,648.3 3142.6,896.7 3623.9,896.7 		"/>
	</g>
	<g id="XMLID_1229_">
		
			<polyline id="XMLID_1235_" fill="none" stroke="#1E1D21" stroke-width="8" stroke-linecap="round" stroke-linejoin="round" stroke-miterlimit="10" points="
			2440.4,657.5 2440.4,905.8 2921.7,905.8 		"/>
		<polyline id="XMLID_1234_" fill="none" stroke="#1E1D21" stroke-width="8" stroke-miterlimit="10" points="2499.5,850.5 
			2623.7,657.5 2726.9,759.2 2921.7,658.7 		"/>
		<circle id="XMLID_1233_" fill="#1E1D21" cx="2499.5" cy="850.5" r="13.8"/>
		<circle id="XMLID_1232_" fill="#1E1D21" cx="2623.7" cy="657.5" r="13.8"/>
		<circle id="XMLID_1231_" fill="#1E1D21" cx="2921.7" cy="657.5" r="13.8"/>
		<circle id="XMLID_1230_" fill="#1E1D21" cx="2726.9" cy="759.2" r="13.8"/>
	</g>
	<g id="XMLID_532_">
		<g id="XMLID_978_">
			<path id="XMLID_1019_" fill="#000004" d="M2657.7,1967.7h12.7v6.7h0.2c4-5,9.7-7.5,16.4-7.5c5.1,0,9.3,1.9,13.2,4.8l-9.2,10.9
				c-3-2.2-5.1-3.1-8.3-3.1c-6.2,0-12.3,4-12.3,13.2v37.9h-12.7V1967.7z"/>
			<path id="XMLID_1016_" fill="#000004" d="M2709.5,1942.3h12.7v12.7h-12.7V1942.3z M2709.5,1967.7h12.7v63h-12.7V1967.7z"/>
			<path id="XMLID_1014_" fill="#000004" d="M2743.9,2011.5c5.5,5.3,11.4,8.1,19.9,8.1c7.2,0,12.4-2.7,12.4-8.1
				c0-4.5-3.4-5.8-7.7-6.2l-11.2-1c-10.4-0.9-18.1-7.1-18.1-17.9c0-12.8,10.2-19.4,23.5-19.4c11.1,0,18.5,3.4,24.7,8.6l-7.8,9.2
				c-5-3.5-10.1-5.8-16.9-5.8c-8.1,0-10.8,3.2-10.8,7.6c0,2.7,2,5.5,8.3,6l10.4,0.7c13,0.9,18.3,8.8,18.3,18.9
				c0,12.3-11.4,19.4-26.1,19.4c-10.2,0-19.6-3.7-27.7-11.3L2743.9,2011.5z"/>
			<path id="XMLID_1012_" fill="#000004" d="M2804.8,1942.3h12.7v55.1h0.2l24.2-29.6h15.2l-21.7,24.6l24.7,38.4h-15.9l-16.8-29.5
				l-9.9,11.3v18.1h-12.7V1942.3z"/>
			<path id="XMLID_1010_" fill="#000004" d="M2905.4,1967.7h12.7v37.5c0,8.6,5.3,13.5,12.6,13.5c7.1,0,12.4-5,12.4-13.5v-37.5h12.7
				v63H2943v-6.7h-0.2c-4,5-9.7,7.5-16.3,7.5c-9.9,0-21.1-7.6-21.1-21.9V1967.7z"/>
			<path id="XMLID_1008_" fill="#000004" d="M2975.2,1967.7h12.7v6.7h0.2c4-5,9.7-7.5,16.4-7.5c9.8,0,21,7.6,21,21.9v41.9h-12.7
				v-37.5c0-8.6-5.3-13.5-12.4-13.5c-7.2,0-12.6,5-12.6,13.5v37.5h-12.7V1967.7z"/>
			<path id="XMLID_1005_" fill="#000004" d="M3082.7,2024.2c-4,4.3-9.8,7.3-16.3,7.3c-7.7,0-13.3-3.5-16.9-8.2
				c-3.5-4.5-4.5-8.6-4.5-24.1c0-15.4,1-19.5,4.5-24c3.6-4.7,9.2-8.2,16.9-8.2c6.5,0,11.6,3,16.3,7.5v-32.2h12.7v88.5h-12.7V2024.2z
				 M3057.7,1999.2c0,9.8,0.6,19.6,12.6,19.6c11.8,0,12.4-10.4,12.4-19.6c0-9.1-0.6-19.5-12.4-19.5
				C3058.3,1979.7,3057.7,1989.5,3057.7,1999.2z"/>
			<path id="XMLID_1002_" fill="#000004" d="M3122.2,2004c0,10.3,6.3,15.5,15,15.5c4.8,0,10.1-2.2,13.8-6.1l9.2,7.8
				c-6.2,7.2-14.3,10.2-22.7,10.2c-12.9,0-28-6.2-28-32.1c0-24.5,13.8-32.4,26-32.4c13.9,0,26,10.3,26,26.6v10.4H3122.2z
				 M3148.8,1993.6c-0.4-9.6-5.8-14.7-13.3-14.7c-7.5,0-13,5.1-13.3,14.7H3148.8z"/>
			<path id="XMLID_1000_" fill="#000004" d="M3177.9,1967.7h12.7v6.7h0.2c4-5,9.7-7.5,16.4-7.5c5.1,0,9.3,1.9,13.2,4.8l-9.2,10.9
				c-3-2.2-5.1-3.1-8.3-3.1c-6.2,0-12.3,4-12.3,13.2v37.9h-12.7V1967.7z"/>
			<path id="XMLID_993_" fill="#000004" d="M3308.6,2020.6c-5.5,6.3-13,10.9-22.6,10.9c-14.5,0-28.6-9.2-28.6-32.2
				c0-23.1,14-32.3,28.6-32.3c9.6,0,17.1,4.6,22.6,10.9l-9.3,8.3c-3.1-3.9-7.6-6.6-12.8-6.6c-10.3,0-16.4,5.8-16.4,19.6
				c0,13.7,6.1,19.5,16.4,19.5c5.2,0,9.7-2.7,12.8-6.6L3308.6,2020.6z"/>
			<path id="XMLID_990_" fill="#000004" d="M3324.3,1975.1c3.5-3.9,9.3-8.1,19.1-8.1c9.8,0,15.7,4.2,19.1,8.1
				c4.8,5.3,6.8,10.6,6.8,24.1c0,13.7-2,18.9-6.8,24.2c-3.5,3.9-9.3,8.1-19.1,8.1c-9.8,0-15.7-4.2-19.1-8.1
				c-4.8-5.3-6.8-10.6-6.8-24.2C3317.4,1985.6,3319.4,1980.4,3324.3,1975.1z M3353.6,1984.3c-1.9-2.6-5.8-4.6-10.2-4.6
				c-4.4,0-8.3,2-10.2,4.6c-2.4,3.4-3.1,5.8-3.1,14.9c0,9.2,0.7,11.7,3.1,15c1.9,2.6,5.8,4.6,10.2,4.6c4.3,0,8.3-2,10.2-4.6
				c2.4-3.4,3.1-5.8,3.1-14.9C3356.7,1990.1,3355.9,1987.6,3353.6,1984.3z"/>
			<path id="XMLID_988_" fill="#000004" d="M3385.8,1967.7h12.7v6.7h0.2c4-5,9.7-7.5,16.4-7.5c9.8,0,21,7.6,21,21.9v41.9h-12.7
				v-37.5c0-8.6-5.3-13.5-12.4-13.5c-7.2,0-12.6,5-12.6,13.5v37.5h-12.7V1967.7z"/>
			<path id="XMLID_986_" fill="#000004" d="M3456.3,1948.6h12.7v19.1h9.2v9.7h-9.2v36.7c0,3.5,1.4,4.7,4.5,4.7h4.7v11.9h-6.6
				c-8.8,0-15.3-5.6-15.3-15.5v-37.8h-6.3v-9.7h6.3V1948.6z"/>
			<path id="XMLID_984_" fill="#000004" d="M3493.3,1967.7h12.7v6.7h0.2c4-5,9.7-7.5,16.4-7.5c5.1,0,9.3,1.9,13.2,4.8l-9.2,10.9
				c-3-2.2-5.1-3.1-8.3-3.1c-6.2,0-12.3,4-12.3,13.2v37.9h-12.7V1967.7z"/>
			<path id="XMLID_981_" fill="#000004" d="M3548.4,1975.1c3.5-3.9,9.3-8.1,19.1-8.1c9.8,0,15.7,4.2,19.1,8.1
				c4.8,5.3,6.8,10.6,6.8,24.1c0,13.7-2,18.9-6.8,24.2c-3.5,3.9-9.3,8.1-19.1,8.1c-9.8,0-15.7-4.2-19.1-8.1
				c-4.8-5.3-6.8-10.6-6.8-24.2C3541.6,1985.6,3543.6,1980.4,3548.4,1975.1z M3577.8,1984.3c-1.9-2.6-5.8-4.6-10.2-4.6
				c-4.3,0-8.3,2-10.2,4.6c-2.4,3.4-3.1,5.8-3.1,14.9c0,9.2,0.7,11.7,3.1,15c1.9,2.6,5.8,4.6,10.2,4.6c4.3,0,8.3-2,10.2-4.6
				c2.4-3.4,3.1-5.8,3.1-14.9C3580.9,1990.1,3580.1,1987.6,3577.8,1984.3z"/>
			<path id="XMLID_979_" fill="#000004" d="M3609.9,1942.3h12.7v72.2c0,2.9,1.6,4.3,4.7,4.3h4.4v11.9h-5.6c-9.2,0-16.2-4-16.2-15.3
				V1942.3z"/>
		</g>
		<g id="XMLID_972_">
			
				<circle id="XMLID_977_" fill="none" stroke="#1E1D21" stroke-width="8" stroke-linecap="round" stroke-linejoin="round" stroke-miterlimit="10" cx="2523.7" cy="2008.1" r="84.8"/>
			<g id="XMLID_973_">
				
					<polyline id="XMLID_51_" fill="none" stroke="#FFFFFF" stroke-width="36" stroke-linecap="round" stroke-linejoin="round" stroke-miterlimit="10" points="
					2485.2,2006.6 2526.5,2047.9 2588.8,1923.3 				"/>
				
					<polyline id="XMLID_50_" fill="none" stroke="#1E1D21" stroke-width="12" stroke-linecap="round" stroke-linejoin="round" stroke-miterlimit="10" points="
					2485.2,2006.6 2526.5,2047.9 2588.8,1923.3 				"/>
			</g>
		</g>
	</g>
	<g id="XMLID_657_">
		<g id="XMLID_1046_">
			<path id="XMLID_1073_" fill="#000004" d="M2651.1,1239.5h12.7v6.6c4-4.3,9.8-7.3,16.3-7.3c7.7,0,13.3,3.5,16.9,8.2
				c3.5,4.5,4.5,8.6,4.5,24.1c0,15.4-1,19.5-4.5,24c-3.6,4.7-9.2,8.2-16.9,8.2c-6.5,0-11.6-3-16.3-7.5v32.2h-12.7V1239.5z
				 M2688.7,1271c0-9.8-0.6-19.6-12.6-19.6c-11.8,0-12.4,10.4-12.4,19.6c0,9.1,0.6,19.5,12.4,19.5
				C2688.1,1290.5,2688.7,1280.7,2688.7,1271z"/>
			<path id="XMLID_1071_" fill="#000004" d="M2718.7,1239.5h12.7v6.7h0.2c4-5,9.7-7.5,16.4-7.5c5.1,0,9.3,1.9,13.2,4.8l-9.2,10.9
				c-3-2.2-5.1-3.1-8.3-3.1c-6.2,0-12.3,4-12.3,13.2v37.9h-12.7V1239.5z"/>
			<path id="XMLID_1068_" fill="#000004" d="M2773.8,1246.8c3.5-3.9,9.3-8.1,19.1-8.1c9.8,0,15.7,4.2,19.1,8.1
				c4.8,5.3,6.8,10.6,6.8,24.1c0,13.7-2,18.9-6.8,24.2c-3.5,3.9-9.3,8.1-19.1,8.1c-9.8,0-15.7-4.2-19.1-8.1
				c-4.8-5.3-6.8-10.6-6.8-24.2C2767,1257.3,2769,1252.1,2773.8,1246.8z M2803.2,1256c-1.9-2.6-5.8-4.6-10.2-4.6
				c-4.4,0-8.3,2-10.2,4.6c-2.4,3.4-3.1,5.8-3.1,14.9c0,9.2,0.7,11.7,3.1,15c1.9,2.6,5.8,4.6,10.2,4.6c4.3,0,8.3-2,10.2-4.6
				c2.4-3.4,3.1-5.8,3.1-14.9C2806.3,1261.8,2805.5,1259.3,2803.2,1256z"/>
			<path id="XMLID_1065_" fill="#000004" d="M2873,1295.9c-4,4.3-9.8,7.3-16.3,7.3c-7.7,0-13.3-3.5-16.9-8.2
				c-3.5-4.5-4.5-8.6-4.5-24.1c0-15.4,1-19.5,4.5-24c3.6-4.7,9.2-8.2,16.9-8.2c6.5,0,11.6,3,16.3,7.5V1214h12.7v88.5H2873V1295.9z
				 M2848,1270.9c0,9.8,0.6,19.6,12.6,19.6c11.8,0,12.4-10.4,12.4-19.6c0-9.1-0.6-19.5-12.4-19.5
				C2848.6,1251.4,2848,1261.2,2848,1270.9z"/>
			<path id="XMLID_1063_" fill="#000004" d="M2902.9,1239.5h12.7v37.5c0,8.6,5.3,13.5,12.6,13.5c7.1,0,12.4-5,12.4-13.5v-37.5h12.7
				v63h-12.7v-6.7h-0.2c-4,5-9.7,7.5-16.3,7.5c-9.9,0-21.1-7.6-21.1-21.9V1239.5z"/>
			<path id="XMLID_1061_" fill="#000004" d="M3019.1,1292.3c-5.5,6.3-13,10.9-22.6,10.9c-14.5,0-28.6-9.2-28.6-32.2
				c0-23.1,14-32.3,28.6-32.3c9.6,0,17.1,4.6,22.6,10.9l-9.3,8.3c-3.1-3.9-7.6-6.6-12.8-6.6c-10.3,0-16.4,5.8-16.4,19.6
				c0,13.7,6.1,19.5,16.4,19.5c5.2,0,9.7-2.7,12.8-6.6L3019.1,1292.3z"/>
			<path id="XMLID_1059_" fill="#000004" d="M3031.8,1220.3h12.7v19.1h9.2v9.7h-9.2v36.7c0,3.5,1.4,4.7,4.5,4.7h4.7v11.9h-6.6
				c-8.8,0-15.3-5.6-15.3-15.5v-37.8h-6.3v-9.7h6.3V1220.3z"/>
			<path id="XMLID_1056_" fill="#000004" d="M3069.1,1214h12.7v12.7h-12.7V1214z M3069.1,1239.5h12.7v63h-12.7V1239.5z"/>
			<path id="XMLID_1054_" fill="#000004" d="M3092.7,1239.5h13.4l14.8,44.1h0.2l14.8-44.1h13.4l-23.1,63h-10.4L3092.7,1239.5z"/>
			<path id="XMLID_1051_" fill="#000004" d="M3160.3,1214h12.7v12.7h-12.7V1214z M3160.3,1239.5h12.7v63h-12.7V1239.5z"/>
			<path id="XMLID_1049_" fill="#000004" d="M3193.6,1220.3h12.7v19.1h9.2v9.7h-9.2v36.7c0,3.5,1.4,4.7,4.5,4.7h4.7v11.9h-6.6
				c-8.8,0-15.3-5.6-15.3-15.5v-37.8h-6.3v-9.7h6.3V1220.3z"/>
			<path id="XMLID_1047_" fill="#000004" d="M3221.4,1239.5h13.4l14.9,44.1h0.2l14.9-44.1h13.4l-27.1,76.1
				c-3.5,9.7-10.1,12.4-17.8,12.4h-4.2V1316h3.7c3.2,0,6.3-1.7,7.6-5.5l3.5-10.6L3221.4,1239.5z"/>
		</g>
		<g id="XMLID_945_">
			
				<circle id="XMLID_971_" fill="none" stroke="#1E1D21" stroke-width="8" stroke-linecap="round" stroke-linejoin="round" stroke-miterlimit="10" cx="2525.2" cy="1277.7" r="84.8"/>
			<g id="XMLID_946_">
				<g id="XMLID_41_">
					
						<polyline id="XMLID_46_" fill="none" stroke="#1E1D21" stroke-width="8" stroke-linecap="round" stroke-linejoin="round" stroke-miterlimit="10" points="
						2551,1279.2 2551,1251.9 2523.7,1251.9 					"/>
					<g id="XMLID_42_">
						
							<line id="XMLID_44_" fill="none" stroke="#FFFFFF" stroke-width="12" stroke-linecap="round" stroke-linejoin="round" stroke-miterlimit="10" x1="2455.4" y1="1347.5" x2="2547.1" y2="1255.8"/>
						
							<line id="XMLID_43_" fill="none" stroke="#1E1D21" stroke-width="4" stroke-linecap="round" stroke-linejoin="round" stroke-miterlimit="10" x1="2455.4" y1="1347.5" x2="2547.1" y2="1255.8"/>
					</g>
				</g>
				<g id="XMLID_35_">
					
						<polyline id="XMLID_40_" fill="none" stroke="#FFFFFF" stroke-width="36" stroke-linecap="round" stroke-linejoin="round" stroke-miterlimit="10" points="
						2551,1279.2 2551,1251.9 2523.7,1251.9 					"/>
					<g id="XMLID_36_">
						
							<line id="XMLID_39_" fill="none" stroke="#FFFFFF" stroke-width="36" stroke-linecap="round" stroke-linejoin="round" stroke-miterlimit="10" x1="2455.4" y1="1347.5" x2="2547.1" y2="1255.8"/>
						
							<line id="XMLID_38_" fill="none" stroke="#FFFFFF" stroke-width="36" stroke-linecap="round" stroke-linejoin="round" stroke-miterlimit="10" x1="2455.4" y1="1347.5" x2="2547.1" y2="1255.8"/>
						
							<line id="XMLID_37_" fill="none" stroke="#FFFFFF" stroke-width="36" stroke-linecap="round" stroke-linejoin="round" stroke-miterlimit="10" x1="2455.4" y1="1347.5" x2="2547.1" y2="1255.8"/>
					</g>
				</g>
				<g id="XMLID_29_">
					
						<polyline id="XMLID_34_" fill="none" stroke="#1E1D21" stroke-width="12" stroke-linecap="round" stroke-linejoin="round" stroke-miterlimit="10" points="
						2551,1279.2 2551,1251.9 2523.7,1251.9 					"/>
					<g id="XMLID_30_">
						
							<line id="XMLID_33_" fill="none" stroke="#1E1D21" stroke-width="12" stroke-linecap="round" stroke-linejoin="round" stroke-miterlimit="10" x1="2455.4" y1="1347.5" x2="2547.1" y2="1255.8"/>
						
							<line id="XMLID_32_" fill="none" stroke="#1E1D21" stroke-width="12" stroke-linecap="round" stroke-linejoin="round" stroke-miterlimit="10" x1="2455.4" y1="1347.5" x2="2547.1" y2="1255.8"/>
						
							<line id="XMLID_31_" fill="none" stroke="#1E1D21" stroke-width="12" stroke-linecap="round" stroke-linejoin="round" stroke-miterlimit="10" x1="2455.4" y1="1347.5" x2="2547.1" y2="1255.8"/>
					</g>
				</g>
			</g>
		</g>
	</g>
	<g id="XMLID_656_">
		<g id="XMLID_1034_">
			<path id="XMLID_1044_" fill="#000004" d="M2702.3,1542.6c-5.5,6.3-13,10.9-22.6,10.9c-14.5,0-28.6-9.2-28.6-32.2
				c0-23.1,14-32.3,28.6-32.3c9.6,0,17.1,4.6,22.6,10.9l-9.3,8.3c-3.1-3.9-7.6-6.6-12.8-6.6c-10.3,0-16.4,5.8-16.4,19.6
				c0,13.7,6.1,19.5,16.4,19.5c5.2,0,9.7-2.7,12.8-6.6L2702.3,1542.6z"/>
			<path id="XMLID_1041_" fill="#000004" d="M2717.9,1497.1c3.5-3.9,9.3-8.1,19.1-8.1s15.7,4.2,19.1,8.1c4.8,5.3,6.8,10.6,6.8,24.1
				c0,13.7-2,18.9-6.8,24.2c-3.5,3.9-9.3,8.1-19.1,8.1s-15.7-4.2-19.1-8.1c-4.8-5.3-6.8-10.6-6.8-24.2
				C2711.1,1507.6,2713.1,1502.4,2717.9,1497.1z M2747.2,1506.3c-1.9-2.6-5.8-4.6-10.2-4.6c-4.4,0-8.3,2-10.2,4.6
				c-2.4,3.4-3.1,5.8-3.1,14.9c0,9.2,0.7,11.7,3.1,15c1.9,2.6,5.8,4.6,10.2,4.6c4.3,0,8.3-2,10.2-4.6c2.4-3.4,3.1-5.8,3.1-14.9
				C2750.3,1512.1,2749.6,1509.6,2747.2,1506.3z"/>
			<path id="XMLID_1039_" fill="#000004" d="M2781.3,1533.5c5.5,5.3,11.4,8.1,19.9,8.1c7.2,0,12.4-2.7,12.4-8.1
				c0-4.5-3.4-5.8-7.7-6.2l-11.2-1c-10.4-0.9-18.1-7.1-18.1-17.9c0-12.8,10.2-19.4,23.5-19.4c11.1,0,18.5,3.4,24.7,8.6l-7.8,9.2
				c-5-3.5-10.1-5.8-16.9-5.8c-8.1,0-10.8,3.2-10.8,7.6c0,2.7,2,5.5,8.3,6l10.4,0.7c13,0.9,18.3,8.8,18.3,18.9
				c0,12.3-11.4,19.4-26.1,19.4c-10.2,0-19.6-3.7-27.7-11.3L2781.3,1533.5z"/>
			<path id="XMLID_1037_" fill="#000004" d="M2842.9,1470.6h12.7v19.1h9.2v9.7h-9.2v36.7c0,3.5,1.4,4.7,4.5,4.7h4.7v11.9h-6.6
				c-8.8,0-15.3-5.6-15.3-15.5v-37.8h-6.3v-9.7h6.3V1470.6z"/>
			<path id="XMLID_1035_" fill="#000004" d="M2881.7,1533.5c5.5,5.3,11.4,8.1,19.9,8.1c7.2,0,12.4-2.7,12.4-8.1
				c0-4.5-3.4-5.8-7.7-6.2l-11.2-1c-10.4-0.9-18.1-7.1-18.1-17.9c0-12.8,10.2-19.4,23.5-19.4c11.1,0,18.5,3.4,24.7,8.6l-7.8,9.2
				c-5-3.5-10.1-5.8-16.9-5.8c-8.1,0-10.8,3.2-10.8,7.6c0,2.7,2,5.5,8.3,6l10.4,0.7c13,0.9,18.3,8.8,18.3,18.9
				c0,12.3-11.4,19.4-26.1,19.4c-10.2,0-19.6-3.7-27.7-11.3L2881.7,1533.5z"/>
		</g>
		<g id="XMLID_858_">
			
				<circle id="XMLID_944_" fill="none" stroke="#1E1D21" stroke-width="8" stroke-linecap="round" stroke-linejoin="round" stroke-miterlimit="10" cx="2525.2" cy="1519.8" r="84.8"/>
			<g id="XMLID_859_">
				<g id="XMLID_24_">
					
						<line id="XMLID_28_" fill="none" stroke="#1E1D21" stroke-width="8" stroke-linecap="round" stroke-linejoin="round" stroke-miterlimit="10" x1="2450.5" y1="1445.1" x2="2547.1" y2="1541.7"/>
					
						<polyline id="XMLID_25_" fill="none" stroke="#1E1D21" stroke-width="8" stroke-linecap="round" stroke-linejoin="round" stroke-miterlimit="10" points="
						2551,1518.3 2551,1545.6 2523.7,1545.6 					"/>
				</g>
				<g id="XMLID_21_">
					
						<line id="XMLID_23_" fill="none" stroke="#FFFFFF" stroke-width="36" stroke-linecap="round" stroke-linejoin="round" stroke-miterlimit="10" x1="2450.5" y1="1445.1" x2="2547.1" y2="1541.7"/>
					
						<polyline id="XMLID_22_" fill="none" stroke="#FFFFFF" stroke-width="36" stroke-linecap="round" stroke-linejoin="round" stroke-miterlimit="10" points="
						2551,1518.3 2551,1545.6 2523.7,1545.6 					"/>
				</g>
				<g id="XMLID_17_">
					
						<line id="XMLID_20_" fill="none" stroke="#1E1D21" stroke-width="12" stroke-linecap="round" stroke-linejoin="round" stroke-miterlimit="10" x1="2450.5" y1="1445.1" x2="2547.1" y2="1541.7"/>
					
						<polyline id="XMLID_19_" fill="none" stroke="#1E1D21" stroke-width="12" stroke-linecap="round" stroke-linejoin="round" stroke-miterlimit="10" points="
						2551,1518.3 2551,1545.6 2523.7,1545.6 					"/>
				</g>
			</g>
		</g>
	</g>
	<g id="XMLID_552_">
		<g id="XMLID_1021_">
			<path id="XMLID_1032_" fill="#000004" d="M2657.4,1743.1h-6.3v-9.7h6.3v-8.3c0-11.8,7.3-17.1,17.2-17.1h8.2v11.9h-7.2
				c-4.1,0-5.5,1.4-5.5,5.2v8.3h12.7v9.7h-12.7v53.3h-12.7V1743.1z"/>
			<path id="XMLID_1030_" fill="#000004" d="M2693.1,1733.4h12.7v6.7h0.2c4-5,9.7-7.5,16.4-7.5c5.1,0,9.3,1.9,13.2,4.8l-9.2,10.9
				c-3-2.2-5.1-3.1-8.3-3.1c-6.2,0-12.3,4-12.3,13.2v37.9h-12.7V1733.4z"/>
			<path id="XMLID_1027_" fill="#000004" d="M2777.6,1790.9h-0.2c-2.6,4.3-7,6.3-15.5,6.3c-14,0-22.2-8.3-22.2-19.3
				c0-10.1,7-18.6,20.5-18.6h17.5v-6.6c0-6-3.9-8.1-12.9-8.1c-6.6,0-9.7,1.2-11.9,4.8l-9.9-7.6c4.8-6.7,11.8-9.2,21.3-9.2
				c15.5,0,26.2,5.2,26.2,20.8v43h-12.7V1790.9z M2777.6,1769.7h-15.2c-7.5,0-10.9,3-10.9,7.6c0,4.2,3.4,8,11.9,8
				c10.6,0,14.2-1.1,14.2-10.9V1769.7z"/>
			<path id="XMLID_1025_" fill="#000004" d="M2809.7,1733.4h12.7v37.5c0,8.6,5.3,13.5,12.6,13.5c7.1,0,12.4-5,12.4-13.5v-37.5h12.7
				v63h-12.7v-6.7h-0.2c-4,5-9.7,7.5-16.3,7.5c-9.9,0-21.1-7.6-21.1-21.9V1733.4z"/>
			<path id="XMLID_1022_" fill="#000004" d="M2917.2,1789.9c-4,4.3-9.8,7.3-16.3,7.3c-7.7,0-13.3-3.5-16.9-8.2
				c-3.5-4.5-4.5-8.6-4.5-24.1c0-15.4,1-19.5,4.5-24c3.6-4.7,9.2-8.2,16.9-8.2c6.5,0,11.6,3,16.3,7.5V1708h12.7v88.5h-12.7V1789.9z
				 M2892.3,1764.9c0,9.8,0.6,19.6,12.6,19.6c11.8,0,12.4-10.4,12.4-19.6c0-9.1-0.6-19.5-12.4-19.5
				C2892.9,1745.4,2892.3,1755.2,2892.3,1764.9z"/>
		</g>
		<g id="XMLID_786_">
			
				<circle id="XMLID_857_" fill="none" stroke="#1E1D21" stroke-width="8" stroke-linecap="round" stroke-linejoin="round" stroke-miterlimit="10" cx="2525.2" cy="1761.9" r="84.8"/>
			<g id="XMLID_787_">
				<g id="XMLID_13_">
					
						<line id="XMLID_16_" fill="none" stroke="#1E1D21" stroke-width="8" stroke-linecap="round" stroke-linejoin="round" stroke-miterlimit="10" x1="2450.5" y1="1687.2" x2="2547.1" y2="1783.8"/>
					
						<polyline id="XMLID_15_" fill="none" stroke="#1E1D21" stroke-width="8" stroke-linecap="round" stroke-linejoin="round" stroke-miterlimit="10" points="
						2551,1760.5 2551,1787.7 2523.7,1787.7 					"/>
				</g>
				<g id="XMLID_5_">
					
						<line id="XMLID_12_" fill="none" stroke="#FFFFFF" stroke-width="36" stroke-linecap="round" stroke-linejoin="round" stroke-miterlimit="10" x1="2450.5" y1="1687.2" x2="2547.1" y2="1783.8"/>
					
						<polyline id="XMLID_6_" fill="none" stroke="#FFFFFF" stroke-width="36" stroke-linecap="round" stroke-linejoin="round" stroke-miterlimit="10" points="
						2551,1760.5 2551,1787.7 2523.7,1787.7 					"/>
				</g>
				<g id="XMLID_2_">
					
						<line id="XMLID_4_" fill="none" stroke="#1E1D21" stroke-width="12" stroke-linecap="round" stroke-linejoin="round" stroke-miterlimit="10" x1="2450.5" y1="1687.2" x2="2547.1" y2="1783.8"/>
					
						<polyline id="XMLID_3_" fill="none" stroke="#1E1D21" stroke-width="12" stroke-linecap="round" stroke-linejoin="round" stroke-miterlimit="10" points="
						2551,1760.5 2551,1787.7 2523.7,1787.7 					"/>
				</g>
			</g>
		</g>
	</g>
	<g id="XMLID_53_">
		<path id="XMLID_108_" fill="#E0E1E2" d="M3630.9,384.5l-53.4,35.8c-13.8-20.5-37.3-34.1-63.9-34.1c-4.3,0-8.6,0.4-12.7,1.1
			l-10.7-63.4c7.6-1.3,15.4-1.9,23.4-1.9C3562.5,322,3605.5,346.8,3630.9,384.5z"/>
		<path id="XMLID_80_" fill="#B0B5B7" d="M3500.9,387.4c-20.1,3.4-37.6,14.5-49.2,30.3l-51.8-38.1c21.3-28.9,53.4-49.4,90.3-55.6
			L3500.9,387.4z"/>
		
			<path id="XMLID_78_" fill="none" stroke="#1E1D21" stroke-width="8" stroke-linecap="round" stroke-linejoin="round" stroke-miterlimit="10" d="
			M3630.9,384.5l-53.4,35.8c-13.8-20.5-37.3-34.1-63.9-34.1c-4.3,0-8.6,0.4-12.7,1.1c-20.1,3.4-37.6,14.5-49.2,30.3l-51.8-38.1
			c21.3-28.9,53.4-49.4,90.3-55.6c7.6-1.3,15.4-1.9,23.4-1.9C3562.5,322,3605.5,346.8,3630.9,384.5z"/>
		<g id="XMLID_63_">
			<circle id="XMLID_65_" fill="#1E1D21" cx="3513.7" cy="463.2" r="15.4"/>
			<path id="XMLID_64_" fill="#1E1D21" d="M3513.6,462.8L3513.6,462.8c-3.1,0.5-6.1-1.6-6.7-4.7l-25.8-150.2
				c-0.5-3.1,1.6-6.1,4.7-6.7v0c3.1-0.5,6.1,1.6,6.7,4.7l25.8,150.2C3518.9,459.3,3516.8,462.2,3513.6,462.8z"/>
		</g>
	</g>
	<g id="XMLID_26_">
		<path id="XMLID_52_" fill="#E0E1E2" d="M2674.2,384.6l-53.4,35.8c-4.2-6.3-9.3-11.9-15.1-16.6l40.8-49.8
			C2657.1,362.8,2666.4,373.1,2674.2,384.6z"/>
		<path id="XMLID_49_" fill="#B0B5B7" d="M2646.4,354.1l-40.8,49.8c-13.3-10.9-30.2-17.4-48.7-17.4c-25.4,0-47.9,12.3-61.9,31.3
			l-51.8-38.1c25.7-34.9,67.1-57.5,113.7-57.5C2590.9,322.1,2622,334.1,2646.4,354.1z"/>
		
			<path id="XMLID_48_" fill="none" stroke="#1E1D21" stroke-width="8" stroke-linecap="round" stroke-linejoin="round" stroke-miterlimit="10" d="
			M2674.2,384.6l-53.4,35.8c-4.2-6.3-9.3-11.9-15.1-16.6c-13.3-10.9-30.2-17.4-48.7-17.4c-25.4,0-47.9,12.3-61.9,31.3l-51.8-38.1
			c25.7-34.9,67.1-57.5,113.7-57.5c34,0,65.1,12,89.5,32C2657.1,362.8,2666.4,373.1,2674.2,384.6z"/>
		<g id="XMLID_27_">
			<circle id="XMLID_47_" fill="#1E1D21" cx="2556.6" cy="463.2" r="15.4"/>
			<path id="XMLID_45_" fill="#1E1D21" d="M2556.9,462.9L2556.9,462.9c-2.5-2-2.8-5.7-0.7-8.1l97.6-117.1c2-2.5,5.7-2.8,8.1-0.7v0
				c2.5,2,2.8,5.7,0.7,8.1L2565,462.1C2563,464.6,2559.3,464.9,2556.9,462.9z"/>
		</g>
	</g>
	<g id="XMLID_7_">
		<path id="XMLID_18_" fill="#E0E1E2" d="M3151.2,380.9l-52.2,37.5c-14-19.4-36.7-32-62.5-32c-12.7,0-24.7,3.1-35.3,8.5l-29.5-57.2
			c19.4-10,41.4-15.7,64.7-15.7C3083.8,322,3125.6,345.2,3151.2,380.9z"/>
		<path id="XMLID_14_" fill="#B0B5B7" d="M3001.3,394.9c-10.6,5.5-19.7,13.3-26.7,22.8l-3.6-2.6l-48.2-35.5
			c12.9-17.4,29.6-31.8,49-41.8L3001.3,394.9z"/>
		
			<path id="XMLID_11_" fill="none" stroke="#1E1D21" stroke-width="8" stroke-linecap="round" stroke-linejoin="round" stroke-miterlimit="10" d="
			M3151.2,380.9l-52.2,37.5c-14-19.4-36.7-32-62.5-32c-12.7,0-24.7,3.1-35.3,8.5c-10.6,5.5-19.7,13.3-26.7,22.8l-3.6-2.6l-48.2-35.5
			c0,0,0,0,0,0c12.9-17.4,29.6-31.8,49-41.8c19.4-10,41.4-15.7,64.7-15.7C3083.8,322,3125.6,345.2,3151.2,380.9z"/>
		<g id="XMLID_8_">
			<circle id="XMLID_10_" fill="#1E1D21" cx="3036.7" cy="463.2" r="15.4"/>
			<path id="XMLID_9_" fill="#1E1D21" d="M3036.5,462.8L3036.5,462.8c-2.8,1.5-6.3,0.3-7.8-2.5l-69.6-135.6
				c-1.5-2.8-0.3-6.3,2.5-7.8l0,0c2.8-1.5,6.3-0.3,7.8,2.5l69.6,135.6C3040.5,457.9,3039.4,461.4,3036.5,462.8z"/>
		</g>
	</g>
	<g id="XMLID_118_">
		<path id="XMLID_130_" fill="#E0E1E2" d="M1308.4,650c0-19.2-15.6-34.8-34.8-34.8v-36.3h0c5,0,10,0.5,14.7,1.5l13.5-23.4l38.2,22.1
			l-13.5,23.5c6.5,7.3,11.6,15.9,14.7,25.5h27.1v44.1h-27.1c-3.1,9.5-8.2,18.2-14.7,25.5l13.5,23.5l-38.2,22.1l-13.5-23.4
			c-4.7,1-9.7,1.5-14.7,1.5h0v-36.3C1292.8,684.8,1308.4,669.2,1308.4,650z"/>
		
			<path id="XMLID_127_" fill="none" stroke="#1E1D21" stroke-width="8" stroke-linecap="round" stroke-linejoin="round" stroke-miterlimit="10" d="
			M1178.9,628v44.1h27.1c3.1,9.5,8.2,18.2,14.7,25.5l-13.5,23.5l38.2,22.1l13.5-23.4c4.7,1,9.7,1.5,14.7,1.5c5,0,10-0.5,14.7-1.5
			l13.5,23.4l38.2-22.1l-13.5-23.5c6.5-7.3,11.6-15.9,14.7-25.5h27.1V628h-27.1c-3.1-9.5-8.2-18.2-14.7-25.5l13.5-23.5l-38.2-22.1
			l-13.5,23.4c-4.7-1-9.7-1.5-14.7-1.5c-5,0-10,0.5-14.7,1.5l-13.5-23.4l-38.2,22.1l13.5,23.5c-6.5,7.3-11.6,15.9-14.7,25.5H1178.9z
			 M1238.8,650c0-19.2,15.6-34.8,34.8-34.8c19.2,0,34.8,15.6,34.8,34.8s-15.6,34.8-34.8,34.8C1254.4,684.8,1238.8,669.2,1238.8,650z
			"/>
		<path id="XMLID_122_" fill="#E0E1E2" d="M1435.3,776.9c0-19.2-15.6-34.8-34.8-34.8v-36.3h0c5,0,10,0.5,14.7,1.5l13.5-23.4
			l38.2,22.1l-13.5,23.5c6.5,7.3,11.6,15.9,14.7,25.5h27.1V799h-27.1c-3.1,9.5-8.2,18.2-14.7,25.5l13.5,23.5l-38.2,22.1l-13.5-23.4
			c-4.7,1-9.7,1.5-14.7,1.5h0v-36.3C1419.7,811.8,1435.3,796.2,1435.3,776.9z"/>
		
			<path id="XMLID_119_" fill="none" stroke="#1E1D21" stroke-width="8" stroke-linecap="round" stroke-linejoin="round" stroke-miterlimit="10" d="
			M1305.8,754.9V799h27.1c3.1,9.5,8.2,18.2,14.7,25.5l-13.5,23.5l38.2,22.1l13.5-23.4c4.7,1,9.7,1.5,14.7,1.5s10-0.5,14.7-1.5
			l13.5,23.4l38.2-22.1l-13.5-23.5c6.5-7.3,11.6-15.9,14.7-25.5h27.1v-44.1h-27.1c-3.1-9.5-8.2-18.2-14.7-25.5l13.5-23.5l-38.2-22.1
			l-13.5,23.4c-4.7-1-9.7-1.5-14.7-1.5s-10,0.5-14.7,1.5l-13.5-23.4l-38.2,22.1l13.5,23.5c-6.5,7.3-11.6,15.9-14.7,25.5H1305.8z
			 M1365.7,776.9c0-19.2,15.6-34.8,34.8-34.8c19.2,0,34.8,15.6,34.8,34.8c0,19.2-15.6,34.8-34.8,34.8
			C1381.3,811.8,1365.7,796.2,1365.7,776.9z"/>
	</g>
	<g id="XMLID_162_">
		
			<rect id="XMLID_1413_" x="1127" y="1190.4" fill="#C6CACB" stroke="#1E1D21" stroke-width="8" stroke-linecap="round" stroke-linejoin="round" stroke-miterlimit="10" width="173.7" height="41.1"/>
		
			<rect id="XMLID_1410_" x="1127.5" y="1373" fill="#C6CACB" stroke="#1E1D21" stroke-width="8" stroke-linecap="round" stroke-linejoin="round" stroke-miterlimit="10" width="173.7" height="41.1"/>
		
			<path id="XMLID_1409_" fill="none" stroke="#1E1D21" stroke-width="8" stroke-linecap="round" stroke-linejoin="round" stroke-miterlimit="10" d="
			M1275.3,1302.2h25.4c25.3,0,45.8,20.4,45.8,45.6l0,0c0,25.2-20.5,45.6-45.8,45.6"/>
		
			<polyline id="XMLID_1408_" fill="none" stroke="#1E1D21" stroke-width="8" stroke-linecap="round" stroke-linejoin="round" stroke-miterlimit="10" points="
			1301.1,1273.2 1272,1302.2 1301.1,1331.3 		"/>
		
			<rect id="XMLID_1411_" x="1081.7" y="1281.7" fill="#C6CACB" stroke="#1E1D21" stroke-width="8" stroke-linecap="round" stroke-linejoin="round" stroke-miterlimit="10" width="173.7" height="41.1"/>
	</g>
</g>
<g id="Laag_4">
</g>
<g id="nrs">
</g>
</svg>
