<?xml version="1.0" encoding="utf-8"?>
<!-- Generator: Adobe Illustrator 19.0.0, SVG Export Plug-In . SVG Version: 6.00 Build 0)  -->
<svg version="1.2" baseProfile="tiny" xmlns="http://www.w3.org/2000/svg" xmlns:xlink="http://www.w3.org/1999/xlink" x="0px"
	 y="0px" width="3812.2px" height="2342.1px" viewBox="0 0 3812.2 2342.1" xml:space="preserve">
<g id="verbindingen">
	<g id="XMLID_3779_">
	</g>
	<polyline id="XMLID_3159_" fill="none" stroke="#3C616B" stroke-width="4" stroke-miterlimit="10" points="1565.2,172.3 
		1478,257.9 1390.6,395.8 1520.9,529.3 1587.4,776.1 1814.2,747.3 1784.7,597.2 1833.6,495.8 1804.2,380.5 	"/>
	
		<line id="XMLID_3158_" fill="none" stroke="#3C616B" stroke-width="4" stroke-miterlimit="10" x1="1520.9" y1="529.3" x2="1784.7" y2="597.2"/>
	<polyline id="XMLID_3157_" fill="none" stroke="#3C616B" stroke-width="4" stroke-miterlimit="10" points="1926.4,499.5 
		2045,476.3 2114.5,649.7 2321,789.9 	"/>
	<polyline id="XMLID_3156_" fill="none" stroke="#3C616B" stroke-width="4" stroke-miterlimit="10" points="3262.6,672.5 
		3104.7,865.5 2907.4,694.2 	"/>
	<polyline id="XMLID_3130_" fill="none" stroke="#3C616B" stroke-width="4" stroke-miterlimit="10" points="3104.7,865.5 
		2942.6,1060.6 2833.1,1327.4 3032.1,1487.5 	"/>
	<polyline id="XMLID_3129_" fill="none" stroke="#3C616B" stroke-width="4" stroke-miterlimit="10" points="3360.2,1422.1 
		3414.6,1271.6 3335.2,1029.3 3221.7,1271.6 2942.6,1060.6 	"/>
	<polyline id="XMLID_3128_" fill="none" stroke="#3C616B" stroke-width="4" stroke-miterlimit="10" points="3335.2,1029.3 
		2833.1,1327.4 2649.1,1450.7 	"/>
	
		<line id="XMLID_3127_" fill="none" stroke="#3C616B" stroke-width="4" stroke-miterlimit="10" x1="1467.3" y1="819.7" x2="1153.4" y2="849.4"/>
	<polyline id="XMLID_3126_" fill="none" stroke="#3C616B" stroke-width="4" stroke-miterlimit="10" points="1467.3,819.7 
		952.2,1467.2 690.7,776.1 828.6,848.7 508,1066.1 678.2,1230.7 952.2,1116.4 952.2,1467.2 	"/>
	<polyline id="XMLID_3120_" fill="none" stroke="#3C616B" stroke-width="4" stroke-miterlimit="10" points="76,1020.4 276.5,1178.3 
		508,1066.1 455,1271.6 	"/>
	<polyline id="XMLID_3119_" fill="none" stroke="#3C616B" stroke-width="4" stroke-miterlimit="10" points="257.4,1333.4 
		276.5,1178.3 455,1271.6 678.2,1230.7 952.2,1467.2 	"/>
	<polyline id="XMLID_3118_" fill="none" stroke="#3C616B" stroke-width="4" stroke-miterlimit="10" points="828.6,848.7 
		952.2,1116.4 1224.2,1312.4 1550.6,1377.7 1494.1,1626.1 	"/>
	<polyline id="XMLID_3117_" fill="none" stroke="#3C616B" stroke-width="4" stroke-miterlimit="10" points="1550.6,1377.7 
		1744.7,979.7 1904.7,848.7 	"/>
	<polyline id="XMLID_3116_" fill="none" stroke="#3C616B" stroke-width="4" stroke-miterlimit="10" points="1833.6,1277.6 
		2114.5,1017.1 2114.5,649.7 1904.7,848.7 2081.4,1450.7 2254.9,1271.6 2428.6,1079 2549.8,889.6 2942.6,1060.6 3335.2,1029.3 
		3535.5,948 	"/>
	<polyline id="XMLID_3101_" fill="none" stroke="#3C616B" stroke-width="4" stroke-miterlimit="10" points="2114.5,1017.1 
		2254.9,1271.6 2459.8,1416.9 2543.4,1628 2299.4,1438 2155.6,1702.3 2327.6,1622.1 2081.4,1450.7 1833.6,1277.6 1446.4,1116.4 
		1494.1,1626.1 1224.2,1312.4 1153.4,849.4 1224.2,672.5 	"/>
	<polyline id="XMLID_3095_" fill="none" stroke="#3C616B" stroke-width="4" stroke-miterlimit="10" points="1491.1,172.3 
		1478,257.9 1602.6,277.4 	"/>
	
		<line id="XMLID_3094_" fill="none" stroke="#3C616B" stroke-width="4" stroke-miterlimit="10" x1="1904.7" y1="571.5" x2="1833.6" y2="495.8"/>
	
		<line id="XMLID_3093_" fill="none" stroke="#3C616B" stroke-width="4" stroke-miterlimit="10" x1="1526.3" y1="928.6" x2="1587.4" y2="776.1"/>
	
		<circle id="XMLID_3070_" fill="none" stroke="#64686B" stroke-width="4" stroke-linecap="round" stroke-linejoin="round" stroke-dasharray="11.999,11.999" cx="1833.6" cy="1277.6" r="99.3"/>
	
		<circle id="XMLID_1948_" fill="none" stroke="#64686B" stroke-width="4" stroke-linecap="round" stroke-linejoin="round" stroke-dasharray="12.0052,12.0052" cx="1833.6" cy="1277.6" r="221.6"/>
	
		<circle id="XMLID_1936_" fill="none" stroke="#64686B" stroke-width="4" stroke-linecap="round" stroke-linejoin="round" stroke-dasharray="11.999,11.999" cx="1446.4" cy="1116.4" r="99.3"/>
	
		<circle id="XMLID_1933_" fill="none" stroke="#64686B" stroke-width="4" stroke-linecap="round" stroke-linejoin="round" stroke-dasharray="11.999,11.999" cx="508" cy="1066.1" r="99.3"/>
	
		<circle id="XMLID_1930_" fill="none" stroke="#64686B" stroke-width="4" stroke-linecap="round" stroke-linejoin="round" stroke-dasharray="11.999,11.999" cx="1494.1" cy="1626.1" r="99.3"/>
	
		<circle id="XMLID_1927_" fill="none" stroke="#64686B" stroke-width="4" stroke-linecap="round" stroke-linejoin="round" stroke-dasharray="11.999,11.999" cx="2422.2" cy="1079" r="99.3"/>
	
		<circle id="XMLID_1924_" fill="none" stroke="#64686B" stroke-width="4" stroke-linecap="round" stroke-linejoin="round" stroke-dasharray="12.0753,12.0753" cx="3032.1" cy="1487.5" r="65.3"/>
	
		<circle id="XMLID_1921_" fill="none" stroke="#64686B" stroke-width="4" stroke-linecap="round" stroke-linejoin="round" stroke-dasharray="11.9308,11.9308" cx="3032.1" cy="1487.5" r="140.5"/>
	
		<circle id="XMLID_1918_" fill="none" stroke="#64686B" stroke-width="4" stroke-linecap="round" stroke-linejoin="round" stroke-dasharray="12.0753,12.0753" cx="2543.4" cy="1628" r="65.3"/>
	
		<circle id="XMLID_1915_" fill="none" stroke="#64686B" stroke-width="4" stroke-linecap="round" stroke-linejoin="round" stroke-dasharray="12.0753,12.0753" cx="2459.8" cy="1416.9" r="65.3"/>
	
		<circle id="XMLID_1912_" fill="none" stroke="#64686B" stroke-width="4" stroke-linecap="round" stroke-linejoin="round" stroke-dasharray="12.0753,12.0753" cx="1550.6" cy="1377.7" r="65.3"/>
	
		<circle id="XMLID_1909_" fill="none" stroke="#64686B" stroke-width="4" stroke-linecap="round" stroke-linejoin="round" stroke-dasharray="12.0753,12.0753" cx="678.2" cy="1230.7" r="65.3"/>
	
		<circle id="XMLID_1906_" fill="none" stroke="#64686B" stroke-width="4" stroke-linecap="round" stroke-linejoin="round" stroke-dasharray="11.8746,11.8746" cx="455" cy="1271.6" r="52.9"/>
	
		<circle id="XMLID_1903_" fill="none" stroke="#64686B" stroke-width="4" stroke-linecap="round" stroke-linejoin="round" stroke-dasharray="11.8746,11.8746" cx="690.7" cy="776.1" r="52.9"/>
	
		<circle id="XMLID_1900_" fill="none" stroke="#64686B" stroke-width="4" stroke-linecap="round" stroke-linejoin="round" stroke-dasharray="11.8746,11.8746" cx="1520.9" cy="529.3" r="52.9"/>
	
		<circle id="XMLID_1897_" fill="none" stroke="#64686B" stroke-width="4" stroke-linecap="round" stroke-linejoin="round" stroke-dasharray="11.8746,11.8746" cx="1224.2" cy="1312.4" r="52.9"/>
	
		<circle id="XMLID_1894_" fill="none" stroke="#64686B" stroke-width="4" stroke-linecap="round" stroke-linejoin="round" stroke-dasharray="12.2707,12.2707" cx="1777.8" cy="1657.3" r="31.3"/>
	
		<circle id="XMLID_1891_" fill="none" stroke="#64686B" stroke-width="4" stroke-linecap="round" stroke-linejoin="round" stroke-dasharray="12.2707,12.2707" cx="76" cy="1020.4" r="31.3"/>
	
		<circle id="XMLID_1888_" fill="none" stroke="#64686B" stroke-width="4" stroke-linecap="round" stroke-linejoin="round" stroke-dasharray="12.2707,12.2707" cx="257.4" cy="1333.4" r="31.3"/>
	
		<circle id="XMLID_1885_" fill="none" stroke="#64686B" stroke-width="4" stroke-linecap="round" stroke-linejoin="round" stroke-dasharray="12.6213,12.6213" cx="3360.2" cy="1422.1" r="28.1"/>
	
		<circle id="XMLID_1882_" fill="none" stroke="#64686B" stroke-width="4" stroke-linecap="round" stroke-linejoin="round" stroke-dasharray="12.6213,12.6213" cx="1224.2" cy="672.5" r="28.1"/>
	
		<circle id="XMLID_1879_" fill="none" stroke="#64686B" stroke-width="4" stroke-linecap="round" stroke-linejoin="round" stroke-dasharray="12.6213,12.6213" cx="1682.1" cy="1857.5" r="28.1"/>
	
		<circle id="XMLID_1876_" fill="none" stroke="#64686B" stroke-width="4" stroke-linecap="round" stroke-linejoin="round" stroke-dasharray="12.6213,12.6213" cx="2155.6" cy="1702.3" r="28.1"/>
	
		<circle id="XMLID_1873_" fill="none" stroke="#64686B" stroke-width="4" stroke-linecap="round" stroke-linejoin="round" stroke-dasharray="12.6213,12.6213" cx="2299.4" cy="1438" r="28.1"/>
	
		<circle id="XMLID_1870_" fill="none" stroke="#64686B" stroke-width="4" stroke-linecap="round" stroke-linejoin="round" stroke-dasharray="12.6213,12.6213" cx="2891.6" cy="824.7" r="28.1"/>
	
		<circle id="XMLID_1867_" fill="none" stroke="#64686B" stroke-width="4" stroke-linecap="round" stroke-linejoin="round" stroke-dasharray="12.6213,12.6213" cx="2534" cy="683" r="28.1"/>
	<polyline id="XMLID_1866_" fill="none" stroke="#3C616B" stroke-width="4" stroke-miterlimit="10" points="1682.1,1857.5 
		1777.8,1657.3 1971.4,1730.4 2081.4,1450.7 	"/>
	
		<line id="XMLID_1865_" fill="none" stroke="#3C616B" stroke-width="4" stroke-miterlimit="10" x1="1971.4" y1="1730.4" x2="2155.6" y2="1702.3"/>
	<polyline id="XMLID_1864_" fill="none" stroke="#3C616B" stroke-width="4" stroke-miterlimit="10" points="2534,683 2720.9,792.9 
		2891.6,824.7 	"/>
	<polyline id="XMLID_1863_" fill="none" stroke="#3C616B" stroke-width="4" stroke-miterlimit="10" points="2549.8,889.6 
		2720.9,792.9 2689.7,1060.6 	"/>
	
		<line id="XMLID_1862_" fill="none" stroke="#3C616B" stroke-width="4" stroke-miterlimit="10" x1="3724.4" y1="1134.8" x2="3335.2" y2="1029.3"/>
	<polyline id="XMLID_1861_" fill="none" stroke="#3C616B" stroke-width="4" stroke-miterlimit="10" points="2891.6,824.7 
		2907.4,694.2 3262.6,672.5 	"/>
</g>
<g id="Laag_1">
	<g id="XMLID_5703_">
		
			<circle id="XMLID_5706_" fill="none" stroke="#898C90" stroke-width="4" stroke-linecap="round" stroke-linejoin="round" stroke-dasharray="12.006,12.006" cx="3335.2" cy="1027" r="72.6"/>
		<circle id="XMLID_5705_" fill="#B0B5B7" cx="3335.2" cy="1027" r="40.8"/>
	</g>
	<g id="XMLID_5695_">
		
			<circle id="XMLID_5698_" fill="none" stroke="#898C90" stroke-width="4" stroke-linecap="round" stroke-linejoin="round" stroke-dasharray="12.006,12.006" cx="3221.7" cy="1271.6" r="72.6"/>
		<circle id="XMLID_5697_" fill="#898C90" cx="3221.7" cy="1271.6" r="40.8"/>
	</g>
	<g id="XMLID_5679_">
		
			<circle id="XMLID_5692_" fill="none" stroke="#898C90" stroke-width="4" stroke-linecap="round" stroke-linejoin="round" stroke-dasharray="12.006,12.006" cx="3104.7" cy="865.5" r="72.6"/>
		<circle id="XMLID_5685_" fill="#C6CACB" cx="3104.7" cy="865.5" r="40.8"/>
	</g>
	<g id="XMLID_5649_">
		
			<circle id="XMLID_5676_" fill="none" stroke="#898C90" stroke-width="4" stroke-linecap="round" stroke-linejoin="round" stroke-dasharray="12.006,12.006" cx="828.6" cy="848.7" r="72.6"/>
		<circle id="XMLID_5651_" fill="#898C90" cx="828.6" cy="848.7" r="40.8"/>
	</g>
	<g id="XMLID_5644_">
		
			<circle id="XMLID_5646_" fill="none" stroke="#898C90" stroke-width="4" stroke-linecap="round" stroke-linejoin="round" stroke-dasharray="11.6361,11.6361" cx="2649.1" cy="1450.7" r="51.9"/>
		<circle id="XMLID_5645_" fill="#898C90" cx="2649.1" cy="1450.7" r="29.2"/>
	</g>
	<g id="XMLID_5639_">
		
			<circle id="XMLID_5641_" fill="none" stroke="#898C90" stroke-width="4" stroke-linecap="round" stroke-linejoin="round" stroke-dasharray="12.006,12.006" cx="276.5" cy="1178.3" r="72.6"/>
		<circle id="XMLID_5640_" fill="#898C90" cx="276.5" cy="1178.3" r="40.8"/>
	</g>
	<g id="XMLID_5634_">
		
			<circle id="XMLID_5636_" fill="none" stroke="#C6CACB" stroke-width="4" stroke-linecap="round" stroke-linejoin="round" stroke-dasharray="12.0574,12.0574" cx="2327.6" cy="1622.1" r="80.6"/>
		<circle id="XMLID_5635_" fill="#C6CACB" cx="2327.6" cy="1622.1" r="45.3"/>
	</g>
	<g id="XMLID_5626_">
		
			<circle id="XMLID_5631_" fill="none" stroke="#B0B5B7" stroke-width="4" stroke-linecap="round" stroke-linejoin="round" stroke-dasharray="12.2199,12.2199" cx="952.2" cy="1116.4" r="89.5"/>
		
			<circle id="XMLID_5628_" fill="none" stroke="#B0B5B7" stroke-width="4" stroke-linecap="round" stroke-linejoin="round" stroke-dasharray="12.0868,12.0868" cx="952.2" cy="1116.4" r="192.4"/>
		<circle id="XMLID_5627_" fill="#B0B5B7" cx="952.2" cy="1116.4" r="50.3"/>
	</g>
	<g id="XMLID_5617_">
		
			<circle id="XMLID_5623_" fill="none" stroke="#B0B5B7" stroke-width="4" stroke-linecap="round" stroke-linejoin="round" stroke-dasharray="12.2199,12.2199" cx="952.2" cy="1467.2" r="89.5"/>
		
			<circle id="XMLID_5619_" fill="none" stroke="#B0B5B7" stroke-width="4" stroke-linecap="round" stroke-linejoin="round" stroke-dasharray="12.1158,12.1158" cx="952.2" cy="1467.2" r="181.3"/>
		<circle id="XMLID_5618_" fill="#C6CACB" cx="952.2" cy="1467.2" r="50.3"/>
	</g>
	<g id="XMLID_5612_">
		
			<circle id="XMLID_5614_" fill="none" stroke="#B0B5B7" stroke-width="4" stroke-linecap="round" stroke-linejoin="round" stroke-dasharray="12.2199,12.2199" cx="2942.6" cy="1060.6" r="89.5"/>
		<circle id="XMLID_5613_" fill="#898C90" cx="2942.6" cy="1060.6" r="50.3"/>
	</g>
	<g id="XMLID_5604_">
		
			<circle id="XMLID_5609_" fill="none" stroke="#B0B5B7" stroke-width="4" stroke-linecap="round" stroke-linejoin="round" stroke-dasharray="11.9259,11.9259" cx="2833.1" cy="1327.4" r="216.4"/>
		
			<circle id="XMLID_5606_" fill="none" stroke="#B0B5B7" stroke-width="4" stroke-linecap="round" stroke-linejoin="round" stroke-dasharray="12.2199,12.2199" cx="2833.1" cy="1327.4" r="89.5"/>
		<circle id="XMLID_5605_" fill="#B0B5B7" cx="2833.1" cy="1327.4" r="50.3"/>
	</g>
	<g id="XMLID_5602_">
		<circle id="XMLID_5603_" fill="#3A3C3F" cx="1833.6" cy="1277.6" r="55.8"/>
	</g>
	<g id="XMLID_5600_">
		<circle id="XMLID_5601_" fill="#64686B" cx="1446.4" cy="1116.4" r="55.8"/>
	</g>
	<g id="XMLID_5598_">
		<circle id="XMLID_5599_" fill="#515457" cx="508" cy="1066.1" r="55.8"/>
	</g>
	<g id="XMLID_5595_">
		<circle id="XMLID_5597_" fill="#64686B" cx="1494.1" cy="1626.1" r="55.8"/>
	</g>
	<g id="XMLID_5593_">
		<circle id="XMLID_5594_" fill="#64686B" cx="2422.2" cy="1079" r="55.8"/>
	</g>
	<g id="XMLID_5588_">
		
			<circle id="XMLID_5590_" fill="none" stroke="#B0B5B7" stroke-width="4" stroke-linecap="round" stroke-linejoin="round" stroke-dasharray="11.999,11.999" cx="2081.4" cy="1450.7" r="99.3"/>
		<circle id="XMLID_5589_" fill="#C6CACB" cx="2081.4" cy="1450.7" r="55.8"/>
	</g>
	<g id="XMLID_5583_">
		
			<circle id="XMLID_5585_" fill="none" stroke="#B0B5B7" stroke-width="4" stroke-linecap="round" stroke-linejoin="round" stroke-dasharray="11.999,11.999" cx="2114.5" cy="1017.1" r="99.3"/>
		<circle id="XMLID_5584_" fill="#898C90" cx="2114.5" cy="1017.1" r="55.8"/>
	</g>
	<g id="XMLID_5578_">
		
			<circle id="XMLID_5580_" fill="none" stroke="#B0B5B7" stroke-width="4" stroke-linecap="round" stroke-linejoin="round" stroke-dasharray="11.999,11.999" cx="2549.8" cy="889.6" r="99.3"/>
		<circle id="XMLID_5579_" fill="#9CA0A4" cx="2549.8" cy="889.6" r="55.8"/>
	</g>
	<g id="XMLID_5573_">
		
			<circle id="XMLID_5575_" fill="none" stroke="#B0B5B7" stroke-width="4" stroke-linecap="round" stroke-linejoin="round" stroke-dasharray="11.999,11.999" cx="1904.7" cy="848.7" r="99.3"/>
		<circle id="XMLID_5574_" fill="#B0B5B7" cx="1904.7" cy="848.7" r="55.8"/>
	</g>
	<g id="XMLID_5568_">
		
			<circle id="XMLID_5570_" fill="none" stroke="#B0B5B7" stroke-width="4" stroke-linecap="round" stroke-linejoin="round" stroke-dasharray="12.1496,12.1496" cx="2321" cy="789.9" r="147"/>
		<circle id="XMLID_5569_" fill="#C6CACB" cx="2321" cy="789.9" r="55.8"/>
	</g>
	<g id="XMLID_5562_">
		
			<circle id="XMLID_5565_" fill="none" stroke="#B0B5B7" stroke-width="4" stroke-linecap="round" stroke-linejoin="round" stroke-dasharray="11.999,11.999" cx="2254.9" cy="1271.6" r="99.3"/>
		<circle id="XMLID_5563_" fill="#B0B5B7" cx="2254.9" cy="1271.6" r="55.8"/>
	</g>
	<g id="XMLID_5560_">
		<circle id="XMLID_5561_" fill="#64686B" cx="3032.1" cy="1487.5" r="27.2"/>
	</g>
	<g id="XMLID_5558_">
		<circle id="XMLID_5559_" fill="#898C90" cx="2543.4" cy="1628" r="36.8"/>
	</g>
	<g id="XMLID_5556_">
		<circle id="XMLID_5557_" fill="#64686B" cx="2459.8" cy="1416.9" r="36.8"/>
	</g>
	<g id="XMLID_5554_">
		<circle id="XMLID_5555_" fill="#B0B5B7" cx="1550.6" cy="1377.7" r="36.8"/>
	</g>
	<g id="XMLID_5552_">
		<circle id="XMLID_5553_" fill="#9CA0A4" cx="678.2" cy="1230.7" r="36.8"/>
	</g>
	<g id="XMLID_5547_">
		
			<circle id="XMLID_5549_" fill="none" stroke="#B0B5B7" stroke-width="4" stroke-linecap="round" stroke-linejoin="round" stroke-dasharray="12.0753,12.0753" cx="1971.4" cy="1730.4" r="65.3"/>
		<circle id="XMLID_5548_" fill="#B0B5B7" cx="1971.4" cy="1730.4" r="36.8"/>
	</g>
	<g id="XMLID_5542_">
		
			<circle id="XMLID_5544_" fill="none" stroke="#898C90" stroke-width="4" stroke-linecap="round" stroke-linejoin="round" stroke-dasharray="12.3149,12.3149" cx="2114.5" cy="649.7" r="58.8"/>
		<circle id="XMLID_5543_" fill="#898C90" cx="2114.5" cy="649.7" r="33.1"/>
	</g>
	<g id="XMLID_5534_">
		
			<circle id="XMLID_5539_" fill="none" stroke="#C6CACB" stroke-width="4" stroke-linecap="round" stroke-linejoin="round" stroke-dasharray="11.8746,11.8746" cx="1467.3" cy="819.7" r="52.9"/>
		
			<circle id="XMLID_5536_" fill="none" stroke="#C6CACB" stroke-width="4" stroke-linecap="round" stroke-linejoin="round" stroke-dasharray="12.0362,12.0362" cx="1467.3" cy="819.7" r="180.1"/>
		<circle id="XMLID_5535_" fill="#C6CACB" cx="1467.3" cy="819.7" r="29.8"/>
	</g>
	<g id="XMLID_5529_">
		
			<circle id="XMLID_5531_" fill="none" stroke="#9CA0A4" stroke-width="4" stroke-linecap="round" stroke-linejoin="round" stroke-dasharray="11.8746,11.8746" cx="2045" cy="476.3" r="52.9"/>
		<circle id="XMLID_5530_" fill="#9CA0A4" cx="2045" cy="476.3" r="29.8"/>
	</g>
	<g id="XMLID_5526_">
		<circle id="XMLID_5528_" fill="#64686B" cx="455" cy="1271.6" r="29.8"/>
	</g>
	<g id="XMLID_5524_">
		<circle id="XMLID_5525_" fill="#64686B" cx="690.7" cy="776.1" r="29.8"/>
	</g>
	<g id="XMLID_5522_">
		<circle id="XMLID_5523_" fill="#64686B" cx="1520.9" cy="529.3" r="29.8"/>
	</g>
	<g id="XMLID_5520_">
		<circle id="XMLID_5521_" fill="#B0B5B7" cx="1224.2" cy="1312.4" r="29.8"/>
	</g>
	<g id="XMLID_5515_">
		
			<circle id="XMLID_5517_" fill="none" stroke="#9CA0A4" stroke-width="4" stroke-linecap="round" stroke-linejoin="round" stroke-dasharray="12.4684,12.4684" cx="1153.4" cy="849.4" r="47.6"/>
		<circle id="XMLID_5516_" fill="#9CA0A4" cx="1153.4" cy="849.4" r="26.8"/>
	</g>
	<g id="XMLID_5510_">
		
			<circle id="XMLID_5512_" fill="none" stroke="#B0B5B7" stroke-width="4" stroke-linecap="round" stroke-linejoin="round" stroke-dasharray="12.4684,12.4684" cx="2720.9" cy="792.9" r="47.6"/>
		<circle id="XMLID_5511_" fill="#B0B5B7" cx="2720.9" cy="792.9" r="26.8"/>
	</g>
	<g id="XMLID_5505_">
		
			<circle id="XMLID_5507_" fill="none" stroke="#B0B5B7" stroke-width="4" stroke-linecap="round" stroke-linejoin="round" stroke-dasharray="12.1192,12.1192" cx="2907.4" cy="694.2" r="38.6"/>
		<circle id="XMLID_5506_" fill="#E0E1E2" cx="2907.4" cy="694.2" r="21.7"/>
	</g>
	<g id="XMLID_5500_">
		
			<circle id="XMLID_5502_" fill="none" stroke="#B0B5B7" stroke-width="4" stroke-linecap="round" stroke-linejoin="round" stroke-dasharray="12.1192,12.1192" cx="1926.4" cy="499.5" r="38.6"/>
		<circle id="XMLID_5501_" fill="#B0B5B7" cx="1926.4" cy="499.5" r="21.7"/>
	</g>
	<g id="XMLID_5494_">
		
			<circle id="XMLID_5497_" fill="none" stroke="#B0B5B7" stroke-width="4" stroke-linecap="round" stroke-linejoin="round" stroke-dasharray="12.1192,12.1192" cx="3262.6" cy="672.5" r="38.6"/>
		<circle id="XMLID_5495_" fill="#B0B5B7" cx="3262.6" cy="672.5" r="21.7"/>
	</g>
	<g id="XMLID_5489_">
		
			<circle id="XMLID_5491_" fill="none" stroke="#B0B5B7" stroke-width="4" stroke-linecap="round" stroke-linejoin="round" stroke-dasharray="12.1192,12.1192" cx="3535.5" cy="948" r="38.6"/>
		<circle id="XMLID_5490_" fill="#515457" cx="3535.5" cy="948" r="21.7"/>
	</g>
	<g id="XMLID_5481_">
		
			<circle id="XMLID_5486_" fill="none" stroke="#B0B5B7" stroke-width="4" stroke-linecap="round" stroke-linejoin="round" stroke-dasharray="12.1192,12.1192" cx="3414.6" cy="1271.6" r="38.6"/>
		<circle id="XMLID_5485_" fill="#9CA0A4" cx="3414.6" cy="1271.6" r="21.7"/>
	</g>
	<g id="XMLID_5470_">
		
			<circle id="XMLID_5475_" fill="none" stroke="#B0B5B7" stroke-width="4" stroke-linecap="round" stroke-linejoin="round" stroke-dasharray="12.1192,12.1192" cx="3724.4" cy="1134.8" r="38.6"/>
		<circle id="XMLID_5471_" fill="#C6CACB" cx="3724.4" cy="1134.8" r="21.7"/>
	</g>
	<g id="XMLID_5454_">
		
			<circle id="XMLID_5456_" fill="none" stroke="#C6CACB" stroke-width="4" stroke-linecap="round" stroke-linejoin="round" stroke-dasharray="12.2707,12.2707" cx="2689.7" cy="1060.6" r="31.3"/>
		<circle id="XMLID_5455_" fill="#C6CACB" cx="2689.7" cy="1060.6" r="17.6"/>
	</g>
	<g id="XMLID_5452_">
		<circle id="XMLID_5453_" fill="#64686B" cx="1777.8" cy="1657.3" r="17.6"/>
	</g>
	<g id="XMLID_5446_">
		<circle id="XMLID_5447_" fill="#C6CACB" cx="76" cy="1020.4" r="17.6"/>
	</g>
	<g id="XMLID_5441_">
		<circle id="XMLID_5442_" fill="#C6CACB" cx="257.4" cy="1333.4" r="17.6"/>
	</g>
	<g id="XMLID_5438_">
		<circle id="XMLID_5439_" fill="#64686B" cx="3360.2" cy="1422.1" r="15.8"/>
	</g>
	<g id="XMLID_5433_">
		<circle id="XMLID_5434_" fill="#64686B" cx="1224.2" cy="672.5" r="15.8"/>
	</g>
	<g id="XMLID_5428_">
		<circle id="XMLID_5429_" fill="#B0B5B7" cx="1682.1" cy="1857.5" r="15.8"/>
	</g>
	<g id="XMLID_5425_">
		<circle id="XMLID_5426_" fill="#64686B" cx="2155.6" cy="1702.3" r="15.8"/>
	</g>
	<g id="XMLID_5378_">
		<g id="XMLID_4_">
			<circle id="XMLID_9_" fill="#898C90" cx="2299.4" cy="1438" r="15.8"/>
		</g>
		<g id="XMLID_2_">
			<circle id="XMLID_3_" fill="#898C90" cx="2299.4" cy="1438" r="15.8"/>
		</g>
	</g>
	<g id="XMLID_5376_">
		<circle id="XMLID_5377_" fill="#64686B" cx="2891.6" cy="824.7" r="15.8"/>
	</g>
	<g id="XMLID_5370_">
		<circle id="XMLID_5371_" fill="#64686B" cx="2534" cy="683" r="15.8"/>
	</g>
	<circle id="XMLID_5369_" fill="#B0B5B7" cx="1804.2" cy="380.5" r="19.5"/>
	<circle id="XMLID_5368_" fill="#C6CACB" cx="1477.6" cy="257.9" r="19.5"/>
	<circle id="XMLID_5367_" fill="#C6CACB" cx="1491.1" cy="172.3" r="19.5"/>
	<circle id="XMLID_5335_" fill="#C6CACB" cx="1565.2" cy="172.3" r="19.5"/>
	<circle id="XMLID_5334_" fill="#C6CACB" cx="1602.6" cy="277.4" r="19.5"/>
	<circle id="XMLID_5330_" fill="#515457" cx="1833.6" cy="495.8" r="19.5"/>
	<circle id="XMLID_5329_" fill="#515457" cx="1526.3" cy="928.6" r="19.5"/>
	<circle id="XMLID_5328_" fill="#B0B5B7" cx="1904.7" cy="571.5" r="19.5"/>
	<circle id="XMLID_5327_" fill="#B0B5B7" cx="1784.7" cy="597.2" r="19.5"/>
	<circle id="XMLID_5326_" fill="#515457" cx="1814.2" cy="747.3" r="34.7"/>
	<circle id="XMLID_5320_" fill="#9CA0A4" cx="1390.6" cy="395.8" r="34.7"/>
	<circle id="XMLID_5319_" fill="#898C90" cx="1587.4" cy="776.1" r="34.7"/>
	<circle id="XMLID_5315_" fill="#515457" cx="1744.7" cy="979.7" r="34.7"/>
	<g id="XMLID_4935_">
		<path id="XMLID_5309_" fill="#000004" d="M415.3,1775.6H446c6.6,0,11.8,1.5,16,5.2c4.4,3.7,7.8,9.7,7.8,16.8
			c0,10.1-5.7,18.4-15.2,21.7l18.2,34.8h-14.1l-16.2-33.5h-15.2v33.5h-11.9V1775.6z M427.2,1810h18c8.9,0,13.3-5.8,13.3-12.5
			c0-4.1-1.5-7.2-4-8.9c-2.2-1.7-4.6-2.4-8.7-2.4h-18.6V1810z"/>
		<path id="XMLID_5237_" fill="#000004" d="M484.6,1775.6h11.2v11.2h-11.2V1775.6z M484.6,1798.2h11.2v55.9h-11.2V1798.2z"/>
		<path id="XMLID_5235_" fill="#000004" d="M515.2,1837c4.8,4.7,10.1,7.2,17.6,7.2c6.4,0,11-2.4,11-7.2c0-4-3-5.2-6.8-5.5l-9.9-0.9
			c-9.3-0.8-16.1-6.3-16.1-15.9c0-11.4,9-17.2,20.8-17.2c9.8,0,16.4,3,21.9,7.6l-6.9,8.2c-4.4-3.1-8.9-5.2-15-5.2
			c-7.2,0-9.6,2.9-9.6,6.7c0,2.4,1.8,4.8,7.4,5.3l9.3,0.7c11.6,0.8,16.2,7.8,16.2,16.8c0,10.9-10.1,17.2-23.1,17.2
			c-9,0-17.4-3.3-24.6-10L515.2,1837z"/>
		<path id="XMLID_5233_" fill="#000004" d="M569.2,1775.6h11.2v48.8h0.2l21.5-26.2h13.4l-19.3,21.8l21.9,34.1h-14.1l-14.9-26.1
			l-8.8,10v16.1h-11.2V1775.6z"/>
		<path id="XMLID_5105_" fill="#000004" d="M629.4,1817.8h11.2v11.2h-11.2V1817.8z M629.4,1842.8h11.2v11.2h-11.2V1842.8z"/>
		<path id="XMLID_5102_" fill="#000004" d="M731.5,1819.8h-31.1v34.3h-11.9v-78.5h11.9v33.6h31.1v-33.6h11.9v78.5h-11.9V1819.8z"/>
		<path id="XMLID_5088_" fill="#000004" d="M762,1775.6h11.2v11.2H762V1775.6z M762,1798.2h11.2v55.9H762V1798.2z"/>
		<path id="XMLID_5084_" fill="#000004" d="M822.3,1848.2c-3.5,3.9-8.7,6.5-14.4,6.5c-7.3,0-12.2-3.6-14.8-6.8
			c-3.2-4.2-4.2-6.3-4.2-21.7c0-15.5,1-17.6,4.2-21.8c2.5-3.2,7.5-6.8,14.8-6.8c5.7,0,10.2,2.2,14.4,6.6v-6h11.2v54.5
			c0,16.9-11.5,24.6-24.2,24.6c-7.2,0-14.4-3.7-19.4-9.4l8.7-6.9c2.8,2.8,6.6,5.1,10.9,5.1c7.5,0,12.8-4.3,12.8-12.1V1848.2z
			 M802.3,1839.2c1.5,2,4.4,4.3,8.9,4.3c4.4,0,7.3-2.3,8.8-4.3c2-2.5,2.2-4.1,2.2-13c0-9-0.2-10.6-2.2-13.1c-1.5-2-4.4-4.3-8.8-4.3
			c-4.5,0-7.4,2.3-8.9,4.3c-2,2.5-2.2,4.1-2.2,13.1C800.1,1835.1,800.4,1836.6,802.3,1839.2z"/>
		<path id="XMLID_5081_" fill="#000004" d="M850.8,1775.6h11.2v28.5h0.2c3.5-4.4,8.6-6.6,14.5-6.6c8.7,0,18.6,6.7,18.6,19.4v37.1
			h-11.2v-33.3c0-7.6-4.7-12-11-12c-6.4,0-11.1,4.4-11.1,12v33.3h-11.2V1775.6z"/>
		<path id="XMLID_5078_" fill="#000004" d="M233.8,1908.8h-21.5v-10.6h54.9v10.6h-21.5v67.9h-11.9V1908.8z"/>
		<path id="XMLID_5073_" fill="#000004" d="M306.7,1971.7h-0.2c-2.3,3.9-6.2,5.6-13.8,5.6c-12.5,0-19.7-7.4-19.7-17.1
			c0-8.9,6.2-16.5,18.2-16.5h15.5v-5.8c0-5.3-3.4-7.2-11.5-7.2c-5.8,0-8.6,1.1-10.6,4.3l-8.8-6.7c4.3-6,10.5-8.2,18.8-8.2
			c13.8,0,23.3,4.6,23.3,18.4v38.1h-11.2V1971.7z M306.7,1953h-13.4c-6.6,0-9.7,2.6-9.7,6.7c0,3.7,3,7.1,10.6,7.1
			c9.4,0,12.6-1,12.6-9.7V1953z"/>
		<path id="XMLID_5070_" fill="#000004" d="M335.2,1920.8h11.2v6h0.2c3.5-4.4,8.6-6.6,14.5-6.6c4.5,0,8.3,1.7,11.7,4.3l-8.2,9.7
			c-2.6-2-4.5-2.8-7.4-2.8c-5.5,0-10.9,3.5-10.9,11.7v33.6h-11.2V1920.8z"/>
		<path id="XMLID_5066_" fill="#000004" d="M412.2,1970.9c-3.5,3.9-8.7,6.5-14.4,6.5c-7.3,0-12.2-3.6-14.8-6.8
			c-3.2-4.2-4.2-6.3-4.2-21.7c0-15.5,1-17.6,4.2-21.8c2.5-3.2,7.5-6.8,14.8-6.8c5.7,0,10.2,2.2,14.4,6.6v-6h11.2v54.5
			c0,16.9-11.5,24.6-24.2,24.6c-7.2,0-14.4-3.7-19.4-9.4l8.7-6.9c2.8,2.8,6.6,5.1,10.9,5.1c7.5,0,12.8-4.3,12.8-12.1V1970.9z
			 M392.3,1961.8c1.5,2,4.4,4.3,8.9,4.3c4.4,0,7.3-2.3,8.8-4.3c2-2.5,2.2-4.1,2.2-13c0-9-0.2-10.6-2.2-13.1c-1.5-2-4.4-4.3-8.8-4.3
			c-4.5,0-7.4,2.3-8.9,4.3c-2,2.5-2.2,4.1-2.2,13.1C390.1,1957.7,390.3,1959.3,392.3,1961.8z"/>
		<path id="XMLID_5061_" fill="#000004" d="M449.3,1953c0,9.1,5.6,13.8,13.3,13.8c4.3,0,8.9-2,12.2-5.4l8.2,6.9
			c-5.5,6.4-12.7,9-20.2,9c-11.5,0-24.8-5.5-24.8-28.4c0-21.7,12.2-28.8,23-28.8c12.3,0,23,9.1,23,23.6v9.3H449.3z M472.9,1943.7
			c-0.3-8.5-5.2-13-11.8-13c-6.6,0-11.6,4.5-11.8,13H472.9z"/>
		<path id="XMLID_5049_" fill="#000004" d="M499.3,1903.9h11.2v17h8.2v8.6h-8.2v32.5c0,3.1,1.2,4.2,4,4.2h4.2v10.6h-5.8
			c-7.8,0-13.6-5-13.6-13.8v-33.5h-5.6v-8.6h5.6V1903.9z"/>
		<path id="XMLID_5045_" fill="#000004" d="M532.4,1940.4h11.2v11.2h-11.2V1940.4z M532.4,1965.5h11.2v11.2h-11.2V1965.5z"/>
		<path id="XMLID_5042_" fill="#000004" d="M591.4,1898.2h11.2l22.5,51.1l22-51.1h11.2v78.5h-11.9v-48.9h-0.2l-16.4,37.7H620
			l-16.4-37.7h-0.2v48.9h-11.9V1898.2z"/>
		<path id="XMLID_5037_" fill="#000004" d="M680,1927.3c3.1-3.4,8.3-7.2,17-7.2c8.7,0,13.9,3.7,17,7.2c4.3,4.7,6.1,9.4,6.1,21.4
			c0,12.1-1.8,16.8-6.1,21.5c-3.1,3.4-8.3,7.2-17,7.2c-8.7,0-13.9-3.7-17-7.2c-4.3-4.7-6.1-9.4-6.1-21.5
			C674,1936.7,675.7,1932.1,680,1927.3z M706,1935.5c-1.7-2.3-5.2-4.1-9-4.1c-3.9,0-7.4,1.8-9,4.1c-2.1,3-2.8,5.2-2.8,13.2
			c0,8.2,0.7,10.4,2.8,13.3c1.7,2.3,5.2,4.1,9,4.1c3.9,0,7.4-1.8,9-4.1c2.1-3,2.8-5.2,2.8-13.2
			C708.8,1940.7,708.1,1938.5,706,1935.5z"/>
		<path id="XMLID_5033_" fill="#000004" d="M734.6,1898.2h11.2v28.5c4.2-4,8.7-6.6,14.4-6.6c6.8,0,11.8,3.1,15,7.3
			c3.1,4,4,7.6,4,21.3c0,13.8-0.9,17.4-4,21.4c-3.2,4.2-8.2,7.3-15,7.3c-5.7,0-10.9-2.6-14.4-6.5v5.8h-11.2V1898.2z M745.8,1948.7
			c0,8.2,0.6,17.4,11,17.4c10.6,0,11.1-8.7,11.1-17.4c0-8.6-0.6-17.3-11.1-17.3C746.4,1931.4,745.8,1940.7,745.8,1948.7z"/>
		<path id="XMLID_5025_" fill="#000004" d="M794.8,1898.2h11.2v11.2h-11.2V1898.2z M794.8,1920.8h11.2v55.9h-11.2V1920.8z"/>
		<path id="XMLID_5022_" fill="#000004" d="M823.7,1898.2H835v64c0,2.5,1.4,3.9,4.2,3.9h3.9v10.6h-5c-8.2,0-14.3-3.5-14.3-13.6
			V1898.2z"/>
		<path id="XMLID_5016_" fill="#000004" d="M863.4,1953c0,9.1,5.6,13.8,13.3,13.8c4.3,0,8.9-2,12.2-5.4l8.2,6.9
			c-5.5,6.4-12.7,9-20.2,9c-11.5,0-24.8-5.5-24.8-28.4c0-21.7,12.2-28.8,23-28.8c12.3,0,23,9.1,23,23.6v9.3H863.4z M887,1943.7
			c-0.3-8.5-5.2-13-11.8-13c-6.6,0-11.6,4.5-11.8,13H887z"/>
		<path id="XMLID_5012_" fill="#000004" d="M170.4,2081.8h-29.8l-6.1,17.5H122l28.5-78.5h9.9l28.5,78.5h-12.6L170.4,2081.8z
			 M167,2071.2l-11.4-34.3h-0.2l-11.4,34.3H167z"/>
		<path id="XMLID_5000_" fill="#000004" d="M199.8,2026.5H211v17h8.2v8.6H211v32.5c0,3.1,1.2,4.2,4,4.2h4.2v10.6h-5.8
			c-7.8,0-13.6-5-13.6-13.8v-33.5h-5.6v-8.6h5.6V2026.5z"/>
		<path id="XMLID_4997_" fill="#000004" d="M233.2,2026.5h11.2v17h8.2v8.6h-8.2v32.5c0,3.1,1.2,4.2,4,4.2h4.2v10.6h-5.8
			c-7.8,0-13.6-5-13.6-13.8v-33.5h-5.6v-8.6h5.6V2026.5z"/>
		<path id="XMLID_4980_" fill="#000004" d="M295.2,2094.4H295c-2.3,3.9-6.2,5.6-13.8,5.6c-12.5,0-19.7-7.4-19.7-17.1
			c0-8.9,6.2-16.5,18.2-16.5h15.5v-5.8c0-5.3-3.4-7.2-11.5-7.2c-5.8,0-8.6,1.1-10.6,4.3l-8.8-6.7c4.3-6,10.5-8.2,18.8-8.2
			c13.8,0,23.3,4.6,23.3,18.4v38.1h-11.2V2094.4z M295.2,2075.6h-13.4c-6.6,0-9.7,2.6-9.7,6.7c0,3.7,3,7.1,10.6,7.1
			c9.4,0,12.6-1,12.6-9.7V2075.6z"/>
		<path id="XMLID_4977_" fill="#000004" d="M364.9,2090.3c-4.8,5.6-11.6,9.7-20.1,9.7c-12.9,0-25.3-8.2-25.3-28.5
			c0-20.5,12.5-28.7,25.3-28.7c8.5,0,15.2,4.1,20.1,9.7l-8.3,7.4c-2.8-3.4-6.7-5.8-11.4-5.8c-9.1,0-14.5,5.2-14.5,17.4
			c0,12.1,5.4,17.3,14.5,17.3c4.6,0,8.6-2.4,11.4-5.8L364.9,2090.3z"/>
		<path id="XMLID_4974_" fill="#000004" d="M375.4,2020.9h11.2v48.8h0.2l21.5-26.2h13.4l-19.3,21.8l21.9,34.1h-14.1l-14.9-26.1
			l-8.8,10v16.1h-11.2V2020.9z"/>
		<path id="XMLID_4970_" fill="#000004" d="M435.7,2063.1H447v11.2h-11.2V2063.1z M435.7,2088.1H447v11.2h-11.2V2088.1z"/>
		<path id="XMLID_4967_" fill="#000004" d="M494.8,2020.9H506l22.5,51.1l22-51.1h11.2v78.5h-11.9v-48.9h-0.2l-16.4,37.7h-9.9
			l-16.4-37.7h-0.2v48.9h-11.9V2020.9z"/>
		<path id="XMLID_4962_" fill="#000004" d="M609.4,2094.4h-0.2c-2.3,3.9-6.2,5.6-13.8,5.6c-12.5,0-19.7-7.4-19.7-17.1
			c0-8.9,6.2-16.5,18.2-16.5h15.5v-5.8c0-5.3-3.4-7.2-11.5-7.2c-5.8,0-8.6,1.1-10.6,4.3l-8.8-6.7c4.3-6,10.5-8.2,18.8-8.2
			c13.8,0,23.3,4.6,23.3,18.4v38.1h-11.2V2094.4z M609.4,2075.6h-13.4c-6.6,0-9.7,2.6-9.7,6.7c0,3.7,3,7.1,10.6,7.1
			c9.4,0,12.6-1,12.6-9.7V2075.6z"/>
		<path id="XMLID_4959_" fill="#000004" d="M637.9,2020.9h11.2v64c0,2.5,1.4,3.9,4.2,3.9h3.9v10.6h-5c-8.2,0-14.3-3.5-14.3-13.6
			V2020.9z"/>
		<path id="XMLID_4956_" fill="#000004" d="M701.7,2060.2h-0.2l-11.7,39.1h-9.9l-17.9-55.9H674l10.7,39.1h0.2l12.7-39.1h8.2
			l12.7,39.1h0.2l10.7-39.1h11.9l-17.9,55.9h-9.9L701.7,2060.2z"/>
		<path id="XMLID_4944_" fill="#000004" d="M780.7,2094.4h-0.2c-2.3,3.9-6.2,5.6-13.8,5.6c-12.5,0-19.7-7.4-19.7-17.1
			c0-8.9,6.2-16.5,18.2-16.5h15.5v-5.8c0-5.3-3.4-7.2-11.5-7.2c-5.8,0-8.6,1.1-10.6,4.3l-8.8-6.7c4.3-6,10.5-8.2,18.8-8.2
			c13.8,0,23.3,4.6,23.3,18.4v38.1h-11.2V2094.4z M780.7,2075.6h-13.4c-6.6,0-9.7,2.6-9.7,6.7c0,3.7,3,7.1,10.6,7.1
			c9.4,0,12.6-1,12.6-9.7V2075.6z"/>
		<path id="XMLID_4941_" fill="#000004" d="M809.3,2043.5h11.2v6h0.2c3.5-4.4,8.6-6.6,14.5-6.6c4.5,0,8.3,1.7,11.7,4.3l-8.2,9.7
			c-2.6-2-4.5-2.8-7.4-2.8c-5.5,0-10.9,3.5-10.9,11.7v33.6h-11.2V2043.5z"/>
		<path id="XMLID_4937_" fill="#000004" d="M863.4,2075.6c0,9.1,5.6,13.8,13.3,13.8c4.3,0,8.9-2,12.2-5.4l8.2,6.9
			c-5.5,6.4-12.7,9-20.2,9c-11.5,0-24.8-5.5-24.8-28.4c0-21.7,12.2-28.8,23-28.8c12.3,0,23,9.1,23,23.6v9.3H863.4z M887,2066.4
			c-0.3-8.5-5.2-13-11.8-13c-6.6,0-11.6,4.5-11.8,13H887z"/>
	</g>
	<g id="XMLID_4673_">
		<path id="XMLID_4931_" fill="#000004" d="M344.1,231.6h30.6c6.6,0,11.8,1.5,16,5.2c4.4,3.7,7.8,9.7,7.8,16.8
			c0,10.1-5.7,18.4-15.2,21.7l18.2,34.8h-14.1l-16.2-33.5H356V310h-11.9V231.6z M356,266h18c8.9,0,13.3-5.8,13.3-12.5
			c0-4.1-1.5-7.2-4-8.9c-2.2-1.7-4.6-2.4-8.7-2.4H356V266z"/>
		<path id="XMLID_4926_" fill="#000004" d="M413.4,231.6h11.2v11.2h-11.2V231.6z M413.4,254.2h11.2V310h-11.2V254.2z"/>
		<path id="XMLID_4923_" fill="#000004" d="M443.9,293c4.8,4.7,10.1,7.2,17.6,7.2c6.4,0,11-2.4,11-7.2c0-4-3-5.2-6.8-5.5l-9.9-0.9
			c-9.3-0.8-16.1-6.3-16.1-15.9c0-11.4,9-17.2,20.8-17.2c9.8,0,16.4,3,21.9,7.6l-6.9,8.2c-4.4-3.1-8.9-5.2-15-5.2
			c-7.2,0-9.6,2.9-9.6,6.7c0,2.4,1.8,4.8,7.4,5.3l9.3,0.7c11.6,0.8,16.2,7.8,16.2,16.8c0,10.9-10.1,17.2-23.1,17.2
			c-9,0-17.4-3.3-24.6-10L443.9,293z"/>
		<path id="XMLID_4920_" fill="#000004" d="M497.9,231.6h11.2v48.8h0.2l21.5-26.2h13.4L525,276L547,310h-14.1L518,283.9l-8.8,10V310
			h-11.2V231.6z"/>
		<path id="XMLID_4908_" fill="#000004" d="M558.2,273.8h11.2V285h-11.2V273.8z M558.2,298.8h11.2V310h-11.2V298.8z"/>
		<path id="XMLID_4905_" fill="#000004" d="M617.3,231.6h11.9v67.2h38.2V310h-50.1V231.6z"/>
		<path id="XMLID_4901_" fill="#000004" d="M683.6,260.7c3.1-3.4,8.3-7.2,17-7.2c8.7,0,13.9,3.7,17,7.2c4.3,4.7,6.1,9.4,6.1,21.4
			c0,12.1-1.8,16.8-6.1,21.5c-3.1,3.4-8.3,7.2-17,7.2c-8.7,0-13.9-3.7-17-7.2c-4.3-4.7-6.1-9.4-6.1-21.5
			C677.5,270,679.3,265.4,683.6,260.7z M709.6,268.8c-1.7-2.3-5.2-4.1-9-4.1c-3.9,0-7.4,1.8-9,4.1c-2.1,3-2.8,5.2-2.8,13.2
			c0,8.2,0.7,10.4,2.8,13.3c1.7,2.3,5.2,4.1,9,4.1c3.9,0,7.4-1.8,9-4.1c2.1-3,2.8-5.2,2.8-13.2C712.4,274,711.7,271.8,709.6,268.8z"
			/>
		<path id="XMLID_4898_" fill="#000004" d="M770.8,270.9h-0.2L758.9,310h-9.9l-17.9-55.9H743l10.7,39.1h0.2l12.7-39.1h8.2l12.7,39.1
			h0.2l10.7-39.1h11.9L792.4,310h-9.9L770.8,270.9z"/>
		<path id="XMLID_4846_" fill="#000004" d="M357.4,364.8h-21.5v-10.6h54.9v10.6h-21.5v67.9h-11.9V364.8z"/>
		<path id="XMLID_4841_" fill="#000004" d="M430.3,427.7H430c-2.3,3.9-6.2,5.6-13.8,5.6c-12.5,0-19.7-7.4-19.7-17.1
			c0-8.9,6.2-16.5,18.2-16.5h15.5v-5.8c0-5.3-3.4-7.2-11.5-7.2c-5.8,0-8.6,1.1-10.6,4.3l-8.8-6.7c4.3-6,10.5-8.2,18.8-8.2
			c13.8,0,23.3,4.6,23.3,18.4v38.1h-11.2V427.7z M430.3,409h-13.4c-6.6,0-9.7,2.6-9.7,6.7c0,3.7,3,7.1,10.6,7.1
			c9.4,0,12.6-1,12.6-9.7V409z"/>
		<path id="XMLID_4814_" fill="#000004" d="M458.8,376.8H470v6h0.2c3.5-4.4,8.6-6.6,14.5-6.6c4.5,0,8.3,1.7,11.7,4.3l-8.2,9.7
			c-2.6-2-4.5-2.8-7.4-2.8c-5.5,0-10.9,3.5-10.9,11.7v33.6h-11.2V376.8z"/>
		<path id="XMLID_4809_" fill="#000004" d="M535.8,426.8c-3.5,3.9-8.7,6.5-14.4,6.5c-7.3,0-12.2-3.6-14.8-6.8
			c-3.2-4.2-4.2-6.3-4.2-21.7c0-15.5,1-17.6,4.2-21.8c2.5-3.2,7.5-6.8,14.8-6.8c5.7,0,10.2,2.2,14.4,6.6v-6h11.2v54.5
			c0,16.9-11.5,24.6-24.2,24.6c-7.2,0-14.4-3.7-19.4-9.4l8.7-6.9c2.8,2.8,6.6,5.1,10.9,5.1c7.5,0,12.8-4.3,12.8-12.1V426.8z
			 M515.9,417.8c1.5,2,4.4,4.3,8.9,4.3c4.4,0,7.3-2.3,8.8-4.3c2-2.5,2.2-4.1,2.2-13c0-9-0.2-10.6-2.2-13.1c-1.5-2-4.4-4.3-8.8-4.3
			c-4.5,0-7.4,2.3-8.9,4.3c-2,2.5-2.2,4.1-2.2,13.1C513.7,413.7,513.9,415.3,515.9,417.8z"/>
		<path id="XMLID_4800_" fill="#000004" d="M572.9,409c0,9.1,5.6,13.8,13.3,13.8c4.3,0,8.9-2,12.2-5.4l8.2,6.9
			c-5.5,6.4-12.7,9-20.2,9c-11.5,0-24.8-5.5-24.8-28.4c0-21.7,12.2-28.8,23-28.8c12.3,0,23,9.1,23,23.6v9.3H572.9z M596.4,399.7
			c-0.3-8.5-5.2-13-11.8-13c-6.6,0-11.6,4.5-11.8,13H596.4z"/>
		<path id="XMLID_4798_" fill="#000004" d="M622.9,359.8h11.2v17h8.2v8.6h-8.2v32.5c0,3.1,1.2,4.2,4,4.2h4.2v10.6h-5.8
			c-7.8,0-13.6-5-13.6-13.8v-33.5h-5.6v-8.6h5.6V359.8z"/>
		<path id="XMLID_4782_" fill="#000004" d="M655.9,396.4h11.2v11.2h-11.2V396.4z M655.9,421.4h11.2v11.2h-11.2V421.4z"/>
		<path id="XMLID_4780_" fill="#000004" d="M708,354.2h12.6l12.3,55.8h0.2l15.2-55.8h8.6l15.2,55.8h0.2l12.3-55.8h12.6l-19.6,78.5
			h-9.9l-15-56.5h-0.2l-15,56.5h-9.9L708,354.2z"/>
		<path id="XMLID_4777_" fill="#000004" d="M816.9,409c0,9.1,5.6,13.8,13.3,13.8c4.3,0,8.9-2,12.2-5.4l8.2,6.9
			c-5.5,6.4-12.7,9-20.2,9c-11.5,0-24.8-5.5-24.8-28.4c0-21.7,12.2-28.8,23-28.8c12.3,0,23,9.1,23,23.6v9.3H816.9z M840.5,399.7
			c-0.3-8.5-5.2-13-11.8-13c-6.6,0-11.6,4.5-11.8,13H840.5z"/>
		<path id="XMLID_4774_" fill="#000004" d="M866.3,354.2h11.2v28.5c4.2-4,8.7-6.6,14.4-6.6c6.8,0,11.8,3.1,15,7.3
			c3.1,4,4,7.6,4,21.3c0,13.8-0.9,17.4-4,21.4c-3.2,4.2-8.2,7.3-15,7.3c-5.7,0-10.9-2.6-14.4-6.5v5.8h-11.2V354.2z M877.5,404.7
			c0,8.2,0.6,17.4,11,17.4c10.6,0,11.1-8.7,11.1-17.4c0-8.6-0.6-17.3-11.1-17.3C878.1,387.4,877.5,396.6,877.5,404.7z"/>
		<path id="XMLID_4771_" fill="#000004" d="M384.3,537.8h-29.8l-6.1,17.5h-12.6l28.5-78.5h9.9l28.5,78.5h-12.6L384.3,537.8z
			 M380.9,527.2l-11.4-34.3h-0.2L358,527.2H380.9z"/>
		<path id="XMLID_4769_" fill="#000004" d="M413.7,482.5H425v17h8.2v8.6H425v32.5c0,3.1,1.2,4.2,4,4.2h4.2v10.6h-5.8
			c-7.8,0-13.6-5-13.6-13.8V508h-5.6v-8.6h5.6V482.5z"/>
		<path id="XMLID_4767_" fill="#000004" d="M447.1,482.5h11.2v17h8.2v8.6h-8.2v32.5c0,3.1,1.2,4.2,4,4.2h4.2v10.6h-5.8
			c-7.8,0-13.6-5-13.6-13.8V508h-5.6v-8.6h5.6V482.5z"/>
		<path id="XMLID_4764_" fill="#000004" d="M509.2,550.4h-0.2c-2.3,3.9-6.2,5.6-13.8,5.6c-12.5,0-19.7-7.4-19.7-17.1
			c0-8.9,6.2-16.5,18.2-16.5h15.5v-5.8c0-5.3-3.4-7.2-11.5-7.2c-5.8,0-8.6,1.1-10.6,4.3l-8.8-6.7c4.3-6,10.5-8.2,18.8-8.2
			c13.8,0,23.3,4.6,23.3,18.4v38.1h-11.2V550.4z M509.2,531.6h-13.4c-6.6,0-9.7,2.6-9.7,6.7c0,3.7,3,7.1,10.6,7.1
			c9.4,0,12.6-1,12.6-9.7V531.6z"/>
		<path id="XMLID_4761_" fill="#000004" d="M578.8,546.3c-4.8,5.6-11.6,9.7-20.1,9.7c-12.9,0-25.3-8.2-25.3-28.5
			c0-20.5,12.5-28.7,25.3-28.7c8.5,0,15.2,4.1,20.1,9.7l-8.3,7.4c-2.8-3.4-6.7-5.8-11.4-5.8c-9.1,0-14.5,5.2-14.5,17.4
			c0,12.1,5.4,17.3,14.5,17.3c4.6,0,8.6-2.4,11.4-5.8L578.8,546.3z"/>
		<path id="XMLID_4759_" fill="#000004" d="M589.4,476.9h11.2v48.8h0.2l21.5-26.2h13.4l-19.3,21.8l21.9,34.1h-14.1l-14.9-26.1
			l-8.8,10v16.1h-11.2V476.9z"/>
		<path id="XMLID_4750_" fill="#000004" d="M649.7,519.1h11.2v11.2h-11.2V519.1z M649.7,544.1h11.2v11.2h-11.2V544.1z"/>
		<path id="XMLID_4706_" fill="#000004" d="M708.7,476.9h50.1v11.2h-38.2v22.4h32.6V521h-32.6v23h38.2v11.2h-50.1V476.9z"/>
		<path id="XMLID_4699_" fill="#000004" d="M766.4,499.4h13.4l11.1,18.1l11.1-18.1h13.4l-18.3,27.3l19.1,28.5h-13.4l-11.9-18.6
			L779,555.3h-13.4l19.1-28.5L766.4,499.4z"/>
		<path id="XMLID_4693_" fill="#000004" d="M827.4,499.4h11.2v5.8c3.5-3.9,8.7-6.5,14.4-6.5c6.8,0,11.8,3.1,15,7.3
			c3.1,4,4,7.6,4,21.4c0,13.7-0.9,17.3-4,21.3c-3.2,4.2-8.2,7.3-15,7.3c-5.7,0-10.2-2.6-14.4-6.6v28.5h-11.2V499.4z M860.8,527.4
			c0-8.7-0.6-17.4-11.1-17.4c-10.5,0-11,9.3-11,17.4c0,8,0.6,17.3,11,17.3C860.2,544.7,860.8,536,860.8,527.4z"/>
		<path id="XMLID_4691_" fill="#000004" d="M887.4,476.9h11.2v64c0,2.5,1.4,3.9,4.2,3.9h3.9v10.6h-5c-8.2,0-14.3-3.5-14.3-13.6
			V476.9z"/>
		<path id="XMLID_4685_" fill="#000004" d="M921.8,505.9c3.1-3.4,8.3-7.2,17-7.2c8.7,0,13.9,3.7,17,7.2c4.3,4.7,6.1,9.4,6.1,21.4
			c0,12.1-1.8,16.8-6.1,21.5c-3.1,3.4-8.3,7.2-17,7.2c-8.7,0-13.9-3.7-17-7.2c-4.3-4.7-6.1-9.4-6.1-21.5
			C915.8,515.3,917.5,510.7,921.8,505.9z M947.9,514.1c-1.7-2.3-5.2-4.1-9-4.1c-3.9,0-7.4,1.8-9,4.1c-2.1,3-2.8,5.2-2.8,13.2
			c0,8.2,0.7,10.4,2.8,13.3c1.7,2.3,5.2,4.1,9,4.1c3.9,0,7.4-1.8,9-4.1c2.1-3,2.8-5.2,2.8-13.2C950.6,519.3,949.9,517.1,947.9,514.1
			z"/>
		<path id="XMLID_4681_" fill="#000004" d="M976.7,476.9H988v11.2h-11.2V476.9z M976.7,499.4H988v55.9h-11.2V499.4z"/>
		<path id="XMLID_4674_" fill="#000004" d="M1006.3,482.5h11.2v17h8.2v8.6h-8.2v32.5c0,3.1,1.2,4.2,4,4.2h4.2v10.6h-5.8
			c-7.8,0-13.6-5-13.6-13.8V508h-5.6v-8.6h5.6V482.5z"/>
	</g>
	
		<line id="XMLID_4672_" fill="none" stroke="#1E1D21" stroke-width="8" stroke-linejoin="round" stroke-miterlimit="10" stroke-dasharray="12" x1="2321" y1="640" x2="2321" y2="231.6"/>
	
		<line id="XMLID_1944_" fill="none" stroke="#1E1D21" stroke-width="8" stroke-linejoin="round" stroke-miterlimit="10" stroke-dasharray="12" x1="281.9" y1="1107.3" x2="281.9" y2="231.6"/>
	
		<line id="XMLID_44_" fill="none" stroke="#1E1D21" stroke-width="8" stroke-linejoin="round" stroke-miterlimit="10" stroke-dasharray="12" x1="3032.1" y1="2100" x2="3032.1" y2="1630.4"/>
	
		<line id="XMLID_43_" fill="none" stroke="#1E1D21" stroke-width="8" stroke-linejoin="round" stroke-miterlimit="10" stroke-dasharray="12" x1="952.2" y1="2099.3" x2="952.2" y2="1650.8"/>
	<g id="XMLID_137_">
		<path id="XMLID_138_" fill="#000004" d="M2383.3,247.4h30.6c3.3,0,6.3,0.4,8.9,1.2c2.6,0.8,5,2.1,7,4c2.2,1.8,4.1,4.2,5.6,7.1
			c1.5,2.9,2.3,6.1,2.3,9.6c0,5.1-1.3,9.5-4,13.4c-2.7,3.9-6.4,6.6-11.2,8.3l18.1,34.8h-14.1l-16.2-33.4h-15.2v33.4h-11.9V247.4z
			 M2395.2,281.7h17.9c4.5,0,7.8-1.2,10-3.7c2.2-2.5,3.3-5.4,3.3-8.7c0-2.1-0.3-3.8-1-5.3c-0.7-1.5-1.7-2.7-2.9-3.6
			c-1.1-0.8-2.3-1.4-3.6-1.8c-1.3-0.4-3-0.6-5.1-0.6h-18.6V281.7z"/>
		<path id="XMLID_141_" fill="#000004" d="M2452.6,247.4h11.2v11.2h-11.2V247.4z M2452.6,270h11.2v55.8h-11.2V270z"/>
		<path id="XMLID_146_" fill="#000004" d="M2483.1,308.7c2.4,2.3,5,4.1,7.8,5.3c2.8,1.2,6,1.8,9.8,1.8c3.2,0,5.9-0.6,7.9-1.8
			c2.1-1.2,3.1-3,3.1-5.3c0-2-0.7-3.4-2-4.1c-1.3-0.8-2.9-1.2-4.8-1.4l-9.9-0.9c-4.6-0.4-8.5-1.9-11.5-4.6c-3-2.7-4.6-6.5-4.6-11.2
			c0-5.6,2-9.9,6-12.8c4-2.9,8.9-4.3,14.8-4.3c4.9,0,9.1,0.7,12.6,2c3.5,1.4,6.6,3.2,9.3,5.6l-6.9,8.1c-2.2-1.5-4.5-2.8-6.9-3.7
			c-2.4-1-5.1-1.4-8.1-1.4c-3.6,0-6.1,0.6-7.5,1.9c-1.4,1.3-2.1,2.9-2.1,4.8c0,1.2,0.5,2.3,1.6,3.4c1.1,1.1,3,1.7,5.8,1.9l9.2,0.7
			c5.8,0.4,9.9,2.1,12.4,5.3c2.5,3.2,3.7,7,3.7,11.4c0,5.4-2.2,9.6-6.7,12.6c-4.4,3-9.9,4.5-16.4,4.5c-4.5,0-8.8-0.8-12.9-2.4
			c-4.1-1.6-8-4.1-11.6-7.5L2483.1,308.7z"/>
		<path id="XMLID_150_" fill="#000004" d="M2537.2,247.4h11.2v48.7h0.2L2570,270h13.4l-19.3,21.8l21.9,34H2572l-14.8-26.1l-8.8,10
			v16.1h-11.2V247.4z"/>
		<path id="XMLID_152_" fill="#000004" d="M2597.4,289.5h11.2v11.2h-11.2V289.5z M2597.4,314.5h11.2v11.2h-11.2V314.5z"/>
		<path id="XMLID_155_" fill="#000004" d="M2656.6,247.4h11.2l22.4,51l22-51h11.2v78.3h-11.9v-48.8h-0.2l-16.4,37.6h-9.9l-16.4-37.6
			h-0.2v48.8h-11.9V247.4z"/>
		<path id="XMLID_157_" fill="#000004" d="M2750.3,302.1c0,4.5,1.3,8,3.8,10.3c2.5,2.3,5.7,3.5,9.5,3.5c0.4,0,0.9,0,1.3-0.1
			c0.4,0,0.9-0.1,1.3-0.2c1.7-0.3,3.4-0.9,5.1-1.8c1.7-0.9,3.2-2,4.5-3.4l8.1,6.9c-2.7,3.2-5.8,5.4-9.3,6.8
			c-3.5,1.4-7.1,2.1-10.8,2.1c-0.7,0-1.4,0-2.1-0.1c-0.7,0-1.4-0.1-2.1-0.2c-5.1-0.7-9.8-3-14.1-7c-4.3-4-6.4-11-6.4-21.1
			c0-9.7,2-16.7,6.1-21c4.1-4.3,8.6-6.8,13.5-7.5c0.6-0.1,1.2-0.1,1.7-0.2c0.5,0,1.1-0.1,1.7-0.1c6.2,0,11.5,2.1,16.1,6.4
			c4.6,4.3,6.9,10,6.9,17.2v9.2H2750.3z M2773.9,292.8c-0.1-4.3-1.3-7.5-3.5-9.7c-2.2-2.2-5-3.3-8.3-3.3s-6,1.1-8.3,3.3
			c-2.2,2.2-3.4,5.4-3.5,9.7H2773.9z"/>
		<path id="XMLID_160_" fill="#000004" d="M2833.1,319.9c-1.8,1.9-3.9,3.4-6.4,4.6c-2.5,1.2-5.2,1.8-8,1.8c-3.4,0-6.3-0.7-8.8-2
			c-2.5-1.4-4.5-3.1-6.2-5.1c-0.1-0.1-0.1-0.1-0.2-0.2c0-0.1-0.1-0.1-0.2-0.1c-1.4-1.9-2.3-4.2-2.9-6.9c-0.5-2.7-0.8-7.4-0.8-14.1
			c0-6.6,0.3-11.2,0.8-13.9c0.5-2.7,1.5-5,2.9-7c0.1,0,0.1,0,0.2-0.1c0-0.1,0.1-0.1,0.2-0.2c1.6-2.1,3.7-3.9,6.2-5.2
			c2.5-1.4,5.4-2,8.8-2c2.9,0,5.5,0.6,7.8,1.8c2.3,1.2,4.5,2.8,6.6,4.8v-28.5h11.2v78.3h-11.2V319.9z M2812.6,285.8
			c-1.1,3.5-1.6,7.4-1.6,11.7c0,0.1,0,0.1,0,0.2c0,0,0,0.1,0,0.2c0,4.3,0.5,8.3,1.6,11.9c1.1,3.6,4.2,5.4,9.5,5.4
			c4.7,0,7.7-1.5,8.9-4.6c1.2-3.1,1.9-6.5,2.1-10.1c0-0.4,0-0.9,0-1.3c0-0.4,0-0.9,0-1.3c0-0.4,0-0.9,0-1.4c0-0.5,0-1,0-1.5
			c-0.1-3.6-0.9-6.9-2.1-9.9c-1.3-3-4.2-4.5-8.9-4.5C2816.8,280.5,2813.7,282.3,2812.6,285.8z"/>
		<path id="XMLID_165_" fill="#000004" d="M2860,247.4h11.2v11.2H2860V247.4z M2860,270h11.2v55.8H2860V270z"/>
		<path id="XMLID_168_" fill="#000004" d="M2888.9,270h11.2v33.2c0,3.8,1.1,6.8,3.2,8.9c2.1,2.1,4.8,3.1,7.9,3.1
			c3.2,0,5.8-1,7.9-3.1s3.1-5,3.1-8.9V270h11.2v55.8h-11.2v-5.9h-0.2c-1.8,2.2-3.9,3.8-6.3,4.9c-2.5,1.1-5.2,1.6-8.1,1.6
			c-0.4,0-0.9,0-1.3-0.1c-0.4,0-0.9-0.1-1.3-0.2c-4-0.5-7.7-2.4-11.1-5.6c-3.3-3.2-5-7.7-5-13.4V270z"/>
		<path id="XMLID_170_" fill="#000004" d="M2951.5,270h11.2v5.9h0.2c1.8-2.2,3.9-3.8,6.4-5c2.5-1.1,5.2-1.6,8.1-1.6
			c3.9,0,7,0.7,9.3,2.1c2.3,1.4,4.5,3.1,6.4,5.2c2.3-2.6,4.9-4.4,7.7-5.6c2.8-1.1,6.1-1.7,9.9-1.7c0.4,0,0.9,0,1.4,0.1
			c0.5,0,1,0.1,1.4,0.2c4,0.7,7.6,2.6,10.8,5.8c3.3,3.2,4.9,7.7,4.9,13.3v37.1h-11.2v-33.2c0-3.8-1-6.8-3.1-8.9s-4.7-3.1-7.9-3.1
			c-3.2,0-5.8,1-7.9,3.1c-2.1,2.1-3.2,5-3.2,8.9v33.2h-11.2v-33.2c0-3.8-1-6.8-3.1-8.9s-4.7-3.1-7.9-3.1c-3.2,0-5.8,1-7.9,3.1
			c-2.1,2.1-3.2,5-3.2,8.9v33.2h-11.2V270z"/>
		<path id="XMLID_180_" fill="#000004" d="M2396.6,381h-21.4v-10.6h54.8V381h-21.4v67.8h-11.9V381z"/>
		<path id="XMLID_182_" fill="#000004" d="M2469.4,443.8h-0.2c-1.2,1.9-2.8,3.3-4.9,4.2c-2.1,0.9-5,1.3-8.9,1.3
			c-6.2,0-11.1-1.6-14.5-4.8c-3.4-3.2-5.2-7.3-5.2-12.1c0-4.5,1.5-8.3,4.6-11.6c3-3.3,7.6-4.9,13.6-4.9h15.5V410
			c0-2.6-0.9-4.5-2.7-5.6c-1.8-1.1-4.7-1.6-8.7-1.6c-2.9,0-5.2,0.3-6.7,0.9s-2.8,1.7-3.9,3.4l-8.8-6.7c2.1-3,4.7-5.1,7.9-6.3
			c3.1-1.2,6.8-1.8,10.9-1.8c6.9,0,12.5,1.3,16.8,4c4.3,2.7,6.4,7.5,6.4,14.4v38.1h-11.2V443.8z M2469.4,425.1H2456
			c-3.3,0-5.7,0.6-7.3,1.8c-1.6,1.2-2.4,2.8-2.4,4.9c0,1.8,0.8,3.5,2.4,4.9c1.6,1.4,4.3,2.1,8.1,2.1c4.7,0,8-0.5,9.8-1.6
			c1.8-1.1,2.8-3.8,2.8-8.1V425.1z"/>
		<path id="XMLID_185_" fill="#000004" d="M2498,393h11.2v5.9h0.2c1.8-2.2,3.9-3.8,6.4-5c2.5-1.1,5.2-1.6,8.1-1.6
			c2.3,0,4.4,0.4,6.3,1.2c1.9,0.8,3.7,1.8,5.4,3.1l-8.1,9.7c-0.6-0.4-1.1-0.8-1.7-1.2c-0.5-0.3-1-0.6-1.5-0.8
			c-0.7-0.2-1.3-0.4-2-0.5c-0.7-0.1-1.4-0.2-2.2-0.2c-2.7,0-5.2,0.9-7.5,2.8c-2.3,1.8-3.4,4.8-3.4,8.9v33.5H2498V393z"/>
		<path id="XMLID_187_" fill="#000004" d="M2575,443c-1.8,1.9-3.9,3.4-6.4,4.6c-2.5,1.2-5.2,1.8-8,1.8c-3.2,0-6-0.6-8.3-1.8
			c-2.3-1.2-4.2-2.5-5.6-4c-0.1-0.1-0.3-0.3-0.4-0.5c-0.1-0.2-0.3-0.3-0.4-0.5c-0.2-0.3-0.4-0.6-0.6-0.8c-0.2-0.3-0.4-0.5-0.6-0.8
			c-1.1-1.7-1.9-3.8-2.3-6.3c-0.4-2.5-0.7-7.1-0.7-13.8c0-6.8,0.2-11.4,0.7-13.9c0.4-2.5,1.2-4.6,2.3-6.3c0.2-0.3,0.4-0.6,0.6-0.8
			c0.2-0.3,0.4-0.5,0.6-0.8c0.1-0.1,0.3-0.3,0.4-0.5c0.1-0.2,0.3-0.3,0.4-0.5c1.4-1.5,3.2-2.8,5.6-4c2.3-1.2,5.1-1.8,8.3-1.8
			c2.9,0,5.5,0.5,7.8,1.6c2.3,1.1,4.5,2.8,6.6,5V393h11.2v54.6c0,8.3-2.4,14.5-7.3,18.4c-4.9,3.9-10.5,5.9-16.9,5.9
			c-0.1,0-0.3,0-0.5,0c-0.2,0-0.3,0-0.5,0c-3.4-0.1-6.7-1.1-10-2.8c-3.3-1.7-6.1-3.9-8.4-6.6l8.7-6.8c1.4,1.3,3,2.5,4.9,3.5
			c1.9,1,3.9,1.5,6,1.5c3.7,0,6.8-1,9.2-3.1c2.4-2.1,3.6-5,3.6-8.8V443z M2553.2,429.2c0.2,1.5,0.6,2.8,1.3,3.8
			c0.1,0.1,0.3,0.3,0.3,0.4c0.1,0.1,0.2,0.3,0.3,0.4c0.1,0.1,0.2,0.3,0.3,0.4c0.1,0.1,0.2,0.2,0.4,0.4c0.8,0.9,1.9,1.7,3.2,2.4
			c1.4,0.7,3,1.1,5,1.1c1.9,0,3.5-0.4,4.9-1.1c1.4-0.7,2.4-1.5,3.2-2.4c0.1-0.1,0.3-0.3,0.4-0.4c0.1-0.1,0.2-0.2,0.3-0.4
			c0.1-0.1,0.3-0.3,0.3-0.4c0.1-0.1,0.2-0.3,0.3-0.4c0.7-1,1.1-2.3,1.3-3.8c0.2-1.5,0.3-4.3,0.3-8.3s-0.1-6.7-0.3-8.3
			c-0.2-1.6-0.6-2.9-1.3-3.9c-0.1-0.1-0.3-0.3-0.3-0.4c-0.1-0.1-0.2-0.3-0.3-0.4c-0.1-0.1-0.2-0.3-0.3-0.4c-0.1-0.1-0.2-0.2-0.4-0.4
			c-0.8-0.9-1.9-1.7-3.2-2.4c-1.4-0.7-3-1.1-4.9-1.1c-2,0-3.6,0.4-5,1.1c-1.4,0.7-2.4,1.5-3.2,2.4c-0.1,0.1-0.3,0.3-0.4,0.4
			c-0.1,0.1-0.2,0.2-0.3,0.4c-0.1,0.1-0.3,0.3-0.3,0.4c-0.1,0.1-0.2,0.3-0.3,0.4c-0.7,1-1.1,2.3-1.3,3.9c-0.2,1.6-0.3,4.3-0.3,8.3
			S2553,427.6,2553.2,429.2z"/>
		<path id="XMLID_190_" fill="#000004" d="M2612.1,425.1c0,4.5,1.3,8,3.8,10.3c2.5,2.3,5.7,3.5,9.5,3.5c0.4,0,0.9,0,1.3-0.1
			c0.4,0,0.9-0.1,1.3-0.2c1.7-0.3,3.4-0.9,5.1-1.8c1.7-0.9,3.2-2,4.5-3.4l8.1,6.9c-2.7,3.2-5.8,5.4-9.3,6.8
			c-3.5,1.4-7.1,2.1-10.8,2.1c-0.7,0-1.4,0-2.1-0.1c-0.7,0-1.4-0.1-2.1-0.2c-5.1-0.7-9.8-3-14.1-7c-4.3-4-6.4-11-6.4-21.1
			c0-9.7,2-16.7,6.1-21c4.1-4.3,8.6-6.8,13.5-7.5c0.6-0.1,1.2-0.1,1.7-0.2c0.5,0,1.1-0.1,1.7-0.1c6.2,0,11.5,2.1,16.1,6.4
			c4.6,4.3,6.9,10,6.9,17.2v9.2H2612.1z M2635.6,415.8c-0.1-4.3-1.3-7.5-3.5-9.7c-2.2-2.2-5-3.3-8.3-3.3s-6,1.1-8.3,3.3
			c-2.2,2.2-3.4,5.4-3.5,9.7H2635.6z"/>
		<path id="XMLID_193_" fill="#000004" d="M2662.1,376h11.2V393h8.1v8.6h-8.1V434c0,1.5,0.3,2.6,0.9,3.2c0.6,0.6,1.6,0.9,3,0.9h4.2
			v10.6h-5.8c-3.9,0-7.1-1.2-9.7-3.6c-2.6-2.4-3.8-5.8-3.8-10.2v-33.4h-5.6V393h5.6V376z"/>
		<path id="XMLID_195_" fill="#000004" d="M2695.2,412.5h11.2v11.2h-11.2V412.5z M2695.2,437.5h11.2v11.2h-11.2V437.5z"/>
		<path id="XMLID_198_" fill="#000004" d="M2747.4,370.4h12.5l12.3,55.7h0.2l15.2-55.7h8.6l15.2,55.7h0.2l12.3-55.7h12.5l-19.6,78.3
			h-9.9l-15-56.4h-0.2l-15,56.4h-9.9L2747.4,370.4z"/>
		<path id="XMLID_200_" fill="#000004" d="M2856.3,425.1c0,4.5,1.3,8,3.8,10.3c2.5,2.3,5.7,3.5,9.5,3.5c0.4,0,0.9,0,1.3-0.1
			c0.4,0,0.9-0.1,1.3-0.2c1.7-0.3,3.4-0.9,5.1-1.8c1.7-0.9,3.2-2,4.5-3.4l8.1,6.9c-2.7,3.2-5.8,5.4-9.3,6.8
			c-3.5,1.4-7.1,2.1-10.8,2.1c-0.7,0-1.4,0-2.1-0.1c-0.7,0-1.4-0.1-2.1-0.2c-5.1-0.7-9.8-3-14.1-7c-4.3-4-6.4-11-6.4-21.1
			c0-9.7,2-16.7,6.1-21c4.1-4.3,8.6-6.8,13.5-7.5c0.6-0.1,1.2-0.1,1.7-0.2c0.5,0,1.1-0.1,1.7-0.1c6.2,0,11.5,2.1,16.1,6.4
			c4.6,4.3,6.9,10,6.9,17.2v9.2H2856.3z M2879.8,415.8c-0.1-4.3-1.3-7.5-3.5-9.7c-2.2-2.2-5-3.3-8.3-3.3s-6,1.1-8.3,3.3
			c-2.2,2.2-3.4,5.4-3.5,9.7H2879.8z"/>
		<path id="XMLID_203_" fill="#000004" d="M2905.7,370.4h11.2v28.5c2.1-2,4.3-3.6,6.7-4.8c2.3-1.2,4.9-1.8,7.8-1.8
			c3.4,0,6.4,0.7,8.9,2c2.5,1.4,4.5,3.1,6.1,5.2c0.1,0.1,0.1,0.1,0.2,0.2c0,0.1,0.1,0.1,0.2,0.1c1.4,2,2.3,4.3,2.9,7
			c0.5,2.7,0.8,7.3,0.8,13.9c0,6.7-0.3,11.4-0.8,14.1c-0.5,2.7-1.5,5-2.9,6.9c-0.1,0-0.1,0-0.2,0.1c0,0.1-0.1,0.1-0.2,0.2
			c-1.6,2.1-3.6,3.8-6.1,5.1c-2.5,1.4-5.4,2-8.9,2c-2.9,0-5.5-0.6-8-1.8c-2.5-1.2-4.6-2.7-6.4-4.6v5.8h-11.2V370.4z M2919,408
			c-1.3,3-2,6.3-2.1,9.9c0,0.5,0,1,0,1.5c0,0.5,0,0.9,0,1.4c0,0.4,0,0.9,0,1.3c0,0.4,0,0.9,0,1.3c0.1,3.7,0.8,7,2.1,10.1
			c1.2,3.1,4.2,4.6,8.9,4.6c5.3,0,8.5-1.8,9.5-5.4c1.1-3.6,1.6-7.6,1.6-11.9c0-0.1,0-0.1,0-0.2c0,0,0-0.1,0-0.2
			c0-4.3-0.5-8.1-1.6-11.7c-1.1-3.5-4.3-5.3-9.5-5.3C2923.3,403.5,2920.3,405,2919,408z"/>
		<path id="XMLID_206_" fill="#000004" d="M2423.4,554.2h-29.7l-6,17.5h-12.5l28.5-78.3h9.9l28.5,78.3h-12.5L2423.4,554.2z
			 M2420,543.7l-11.3-34.2h-0.2l-11.3,34.2H2420z"/>
		<path id="XMLID_209_" fill="#000004" d="M2452.9,499h11.2V516h8.1v8.6h-8.1V557c0,1.5,0.3,2.6,0.9,3.2c0.6,0.6,1.6,0.9,3,0.9h4.2
			v10.6h-5.8c-3.9,0-7.1-1.2-9.7-3.6c-2.6-2.4-3.8-5.8-3.8-10.2v-33.4h-5.6V516h5.6V499z"/>
		<path id="XMLID_211_" fill="#000004" d="M2486.3,499h11.2V516h8.1v8.6h-8.1V557c0,1.5,0.3,2.6,0.9,3.2c0.6,0.6,1.6,0.9,3,0.9h4.2
			v10.6h-5.8c-3.9,0-7.1-1.2-9.7-3.6c-2.6-2.4-3.8-5.8-3.8-10.2v-33.4h-5.6V516h5.6V499z"/>
		<path id="XMLID_213_" fill="#000004" d="M2548.4,566.8h-0.2c-1.2,1.9-2.8,3.3-4.9,4.2c-2.1,0.9-5,1.3-8.9,1.3
			c-6.2,0-11.1-1.6-14.5-4.8c-3.4-3.2-5.2-7.3-5.2-12.1c0-4.5,1.5-8.3,4.6-11.6c3-3.3,7.6-4.9,13.6-4.9h15.5V533
			c0-2.6-0.9-4.5-2.7-5.6c-1.8-1.1-4.7-1.6-8.7-1.6c-2.9,0-5.2,0.3-6.7,0.9s-2.8,1.7-3.9,3.4l-8.8-6.7c2.1-3,4.7-5.1,7.9-6.3
			c3.1-1.2,6.8-1.8,10.9-1.8c6.9,0,12.5,1.3,16.8,4c4.3,2.7,6.4,7.5,6.4,14.4v38.1h-11.2V566.8z M2548.4,548.1H2535
			c-3.3,0-5.7,0.6-7.3,1.8c-1.6,1.2-2.4,2.8-2.4,4.9c0,1.8,0.8,3.5,2.4,4.9c1.6,1.4,4.3,2.1,8.1,2.1c4.7,0,8-0.5,9.8-1.6
			c1.8-1.1,2.8-3.8,2.8-8.1V548.1z"/>
		<path id="XMLID_216_" fill="#000004" d="M2618,562.7c-2.4,2.8-5.3,5.1-8.6,6.9c-3.3,1.8-7.1,2.7-11.4,2.7
			c-6.5,0-12.3-2.2-17.5-6.5c-5.2-4.4-7.8-11.6-7.8-21.8c0-10.3,2.6-17.6,7.8-22c5.2-4.4,11-6.6,17.5-6.6c4.3,0,8,0.9,11.4,2.8
			c3.3,1.8,6.2,4.1,8.6,6.9l-8.3,7.4c-1.4-1.7-3-3.1-5-4.2c-1.9-1.1-4-1.7-6.4-1.7c-4.5,0-8.1,1.4-10.7,4.1
			c-2.6,2.8-3.8,7.2-3.8,13.3c0,6,1.3,10.4,3.8,13.1c2.6,2.8,6.1,4.1,10.7,4.1c2.3,0,4.5-0.6,6.4-1.7c1.9-1.1,3.6-2.5,5-4.2
			L2618,562.7z"/>
		<path id="XMLID_218_" fill="#000004" d="M2628.7,493.4h11.2v48.7h0.2l21.5-26.2h13.4l-19.3,21.8l21.9,34h-14.1l-14.8-26.1l-8.8,10
			v16.1h-11.2V493.4z"/>
		<path id="XMLID_220_" fill="#000004" d="M2689,535.5h11.2v11.2H2689V535.5z M2689,560.5h11.2v11.2H2689V560.5z"/>
		<path id="XMLID_223_" fill="#000004" d="M2749.1,552.7c3,2.3,6.4,4.2,10.2,5.7c3.8,1.4,7.8,2.1,12,2.1c4.8,0,8.6-1,11.4-3
			s4.1-4.6,4.1-7.8c0-2.8-0.8-5.1-2.5-7c-1.7-1.9-4.2-3.1-7.8-3.5c-0.7-0.1-1.3-0.1-1.9-0.2c-0.6-0.1-1.2-0.1-1.8-0.2
			c-1-0.1-2.1-0.3-3.1-0.5c-1.1-0.2-2.3-0.3-3.6-0.5c-6.7-1-11.9-3.4-15.5-7.5c-3.6-4-5.3-8.9-5.3-14.5c0-6.8,2.2-12.3,6.7-16.6
			c4.5-4.3,10.7-6.4,18.8-6.4c4.8,0,9.4,0.8,13.6,2.3c4.3,1.6,8.2,3.5,11.8,5.9l-6.6,9.8c-2.9-1.9-5.9-3.4-9.2-4.5
			c-3.3-1.1-6.7-1.7-10.1-1.7c-3.6,0-6.7,0.9-9.2,2.8c-2.6,1.9-3.8,4.7-3.8,8.5c0,2.2,0.9,4.3,2.6,6.2c1.7,1.9,4.6,3.2,8.5,3.8
			c1,0.1,2.3,0.3,3.8,0.5c1.5,0.2,3.2,0.4,5,0.7c7.3,0.9,12.7,3.5,16.2,7.9c3.5,4.4,5.2,9.3,5.2,14.6c0,7.2-2.5,12.7-7.4,16.7
			s-11.6,5.9-20.1,5.9c-5.8,0-11.2-0.9-16.2-2.6c-5-1.8-9.6-4.4-13.7-8L2749.1,552.7z"/>
		<path id="XMLID_225_" fill="#000004" d="M2811.8,530.5c0.9-2.9,2.4-5.5,4.5-7.9c0.1-0.1,0.1-0.1,0.2-0.2c0.1-0.1,0.3-0.3,0.4-0.4
			c0.1-0.1,0.2-0.3,0.4-0.4c1.6-1.5,3.7-3,6.3-4.3c2.6-1.3,5.9-2,9.8-2s7.2,0.7,9.8,2c2.6,1.3,4.7,2.8,6.3,4.3
			c0.1,0.1,0.3,0.3,0.4,0.4c0.1,0.1,0.2,0.3,0.4,0.4c0.1,0.1,0.1,0.1,0.2,0.2c2.1,2.3,3.5,5,4.5,7.9c0.9,2.9,1.4,7.3,1.4,13.3
			c0,5.9-0.5,10.4-1.4,13.3c-0.9,2.9-2.4,5.6-4.5,7.9c-0.1,0.1-0.1,0.1-0.2,0.2c-0.1,0.1-0.3,0.3-0.4,0.4c-0.1,0.1-0.2,0.3-0.4,0.4
			c-1.6,1.5-3.7,3-6.3,4.2c-2.6,1.3-5.9,1.9-9.8,1.9s-7.2-0.6-9.8-1.9c-2.6-1.3-4.7-2.7-6.3-4.2c-0.1-0.1-0.3-0.3-0.4-0.4
			c-0.1-0.1-0.2-0.3-0.4-0.4c-0.1-0.1-0.1-0.1-0.2-0.2c-2.1-2.3-3.5-5-4.5-7.9c-0.9-2.9-1.4-7.4-1.4-13.3
			C2810.4,537.9,2810.9,533.4,2811.8,530.5z M2844.7,536c-0.3-1.6-0.8-3.1-1.7-4.5c-0.1-0.1-0.2-0.3-0.3-0.5
			c-0.1-0.2-0.2-0.3-0.4-0.5c-0.8-1.2-2-2.1-3.7-2.9c-1.7-0.8-3.4-1.2-5.3-1.2c-1.9,0-3.7,0.4-5.3,1.2c-1.7,0.8-2.9,1.7-3.7,2.9
			c-0.1,0.1-0.3,0.3-0.4,0.5c-0.1,0.2-0.2,0.3-0.3,0.5c-0.8,1.3-1.4,2.8-1.7,4.5c-0.3,1.7-0.4,4.2-0.4,7.8c0,3.6,0.1,6.2,0.4,7.9
			c0.3,1.7,0.8,3.1,1.7,4.5c0.1,0.1,0.2,0.3,0.3,0.5c0.1,0.2,0.2,0.3,0.4,0.5c0.8,1.2,2,2.1,3.7,2.9c1.7,0.8,3.4,1.2,5.3,1.2
			c1.9,0,3.7-0.4,5.3-1.2c1.7-0.8,2.9-1.7,3.7-2.9c0.1-0.1,0.3-0.3,0.4-0.5c0.1-0.2,0.2-0.3,0.3-0.5c0.8-1.3,1.4-2.8,1.7-4.5
			c0.3-1.6,0.4-4.2,0.4-7.8C2845.2,540.3,2845,537.7,2844.7,536z"/>
		<path id="XMLID_228_" fill="#000004" d="M2912,562.7c-2.4,2.8-5.3,5.1-8.6,6.9c-3.3,1.8-7.1,2.7-11.4,2.7
			c-6.5,0-12.3-2.2-17.5-6.5c-5.2-4.4-7.8-11.6-7.8-21.8c0-10.3,2.6-17.6,7.8-22c5.2-4.4,11-6.6,17.5-6.6c4.3,0,8,0.9,11.4,2.8
			c3.3,1.8,6.2,4.1,8.6,6.9l-8.3,7.4c-1.4-1.7-3-3.1-5-4.2c-1.9-1.1-4-1.7-6.4-1.7c-4.5,0-8.1,1.4-10.7,4.1
			c-2.6,2.8-3.8,7.2-3.8,13.3c0,6,1.3,10.4,3.8,13.1c2.6,2.8,6.1,4.1,10.7,4.1c2.3,0,4.5-0.6,6.4-1.7c1.9-1.1,3.6-2.5,5-4.2
			L2912,562.7z"/>
		<path id="XMLID_230_" fill="#000004" d="M2923,493.4h11.2v11.2H2923V493.4z M2923,516h11.2v55.8H2923V516z"/>
		<path id="XMLID_233_" fill="#000004" d="M2981.2,566.8h-0.2c-1.2,1.9-2.8,3.3-4.9,4.2c-2.1,0.9-5,1.3-8.9,1.3
			c-6.2,0-11.1-1.6-14.5-4.8c-3.4-3.2-5.2-7.3-5.2-12.1c0-4.5,1.5-8.3,4.6-11.6c3-3.3,7.6-4.9,13.6-4.9h15.5V533
			c0-2.6-0.9-4.5-2.7-5.6c-1.8-1.1-4.7-1.6-8.7-1.6c-2.9,0-5.2,0.3-6.7,0.9s-2.8,1.7-3.9,3.4l-8.8-6.7c2.1-3,4.7-5.1,7.9-6.3
			c3.1-1.2,6.8-1.8,10.9-1.8c6.9,0,12.5,1.3,16.8,4c4.3,2.7,6.4,7.5,6.4,14.4v38.1h-11.2V566.8z M2981.2,548.1h-13.4
			c-3.3,0-5.7,0.6-7.3,1.8c-1.6,1.2-2.4,2.8-2.4,4.9c0,1.8,0.8,3.5,2.4,4.9c1.6,1.4,4.3,2.1,8.1,2.1c4.7,0,8-0.5,9.8-1.6
			c1.8-1.1,2.8-3.8,2.8-8.1V548.1z"/>
		<path id="XMLID_236_" fill="#000004" d="M3009.8,493.4h11.2v63.9c0,1.2,0.3,2.2,1,2.9c0.7,0.7,1.7,1,3.1,1h3.8v10.6h-5
			c-4,0-7.4-1-10.2-3c-2.8-2-4.1-5.5-4.1-10.5V493.4z"/>
		<path id="XMLID_238_" fill="#000004" d="M3039.6,535.7h33.1v11.2h-33.1V535.7z"/>
		<path id="XMLID_240_" fill="#000004" d="M3097.2,548.1c0,4.5,1.3,8,3.8,10.3c2.5,2.3,5.7,3.5,9.5,3.5c0.4,0,0.9,0,1.3-0.1
			c0.4,0,0.9-0.1,1.3-0.2c1.7-0.3,3.4-0.9,5.1-1.8c1.7-0.9,3.2-2,4.5-3.4l8.1,6.9c-2.7,3.2-5.8,5.4-9.3,6.8
			c-3.5,1.4-7.1,2.1-10.8,2.1c-0.7,0-1.4,0-2.1-0.1c-0.7,0-1.4-0.1-2.1-0.2c-5.1-0.7-9.8-3-14.1-7c-4.3-4-6.4-11-6.4-21.1
			c0-9.7,2-16.7,6.1-21c4.1-4.3,8.6-6.8,13.5-7.5c0.6-0.1,1.2-0.1,1.7-0.2c0.5,0,1.1-0.1,1.7-0.1c6.2,0,11.5,2.1,16.1,6.4
			c4.6,4.3,6.9,10,6.9,17.2v9.2H3097.2z M3120.7,538.8c-0.1-4.3-1.3-7.5-3.5-9.7c-2.2-2.2-5-3.3-8.3-3.3s-6,1.1-8.3,3.3
			c-2.2,2.2-3.4,5.4-3.5,9.7H3120.7z"/>
		<path id="XMLID_243_" fill="#000004" d="M3146.5,516h11.2v5.9h0.2c1.8-2.2,3.9-3.8,6.4-5c2.5-1.1,5.2-1.6,8.1-1.6
			c0.4,0,0.9,0,1.4,0.1c0.5,0,1,0.1,1.4,0.2c4,0.7,7.6,2.6,10.8,5.8c3.3,3.2,4.9,7.7,4.9,13.3v37.1h-11.2v-33.2c0-3.8-1-6.8-3.1-8.9
			s-4.7-3.1-7.9-3.1c-3.2,0-5.8,1-7.9,3.1c-2.1,2.1-3.2,5-3.2,8.9v33.2h-11.2V516z"/>
		<path id="XMLID_245_" fill="#000004" d="M3239.8,566c-1.8,1.9-3.9,3.4-6.4,4.6c-2.5,1.2-5.2,1.8-8,1.8c-3.2,0-6-0.6-8.3-1.8
			c-2.3-1.2-4.2-2.5-5.6-4c-0.1-0.1-0.3-0.3-0.4-0.5c-0.1-0.2-0.3-0.3-0.4-0.5c-0.2-0.3-0.4-0.6-0.6-0.8c-0.2-0.3-0.4-0.5-0.6-0.8
			c-1.1-1.7-1.9-3.8-2.3-6.3c-0.4-2.5-0.7-7.1-0.7-13.8c0-6.8,0.2-11.4,0.7-13.9c0.4-2.5,1.2-4.6,2.3-6.3c0.2-0.3,0.4-0.6,0.6-0.8
			c0.2-0.3,0.4-0.5,0.6-0.8c0.1-0.1,0.3-0.3,0.4-0.5c0.1-0.2,0.3-0.3,0.4-0.5c1.4-1.5,3.2-2.8,5.6-4c2.3-1.2,5.1-1.8,8.3-1.8
			c2.9,0,5.5,0.5,7.8,1.6c2.3,1.1,4.5,2.8,6.6,5V516h11.2v54.6c0,8.3-2.4,14.5-7.3,18.4c-4.9,3.9-10.5,5.9-16.9,5.9
			c-0.1,0-0.3,0-0.5,0c-0.2,0-0.3,0-0.5,0c-3.4-0.1-6.7-1.1-10-2.8c-3.3-1.7-6.1-3.9-8.4-6.6l8.7-6.8c1.4,1.3,3,2.5,4.9,3.5
			c1.9,1,3.9,1.5,6,1.5c3.7,0,6.8-1,9.2-3.1c2.4-2.1,3.6-5,3.6-8.8V566z M3218,552.2c0.2,1.5,0.6,2.8,1.3,3.8
			c0.1,0.1,0.3,0.3,0.3,0.4c0.1,0.1,0.2,0.3,0.3,0.4c0.1,0.1,0.2,0.3,0.3,0.4c0.1,0.1,0.2,0.2,0.4,0.4c0.8,0.9,1.9,1.7,3.2,2.4
			c1.4,0.7,3,1.1,5,1.1c1.9,0,3.5-0.4,4.9-1.1c1.4-0.7,2.4-1.5,3.2-2.4c0.1-0.1,0.3-0.3,0.4-0.4c0.1-0.1,0.2-0.2,0.3-0.4
			c0.1-0.1,0.3-0.3,0.3-0.4c0.1-0.1,0.2-0.3,0.3-0.4c0.7-1,1.1-2.3,1.3-3.8c0.2-1.5,0.3-4.3,0.3-8.3s-0.1-6.7-0.3-8.3
			c-0.2-1.6-0.6-2.9-1.3-3.9c-0.1-0.1-0.3-0.3-0.3-0.4c-0.1-0.1-0.2-0.3-0.3-0.4c-0.1-0.1-0.2-0.3-0.3-0.4c-0.1-0.1-0.2-0.2-0.4-0.4
			c-0.8-0.9-1.9-1.7-3.2-2.4c-1.4-0.7-3-1.1-4.9-1.1c-2,0-3.6,0.4-5,1.1c-1.4,0.7-2.4,1.5-3.2,2.4c-0.1,0.1-0.3,0.3-0.4,0.4
			c-0.1,0.1-0.2,0.2-0.3,0.4c-0.1,0.1-0.3,0.3-0.3,0.4c-0.1,0.1-0.2,0.3-0.3,0.4c-0.7,1-1.1,2.3-1.3,3.9c-0.2,1.6-0.3,4.3-0.3,8.3
			S3217.8,550.6,3218,552.2z"/>
		<path id="XMLID_248_" fill="#000004" d="M3268.8,493.4h11.2v11.2h-11.2V493.4z M3268.8,516h11.2v55.8h-11.2V516z"/>
		<path id="XMLID_251_" fill="#000004" d="M3297.7,516h11.2v5.9h0.2c1.8-2.2,3.9-3.8,6.4-5c2.5-1.1,5.2-1.6,8.1-1.6
			c0.4,0,0.9,0,1.4,0.1c0.5,0,1,0.1,1.4,0.2c4,0.7,7.6,2.6,10.8,5.8c3.3,3.2,4.9,7.7,4.9,13.3v37.1H3331v-33.2c0-3.8-1-6.8-3.1-8.9
			s-4.7-3.1-7.9-3.1c-3.2,0-5.8,1-7.9,3.1c-2.1,2.1-3.2,5-3.2,8.9v33.2h-11.2V516z"/>
		<path id="XMLID_253_" fill="#000004" d="M3368.1,548.1c0,4.5,1.3,8,3.8,10.3c2.5,2.3,5.7,3.5,9.5,3.5c0.4,0,0.9,0,1.3-0.1
			c0.4,0,0.9-0.1,1.3-0.2c1.7-0.3,3.4-0.9,5.1-1.8c1.7-0.9,3.2-2,4.5-3.4l8.1,6.9c-2.7,3.2-5.8,5.4-9.3,6.8
			c-3.5,1.4-7.1,2.1-10.8,2.1c-0.7,0-1.4,0-2.1-0.1c-0.7,0-1.4-0.1-2.1-0.2c-5.1-0.7-9.8-3-14.1-7c-4.3-4-6.4-11-6.4-21.1
			c0-9.7,2-16.7,6.1-21c4.1-4.3,8.6-6.8,13.5-7.5c0.6-0.1,1.2-0.1,1.7-0.2c0.5,0,1.1-0.1,1.7-0.1c6.2,0,11.5,2.1,16.1,6.4
			c4.6,4.3,6.9,10,6.9,17.2v9.2H3368.1z M3391.6,538.8c-0.1-4.3-1.3-7.5-3.5-9.7c-2.2-2.2-5-3.3-8.3-3.3s-6,1.1-8.3,3.3
			c-2.2,2.2-3.4,5.4-3.5,9.7H3391.6z"/>
		<path id="XMLID_256_" fill="#000004" d="M3425.9,548.1c0,4.5,1.3,8,3.8,10.3c2.5,2.3,5.7,3.5,9.5,3.5c0.4,0,0.9,0,1.3-0.1
			c0.4,0,0.9-0.1,1.3-0.2c1.7-0.3,3.4-0.9,5.1-1.8c1.7-0.9,3.2-2,4.5-3.4l8.1,6.9c-2.7,3.2-5.8,5.4-9.3,6.8
			c-3.5,1.4-7.1,2.1-10.8,2.1c-0.7,0-1.4,0-2.1-0.1c-0.7,0-1.4-0.1-2.1-0.2c-5.1-0.7-9.8-3-14.1-7c-4.3-4-6.4-11-6.4-21.1
			c0-9.7,2-16.7,6.1-21c4.1-4.3,8.6-6.8,13.5-7.5c0.6-0.1,1.2-0.1,1.7-0.2c0.5,0,1.1-0.1,1.7-0.1c6.2,0,11.5,2.1,16.1,6.4
			c4.6,4.3,6.9,10,6.9,17.2v9.2H3425.9z M3449.5,538.8c-0.1-4.3-1.3-7.5-3.5-9.7c-2.2-2.2-5-3.3-8.3-3.3s-6,1.1-8.3,3.3
			c-2.2,2.2-3.4,5.4-3.5,9.7H3449.5z"/>
		<path id="XMLID_259_" fill="#000004" d="M3475.3,516h11.2v5.9h0.2c1.8-2.2,3.9-3.8,6.4-5c2.5-1.1,5.2-1.6,8.1-1.6
			c2.3,0,4.4,0.4,6.3,1.2c1.9,0.8,3.7,1.8,5.4,3.1l-8.1,9.7c-0.6-0.4-1.1-0.8-1.7-1.2c-0.5-0.3-1-0.6-1.5-0.8
			c-0.7-0.2-1.3-0.4-2-0.5c-0.7-0.1-1.4-0.2-2.2-0.2c-2.7,0-5.2,0.9-7.5,2.8c-2.3,1.8-3.4,4.8-3.4,8.9v33.5h-11.2V516z"/>
		<path id="XMLID_261_" fill="#000004" d="M3521.3,493.4h11.2v11.2h-11.2V493.4z M3521.3,516h11.2v55.8h-11.2V516z"/>
		<path id="XMLID_264_" fill="#000004" d="M3550.2,516h11.2v5.9h0.2c1.8-2.2,3.9-3.8,6.4-5c2.5-1.1,5.2-1.6,8.1-1.6
			c0.4,0,0.9,0,1.4,0.1c0.5,0,1,0.1,1.4,0.2c4,0.7,7.6,2.6,10.8,5.8c3.3,3.2,4.9,7.7,4.9,13.3v37.1h-11.2v-33.2c0-3.8-1-6.8-3.1-8.9
			s-4.7-3.1-7.9-3.1c-3.2,0-5.8,1-7.9,3.1c-2.1,2.1-3.2,5-3.2,8.9v33.2h-11.2V516z"/>
		<path id="XMLID_266_" fill="#000004" d="M3643.5,566c-1.8,1.9-3.9,3.4-6.4,4.6c-2.5,1.2-5.2,1.8-8,1.8c-3.2,0-6-0.6-8.3-1.8
			c-2.3-1.2-4.2-2.5-5.6-4c-0.1-0.1-0.3-0.3-0.4-0.5c-0.1-0.2-0.3-0.3-0.4-0.5c-0.2-0.3-0.4-0.6-0.6-0.8c-0.2-0.3-0.4-0.5-0.6-0.8
			c-1.1-1.7-1.9-3.8-2.3-6.3c-0.4-2.5-0.7-7.1-0.7-13.8c0-6.8,0.2-11.4,0.7-13.9c0.4-2.5,1.2-4.6,2.3-6.3c0.2-0.3,0.4-0.6,0.6-0.8
			c0.2-0.3,0.4-0.5,0.6-0.8c0.1-0.1,0.3-0.3,0.4-0.5c0.1-0.2,0.3-0.3,0.4-0.5c1.4-1.5,3.2-2.8,5.6-4c2.3-1.2,5.1-1.8,8.3-1.8
			c2.9,0,5.5,0.5,7.8,1.6c2.3,1.1,4.5,2.8,6.6,5V516h11.2v54.6c0,8.3-2.4,14.5-7.3,18.4c-4.9,3.9-10.5,5.9-16.9,5.9
			c-0.1,0-0.3,0-0.5,0c-0.2,0-0.3,0-0.5,0c-3.4-0.1-6.7-1.1-10-2.8c-3.3-1.7-6.1-3.9-8.4-6.6l8.7-6.8c1.4,1.3,3,2.5,4.9,3.5
			c1.9,1,3.9,1.5,6,1.5c3.7,0,6.8-1,9.2-3.1c2.4-2.1,3.6-5,3.6-8.8V566z M3621.7,552.2c0.2,1.5,0.6,2.8,1.3,3.8
			c0.1,0.1,0.3,0.3,0.3,0.4c0.1,0.1,0.2,0.3,0.3,0.4c0.1,0.1,0.2,0.3,0.3,0.4c0.1,0.1,0.2,0.2,0.4,0.4c0.8,0.9,1.9,1.7,3.2,2.4
			c1.4,0.7,3,1.1,5,1.1c1.9,0,3.5-0.4,4.9-1.1c1.4-0.7,2.4-1.5,3.2-2.4c0.1-0.1,0.3-0.3,0.4-0.4c0.1-0.1,0.2-0.2,0.3-0.4
			c0.1-0.1,0.3-0.3,0.3-0.4c0.1-0.1,0.2-0.3,0.3-0.4c0.7-1,1.1-2.3,1.3-3.8c0.2-1.5,0.3-4.3,0.3-8.3s-0.1-6.7-0.3-8.3
			c-0.2-1.6-0.6-2.9-1.3-3.9c-0.1-0.1-0.3-0.3-0.3-0.4c-0.1-0.1-0.2-0.3-0.3-0.4c-0.1-0.1-0.2-0.3-0.3-0.4c-0.1-0.1-0.2-0.2-0.4-0.4
			c-0.8-0.9-1.9-1.7-3.2-2.4c-1.4-0.7-3-1.1-4.9-1.1c-2,0-3.6,0.4-5,1.1c-1.4,0.7-2.4,1.5-3.2,2.4c-0.1,0.1-0.3,0.3-0.4,0.4
			c-0.1,0.1-0.2,0.2-0.3,0.4c-0.1,0.1-0.3,0.3-0.3,0.4c-0.1,0.1-0.2,0.3-0.3,0.4c-0.7,1-1.1,2.3-1.3,3.9c-0.2,1.6-0.3,4.3-0.3,8.3
			S3621.5,550.6,3621.7,552.2z"/>
	</g>
	<g id="XMLID_5_">
		<path id="XMLID_6_" fill="#000004" d="M2370.5,1775.7h30.6c3.3,0,6.3,0.4,8.9,1.2c2.6,0.8,5,2.1,7,4c2.2,1.8,4.1,4.2,5.6,7.1
			c1.5,2.9,2.3,6.1,2.3,9.6c0,5.1-1.3,9.5-4,13.4c-2.7,3.9-6.4,6.6-11.2,8.3l18.1,34.8h-14.1l-16.2-33.4h-15.2v33.4h-11.9V1775.7z
			 M2382.4,1810.1h17.9c4.5,0,7.8-1.2,10-3.7c2.2-2.5,3.3-5.4,3.3-8.7c0-2.1-0.3-3.8-1-5.3c-0.7-1.5-1.7-2.7-2.9-3.6
			c-1.1-0.8-2.3-1.4-3.6-1.8c-1.3-0.4-3-0.6-5.1-0.6h-18.6V1810.1z"/>
		<path id="XMLID_18_" fill="#000004" d="M2439.8,1775.7h11.2v11.2h-11.2V1775.7z M2439.8,1798.3h11.2v55.8h-11.2V1798.3z"/>
		<path id="XMLID_31_" fill="#000004" d="M2470.4,1837c2.4,2.3,5,4.1,7.8,5.3c2.8,1.2,6,1.8,9.8,1.8c3.2,0,5.9-0.6,7.9-1.8
			c2.1-1.2,3.1-3,3.1-5.3c0-2-0.7-3.4-2-4.1c-1.3-0.8-2.9-1.2-4.8-1.4l-9.9-0.9c-4.6-0.4-8.5-1.9-11.5-4.6c-3-2.7-4.6-6.5-4.6-11.2
			c0-5.6,2-9.9,6-12.8c4-2.9,8.9-4.3,14.8-4.3c4.9,0,9.1,0.7,12.6,2c3.5,1.4,6.6,3.2,9.3,5.6l-6.9,8.1c-2.2-1.5-4.5-2.8-6.9-3.7
			c-2.4-1-5.1-1.4-8.1-1.4c-3.6,0-6.1,0.6-7.5,1.9c-1.4,1.3-2.1,2.9-2.1,4.8c0,1.2,0.5,2.3,1.6,3.4c1.1,1.1,3,1.7,5.8,1.9l9.2,0.7
			c5.8,0.4,9.9,2.1,12.4,5.3c2.5,3.2,3.7,7,3.7,11.4c0,5.4-2.2,9.6-6.7,12.6c-4.4,3-9.9,4.5-16.4,4.5c-4.5,0-8.8-0.8-12.9-2.4
			c-4.1-1.6-8-4.1-11.6-7.5L2470.4,1837z"/>
		<path id="XMLID_45_" fill="#000004" d="M2524.4,1775.7h11.2v48.7h0.2l21.5-26.2h13.4l-19.3,21.8l21.9,34h-14.1l-14.8-26.1l-8.8,10
			v16.1h-11.2V1775.7z"/>
		<path id="XMLID_47_" fill="#000004" d="M2584.7,1817.9h11.2v11.2h-11.2V1817.9z M2584.7,1842.8h11.2v11.2h-11.2V1842.8z"/>
		<path id="XMLID_50_" fill="#000004" d="M2696.7,1832.2c-1.5,7.3-4.8,12.9-9.8,16.7c-5,3.8-10.9,5.7-17.7,5.7
			c-5.8,0-10.7-1.3-14.7-4c-4-2.6-7.1-5.6-9.1-8.8c-0.1-0.2-0.2-0.4-0.3-0.6c-0.1-0.2-0.3-0.4-0.3-0.6c-0.1-0.3-0.3-0.6-0.4-0.8
			c-0.1-0.3-0.3-0.5-0.4-0.8c-1-1.9-1.6-4.3-2-7.3c-0.4-3-0.5-8.6-0.5-16.8c0-8.3,0.2-13.9,0.5-16.8c0.4-2.9,1-5.4,2-7.3
			c0.1-0.3,0.3-0.6,0.4-0.8c0.1-0.3,0.3-0.5,0.4-0.8c0.1-0.2,0.2-0.4,0.3-0.6c0.1-0.2,0.3-0.4,0.3-0.6c2.1-3.2,5.1-6.2,9.1-8.9
			c4-2.7,8.9-4,14.7-4c7.4,0,13.5,2.3,18.4,6.8c4.9,4.5,7.9,10,9.1,16.4h-12.5c-1-3-2.8-5.6-5.4-7.9c-2.6-2.3-5.8-3.4-9.6-3.4
			c-2.8,0-5.2,0.6-7.2,1.7c-2,1.1-3.6,2.5-4.9,4c-0.1,0.2-0.3,0.4-0.5,0.7c-0.2,0.2-0.3,0.4-0.5,0.7c-1.1,1.7-1.9,3.8-2.3,6.4
			c-0.4,2.6-0.7,7.4-0.7,14.5c0,7.1,0.2,12,0.7,14.5c0.4,2.6,1.2,4.7,2.3,6.4c0.1,0.2,0.3,0.4,0.5,0.7c0.2,0.2,0.3,0.4,0.5,0.7
			c1.2,1.5,2.9,2.9,4.9,4c2,1.1,4.4,1.7,7.2,1.7c3.3,0,6.2-0.9,8.7-2.7c2.5-1.8,4.6-4.5,6.2-8H2696.7z"/>
		<path id="XMLID_52_" fill="#000004" d="M2706.9,1798.3h11.2v5.9h0.2c1.8-2.2,3.9-3.8,6.4-5c2.5-1.1,5.2-1.6,8.1-1.6
			c2.3,0,4.4,0.4,6.3,1.2c1.9,0.8,3.7,1.8,5.4,3.1l-8.1,9.7c-0.6-0.4-1.1-0.8-1.7-1.2c-0.5-0.3-1-0.6-1.5-0.8
			c-0.7-0.2-1.3-0.4-2-0.5c-0.7-0.1-1.4-0.2-2.2-0.2c-2.7,0-5.2,0.9-7.5,2.8c-2.3,1.8-3.4,4.8-3.4,8.9v33.5h-11.2V1798.3z"/>
		<path id="XMLID_54_" fill="#000004" d="M2752.9,1775.7h11.2v11.2h-11.2V1775.7z M2752.9,1798.3h11.2v55.8h-11.2V1798.3z"/>
		<path id="XMLID_57_" fill="#000004" d="M2782.5,1781.3h11.2v16.9h8.1v8.6h-8.1v32.5c0,1.5,0.3,2.6,0.9,3.2c0.6,0.6,1.6,0.9,3,0.9
			h4.2v10.6h-5.8c-3.9,0-7.1-1.2-9.7-3.6c-2.6-2.4-3.8-5.8-3.8-10.2v-33.4h-5.6v-8.6h5.6V1781.3z"/>
		<path id="XMLID_59_" fill="#000004" d="M2815.6,1775.7h11.2v11.2h-11.2V1775.7z M2815.6,1798.3h11.2v55.8h-11.2V1798.3z"/>
		<path id="XMLID_62_" fill="#000004" d="M2885.6,1845c-2.4,2.8-5.3,5.1-8.6,6.9c-3.3,1.8-7.1,2.7-11.4,2.7
			c-6.5,0-12.3-2.2-17.5-6.5c-5.2-4.4-7.8-11.6-7.8-21.8c0-10.3,2.6-17.6,7.8-22c5.2-4.4,11-6.6,17.5-6.6c4.3,0,8,0.9,11.4,2.8
			c3.3,1.8,6.2,4.1,8.6,6.9l-8.3,7.4c-1.4-1.7-3-3.1-5-4.2c-1.9-1.1-4-1.7-6.4-1.7c-4.5,0-8.1,1.4-10.7,4.1
			c-2.6,2.8-3.8,7.2-3.8,13.3c0,6,1.3,10.4,3.8,13.1c2.6,2.8,6.1,4.1,10.7,4.1c2.3,0,4.5-0.6,6.4-1.7c1.9-1.1,3.6-2.5,5-4.2
			L2885.6,1845z"/>
		<path id="XMLID_64_" fill="#000004" d="M2925.5,1849.1h-0.2c-1.2,1.9-2.8,3.3-4.9,4.2c-2.1,0.9-5,1.3-8.9,1.3
			c-6.2,0-11.1-1.6-14.5-4.8c-3.4-3.2-5.2-7.3-5.2-12.1c0-4.5,1.5-8.3,4.6-11.6c3-3.3,7.6-4.9,13.6-4.9h15.5v-5.8
			c0-2.6-0.9-4.5-2.7-5.6c-1.8-1.1-4.7-1.6-8.7-1.6c-2.9,0-5.2,0.3-6.7,0.9s-2.8,1.7-3.9,3.4l-8.8-6.7c2.1-3,4.7-5.1,7.9-6.3
			c3.1-1.2,6.8-1.8,10.9-1.8c6.9,0,12.5,1.3,16.8,4c4.3,2.7,6.4,7.5,6.4,14.4v38.1h-11.2V1849.1z M2925.5,1830.4h-13.4
			c-3.3,0-5.7,0.6-7.3,1.8c-1.6,1.2-2.4,2.8-2.4,4.9c0,1.8,0.8,3.5,2.4,4.9c1.6,1.4,4.3,2.1,8.1,2.1c4.7,0,8-0.5,9.8-1.6
			c1.8-1.1,2.8-3.8,2.8-8.1V1830.4z"/>
		<path id="XMLID_67_" fill="#000004" d="M2954.1,1775.7h11.2v63.9c0,1.2,0.3,2.2,1,2.9c0.7,0.7,1.7,1,3.1,1h3.8v10.6h-5
			c-4,0-7.4-1-10.2-3c-2.8-2-4.1-5.5-4.1-10.5V1775.7z"/>
		<path id="XMLID_69_" fill="#000004" d="M2306.1,1909.3h-21.4v-10.6h54.8v10.6H2318v67.8h-11.9V1909.3z"/>
		<path id="XMLID_71_" fill="#000004" d="M2378.9,1972.1h-0.2c-1.2,1.9-2.8,3.3-4.9,4.2c-2.1,0.9-5,1.3-8.9,1.3
			c-6.2,0-11.1-1.6-14.5-4.8c-3.4-3.2-5.2-7.3-5.2-12.1c0-4.5,1.5-8.3,4.6-11.6c3-3.3,7.6-4.9,13.6-4.9h15.5v-5.8
			c0-2.6-0.9-4.5-2.7-5.6c-1.8-1.1-4.7-1.6-8.7-1.6c-2.9,0-5.2,0.3-6.7,0.9s-2.8,1.7-3.9,3.4l-8.8-6.7c2.1-3,4.7-5.1,7.9-6.3
			c3.1-1.2,6.8-1.8,10.9-1.8c6.9,0,12.5,1.3,16.8,4c4.3,2.7,6.4,7.5,6.4,14.4v38.1h-11.2V1972.1z M2378.9,1953.4h-13.4
			c-3.3,0-5.7,0.6-7.3,1.8c-1.6,1.2-2.4,2.8-2.4,4.9c0,1.8,0.8,3.5,2.4,4.9c1.6,1.4,4.3,2.1,8.1,2.1c4.7,0,8-0.5,9.8-1.6
			c1.8-1.1,2.8-3.8,2.8-8.1V1953.4z"/>
		<path id="XMLID_74_" fill="#000004" d="M2407.5,1921.3h11.2v5.9h0.2c1.8-2.2,3.9-3.8,6.4-5c2.5-1.1,5.2-1.6,8.1-1.6
			c2.3,0,4.4,0.4,6.3,1.2c1.9,0.8,3.7,1.8,5.4,3.1l-8.1,9.7c-0.6-0.4-1.1-0.8-1.7-1.2c-0.5-0.3-1-0.6-1.5-0.8
			c-0.7-0.2-1.3-0.4-2-0.5c-0.7-0.1-1.4-0.2-2.2-0.2c-2.7,0-5.2,0.9-7.5,2.8c-2.3,1.8-3.4,4.8-3.4,8.9v33.5h-11.2V1921.3z"/>
		<path id="XMLID_76_" fill="#000004" d="M2484.5,1971.3c-1.8,1.9-3.9,3.4-6.4,4.6c-2.5,1.2-5.2,1.8-8,1.8c-3.2,0-6-0.6-8.3-1.8
			c-2.3-1.2-4.2-2.5-5.6-4c-0.1-0.1-0.3-0.3-0.4-0.5c-0.1-0.2-0.3-0.3-0.4-0.5c-0.2-0.3-0.4-0.6-0.6-0.8c-0.2-0.3-0.4-0.5-0.6-0.8
			c-1.1-1.7-1.9-3.8-2.3-6.3c-0.4-2.5-0.7-7.1-0.7-13.8c0-6.8,0.2-11.4,0.7-13.9c0.4-2.5,1.2-4.6,2.3-6.3c0.2-0.3,0.4-0.6,0.6-0.8
			c0.2-0.3,0.4-0.5,0.6-0.8c0.1-0.1,0.3-0.3,0.4-0.5c0.1-0.2,0.3-0.3,0.4-0.5c1.4-1.5,3.2-2.8,5.6-4c2.3-1.2,5.1-1.8,8.3-1.8
			c2.9,0,5.5,0.5,7.8,1.6c2.3,1.1,4.5,2.8,6.6,5v-5.9h11.2v54.6c0,8.3-2.4,14.5-7.3,18.4c-4.9,3.9-10.5,5.9-16.9,5.9
			c-0.1,0-0.3,0-0.5,0c-0.2,0-0.3,0-0.5,0c-3.4-0.1-6.7-1.1-10-2.8c-3.3-1.7-6.1-3.9-8.4-6.6l8.7-6.8c1.4,1.3,3,2.5,4.9,3.5
			c1.9,1,3.9,1.5,6,1.5c3.7,0,6.8-1,9.2-3.1c2.4-2.1,3.6-5,3.6-8.8V1971.3z M2462.7,1957.5c0.2,1.5,0.6,2.8,1.3,3.8
			c0.1,0.1,0.3,0.3,0.3,0.4c0.1,0.1,0.2,0.3,0.3,0.4c0.1,0.1,0.2,0.3,0.3,0.4c0.1,0.1,0.2,0.2,0.4,0.4c0.8,0.9,1.9,1.7,3.2,2.4
			c1.4,0.7,3,1.1,5,1.1c1.9,0,3.5-0.4,4.9-1.1c1.4-0.7,2.4-1.5,3.2-2.4c0.1-0.1,0.3-0.3,0.4-0.4c0.1-0.1,0.2-0.2,0.3-0.4
			c0.1-0.1,0.3-0.3,0.3-0.4c0.1-0.1,0.2-0.3,0.3-0.4c0.7-1,1.1-2.3,1.3-3.8c0.2-1.5,0.3-4.3,0.3-8.3s-0.1-6.7-0.3-8.3
			c-0.2-1.6-0.6-2.9-1.3-3.9c-0.1-0.1-0.3-0.3-0.3-0.4c-0.1-0.1-0.2-0.3-0.3-0.4c-0.1-0.1-0.2-0.3-0.3-0.4c-0.1-0.1-0.2-0.2-0.4-0.4
			c-0.8-0.9-1.9-1.7-3.2-2.4c-1.4-0.7-3-1.1-4.9-1.1c-2,0-3.6,0.4-5,1.1c-1.4,0.7-2.4,1.5-3.2,2.4c-0.1,0.1-0.3,0.3-0.4,0.4
			c-0.1,0.1-0.2,0.2-0.3,0.4c-0.1,0.1-0.3,0.3-0.3,0.4c-0.1,0.1-0.2,0.3-0.3,0.4c-0.7,1-1.1,2.3-1.3,3.9c-0.2,1.6-0.3,4.3-0.3,8.3
			S2462.5,1955.9,2462.7,1957.5z"/>
		<path id="XMLID_79_" fill="#000004" d="M2521.6,1953.4c0,4.5,1.3,8,3.8,10.3c2.5,2.3,5.7,3.5,9.5,3.5c0.4,0,0.9,0,1.3-0.1
			c0.4,0,0.9-0.1,1.3-0.2c1.7-0.3,3.4-0.9,5.1-1.8c1.7-0.9,3.2-2,4.5-3.4l8.1,6.9c-2.7,3.2-5.8,5.4-9.3,6.8
			c-3.5,1.4-7.1,2.1-10.8,2.1c-0.7,0-1.4,0-2.1-0.1c-0.7,0-1.4-0.1-2.1-0.2c-5.1-0.7-9.8-3-14.1-7c-4.3-4-6.4-11-6.4-21.1
			c0-9.7,2-16.7,6.1-21c4.1-4.3,8.6-6.8,13.5-7.5c0.6-0.1,1.2-0.1,1.7-0.2c0.5,0,1.1-0.1,1.7-0.1c6.2,0,11.5,2.1,16.1,6.4
			c4.6,4.3,6.9,10,6.9,17.2v9.2H2521.6z M2545.1,1944.2c-0.1-4.3-1.3-7.5-3.5-9.7c-2.2-2.2-5-3.3-8.3-3.3s-6,1.1-8.3,3.3
			c-2.2,2.2-3.4,5.4-3.5,9.7H2545.1z"/>
		<path id="XMLID_82_" fill="#000004" d="M2571.6,1904.3h11.2v16.9h8.1v8.6h-8.1v32.5c0,1.5,0.3,2.6,0.9,3.2c0.6,0.6,1.6,0.9,3,0.9
			h4.2v10.6h-5.8c-3.9,0-7.1-1.2-9.7-3.6c-2.6-2.4-3.8-5.8-3.8-10.2v-33.4h-5.6v-8.6h5.6V1904.3z"/>
		<path id="XMLID_84_" fill="#000004" d="M2604.7,1940.9h11.2v11.2h-11.2V1940.9z M2604.7,1965.8h11.2v11.2h-11.2V1965.8z"/>
		<path id="XMLID_87_" fill="#000004" d="M2663.9,1898.7h11.2l22.4,51l22-51h11.2v78.3h-11.9v-48.8h-0.2l-16.4,37.6h-9.9l-16.4-37.6
			h-0.2v48.8h-11.9V1898.7z"/>
		<path id="XMLID_89_" fill="#000004" d="M2747.8,1935.9c0.9-2.9,2.4-5.5,4.5-7.9c0.1-0.1,0.1-0.1,0.2-0.2c0.1-0.1,0.3-0.3,0.4-0.4
			c0.1-0.1,0.2-0.3,0.4-0.4c1.6-1.5,3.7-3,6.3-4.3c2.6-1.3,5.9-2,9.8-2s7.2,0.7,9.8,2c2.6,1.3,4.7,2.8,6.3,4.3
			c0.1,0.1,0.3,0.3,0.4,0.4c0.1,0.1,0.2,0.3,0.4,0.4c0.1,0.1,0.1,0.1,0.2,0.2c2.1,2.3,3.5,5,4.5,7.9c0.9,2.9,1.4,7.3,1.4,13.3
			c0,5.9-0.5,10.4-1.4,13.3c-0.9,2.9-2.4,5.6-4.5,7.9c-0.1,0.1-0.1,0.1-0.2,0.2c-0.1,0.1-0.3,0.3-0.4,0.4c-0.1,0.1-0.2,0.3-0.4,0.4
			c-1.6,1.5-3.7,3-6.3,4.2c-2.6,1.3-5.9,1.9-9.8,1.9s-7.2-0.6-9.8-1.9c-2.6-1.3-4.7-2.7-6.3-4.2c-0.1-0.1-0.3-0.3-0.4-0.4
			c-0.1-0.1-0.2-0.3-0.4-0.4c-0.1-0.1-0.1-0.1-0.2-0.2c-2.1-2.3-3.5-5-4.5-7.9c-0.9-2.9-1.4-7.4-1.4-13.3
			C2746.4,1943.2,2746.9,1938.8,2747.8,1935.9z M2780.7,1941.4c-0.3-1.6-0.8-3.1-1.7-4.5c-0.1-0.1-0.2-0.3-0.3-0.5
			c-0.1-0.2-0.2-0.3-0.4-0.5c-0.8-1.2-2-2.1-3.7-2.9c-1.7-0.8-3.4-1.2-5.3-1.2c-1.9,0-3.7,0.4-5.3,1.2c-1.7,0.8-2.9,1.7-3.7,2.9
			c-0.1,0.1-0.3,0.3-0.4,0.5c-0.1,0.2-0.2,0.3-0.3,0.5c-0.8,1.3-1.4,2.8-1.7,4.5c-0.3,1.7-0.4,4.2-0.4,7.8c0,3.6,0.1,6.2,0.4,7.9
			c0.3,1.7,0.8,3.1,1.7,4.5c0.1,0.1,0.2,0.3,0.3,0.5c0.1,0.2,0.2,0.3,0.4,0.5c0.8,1.2,2,2.1,3.7,2.9c1.7,0.8,3.4,1.2,5.3,1.2
			c1.9,0,3.7-0.4,5.3-1.2c1.7-0.8,2.9-1.7,3.7-2.9c0.1-0.1,0.3-0.3,0.4-0.5c0.1-0.2,0.2-0.3,0.3-0.5c0.8-1.3,1.4-2.8,1.7-4.5
			c0.3-1.6,0.4-4.2,0.4-7.8C2781.2,1945.6,2781,1943,2780.7,1941.4z"/>
		<path id="XMLID_92_" fill="#000004" d="M2807,1898.7h11.2v28.5c2.1-2,4.3-3.6,6.7-4.8c2.3-1.2,4.9-1.8,7.8-1.8
			c3.4,0,6.4,0.7,8.9,2c2.5,1.4,4.5,3.1,6.1,5.2c0.1,0.1,0.1,0.1,0.2,0.2c0,0.1,0.1,0.1,0.2,0.1c1.4,2,2.3,4.3,2.9,7
			c0.5,2.7,0.8,7.3,0.8,13.9c0,6.7-0.3,11.4-0.8,14.1c-0.5,2.7-1.5,5-2.9,6.9c-0.1,0-0.1,0-0.2,0.1c0,0.1-0.1,0.1-0.2,0.2
			c-1.6,2.1-3.6,3.8-6.1,5.1c-2.5,1.4-5.4,2-8.9,2c-2.9,0-5.5-0.6-8-1.8c-2.5-1.2-4.6-2.7-6.4-4.6v5.8H2807V1898.7z M2820.4,1936.4
			c-1.3,3-2,6.3-2.1,9.9c0,0.5,0,1,0,1.5c0,0.5,0,0.9,0,1.4c0,0.4,0,0.9,0,1.3c0,0.4,0,0.9,0,1.3c0.1,3.7,0.8,7,2.1,10.1
			c1.2,3.1,4.2,4.6,8.9,4.6c5.3,0,8.5-1.8,9.5-5.4c1.1-3.6,1.6-7.6,1.6-11.9c0-0.1,0-0.1,0-0.2c0,0,0-0.1,0-0.2
			c0-4.3-0.5-8.1-1.6-11.7c-1.1-3.5-4.3-5.3-9.5-5.3C2824.6,1931.8,2821.7,1933.3,2820.4,1936.4z"/>
		<path id="XMLID_95_" fill="#000004" d="M2867.3,1898.7h11.2v11.2h-11.2V1898.7z M2867.3,1921.3h11.2v55.8h-11.2V1921.3z"/>
		<path id="XMLID_98_" fill="#000004" d="M2896.2,1898.7h11.2v63.9c0,1.2,0.3,2.2,1,2.9c0.7,0.7,1.7,1,3.1,1h3.8v10.6h-5
			c-4,0-7.4-1-10.2-3c-2.8-2-4.1-5.5-4.1-10.5V1898.7z"/>
		<path id="XMLID_100_" fill="#000004" d="M2935.9,1953.4c0,4.5,1.3,8,3.8,10.3c2.5,2.3,5.7,3.5,9.5,3.5c0.4,0,0.9,0,1.3-0.1
			c0.4,0,0.9-0.1,1.3-0.2c1.7-0.3,3.4-0.9,5.1-1.8c1.7-0.9,3.2-2,4.5-3.4l8.1,6.9c-2.7,3.2-5.8,5.4-9.3,6.8
			c-3.5,1.4-7.1,2.1-10.8,2.1c-0.7,0-1.4,0-2.1-0.1c-0.7,0-1.4-0.1-2.1-0.2c-5.1-0.7-9.8-3-14.1-7c-4.3-4-6.4-11-6.4-21.1
			c0-9.7,2-16.7,6.1-21c4.1-4.3,8.6-6.8,13.5-7.5c0.6-0.1,1.2-0.1,1.7-0.2c0.5,0,1.1-0.1,1.7-0.1c6.2,0,11.5,2.1,16.1,6.4
			c4.6,4.3,6.9,10,6.9,17.2v9.2H2935.9z M2959.5,1944.2c-0.1-4.3-1.3-7.5-3.5-9.7c-2.2-2.2-5-3.3-8.3-3.3s-6,1.1-8.3,3.3
			c-2.2,2.2-3.4,5.4-3.5,9.7H2959.5z"/>
		<path id="XMLID_103_" fill="#000004" d="M2330.2,2082.6h-29.7l-6,17.5h-12.5l28.5-78.3h9.9l28.5,78.3h-12.5L2330.2,2082.6z
			 M2326.8,2072l-11.3-34.2h-0.2l-11.3,34.2H2326.8z"/>
		<path id="XMLID_106_" fill="#000004" d="M2359.7,2027.3h11.2v16.9h8.1v8.6h-8.1v32.5c0,1.5,0.3,2.6,0.9,3.2c0.6,0.6,1.6,0.9,3,0.9
			h4.2v10.6h-5.8c-3.9,0-7.1-1.2-9.7-3.6c-2.6-2.4-3.8-5.8-3.8-10.2v-33.4h-5.6v-8.6h5.6V2027.3z"/>
		<path id="XMLID_108_" fill="#000004" d="M2393.1,2027.3h11.2v16.9h8.1v8.6h-8.1v32.5c0,1.5,0.3,2.6,0.9,3.2c0.6,0.6,1.6,0.9,3,0.9
			h4.2v10.6h-5.8c-3.9,0-7.1-1.2-9.7-3.6c-2.6-2.4-3.8-5.8-3.8-10.2v-33.4h-5.6v-8.6h5.6V2027.3z"/>
		<path id="XMLID_110_" fill="#000004" d="M2455.1,2095.1h-0.2c-1.2,1.9-2.8,3.3-4.9,4.2c-2.1,0.9-5,1.3-8.9,1.3
			c-6.2,0-11.1-1.6-14.5-4.8c-3.4-3.2-5.2-7.3-5.2-12.1c0-4.5,1.5-8.3,4.6-11.6c3-3.3,7.6-4.9,13.6-4.9h15.5v-5.8
			c0-2.6-0.9-4.5-2.7-5.6c-1.8-1.1-4.7-1.6-8.7-1.6c-2.9,0-5.2,0.3-6.7,0.9s-2.8,1.7-3.9,3.4l-8.8-6.7c2.1-3,4.7-5.1,7.9-6.3
			c3.1-1.2,6.8-1.8,10.9-1.8c6.9,0,12.5,1.3,16.8,4c4.3,2.7,6.4,7.5,6.4,14.4v38.1h-11.2V2095.1z M2455.1,2076.4h-13.4
			c-3.3,0-5.7,0.6-7.3,1.8c-1.6,1.2-2.4,2.8-2.4,4.9c0,1.8,0.8,3.5,2.4,4.9c1.6,1.4,4.3,2.1,8.1,2.1c4.7,0,8-0.5,9.8-1.6
			c1.8-1.1,2.8-3.8,2.8-8.1V2076.4z"/>
		<path id="XMLID_113_" fill="#000004" d="M2524.8,2091c-2.4,2.8-5.3,5.1-8.6,6.9c-3.3,1.8-7.1,2.7-11.4,2.7
			c-6.5,0-12.3-2.2-17.5-6.5c-5.2-4.4-7.8-11.6-7.8-21.8c0-10.3,2.6-17.6,7.8-22c5.2-4.4,11-6.6,17.5-6.6c4.3,0,8,0.9,11.4,2.8
			c3.3,1.8,6.2,4.1,8.6,6.9l-8.3,7.4c-1.4-1.7-3-3.1-5-4.2c-1.9-1.1-4-1.7-6.4-1.7c-4.5,0-8.1,1.4-10.7,4.1
			c-2.6,2.8-3.8,7.2-3.8,13.3c0,6,1.3,10.4,3.8,13.1c2.6,2.8,6.1,4.1,10.7,4.1c2.3,0,4.5-0.6,6.4-1.7c1.9-1.1,3.6-2.5,5-4.2
			L2524.8,2091z"/>
		<path id="XMLID_115_" fill="#000004" d="M2535.4,2021.7h11.2v48.7h0.2l21.5-26.2h13.4l-19.3,21.8l21.9,34h-14.1l-14.8-26.1
			l-8.8,10v16.1h-11.2V2021.7z"/>
		<path id="XMLID_117_" fill="#000004" d="M2595.7,2063.9h11.2v11.2h-11.2V2063.9z M2595.7,2088.8h11.2v11.2h-11.2V2088.8z"/>
		<path id="XMLID_120_" fill="#000004" d="M2654.9,2021.7h50v11.2h-38.2v22.3h32.6v10.6h-32.6v23h38.2v11.2h-50V2021.7z"/>
		<path id="XMLID_122_" fill="#000004" d="M2712.5,2044.3h13.4l11.1,18l11.1-18h13.4l-18.3,27.3l19,28.5h-13.4l-11.9-18.6
			l-11.9,18.6h-13.4l19-28.5L2712.5,2044.3z"/>
		<path id="XMLID_124_" fill="#000004" d="M2773.6,2044.3h11.2v5.8c1.8-1.9,3.9-3.5,6.4-4.7c2.5-1.2,5.2-1.8,8-1.8
			c3.4,0,6.4,0.7,8.9,2c2.5,1.4,4.5,3.1,6.1,5.2c0.1,0.1,0.1,0.1,0.2,0.2c0,0.1,0.1,0.1,0.2,0.1c1.4,1.9,2.3,4.2,2.9,6.9
			c0.5,2.7,0.8,7.4,0.8,14.1c0,6.6-0.3,11.2-0.8,13.9c-0.5,2.7-1.5,5-2.9,7c-0.1,0-0.1,0-0.2,0.1c0,0.1-0.1,0.1-0.2,0.2
			c-1.6,2.1-3.6,3.8-6.1,5.1c-2.5,1.4-5.4,2-8.9,2c-2.9,0-5.4-0.6-7.8-1.8c-2.3-1.2-4.5-2.8-6.7-4.7v28.5h-11.2V2044.3z
			 M2805.3,2084.2c1.1-3.5,1.6-7.4,1.6-11.7c0-0.1,0-0.1,0-0.2c0,0,0-0.1,0-0.2c0-4.3-0.5-8.3-1.6-11.9c-1.1-3.6-4.2-5.4-9.5-5.4
			c-4.7,0-7.7,1.5-8.9,4.6c-1.2,3.1-1.9,6.5-2.1,10.1c0,0.4,0,0.9,0,1.3c0,0.4,0,0.9,0,1.3c0,0.4,0,0.9,0,1.4c0,0.5,0,1,0,1.5
			c0.1,3.6,0.9,6.9,2.1,9.9c1.3,3,4.2,4.5,8.9,4.5C2801,2089.5,2804.2,2087.7,2805.3,2084.2z"/>
		<path id="XMLID_127_" fill="#000004" d="M2833.5,2021.7h11.2v63.9c0,1.2,0.3,2.2,1,2.9c0.7,0.7,1.7,1,3.1,1h3.8v10.6h-5
			c-4,0-7.4-1-10.2-3c-2.8-2-4.1-5.5-4.1-10.5V2021.7z"/>
		<path id="XMLID_129_" fill="#000004" d="M2863.4,2058.9c0.9-2.9,2.4-5.5,4.5-7.9c0.1-0.1,0.1-0.1,0.2-0.2c0.1-0.1,0.3-0.3,0.4-0.4
			c0.1-0.1,0.2-0.3,0.4-0.4c1.6-1.5,3.7-3,6.3-4.3c2.6-1.3,5.9-2,9.8-2s7.2,0.7,9.8,2c2.6,1.3,4.7,2.8,6.3,4.3
			c0.1,0.1,0.3,0.3,0.4,0.4c0.1,0.1,0.2,0.3,0.4,0.4c0.1,0.1,0.1,0.1,0.2,0.2c2.1,2.3,3.5,5,4.5,7.9c0.9,2.9,1.4,7.3,1.4,13.3
			c0,5.9-0.5,10.4-1.4,13.3c-0.9,2.9-2.4,5.6-4.5,7.9c-0.1,0.1-0.1,0.1-0.2,0.2c-0.1,0.1-0.3,0.3-0.4,0.4c-0.1,0.1-0.2,0.3-0.4,0.4
			c-1.6,1.5-3.7,3-6.3,4.2c-2.6,1.3-5.9,1.9-9.8,1.9s-7.2-0.6-9.8-1.9c-2.6-1.3-4.7-2.7-6.3-4.2c-0.1-0.1-0.3-0.3-0.4-0.4
			c-0.1-0.1-0.2-0.3-0.4-0.4c-0.1-0.1-0.1-0.1-0.2-0.2c-2.1-2.3-3.5-5-4.5-7.9c-0.9-2.9-1.4-7.4-1.4-13.3
			C2862,2066.2,2862.5,2061.8,2863.4,2058.9z M2896.3,2064.4c-0.3-1.6-0.8-3.1-1.7-4.5c-0.1-0.1-0.2-0.3-0.3-0.5
			c-0.1-0.2-0.2-0.3-0.4-0.5c-0.8-1.2-2-2.1-3.7-2.9c-1.7-0.8-3.4-1.2-5.3-1.2c-1.9,0-3.7,0.4-5.3,1.2c-1.7,0.8-2.9,1.7-3.7,2.9
			c-0.1,0.1-0.3,0.3-0.4,0.5c-0.1,0.2-0.2,0.3-0.3,0.5c-0.8,1.3-1.4,2.8-1.7,4.5c-0.3,1.7-0.4,4.2-0.4,7.8c0,3.6,0.1,6.2,0.4,7.9
			c0.3,1.7,0.8,3.1,1.7,4.5c0.1,0.1,0.2,0.3,0.3,0.5c0.1,0.2,0.2,0.3,0.4,0.5c0.8,1.2,2,2.1,3.7,2.9c1.7,0.8,3.4,1.2,5.3,1.2
			c1.9,0,3.7-0.4,5.3-1.2c1.7-0.8,2.9-1.7,3.7-2.9c0.1-0.1,0.3-0.3,0.4-0.5c0.1-0.2,0.2-0.3,0.3-0.5c0.8-1.3,1.4-2.8,1.7-4.5
			c0.3-1.6,0.4-4.2,0.4-7.8C2896.8,2068.6,2896.6,2066,2896.3,2064.4z"/>
		<path id="XMLID_132_" fill="#000004" d="M2923,2021.7h11.2v11.2H2923V2021.7z M2923,2044.3h11.2v55.8H2923V2044.3z"/>
		<path id="XMLID_135_" fill="#000004" d="M2952.5,2027.3h11.2v16.9h8.1v8.6h-8.1v32.5c0,1.5,0.3,2.6,0.9,3.2c0.6,0.6,1.6,0.9,3,0.9
			h4.2v10.6h-5.8c-3.9,0-7.1-1.2-9.7-3.6c-2.6-2.4-3.8-5.8-3.8-10.2v-33.4h-5.6v-8.6h5.6V2027.3z"/>
	</g>
</g>
<g id="Laag_4">
</g>
<g id="nrs">
</g>
</svg>
