<?xml version="1.0" encoding="utf-8"?>
<!-- Generator: Adobe Illustrator 19.0.0, SVG Export Plug-In . SVG Version: 6.00 Build 0)  -->
<svg version="1.2" baseProfile="tiny" xmlns="http://www.w3.org/2000/svg" xmlns:xlink="http://www.w3.org/1999/xlink" x="0px"
	 y="0px" width="3812.2px" height="2547.6px" viewBox="0 0 3812.2 2547.6" xml:space="preserve">
<g id="Laag_1">
	<g id="XMLID_689_">
		
			<rect id="XMLID_5714_" x="1135.9" y="735.1" fill="#C6CACB" stroke="#1E1D21" stroke-width="8" stroke-linecap="round" stroke-linejoin="round" stroke-miterlimit="10" width="169.7" height="40.2"/>
		
			<rect id="XMLID_5690_" x="1136.3" y="913.5" fill="#C6CACB" stroke="#1E1D21" stroke-width="8" stroke-linecap="round" stroke-linejoin="round" stroke-miterlimit="10" width="169.7" height="40.2"/>
		
			<path id="XMLID_5688_" fill="none" stroke="#1E1D21" stroke-width="8" stroke-linecap="round" stroke-linejoin="round" stroke-miterlimit="10" d="
			M1280.7,844.4h24.8c24.7,0,44.7,20,44.7,44.6v0c0,24.6-20,44.6-44.7,44.6"/>
		
			<polyline id="XMLID_5687_" fill="none" stroke="#1E1D21" stroke-width="8" stroke-linecap="round" stroke-linejoin="round" stroke-miterlimit="10" points="
			1306,816 1277.5,844.4 1306,872.8 		"/>
	</g>
	<g id="XMLID_5669_">
		
			<path id="XMLID_5684_" fill="none" stroke="#1E1D21" stroke-width="8" stroke-linecap="round" stroke-linejoin="round" stroke-miterlimit="10" d="
			M2059.7,937.6c0,10.2-8.2,18.4-18.4,18.4c-10.2,0-18.4-8.2-18.4-18.4"/>
		
			<path id="XMLID_5675_" fill="#FFFFFF" stroke="#1E1D21" stroke-width="8" stroke-linecap="round" stroke-linejoin="round" stroke-miterlimit="10" d="
			M2142.1,905.6L2142.1,905.6c-12.8,0-23.2-10.4-23.2-23.2v-63c0-36.6-25-67.9-59-76.5c1.3-2.7,2.1-5.7,2.1-8.9
			c0-11.4-9.2-20.6-20.6-20.6c-11.4,0-20.6,9.2-20.6,20.6c0,3.2,0.7,6.2,2,8.9c-33.9,8.3-59,38.9-59,75.3v64.2
			c0,12.8-10.4,23.2-23.2,23.2 M1940.5,925.1h201.6 M2142.1,905.6L2142.1,905.6c-12.8,0-23.2-10.4-23.2-23.2v-63
			c0-36.6-25-67.9-59-76.5c1.3-2.7,2.1-5.7,2.1-8.9c0-11.4-9.2-20.6-20.6-20.6c-11.4,0-20.6,9.2-20.6,20.6c0,3.2,0.7,6.2,2,8.9
			c-33.9,8.3-59,38.9-59,75.3v64.2c0,12.8-10.4,23.2-23.2,23.2 M2039.7,726.7c2-0.4,4.1,0.2,5.7,1.7c2.5,2.5,2.5,6.4,0,8.9
			c-2.5,2.5-6.4,2.5-8.9,0"/>
		<path id="XMLID_5674_" fill="#C6CACB" d="M1947.1,908.9c12.8,0,23.2-12.7,23.2-25.5v-65.2c0-43.2,25.7-70.2,69-69.6
			c9.4,0.1,0.3-0.2,8.5,3c-15.7,10.2-46.3,46.4-46.3,92.3l0.9,61.7c0,2.6-0.3,6.5-1,9l-58.8,0.8"/>
		
			<path id="XMLID_5673_" fill="none" stroke="#1E1D21" stroke-width="8" stroke-linecap="round" stroke-linejoin="round" stroke-miterlimit="10" d="
			M1932,865.1c-7.1-10.6-12.2-22.5-14.9-35.1c-2.7-12.6-2.9-26-0.3-39.5c2.6-13.5,7.8-25.8,15.1-36.5"/>
		
			<path id="XMLID_5672_" fill="none" stroke="#1E1D21" stroke-width="8" stroke-linecap="round" stroke-linejoin="round" stroke-miterlimit="10" d="
			M2150.6,753.9c7.1,10.6,12.2,22.5,14.9,35.1c2.7,12.6,2.9,26,0.3,39.5c-2.6,13.5-7.8,25.8-15.1,36.5"/>
		
			<path id="XMLID_5671_" fill="none" stroke="#1E1D21" stroke-width="8" stroke-linecap="round" stroke-linejoin="round" stroke-miterlimit="10" d="
			M1904.4,883.7c-9.5-14.1-16.3-30-19.9-46.9c-3.6-16.9-3.9-34.7-0.4-52.7c3.5-18,10.5-34.4,20.1-48.7"/>
		
			<path id="XMLID_5670_" fill="none" stroke="#1E1D21" stroke-width="8" stroke-linecap="round" stroke-linejoin="round" stroke-miterlimit="10" d="
			M2178.2,735.2c9.5,14.1,16.3,30,19.9,46.9c3.6,16.9,3.9,34.7,0.4,52.7c-3.5,18-10.5,34.4-20.1,48.7"/>
	</g>
	<g id="XMLID_5655_">
		<polygon id="XMLID_5668_" fill="#E0E1E2" points="1579,1303.5 1565.4,1303.5 1559.5,1201.3 1473.1,1086.5 1473.1,1055.5 
			1532.8,1055.5 1532.8,1086.5 1576,1201.3 		"/>
		<polygon id="XMLID_5667_" fill="#E0E1E2" points="1589,1303.5 1596.3,1303.5 1602.2,1201.3 1688.6,1086.5 1688.6,1055.5 
			1657.1,1055.5 1657.1,1086.5 1591.9,1201.3 		"/>
		
			<polygon id="XMLID_5666_" fill="none" stroke="#1E1D21" stroke-width="8" stroke-linecap="round" stroke-linejoin="round" stroke-miterlimit="10" points="
			1690.4,1055.5 1690.4,1086.5 1601.9,1204.2 1596.1,1303.5 1563,1303.5 1557.1,1201.3 1470.7,1086.5 1470.7,1055.5 		"/>
		
			<line id="XMLID_5665_" fill="none" stroke="#1E1D21" stroke-width="8" stroke-linecap="round" stroke-linejoin="round" stroke-miterlimit="10" x1="1470.7" y1="1086.5" x2="1590.8" y2="1086.5"/>
		
			<line id="XMLID_5664_" fill="none" stroke="#1E1D21" stroke-width="8" stroke-linecap="round" stroke-linejoin="round" stroke-miterlimit="10" x1="1638.7" y1="1086.5" x2="1690.4" y2="1086.5"/>
		<g id="XMLID_5659_">
			
				<path id="XMLID_5663_" fill="none" stroke="#1E1D21" stroke-width="8" stroke-linecap="round" stroke-linejoin="round" stroke-miterlimit="10" d="
				M1488.9,916.4c7.4,3.1,14,7.6,19.5,13.2c5.6,5.6,10.1,12.2,13.2,19.5c3.1,7.4,4.8,15.4,4.8,23.9v12.2v12.2v12.2v12.2"/>
			
				<path id="XMLID_5662_" fill="none" stroke="#1E1D21" stroke-width="8" stroke-linecap="round" stroke-linejoin="round" stroke-miterlimit="10" d="
				M1673.4,916.4c-7.4,3.1-14,7.6-19.5,13.2c-5.6,5.6-10.1,12.2-13.2,19.5c-3.1,7.4-4.8,15.4-4.8,23.9v12.2v12.2v12.2v12.2"/>
			
				<line id="XMLID_5661_" fill="none" stroke="#1E1D21" stroke-width="8" stroke-linecap="round" stroke-linejoin="round" stroke-miterlimit="10" x1="1580.8" y1="868.3" x2="1580.8" y2="982.1"/>
			
				<path id="XMLID_5660_" fill="none" stroke="#1E1D21" stroke-width="8" stroke-linecap="round" stroke-linejoin="round" stroke-miterlimit="10" d="
				M1642.3,911.5"/>
		</g>
		
			<polyline id="XMLID_5658_" fill="none" stroke="#1E1D21" stroke-width="8" stroke-linecap="round" stroke-linejoin="round" stroke-miterlimit="10" points="
			1506.3,1007 1526.5,1027.2 1546.6,1007 		"/>
		
			<polyline id="XMLID_5657_" fill="none" stroke="#1E1D21" stroke-width="8" stroke-linecap="round" stroke-linejoin="round" stroke-miterlimit="10" points="
			1615.8,1007 1635.9,1027.2 1656,1007 		"/>
		
			<polyline id="XMLID_5656_" fill="none" stroke="#1E1D21" stroke-width="8" stroke-linecap="round" stroke-linejoin="round" stroke-miterlimit="10" points="
			1560.7,967.7 1580.8,987.9 1600.9,967.7 		"/>
	</g>
	<g id="XMLID_7631_">
		<path id="XMLID_7632_" fill="#000004" d="M1244.7,304.6c-3.5,3.9-8.7,6.5-14.4,6.5c-6.8,0-11.8-3.1-15-7.3c-3.1-4-4-7.6-4-21.4
			c0-13.7,0.9-17.3,4-21.3c3.2-4.2,8.2-7.3,15-7.3c5.7,0,10.2,2.6,14.4,6.6V232h11.2v78.5h-11.2V304.6z M1222.6,282.5
			c0,8.7,0.6,17.4,11.1,17.4c10.5,0,11-9.3,11-17.4c0-8-0.6-17.3-11-17.3C1223.1,265.2,1222.6,273.9,1222.6,282.5z"/>
		<path id="XMLID_7635_" fill="#000004" d="M1279.8,286.8c0,9.1,5.6,13.8,13.3,13.8c4.3,0,8.9-2,12.2-5.4l8.2,6.9
			c-5.5,6.4-12.7,9-20.2,9c-11.5,0-24.8-5.5-24.8-28.4c0-21.7,12.2-28.8,23-28.8c12.3,0,23,9.1,23,23.6v9.3H1279.8z M1303.4,277.5
			c-0.3-8.5-5.2-13-11.8-13s-11.6,4.5-11.8,13H1303.4z"/>
		<path id="XMLID_7638_" fill="#000004" d="M1329.8,237.6h11.2v17h8.2v8.6h-8.2v32.5c0,3.1,1.2,4.2,4,4.2h4.2v10.6h-5.8
			c-7.8,0-13.6-5-13.6-13.8v-33.5h-5.6v-8.6h5.6V237.6z"/>
		<path id="XMLID_7640_" fill="#000004" d="M1371,286.8c0,9.1,5.6,13.8,13.3,13.8c4.3,0,8.9-2,12.2-5.4l8.2,6.9
			c-5.5,6.4-12.7,9-20.2,9c-11.5,0-24.8-5.5-24.8-28.4c0-21.7,12.2-28.8,23-28.8c12.3,0,23,9.1,23,23.6v9.3H1371z M1394.6,277.5
			c-0.3-8.5-5.2-13-11.8-13s-11.6,4.5-11.8,13H1394.6z"/>
		<path id="XMLID_7643_" fill="#000004" d="M1461.5,301.4c-4.8,5.6-11.6,9.7-20.1,9.7c-12.9,0-25.3-8.2-25.3-28.5
			c0-20.5,12.5-28.7,25.3-28.7c8.5,0,15.2,4.1,20.1,9.7l-8.3,7.4c-2.8-3.4-6.7-5.8-11.4-5.8c-9.1,0-14.5,5.2-14.5,17.4
			c0,12.1,5.4,17.3,14.5,17.3c4.6,0,8.6-2.4,11.4-5.8L1461.5,301.4z"/>
		<path id="XMLID_7645_" fill="#000004" d="M1472.7,237.6h11.2v17h8.2v8.6h-8.2v32.5c0,3.1,1.2,4.2,4,4.2h4.2v10.6h-5.8
			c-7.8,0-13.6-5-13.6-13.8v-33.5h-5.6v-8.6h5.6V237.6z"/>
		<path id="XMLID_7647_" fill="#000004" d="M1505.8,232h11.2v11.2h-11.2V232z M1505.8,254.6h11.2v55.9h-11.2V254.6z"/>
		<path id="XMLID_7650_" fill="#000004" d="M1534.7,254.6h11.2v6h0.2c3.5-4.4,8.6-6.6,14.5-6.6c8.7,0,18.6,6.7,18.6,19.4v37.1h-11.2
			v-33.3c0-7.6-4.7-12-11-12c-6.4,0-11.1,4.4-11.1,12v33.3h-11.2V254.6z"/>
		<path id="XMLID_7652_" fill="#000004" d="M1628,304.6c-3.5,3.9-8.7,6.5-14.4,6.5c-7.3,0-12.2-3.6-14.8-6.8
			c-3.2-4.2-4.2-6.3-4.2-21.7c0-15.5,1-17.6,4.2-21.8c2.5-3.2,7.5-6.8,14.8-6.8c5.7,0,10.2,2.2,14.4,6.6v-6h11.2v54.5
			c0,16.9-11.5,24.6-24.2,24.6c-7.2,0-14.4-3.7-19.4-9.4l8.7-6.9c2.8,2.8,6.6,5.1,10.9,5.1c7.5,0,12.8-4.3,12.8-12.1V304.6z
			 M1608.1,295.6c1.5,2,4.4,4.3,8.9,4.3c4.4,0,7.3-2.3,8.8-4.3c2-2.5,2.2-4.1,2.2-13c0-9-0.2-10.6-2.2-13.1c-1.5-2-4.4-4.3-8.8-4.3
			c-4.5,0-7.4,2.3-8.9,4.3c-2,2.5-2.2,4.1-2.2,13.1C1605.9,291.5,1606.1,293,1608.1,295.6z"/>
	</g>
	<g id="XMLID_7594_">
		<path id="XMLID_7595_" fill="#000004" d="M963.2,604.9h11.2v5.8c3.5-3.9,8.7-6.5,14.4-6.5c6.8,0,11.8,3.1,15,7.3
			c3.1,4,4,7.6,4,21.4c0,13.7-0.9,17.3-4,21.3c-3.2,4.2-8.2,7.3-15,7.3c-5.7,0-10.2-2.6-14.4-6.6v28.5h-11.2V604.9z M996.6,632.9
			c0-8.7-0.6-17.4-11.1-17.4c-10.5,0-11,9.3-11,17.4c0,8,0.6,17.3,11,17.3C996,650.2,996.6,641.5,996.6,632.9z"/>
		<path id="XMLID_7598_" fill="#000004" d="M1023.1,604.9h11.2v6h0.2c3.5-4.4,8.6-6.6,14.5-6.6c4.5,0,8.3,1.7,11.7,4.3l-8.2,9.7
			c-2.6-2-4.5-2.8-7.4-2.8c-5.5,0-10.9,3.5-10.9,11.7v33.6h-11.2V604.9z"/>
		<path id="XMLID_7600_" fill="#000004" d="M1069.1,582.3h11.2v11.2h-11.2V582.3z M1069.1,604.9h11.2v55.9h-11.2V604.9z"/>
		<path id="XMLID_7603_" fill="#000004" d="M1101.3,611.4c3.1-3.4,8.3-7.2,17-7.2s13.9,3.7,17,7.2c4.3,4.7,6.1,9.4,6.1,21.4
			c0,12.1-1.8,16.8-6.1,21.5c-3.1,3.4-8.3,7.2-17,7.2s-13.9-3.7-17-7.2c-4.3-4.7-6.1-9.4-6.1-21.5
			C1095.2,620.7,1097,616.1,1101.3,611.4z M1127.3,619.5c-1.7-2.3-5.2-4.1-9-4.1c-3.9,0-7.4,1.8-9,4.1c-2.1,3-2.8,5.2-2.8,13.2
			c0,8.2,0.7,10.4,2.8,13.3c1.7,2.3,5.2,4.1,9,4.1c3.9,0,7.4-1.8,9-4.1c2.1-3,2.8-5.2,2.8-13.2
			C1130,624.7,1129.4,622.5,1127.3,619.5z"/>
		<path id="XMLID_7606_" fill="#000004" d="M1155.8,604.9h11.2v6h0.2c3.5-4.4,8.6-6.6,14.5-6.6c4.5,0,8.3,1.7,11.7,4.3l-8.2,9.7
			c-2.6-2-4.5-2.8-7.4-2.8c-5.5,0-10.9,3.5-10.9,11.7v33.6h-11.2V604.9z"/>
		<path id="XMLID_7608_" fill="#000004" d="M1201.8,582.3h11.2v11.2h-11.2V582.3z M1201.8,604.9h11.2v55.9h-11.2V604.9z"/>
		<path id="XMLID_7611_" fill="#000004" d="M1231.3,587.9h11.2v17h8.2v8.6h-8.2V646c0,3.1,1.2,4.2,4,4.2h4.2v10.6h-5.8
			c-7.8,0-13.6-5-13.6-13.8v-33.5h-5.6v-8.6h5.6V587.9z"/>
		<path id="XMLID_7618_" fill="#000004" d="M1264.4,582.3h11.2v11.2h-11.2V582.3z M1264.4,604.9h11.2v55.9h-11.2V604.9z"/>
		<path id="XMLID_7621_" fill="#000004" d="M1289.6,651.8l28-37h-26.4v-9.9h40.1v8.9l-28,36.4h28v10.6h-41.7V651.8z"/>
		<path id="XMLID_7623_" fill="#000004" d="M1345.2,582.3h11.2v11.2h-11.2V582.3z M1345.2,604.9h11.2v55.9h-11.2V604.9z"/>
		<path id="XMLID_7626_" fill="#000004" d="M1374.1,604.9h11.2v6h0.2c3.5-4.4,8.6-6.6,14.5-6.6c8.7,0,18.6,6.7,18.6,19.4v37.1h-11.2
			v-33.3c0-7.6-4.7-12-11-12c-6.4,0-11.1,4.4-11.1,12v33.3h-11.2V604.9z"/>
		<path id="XMLID_7628_" fill="#000004" d="M1467.4,654.9c-3.5,3.9-8.7,6.5-14.4,6.5c-7.3,0-12.2-3.6-14.8-6.8
			c-3.2-4.2-4.2-6.3-4.2-21.7c0-15.5,1-17.6,4.2-21.8c2.5-3.2,7.5-6.8,14.8-6.8c5.7,0,10.2,2.2,14.4,6.6v-6h11.2v54.5
			c0,16.9-11.5,24.6-24.2,24.6c-7.2,0-14.4-3.7-19.4-9.4l8.7-6.9c2.8,2.8,6.6,5.1,10.9,5.1c7.5,0,12.8-4.3,12.8-12.1V654.9z
			 M1447.5,645.9c1.5,2,4.4,4.3,8.9,4.3c4.4,0,7.3-2.3,8.8-4.3c2-2.5,2.2-4.1,2.2-13c0-9-0.2-10.6-2.2-13.1c-1.5-2-4.4-4.3-8.8-4.3
			c-4.5,0-7.4,2.3-8.9,4.3c-2,2.5-2.2,4.1-2.2,13.1C1445.3,641.8,1445.5,643.3,1447.5,645.9z"/>
	</g>
	<g id="XMLID_7572_">
		<path id="XMLID_7573_" fill="#000004" d="M1893,655.8h-0.2c-2.3,3.9-6.2,5.6-13.8,5.6c-12.5,0-19.7-7.4-19.7-17.1
			c0-8.9,6.2-16.5,18.2-16.5h15.5V622c0-5.3-3.4-7.2-11.5-7.2c-5.8,0-8.6,1.1-10.6,4.3l-8.8-6.7c4.3-6,10.5-8.2,18.8-8.2
			c13.8,0,23.3,4.6,23.3,18.4v38.1H1893V655.8z M1893,637.1h-13.4c-6.6,0-9.7,2.6-9.7,6.7c0,3.7,3,7.1,10.6,7.1
			c9.4,0,12.6-1,12.6-9.7V637.1z"/>
		<path id="XMLID_7576_" fill="#000004" d="M1921.5,582.3h11.2v64c0,2.5,1.4,3.9,4.2,3.9h3.9v10.6h-5c-8.2,0-14.3-3.5-14.3-13.6
			V582.3z"/>
		<path id="XMLID_7578_" fill="#000004" d="M1961.2,637.1c0,9.1,5.6,13.8,13.3,13.8c4.3,0,8.9-2,12.2-5.4l8.2,6.9
			c-5.5,6.4-12.7,9-20.2,9c-11.5,0-24.8-5.5-24.8-28.4c0-21.7,12.2-28.8,23-28.8c12.3,0,23,9.1,23,23.6v9.3H1961.2z M1984.8,627.8
			c-0.3-8.5-5.2-13-11.8-13s-11.6,4.5-11.8,13H1984.8z"/>
		<path id="XMLID_7581_" fill="#000004" d="M2010.6,604.9h11.2v6h0.2c3.5-4.4,8.6-6.6,14.5-6.6c4.5,0,8.3,1.7,11.7,4.3l-8.2,9.7
			c-2.6-2-4.5-2.8-7.4-2.8c-5.5,0-10.9,3.5-10.9,11.7v33.6h-11.2V604.9z"/>
		<path id="XMLID_7583_" fill="#000004" d="M2056.8,587.9h11.2v17h8.2v8.6h-8.2V646c0,3.1,1.2,4.2,4,4.2h4.2v10.6h-5.8
			c-7.8,0-13.6-5-13.6-13.8v-33.5h-5.6v-8.6h5.6V587.9z"/>
		<path id="XMLID_7585_" fill="#000004" d="M2089.9,582.3h11.2v11.2h-11.2V582.3z M2089.9,604.9h11.2v55.9h-11.2V604.9z"/>
		<path id="XMLID_7588_" fill="#000004" d="M2118.8,604.9h11.2v6h0.2c3.5-4.4,8.6-6.6,14.5-6.6c8.7,0,18.6,6.7,18.6,19.4v37.1h-11.2
			v-33.3c0-7.6-4.7-12-11-12c-6.4,0-11.1,4.4-11.1,12v33.3h-11.2V604.9z"/>
		<path id="XMLID_7591_" fill="#000004" d="M2212.1,654.9c-3.5,3.9-8.7,6.5-14.4,6.5c-7.3,0-12.2-3.6-14.8-6.8
			c-3.2-4.2-4.2-6.3-4.2-21.7c0-15.5,1-17.6,4.2-21.8c2.5-3.2,7.5-6.8,14.8-6.8c5.7,0,10.2,2.2,14.4,6.6v-6h11.2v54.5
			c0,16.9-11.5,24.6-24.2,24.6c-7.2,0-14.4-3.7-19.4-9.4l8.7-6.9c2.8,2.8,6.6,5.1,10.9,5.1c7.5,0,12.8-4.3,12.8-12.1V654.9z
			 M2192.2,645.9c1.5,2,4.4,4.3,8.9,4.3c4.4,0,7.3-2.3,8.8-4.3c2-2.5,2.2-4.1,2.2-13c0-9-0.2-10.6-2.2-13.1c-1.5-2-4.4-4.3-8.8-4.3
			c-4.5,0-7.4,2.3-8.9,4.3c-2,2.5-2.2,4.1-2.2,13.1C2190,641.8,2190.2,643.3,2192.2,645.9z"/>
	</g>
	<g id="XMLID_7545_">
		<path id="XMLID_7546_" fill="#000004" d="M1671.8,1247.5c3.1-3.4,8.3-7.2,17-7.2s13.9,3.7,17,7.2c4.3,4.7,6.1,9.4,6.1,21.4
			c0,12.1-1.8,16.8-6.1,21.5c-3.1,3.4-8.3,7.2-17,7.2s-13.9-3.7-17-7.2c-4.3-4.7-6.1-9.4-6.1-21.5
			C1665.7,1256.9,1667.5,1252.2,1671.8,1247.5z M1697.8,1255.6c-1.7-2.3-5.2-4.1-9-4.1c-3.9,0-7.4,1.8-9,4.1
			c-2.1,3-2.8,5.2-2.8,13.2c0,8.2,0.7,10.4,2.8,13.3c1.7,2.3,5.2,4.1,9,4.1c3.9,0,7.4-1.8,9-4.1c2.1-3,2.8-5.2,2.8-13.2
			C1700.5,1260.8,1699.9,1258.6,1697.8,1255.6z"/>
		<path id="XMLID_7549_" fill="#000004" d="M1726.3,1241h11.2v6h0.2c3.5-4.4,8.6-6.6,14.5-6.6c4.5,0,8.3,1.7,11.7,4.3l-8.2,9.7
			c-2.6-2-4.5-2.8-7.4-2.8c-5.5,0-10.9,3.5-10.9,11.7v33.6h-11.2V1241z"/>
		<path id="XMLID_7551_" fill="#000004" d="M1803.3,1291c-3.5,3.9-8.7,6.5-14.4,6.5c-7.3,0-12.2-3.6-14.8-6.8
			c-3.2-4.2-4.2-6.3-4.2-21.7c0-15.5,1-17.6,4.2-21.8c2.5-3.2,7.5-6.8,14.8-6.8c5.7,0,10.2,2.2,14.4,6.6v-6h11.2v54.5
			c0,16.9-11.5,24.6-24.2,24.6c-7.2,0-14.4-3.7-19.4-9.4l8.7-6.9c2.8,2.8,6.6,5.1,10.9,5.1c7.5,0,12.8-4.3,12.8-12.1V1291z
			 M1783.4,1282c1.5,2,4.4,4.3,8.9,4.3c4.4,0,7.3-2.3,8.8-4.3c2-2.5,2.2-4.1,2.2-13c0-9-0.2-10.6-2.2-13.1c-1.5-2-4.4-4.3-8.8-4.3
			c-4.5,0-7.4,2.3-8.9,4.3c-2,2.5-2.2,4.1-2.2,13.1C1781.2,1277.9,1781.4,1279.5,1783.4,1282z"/>
		<path id="XMLID_7554_" fill="#000004" d="M1861.2,1291.9h-0.2c-2.3,3.9-6.2,5.6-13.8,5.6c-12.5,0-19.7-7.4-19.7-17.1
			c0-8.9,6.2-16.5,18.2-16.5h15.5v-5.8c0-5.3-3.4-7.2-11.5-7.2c-5.8,0-8.6,1.1-10.6,4.3l-8.8-6.7c4.3-6,10.5-8.2,18.8-8.2
			c13.8,0,23.3,4.6,23.3,18.4v38.1h-11.2V1291.9z M1861.2,1273.2h-13.4c-6.6,0-9.7,2.6-9.7,6.7c0,3.7,3,7.1,10.6,7.1
			c9.4,0,12.6-1,12.6-9.7V1273.2z"/>
		<path id="XMLID_7557_" fill="#000004" d="M1889.7,1241h11.2v6h0.2c3.5-4.4,8.6-6.6,14.5-6.6c8.7,0,18.6,6.7,18.6,19.4v37.1h-11.2
			v-33.3c0-7.6-4.7-12-11-12c-6.4,0-11.1,4.4-11.1,12v33.3h-11.2V1241z"/>
		<path id="XMLID_7559_" fill="#000004" d="M1952,1218.4h11.2v11.2H1952V1218.4z M1952,1241h11.2v55.9H1952V1241z"/>
		<path id="XMLID_7562_" fill="#000004" d="M1977.2,1287.9l28-37h-26.4v-9.9h40.1v8.9l-28,36.4h28v10.6h-41.7V1287.9z"/>
		<path id="XMLID_7564_" fill="#000004" d="M2032.9,1218.4h11.2v11.2h-11.2V1218.4z M2032.9,1241h11.2v55.9h-11.2V1241z"/>
		<path id="XMLID_7567_" fill="#000004" d="M2061.8,1241h11.2v6h0.2c3.5-4.4,8.6-6.6,14.5-6.6c8.7,0,18.6,6.7,18.6,19.4v37.1h-11.2
			v-33.3c0-7.6-4.7-12-11-12c-6.4,0-11.1,4.4-11.1,12v33.3h-11.2V1241z"/>
		<path id="XMLID_7569_" fill="#000004" d="M2155.1,1291c-3.5,3.9-8.7,6.5-14.4,6.5c-7.3,0-12.2-3.6-14.8-6.8
			c-3.2-4.2-4.2-6.3-4.2-21.7c0-15.5,1-17.6,4.2-21.8c2.5-3.2,7.5-6.8,14.8-6.8c5.7,0,10.2,2.2,14.4,6.6v-6h11.2v54.5
			c0,16.9-11.5,24.6-24.2,24.6c-7.2,0-14.4-3.7-19.4-9.4l8.7-6.9c2.8,2.8,6.6,5.1,10.9,5.1c7.5,0,12.8-4.3,12.8-12.1V1291z
			 M2135.1,1282c1.5,2,4.4,4.3,8.9,4.3c4.4,0,7.3-2.3,8.8-4.3c2-2.5,2.2-4.1,2.2-13c0-9-0.2-10.6-2.2-13.1c-1.5-2-4.4-4.3-8.8-4.3
			c-4.5,0-7.4,2.3-8.9,4.3c-2,2.5-2.2,4.1-2.2,13.1C2132.9,1277.9,2133.2,1279.5,2135.1,1282z"/>
	</g>
	<g id="XMLID_5244_">
		
			<rect id="XMLID_5251_" x="3221.1" y="1193.5" fill="#E0E1E2" stroke="#1E1D21" stroke-width="8" stroke-miterlimit="10" width="53" height="92.2"/>
		
			<rect id="XMLID_5250_" x="3274.1" y="1118.6" fill="#B0B5B7" stroke="#1E1D21" stroke-width="8" stroke-miterlimit="10" width="53" height="167.1"/>
		
			<rect id="XMLID_5249_" x="3371.8" y="1154.9" fill="#E0E1E2" stroke="#1E1D21" stroke-width="8" stroke-miterlimit="10" width="53" height="130.9"/>
		
			<rect id="XMLID_5248_" x="3424.8" y="1118.6" fill="#B0B5B7" stroke="#1E1D21" stroke-width="8" stroke-miterlimit="10" width="53" height="167.1"/>
		
			<rect id="XMLID_5247_" x="3522.6" y="1173.5" fill="#E0E1E2" stroke="#1E1D21" stroke-width="8" stroke-miterlimit="10" width="53" height="112.2"/>
		
			<rect id="XMLID_5246_" x="3575.6" y="1079.3" fill="#B0B5B7" stroke="#1E1D21" stroke-width="8" stroke-miterlimit="10" width="53" height="206.4"/>
		
			<polyline id="XMLID_5245_" fill="none" stroke="#1E1D21" stroke-width="8" stroke-linecap="round" stroke-linejoin="round" stroke-miterlimit="10" points="
			3187.4,1084.6 3187.4,1316.1 3636.1,1316.1 		"/>
	</g>
	<g id="XMLID_5225_">
		
			<polyline id="XMLID_5243_" fill="none" stroke="#1E1D21" stroke-width="8" stroke-linecap="round" stroke-linejoin="round" stroke-miterlimit="10" points="
			2602.1,1084.6 2602.1,1316.1 3050.8,1316.1 		"/>
		<polyline id="XMLID_5242_" fill="none" stroke="#1E1D21" stroke-width="8" stroke-miterlimit="10" points="2657.2,1264.6 
			2772.9,1084.6 2869.1,1179.5 3050.8,1085.8 		"/>
		<circle id="XMLID_5241_" fill="#1E1D21" cx="2657.2" cy="1264.6" r="12.9"/>
		<circle id="XMLID_5240_" fill="#1E1D21" cx="2772.9" cy="1084.6" r="12.9"/>
		<circle id="XMLID_5239_" fill="#1E1D21" cx="3050.8" cy="1084.6" r="12.9"/>
		<circle id="XMLID_5231_" fill="#1E1D21" cx="2869.1" cy="1179.5" r="12.9"/>
	</g>
	<g id="XMLID_642_">
		<path id="XMLID_4061_" fill="#1E1D21" d="M624.1,1135H189.2V888.2c0-13.1,10.6-23.8,23.8-23.8h387.3c13.1,0,23.8,10.6,23.8,23.8
			V1135z"/>
		<rect id="XMLID_4057_" x="213" y="888.2" fill="#FFFFFF" width="387.3" height="246.1"/>
		<path id="XMLID_4053_" fill="#1E1D21" d="M624.1,1135H189.2l-65.6,160.5c-4.9,11.7,3.8,24.7,16.5,24.7h125h283.2h125
			c12.7,0,21.3-12.9,16.5-24.7L624.1,1135z"/>
		<polygon id="XMLID_4049_" fill="#FFFFFF" points="600.3,1152.1 213,1152.1 182.5,1225.7 467.3,1225.7 581.1,1225.7 630.8,1225.7 
					"/>
		<polygon id="XMLID_4048_" fill="#FFFFFF" points="455,1243.5 358.3,1243.5 344.1,1277.8 469.2,1277.8 		"/>
		<g id="XMLID_4045_">
			<polygon id="XMLID_4047_" fill="#C6CACB" points="600.3,1062.6 600.3,888.2 234.6,888.2 			"/>
			<polygon id="XMLID_4046_" fill="#C6CACB" points="213,1019 213,1134.2 460.9,1134.2 			"/>
		</g>
		<polygon id="XMLID_4044_" fill="#1E1D21" points="588.4,1295.6 564.2,1295.6 497.7,1135 521.8,1135 		"/>
		
			<line id="XMLID_4043_" fill="none" stroke="#FFFFFF" stroke-width="12" stroke-linecap="round" stroke-linejoin="round" stroke-miterlimit="10" x1="142.9" y1="1301.2" x2="670.4" y2="1301.2"/>
		<rect id="XMLID_4041_" x="527.1" y="1171.7" fill="#1E1D21" width="100.3" height="17.1"/>
		<g id="XMLID_4003_">
			<path id="XMLID_137_" fill="#1E1D21" d="M509.7,1092.8c-0.6,0-1.2-0.1-1.8-0.4c-1.8-0.9-2.7-3-2-4.9l65.1-182.8l-79.5-2.2
				c-1.4,0-2.7-0.9-3.4-2.1c-0.7-1.3-0.6-2.8,0.2-4L646,648.9c0.8-1.2,2-1.9,3.4-1.9c0.6,0,1.2,0.1,1.8,0.4c1.8,0.9,2.7,3,2,4.9
				l-65.1,182.8l79.5,2.2c1.4,0,2.7,0.9,3.4,2.1c0.7,1.3,0.6,2.8-0.2,4L513.1,1091C512.3,1092.2,511,1092.8,509.7,1092.8z"/>
			<path id="XMLID_133_" fill="#FFFFFF" d="M649.4,651L649.4,651 M649.4,651l-67,188l85,2.3l-157.8,247.4l67-188l-85-2.3L649.4,651
				 M649.4,643c-0.3,0-0.5,0-0.8,0c-1.3,0.1-2.4,0.5-3.5,1.2c-0.8,0.5-1.5,1.1-2.1,1.9c-0.2,0.2-0.4,0.5-0.5,0.7L484.9,894.2
				c-1.5,2.4-1.7,5.5-0.3,8.1c1.4,2.5,4,4.2,6.8,4.2l74,2l-63.3,177.6c-1.4,3.8,0.4,8.1,4,9.9c1.1,0.6,2.3,0.8,3.5,0.8
				c2.7,0,5.2-1.3,6.8-3.7l157.8-247.4c1.5-2.4,1.7-5.5,0.3-8.1c-1.4-2.5-4-4.2-6.8-4.2l-74-2l63.2-177.4c0.4-0.9,0.6-1.9,0.6-2.9
				c0-4.1-3.1-7.5-7-7.9C650.1,643,649.7,643,649.4,643L649.4,643z"/>
		</g>
	</g>
	<g id="XMLID_665_">
		<g id="XMLID_606_">
			<g id="XMLID_4467_">
				
					<path id="XMLID_4472_" fill="#FFFFFF" stroke="#1E1D21" stroke-width="8" stroke-linecap="round" stroke-linejoin="round" stroke-miterlimit="10" d="
					M505.6,668.7H292.2c-6.7,0-12.1-5.4-12.1-12.1V339c0-6.7,5.4-12.1,12.1-12.1h213.4c6.7,0,12.1,5.4,12.1,12.1v317.7
					C517.7,663.3,512.3,668.7,505.6,668.7z"/>
				
					<rect id="XMLID_4471_" x="299" y="363.1" fill="none" stroke="#1E1D21" stroke-width="8" stroke-linecap="round" stroke-linejoin="round" stroke-miterlimit="10" width="199.8" height="265.6"/>
				<circle id="XMLID_4470_" fill="#1E1D21" cx="392.3" cy="648.4" r="8.5"/>
				<circle id="XMLID_4469_" fill="#1E1D21" cx="392.3" cy="344.2" r="4.3"/>
			</g>
			<g id="XMLID_4433_">
				<g id="XMLID_127_">
					<path id="XMLID_132_" fill="#C6CACB" d="M331.4,399.8h-7.1c-3.3,0-6-2.7-6-6v-7.1c0-3.3,2.7-6,6-6h7.1c3.3,0,6,2.7,6,6v7.1
						C337.4,397.1,334.7,399.8,331.4,399.8z"/>
					<path id="XMLID_131_" fill="#C6CACB" d="M366.7,399.8h-7.1c-3.3,0-6-2.7-6-6v-7.1c0-3.3,2.7-6,6-6h7.1c3.3,0,6,2.7,6,6v7.1
						C372.7,397.1,370,399.8,366.7,399.8z"/>
					<path id="XMLID_130_" fill="#C6CACB" d="M402,399.8h-7.1c-3.3,0-6-2.7-6-6v-7.1c0-3.3,2.7-6,6-6h7.1c3.3,0,6,2.7,6,6v7.1
						C408,397.1,405.3,399.8,402,399.8z"/>
					<path id="XMLID_129_" fill="#C6CACB" d="M437.3,399.8h-7.1c-3.3,0-6-2.7-6-6v-7.1c0-3.3,2.7-6,6-6h7.1c3.3,0,6,2.7,6,6v7.1
						C443.4,397.1,440.7,399.8,437.3,399.8z"/>
					<path id="XMLID_128_" fill="#C6CACB" d="M472.6,399.8h-7.1c-3.3,0-6-2.7-6-6v-7.1c0-3.3,2.7-6,6-6h7.1c3.3,0,6,2.7,6,6v7.1
						C478.7,397.1,476,399.8,472.6,399.8z"/>
				</g>
				<g id="XMLID_121_">
					<path id="XMLID_126_" fill="#C6CACB" d="M331.4,399.8h-7.1c-3.3,0-6-2.7-6-6v-7.1c0-3.3,2.7-6,6-6h7.1c3.3,0,6,2.7,6,6v7.1
						C337.4,397.1,334.7,399.8,331.4,399.8z"/>
					<path id="XMLID_125_" fill="#C6CACB" d="M366.7,399.8h-7.1c-3.3,0-6-2.7-6-6v-7.1c0-3.3,2.7-6,6-6h7.1c3.3,0,6,2.7,6,6v7.1
						C372.7,397.1,370,399.8,366.7,399.8z"/>
					<path id="XMLID_124_" fill="#C6CACB" d="M402,399.8h-7.1c-3.3,0-6-2.7-6-6v-7.1c0-3.3,2.7-6,6-6h7.1c3.3,0,6,2.7,6,6v7.1
						C408,397.1,405.3,399.8,402,399.8z"/>
					<path id="XMLID_123_" fill="#C6CACB" d="M437.3,399.8h-7.1c-3.3,0-6-2.7-6-6v-7.1c0-3.3,2.7-6,6-6h7.1c3.3,0,6,2.7,6,6v7.1
						C443.4,397.1,440.7,399.8,437.3,399.8z"/>
					<path id="XMLID_122_" fill="#C6CACB" d="M472.6,399.8h-7.1c-3.3,0-6-2.7-6-6v-7.1c0-3.3,2.7-6,6-6h7.1c3.3,0,6,2.7,6,6v7.1
						C478.7,397.1,476,399.8,472.6,399.8z"/>
				</g>
			</g>
			<g id="XMLID_4379_">
				<g id="XMLID_106_">
					<path id="XMLID_120_" fill="#C6CACB" d="M331.4,431.7h-7.1c-3.3,0-6-2.7-6-6v-7.1c0-3.3,2.7-6,6-6h7.1c3.3,0,6,2.7,6,6v7.1
						C337.4,429,334.7,431.7,331.4,431.7z"/>
					<path id="XMLID_119_" fill="#C6CACB" d="M366.7,431.7h-7.1c-3.3,0-6-2.7-6-6v-7.1c0-3.3,2.7-6,6-6h7.1c3.3,0,6,2.7,6,6v7.1
						C372.7,429,370,431.7,366.7,431.7z"/>
					<path id="XMLID_118_" fill="#C6CACB" d="M402,431.7h-7.1c-3.3,0-6-2.7-6-6v-7.1c0-3.3,2.7-6,6-6h7.1c3.3,0,6,2.7,6,6v7.1
						C408,429,405.3,431.7,402,431.7z"/>
					<path id="XMLID_108_" fill="#C6CACB" d="M437.3,431.7h-7.1c-3.3,0-6-2.7-6-6v-7.1c0-3.3,2.7-6,6-6h7.1c3.3,0,6,2.7,6,6v7.1
						C443.4,429,440.7,431.7,437.3,431.7z"/>
					<path id="XMLID_107_" fill="#C6CACB" d="M472.6,431.7h-7.1c-3.3,0-6-2.7-6-6v-7.1c0-3.3,2.7-6,6-6h7.1c3.3,0,6,2.7,6,6v7.1
						C478.7,429,476,431.7,472.6,431.7z"/>
				</g>
				<g id="XMLID_100_">
					<path id="XMLID_105_" fill="#C6CACB" d="M331.4,431.7h-7.1c-3.3,0-6-2.7-6-6v-7.1c0-3.3,2.7-6,6-6h7.1c3.3,0,6,2.7,6,6v7.1
						C337.4,429,334.7,431.7,331.4,431.7z"/>
					<path id="XMLID_104_" fill="#C6CACB" d="M366.7,431.7h-7.1c-3.3,0-6-2.7-6-6v-7.1c0-3.3,2.7-6,6-6h7.1c3.3,0,6,2.7,6,6v7.1
						C372.7,429,370,431.7,366.7,431.7z"/>
					<path id="XMLID_103_" fill="#C6CACB" d="M402,431.7h-7.1c-3.3,0-6-2.7-6-6v-7.1c0-3.3,2.7-6,6-6h7.1c3.3,0,6,2.7,6,6v7.1
						C408,429,405.3,431.7,402,431.7z"/>
					<path id="XMLID_102_" fill="#C6CACB" d="M437.3,431.7h-7.1c-3.3,0-6-2.7-6-6v-7.1c0-3.3,2.7-6,6-6h7.1c3.3,0,6,2.7,6,6v7.1
						C443.4,429,440.7,431.7,437.3,431.7z"/>
					<path id="XMLID_101_" fill="#C6CACB" d="M472.6,431.7h-7.1c-3.3,0-6-2.7-6-6v-7.1c0-3.3,2.7-6,6-6h7.1c3.3,0,6,2.7,6,6v7.1
						C478.7,429,476,431.7,472.6,431.7z"/>
				</g>
			</g>
			<g id="XMLID_4336_">
				<g id="XMLID_94_">
					<path id="XMLID_99_" fill="#C6CACB" d="M331.4,463.7h-7.1c-3.3,0-6-2.7-6-6v-7.1c0-3.3,2.7-6,6-6h7.1c3.3,0,6,2.7,6,6v7.1
						C337.4,461,334.7,463.7,331.4,463.7z"/>
					<path id="XMLID_98_" fill="#C6CACB" d="M366.7,463.7h-7.1c-3.3,0-6-2.7-6-6v-7.1c0-3.3,2.7-6,6-6h7.1c3.3,0,6,2.7,6,6v7.1
						C372.7,461,370,463.7,366.7,463.7z"/>
					<path id="XMLID_97_" fill="#C6CACB" d="M402,463.7h-7.1c-3.3,0-6-2.7-6-6v-7.1c0-3.3,2.7-6,6-6h7.1c3.3,0,6,2.7,6,6v7.1
						C408,461,405.3,463.7,402,463.7z"/>
					<path id="XMLID_96_" fill="#C6CACB" d="M437.3,463.7h-7.1c-3.3,0-6-2.7-6-6v-7.1c0-3.3,2.7-6,6-6h7.1c3.3,0,6,2.7,6,6v7.1
						C443.4,461,440.7,463.7,437.3,463.7z"/>
					<path id="XMLID_95_" fill="#C6CACB" d="M472.6,463.7h-7.1c-3.3,0-6-2.7-6-6v-7.1c0-3.3,2.7-6,6-6h7.1c3.3,0,6,2.7,6,6v7.1
						C478.7,461,476,463.7,472.6,463.7z"/>
				</g>
				<g id="XMLID_88_">
					<path id="XMLID_93_" fill="#C6CACB" d="M331.4,463.7h-7.1c-3.3,0-6-2.7-6-6v-7.1c0-3.3,2.7-6,6-6h7.1c3.3,0,6,2.7,6,6v7.1
						C337.4,461,334.7,463.7,331.4,463.7z"/>
					<path id="XMLID_92_" fill="#C6CACB" d="M366.7,463.7h-7.1c-3.3,0-6-2.7-6-6v-7.1c0-3.3,2.7-6,6-6h7.1c3.3,0,6,2.7,6,6v7.1
						C372.7,461,370,463.7,366.7,463.7z"/>
					<path id="XMLID_91_" fill="#C6CACB" d="M402,463.7h-7.1c-3.3,0-6-2.7-6-6v-7.1c0-3.3,2.7-6,6-6h7.1c3.3,0,6,2.7,6,6v7.1
						C408,461,405.3,463.7,402,463.7z"/>
					<path id="XMLID_90_" fill="#C6CACB" d="M437.3,463.7h-7.1c-3.3,0-6-2.7-6-6v-7.1c0-3.3,2.7-6,6-6h7.1c3.3,0,6,2.7,6,6v7.1
						C443.4,461,440.7,463.7,437.3,463.7z"/>
					<path id="XMLID_89_" fill="#C6CACB" d="M472.6,463.7h-7.1c-3.3,0-6-2.7-6-6v-7.1c0-3.3,2.7-6,6-6h7.1c3.3,0,6,2.7,6,6v7.1
						C478.7,461,476,463.7,472.6,463.7z"/>
				</g>
			</g>
			<g id="XMLID_4105_">
				<g id="XMLID_82_">
					<path id="XMLID_87_" fill="#C6CACB" d="M331.4,495.6h-7.1c-3.3,0-6-2.7-6-6v-7.1c0-3.3,2.7-6,6-6h7.1c3.3,0,6,2.7,6,6v7.1
						C337.4,492.9,334.7,495.6,331.4,495.6z"/>
					<path id="XMLID_86_" fill="#C6CACB" d="M366.7,495.6h-7.1c-3.3,0-6-2.7-6-6v-7.1c0-3.3,2.7-6,6-6h7.1c3.3,0,6,2.7,6,6v7.1
						C372.7,492.9,370,495.6,366.7,495.6z"/>
					<path id="XMLID_85_" fill="#C6CACB" d="M402,495.6h-7.1c-3.3,0-6-2.7-6-6v-7.1c0-3.3,2.7-6,6-6h7.1c3.3,0,6,2.7,6,6v7.1
						C408,492.9,405.3,495.6,402,495.6z"/>
					<path id="XMLID_84_" fill="#C6CACB" d="M437.3,495.6h-7.1c-3.3,0-6-2.7-6-6v-7.1c0-3.3,2.7-6,6-6h7.1c3.3,0,6,2.7,6,6v7.1
						C443.4,492.9,440.7,495.6,437.3,495.6z"/>
					<path id="XMLID_83_" fill="#C6CACB" d="M472.6,495.6h-7.1c-3.3,0-6-2.7-6-6v-7.1c0-3.3,2.7-6,6-6h7.1c3.3,0,6,2.7,6,6v7.1
						C478.7,492.9,476,495.6,472.6,495.6z"/>
				</g>
				<g id="XMLID_76_">
					<path id="XMLID_81_" fill="#C6CACB" d="M331.4,495.6h-7.1c-3.3,0-6-2.7-6-6v-7.1c0-3.3,2.7-6,6-6h7.1c3.3,0,6,2.7,6,6v7.1
						C337.4,492.9,334.7,495.6,331.4,495.6z"/>
					<path id="XMLID_80_" fill="#C6CACB" d="M366.7,495.6h-7.1c-3.3,0-6-2.7-6-6v-7.1c0-3.3,2.7-6,6-6h7.1c3.3,0,6,2.7,6,6v7.1
						C372.7,492.9,370,495.6,366.7,495.6z"/>
					<path id="XMLID_79_" fill="#C6CACB" d="M402,495.6h-7.1c-3.3,0-6-2.7-6-6v-7.1c0-3.3,2.7-6,6-6h7.1c3.3,0,6,2.7,6,6v7.1
						C408,492.9,405.3,495.6,402,495.6z"/>
					<path id="XMLID_78_" fill="#C6CACB" d="M437.3,495.6h-7.1c-3.3,0-6-2.7-6-6v-7.1c0-3.3,2.7-6,6-6h7.1c3.3,0,6,2.7,6,6v7.1
						C443.4,492.9,440.7,495.6,437.3,495.6z"/>
					<path id="XMLID_77_" fill="#C6CACB" d="M472.6,495.6h-7.1c-3.3,0-6-2.7-6-6v-7.1c0-3.3,2.7-6,6-6h7.1c3.3,0,6,2.7,6,6v7.1
						C478.7,492.9,476,495.6,472.6,495.6z"/>
				</g>
			</g>
			<g id="XMLID_4069_">
				<g id="XMLID_70_">
					<path id="XMLID_75_" fill="#C6CACB" d="M331.4,527.6h-7.1c-3.3,0-6-2.7-6-6v-7.1c0-3.3,2.7-6,6-6h7.1c3.3,0,6,2.7,6,6v7.1
						C337.4,524.9,334.7,527.6,331.4,527.6z"/>
					<path id="XMLID_74_" fill="#C6CACB" d="M366.7,527.6h-7.1c-3.3,0-6-2.7-6-6v-7.1c0-3.3,2.7-6,6-6h7.1c3.3,0,6,2.7,6,6v7.1
						C372.7,524.9,370,527.6,366.7,527.6z"/>
					<path id="XMLID_73_" fill="#C6CACB" d="M402,527.6h-7.1c-3.3,0-6-2.7-6-6v-7.1c0-3.3,2.7-6,6-6h7.1c3.3,0,6,2.7,6,6v7.1
						C408,524.9,405.3,527.6,402,527.6z"/>
					<path id="XMLID_72_" fill="#C6CACB" d="M437.3,527.6h-7.1c-3.3,0-6-2.7-6-6v-7.1c0-3.3,2.7-6,6-6h7.1c3.3,0,6,2.7,6,6v7.1
						C443.4,524.9,440.7,527.6,437.3,527.6z"/>
					<path id="XMLID_71_" fill="#C6CACB" d="M472.6,527.6h-7.1c-3.3,0-6-2.7-6-6v-7.1c0-3.3,2.7-6,6-6h7.1c3.3,0,6,2.7,6,6v7.1
						C478.7,524.9,476,527.6,472.6,527.6z"/>
				</g>
				<g id="XMLID_58_">
					<path id="XMLID_69_" fill="#C6CACB" d="M331.4,527.6h-7.1c-3.3,0-6-2.7-6-6v-7.1c0-3.3,2.7-6,6-6h7.1c3.3,0,6,2.7,6,6v7.1
						C337.4,524.9,334.7,527.6,331.4,527.6z"/>
					<path id="XMLID_62_" fill="#C6CACB" d="M366.7,527.6h-7.1c-3.3,0-6-2.7-6-6v-7.1c0-3.3,2.7-6,6-6h7.1c3.3,0,6,2.7,6,6v7.1
						C372.7,524.9,370,527.6,366.7,527.6z"/>
					<path id="XMLID_61_" fill="#C6CACB" d="M402,527.6h-7.1c-3.3,0-6-2.7-6-6v-7.1c0-3.3,2.7-6,6-6h7.1c3.3,0,6,2.7,6,6v7.1
						C408,524.9,405.3,527.6,402,527.6z"/>
					<path id="XMLID_60_" fill="#C6CACB" d="M437.3,527.6h-7.1c-3.3,0-6-2.7-6-6v-7.1c0-3.3,2.7-6,6-6h7.1c3.3,0,6,2.7,6,6v7.1
						C443.4,524.9,440.7,527.6,437.3,527.6z"/>
					<path id="XMLID_59_" fill="#C6CACB" d="M472.6,527.6h-7.1c-3.3,0-6-2.7-6-6v-7.1c0-3.3,2.7-6,6-6h7.1c3.3,0,6,2.7,6,6v7.1
						C478.7,524.9,476,527.6,472.6,527.6z"/>
				</g>
			</g>
			<g id="XMLID_4065_">
				<path id="XMLID_4068_" fill="#C6CACB" d="M366.8,603h-7.1c-3.3,0-6-2.7-6-6v-7.1c0-3.3,2.7-6,6-6h7.1c3.3,0,6,2.7,6,6v7.1
					C372.8,600.3,370.1,603,366.8,603z"/>
				<path id="XMLID_4067_" fill="#C6CACB" d="M437.3,603h-7.1c-3.3,0-6-2.7-6-6v-7.1c0-3.3,2.7-6,6-6h7.1c3.3,0,6,2.7,6,6v7.1
					C443.4,600.3,440.7,603,437.3,603z"/>
				<path id="XMLID_4066_" fill="#C6CACB" d="M402.1,603H395c-3.3,0-6-2.7-6-6v-7.1c0-3.3,2.7-6,6-6h7.1c3.3,0,6,2.7,6,6v7.1
					C408.1,600.3,405.4,603,402.1,603z"/>
			</g>
		</g>
		<g id="XMLID_3996_">
			<path id="XMLID_57_" fill="#1E1D21" d="M369.7,483.8c-1.3,0-2.6-0.6-3.3-1.8L210.9,247.3c-0.8-1.2-0.9-2.7-0.2-4
				c0.7-1.3,1.9-2.1,3.4-2.2l76-3.4l-65.4-174c-0.7-1.9,0.1-4,1.9-5c0.6-0.3,1.2-0.4,1.8-0.4c1.3,0,2.6,0.6,3.3,1.8l155.4,234.7
				c0.8,1.2,0.9,2.7,0.2,4c-0.7,1.3-1.9,2.1-3.4,2.2l-76,3.4l65.4,174c0.7,1.9-0.1,4-1.9,5C370.9,483.7,370.3,483.8,369.7,483.8z"/>
			<path id="XMLID_54_" fill="#FFFFFF" d="M228.4,62.3L383.8,297l-81.5,3.6l67.3,179.2L214.3,245.1l81.5-3.6L228.4,62.3 M228.4,54.3
				c-1.2,0-2.5,0.3-3.6,0.9c-3.6,1.9-5.3,6.1-3.9,9.9L284.4,234l-70.5,3.2c-2.9,0.1-5.5,1.8-6.8,4.4c-1.3,2.6-1.1,5.6,0.5,8
				L363,484.2c1.5,2.3,4.1,3.6,6.7,3.6c1.2,0,2.5-0.3,3.6-0.9c3.6-1.9,5.3-6.1,3.9-9.9l-63.5-168.9l70.5-3.2
				c2.9-0.1,5.5-1.8,6.8-4.4s1.1-5.6-0.5-8L235.1,57.9C233.6,55.6,231,54.3,228.4,54.3L228.4,54.3z"/>
		</g>
	</g>
	<g id="XMLID_7307_">
		<path id="XMLID_7308_" fill="#000004" d="M2742.3,2318.6h11.2v6h0.2c3.5-4.4,8.6-6.6,14.5-6.6c4.5,0,8.3,1.7,11.7,4.3l-8.2,9.7
			c-2.6-2-4.5-2.8-7.4-2.8c-5.5,0-10.9,3.5-10.9,11.7v33.6h-11.2V2318.6z"/>
		<path id="XMLID_7310_" fill="#000004" d="M2788.2,2296.1h11.2v11.2h-11.2V2296.1z M2788.2,2318.6h11.2v55.9h-11.2V2318.6z"/>
		<path id="XMLID_7313_" fill="#000004" d="M2818.7,2357.4c4.8,4.7,10.1,7.2,17.6,7.2c6.4,0,11-2.4,11-7.2c0-4-3-5.2-6.8-5.5
			l-9.9-0.9c-9.3-0.8-16.1-6.3-16.1-15.9c0-11.4,9-17.2,20.8-17.2c9.8,0,16.4,3,21.9,7.6l-6.9,8.2c-4.4-3.1-8.9-5.2-15-5.2
			c-7.2,0-9.6,2.9-9.6,6.7c0,2.4,1.8,4.8,7.4,5.3l9.3,0.7c11.6,0.8,16.2,7.8,16.2,16.8c0,10.9-10.1,17.2-23.1,17.2
			c-9,0-17.4-3.3-24.6-10L2818.7,2357.4z"/>
		<path id="XMLID_7315_" fill="#000004" d="M2872.7,2296.1h11.2v48.8h0.2l21.5-26.2h13.4l-19.3,21.8l21.9,34.1h-14.1l-14.9-26.1
			l-8.8,10v16.1h-11.2V2296.1z"/>
		<path id="XMLID_7317_" fill="#000004" d="M2961.9,2318.6h11.2v33.3c0,7.6,4.7,12,11.1,12c6.3,0,11-4.4,11-12v-33.3h11.2v55.9
			h-11.2v-6h-0.2c-3.5,4.4-8.6,6.6-14.4,6.6c-8.8,0-18.7-6.7-18.7-19.4V2318.6z"/>
		<path id="XMLID_7319_" fill="#000004" d="M3023.8,2318.6h11.2v6h0.2c3.5-4.4,8.6-6.6,14.5-6.6c8.7,0,18.6,6.7,18.6,19.4v37.1
			h-11.2v-33.3c0-7.6-4.7-12-11-12c-6.4,0-11.1,4.4-11.1,12v33.3h-11.2V2318.6z"/>
		<path id="XMLID_7321_" fill="#000004" d="M3119.1,2368.7c-3.5,3.9-8.7,6.5-14.4,6.5c-6.8,0-11.8-3.1-15-7.3c-3.1-4-4-7.6-4-21.4
			c0-13.7,0.9-17.3,4-21.3c3.2-4.2,8.2-7.3,15-7.3c5.7,0,10.2,2.6,14.4,6.6v-28.5h11.2v78.5h-11.2V2368.7z M3097,2346.5
			c0,8.7,0.6,17.4,11.1,17.4c10.5,0,11-9.3,11-17.4c0-8-0.6-17.3-11-17.3C3097.5,2329.2,3097,2337.9,3097,2346.5z"/>
		<path id="XMLID_7324_" fill="#000004" d="M3154.2,2350.8c0,9.1,5.6,13.8,13.3,13.8c4.3,0,8.9-2,12.2-5.4l8.2,6.9
			c-5.5,6.4-12.7,9-20.2,9c-11.5,0-24.8-5.5-24.8-28.4c0-21.7,12.2-28.8,23-28.8c12.3,0,23,9.1,23,23.6v9.3H3154.2z M3177.8,2341.6
			c-0.3-8.5-5.2-13-11.8-13c-6.6,0-11.6,4.5-11.8,13H3177.8z"/>
		<path id="XMLID_7327_" fill="#000004" d="M3203.5,2318.6h11.2v6h0.2c3.5-4.4,8.6-6.6,14.5-6.6c4.5,0,8.3,1.7,11.7,4.3l-8.2,9.7
			c-2.6-2-4.5-2.8-7.4-2.8c-5.5,0-10.9,3.5-10.9,11.7v33.6h-11.2V2318.6z"/>
		<path id="XMLID_7329_" fill="#000004" d="M3319.5,2365.5c-4.8,5.6-11.6,9.7-20.1,9.7c-12.9,0-25.3-8.2-25.3-28.5
			c0-20.5,12.5-28.7,25.3-28.7c8.5,0,15.2,4.1,20.1,9.7l-8.3,7.4c-2.8-3.4-6.7-5.8-11.3-5.8c-9.1,0-14.5,5.2-14.5,17.4
			c0,12.1,5.4,17.3,14.5,17.3c4.6,0,8.6-2.4,11.3-5.8L3319.5,2365.5z"/>
		<path id="XMLID_7331_" fill="#000004" d="M3333.4,2325.2c3.1-3.4,8.3-7.2,17-7.2c8.7,0,13.9,3.7,17,7.2c4.3,4.7,6.1,9.4,6.1,21.4
			c0,12.1-1.8,16.8-6.1,21.5c-3.1,3.4-8.3,7.2-17,7.2c-8.7,0-13.9-3.7-17-7.2c-4.3-4.7-6.1-9.4-6.1-21.5
			C3327.3,2334.5,3329.1,2329.9,3333.4,2325.2z M3359.4,2333.3c-1.7-2.3-5.2-4.1-9-4.1c-3.9,0-7.4,1.8-9,4.1
			c-2.1,3-2.8,5.2-2.8,13.2c0,8.2,0.7,10.4,2.8,13.3c1.7,2.3,5.2,4.1,9,4.1c3.9,0,7.4-1.8,9-4.1c2.1-3,2.8-5.2,2.8-13.2
			C3362.1,2338.5,3361.5,2336.3,3359.4,2333.3z"/>
		<path id="XMLID_7334_" fill="#000004" d="M3387.9,2318.6h11.2v6h0.2c3.5-4.4,8.6-6.6,14.5-6.6c8.7,0,18.6,6.7,18.6,19.4v37.1
			h-11.2v-33.3c0-7.6-4.7-12-11-12c-6.4,0-11.1,4.4-11.1,12v33.3h-11.2V2318.6z"/>
		<path id="XMLID_7336_" fill="#000004" d="M3450.5,2301.7h11.2v17h8.2v8.6h-8.2v32.5c0,3.1,1.2,4.2,4,4.2h4.2v10.6h-5.8
			c-7.8,0-13.6-5-13.6-13.8v-33.5h-5.6v-8.6h5.6V2301.7z"/>
		<path id="XMLID_7338_" fill="#000004" d="M3483.2,2318.6h11.2v6h0.2c3.5-4.4,8.6-6.6,14.5-6.6c4.5,0,8.3,1.7,11.7,4.3l-8.2,9.7
			c-2.6-2-4.5-2.8-7.4-2.8c-5.5,0-10.9,3.5-10.9,11.7v33.6h-11.2V2318.6z"/>
		<path id="XMLID_7340_" fill="#000004" d="M3532.1,2325.2c3.1-3.4,8.3-7.2,17-7.2c8.7,0,13.9,3.7,17,7.2c4.3,4.7,6.1,9.4,6.1,21.4
			c0,12.1-1.8,16.8-6.1,21.5c-3.1,3.4-8.3,7.2-17,7.2c-8.7,0-13.9-3.7-17-7.2c-4.3-4.7-6.1-9.4-6.1-21.5
			C3526.1,2334.5,3527.8,2329.9,3532.1,2325.2z M3558.2,2333.3c-1.7-2.3-5.2-4.1-9-4.1c-3.9,0-7.4,1.8-9,4.1
			c-2.1,3-2.8,5.2-2.8,13.2c0,8.2,0.7,10.4,2.8,13.3c1.7,2.3,5.2,4.1,9,4.1c3.9,0,7.4-1.8,9-4.1c2.1-3,2.8-5.2,2.8-13.2
			C3560.9,2338.5,3560.2,2336.3,3558.2,2333.3z"/>
		<path id="XMLID_7343_" fill="#000004" d="M3586.7,2296.1h11.2v64c0,2.5,1.4,3.9,4.2,3.9h3.9v10.6h-5c-8.2,0-14.3-3.5-14.3-13.6
			V2296.1z"/>
	</g>
	<g id="XMLID_693_">
		
			<circle id="XMLID_3972_" fill="none" stroke="#1E1D21" stroke-width="8" stroke-linecap="round" stroke-linejoin="round" stroke-miterlimit="10" cx="2621.8" cy="2339.6" r="65"/>
		<g id="XMLID_3968_">
			
				<polyline id="XMLID_51_" fill="none" stroke="#FFFFFF" stroke-width="36" stroke-linecap="round" stroke-linejoin="round" stroke-miterlimit="10" points="
				2592.2,2338.5 2623.9,2370.1 2671.6,2274.6 			"/>
			
				<polyline id="XMLID_50_" fill="none" stroke="#1E1D21" stroke-width="12" stroke-linecap="round" stroke-linejoin="round" stroke-miterlimit="10" points="
				2592.2,2338.5 2623.9,2370.1 2671.6,2274.6 			"/>
		</g>
	</g>
	<g id="XMLID_7370_">
		<path id="XMLID_7371_" fill="#000004" d="M2742.3,1722.3h11.2v5.8c3.5-3.9,8.7-6.5,14.4-6.5c6.8,0,11.8,3.1,15,7.3
			c3.1,4,4,7.6,4,21.4c0,13.7-0.9,17.3-4,21.3c-3.2,4.2-8.2,7.3-15,7.3c-5.7,0-10.2-2.6-14.4-6.6v28.5h-11.2V1722.3z M2775.7,1750.3
			c0-8.7-0.6-17.4-11.1-17.4c-10.5,0-11,9.3-11,17.4c0,8,0.6,17.3,11,17.3C2775.1,1767.6,2775.7,1758.9,2775.7,1750.3z"/>
		<path id="XMLID_7374_" fill="#000004" d="M2802.2,1722.3h11.2v6h0.2c3.5-4.4,8.6-6.6,14.5-6.6c4.5,0,8.3,1.7,11.7,4.3l-8.2,9.7
			c-2.6-2-4.5-2.8-7.4-2.8c-5.5,0-10.9,3.5-10.9,11.7v33.6h-11.2V1722.3z"/>
		<path id="XMLID_7376_" fill="#000004" d="M2851.1,1728.8c3.1-3.4,8.3-7.2,17-7.2s13.9,3.7,17,7.2c4.3,4.7,6.1,9.4,6.1,21.4
			c0,12.1-1.8,16.8-6.1,21.5c-3.1,3.4-8.3,7.2-17,7.2s-13.9-3.7-17-7.2c-4.3-4.7-6.1-9.4-6.1-21.5
			C2845.1,1738.2,2846.8,1733.6,2851.1,1728.8z M2877.2,1737c-1.7-2.3-5.2-4.1-9-4.1c-3.9,0-7.4,1.8-9,4.1c-2.1,3-2.8,5.2-2.8,13.2
			c0,8.2,0.7,10.4,2.8,13.3c1.7,2.3,5.2,4.1,9,4.1c3.9,0,7.4-1.8,9-4.1c2.1-3,2.8-5.2,2.8-13.2
			C2879.9,1742.2,2879.2,1740,2877.2,1737z"/>
		<path id="XMLID_7379_" fill="#000004" d="M2939.1,1772.4c-3.5,3.9-8.7,6.5-14.4,6.5c-6.8,0-11.8-3.1-15-7.3c-3.1-4-4-7.6-4-21.4
			c0-13.7,0.9-17.3,4-21.3c3.2-4.2,8.2-7.3,15-7.3c5.7,0,10.2,2.6,14.4,6.6v-28.5h11.2v78.5h-11.2V1772.4z M2916.9,1750.2
			c0,8.7,0.6,17.4,11.1,17.4c10.5,0,11-9.3,11-17.4c0-8-0.6-17.3-11-17.3C2917.5,1732.9,2916.9,1741.6,2916.9,1750.2z"/>
		<path id="XMLID_7382_" fill="#000004" d="M2965.6,1722.3h11.2v33.3c0,7.6,4.7,12,11.1,12c6.3,0,11-4.4,11-12v-33.3h11.2v55.9H2999
			v-6h-0.2c-3.5,4.4-8.6,6.6-14.4,6.6c-8.8,0-18.7-6.7-18.7-19.4V1722.3z"/>
		<path id="XMLID_7384_" fill="#000004" d="M3068.7,1769.2c-4.8,5.6-11.6,9.7-20.1,9.7c-12.9,0-25.3-8.2-25.3-28.5
			c0-20.5,12.5-28.7,25.3-28.7c8.5,0,15.2,4.1,20.1,9.7l-8.3,7.4c-2.8-3.4-6.7-5.8-11.4-5.8c-9.1,0-14.5,5.2-14.5,17.4
			c0,12.1,5.4,17.3,14.5,17.3c4.6,0,8.6-2.4,11.4-5.8L3068.7,1769.2z"/>
		<path id="XMLID_7386_" fill="#000004" d="M3079.9,1705.4h11.2v17h8.2v8.6h-8.2v32.5c0,3.1,1.2,4.2,4,4.2h4.2v10.6h-5.8
			c-7.8,0-13.6-5-13.6-13.8v-33.5h-5.6v-8.6h5.6V1705.4z"/>
		<path id="XMLID_7388_" fill="#000004" d="M3113,1699.7h11.2v11.2H3113V1699.7z M3113,1722.3h11.2v55.9H3113V1722.3z"/>
		<path id="XMLID_7391_" fill="#000004" d="M3133.9,1722.3h11.9l13.1,39.1h0.2l13.1-39.1h11.9l-20.5,55.9h-9.3L3133.9,1722.3z"/>
		<path id="XMLID_7393_" fill="#000004" d="M3193.8,1699.7h11.2v11.2h-11.2V1699.7z M3193.8,1722.3h11.2v55.9h-11.2V1722.3z"/>
		<path id="XMLID_7396_" fill="#000004" d="M3223.4,1705.4h11.2v17h8.2v8.6h-8.2v32.5c0,3.1,1.2,4.2,4,4.2h4.2v10.6h-5.8
			c-7.8,0-13.6-5-13.6-13.8v-33.5h-5.6v-8.6h5.6V1705.4z"/>
		<path id="XMLID_7398_" fill="#000004" d="M3248.1,1722.3h11.9l13.2,39.1h0.2l13.2-39.1h11.9l-24,67.4c-3.1,8.6-8.9,11-15.8,11
			h-3.7v-10.6h3.3c2.9,0,5.6-1.5,6.7-4.8l3.1-9.4L3248.1,1722.3z"/>
	</g>
	<g id="XMLID_690_">
		
			<circle id="XMLID_3975_" fill="none" stroke="#1E1D21" stroke-width="8" stroke-linecap="round" stroke-linejoin="round" stroke-miterlimit="10" cx="2621.8" cy="1750.3" r="65"/>
		<g id="XMLID_3937_">
			<g id="XMLID_41_">
				
					<polyline id="XMLID_46_" fill="none" stroke="#1E1D21" stroke-width="8" stroke-linecap="round" stroke-linejoin="round" stroke-miterlimit="10" points="
					2641.5,1751.4 2641.6,1730.5 2620.6,1730.5 				"/>
				<g id="XMLID_42_">
					
						<line id="XMLID_44_" fill="none" stroke="#FFFFFF" stroke-width="12" stroke-linecap="round" stroke-linejoin="round" stroke-miterlimit="10" x1="2568.2" y1="1803.8" x2="2638.6" y2="1733.5"/>
					
						<line id="XMLID_43_" fill="none" stroke="#1E1D21" stroke-width="4" stroke-linecap="round" stroke-linejoin="round" stroke-miterlimit="10" x1="2568.2" y1="1803.8" x2="2638.6" y2="1733.5"/>
				</g>
			</g>
			<g id="XMLID_35_">
				
					<polyline id="XMLID_40_" fill="none" stroke="#FFFFFF" stroke-width="36" stroke-linecap="round" stroke-linejoin="round" stroke-miterlimit="10" points="
					2641.5,1751.4 2641.6,1730.5 2620.6,1730.5 				"/>
				<g id="XMLID_36_">
					
						<line id="XMLID_39_" fill="none" stroke="#FFFFFF" stroke-width="36" stroke-linecap="round" stroke-linejoin="round" stroke-miterlimit="10" x1="2568.2" y1="1803.8" x2="2638.6" y2="1733.5"/>
					
						<line id="XMLID_38_" fill="none" stroke="#FFFFFF" stroke-width="36" stroke-linecap="round" stroke-linejoin="round" stroke-miterlimit="10" x1="2568.2" y1="1803.8" x2="2638.6" y2="1733.5"/>
					
						<line id="XMLID_37_" fill="none" stroke="#FFFFFF" stroke-width="36" stroke-linecap="round" stroke-linejoin="round" stroke-miterlimit="10" x1="2568.2" y1="1803.8" x2="2638.6" y2="1733.5"/>
				</g>
			</g>
			<g id="XMLID_29_">
				
					<polyline id="XMLID_34_" fill="none" stroke="#1E1D21" stroke-width="12" stroke-linecap="round" stroke-linejoin="round" stroke-miterlimit="10" points="
					2641.5,1751.4 2641.6,1730.5 2620.6,1730.5 				"/>
				<g id="XMLID_30_">
					
						<line id="XMLID_33_" fill="none" stroke="#1E1D21" stroke-width="12" stroke-linecap="round" stroke-linejoin="round" stroke-miterlimit="10" x1="2568.2" y1="1803.8" x2="2638.6" y2="1733.5"/>
					
						<line id="XMLID_32_" fill="none" stroke="#1E1D21" stroke-width="12" stroke-linecap="round" stroke-linejoin="round" stroke-miterlimit="10" x1="2568.2" y1="1803.8" x2="2638.6" y2="1733.5"/>
					
						<line id="XMLID_31_" fill="none" stroke="#1E1D21" stroke-width="12" stroke-linecap="round" stroke-linejoin="round" stroke-miterlimit="10" x1="2568.2" y1="1803.8" x2="2638.6" y2="1733.5"/>
				</g>
			</g>
		</g>
	</g>
	<g id="XMLID_7358_">
		<path id="XMLID_7359_" fill="#000004" d="M2783.4,1970.5c-4.8,5.6-11.6,9.7-20.1,9.7c-12.9,0-25.3-8.2-25.3-28.5
			c0-20.5,12.5-28.7,25.3-28.7c8.5,0,15.2,4.1,20.1,9.7l-8.3,7.4c-2.8-3.4-6.7-5.8-11.4-5.8c-9.1,0-14.5,5.2-14.5,17.4
			c0,12.1,5.4,17.3,14.5,17.3c4.6,0,8.6-2.4,11.4-5.8L2783.4,1970.5z"/>
		<path id="XMLID_7361_" fill="#000004" d="M2797.3,1930.2c3.1-3.4,8.3-7.2,17-7.2s13.9,3.7,17,7.2c4.3,4.7,6.1,9.4,6.1,21.4
			c0,12.1-1.8,16.8-6.1,21.5c-3.1,3.4-8.3,7.2-17,7.2s-13.9-3.7-17-7.2c-4.3-4.7-6.1-9.4-6.1-21.5
			C2791.2,1939.5,2793,1934.9,2797.3,1930.2z M2823.3,1938.3c-1.7-2.3-5.2-4.1-9-4.1c-3.9,0-7.4,1.8-9,4.1c-2.1,3-2.8,5.2-2.8,13.2
			c0,8.2,0.7,10.4,2.8,13.3c1.7,2.3,5.2,4.1,9,4.1c3.9,0,7.4-1.8,9-4.1c2.1-3,2.8-5.2,2.8-13.2
			C2826,1943.5,2825.4,1941.3,2823.3,1938.3z"/>
		<path id="XMLID_7364_" fill="#000004" d="M2853.5,1962.5c4.8,4.7,10.1,7.2,17.6,7.2c6.4,0,11-2.4,11-7.2c0-4-3-5.2-6.8-5.5
			l-9.9-0.9c-9.3-0.8-16.1-6.3-16.1-15.9c0-11.4,9-17.2,20.8-17.2c9.8,0,16.4,3,21.9,7.6l-6.9,8.2c-4.4-3.1-8.9-5.2-15-5.2
			c-7.2,0-9.6,2.9-9.6,6.7c0,2.4,1.8,4.8,7.4,5.3l9.3,0.7c11.6,0.8,16.2,7.8,16.2,16.8c0,10.9-10.1,17.2-23.1,17.2
			c-9,0-17.4-3.3-24.6-10L2853.5,1962.5z"/>
		<path id="XMLID_7366_" fill="#000004" d="M2908.1,1906.7h11.2v17h8.2v8.6h-8.2v32.5c0,3.1,1.2,4.2,4,4.2h4.2v10.6h-5.8
			c-7.8,0-13.6-5-13.6-13.8v-33.5h-5.6v-8.6h5.6V1906.7z"/>
		<path id="XMLID_7368_" fill="#000004" d="M2942.5,1962.5c4.8,4.7,10.1,7.2,17.6,7.2c6.4,0,11-2.4,11-7.2c0-4-3-5.2-6.8-5.5
			l-9.9-0.9c-9.3-0.8-16.1-6.3-16.1-15.9c0-11.4,9-17.2,20.8-17.2c9.8,0,16.4,3,21.9,7.6l-6.9,8.2c-4.4-3.1-8.9-5.2-15-5.2
			c-7.2,0-9.6,2.9-9.6,6.7c0,2.4,1.8,4.8,7.4,5.3l9.3,0.7c11.6,0.8,16.2,7.8,16.2,16.8c0,10.9-10.1,17.2-23.1,17.2
			c-9,0-17.4-3.3-24.6-10L2942.5,1962.5z"/>
	</g>
	<g id="XMLID_691_">
		
			<circle id="XMLID_3974_" fill="none" stroke="#1E1D21" stroke-width="8" stroke-linecap="round" stroke-linejoin="round" stroke-miterlimit="10" cx="2621.8" cy="1943.5" r="65"/>
		<g id="XMLID_3919_">
			<g id="XMLID_24_">
				
					<line id="XMLID_28_" fill="none" stroke="#1E1D21" stroke-width="8" stroke-linecap="round" stroke-linejoin="round" stroke-miterlimit="10" x1="2564.5" y1="1886.2" x2="2638.6" y2="1960.2"/>
				
					<polyline id="XMLID_25_" fill="none" stroke="#1E1D21" stroke-width="8" stroke-linecap="round" stroke-linejoin="round" stroke-miterlimit="10" points="
					2641.5,1942.3 2641.6,1963.2 2620.6,1963.2 				"/>
			</g>
			<g id="XMLID_21_">
				
					<line id="XMLID_23_" fill="none" stroke="#FFFFFF" stroke-width="36" stroke-linecap="round" stroke-linejoin="round" stroke-miterlimit="10" x1="2564.5" y1="1886.2" x2="2638.6" y2="1960.2"/>
				
					<polyline id="XMLID_22_" fill="none" stroke="#FFFFFF" stroke-width="36" stroke-linecap="round" stroke-linejoin="round" stroke-miterlimit="10" points="
					2641.5,1942.3 2641.6,1963.2 2620.6,1963.2 				"/>
			</g>
			<g id="XMLID_17_">
				
					<line id="XMLID_20_" fill="none" stroke="#1E1D21" stroke-width="12" stroke-linecap="round" stroke-linejoin="round" stroke-miterlimit="10" x1="2564.5" y1="1886.2" x2="2638.6" y2="1960.2"/>
				
					<polyline id="XMLID_19_" fill="none" stroke="#1E1D21" stroke-width="12" stroke-linecap="round" stroke-linejoin="round" stroke-miterlimit="10" points="
					2641.5,1942.3 2641.6,1963.2 2620.6,1963.2 				"/>
			</g>
		</g>
	</g>
	<g id="XMLID_7345_">
		<path id="XMLID_7346_" fill="#000004" d="M2744,2133.1h-5.6v-8.6h5.6v-7.4c0-10.5,6.5-15.2,15.2-15.2h7.3v10.6h-6.4
			c-3.6,0-4.8,1.2-4.8,4.6v7.4h11.2v8.6h-11.2v47.3H2744V2133.1z"/>
		<path id="XMLID_7348_" fill="#000004" d="M2775.7,2124.5h11.2v6h0.2c3.5-4.4,8.6-6.6,14.5-6.6c4.5,0,8.3,1.7,11.7,4.3l-8.2,9.7
			c-2.6-2-4.5-2.8-7.4-2.8c-5.5,0-10.9,3.5-10.9,11.7v33.6h-11.2V2124.5z"/>
		<path id="XMLID_7350_" fill="#000004" d="M2850.6,2175.4h-0.2c-2.3,3.9-6.2,5.6-13.8,5.6c-12.5,0-19.7-7.4-19.7-17.1
			c0-8.9,6.2-16.5,18.2-16.5h15.5v-5.8c0-5.3-3.4-7.2-11.5-7.2c-5.8,0-8.6,1.1-10.6,4.3l-8.8-6.7c4.3-6,10.5-8.2,18.8-8.2
			c13.8,0,23.3,4.6,23.3,18.4v38.1h-11.2V2175.4z M2850.6,2156.7h-13.4c-6.6,0-9.7,2.6-9.7,6.7c0,3.7,3,7.1,10.6,7.1
			c9.4,0,12.6-1,12.6-9.7V2156.7z"/>
		<path id="XMLID_7353_" fill="#000004" d="M2879.1,2124.5h11.2v33.3c0,7.6,4.7,12,11.1,12c6.3,0,11-4.4,11-12v-33.3h11.2v55.9
			h-11.2v-6h-0.2c-3.5,4.4-8.6,6.6-14.4,6.6c-8.8,0-18.7-6.7-18.7-19.4V2124.5z"/>
		<path id="XMLID_7355_" fill="#000004" d="M2974.5,2174.5c-3.5,3.9-8.7,6.5-14.4,6.5c-6.8,0-11.8-3.1-15-7.3c-3.1-4-4-7.6-4-21.4
			c0-13.7,0.9-17.3,4-21.3c3.2-4.2,8.2-7.3,15-7.3c5.7,0,10.2,2.6,14.4,6.6v-28.5h11.2v78.5h-11.2V2174.5z M2952.3,2152.4
			c0,8.7,0.6,17.4,11.1,17.4c10.5,0,11-9.3,11-17.4c0-8-0.6-17.3-11-17.3C2952.9,2135.1,2952.3,2143.8,2952.3,2152.4z"/>
	</g>
	<g id="XMLID_692_">
		
			<circle id="XMLID_3973_" fill="none" stroke="#1E1D21" stroke-width="8" stroke-linecap="round" stroke-linejoin="round" stroke-miterlimit="10" cx="2621.8" cy="2141.5" r="65"/>
		<g id="XMLID_3906_">
			<g id="XMLID_13_">
				
					<line id="XMLID_16_" fill="none" stroke="#1E1D21" stroke-width="8" stroke-linecap="round" stroke-linejoin="round" stroke-miterlimit="10" x1="2564.5" y1="2084.2" x2="2638.6" y2="2158.3"/>
				
					<polyline id="XMLID_15_" fill="none" stroke="#1E1D21" stroke-width="8" stroke-linecap="round" stroke-linejoin="round" stroke-miterlimit="10" points="
					2641.5,2140.3 2641.6,2161.2 2620.6,2161.2 				"/>
			</g>
			<g id="XMLID_5_">
				
					<line id="XMLID_12_" fill="none" stroke="#FFFFFF" stroke-width="36" stroke-linecap="round" stroke-linejoin="round" stroke-miterlimit="10" x1="2564.5" y1="2084.2" x2="2638.6" y2="2158.3"/>
				
					<polyline id="XMLID_6_" fill="none" stroke="#FFFFFF" stroke-width="36" stroke-linecap="round" stroke-linejoin="round" stroke-miterlimit="10" points="
					2641.5,2140.3 2641.6,2161.2 2620.6,2161.2 				"/>
			</g>
			<g id="XMLID_2_">
				
					<line id="XMLID_4_" fill="none" stroke="#1E1D21" stroke-width="12" stroke-linecap="round" stroke-linejoin="round" stroke-miterlimit="10" x1="2564.5" y1="2084.2" x2="2638.6" y2="2158.3"/>
				
					<polyline id="XMLID_3_" fill="none" stroke="#1E1D21" stroke-width="12" stroke-linecap="round" stroke-linejoin="round" stroke-miterlimit="10" points="
					2641.5,2140.3 2641.6,2161.2 2620.6,2161.2 				"/>
			</g>
		</g>
	</g>
	
		<line id="XMLID_712_" fill="none" stroke="#1E1D21" stroke-width="8" stroke-linecap="round" stroke-linejoin="round" stroke-miterlimit="10" x1="176" y1="1538.7" x2="3636.1" y2="1538.7"/>
	<g id="XMLID_53_">
		<path id="XMLID_68_" fill="#E0E1E2" d="M2961.3,343.3l-81.2,54.5c-21-31.2-56.6-51.7-97.1-51.7c-6.6,0-13.1,0.5-19.3,1.6
			l-16.2-96.4c11.6-1.9,23.4-2.9,35.5-2.9C2857.4,248.3,2922.8,286,2961.3,343.3z"/>
		<path id="XMLID_67_" fill="#B0B5B7" d="M2763.7,347.6c-30.6,5.1-57.1,22.1-74.8,46l-78.7-57.9c32.4-44,81.2-75.1,137.3-84.5
			L2763.7,347.6z"/>
		
			<path id="XMLID_66_" fill="none" stroke="#1E1D21" stroke-width="8" stroke-linecap="round" stroke-linejoin="round" stroke-miterlimit="10" d="
			M2961.3,343.3l-81.2,54.5c-21-31.2-56.6-51.7-97.1-51.7c-6.6,0-13.1,0.5-19.3,1.6c-30.6,5.1-57.1,22.1-74.8,46l-78.7-57.9
			c32.4-44,81.2-75.1,137.3-84.5c11.6-1.9,23.4-2.9,35.5-2.9C2857.4,248.3,2922.8,286,2961.3,343.3z"/>
		<g id="XMLID_63_">
			<circle id="XMLID_65_" fill="#1E1D21" cx="2783.2" cy="462.8" r="23.4"/>
			<path id="XMLID_64_" fill="#1E1D21" d="M2783.1,462.2L2783.1,462.2c-4.8,0.8-9.3-2.4-10.1-7.2l-39.2-228.3
				c-0.8-4.8,2.4-9.3,7.2-10.1v0c4.8-0.8,9.3,2.4,10.1,7.2l39.2,228.3C2791.1,456.8,2787.9,461.4,2783.1,462.2z"/>
		</g>
	</g>
	<g id="XMLID_26_">
		<path id="XMLID_52_" fill="#E0E1E2" d="M3645.7,343.4l-81.2,54.5c-6.4-9.5-14.1-18-23-25.3l61.9-75.6
			C3619.7,310.3,3633.9,325.9,3645.7,343.4z"/>
		<path id="XMLID_49_" fill="#B0B5B7" d="M3603.4,297l-61.9,75.6c-20.2-16.6-45.9-26.5-74.1-26.5c-38.6,0-72.9,18.7-94.1,47.6
			l-78.7-57.9c39.1-53,101.9-87.4,172.8-87.4C3519.1,248.4,3566.4,266.6,3603.4,297z"/>
		
			<path id="XMLID_48_" fill="none" stroke="#1E1D21" stroke-width="8" stroke-linecap="round" stroke-linejoin="round" stroke-miterlimit="10" d="
			M3645.7,343.4l-81.2,54.5c-6.4-9.5-14.1-18-23-25.3c-20.2-16.6-45.9-26.5-74.1-26.5c-38.6,0-72.9,18.7-94.1,47.6l-78.7-57.9
			c39.1-53,101.9-87.4,172.8-87.4c51.6,0,99,18.2,136,48.6C3619.7,310.3,3633.9,325.9,3645.7,343.4z"/>
		<g id="XMLID_27_">
			<circle id="XMLID_47_" fill="#1E1D21" cx="3467" cy="462.8" r="23.4"/>
			<path id="XMLID_45_" fill="#1E1D21" d="M3467.5,462.3L3467.5,462.3c-3.7-3.1-4.2-8.6-1.1-12.4l148.3-177.9
				c3.1-3.7,8.6-4.2,12.4-1.1l0,0c3.7,3.1,4.2,8.6,1.1,12.4l-148.3,177.9C3476.7,464.9,3471.2,465.4,3467.5,462.3z"/>
		</g>
	</g>
	<g id="XMLID_7_">
		<path id="XMLID_18_" fill="#E0E1E2" d="M3301.5,701.4l-79.4,57c-21.2-29.5-55.8-48.7-94.9-48.7c-19.3,0-37.5,4.7-53.6,13
			l-44.8-86.9c29.5-15.2,62.9-23.8,98.4-23.8C3199.1,612,3262.6,647.3,3301.5,701.4z"/>
		<path id="XMLID_14_" fill="#B0B5B7" d="M3073.7,722.7c-16,8.3-29.9,20.2-40.5,34.6l-5.5-4l-73.2-53.9c19.5-26.5,45-48.3,74.4-63.5
			L3073.7,722.7z"/>
		
			<path id="XMLID_11_" fill="none" stroke="#1E1D21" stroke-width="8" stroke-linecap="round" stroke-linejoin="round" stroke-miterlimit="10" d="
			M3301.5,701.4l-79.4,57c-21.2-29.5-55.8-48.7-94.9-48.7c-19.3,0-37.5,4.7-53.6,13c-16,8.3-29.9,20.2-40.5,34.6l-5.5-4l-73.2-53.9
			c0,0,0,0,0,0c19.5-26.5,45-48.3,74.4-63.5c29.5-15.2,62.9-23.8,98.4-23.8C3199.1,612,3262.6,647.3,3301.5,701.4z"/>
		<g id="XMLID_8_">
			<circle id="XMLID_10_" fill="#1E1D21" cx="3127.5" cy="826.5" r="23.4"/>
			<path id="XMLID_9_" fill="#1E1D21" d="M3127.2,825.9L3127.2,825.9c-4.3,2.2-9.6,0.5-11.8-3.8l-105.7-206.1
				c-2.2-4.3-0.5-9.6,3.8-11.8l0,0c4.3-2.2,9.6-0.5,11.8,3.8L3131,814.1C3133.2,818.4,3131.5,823.7,3127.2,825.9z"/>
		</g>
	</g>
	<g id="XMLID_109_">
		<path id="XMLID_117_" fill="#E0E1E2" d="M1791.8,350.9c0-19.2,15.6-34.8,34.8-34.8v-36.3h0c-5,0-10,0.5-14.7,1.5l-13.5-23.4
			l-38.2,22.1l13.5,23.5c-6.5,7.3-11.6,15.9-14.7,25.5h-27.1V373h27.1c3.1,9.5,8.2,18.2,14.7,25.5l-13.5,23.5l38.2,22.1l13.5-23.4
			c4.7,1,9.7,1.5,14.7,1.5h0v-36.3C1807.4,385.7,1791.8,370.1,1791.8,350.9z"/>
		
			<path id="XMLID_114_" fill="none" stroke="#1E1D21" stroke-width="8" stroke-linecap="round" stroke-linejoin="round" stroke-miterlimit="10" d="
			M1894.2,328.8c-3.1-9.5-8.2-18.2-14.7-25.5l13.5-23.5l-38.2-22.1l-13.5,23.4c-4.7-1-9.7-1.5-14.7-1.5c-5,0-10,0.5-14.7,1.5
			l-13.5-23.4l-38.2,22.1l13.5,23.5c-6.5,7.3-11.6,15.9-14.7,25.5h-27.1V373h27.1c3.1,9.5,8.2,18.2,14.7,25.5l-13.5,23.5l38.2,22.1
			l13.5-23.4c4.7,1,9.7,1.5,14.7,1.5c5,0,10-0.5,14.7-1.5l13.5,23.4l38.2-22.1l-13.5-23.5c6.5-7.3,11.6-15.9,14.7-25.5h27.1v-44.1
			H1894.2z M1826.6,385.7c-19.2,0-34.8-15.6-34.8-34.8s15.6-34.8,34.8-34.8c19.2,0,34.8,15.6,34.8,34.8S1845.8,385.7,1826.6,385.7z"
			/>
		<path id="XMLID_113_" fill="#E0E1E2" d="M1664.9,477.8c0-19.2,15.6-34.8,34.8-34.8v-36.3h0c-5,0-10,0.5-14.7,1.5l-13.5-23.4
			l-38.2,22.1l13.5,23.5c-6.5,7.3-11.6,15.9-14.7,25.5H1605v44.1h27.1c3.1,9.5,8.2,18.2,14.7,25.5l-13.5,23.5l38.2,22.1l13.5-23.4
			c4.7,1,9.7,1.5,14.7,1.5h0v-36.3C1680.4,512.6,1664.9,497.1,1664.9,477.8z"/>
		
			<path id="XMLID_110_" fill="none" stroke="#1E1D21" stroke-width="8" stroke-linecap="round" stroke-linejoin="round" stroke-miterlimit="10" d="
			M1767.3,455.8c-3.1-9.5-8.2-18.2-14.7-25.5l13.5-23.5l-38.2-22.1l-13.5,23.4c-4.7-1-9.7-1.5-14.7-1.5c-5,0-10,0.5-14.7,1.5
			l-13.5-23.4l-38.2,22.1l13.5,23.5c-6.5,7.3-11.6,15.9-14.7,25.5H1605v44.1h27.1c3.1,9.5,8.2,18.2,14.7,25.5l-13.5,23.5l38.2,22.1
			l13.5-23.4c4.7,1,9.7,1.5,14.7,1.5c5,0,10-0.5,14.7-1.5l13.5,23.4l38.2-22.1l-13.5-23.5c6.5-7.3,11.6-15.9,14.7-25.5h27.1v-44.1
			H1767.3z M1699.7,512.6c-19.2,0-34.8-15.6-34.8-34.8c0-19.2,15.6-34.8,34.8-34.8c19.2,0,34.8,15.6,34.8,34.8
			C1734.5,497.1,1718.9,512.6,1699.7,512.6z"/>
	</g>
	
		<rect id="XMLID_5701_" x="1091.6" y="824.3" fill="#C6CACB" stroke="#1E1D21" stroke-width="8" stroke-linecap="round" stroke-linejoin="round" stroke-miterlimit="10" width="169.7" height="40.2"/>
</g>
<g id="Laag_4">
</g>
<g id="nrs">
</g>
</svg>
