<?xml version="1.0" encoding="utf-8"?>
<!-- Generator: Adobe Illustrator 19.0.0, SVG Export Plug-In . SVG Version: 6.00 Build 0)  -->
<svg version="1.1" id="Layer_1" xmlns="http://www.w3.org/2000/svg" xmlns:xlink="http://www.w3.org/1999/xlink" x="0px" y="0px"
	 width="146px" height="27.7px" viewBox="0 0 146 27.7" style="enable-background:new 0 0 146 27.7;" xml:space="preserve">
<style type="text/css">
	.st0{fill:#4DC1B7;}
	.st1{fill:#F2852C;}
	.st2{fill:#434343;}
	.st3{fill:url(#SVGID_1_);}
</style>
<g>
	<path id="XMLID_19_" class="st0" d="M4.2,13.8c0-2.9,2.1-5.4,4.9-5.9V3.7C4,4.3,0,8.6,0,13.8c0,1.5,0.3,2.8,0.9,4.1l3.6-2.3
		C4.3,15,4.2,14.4,4.2,13.8z"/>
	<path id="XMLID_18_" class="st1" d="M16.2,13.8c0,0.6-0.1,1.3-0.3,1.8l3.6,2.3c0.6-1.3,0.9-2.7,0.9-4.2c0-5.2-4-9.6-9.1-10.1v4.2
		C14.1,8.4,16.2,10.9,16.2,13.8z"/>
	<path id="XMLID_17_" class="st0" d="M10.2,19.8c-1.9,0-3.6-0.9-4.7-2.3L2,19.8c1.9,2.5,4.8,4.2,8.2,4.2c3.3,0,6.3-1.6,8.1-4.1
		l-3.5-2.3C13.7,18.9,12,19.8,10.2,19.8z"/>
	<path class="st2" d="M36.8,6.8c-4,0-6.8,2.9-6.8,6.9c0,4.1,2.9,7,6.8,7c2.7,0,5-1.3,6.1-3.5l-2.5-0.9c-0.7,1.1-2,1.8-3.5,1.8
		c-2.1,0-3.7-1.3-4-3.2h10.5l0-0.1c0-0.3,0-0.7,0-1C43.4,9.7,40.7,6.8,36.8,6.8z M32.8,12.6c0.4-1.9,1.9-3.2,3.9-3.2
		c2,0,3.4,1.2,3.8,3.2H32.8z"/>
	<path id="XMLID_14_" class="st2" d="M52.3,20.7c2,0,3.9-0.8,5.2-2.2l0.1-0.1l-2.2-1.8l-0.1,0.1c-0.8,0.8-1.8,1.2-3,1.2
		c-2.4,0-4.2-1.8-4.2-4.2c0-2,1.5-4.1,4.2-4.1c1.1,0,2.2,0.4,3,1.2l0.1,0.1l2.2-1.8L57.5,9c-1.3-1.4-3.1-2.1-5.1-2.1
		c-1.9,0-3.7,0.7-5,1.9c-1.4,1.3-2.1,3.1-2.1,5C45.2,17.7,48.3,20.7,52.3,20.7z"/>
	<rect id="XMLID_13_" x="59.4" class="st2" width="2.9" height="20.5"/>
	<path id="XMLID_12_" class="st2" d="M86.5,20.8c2,0,3.9-0.8,5.2-2.2l0.1-0.1l-2.2-1.8l-0.1,0.1c-0.8,0.8-1.8,1.2-3,1.2
		c-2.4,0-4.2-1.8-4.2-4.2c0-2,1.5-4.1,4.2-4.1c1.1,0,2.2,0.4,3,1.2l0.1,0.1l2.2-1.8L91.6,9c-1.3-1.4-3.1-2.1-5.1-2.1
		c-1.9,0-3.7,0.7-5,1.9c-1.4,1.3-2.1,3.1-2.1,5C79.4,17.8,82.5,20.8,86.5,20.8z"/>
	<polygon id="XMLID_11_" class="st2" points="95.9,20.5 98.8,20.5 98.8,9.6 101.6,9.6 101.6,7.1 98.8,7.1 98.8,2.2 95.9,2.2 
		95.9,7.1 93.6,7.1 93.6,9.6 95.9,9.6 	"/>
	<g>
		<rect id="XMLID_10_" x="103.4" y="7.1" class="st2" width="2.8" height="13.4"/>
		<path id="XMLID_9_" class="st2" d="M104.8,4.3c1.1,0,1.9-0.8,1.9-1.8s-0.8-1.8-1.9-1.8s-1.9,0.8-1.9,1.8S103.7,4.3,104.8,4.3z"/>
	</g>
	<path id="XMLID_8_" class="st2" d="M115.1,20.7c2,0,3.9-0.8,5.2-2.2l0.1-0.1l-2.2-1.8l-0.1,0.1c-0.8,0.8-1.8,1.2-3,1.2
		c-2.4,0-4.2-1.8-4.2-4.2c0-2,1.5-4.1,4.2-4.1c1.1,0,2.2,0.4,3,1.2l0.1,0.1l2.2-1.8L120.3,9c-1.3-1.4-3.1-2.1-5.1-2.1
		c-1.9,0-3.7,0.7-5,1.9c-1.4,1.3-2.1,3.1-2.1,5C108.1,17.7,111.1,20.7,115.1,20.7z"/>
	<rect id="XMLID_7_" x="127.4" y="7.1" class="st2" width="2.8" height="13.4"/>
	<path id="XMLID_6_" class="st2" d="M128.8,4.3c1.1,0,1.9-0.8,1.9-1.8s-0.8-1.8-1.9-1.8c-1.1,0-1.9,0.8-1.9,1.8S127.7,4.3,128.8,4.3
		z"/>
	<path class="st2" d="M70.9,6.8c-4,0-6.8,2.9-6.8,6.9c0,4.1,2.9,7,6.8,7c2.7,0,5-1.3,6.1-3.5l-2.5-0.9c-0.7,1.1-2,1.8-3.5,1.8
		c-2.1,0-3.7-1.3-4-3.2h10.5l0-0.1c0-0.3,0-0.7,0-1C77.6,9.7,74.9,6.8,70.9,6.8z M67,12.6c0.4-1.9,1.9-3.2,3.9-3.2
		c2,0,3.4,1.2,3.8,3.2H67z"/>
	<g>
		<linearGradient id="SVGID_1_" gradientUnits="userSpaceOnUse" x1="132.0484" y1="13.769" x2="146" y2="13.769">
			<stop  offset="0" style="stop-color:#434343"/>
			<stop  offset="0.2547" style="stop-color:#3F3F3F"/>
			<stop  offset="0.4932" style="stop-color:#343434"/>
			<stop  offset="0.7252" style="stop-color:#212121"/>
			<stop  offset="0.952" style="stop-color:#070707"/>
			<stop  offset="1" style="stop-color:#000000"/>
		</linearGradient>
		<path class="st3" d="M139,6.8c-3.8,0-7,3.1-7,7s3.1,7,7,7s7-3.1,7-7S142.9,6.8,139,6.8z M143.4,13.8c0,2.4-1.9,4.3-4.3,4.3
			c-2.4,0-4.3-1.9-4.3-4.3c0-2.4,1.9-4.3,4.3-4.3C141.4,9.4,143.4,11.4,143.4,13.8z"/>
		<path id="XMLID_1_" class="st2" d="M136,10.7c0.8-0.8,1.9-1.3,3.1-1.3c2.4,0,4.3,1.9,4.3,4.3v0v13.9h2.6V13.6h0
			c-0.1-3.8-3.2-6.8-7-6.8c-1.8,0-3.5,0.7-4.8,2l-0.1,0.1l1.8,2L136,10.7z"/>
	</g>
</g>
</svg>
