<?xml version="1.0" encoding="utf-8"?>
<!-- Generator: Adobe Illustrator 19.0.0, SVG Export Plug-In . SVG Version: 6.00 Build 0)  -->
<svg version="1.2" baseProfile="tiny" id="Laag_1" xmlns="http://www.w3.org/2000/svg" xmlns:xlink="http://www.w3.org/1999/xlink"
	 x="0px" y="0px" width="56.7px" height="56.7px" viewBox="0 0 56.7 56.7" xml:space="preserve">
<g id="XMLID_148_">
	<path id="XMLID_146_" fill="#99CC33" d="M29,50.4L15.4,29.2c-2.3-4.7-2.1-10.3,0.5-14.8c2.6-4.5,6.9-7.2,12-7.5
		c0.7-0.1,1.5-0.1,2.2,0c5,0.3,9.4,3.1,12,7.5c2.6,4.6,2.8,10.1,0.5,14.8l-0.1,0.2L29,50.4z"/>
	<path id="XMLID_147_" fill="#FFFFFF" d="M19,27.3L29,43l10-15.7c1.7-3.5,1.5-7.6-0.4-11c-1.9-3.3-5.1-5.3-8.8-5.5
		c-0.6,0-1.1,0-1.7,0c-3.7,0.2-6.9,2.3-8.8,5.5C17.4,19.7,17.3,23.8,19,27.3z"/>
</g>
<circle id="XMLID_3191_" fill="#92C83E" cx="29" cy="22" r="6.5"/>
</svg>
