<?xml version="1.0" encoding="utf-8"?>
<!-- Generator: Adobe Illustrator 19.0.0, SVG Export Plug-In . SVG Version: 6.00 Build 0)  -->
<svg version="1.2" baseProfile="tiny" id="Laag_1" xmlns="http://www.w3.org/2000/svg" xmlns:xlink="http://www.w3.org/1999/xlink"
	 x="0px" y="0px" width="62.4px" height="56.7px" viewBox="0 0 62.4 56.7" xml:space="preserve">
<path id="XMLID_1163_" fill="#99CC33" d="M8.8,26.6c-2.2-5.6-3.6-11.7-4-18c17.2-8.3,35.7-8.3,52.9,0c-0.5,6.4-1.8,12.4-4,18
	c-2.5-3.1-5.7-5.7-9.2-7.5l1.7-4.5c0.4-1-0.1-2.2-1.2-2.6c-1-0.4-2.2,0.1-2.6,1.2l-1.6,4.3c-3-1-6.2-1.6-9.5-1.6
	c-3.3,0-6.5,0.6-9.5,1.6l-1.6-4.3c-0.4-1-1.6-1.6-2.6-1.2c-1,0.4-1.6,1.6-1.2,2.6l1.7,4.5C14.4,20.9,11.3,23.5,8.8,26.6 M31.2,54.3
	c-1.1-0.7-3.5-2.3-4.5-3.1l1.7-16.1l-4.1,11.6l-2.9-0.3l-5.9-13.2l-5.1-3.2c1.9-1.1,4-2.1,6.4-2.8c0.7-1.9,2.4-4.8,6.2-6.6l0.2,2.9
	c1.7-1.9,4.1-3.4,7-4.7l-0.3,2.9c2.3-1.1,4.9-1.9,8.1-1.8l-0.9,2.1c2.8,0,5.3,0.1,8.3,1.3l-1.4,1.6c2.6,0.8,4.3,1.8,6.8,4.2
	l-2.6,1.1c1,0.8,1.8,1.8,2.6,2.8C46,41.5,38.8,49.2,31.2,54.3 M19,34.7l1.4,3.1l0.5-4.2L19,34.7z"/>
</svg>
