<?xml version="1.0" encoding="utf-8"?>
<!-- Generator: Adobe Illustrator 19.0.0, SVG Export Plug-In . SVG Version: 6.00 Build 0)  -->
<svg version="1.2" baseProfile="tiny" id="Laag_1" xmlns="http://www.w3.org/2000/svg" xmlns:xlink="http://www.w3.org/1999/xlink"
	 x="0px" y="0px" width="62.4px" height="56.7px" viewBox="0 0 62.4 56.7" xml:space="preserve">
<g id="XMLID_84_">
	<circle id="XMLID_98_" fill="#99CC33" cx="43.9" cy="34.2" r="1.8"/>
	<circle id="XMLID_97_" fill="#99CC33" cx="24.6" cy="23.8" r="1.8"/>
	<g id="XMLID_86_">
		<path id="XMLID_96_" fill="#99CC33" d="M40.6,32.9h-1.8l-4.8,0l-6,10.4c1.1,1.1,1.4,2.9,0.6,4.4c-0.8,1.5-2.5,2.1-4.1,1.7l-2.9,5
			h9.5l10.2-17.6c-0.6-0.7-1-1.5-1-2.5C40.3,33.7,40.4,33.3,40.6,32.9z"/>
		<path id="XMLID_95_" fill="#99CC33" d="M52.8,32.9h-3.9h-1.5c0.2,0.4,0.3,0.9,0.3,1.3c0,2-1.6,3.6-3.6,3.6c0,0,0,0,0,0l-9.5,16.5
			h9.5L54.6,36L52.8,32.9z"/>
		<polygon id="XMLID_94_" fill="#99CC33" points="56.2,38.8 47.2,54.3 56.8,54.3 61,47.1 		"/>
		<path id="XMLID_93_" fill="#99CC33" d="M26.5,26.9c-0.4,0.2-0.8,0.4-1.2,0.4l3.2,5.5l10.2,0h1.8c0.5-1.3,1.8-2.3,3.4-2.3
			s2.8,1,3.4,2.3h1.5h3.9L48,24.6l-19.8,0C28,25.5,27.4,26.4,26.5,26.9z"/>
		<path id="XMLID_92_" fill="#99CC33" d="M22.8,20.6c1.7-1,3.8-0.4,4.9,1.1l18.7,0l-4.8-8.3l-20.9,0l-1.7,3l2.9,5
			C22.1,21.1,22.5,20.8,22.8,20.6z"/>
		<polygon id="XMLID_91_" fill="#99CC33" points="35.1,2.3 27.1,2.3 22.4,10.6 39.9,10.6 		"/>
		<path id="XMLID_90_" fill="#99CC33" d="M27.2,42.7c0.3,0.2,0.5,0.4,0.8,0.6l3.3-5.7l-2.7-4.7l-3.2-5.5c-1.5,0.3-3-0.4-3.8-1.8
			c-0.8-1.4-0.6-3,0.4-4.2l-2.9-5l-4.8,8.3l10.2,17.6C25.3,42.1,26.3,42.2,27.2,42.7z"/>
		<path id="XMLID_89_" fill="#99CC33" d="M23.5,49c-1.7-1-2.3-3.1-1.4-4.9l-9.6-16.6l-4.8,8.3l10.7,18.5h3l2.9-5
			C24.1,49.3,23.8,49.2,23.5,49z"/>
		<polygon id="XMLID_88_" fill="#99CC33" points="24.4,49.3 21.5,54.3 24.4,49.3 		"/>
		<polygon id="XMLID_87_" fill="#99CC33" points="1.4,47 5.6,54.3 15.2,54.3 6.2,38.7 		"/>
	</g>
	<circle id="XMLID_85_" fill="#99CC33" cx="25.4" cy="45.8" r="1.8"/>
</g>
</svg>
