<?xml version="1.0" encoding="utf-8"?>
<!-- Generator: Adobe Illustrator 19.0.0, SVG Export Plug-In . SVG Version: 6.00 Build 0)  -->
<svg version="1.2" baseProfile="tiny" xmlns="http://www.w3.org/2000/svg" xmlns:xlink="http://www.w3.org/1999/xlink" x="0px"
	 y="0px" width="3812.2px" height="2477.1px" viewBox="0 0 3812.2 2477.1" xml:space="preserve">
<g id="Laag_1">
	<path id="XMLID_40_" fill="#E0E1E2" d="M267.8,656v-89.8c0-79.6,56.3-146,131.2-161.7c-11-2.3-22.4-3.5-34.1-3.5h0
		c-91.3,0-165.2,74-165.2,165.2V656c0,91.3,74,165.2,165.2,165.2h0c11.7,0,23.1-1.2,34.1-3.5C324.1,802.1,267.8,735.6,267.8,656z"/>
	<g id="XMLID_7771_">
		<path id="XMLID_7772_" fill="#000004" d="M1551.3,1210.8c3.7-6.8,12.2-14.1,24.6-14.1s20.8,7.3,24.6,14.1
			c2.5,4.6,3.4,6.9,3.4,25.8c0,18.8-0.9,21.2-3.4,25.8c-3.7,6.8-12.2,14.1-24.6,14.1s-20.8-7.3-24.6-14.1c-2.5-4.6-3.4-6.9-3.4-25.8
			C1547.9,1217.7,1548.8,1215.4,1551.3,1210.8z M1563.8,1258.8c2.4,3.1,6.5,5.7,12.1,5.7s9.7-2.6,12.1-5.7c3.1-4,4-6.2,4-22.3
			c0-16.1-0.9-18.3-4-22.3c-2.4-3.1-6.5-5.7-12.1-5.7s-9.7,2.6-12.1,5.7c-3.1,4-4,6.2-4,22.3
			C1559.8,1252.7,1560.7,1254.9,1563.8,1258.8z"/>
		<path id="XMLID_7775_" fill="#000004" d="M1619.5,1219.9h11.2v6h0.2c3.5-4.4,8.6-6.6,14.5-6.6c8.7,0,18.6,6.7,18.6,19.4v37.1
			h-11.2v-33.3c0-7.6-4.7-12-11-12c-6.4,0-11.1,4.4-11.1,12v33.3h-11.2V1219.9z"/>
		<path id="XMLID_7777_" fill="#000004" d="M1681.4,1197.3h11.2v64c0,2.5,1.4,3.9,4.2,3.9h3.9v10.6h-5c-8.2,0-14.3-3.5-14.3-13.6
			V1197.3z"/>
		<path id="XMLID_7779_" fill="#000004" d="M1713,1197.3h11.2v11.2H1713V1197.3z M1713,1219.9h11.2v55.9H1713V1219.9z"/>
		<path id="XMLID_7782_" fill="#000004" d="M1741.8,1219.9h11.2v6h0.2c3.5-4.4,8.6-6.6,14.5-6.6c8.7,0,18.6,6.7,18.6,19.4v37.1
			h-11.2v-33.3c0-7.6-4.7-12-11-12c-6.4,0-11.1,4.4-11.1,12v33.3h-11.2V1219.9z"/>
		<path id="XMLID_7784_" fill="#000004" d="M1812.2,1252.1c0,9.1,5.6,13.8,13.3,13.8c4.3,0,8.9-2,12.2-5.4l8.2,6.9
			c-5.5,6.4-12.7,9-20.2,9c-11.5,0-24.8-5.5-24.8-28.4c0-21.7,12.2-28.8,23-28.8c12.3,0,23,9.1,23,23.6v9.3H1812.2z M1835.8,1242.8
			c-0.3-8.5-5.2-13-11.8-13s-11.6,4.5-11.8,13H1835.8z"/>
		<path id="XMLID_7787_" fill="#000004" d="M1890.8,1197.3h11.2v28.5c4.2-4,8.7-6.6,14.4-6.6c6.8,0,11.8,3.1,15,7.3
			c3.1,4,4,7.6,4,21.3c0,13.8-0.9,17.4-4,21.4c-3.2,4.2-8.2,7.3-15,7.3c-5.7,0-10.9-2.6-14.4-6.5v5.8h-11.2V1197.3z M1902.1,1247.8
			c0,8.2,0.6,17.4,11,17.4c10.6,0,11.1-8.7,11.1-17.4c0-8.6-0.6-17.3-11.1-17.3C1902.6,1230.5,1902.1,1239.8,1902.1,1247.8z"/>
		<path id="XMLID_7790_" fill="#000004" d="M1980.1,1270.8h-0.2c-2.3,3.9-6.2,5.6-13.8,5.6c-12.5,0-19.7-7.4-19.7-17.1
			c0-8.9,6.2-16.5,18.2-16.5h15.5v-5.8c0-5.3-3.4-7.2-11.5-7.2c-5.8,0-8.6,1.1-10.6,4.3l-8.8-6.7c4.3-6,10.5-8.2,18.8-8.2
			c13.8,0,23.3,4.6,23.3,18.4v38.1h-11.2V1270.8z M1980.1,1252.1h-13.4c-6.6,0-9.7,2.6-9.7,6.7c0,3.7,3,7.1,10.6,7.1
			c9.4,0,12.6-1,12.6-9.7V1252.1z"/>
		<path id="XMLID_7793_" fill="#000004" d="M2008.6,1219.9h11.2v6h0.2c3.5-4.4,8.6-6.6,14.5-6.6c8.7,0,18.6,6.7,18.6,19.4v37.1H2042
			v-33.3c0-7.6-4.7-12-11-12c-6.4,0-11.1,4.4-11.1,12v33.3h-11.2V1219.9z"/>
		<path id="XMLID_7795_" fill="#000004" d="M2070.5,1197.3h11.2v48.8h0.2l21.5-26.2h13.4l-19.3,21.8l21.9,34.1h-14.1l-14.9-26.1
			l-8.8,10v16.1h-11.2V1197.3z"/>
		<path id="XMLID_7797_" fill="#000004" d="M2130.8,1197.3h11.2v11.2h-11.2V1197.3z M2130.8,1219.9h11.2v55.9h-11.2V1219.9z"/>
		<path id="XMLID_7800_" fill="#000004" d="M2159.7,1219.9h11.2v6h0.2c3.5-4.4,8.6-6.6,14.5-6.6c8.7,0,18.6,6.7,18.6,19.4v37.1
			h-11.2v-33.3c0-7.6-4.7-12-11-12c-6.4,0-11.1,4.4-11.1,12v33.3h-11.2V1219.9z"/>
		<path id="XMLID_7802_" fill="#000004" d="M2253,1270c-3.5,3.9-8.7,6.5-14.4,6.5c-7.3,0-12.2-3.6-14.8-6.8
			c-3.2-4.2-4.2-6.3-4.2-21.7c0-15.5,1-17.6,4.2-21.8c2.5-3.2,7.5-6.8,14.8-6.8c5.7,0,10.2,2.2,14.4,6.6v-6h11.2v54.5
			c0,16.9-11.5,24.6-24.2,24.6c-7.2,0-14.4-3.7-19.4-9.4l8.7-6.9c2.8,2.8,6.6,5.1,10.9,5.1c7.5,0,12.8-4.3,12.8-12.1V1270z
			 M2233.1,1260.9c1.5,2,4.4,4.3,8.9,4.3c4.4,0,7.3-2.3,8.8-4.3c2-2.5,2.2-4.1,2.2-13c0-9-0.2-10.6-2.2-13.1c-1.5-2-4.4-4.3-8.8-4.3
			c-4.5,0-7.4,2.3-8.9,4.3c-2,2.5-2.2,4.1-2.2,13.1C2230.9,1256.8,2231.1,1258.4,2233.1,1260.9z"/>
	</g>
	<g id="XMLID_7742_">
		<path id="XMLID_7743_" fill="#000004" d="M1610.4,2297.9h30.4c15.3,0,23.3,8.7,23.3,21c0,6.5-2.4,12.8-11.6,16.9v0.2
			c8.6,2,12.8,10.1,12.8,18.1c0,13.6-10,22.3-21.8,22.3h-33.1V2297.9z M1622.3,2308.5v22.5h17.2c8.6,0,12.7-5.1,12.7-11.2
			c0-6.1-4.1-11.2-12.7-11.2H1622.3z M1622.3,2341.5v23.6h18.3c8.8,0,12.8-5.6,12.8-11.8c0-6.2-4-11.8-12.8-11.8H1622.3z"/>
		<path id="XMLID_7747_" fill="#000004" d="M1708.7,2371.4h-0.2c-2.3,3.9-6.2,5.6-13.8,5.6c-12.5,0-19.7-7.4-19.7-17.1
			c0-8.9,6.2-16.5,18.2-16.5h15.5v-5.8c0-5.3-3.4-7.2-11.5-7.2c-5.8,0-8.6,1.1-10.6,4.3l-8.8-6.7c4.3-6,10.5-8.2,18.8-8.2
			c13.8,0,23.3,4.6,23.3,18.4v38.1h-11.2V2371.4z M1708.7,2352.7h-13.4c-6.6,0-9.7,2.6-9.7,6.7c0,3.7,3,7.1,10.6,7.1
			c9.4,0,12.6-1,12.6-9.7V2352.7z"/>
		<path id="XMLID_7750_" fill="#000004" d="M1737.2,2320.5h11.2v6h0.2c3.5-4.4,8.6-6.6,14.5-6.6c8.7,0,18.6,6.7,18.6,19.4v37.1
			h-11.2v-33.3c0-7.6-4.7-12-11-12c-6.4,0-11.1,4.4-11.1,12v33.3h-11.2V2320.5z"/>
		<path id="XMLID_7752_" fill="#000004" d="M1799.1,2297.9h11.2v48.8h0.2l21.5-26.2h13.4l-19.3,21.8l21.9,34.1h-14.1l-14.9-26.1
			l-8.8,10v16.1h-11.2V2297.9z"/>
		<path id="XMLID_7754_" fill="#000004" d="M1859.4,2297.9h11.2v11.2h-11.2V2297.9z M1859.4,2320.5h11.2v55.9h-11.2V2320.5z"/>
		<path id="XMLID_7757_" fill="#000004" d="M1888.3,2320.5h11.2v6h0.2c3.5-4.4,8.6-6.6,14.5-6.6c8.7,0,18.6,6.7,18.6,19.4v37.1
			h-11.2v-33.3c0-7.6-4.7-12-11-12c-6.4,0-11.1,4.4-11.1,12v33.3h-11.2V2320.5z"/>
		<path id="XMLID_7759_" fill="#000004" d="M1981.6,2370.5c-3.5,3.9-8.7,6.5-14.4,6.5c-7.3,0-12.2-3.6-14.8-6.8
			c-3.2-4.2-4.2-6.3-4.2-21.7c0-15.5,1-17.6,4.2-21.8c2.5-3.2,7.5-6.8,14.8-6.8c5.7,0,10.2,2.2,14.4,6.6v-6h11.2v54.5
			c0,16.9-11.5,24.6-24.2,24.6c-7.2,0-14.4-3.7-19.4-9.4l8.7-6.9c2.8,2.8,6.6,5.1,10.9,5.1c7.5,0,12.8-4.3,12.8-12.1V2370.5z
			 M1961.7,2361.5c1.5,2,4.4,4.3,8.9,4.3c4.4,0,7.3-2.3,8.8-4.3c2-2.5,2.2-4.1,2.2-13c0-9-0.2-10.6-2.2-13.1c-1.5-2-4.4-4.3-8.8-4.3
			c-4.5,0-7.4,2.3-8.9,4.3c-2,2.5-2.2,4.1-2.2,13.1C1959.5,2357.4,1959.7,2358.9,1961.7,2361.5z"/>
		<path id="XMLID_7762_" fill="#000004" d="M2068.7,2371.4h-0.2c-2.3,3.9-6.2,5.6-13.8,5.6c-12.5,0-19.7-7.4-19.7-17.1
			c0-8.9,6.2-16.5,18.2-16.5h15.5v-5.8c0-5.3-3.4-7.2-11.5-7.2c-5.8,0-8.6,1.1-10.6,4.3l-8.8-6.7c4.3-6,10.5-8.2,18.8-8.2
			c13.8,0,23.3,4.6,23.3,18.4v38.1h-11.2V2371.4z M2068.7,2352.7h-13.4c-6.6,0-9.7,2.6-9.7,6.7c0,3.7,3,7.1,10.6,7.1
			c9.4,0,12.6-1,12.6-9.7V2352.7z"/>
		<path id="XMLID_7765_" fill="#000004" d="M2097.2,2320.5h11.2v5.8c3.5-3.9,8.7-6.5,14.4-6.5c6.8,0,11.8,3.1,15,7.3
			c3.1,4,4,7.6,4,21.4c0,13.7-0.9,17.3-4,21.3c-3.2,4.2-8.2,7.3-15,7.3c-5.7,0-10.2-2.6-14.4-6.6v28.5h-11.2V2320.5z M2130.6,2348.5
			c0-8.7-0.6-17.4-11.1-17.4c-10.5,0-11,9.3-11,17.4c0,8,0.6,17.3,11,17.3C2130,2365.8,2130.6,2357.1,2130.6,2348.5z"/>
		<path id="XMLID_7768_" fill="#000004" d="M2157.2,2320.5h11.2v5.8c3.5-3.9,8.7-6.5,14.4-6.5c6.8,0,11.8,3.1,15,7.3
			c3.1,4,4,7.6,4,21.4c0,13.7-0.9,17.3-4,21.3c-3.2,4.2-8.2,7.3-15,7.3c-5.7,0-10.2-2.6-14.4-6.6v28.5h-11.2V2320.5z M2190.5,2348.5
			c0-8.7-0.6-17.4-11.1-17.4c-10.5,0-11,9.3-11,17.4c0,8,0.6,17.3,11,17.3C2190,2365.8,2190.5,2357.1,2190.5,2348.5z"/>
	</g>
	<g id="XMLID_3214_">
		<path id="XMLID_3225_" fill="#1E1D21" d="M2098.4,990.7h-399.8V759.6c0-9.8,7.9-17.7,17.7-17.7h364.5c9.8,0,17.7,7.9,17.7,17.7
			V990.7z"/>
		<rect id="XMLID_3224_" x="1720.5" y="763.8" fill="#FFFFFF" width="356.1" height="226.2"/>
		<path id="XMLID_3223_" fill="#1E1D21" d="M2098.4,990.7h-399.8l-60.3,147.6c-4.5,10.8,3.5,22.7,15.2,22.7h114.9h260.4h114.9
			c11.7,0,19.6-11.9,15.2-22.7L2098.4,990.7z"/>
		<polygon id="XMLID_3222_" fill="#FFFFFF" points="2076.5,1006.4 1720.5,1006.4 1692.5,1074 1954.2,1074 2058.9,1074 2104.6,1074 
					"/>
		<polygon id="XMLID_3221_" fill="#FFFFFF" points="1943,1090.4 1854.1,1090.4 1841,1122 1956,1122 		"/>
		<g id="XMLID_3218_">
			<polygon id="XMLID_3220_" fill="#C6CACB" points="2076.5,924.1 2076.5,763.8 1737,763.8 			"/>
			<polygon id="XMLID_3219_" fill="#C6CACB" points="1720.5,878.6 1720.5,990 1942.6,990.7 			"/>
		</g>
		<polygon id="XMLID_3217_" fill="#1E1D21" points="2065.6,1138.4 2043.4,1138.4 1982.2,990.7 2004.4,990.7 		"/>
		
			<line id="XMLID_3216_" fill="none" stroke="#FFFFFF" stroke-width="8" stroke-linecap="round" stroke-linejoin="round" stroke-miterlimit="10" x1="1656" y1="1143.5" x2="2141" y2="1143.5"/>
		<rect id="XMLID_3215_" x="2009.3" y="1024.5" fill="#1E1D21" width="92.2" height="15.7"/>
	</g>
	<g id="XMLID_6_">
		<g id="XMLID_884_">
			
				<path id="XMLID_291_" fill="#FFFFFF" stroke="#1E1D21" stroke-width="8" stroke-linecap="round" stroke-linejoin="round" stroke-miterlimit="10" d="
				M195.5,579h3.7v63.2h-3.7c-17.5,0-31.6-14.2-31.6-31.6c0-8.7,3.5-16.6,9.3-22.3C178.9,582.5,186.8,579,195.5,579z"/>
			
				<path id="XMLID_292_" fill="#FFFFFF" stroke="#1E1D21" stroke-width="8" stroke-linecap="round" stroke-linejoin="round" stroke-miterlimit="10" d="
				M563.2,610.6c0,8.7-3.5,16.6-9.3,22.3c-5.7,5.7-13.6,9.3-22.3,9.3h-1.9V579h1.9C549.1,579,563.2,593.1,563.2,610.6z"/>
			
				<path id="XMLID_295_" fill="none" stroke="#1E1D21" stroke-width="8" stroke-linecap="round" stroke-linejoin="round" stroke-miterlimit="10" d="
				M529.7,566.2V656c0,91.3-74,165.2-165.2,165.2c-91.3,0-165.2-74-165.2-165.2v-89.8c0-91.3,74-165.2,165.2-165.2
				c45.6,0,86.9,18.5,116.8,48.4C511.2,479.3,529.7,520.6,529.7,566.2z"/>
			
				<ellipse id="XMLID_887_" transform="matrix(-0.9998 1.927930e-002 -1.927930e-002 -0.9998 610.1158 1185.3557)" fill="#1E1D21" cx="299.3" cy="595.6" rx="11.9" ry="11.2"/>
			
				<ellipse id="XMLID_19_" transform="matrix(-0.9998 1.927930e-002 -1.927930e-002 -0.9998 866.9463 1182.8798)" fill="#1E1D21" cx="427.8" cy="595.6" rx="11.9" ry="11.2"/>
			
				<line id="XMLID_885_" fill="#FFFFFF" stroke="#1E1D21" stroke-width="8" stroke-linecap="round" stroke-linejoin="round" stroke-miterlimit="10" x1="335.3" y1="681" x2="393.7" y2="681"/>
		</g>
	</g>
	<text transform="matrix(1 0 0 1 3258.2322 949.2751)" font-family="'DINMittelschrift'" font-size="110px">B</text>
	<text transform="matrix(1 0 0 1 3327.5305 949.2751)" font-family="'DINMittelschrift'" font-size="110px">a</text>
	<text transform="matrix(1 0 0 1 3384.7305 949.2751)" font-family="'DINMittelschrift'" font-size="110px">n</text>
	<text transform="matrix(1 0 0 1 3445.999 949.2751)" font-family="'DINMittelschrift'" font-size="110px">k</text>
	<text transform="matrix(1 0 0 1 3505.2888 949.2751)" font-family="'DINMittelschrift'" font-size="110px">i</text>
	<text transform="matrix(1 0 0 1 3533.8877 949.2751)" font-family="'DINMittelschrift'" font-size="110px">n</text>
	<text transform="matrix(1 0 0 1 3595.1563 949.2751)" font-family="'DINMittelschrift'" font-size="110px">g</text>
	<text transform="matrix(1 0 0 1 3654.446 949.2751)" font-family="'DINMittelschrift'" font-size="110px"> </text>
	<text transform="matrix(1 0 0 1 3329.6194 1081.2751)" font-family="'DINMittelschrift'" font-size="110px">p</text>
	<text transform="matrix(1 0 0 1 3388.9089 1081.2751)" font-family="'DINMittelschrift'" font-size="110px">o</text>
	<text transform="matrix(1 0 0 1 3446.1091 1081.2751)" font-family="'DINMittelschrift'" font-size="110px">r</text>
	<text transform="matrix(1 0 0 1 3491.0981 1081.2751)" font-family="'DINMittelschrift'" font-size="110px">t</text>
	<text transform="matrix(1 0 0 1 3523.8782 1081.2751)" font-family="'DINMittelschrift'" font-size="110px">a</text>
	<text transform="matrix(1 0 0 1 3581.0781 1081.2751)" font-family="'DINMittelschrift'" font-size="110px">l</text>
	<text transform="matrix(1 0 0 1 226.665 949.2751)" font-family="'DINMittelschrift'" font-size="110px">C</text>
	<text transform="matrix(1 0 0 1 290.025 949.2751)" font-family="'DINMittelschrift'" font-size="110px">l</text>
	<text transform="matrix(1 0 0 1 320.6046 949.2751)" font-family="'DINMittelschrift'" font-size="110px">i</text>
	<text transform="matrix(1 0 0 1 349.2035 949.2751)" font-family="'DINMittelschrift'" font-size="110px">e</text>
	<text transform="matrix(1 0 0 1 406.4035 949.2751)" font-family="'DINMittelschrift'" font-size="110px">n</text>
	<text transform="matrix(1 0 0 1 467.6721 949.2751)" font-family="'DINMittelschrift'" font-size="110px">t</text>
	<g id="XMLID_3485_">
		<g id="XMLID_3610_">
			
				<path id="XMLID_3614_" fill="#FFFFFF" stroke="#1E1D21" stroke-width="8" stroke-linecap="round" stroke-linejoin="round" stroke-miterlimit="10" d="
				M2027.1,2219.1h-259.9c-6.8,0-12.3-5.5-12.3-12.3V1822c0-6.8,5.5-12.3,12.3-12.3h259.9c6.8,0,12.3,5.5,12.3,12.3v384.8
				C2039.4,2213.5,2033.9,2219.1,2027.1,2219.1z"/>
			
				<rect id="XMLID_3613_" x="1777.5" y="1852.9" fill="none" stroke="#1E1D21" stroke-width="8" stroke-linecap="round" stroke-linejoin="round" stroke-miterlimit="10" width="239.3" height="318.2"/>
			<circle id="XMLID_3612_" fill="#1E1D21" cx="1889.2" cy="2194.7" r="10.2"/>
			<circle id="XMLID_3611_" fill="#1E1D21" cx="1889.2" cy="1830.3" r="5.1"/>
		</g>
		<g id="XMLID_3586_">
			<g id="XMLID_93_">
				<path id="XMLID_98_" fill="#C6CACB" d="M1817.3,1896.9h-10.6c-3.4,0-6.2-2.8-6.2-6.2v-10.6c0-3.4,2.8-6.2,6.2-6.2h10.6
					c3.4,0,6.2,2.8,6.2,6.2v10.6C1823.4,1894.1,1820.7,1896.9,1817.3,1896.9z"/>
				<path id="XMLID_97_" fill="#C6CACB" d="M1859.6,1896.9H1849c-3.4,0-6.2-2.8-6.2-6.2v-10.6c0-3.4,2.8-6.2,6.2-6.2h10.6
					c3.4,0,6.2,2.8,6.2,6.2v10.6C1865.7,1894.1,1863,1896.9,1859.6,1896.9z"/>
				<path id="XMLID_96_" fill="#C6CACB" d="M1901.9,1896.9h-10.6c-3.4,0-6.2-2.8-6.2-6.2v-10.6c0-3.4,2.8-6.2,6.2-6.2h10.6
					c3.4,0,6.2,2.8,6.2,6.2v10.6C1908.1,1894.1,1905.3,1896.9,1901.9,1896.9z"/>
				<path id="XMLID_95_" fill="#C6CACB" d="M1944.2,1896.9h-10.6c-3.4,0-6.2-2.8-6.2-6.2v-10.6c0-3.4,2.8-6.2,6.2-6.2h10.6
					c3.4,0,6.2,2.8,6.2,6.2v10.6C1950.4,1894.1,1947.6,1896.9,1944.2,1896.9z"/>
				<path id="XMLID_94_" fill="#C6CACB" d="M1986.5,1896.9h-10.6c-3.4,0-6.2-2.8-6.2-6.2v-10.6c0-3.4,2.8-6.2,6.2-6.2h10.6
					c3.4,0,6.2,2.8,6.2,6.2v10.6C1992.7,1894.1,1989.9,1896.9,1986.5,1896.9z"/>
			</g>
			<g id="XMLID_70_">
				<path id="XMLID_92_" fill="#C6CACB" d="M1817.3,1896.9h-10.6c-3.4,0-6.2-2.8-6.2-6.2v-10.6c0-3.4,2.8-6.2,6.2-6.2h10.6
					c3.4,0,6.2,2.8,6.2,6.2v10.6C1823.4,1894.1,1820.7,1896.9,1817.3,1896.9z"/>
				<path id="XMLID_74_" fill="#C6CACB" d="M1859.6,1896.9H1849c-3.4,0-6.2-2.8-6.2-6.2v-10.6c0-3.4,2.8-6.2,6.2-6.2h10.6
					c3.4,0,6.2,2.8,6.2,6.2v10.6C1865.7,1894.1,1863,1896.9,1859.6,1896.9z"/>
				<path id="XMLID_73_" fill="#C6CACB" d="M1901.9,1896.9h-10.6c-3.4,0-6.2-2.8-6.2-6.2v-10.6c0-3.4,2.8-6.2,6.2-6.2h10.6
					c3.4,0,6.2,2.8,6.2,6.2v10.6C1908.1,1894.1,1905.3,1896.9,1901.9,1896.9z"/>
				<path id="XMLID_72_" fill="#C6CACB" d="M1944.2,1896.9h-10.6c-3.4,0-6.2-2.8-6.2-6.2v-10.6c0-3.4,2.8-6.2,6.2-6.2h10.6
					c3.4,0,6.2,2.8,6.2,6.2v10.6C1950.4,1894.1,1947.6,1896.9,1944.2,1896.9z"/>
				<path id="XMLID_71_" fill="#C6CACB" d="M1986.5,1896.9h-10.6c-3.4,0-6.2-2.8-6.2-6.2v-10.6c0-3.4,2.8-6.2,6.2-6.2h10.6
					c3.4,0,6.2,2.8,6.2,6.2v10.6C1992.7,1894.1,1989.9,1896.9,1986.5,1896.9z"/>
			</g>
		</g>
		<g id="XMLID_3562_">
			<g id="XMLID_86_">
				<path id="XMLID_91_" fill="#C6CACB" d="M1817.3,1935.2h-10.6c-3.4,0-6.2-2.8-6.2-6.2v-10.6c0-3.4,2.8-6.2,6.2-6.2h10.6
					c3.4,0,6.2,2.8,6.2,6.2v10.6C1823.4,1932.4,1820.7,1935.2,1817.3,1935.2z"/>
				<path id="XMLID_90_" fill="#C6CACB" d="M1859.6,1935.2H1849c-3.4,0-6.2-2.8-6.2-6.2v-10.6c0-3.4,2.8-6.2,6.2-6.2h10.6
					c3.4,0,6.2,2.8,6.2,6.2v10.6C1865.7,1932.4,1863,1935.2,1859.6,1935.2z"/>
				<path id="XMLID_89_" fill="#C6CACB" d="M1901.9,1935.2h-10.6c-3.4,0-6.2-2.8-6.2-6.2v-10.6c0-3.4,2.8-6.2,6.2-6.2h10.6
					c3.4,0,6.2,2.8,6.2,6.2v10.6C1908.1,1932.4,1905.3,1935.2,1901.9,1935.2z"/>
				<path id="XMLID_88_" fill="#C6CACB" d="M1944.2,1935.2h-10.6c-3.4,0-6.2-2.8-6.2-6.2v-10.6c0-3.4,2.8-6.2,6.2-6.2h10.6
					c3.4,0,6.2,2.8,6.2,6.2v10.6C1950.4,1932.4,1947.6,1935.2,1944.2,1935.2z"/>
				<path id="XMLID_87_" fill="#C6CACB" d="M1986.5,1935.2h-10.6c-3.4,0-6.2-2.8-6.2-6.2v-10.6c0-3.4,2.8-6.2,6.2-6.2h10.6
					c3.4,0,6.2,2.8,6.2,6.2v10.6C1992.7,1932.4,1989.9,1935.2,1986.5,1935.2z"/>
			</g>
			<g id="XMLID_65_">
				<path id="XMLID_85_" fill="#C6CACB" d="M1817.3,1935.2h-10.6c-3.4,0-6.2-2.8-6.2-6.2v-10.6c0-3.4,2.8-6.2,6.2-6.2h10.6
					c3.4,0,6.2,2.8,6.2,6.2v10.6C1823.4,1932.4,1820.7,1935.2,1817.3,1935.2z"/>
				<path id="XMLID_69_" fill="#C6CACB" d="M1859.6,1935.2H1849c-3.4,0-6.2-2.8-6.2-6.2v-10.6c0-3.4,2.8-6.2,6.2-6.2h10.6
					c3.4,0,6.2,2.8,6.2,6.2v10.6C1865.7,1932.4,1863,1935.2,1859.6,1935.2z"/>
				<path id="XMLID_68_" fill="#C6CACB" d="M1901.9,1935.2h-10.6c-3.4,0-6.2-2.8-6.2-6.2v-10.6c0-3.4,2.8-6.2,6.2-6.2h10.6
					c3.4,0,6.2,2.8,6.2,6.2v10.6C1908.1,1932.4,1905.3,1935.2,1901.9,1935.2z"/>
				<path id="XMLID_67_" fill="#C6CACB" d="M1944.2,1935.2h-10.6c-3.4,0-6.2-2.8-6.2-6.2v-10.6c0-3.4,2.8-6.2,6.2-6.2h10.6
					c3.4,0,6.2,2.8,6.2,6.2v10.6C1950.4,1932.4,1947.6,1935.2,1944.2,1935.2z"/>
				<path id="XMLID_66_" fill="#C6CACB" d="M1986.5,1935.2h-10.6c-3.4,0-6.2-2.8-6.2-6.2v-10.6c0-3.4,2.8-6.2,6.2-6.2h10.6
					c3.4,0,6.2,2.8,6.2,6.2v10.6C1992.7,1932.4,1989.9,1935.2,1986.5,1935.2z"/>
			</g>
		</g>
		<g id="XMLID_3538_">
			<g id="XMLID_64_">
				<path id="XMLID_84_" fill="#C6CACB" d="M1817.3,1973.4h-10.6c-3.4,0-6.2-2.8-6.2-6.2v-10.6c0-3.4,2.8-6.2,6.2-6.2h10.6
					c3.4,0,6.2,2.8,6.2,6.2v10.6C1823.4,1970.7,1820.7,1973.4,1817.3,1973.4z"/>
				<path id="XMLID_83_" fill="#C6CACB" d="M1859.6,1973.4H1849c-3.4,0-6.2-2.8-6.2-6.2v-10.6c0-3.4,2.8-6.2,6.2-6.2h10.6
					c3.4,0,6.2,2.8,6.2,6.2v10.6C1865.7,1970.7,1863,1973.4,1859.6,1973.4z"/>
				<path id="XMLID_82_" fill="#C6CACB" d="M1901.9,1973.4h-10.6c-3.4,0-6.2-2.8-6.2-6.2v-10.6c0-3.4,2.8-6.2,6.2-6.2h10.6
					c3.4,0,6.2,2.8,6.2,6.2v10.6C1908.1,1970.7,1905.3,1973.4,1901.9,1973.4z"/>
				<path id="XMLID_81_" fill="#C6CACB" d="M1944.2,1973.4h-10.6c-3.4,0-6.2-2.8-6.2-6.2v-10.6c0-3.4,2.8-6.2,6.2-6.2h10.6
					c3.4,0,6.2,2.8,6.2,6.2v10.6C1950.4,1970.7,1947.6,1973.4,1944.2,1973.4z"/>
				<path id="XMLID_80_" fill="#C6CACB" d="M1986.5,1973.4h-10.6c-3.4,0-6.2-2.8-6.2-6.2v-10.6c0-3.4,2.8-6.2,6.2-6.2h10.6
					c3.4,0,6.2,2.8,6.2,6.2v10.6C1992.7,1970.7,1989.9,1973.4,1986.5,1973.4z"/>
			</g>
			<g id="XMLID_28_">
				<path id="XMLID_63_" fill="#C6CACB" d="M1817.3,1973.4h-10.6c-3.4,0-6.2-2.8-6.2-6.2v-10.6c0-3.4,2.8-6.2,6.2-6.2h10.6
					c3.4,0,6.2,2.8,6.2,6.2v10.6C1823.4,1970.7,1820.7,1973.4,1817.3,1973.4z"/>
				<path id="XMLID_59_" fill="#C6CACB" d="M1859.6,1973.4H1849c-3.4,0-6.2-2.8-6.2-6.2v-10.6c0-3.4,2.8-6.2,6.2-6.2h10.6
					c3.4,0,6.2,2.8,6.2,6.2v10.6C1865.7,1970.7,1863,1973.4,1859.6,1973.4z"/>
				<path id="XMLID_58_" fill="#C6CACB" d="M1901.9,1973.4h-10.6c-3.4,0-6.2-2.8-6.2-6.2v-10.6c0-3.4,2.8-6.2,6.2-6.2h10.6
					c3.4,0,6.2,2.8,6.2,6.2v10.6C1908.1,1970.7,1905.3,1973.4,1901.9,1973.4z"/>
				<path id="XMLID_31_" fill="#C6CACB" d="M1944.2,1973.4h-10.6c-3.4,0-6.2-2.8-6.2-6.2v-10.6c0-3.4,2.8-6.2,6.2-6.2h10.6
					c3.4,0,6.2,2.8,6.2,6.2v10.6C1950.4,1970.7,1947.6,1973.4,1944.2,1973.4z"/>
				<path id="XMLID_30_" fill="#C6CACB" d="M1986.5,1973.4h-10.6c-3.4,0-6.2-2.8-6.2-6.2v-10.6c0-3.4,2.8-6.2,6.2-6.2h10.6
					c3.4,0,6.2,2.8,6.2,6.2v10.6C1992.7,1970.7,1989.9,1973.4,1986.5,1973.4z"/>
			</g>
		</g>
		<g id="XMLID_3514_">
			<g id="XMLID_52_">
				<path id="XMLID_57_" fill="#C6CACB" d="M1817.3,2011.7h-10.6c-3.4,0-6.2-2.8-6.2-6.2V1995c0-3.4,2.8-6.2,6.2-6.2h10.6
					c3.4,0,6.2,2.8,6.2,6.2v10.6C1823.4,2009,1820.7,2011.7,1817.3,2011.7z"/>
				<path id="XMLID_56_" fill="#C6CACB" d="M1859.6,2011.7H1849c-3.4,0-6.2-2.8-6.2-6.2V1995c0-3.4,2.8-6.2,6.2-6.2h10.6
					c3.4,0,6.2,2.8,6.2,6.2v10.6C1865.7,2009,1863,2011.7,1859.6,2011.7z"/>
				<path id="XMLID_55_" fill="#C6CACB" d="M1901.9,2011.7h-10.6c-3.4,0-6.2-2.8-6.2-6.2V1995c0-3.4,2.8-6.2,6.2-6.2h10.6
					c3.4,0,6.2,2.8,6.2,6.2v10.6C1908.1,2009,1905.3,2011.7,1901.9,2011.7z"/>
				<path id="XMLID_54_" fill="#C6CACB" d="M1944.2,2011.7h-10.6c-3.4,0-6.2-2.8-6.2-6.2V1995c0-3.4,2.8-6.2,6.2-6.2h10.6
					c3.4,0,6.2,2.8,6.2,6.2v10.6C1950.4,2009,1947.6,2011.7,1944.2,2011.7z"/>
				<path id="XMLID_53_" fill="#C6CACB" d="M1986.5,2011.7h-10.6c-3.4,0-6.2-2.8-6.2-6.2V1995c0-3.4,2.8-6.2,6.2-6.2h10.6
					c3.4,0,6.2,2.8,6.2,6.2v10.6C1992.7,2009,1989.9,2011.7,1986.5,2011.7z"/>
			</g>
			<g id="XMLID_3_">
				<path id="XMLID_51_" fill="#C6CACB" d="M1817.3,2011.7h-10.6c-3.4,0-6.2-2.8-6.2-6.2V1995c0-3.4,2.8-6.2,6.2-6.2h10.6
					c3.4,0,6.2,2.8,6.2,6.2v10.6C1823.4,2009,1820.7,2011.7,1817.3,2011.7z"/>
				<path id="XMLID_27_" fill="#C6CACB" d="M1859.6,2011.7H1849c-3.4,0-6.2-2.8-6.2-6.2V1995c0-3.4,2.8-6.2,6.2-6.2h10.6
					c3.4,0,6.2,2.8,6.2,6.2v10.6C1865.7,2009,1863,2011.7,1859.6,2011.7z"/>
				<path id="XMLID_26_" fill="#C6CACB" d="M1901.9,2011.7h-10.6c-3.4,0-6.2-2.8-6.2-6.2V1995c0-3.4,2.8-6.2,6.2-6.2h10.6
					c3.4,0,6.2,2.8,6.2,6.2v10.6C1908.1,2009,1905.3,2011.7,1901.9,2011.7z"/>
				<path id="XMLID_25_" fill="#C6CACB" d="M1944.2,2011.7h-10.6c-3.4,0-6.2-2.8-6.2-6.2V1995c0-3.4,2.8-6.2,6.2-6.2h10.6
					c3.4,0,6.2,2.8,6.2,6.2v10.6C1950.4,2009,1947.6,2011.7,1944.2,2011.7z"/>
				<path id="XMLID_24_" fill="#C6CACB" d="M1986.5,2011.7h-10.6c-3.4,0-6.2-2.8-6.2-6.2V1995c0-3.4,2.8-6.2,6.2-6.2h10.6
					c3.4,0,6.2,2.8,6.2,6.2v10.6C1992.7,2009,1989.9,2011.7,1986.5,2011.7z"/>
			</g>
		</g>
		<g id="XMLID_3490_">
			<g id="XMLID_45_">
				<path id="XMLID_50_" fill="#C6CACB" d="M1817.3,2050h-10.6c-3.4,0-6.2-2.8-6.2-6.2v-10.6c0-3.4,2.8-6.2,6.2-6.2h10.6
					c3.4,0,6.2,2.8,6.2,6.2v10.6C1823.4,2047.2,1820.7,2050,1817.3,2050z"/>
				<path id="XMLID_49_" fill="#C6CACB" d="M1859.6,2050H1849c-3.4,0-6.2-2.8-6.2-6.2v-10.6c0-3.4,2.8-6.2,6.2-6.2h10.6
					c3.4,0,6.2,2.8,6.2,6.2v10.6C1865.7,2047.2,1863,2050,1859.6,2050z"/>
				<path id="XMLID_48_" fill="#C6CACB" d="M1901.9,2050h-10.6c-3.4,0-6.2-2.8-6.2-6.2v-10.6c0-3.4,2.8-6.2,6.2-6.2h10.6
					c3.4,0,6.2,2.8,6.2,6.2v10.6C1908.1,2047.2,1905.3,2050,1901.9,2050z"/>
				<path id="XMLID_47_" fill="#C6CACB" d="M1944.2,2050h-10.6c-3.4,0-6.2-2.8-6.2-6.2v-10.6c0-3.4,2.8-6.2,6.2-6.2h10.6
					c3.4,0,6.2,2.8,6.2,6.2v10.6C1950.4,2047.2,1947.6,2050,1944.2,2050z"/>
				<path id="XMLID_46_" fill="#C6CACB" d="M1986.5,2050h-10.6c-3.4,0-6.2-2.8-6.2-6.2v-10.6c0-3.4,2.8-6.2,6.2-6.2h10.6
					c3.4,0,6.2,2.8,6.2,6.2v10.6C1992.7,2047.2,1989.9,2050,1986.5,2050z"/>
			</g>
			<g id="XMLID_23_">
				<path id="XMLID_44_" fill="#C6CACB" d="M1817.3,2050h-10.6c-3.4,0-6.2-2.8-6.2-6.2v-10.6c0-3.4,2.8-6.2,6.2-6.2h10.6
					c3.4,0,6.2,2.8,6.2,6.2v10.6C1823.4,2047.2,1820.7,2050,1817.3,2050z"/>
				<path id="XMLID_43_" fill="#C6CACB" d="M1859.6,2050H1849c-3.4,0-6.2-2.8-6.2-6.2v-10.6c0-3.4,2.8-6.2,6.2-6.2h10.6
					c3.4,0,6.2,2.8,6.2,6.2v10.6C1865.7,2047.2,1863,2050,1859.6,2050z"/>
				<path id="XMLID_42_" fill="#C6CACB" d="M1901.9,2050h-10.6c-3.4,0-6.2-2.8-6.2-6.2v-10.6c0-3.4,2.8-6.2,6.2-6.2h10.6
					c3.4,0,6.2,2.8,6.2,6.2v10.6C1908.1,2047.2,1905.3,2050,1901.9,2050z"/>
				<path id="XMLID_41_" fill="#C6CACB" d="M1944.2,2050h-10.6c-3.4,0-6.2-2.8-6.2-6.2v-10.6c0-3.4,2.8-6.2,6.2-6.2h10.6
					c3.4,0,6.2,2.8,6.2,6.2v10.6C1950.4,2047.2,1947.6,2050,1944.2,2050z"/>
				<path id="XMLID_35_" fill="#C6CACB" d="M1986.5,2050h-10.6c-3.4,0-6.2-2.8-6.2-6.2v-10.6c0-3.4,2.8-6.2,6.2-6.2h10.6
					c3.4,0,6.2,2.8,6.2,6.2v10.6C1992.7,2047.2,1989.9,2050,1986.5,2050z"/>
			</g>
		</g>
		<g id="XMLID_3486_">
			<path id="XMLID_3489_" fill="#C6CACB" d="M1859.7,2140.4h-10.6c-3.4,0-6.2-2.8-6.2-6.2v-10.6c0-3.4,2.8-6.2,6.2-6.2h10.6
				c3.4,0,6.2,2.8,6.2,6.2v10.6C1865.8,2137.6,1863.1,2140.4,1859.7,2140.4z"/>
			<path id="XMLID_3488_" fill="#C6CACB" d="M1944.2,2140.4h-10.6c-3.4,0-6.2-2.8-6.2-6.2v-10.6c0-3.4,2.8-6.2,6.2-6.2h10.6
				c3.4,0,6.2,2.8,6.2,6.2v10.6C1950.4,2137.6,1947.6,2140.4,1944.2,2140.4z"/>
			<path id="XMLID_3487_" fill="#C6CACB" d="M1901.9,2140.4h-10.6c-3.4,0-6.2-2.8-6.2-6.2v-10.6c0-3.4,2.8-6.2,6.2-6.2h10.6
				c3.4,0,6.2,2.8,6.2,6.2v10.6C1908.1,2137.6,1905.3,2140.4,1901.9,2140.4z"/>
		</g>
	</g>
	<g id="XMLID_3433_">
		<path id="XMLID_22_" fill="#1E1D21" d="M1986,2031.5c-0.9,0-1.9-0.2-2.7-0.7c-2.7-1.4-4-4.6-2.9-7.5l58.5-155.8l-66.1-3
			c-2.2-0.1-4.1-1.3-5.1-3.3c-1-1.9-0.8-4.2,0.3-6l141.8-214.2c1.1-1.7,3.1-2.7,5-2.7c0.9,0,1.9,0.2,2.7,0.7c2.7,1.4,4,4.6,2.9,7.5
			l-58.5,155.8l66.1,3c2.2,0.1,4.1,1.3,5.1,3.3c1,1.9,0.8,4.2-0.3,6L1991,2028.9C1989.9,2030.6,1988,2031.5,1986,2031.5z"/>
		<path id="XMLID_2_" fill="#FFFFFF" d="M2114.9,1644.5L2114.9,1644.5 M2114.9,1644.5l-61.5,163.6l74.4,3.3L1986,2025.5l61.5-163.6
			l-74.4-3.3L2114.9,1644.5 M2114.9,1632.5c-0.3,0-0.7,0-1,0c-1.9,0.2-3.7,0.8-5.3,1.7c-1.2,0.7-2.2,1.6-3.1,2.8
			c-0.3,0.3-0.5,0.6-0.7,1l-141.7,214c-2.4,3.6-2.7,8.2-0.7,12.1c2,3.9,5.8,6.4,10.2,6.5l57.9,2.6l-55.6,148.1
			c-2.1,5.7,0.3,12.1,5.8,14.9c1.7,0.9,3.6,1.3,5.4,1.3c3.9,0,7.7-1.9,10-5.4l141.8-214.2c2.4-3.6,2.6-8.2,0.7-12.1
			c-2-3.9-5.8-6.4-10.2-6.5l-57.9-2.6L2126,1649c0.6-1.4,0.9-2.9,0.9-4.5c0-6.1-4.5-11.1-10.4-11.9
			C2116,1632.5,2115.4,1632.5,2114.9,1632.5L2114.9,1632.5z"/>
	</g>
	
		<path id="XMLID_39_" fill="none" stroke="#1E1D21" stroke-width="8" stroke-linecap="round" stroke-linejoin="round" stroke-miterlimit="10" d="
		M285.4,762.6c20.6-19.5,48.5-31.5,79.1-31.5c30.7,0,58.5,12,79.1,31.5"/>
</g>
<g id="Laag_4">
	<g id="XMLID_34_">
		<path id="XMLID_312_" fill="#FFFFFF" d="M3567.5,786.8c-81.8,0-148.1-66.3-148.1-148.1s66.3-148.1,148.1-148.1"/>
		<g id="XMLID_247_">
			
				<path id="XMLID_311_" fill="none" stroke="#1E1D21" stroke-width="8" stroke-linecap="round" stroke-linejoin="round" stroke-miterlimit="10" d="
				M3713.4,638.6c0,20.4-4.1,39.9-11.6,57.6c-7.5,17.7-18.3,33.7-31.7,47.1c-13.4,13.4-29.4,24.2-47.1,31.7
				c-17.7,7.5-37.2,11.6-57.6,11.6s-39.9-4.1-57.6-11.6c-17.7-7.5-33.7-18.3-47.1-31.7c-13.4-13.4-24.2-29.4-31.7-47.1
				c-7.5-17.7-11.6-37.2-11.6-57.6s4.1-39.9,11.6-57.6c7.5-17.7,18.3-33.7,31.7-47.1s29.4-24.2,47.1-31.7
				c17.7-7.5,37.2-11.6,57.6-11.6s39.9,4.1,57.6,11.6c17.7,7.5,33.7,18.3,47.1,31.7s24.2,29.4,31.7,47.1
				C3709.3,598.7,3713.4,618.2,3713.4,638.6z"/>
			
				<path id="XMLID_310_" fill="none" stroke="#1E1D21" stroke-width="8" stroke-linecap="round" stroke-linejoin="round" stroke-miterlimit="10" d="
				M3565.6,490.5c11.9,9.5,22.7,20,32.1,31.1c9.4,11.2,17.6,23.1,24.2,35.6c6.6,12.5,11.8,25.7,15.3,39.3s5.3,27.7,5.3,42.1
				c0,14.4-1.8,28.5-5.3,42.1c-3.5,13.6-8.7,26.7-15.3,39.3c-6.6,12.5-14.8,24.4-24.2,35.6c-9.4,11.2-20.2,21.6-32.1,31.1"/>
			
				<path id="XMLID_309_" fill="none" stroke="#1E1D21" stroke-width="8" stroke-linecap="round" stroke-linejoin="round" stroke-miterlimit="10" d="
				M3565.1,786.8c-11.9-9.5-22.7-20-32.1-31.1c-9.4-11.2-17.6-23.1-24.2-35.6c-6.6-12.5-11.8-25.7-15.3-39.3
				c-3.5-13.6-5.3-27.7-5.3-42.1c0-14.4,1.8-28.5,5.3-42.1c3.5-13.6,8.7-26.7,15.3-39.3c6.6-12.5,14.8-24.4,24.2-35.6
				c9.4-11.2,20.2-21.6,32.1-31.1"/>
			
				<path id="XMLID_308_" fill="none" stroke="#1E1D21" stroke-width="8" stroke-linecap="round" stroke-linejoin="round" stroke-miterlimit="10" d="
				M3459.2,741.9c6.7-6.9,14.1-13.2,22.1-18.7s16.5-10.2,25.5-14.1s18.4-6.9,28.2-8.9c9.8-2,20-3.1,30.4-3.1s20.6,1.1,30.4,3.1
				c9.8,2,19.3,5.1,28.2,8.9s17.5,8.6,25.5,14.1s15.4,11.8,22.1,18.7"/>
			
				<path id="XMLID_307_" fill="none" stroke="#1E1D21" stroke-width="8" stroke-linecap="round" stroke-linejoin="round" stroke-miterlimit="10" d="
				M3466.7,528.2c6.5,5.9,13.6,11.1,21.1,15.8s15.5,8.6,23.8,11.8c8.3,3.2,17,5.8,26,7.5c9,1.7,18.2,2.6,27.7,2.6s18.7-0.9,27.7-2.6
				c9-1.7,17.7-4.2,26-7.5c8.3-3.2,16.3-7.2,23.8-11.8s14.6-9.9,21.1-15.8"/>
			
				<polyline id="XMLID_306_" fill="none" stroke="#1E1D21" stroke-width="8" stroke-linecap="round" stroke-linejoin="round" stroke-miterlimit="10" points="
				3417.2,638.7 3488.2,638.7 3565.3,638.7 3713.4,638.7 			"/>
			
				<polyline id="XMLID_305_" fill="none" stroke="#1E1D21" stroke-width="8" stroke-linecap="round" stroke-linejoin="round" stroke-miterlimit="10" points="
				3565.3,767.5 3565.3,749.7 3565.3,712.7 3565.3,675.7 3565.3,638.6 3565.3,601.6 3565.3,564.6 3565.3,527.6 3565.3,509.8 			"/>
			<g id="XMLID_301_">
				
					<polyline id="XMLID_124_" fill="none" stroke="#FFFFFF" stroke-width="24" stroke-linejoin="round" stroke-miterlimit="10" points="
					3602.4,638.6 3565.3,638.6 3528.3,638.6 				"/>
				
					<polyline id="XMLID_123_" fill="none" stroke="#1E1D21" stroke-width="8" stroke-linecap="round" stroke-linejoin="round" stroke-miterlimit="10" points="
					3602.4,638.6 3565.3,638.6 3528.3,638.6 				"/>
			</g>
			<g id="XMLID_293_">
				<path id="XMLID_122_" fill="none" stroke="#FFFFFF" stroke-width="24" stroke-linejoin="round" stroke-miterlimit="10" d="
					M3637.2,596.5c3.5,13.6,5.3,27.7,5.3,42.1c0,14.4-1.8,28.5-5.3,42.1"/>
				
					<path id="XMLID_118_" fill="none" stroke="#1E1D21" stroke-width="8" stroke-linecap="round" stroke-linejoin="round" stroke-miterlimit="10" d="
					M3637.2,596.5c3.5,13.6,5.3,27.7,5.3,42.1c0,14.4-1.8,28.5-5.3,42.1"/>
			</g>
			<g id="XMLID_289_">
				<path id="XMLID_117_" fill="none" stroke="#FFFFFF" stroke-width="24" stroke-linejoin="round" stroke-miterlimit="10" d="
					M3493.5,680.8c-3.5-13.6-5.3-27.7-5.3-42.1c0-14.4,1.8-28.5,5.3-42.1"/>
				
					<path id="XMLID_116_" fill="none" stroke="#1E1D21" stroke-width="8" stroke-linecap="round" stroke-linejoin="round" stroke-miterlimit="10" d="
					M3493.5,680.8c-3.5-13.6-5.3-27.7-5.3-42.1c0-14.4,1.8-28.5,5.3-42.1"/>
			</g>
			<g id="XMLID_285_">
				<path id="XMLID_115_" fill="none" stroke="#FFFFFF" stroke-width="24" stroke-linejoin="round" stroke-miterlimit="10" d="
					M3595.7,700.1c9.8,2,19.3,5.1,28.2,8.9s17.5,8.6,25.5,14.1"/>
				
					<path id="XMLID_114_" fill="none" stroke="#1E1D21" stroke-width="8" stroke-linecap="round" stroke-linejoin="round" stroke-miterlimit="10" d="
					M3595.7,700.1c9.8,2,19.3,5.1,28.2,8.9s17.5,8.6,25.5,14.1"/>
			</g>
			<g id="XMLID_280_">
				<path id="XMLID_113_" fill="none" stroke="#FFFFFF" stroke-width="24" stroke-linejoin="round" stroke-miterlimit="10" d="
					M3481.3,723.2c8-5.5,16.5-10.2,25.5-14.1s18.4-6.9,28.2-8.9"/>
				
					<path id="XMLID_112_" fill="none" stroke="#1E1D21" stroke-width="8" stroke-linecap="round" stroke-linejoin="round" stroke-miterlimit="10" d="
					M3481.3,723.2c8-5.5,16.5-10.2,25.5-14.1s18.4-6.9,28.2-8.9"/>
			</g>
			<g id="XMLID_276_">
				<path id="XMLID_111_" fill="none" stroke="#FFFFFF" stroke-width="24" stroke-linejoin="round" stroke-miterlimit="10" d="
					M3593.1,563.2c9-1.7,17.7-4.2,26-7.5c8.3-3.2,16.3-7.2,23.8-11.8"/>
				
					<path id="XMLID_110_" fill="none" stroke="#1E1D21" stroke-width="8" stroke-linecap="round" stroke-linejoin="round" stroke-miterlimit="10" d="
					M3593.1,563.2c9-1.7,17.7-4.2,26-7.5c8.3-3.2,16.3-7.2,23.8-11.8"/>
			</g>
			<g id="XMLID_272_">
				<path id="XMLID_109_" fill="none" stroke="#FFFFFF" stroke-width="24" stroke-linejoin="round" stroke-miterlimit="10" d="
					M3487.8,543.9c7.5,4.6,15.5,8.6,23.8,11.8c8.3,3.2,17,5.8,26,7.5"/>
				
					<path id="XMLID_108_" fill="none" stroke="#1E1D21" stroke-width="8" stroke-linecap="round" stroke-linejoin="round" stroke-miterlimit="10" d="
					M3487.8,543.9c7.5,4.6,15.5,8.6,23.8,11.8c8.3,3.2,17,5.8,26,7.5"/>
			</g>
			<g id="XMLID_268_">
				
					<polyline id="XMLID_107_" fill="none" stroke="#FFFFFF" stroke-width="24" stroke-linejoin="round" stroke-miterlimit="10" points="
					3565.3,530.5 3565.3,567.6 3565.3,604.6 				"/>
				
					<polyline id="XMLID_106_" fill="none" stroke="#1E1D21" stroke-width="8" stroke-linecap="round" stroke-linejoin="round" stroke-miterlimit="10" points="
					3565.3,530.5 3565.3,567.6 3565.3,604.6 				"/>
			</g>
			<g id="XMLID_264_">
				
					<polyline id="XMLID_105_" fill="none" stroke="#FFFFFF" stroke-width="24" stroke-linejoin="round" stroke-miterlimit="10" points="
					3565.3,686.2 3565.3,723.2 3565.3,760.2 				"/>
				
					<polyline id="XMLID_104_" fill="none" stroke="#1E1D21" stroke-width="8" stroke-linecap="round" stroke-linejoin="round" stroke-miterlimit="10" points="
					3565.3,686.2 3565.3,723.2 3565.3,760.2 				"/>
			</g>
			<g id="XMLID_260_">
				<path id="XMLID_103_" fill="none" stroke="#FFFFFF" stroke-width="24" stroke-linejoin="round" stroke-miterlimit="10" d="
					M3623,502.2c17.7,7.5,33.7,18.3,47.1,31.7s24.2,29.4,31.7,47.1"/>
				
					<path id="XMLID_101_" fill="none" stroke="#1E1D21" stroke-width="8" stroke-linecap="round" stroke-linejoin="round" stroke-miterlimit="10" d="
					M3623,502.2c17.7,7.5,33.7,18.3,47.1,31.7s24.2,29.4,31.7,47.1"/>
			</g>
			<g id="XMLID_256_">
				<path id="XMLID_99_" fill="none" stroke="#FFFFFF" stroke-width="24" stroke-linejoin="round" stroke-miterlimit="10" d="
					M3428.9,581c7.5-17.7,18.3-33.7,31.7-47.1s29.4-24.2,47.1-31.7"/>
				
					<path id="XMLID_79_" fill="none" stroke="#1E1D21" stroke-width="8" stroke-linecap="round" stroke-linejoin="round" stroke-miterlimit="10" d="
					M3428.9,581c7.5-17.7,18.3-33.7,31.7-47.1s29.4-24.2,47.1-31.7"/>
			</g>
			<g id="XMLID_252_">
				<path id="XMLID_78_" fill="none" stroke="#FFFFFF" stroke-width="24" stroke-linejoin="round" stroke-miterlimit="10" d="
					M3507.7,775.1c-17.7-7.5-33.7-18.3-47.1-31.7c-13.4-13.4-24.2-29.4-31.7-47.1"/>
				
					<path id="XMLID_77_" fill="none" stroke="#1E1D21" stroke-width="8" stroke-linecap="round" stroke-linejoin="round" stroke-miterlimit="10" d="
					M3507.7,775.1c-17.7-7.5-33.7-18.3-47.1-31.7c-13.4-13.4-24.2-29.4-31.7-47.1"/>
			</g>
			<g id="XMLID_248_">
				<path id="XMLID_76_" fill="none" stroke="#FFFFFF" stroke-width="24" stroke-linejoin="round" stroke-miterlimit="10" d="
					M3701.8,696.3c-7.5,17.7-18.3,33.7-31.7,47.1c-13.4,13.4-29.4,24.2-47.1,31.7"/>
				
					<path id="XMLID_75_" fill="none" stroke="#1E1D21" stroke-width="8" stroke-linecap="round" stroke-linejoin="round" stroke-miterlimit="10" d="
					M3701.8,696.3c-7.5,17.7-18.3,33.7-31.7,47.1c-13.4,13.4-29.4,24.2-47.1,31.7"/>
			</g>
		</g>
		
			<polyline id="XMLID_246_" fill="none" stroke="#1E1D21" stroke-width="8" stroke-linecap="round" stroke-linejoin="round" stroke-miterlimit="10" points="
			3571.4,489.7 3571.4,167.9 3252.8,167.9 3252.8,811.6 3564.8,811.6 		"/>
		
			<line id="XMLID_245_" fill="none" stroke="#1E1D21" stroke-width="8" stroke-linecap="round" stroke-linejoin="round" stroke-miterlimit="10" x1="3284.2" y1="232.5" x2="3537.2" y2="232.5"/>
		
			<line id="XMLID_199_" fill="none" stroke="#1E1D21" stroke-width="8" stroke-linecap="round" stroke-linejoin="round" stroke-miterlimit="10" x1="3284.2" y1="285.8" x2="3537.2" y2="285.8"/>
		
			<line id="XMLID_198_" fill="none" stroke="#1E1D21" stroke-width="8" stroke-linecap="round" stroke-linejoin="round" stroke-miterlimit="10" x1="3284.2" y1="339" x2="3537.2" y2="339"/>
	</g>
	
		<path id="XMLID_141_" fill="none" stroke="#1E1D21" stroke-width="8" stroke-linecap="round" stroke-linejoin="round" stroke-miterlimit="10" d="
		M3149.4,486.5L3149.4,486.5c-815.2-266-1693.9-266-2509.1,0l0,0"/>
	<g id="XMLID_20_">
		
			<line id="XMLID_36_" fill="none" stroke="#1E1D21" stroke-width="8" stroke-linecap="round" stroke-linejoin="round" stroke-miterlimit="10" x1="247.4" y1="572.9" x2="334.6" y2="572.9"/>
		
			<line id="XMLID_21_" fill="none" stroke="#1E1D21" stroke-width="8" stroke-linecap="round" stroke-linejoin="round" stroke-miterlimit="10" x1="392.6" y1="572.9" x2="479.7" y2="572.9"/>
	</g>
</g>
<g id="nrs">
	
		<line id="XMLID_203_" fill="none" stroke="#1E1D21" stroke-width="8" stroke-linecap="round" stroke-linejoin="round" stroke-miterlimit="10" x1="1672.5" y1="1991.3" x2="1416.4" y2="1723.7"/>
	
		<line id="XMLID_201_" fill="none" stroke="#1E1D21" stroke-width="8" stroke-linecap="round" stroke-linejoin="round" stroke-miterlimit="10" x1="1322" y1="1612.4" x2="582.8" y2="815.8"/>
	
		<line id="XMLID_62_" fill="none" stroke="#1E1D21" stroke-width="8" stroke-linecap="round" stroke-linejoin="round" stroke-miterlimit="10" x1="3168.3" y1="861.8" x2="2475.1" y2="1612.4"/>
	
		<line id="XMLID_61_" fill="none" stroke="#1E1D21" stroke-width="8" stroke-linecap="round" stroke-linejoin="round" stroke-miterlimit="10" x1="2380.6" y1="1723.7" x2="2124.5" y2="1991.3"/>
	
		<line id="XMLID_15_" fill="none" stroke="#1E1D21" stroke-width="8" stroke-linecap="round" stroke-linejoin="round" stroke-miterlimit="10" x1="1687.9" y1="1405.3" x2="1378.9" y2="1663.7"/>
	
		<line id="XMLID_14_" fill="none" stroke="#1E1D21" stroke-width="8" stroke-linecap="round" stroke-linejoin="round" stroke-miterlimit="10" x1="2418.1" y1="1663.7" x2="2109.1" y2="1405.3"/>
	<g id="XMLID_17_">
		<path id="XMLID_136_" fill="#1E1D21" d="M1982,1107.5c-2,0-3.9-1-5-2.7l-164.3-248.1c-1.2-1.8-1.3-4.1-0.3-6
			c1-1.9,2.9-3.2,5.1-3.3l77.9-3.5l-68.3-181.7c-1.1-2.9,0.2-6.1,2.9-7.5c0.9-0.4,1.8-0.7,2.7-0.7c2,0,3.9,1,5,2.7L2002,904.9
			c1.2,1.8,1.3,4.1,0.3,6c-1,1.9-2.9,3.2-5.1,3.3l-77.9,3.5l68.3,181.7c1.1,2.9-0.2,6.1-2.9,7.5
			C1983.9,1107.3,1982.9,1107.5,1982,1107.5z"/>
		<path id="XMLID_100_" fill="#FFFFFF" d="M1832.7,660.1L1997,908.2l-86.2,3.9l71.2,189.4l-164.3-248.1l86.2-3.9L1832.7,660.1
			 M1832.7,648.1c-1.8,0-3.7,0.4-5.4,1.3c-5.4,2.8-7.9,9.2-5.8,14.9l65.4,174l-69.7,3.1c-4.3,0.2-8.2,2.7-10.2,6.5
			c-2,3.9-1.7,8.5,0.7,12.1l164.3,248.1c2.3,3.5,6.1,5.4,10,5.4c1.8,0,3.7-0.4,5.4-1.3c5.4-2.8,7.9-9.2,5.8-14.9l-65.4-174l69.7-3.1
			c4.3-0.2,8.2-2.7,10.2-6.5c2-3.9,1.7-8.5-0.7-12.1l-164.3-248.1C1840.4,650,1836.6,648.1,1832.7,648.1L1832.7,648.1z"/>
	</g>
	<circle id="XMLID_4_" fill="#FFFFFF" cx="1897" cy="290.4" r="213.6"/>
	<path id="XMLID_38_" fill="#E0E1E2" d="M2008.8,397.3c-60.5,60.5-158.6,60.5-219.1,0s-60.5-158.6,0-219.1L2008.8,397.3z"/>
	<g id="XMLID_8_">
		<g id="XMLID_37_">
			
				<line id="XMLID_132_" fill="none" stroke="#FFFFFF" stroke-width="16" stroke-linecap="round" stroke-linejoin="round" stroke-miterlimit="10" x1="1881.5" y1="176.1" x2="1879.2" y2="403.3"/>
			
				<line id="XMLID_131_" fill="none" stroke="#1E1D21" stroke-width="8" stroke-linecap="round" stroke-linejoin="round" stroke-miterlimit="10" x1="1881.5" y1="176.1" x2="1879.2" y2="403.3"/>
		</g>
		<g id="XMLID_33_">
			
				<line id="XMLID_130_" fill="none" stroke="#FFFFFF" stroke-width="16" stroke-linecap="round" stroke-linejoin="round" stroke-miterlimit="10" x1="1913.5" y1="176.4" x2="1911.3" y2="403.6"/>
			
				<line id="XMLID_129_" fill="none" stroke="#1E1D21" stroke-width="8" stroke-linecap="round" stroke-linejoin="round" stroke-miterlimit="10" x1="1913.5" y1="176.4" x2="1911.3" y2="403.6"/>
		</g>
		<g id="XMLID_29_">
			
				<path id="XMLID_128_" fill="none" stroke="#FFFFFF" stroke-width="16" stroke-linecap="round" stroke-linejoin="round" stroke-miterlimit="10" d="
				M1845.6,357.8c8.4,8.6,20.7,14.8,35,16.6l1.3,0.2l1.3,0.2l3.4,0.4l3.4,0.4c13.4,1.6,26.2-1.1,36.2-6.8
				c10-5.7,17.3-14.5,19.7-25.2v0v0c2-9,0.3-18.2-4.6-26.3c-4.8-8.1-12.7-15.1-22.9-19.7l-24.6-11.2l-24.6-11.2
				c-10.2-4.6-18.1-11.6-22.9-19.7c-4.8-8.1-6.6-17.3-4.6-26.3v0l0,0c2.4-10.6,9.7-19.4,19.7-25.2c10-5.7,22.8-8.4,36.2-6.8l3.4,0.4
				l3.4,0.4l1.3,0.2l1.3,0.2c14.2,1.7,26.5,7.9,35,16.6"/>
			
				<path id="XMLID_127_" fill="none" stroke="#1E1D21" stroke-width="8" stroke-linecap="round" stroke-linejoin="round" stroke-miterlimit="10" d="
				M1845.6,357.8c8.4,8.6,20.7,14.8,35,16.6l1.3,0.2l1.3,0.2l3.4,0.4l3.4,0.4c13.4,1.6,26.2-1.1,36.2-6.8
				c10-5.7,17.3-14.5,19.7-25.2v0v0c2-9,0.3-18.2-4.6-26.3c-4.8-8.1-12.7-15.1-22.9-19.7l-24.6-11.2l-24.6-11.2
				c-10.2-4.6-18.1-11.6-22.9-19.7c-4.8-8.1-6.6-17.3-4.6-26.3v0l0,0c2.4-10.6,9.7-19.4,19.7-25.2c10-5.7,22.8-8.4,36.2-6.8l3.4,0.4
				l3.4,0.4l1.3,0.2l1.3,0.2c14.2,1.7,26.5,7.9,35,16.6"/>
		</g>
		<g id="XMLID_13_">
			
				<line id="XMLID_126_" fill="none" stroke="#FFFFFF" stroke-width="16" stroke-linejoin="round" stroke-miterlimit="10" x1="1912.9" y1="242.5" x2="1911.9" y2="339.1"/>
			
				<line id="XMLID_125_" fill="none" stroke="#1E1D21" stroke-width="8" stroke-linecap="round" stroke-linejoin="round" stroke-miterlimit="10" x1="1912.9" y1="242.5" x2="1911.9" y2="339.1"/>
		</g>
		
			<line id="XMLID_12_" fill="none" stroke="#1E1D21" stroke-width="8" stroke-linejoin="round" stroke-miterlimit="10" x1="1913.5" y1="179.5" x2="1913" y2="229.9"/>
		
			<line id="XMLID_11_" fill="none" stroke="#1E1D21" stroke-width="8" stroke-linejoin="round" stroke-miterlimit="10" x1="1880.9" y1="231.6" x2="1881.4" y2="178.1"/>
		
			<line id="XMLID_10_" fill="none" stroke="#1E1D21" stroke-width="8" stroke-linejoin="round" stroke-miterlimit="10" x1="1911.8" y1="349.6" x2="1911.3" y2="400"/>
		
			<line id="XMLID_9_" fill="none" stroke="#1E1D21" stroke-width="8" stroke-linejoin="round" stroke-miterlimit="10" x1="1879.2" y1="401.8" x2="1879.8" y2="348.2"/>
	</g>
	
		<circle id="XMLID_278_" fill="none" stroke="#1E1D21" stroke-width="8" stroke-linecap="round" stroke-linejoin="round" stroke-miterlimit="10" cx="1896.6" cy="291.1" r="174.8"/>
	
		<circle id="XMLID_32_" fill="none" stroke="#1E1D21" stroke-width="8" stroke-linecap="round" stroke-linejoin="round" stroke-miterlimit="10" cx="1896.6" cy="291.1" r="154.9"/>
</g>
</svg>
