<?xml version="1.0" encoding="utf-8"?>
<!-- Generator: Adobe Illustrator 19.0.0, SVG Export Plug-In . SVG Version: 6.00 Build 0)  -->
<svg version="1.2" baseProfile="tiny" xmlns="http://www.w3.org/2000/svg" xmlns:xlink="http://www.w3.org/1999/xlink" x="0px"
	 y="0px" width="3812.2px" height="2033.4px" viewBox="0 0 3812.2 2033.4" xml:space="preserve">
<g id="achterWebsite">
	<rect id="XMLID_1899_" x="0.1" y="0" fill="#FFFFFF" width="3812" height="2033.4"/>
</g>
<g id="achterGroen">
</g>
<g id="verbindingen">
	<g id="XMLID_3779_">
	</g>
</g>
<g id="Laag_1">
</g>
<g id="Laag_4">
</g>
<g id="nrs">
	
		<line id="XMLID_3069_" fill="none" stroke="#D3D8DA" stroke-width="8" stroke-linejoin="round" stroke-miterlimit="10" x1="577.6" y1="1781.7" x2="577.6" y2="1854.9"/>
	
		<line id="XMLID_3051_" fill="none" stroke="#D3D8DA" stroke-width="8" stroke-linejoin="round" stroke-miterlimit="10" x1="667" y1="1781.7" x2="667" y2="1816.7"/>
	
		<line id="XMLID_3050_" fill="none" stroke="#D3D8DA" stroke-width="8" stroke-linejoin="round" stroke-miterlimit="10" x1="756.5" y1="1781.7" x2="756.5" y2="1816.7"/>
	
		<line id="XMLID_3049_" fill="none" stroke="#D3D8DA" stroke-width="8" stroke-linejoin="round" stroke-miterlimit="10" x1="398.8" y1="1781.7" x2="398.8" y2="1816.7"/>
	
		<line id="XMLID_3048_" fill="none" stroke="#D3D8DA" stroke-width="8" stroke-linejoin="round" stroke-miterlimit="10" x1="488.2" y1="1781.7" x2="488.2" y2="1816.7"/>
	
		<line id="XMLID_3047_" fill="none" stroke="#D3D8DA" stroke-width="8" stroke-linejoin="round" stroke-miterlimit="10" x1="845.9" y1="1781.7" x2="845.9" y2="1816.7"/>
	
		<line id="XMLID_3031_" fill="none" stroke="#D3D8DA" stroke-width="8" stroke-linejoin="round" stroke-miterlimit="10" x1="1024.7" y1="1781.7" x2="1024.7" y2="1816.7"/>
	
		<line id="XMLID_3030_" fill="none" stroke="#D3D8DA" stroke-width="8" stroke-linejoin="round" stroke-miterlimit="10" x1="1114.2" y1="1781.7" x2="1114.2" y2="1816.7"/>
	
		<line id="XMLID_3029_" fill="none" stroke="#D3D8DA" stroke-width="8" stroke-linejoin="round" stroke-miterlimit="10" x1="1203.6" y1="1781.7" x2="1203.6" y2="1816.7"/>
	
		<line id="XMLID_3028_" fill="none" stroke="#D3D8DA" stroke-width="8" stroke-linejoin="round" stroke-miterlimit="10" x1="1382.4" y1="1781.7" x2="1382.4" y2="1816.7"/>
	
		<line id="XMLID_3027_" fill="none" stroke="#D3D8DA" stroke-width="8" stroke-linejoin="round" stroke-miterlimit="10" x1="1471.9" y1="1781.7" x2="1471.9" y2="1816.7"/>
	
		<line id="XMLID_3022_" fill="none" stroke="#D3D8DA" stroke-width="8" stroke-linejoin="round" stroke-miterlimit="10" x1="1561.3" y1="1781.7" x2="1561.3" y2="1816.7"/>
	
		<line id="XMLID_3021_" fill="none" stroke="#D3D8DA" stroke-width="8" stroke-linejoin="round" stroke-miterlimit="10" x1="1740.1" y1="1781.7" x2="1740.1" y2="1816.7"/>
	
		<line id="XMLID_3020_" fill="none" stroke="#D3D8DA" stroke-width="8" stroke-linejoin="round" stroke-miterlimit="10" x1="1829.6" y1="1781.7" x2="1829.6" y2="1816.7"/>
	
		<line id="XMLID_3019_" fill="none" stroke="#D3D8DA" stroke-width="8" stroke-linejoin="round" stroke-miterlimit="10" x1="1919" y1="1781.7" x2="1919" y2="1816.7"/>
	
		<line id="XMLID_3018_" fill="none" stroke="#D3D8DA" stroke-width="8" stroke-linejoin="round" stroke-miterlimit="10" x1="2097.8" y1="1781.7" x2="2097.8" y2="1816.7"/>
	
		<line id="XMLID_3017_" fill="none" stroke="#D3D8DA" stroke-width="8" stroke-linejoin="round" stroke-miterlimit="10" x1="2187.3" y1="1781.7" x2="2187.3" y2="1816.7"/>
	
		<line id="XMLID_3016_" fill="none" stroke="#D3D8DA" stroke-width="8" stroke-linejoin="round" stroke-miterlimit="10" x1="2276.7" y1="1781.7" x2="2276.7" y2="1816.7"/>
	
		<line id="XMLID_3015_" fill="none" stroke="#D3D8DA" stroke-width="8" stroke-linejoin="round" stroke-miterlimit="10" x1="2455.5" y1="1781.7" x2="2455.5" y2="1816.7"/>
	
		<line id="XMLID_3014_" fill="none" stroke="#D3D8DA" stroke-width="8" stroke-linejoin="round" stroke-miterlimit="10" x1="2545" y1="1781.7" x2="2545" y2="1816.7"/>
	
		<line id="XMLID_3013_" fill="none" stroke="#D3D8DA" stroke-width="8" stroke-linejoin="round" stroke-miterlimit="10" x1="2634.4" y1="1781.7" x2="2634.4" y2="1816.7"/>
	
		<line id="XMLID_3000_" fill="none" stroke="#D3D8DA" stroke-width="8" stroke-linejoin="round" stroke-miterlimit="10" x1="2813.2" y1="1781.7" x2="2813.2" y2="1816.7"/>
	
		<line id="XMLID_2994_" fill="none" stroke="#D3D8DA" stroke-width="8" stroke-linejoin="round" stroke-miterlimit="10" x1="2902.7" y1="1781.7" x2="2902.7" y2="1816.7"/>
	
		<line id="XMLID_2993_" fill="none" stroke="#D3D8DA" stroke-width="8" stroke-linejoin="round" stroke-miterlimit="10" x1="2992.1" y1="1781.7" x2="2992.1" y2="1816.7"/>
	
		<line id="XMLID_2992_" fill="none" stroke="#D3D8DA" stroke-width="8" stroke-linejoin="round" stroke-miterlimit="10" x1="309.3" y1="1781.7" x2="309.3" y2="1816.7"/>
	
		<line id="XMLID_2990_" fill="none" stroke="#D3D8DA" stroke-width="8" stroke-linejoin="round" stroke-miterlimit="10" x1="935.3" y1="1781.7" x2="935.3" y2="1854.9"/>
	
		<line id="XMLID_2989_" fill="none" stroke="#D3D8DA" stroke-width="8" stroke-linejoin="round" stroke-miterlimit="10" x1="1293" y1="1781.7" x2="1293" y2="1854.9"/>
	
		<line id="XMLID_2975_" fill="none" stroke="#D3D8DA" stroke-width="8" stroke-linejoin="round" stroke-miterlimit="10" x1="1650.7" y1="1781.7" x2="1650.7" y2="1854.9"/>
	
		<line id="XMLID_2974_" fill="none" stroke="#D3D8DA" stroke-width="8" stroke-linejoin="round" stroke-miterlimit="10" x1="2008.4" y1="1781.7" x2="2008.4" y2="1854.9"/>
	
		<line id="XMLID_2973_" fill="none" stroke="#D3D8DA" stroke-width="8" stroke-linejoin="round" stroke-miterlimit="10" x1="2366.1" y1="1781.7" x2="2366.1" y2="1854.9"/>
	
		<line id="XMLID_2972_" fill="none" stroke="#D3D8DA" stroke-width="8" stroke-linejoin="round" stroke-miterlimit="10" x1="2723.8" y1="1781.7" x2="2723.8" y2="1854.9"/>
	
		<line id="XMLID_2971_" fill="none" stroke="#D3D8DA" stroke-width="8" stroke-linejoin="round" stroke-miterlimit="10" x1="3081.5" y1="1781.7" x2="3081.5" y2="1854.9"/>
	<path id="XMLID_2935_" fill="none" stroke="#D3D8DA" stroke-width="8" stroke-linejoin="round" stroke-miterlimit="10" d="
		M225.1,219.7h2949.9 M225.1,374.5h2949.9 M225.1,529.4h2949.9 M225.1,684.3h2949.9 M225.1,843.8h2949.9 M225.1,998.6h2949.9
		 M225.1,1153.5h2949.9 M225.1,1313h2949.9 M225.1,1467.8h2949.9 M225.1,1622.7h2949.9"/>
	<g id="XMLID_2922_">
		<g id="XMLID_160_">
			
				<line id="XMLID_161_" fill="none" stroke="#FFFFFF" stroke-width="8" stroke-linejoin="round" stroke-miterlimit="10" x1="225.1" y1="1777.6" x2="3174.9" y2="1777.6"/>
		</g>
		<g id="XMLID_158_">
			
				<line id="XMLID_159_" fill="none" stroke="#D3D8DA" stroke-width="8" stroke-linejoin="round" stroke-miterlimit="10" x1="225.1" y1="1777.6" x2="3174.9" y2="1777.6"/>
		</g>
	</g>
	<g id="XMLID_2920_">
		
			<polyline id="XMLID_2921_" fill="none" stroke="#99CC33" stroke-width="12" stroke-linecap="round" stroke-linejoin="round" stroke-miterlimit="10" points="
			268.3,1752.6 358,1748 447.7,1725.2 537.4,1629.6 627,1511.1 716.7,1383.6 806.4,1301.6 896.1,1210.5 985.8,1101.1 1075.4,959.9 
			1161.9,982.7 1251.6,891.6 1341.3,777.7 1431,645.6 1520.6,691.1 1610.3,618.3 1700,545.4 1789.7,499.8 1879.4,563.6 1965.8,518 
			2055.5,472.5 2145.2,477 2234.9,590.9 2324.6,549.9 2414.3,495.3 2503.9,454.3 2593.6,518 2683.3,467.9 2769.8,431.5 
			2859.5,408.7 2949.1,504.4 3038.8,436 3128.5,408.7 		"/>
	</g>
	<polyline id="XMLID_2919_" fill="none" stroke="#62ACC9" stroke-width="12" stroke-miterlimit="10" points="268.3,1615.9 
		358,1574.9 447.7,1511.1 537.4,1538.4 627,1561.2 716.7,1520.2 806.4,1533.9 896.1,1515.7 985.8,1497.5 1075.4,1547.6 
		1161.9,1406.3 1251.6,1429.1 1341.3,1483.8 1431,1556.7 1520.6,1451.9 1610.3,1497.5 1700,1556.7 1789.7,1588.6 1879.4,1502 
		1965.8,1538.4 2055.5,1588.6 2145.2,1584 2234.9,1461 2324.6,1502 2414.3,1552.1 2503.9,1574.9 2593.6,1502 2683.3,1547.6 
		2769.8,1579.4 2859.5,1602.2 2949.1,1502 3038.8,1565.8 3128.5,1588.6 	"/>
	<g id="XMLID_2904_">
		
			<polyline id="XMLID_2918_" fill="none" stroke="#D8B921" stroke-width="12" stroke-linecap="round" stroke-linejoin="round" stroke-miterlimit="10" points="
			268.3,1620.4 358,1638.7 447.7,1656.9 537.4,1675.1 627,1702.4 716.7,1738.9 806.4,1725.2 896.1,1738.9 985.8,1752.6 
			1075.4,1757.1 1161.9,1748 1251.6,1748 1341.3,1738.9 1431,1743.4 1520.6,1734.3 1610.3,1734.3 1700,1729.8 1789.7,1725.2 
			1879.4,1734.3 1965.8,1738.9 2055.5,1734.3 2145.2,1734.3 2234.9,1734.3 2324.6,1738.9 2414.3,1738.9 2503.9,1752.6 
			2593.6,1761.7 2683.3,1770.8 2769.8,1770.8 2859.5,1775.3 2949.1,1775.3 3038.8,1779.9 3128.5,1779.9 		"/>
	</g>
	<g id="XMLID_2807_">
		
			<polyline id="XMLID_2857_" fill="none" stroke="#F99900" stroke-width="12" stroke-linecap="round" stroke-linejoin="round" stroke-miterlimit="10" points="
			268.3,1456.5 358,1483.8 447.7,1456.5 537.4,1470.1 627,1488.3 716.7,1538.4 806.4,1552.1 896.1,1574.9 985.8,1597.7 
			1075.4,1606.8 1161.9,1643.2 1251.6,1675.1 1341.3,1697.9 1431,1697.9 1520.6,1725.2 1610.3,1734.3 1700,1738.9 1789.7,1752.6 
			1879.4,1770.8 1965.8,1770.8 2055.5,1770.8 2145.2,1766.2 2234.9,1770.8 2324.6,1775.3 2414.3,1775.3 2503.9,1775.3 
			2593.6,1775.3 2683.3,1775.3 2769.8,1779.9 2859.5,1779.9 2949.1,1779.9 3038.8,1779.9 3128.5,1779.9 		"/>
	</g>
	<polyline id="XMLID_2773_" fill="none" stroke="#B17D9F" stroke-width="12" stroke-miterlimit="10" points="268.3,1019.1 
		358,982.7 447.7,1082.9 537.4,1087.5 627,1142.1 716.7,1210.5 806.4,1274.2 896.1,1347.1 985.8,1433.7 1075.4,1515.7 
		1161.9,1597.7 1251.6,1647.8 1341.3,1688.8 1431,1738.9 1520.6,1761.7 1610.3,1770.8 1700,1775.3 1789.7,1775.3 1879.4,1770.8 
		1965.8,1779.9 2055.5,1779.9 2145.2,1779.9 2234.9,1779.9 2324.6,1779.9 2414.3,1779.9 2503.9,1779.9 2593.6,1779.9 2683.3,1779.9 
		2769.8,1779.9 2859.5,1779.9 2949.1,1779.9 3038.8,1779.9 3128.5,1779.9 	"/>
	<path id="XMLID_2672_" fill="#62ACC9" d="M3533.3,703.3c-1.6,0-3.3,0-4.9,0c-4.9-1.8-9.7-4.3-14.8-5.2c-7.2-1.3-14.8-2.6-22-1.7
		c-6.6,0.8-12.9,4.5-19.3,6.9c-2.8,0-5.7,0-8.5,0c-4.7-3.4-10.2-6-14-10.2c-21.4-24-33-52.1-30.9-84.6c1.2-18.8,9-34.5,26.2-44.1
		c11-6.2,23-8.1,34.6-2.7c12.2,5.6,23.6,6,35.5-0.1c3.2-1.6,6.9-2.3,10.5-2.9c16.2-2.8,35.9,5.9,42.5,18.8
		c-13.1,9.5-20.9,22-19.8,38.8c1.1,17,10.5,28.5,25.9,36.5c-3.3,6.9-5.8,13.8-9.6,20C3556.8,685.4,3549.3,698.8,3533.3,703.3z
		 M3530.9,511.7c-7.4,4-15.7,7-22,12.3c-9.3,7.8-13.8,18.6-13,31.6c9,0.9,16-2.4,22.3-7.4c11.6-9.3,16.3-21.9,16.3-36.5
		C3533.3,511.7,3532.1,511.7,3530.9,511.7z"/>
	<g id="XMLID_2594_">
		<g id="XMLID_2599_">
			<path id="XMLID_2671_" fill="#99CC33" d="M3472.8,342.1L3472.8,342.1c-7.4,0-13.4-6-13.4-13.4v-60.9c0-7.4,6-13.4,13.4-13.4l0,0
				c7.4,0,13.4,6,13.4,13.4v60.9C3486.2,336.1,3480.2,342.1,3472.8,342.1z"/>
			<path id="XMLID_2670_" fill="#99CC33" d="M3520,342.1L3520,342.1c-7.4,0-13.4-6-13.4-13.4v-60.9c0-7.4,6-13.4,13.4-13.4l0,0
				c7.4,0,13.4,6,13.4,13.4v60.9C3533.4,336.1,3527.4,342.1,3520,342.1z"/>
			<path id="XMLID_2669_" fill="#99CC33" d="M3413.9,274.6L3413.9,274.6c-7.4,0-13.4-6-13.4-13.4v-60.9c0-7.4,6-13.4,13.4-13.4l0,0
				c7.4,0,13.4,6,13.4,13.4v60.9C3427.3,268.6,3421.3,274.6,3413.9,274.6z"/>
			<path id="XMLID_2660_" fill="#99CC33" d="M3578.9,274.6L3578.9,274.6c-7.4,0-13.4-6-13.4-13.4v-60.9c0-7.4,6-13.4,13.4-13.4l0,0
				c7.4,0,13.4,6,13.4,13.4v60.9C3592.3,268.6,3586.3,274.6,3578.9,274.6z"/>
			<g id="XMLID_2602_">
				<path id="XMLID_155_" fill="#99CC33" d="M3496.2,127.5c-32.8,0-59.7,25.4-62.1,57.7h124.2C3555.9,152.9,3529,127.5,3496.2,127.5
					z M3433.9,190.4v91.8c0,7.5,6.1,13.7,13.7,13.7h97.3c7.5,0,13.7-6.1,13.7-13.7v-91.8H3433.9z"/>
			</g>
			<path id="XMLID_2601_" fill="#99CC33" d="M3522.2,140.6L3522.2,140.6c-1.2-0.7-1.6-2.2-0.9-3.4l12.7-21.9
				c0.7-1.2,2.2-1.6,3.4-0.9l0,0c1.2,0.7,1.6,2.2,0.9,3.4l-12.7,21.9C3524.9,140.9,3523.4,141.3,3522.2,140.6z"/>
			<path id="XMLID_2600_" fill="#99CC33" d="M3470.6,140.6L3470.6,140.6c1.2-0.7,1.6-2.2,0.9-3.4l-12.7-21.9
				c-0.7-1.2-2.2-1.6-3.4-0.9l0,0c-1.2,0.7-1.6,2.2-0.9,3.4l12.7,21.9C3467.9,140.9,3469.5,141.3,3470.6,140.6z"/>
		</g>
		<g id="XMLID_2595_">
			<circle id="XMLID_2597_" fill="#FFFFFF" cx="3467.6" cy="158.1" r="5.1"/>
			<circle id="XMLID_2596_" fill="#FFFFFF" cx="3524.7" cy="158.1" r="5.1"/>
		</g>
	</g>
	<g id="XMLID_2593_">
		<path id="path5_1_" fill="#D8B921" d="M3486.6,888.4c42.1-6.4,84.2-12.5,126.3-18.3c0,36.9,0,73.8,0,110.8
			c-42.1,0.2-84.2,0.8-126.4,0.9C3486.6,950.6,3486.6,919.5,3486.6,888.4L3486.6,888.4z"/>
		<path id="path7_1_" fill="#D8B921" d="M3379.8,903.3c31.7-4.9,63.5-9.1,95.3-13.1c0,30.6,0,61.2,0.1,91.9
			c-31.8,0-63.6,0.5-95.3,0.4V903.3L3379.8,903.3z"/>
		<path id="path29_1_" fill="#D8B921" d="M3379.8,992.1c31.8-0.1,63.5,0.4,95.3,0.3c0,30.7,0.1,61.4,0,92.1
			c-31.7-4.7-63.5-8.8-95.3-13.1V992.1z"/>
		<path id="path31_1_" fill="#D8B921" d="M3486.5,993.3c42.2,0,84.4,0,126.5,0c0.1,36.8,0,73.6,0,110.5
			c-42.1-6.3-84.2-12.1-126.3-17.9C3486.6,1055.1,3486.5,1024.2,3486.5,993.3z"/>
	</g>
	<polygon id="XMLID_2592_" fill="#B17D9F" points="3371.8,1761.5 3371.8,1714.9 3390,1714.8 3390.1,1776.9 3358.5,1776.9 
		3320.5,1730 3320.4,1776.8 3302.2,1776.9 3302,1714.9 3302.2,1714.8 3333.9,1714.8 3371.8,1761.5 	"/>
	<path id="XMLID_2591_" fill="#B17D9F" d="M3594,1714.9l0.2,62.1h-19.4l-0.1-62l0.2-0.2C3581.3,1714.8,3587.7,1714.7,3594,1714.9
		L3594,1714.9z"/>
	<polygon id="XMLID_2590_" fill="#B17D9F" points="3507.1,1744.8 3507.2,1744.9 3509.6,1742.9 3540.6,1714.9 3566.4,1714.9 
		3530.9,1745 3531,1745.3 3571,1776.8 3542.8,1776.9 3507.3,1745.1 3507.1,1745.4 3507.1,1776.9 3487.7,1776.9 3487.7,1714.9 
		3507.1,1714.9 3507.1,1744.8 	"/>
	<path id="XMLID_2587_" fill="#B17D9F" d="M3457.5,1714.1c8,0.3,16.7,0.9,21,8.8c1,2.2,1.5,4.5,1.4,7.2l-0.1,33.7
		c-0.2,4.5-3.4,8.5-7.3,10.7c-8.4,3.7-18.7,2.8-28.5,3c-11.6-0.2-23.5,0.6-34.3-1.4c-4.8-0.7-9.9-4.7-11.2-9.5l-0.7-3.9l0.2-35.8
		c0.2-4.5,4.1-8.5,7.9-10.5c6.2-2.6,13.8-2.3,21-2.6L3457.5,1714.1L3457.5,1714.1z M3419.4,1729.5c-1.6,0.3-3.7,1-3.9,2.8
		c0,9.2-0.2,18.7,0.2,27.8c0.6,1.5,2.3,1.4,3.5,1.8l35,0.1c3-0.2,6.6,0.5,8.2-2.5l0.1-26.2l-0.2-2c-0.5-1.2-1.7-1.4-2.8-1.7
		L3419.4,1729.5L3419.4,1729.5z"/>
	<path id="XMLID_2583_" fill="#B17D9F" d="M3690.8,1776.7v0.2h-21.4c-1.9-3.6-3.9-7-5.7-10.5l-0.4-0.2h-38l-5.8,10.5l-21.7,0.2
		l34.1-62.1h25.1L3690.8,1776.7L3690.8,1776.7z M3644.4,1730.4l-11.9,22.1h23.9C3652.3,1745.2,3648.3,1737.7,3644.4,1730.4
		L3644.4,1730.4z"/>
	<g id="XMLID_2569_">
		<path id="XMLID_2570_" fill="#F99900" d="M3597.7,1359.6c-18.2,0-37.9,0-37.9,0l10.3-47.8c0,0,26.7,0,36.4,0
			c23.6,0,29.2,11.6,29.2,20.8C3635.7,1345.6,3627.3,1359.6,3597.7,1359.6z M3621.6,1400.7c0,13-8.4,27-38,27c-18.2,0-37.9,0-37.9,0
			l10.3-47.8c0,0,26.7,0,36.4,0C3616,1379.9,3621.6,1391.5,3621.6,1400.7z M3509.5,1316.8c-18.2,0-37.9,0-37.9,0l10.3-47.8
			c0,0,26.6,0,36.3,0c23.6,0,29.3,11.6,29.3,20.8C3547.6,1302.8,3539.1,1316.8,3509.5,1316.8z M3534.4,1361.8c0,13-8.4,27-38,27
			c-18.2,0-37.9,0-37.9,0l10.3-47.8c0,0,26.7,0,36.4,0C3528.8,1341,3534.4,1352.6,3534.4,1361.8z M3520.3,1436.7c0,13-8.4,27-38,27
			c-18.3,0-37.9,0-37.9,0l10.3-47.8c0,0,26.7,0,36.4,0C3514.7,1415.9,3520.3,1427.5,3520.3,1436.7z M3408.1,1316.8
			c-18.2,0-37.8,0-37.8,0l10.3-47.8c0,0,26.7,0,36.4,0c23.6,0,29.3,11.6,29.3,20.8C3446.2,1302.8,3437.7,1316.8,3408.1,1316.8z
			 M3433.1,1361.8c0,13-8.5,27-38,27c-18.3,0-37.9,0-37.9,0l10.3-47.8c0,0,26.7,0,36.4,0C3427.4,1341,3433.1,1352.6,3433.1,1361.8z"
			/>
	</g>
</g>
<g id="typo">
	<g id="XMLID_558_">
		<g id="XMLID_150_">
			<path id="XMLID_151_" fill="#909DA1" d="M161.9,1756.9c0-3.4,1.1-6,3.2-7.9c2.1-1.9,4.6-2.8,7.3-2.8c2.7,0,5.2,0.9,7.3,2.8
				s3.2,4.5,3.2,7.9v16.3c0,3.4-1.1,6-3.2,7.9c-2.1,1.8-4.6,2.8-7.3,2.8c-2.7,0-5.2-0.9-7.3-2.8c-2.1-1.8-3.2-4.5-3.2-7.9V1756.9z
				 M177.6,1757.2c0-1.8-0.5-3.2-1.4-4.2c-1-1-2.2-1.5-3.8-1.5c-1.6,0-2.8,0.5-3.8,1.5c-1,1-1.4,2.4-1.4,4.2v15.7
				c0,1.8,0.5,3.2,1.4,4.2c1,1,2.2,1.5,3.8,1.5c1.6,0,2.8-0.5,3.8-1.5c1-1,1.4-2.4,1.4-4.2V1757.2z"/>
		</g>
	</g>
	<g id="XMLID_556_">
		<g id="XMLID_144_">
			<path id="XMLID_145_" fill="#909DA1" d="M143.7,1592.7l-5.3,3.8v-5.6l5.3-3.8h5.3v37h-5.3V1592.7z"/>
			<path id="XMLID_147_" fill="#909DA1" d="M161.9,1597.4c0-3.4,1.1-6,3.2-7.9c2.1-1.9,4.6-2.8,7.3-2.8c2.7,0,5.2,0.9,7.3,2.8
				s3.2,4.5,3.2,7.9v16.3c0,3.4-1.1,6-3.2,7.9c-2.1,1.8-4.6,2.8-7.3,2.8c-2.7,0-5.2-0.9-7.3-2.8c-2.1-1.8-3.2-4.5-3.2-7.9V1597.4z
				 M177.6,1597.8c0-1.8-0.5-3.2-1.4-4.2c-1-1-2.2-1.5-3.8-1.5c-1.6,0-2.8,0.5-3.8,1.5c-1,1-1.4,2.4-1.4,4.2v15.7
				c0,1.8,0.5,3.2,1.4,4.2c1,1,2.2,1.5,3.8,1.5c1.6,0,2.8-0.5,3.8-1.5c1-1,1.4-2.4,1.4-4.2V1597.8z"/>
		</g>
	</g>
	<g id="XMLID_554_">
		<g id="XMLID_133_">
			<path id="XMLID_134_" fill="#909DA1" d="M347.4,1923.7l14.5-18.1c0.6-0.7,1-1.4,1.1-2c0.2-0.6,0.2-1.2,0.2-1.7c0,0,0-0.1,0-0.1
				c0,0,0,0,0-0.1c0-1.3-0.5-2.5-1.4-3.5c-0.9-1.1-2.1-1.6-3.7-1.6c-1.4,0-2.6,0.5-3.7,1.4s-1.6,2.3-1.7,3.9h-5.3
				c0-3,1.1-5.5,3.1-7.6c2-2,4.4-3.1,7.2-3.1c3.1,0,5.7,1,7.7,3.1c2.1,2.1,3.1,4.6,3.1,7.5c0,1.2-0.2,2.4-0.5,3.4
				c-0.3,1.1-0.9,2.1-1.7,3.1l-11.9,14.9h14.1v5.3h-21.1V1923.7z"/>
			<path id="XMLID_136_" fill="#909DA1" d="M374,1902c0-3.4,1.1-6,3.2-7.9c2.1-1.9,4.6-2.8,7.3-2.8c2.7,0,5.2,0.9,7.3,2.8
				s3.2,4.5,3.2,7.9v16.3c0,3.4-1.1,6-3.2,7.9c-2.1,1.8-4.6,2.8-7.3,2.8c-2.7,0-5.2-0.9-7.3-2.8c-2.1-1.8-3.2-4.5-3.2-7.9V1902z
				 M389.7,1902.3c0-1.8-0.5-3.2-1.4-4.2c-1-1-2.2-1.5-3.8-1.5c-1.6,0-2.8,0.5-3.8,1.5c-1,1-1.4,2.4-1.4,4.2v15.7
				c0,1.8,0.5,3.2,1.4,4.2c1,1,2.2,1.5,3.8,1.5c1.6,0,2.8-0.5,3.8-1.5c1-1,1.4-2.4,1.4-4.2V1902.3z"/>
			<path id="XMLID_139_" fill="#909DA1" d="M408.4,1897.2l-5.3,3.8v-5.6l5.3-3.8h5.3v37h-5.3V1897.2z"/>
			<path id="XMLID_141_" fill="#909DA1" d="M426.5,1902c0-3.4,1.1-6,3.2-7.9c2.1-1.9,4.6-2.8,7.3-2.8s5.2,0.9,7.3,2.8
				c2.1,1.9,3.2,4.5,3.2,7.9v16.3c0,3.4-1.1,6-3.2,7.9c-2.1,1.8-4.6,2.8-7.3,2.8s-5.2-0.9-7.3-2.8c-2.1-1.8-3.2-4.5-3.2-7.9V1902z
				 M442.2,1902.3c0-1.8-0.5-3.2-1.4-4.2s-2.2-1.5-3.8-1.5s-2.8,0.5-3.8,1.5c-1,1-1.4,2.4-1.4,4.2v15.7c0,1.8,0.5,3.2,1.4,4.2
				c1,1,2.2,1.5,3.8,1.5s2.8-0.5,3.8-1.5c1-1,1.4-2.4,1.4-4.2V1902.3z"/>
		</g>
	</g>
	<g id="XMLID_551_">
		<g id="XMLID_123_">
			<path id="XMLID_124_" fill="#909DA1" d="M705.1,1923.7l14.5-18.1c0.6-0.7,1-1.4,1.1-2c0.2-0.6,0.2-1.2,0.2-1.7c0,0,0-0.1,0-0.1
				c0,0,0,0,0-0.1c0-1.3-0.5-2.5-1.4-3.5c-0.9-1.1-2.1-1.6-3.7-1.6c-1.4,0-2.6,0.5-3.7,1.4s-1.6,2.3-1.7,3.9h-5.3
				c0-3,1.1-5.5,3.1-7.6c2-2,4.4-3.1,7.2-3.1c3.1,0,5.7,1,7.7,3.1c2.1,2.1,3.1,4.6,3.1,7.5c0,1.2-0.2,2.4-0.5,3.4
				c-0.3,1.1-0.9,2.1-1.7,3.1l-11.9,14.9h14.1v5.3h-21.1V1923.7z"/>
			<path id="XMLID_126_" fill="#909DA1" d="M731.7,1902c0-3.4,1.1-6,3.2-7.9c2.1-1.9,4.6-2.8,7.3-2.8c2.7,0,5.2,0.9,7.3,2.8
				c2.1,1.9,3.2,4.5,3.2,7.9v16.3c0,3.4-1.1,6-3.2,7.9c-2.1,1.8-4.6,2.8-7.3,2.8c-2.7,0-5.2-0.9-7.3-2.8c-2.1-1.8-3.2-4.5-3.2-7.9
				V1902z M747.4,1902.3c0-1.8-0.5-3.2-1.4-4.2c-1-1-2.2-1.5-3.8-1.5s-2.8,0.5-3.8,1.5s-1.4,2.4-1.4,4.2v15.7c0,1.8,0.5,3.2,1.4,4.2
				c1,1,2.2,1.5,3.8,1.5s2.8-0.5,3.8-1.5c1-1,1.4-2.4,1.4-4.2V1902.3z"/>
			<path id="XMLID_129_" fill="#909DA1" d="M766.1,1897.2l-5.3,3.8v-5.6l5.3-3.8h5.3v37h-5.3V1897.2z"/>
			<path id="XMLID_131_" fill="#909DA1" d="M792.3,1897.2l-5.3,3.8v-5.6l5.3-3.8h5.3v37h-5.3V1897.2z"/>
		</g>
	</g>
	<g id="XMLID_549_">
		<g id="XMLID_113_">
			<path id="XMLID_114_" fill="#909DA1" d="M1062.8,1923.7l14.5-18.1c0.6-0.7,1-1.4,1.1-2c0.2-0.6,0.2-1.2,0.2-1.7c0,0,0-0.1,0-0.1
				c0,0,0,0,0-0.1c0-1.3-0.5-2.5-1.4-3.5c-0.9-1.1-2.1-1.6-3.7-1.6c-1.4,0-2.6,0.5-3.7,1.4c-1,1-1.6,2.3-1.7,3.9h-5.3
				c0-3,1.1-5.5,3.1-7.6c2-2,4.4-3.1,7.2-3.1c3.1,0,5.7,1,7.7,3.1c2.1,2.1,3.1,4.6,3.1,7.5c0,1.2-0.2,2.4-0.5,3.4
				c-0.3,1.1-0.9,2.1-1.7,3.1l-11.9,14.9h14.1v5.3h-21.1V1923.7z"/>
			<path id="XMLID_116_" fill="#909DA1" d="M1089.4,1902c0-3.4,1.1-6,3.2-7.9c2.1-1.9,4.6-2.8,7.3-2.8s5.2,0.9,7.3,2.8
				c2.1,1.9,3.2,4.5,3.2,7.9v16.3c0,3.4-1.1,6-3.2,7.9c-2.1,1.8-4.6,2.8-7.3,2.8s-5.2-0.9-7.3-2.8c-2.1-1.8-3.2-4.5-3.2-7.9V1902z
				 M1105.1,1902.3c0-1.8-0.5-3.2-1.4-4.2s-2.2-1.5-3.8-1.5s-2.8,0.5-3.8,1.5c-1,1-1.4,2.4-1.4,4.2v15.7c0,1.8,0.5,3.2,1.4,4.2
				c1,1,2.2,1.5,3.8,1.5s2.8-0.5,3.8-1.5c1-1,1.4-2.4,1.4-4.2V1902.3z"/>
			<path id="XMLID_119_" fill="#909DA1" d="M1123.8,1897.2l-5.3,3.8v-5.6l5.3-3.8h5.3v37h-5.3V1897.2z"/>
			<path id="XMLID_121_" fill="#909DA1" d="M1141.6,1923.7l14.5-18.1c0.6-0.7,1-1.4,1.1-2c0.2-0.6,0.2-1.2,0.2-1.7c0,0,0-0.1,0-0.1
				c0,0,0,0,0-0.1c0-1.3-0.5-2.5-1.4-3.5c-0.9-1.1-2.1-1.6-3.7-1.6c-1.4,0-2.6,0.5-3.7,1.4c-1,1-1.6,2.3-1.7,3.9h-5.3
				c0-3,1.1-5.5,3.1-7.6s4.4-3.1,7.2-3.1c3.1,0,5.7,1,7.7,3.1c2.1,2.1,3.1,4.6,3.1,7.5c0,1.2-0.2,2.4-0.5,3.4
				c-0.3,1.1-0.9,2.1-1.7,3.1l-11.9,14.9h14.1v5.3h-21.1V1923.7z"/>
		</g>
	</g>
	<g id="XMLID_542_">
		<g id="XMLID_103_">
			<path id="XMLID_104_" fill="#909DA1" d="M1420.5,1923.7l14.5-18.1c0.6-0.7,1-1.4,1.1-2c0.2-0.6,0.2-1.2,0.2-1.7c0,0,0-0.1,0-0.1
				c0,0,0,0,0-0.1c0-1.3-0.5-2.5-1.4-3.5c-0.9-1.1-2.1-1.6-3.7-1.6c-1.4,0-2.6,0.5-3.7,1.4s-1.6,2.3-1.7,3.9h-5.3
				c0-3,1.1-5.5,3.1-7.6c2-2,4.4-3.1,7.2-3.1c3.1,0,5.7,1,7.7,3.1c2.1,2.1,3.1,4.6,3.1,7.5c0,1.2-0.2,2.4-0.5,3.4
				c-0.3,1.1-0.9,2.1-1.7,3.1l-11.9,14.9h14.1v5.3h-21.1V1923.7z"/>
			<path id="XMLID_106_" fill="#909DA1" d="M1447.1,1902c0-3.4,1.1-6,3.2-7.9c2.1-1.9,4.6-2.8,7.3-2.8c2.7,0,5.2,0.9,7.3,2.8
				c2.1,1.9,3.2,4.5,3.2,7.9v16.3c0,3.4-1.1,6-3.2,7.9c-2.1,1.8-4.6,2.8-7.3,2.8c-2.7,0-5.2-0.9-7.3-2.8c-2.1-1.8-3.2-4.5-3.2-7.9
				V1902z M1462.8,1902.3c0-1.8-0.5-3.2-1.4-4.2c-1-1-2.2-1.5-3.8-1.5s-2.8,0.5-3.8,1.5s-1.4,2.4-1.4,4.2v15.7
				c0,1.8,0.5,3.2,1.4,4.2c1,1,2.2,1.5,3.8,1.5s2.8-0.5,3.8-1.5c1-1,1.4-2.4,1.4-4.2V1902.3z"/>
			<path id="XMLID_109_" fill="#909DA1" d="M1481.5,1897.2l-5.3,3.8v-5.6l5.3-3.8h5.3v37h-5.3V1897.2z"/>
			<path id="XMLID_111_" fill="#909DA1" d="M1506.8,1907.2h1.8c1.8,0,3.2-0.5,4.2-1.5c1-1,1.5-2.3,1.5-3.7c0-1.5-0.5-2.8-1.6-3.8
				c-1.1-1-2.3-1.5-3.8-1.5c0,0-0.1,0-0.1,0s-0.1,0-0.1,0c-1.1,0-2.1,0.4-3,1.2c-1,0.7-1.6,1.8-1.8,3.3h-5.3
				c0.2-2.6,1.3-4.9,3.3-6.9s4.3-2.9,6.9-2.9c3.3,0,5.9,1.1,7.9,3.3c2,2.2,3,4.6,3,7.3c0,0.1,0,0.1,0,0.2c0,0.1,0,0.2,0,0.2
				c-0.1,1.3-0.4,2.6-0.9,3.9c-0.6,1.3-1.6,2.4-3,3.3c1.4,0.9,2.5,2,3.2,3.3c0.7,1.3,1.1,2.6,1.1,4c0,0.1,0.1,0.3,0.1,0.4
				c0,0.1,0,0.3,0,0.4c0,3.4-1.1,6.2-3.3,8.2c-2.2,2-4.8,3.1-8,3.1c-2.5,0-4.8-0.8-6.8-2.4c-2-1.6-3.3-4-3.7-7h5.3
				c0.5,1.3,1.2,2.3,2,3.1c0.8,0.8,2,1.1,3.5,1.1c1.5,0,2.8-0.5,3.9-1.6c1.1-1.1,1.7-2.5,1.7-4.3c0-1.8-0.6-3.3-1.7-4.3
				c-1.1-1-2.5-1.6-4-1.6h-2.2V1907.2z"/>
		</g>
	</g>
	<g id="XMLID_540_">
		<g id="XMLID_93_">
			<path id="XMLID_94_" fill="#909DA1" d="M1778.2,1923.7l14.5-18.1c0.6-0.7,1-1.4,1.1-2c0.2-0.6,0.2-1.2,0.2-1.7c0,0,0-0.1,0-0.1
				c0,0,0,0,0-0.1c0-1.3-0.5-2.5-1.4-3.5c-0.9-1.1-2.1-1.6-3.7-1.6c-1.4,0-2.6,0.5-3.7,1.4s-1.6,2.3-1.7,3.9h-5.3
				c0-3,1.1-5.5,3.1-7.6c2-2,4.4-3.1,7.2-3.1c3.1,0,5.7,1,7.7,3.1c2.1,2.1,3.1,4.6,3.1,7.5c0,1.2-0.2,2.4-0.5,3.4
				c-0.3,1.1-0.9,2.1-1.7,3.1l-11.9,14.9h14.1v5.3h-21.1V1923.7z"/>
			<path id="XMLID_96_" fill="#909DA1" d="M1804.8,1902c0-3.4,1.1-6,3.2-7.9c2.1-1.9,4.6-2.8,7.3-2.8c2.7,0,5.2,0.9,7.3,2.8
				c2.1,1.9,3.2,4.5,3.2,7.9v16.3c0,3.4-1.1,6-3.2,7.9c-2.1,1.8-4.6,2.8-7.3,2.8c-2.7,0-5.2-0.9-7.3-2.8c-2.1-1.8-3.2-4.5-3.2-7.9
				V1902z M1820.5,1902.3c0-1.8-0.5-3.2-1.4-4.2c-1-1-2.2-1.5-3.8-1.5c-1.6,0-2.8,0.5-3.8,1.5s-1.4,2.4-1.4,4.2v15.7
				c0,1.8,0.5,3.2,1.4,4.2c1,1,2.2,1.5,3.8,1.5c1.6,0,2.8-0.5,3.8-1.5c1-1,1.4-2.4,1.4-4.2V1902.3z"/>
			<path id="XMLID_99_" fill="#909DA1" d="M1839.2,1897.2l-5.3,3.8v-5.6l5.3-3.8h5.3v37h-5.3V1897.2z"/>
			<path id="XMLID_101_" fill="#909DA1" d="M1856,1918.1l12.4-26.5h5.9l-12.5,26.5h9.7v-10.7h5.3v10.7h3v5h-3v5.5h-5.3v-5.5H1856
				V1918.1z"/>
		</g>
	</g>
	<g id="XMLID_533_">
		<g id="XMLID_83_">
			<path id="XMLID_84_" fill="#909DA1" d="M2135.9,1923.7l14.5-18.1c0.6-0.7,1-1.4,1.1-2c0.2-0.6,0.2-1.2,0.2-1.7c0,0,0-0.1,0-0.1
				c0,0,0,0,0-0.1c0-1.3-0.5-2.5-1.4-3.5c-0.9-1.1-2.1-1.6-3.7-1.6c-1.4,0-2.6,0.5-3.7,1.4c-1,1-1.6,2.3-1.7,3.9h-5.3
				c0-3,1.1-5.5,3.1-7.6c2-2,4.4-3.1,7.2-3.1c3.1,0,5.7,1,7.7,3.1c2.1,2.1,3.1,4.6,3.1,7.5c0,1.2-0.2,2.4-0.5,3.4
				c-0.3,1.1-0.9,2.1-1.7,3.1l-11.9,14.9h14.1v5.3h-21.1V1923.7z"/>
			<path id="XMLID_86_" fill="#909DA1" d="M2162.5,1902c0-3.4,1.1-6,3.2-7.9c2.1-1.9,4.6-2.8,7.3-2.8s5.2,0.9,7.3,2.8
				c2.1,1.9,3.2,4.5,3.2,7.9v16.3c0,3.4-1.1,6-3.2,7.9c-2.1,1.8-4.6,2.8-7.3,2.8s-5.2-0.9-7.3-2.8c-2.1-1.8-3.2-4.5-3.2-7.9V1902z
				 M2178.2,1902.3c0-1.8-0.5-3.2-1.4-4.2s-2.2-1.5-3.8-1.5s-2.8,0.5-3.8,1.5c-1,1-1.4,2.4-1.4,4.2v15.7c0,1.8,0.5,3.2,1.4,4.2
				c1,1,2.2,1.5,3.8,1.5s2.8-0.5,3.8-1.5c1-1,1.4-2.4,1.4-4.2V1902.3z"/>
			<path id="XMLID_89_" fill="#909DA1" d="M2196.9,1897.2l-5.3,3.8v-5.6l5.3-3.8h5.3v37h-5.3V1897.2z"/>
			<path id="XMLID_91_" fill="#909DA1" d="M2215.7,1891.6h19.7v5.3h-14.7v8.4c0.9-0.7,1.8-1.2,2.8-1.5c1-0.3,2-0.5,3.1-0.5
				c1.4,0,2.7,0.3,3.9,0.8c1.2,0.5,2.1,1.2,2.7,1.9c0.1,0.1,0.1,0.1,0.2,0.2c0.1,0.1,0.2,0.2,0.2,0.3c0.8,1,1.4,2.1,1.8,3.4
				s0.6,3.4,0.6,6.2c0,2.4-0.2,4.2-0.5,5.4c-0.3,1.2-0.9,2.3-1.6,3.3c0,0-0.1,0.1-0.1,0.1c0,0,0,0.1-0.1,0.1c0,0-0.1,0.1-0.1,0.1
				c0,0.1-0.1,0.1-0.1,0.1c-0.8,0.9-1.9,1.8-3.2,2.5c-1.3,0.7-2.9,1.1-4.6,1.1c-0.2,0-0.5,0-0.7,0c-0.2,0-0.4,0-0.7,0
				c-2.2-0.2-4.2-1.1-6.1-2.6c-1.9-1.5-3-3.8-3.4-6.9h5.3c0.3,1.3,0.9,2.4,1.7,3.1c0.9,0.8,2.1,1.2,3.6,1.2c2.1,0,3.5-0.6,4.1-1.9
				c0.6-1.2,1-2.6,1-4.1c0-0.3,0.1-0.7,0.1-1c0-0.3,0-0.6,0-1c0-2-0.3-3.7-1-5.1c-0.7-1.4-2.1-2-4.3-2c-1,0-1.9,0.2-2.7,0.7
				s-1.5,1.3-2.1,2.4h-5V1891.6z"/>
		</g>
	</g>
	<g id="XMLID_531_">
		<g id="XMLID_72_">
			<path id="XMLID_73_" fill="#909DA1" d="M2493.6,1923.7l14.5-18.1c0.6-0.7,1-1.4,1.1-2c0.2-0.6,0.2-1.2,0.2-1.7c0,0,0-0.1,0-0.1
				c0,0,0,0,0-0.1c0-1.3-0.5-2.5-1.4-3.5c-0.9-1.1-2.1-1.6-3.7-1.6c-1.4,0-2.6,0.5-3.7,1.4c-1,1-1.6,2.3-1.7,3.9h-5.3
				c0-3,1.1-5.5,3.1-7.6s4.4-3.1,7.2-3.1c3.1,0,5.7,1,7.7,3.1c2.1,2.1,3.1,4.6,3.1,7.5c0,1.2-0.2,2.4-0.5,3.4
				c-0.3,1.1-0.9,2.1-1.7,3.1l-11.9,14.9h14.1v5.3h-21.1V1923.7z"/>
			<path id="XMLID_75_" fill="#909DA1" d="M2520.2,1902c0-3.4,1.1-6,3.2-7.9c2.1-1.9,4.6-2.8,7.3-2.8c2.7,0,5.2,0.9,7.3,2.8
				c2.1,1.9,3.2,4.5,3.2,7.9v16.3c0,3.4-1.1,6-3.2,7.9c-2.1,1.8-4.6,2.8-7.3,2.8c-2.7,0-5.2-0.9-7.3-2.8c-2.1-1.8-3.2-4.5-3.2-7.9
				V1902z M2535.9,1902.3c0-1.8-0.5-3.2-1.4-4.2c-1-1-2.2-1.5-3.8-1.5c-1.6,0-2.8,0.5-3.8,1.5s-1.4,2.4-1.4,4.2v15.7
				c0,1.8,0.5,3.2,1.4,4.2c1,1,2.2,1.5,3.8,1.5c1.6,0,2.8-0.5,3.8-1.5c1-1,1.4-2.4,1.4-4.2V1902.3z"/>
			<path id="XMLID_78_" fill="#909DA1" d="M2554.6,1897.2l-5.3,3.8v-5.6l5.3-3.8h5.3v37h-5.3V1897.2z"/>
			<path id="XMLID_80_" fill="#909DA1" d="M2584,1891.6h5.9l-7.8,15.7h0.1c0.2-0.1,0.5-0.2,0.8-0.2c0.3-0.1,0.6-0.1,0.8-0.1
				c0.2,0,0.4-0.1,0.6-0.1c0.2,0,0.4,0,0.6,0c2.4,0,4.4,0.8,6.2,2.4c1.8,1.6,2.7,4.2,2.7,7.9c0,4.2-1.1,7.3-3.4,9.1
				c-2.3,1.8-4.8,2.7-7.5,2.7c-2.6,0-4.9-1-7.1-3c-2.1-2-3.2-4.7-3.2-8.2c0-1.1,0.1-2.2,0.4-3.2s0.6-2,1-3L2584,1891.6z
				 M2579.5,1913c-1,1-1.6,2.5-1.6,4.6s0.5,3.6,1.5,4.6c1,1,2.3,1.5,3.8,1.5c0.1,0,0.3,0,0.5,0c0.2,0,0.3,0,0.5-0.1
				c1.1-0.2,2.1-0.7,3-1.7c0.9-0.9,1.4-2.4,1.4-4.3c0-2.1-0.5-3.6-1.6-4.6c-1-1-2.3-1.5-3.7-1.5S2580.5,1912,2579.5,1913z"/>
		</g>
	</g>
	<g id="XMLID_529_">
		<g id="XMLID_62_">
			<path id="XMLID_63_" fill="#909DA1" d="M2851.3,1923.7l14.5-18.1c0.6-0.7,1-1.4,1.1-2c0.2-0.6,0.2-1.2,0.2-1.7c0,0,0-0.1,0-0.1
				c0,0,0,0,0-0.1c0-1.3-0.5-2.5-1.4-3.5c-0.9-1.1-2.1-1.6-3.7-1.6c-1.4,0-2.6,0.5-3.7,1.4c-1,1-1.6,2.3-1.7,3.9h-5.3
				c0-3,1.1-5.5,3.1-7.6s4.4-3.1,7.2-3.1c3.1,0,5.7,1,7.7,3.1c2.1,2.1,3.1,4.6,3.1,7.5c0,1.2-0.2,2.4-0.5,3.4
				c-0.3,1.1-0.9,2.1-1.7,3.1l-11.9,14.9h14.1v5.3h-21.1V1923.7z"/>
			<path id="XMLID_65_" fill="#909DA1" d="M2877.9,1902c0-3.4,1.1-6,3.2-7.9c2.1-1.9,4.6-2.8,7.3-2.8c2.7,0,5.2,0.9,7.3,2.8
				c2.1,1.9,3.2,4.5,3.2,7.9v16.3c0,3.4-1.1,6-3.2,7.9c-2.1,1.8-4.6,2.8-7.3,2.8c-2.7,0-5.2-0.9-7.3-2.8c-2.1-1.8-3.2-4.5-3.2-7.9
				V1902z M2893.6,1902.3c0-1.8-0.5-3.2-1.4-4.2c-1-1-2.2-1.5-3.8-1.5c-1.6,0-2.8,0.5-3.8,1.5s-1.4,2.4-1.4,4.2v15.7
				c0,1.8,0.5,3.2,1.4,4.2c1,1,2.2,1.5,3.8,1.5c1.6,0,2.8-0.5,3.8-1.5c1-1,1.4-2.4,1.4-4.2V1902.3z"/>
			<path id="XMLID_68_" fill="#909DA1" d="M2912.3,1897.2l-5.3,3.8v-5.6l5.3-3.8h5.3v37h-5.3V1897.2z"/>
			<path id="XMLID_70_" fill="#909DA1" d="M2931.1,1891.6h21.1v5.3l-12.5,31.7h-5.9l12.5-31.7h-9.8v5.4h-5.3V1891.6z"/>
		</g>
	</g>
	<g id="XMLID_519_">
		<g id="XMLID_56_">
			<path id="XMLID_57_" fill="#909DA1" d="M135.3,1464.2l14.5-18.1c0.6-0.7,1-1.4,1.1-2c0.2-0.6,0.2-1.2,0.2-1.7c0,0,0-0.1,0-0.1
				c0,0,0,0,0-0.1c0-1.3-0.5-2.5-1.4-3.5c-0.9-1.1-2.1-1.6-3.7-1.6c-1.4,0-2.6,0.5-3.7,1.4s-1.6,2.3-1.7,3.9h-5.3
				c0-3,1.1-5.5,3.1-7.6c2-2,4.4-3.1,7.2-3.1c3.1,0,5.7,1,7.7,3.1c2.1,2.1,3.1,4.6,3.1,7.5c0,1.2-0.2,2.4-0.5,3.4
				c-0.3,1.1-0.9,2.1-1.7,3.1l-11.9,14.9h14.1v5.3h-21.1V1464.2z"/>
			<path id="XMLID_59_" fill="#909DA1" d="M161.9,1442.6c0-3.4,1.1-6,3.2-7.9c2.1-1.9,4.6-2.8,7.3-2.8c2.7,0,5.2,0.9,7.3,2.8
				s3.2,4.5,3.2,7.9v16.3c0,3.4-1.1,6-3.2,7.9c-2.1,1.8-4.6,2.8-7.3,2.8c-2.7,0-5.2-0.9-7.3-2.8c-2.1-1.8-3.2-4.5-3.2-7.9V1442.6z
				 M177.6,1442.9c0-1.8-0.5-3.2-1.4-4.2c-1-1-2.2-1.5-3.8-1.5c-1.6,0-2.8,0.5-3.8,1.5c-1,1-1.4,2.4-1.4,4.2v15.7
				c0,1.8,0.5,3.2,1.4,4.2c1,1,2.2,1.5,3.8,1.5c1.6,0,2.8-0.5,3.8-1.5c1-1,1.4-2.4,1.4-4.2V1442.9z"/>
		</g>
	</g>
	<g id="XMLID_517_">
		<g id="XMLID_50_">
			<path id="XMLID_51_" fill="#909DA1" d="M142.8,1292.9h1.8c1.8,0,3.2-0.5,4.2-1.5c1-1,1.5-2.3,1.5-3.7c0-1.5-0.5-2.8-1.6-3.8
				c-1.1-1-2.3-1.5-3.8-1.5c0,0-0.1,0-0.1,0s-0.1,0-0.1,0c-1.1,0-2.1,0.4-3,1.2c-1,0.7-1.6,1.8-1.8,3.3h-5.3
				c0.2-2.6,1.3-4.9,3.3-6.9s4.3-2.9,6.9-2.9c3.3,0,5.9,1.1,7.9,3.3c2,2.2,3,4.6,3,7.3c0,0.1,0,0.1,0,0.2c0,0.1,0,0.2,0,0.2
				c-0.1,1.3-0.4,2.6-0.9,3.9c-0.6,1.3-1.6,2.4-3,3.3c1.4,0.9,2.5,2,3.2,3.3c0.7,1.3,1.1,2.6,1.1,4c0,0.1,0.1,0.3,0.1,0.4
				c0,0.1,0,0.3,0,0.4c0,3.4-1.1,6.2-3.3,8.2c-2.2,2-4.8,3.1-8,3.1c-2.5,0-4.8-0.8-6.8-2.4c-2-1.6-3.3-4-3.7-7h5.3
				c0.5,1.3,1.2,2.3,2,3.1c0.8,0.8,2,1.1,3.5,1.1c1.5,0,2.8-0.5,3.9-1.6c1.1-1.1,1.7-2.5,1.7-4.3c0-1.8-0.6-3.3-1.7-4.3
				c-1.1-1-2.5-1.6-4-1.6h-2.2V1292.9z"/>
			<path id="XMLID_53_" fill="#909DA1" d="M161.9,1287.7c0-3.4,1.1-6,3.2-7.9c2.1-1.9,4.6-2.8,7.3-2.8c2.7,0,5.2,0.9,7.3,2.8
				s3.2,4.5,3.2,7.9v16.3c0,3.4-1.1,6-3.2,7.9c-2.1,1.8-4.6,2.8-7.3,2.8c-2.7,0-5.2-0.9-7.3-2.8c-2.1-1.8-3.2-4.5-3.2-7.9V1287.7z
				 M177.6,1288c0-1.8-0.5-3.2-1.4-4.2c-1-1-2.2-1.5-3.8-1.5c-1.6,0-2.8,0.5-3.8,1.5c-1,1-1.4,2.4-1.4,4.2v15.7
				c0,1.8,0.5,3.2,1.4,4.2c1,1,2.2,1.5,3.8,1.5c1.6,0,2.8-0.5,3.8-1.5c1-1,1.4-2.4,1.4-4.2V1288z"/>
		</g>
	</g>
	<g id="XMLID_515_">
		<g id="XMLID_44_">
			<path id="XMLID_45_" fill="#909DA1" d="M134.3,1144.4l12.4-26.5h5.9l-12.5,26.5h9.7v-10.7h5.3v10.7h3v5h-3v5.5h-5.3v-5.5h-15.4
				V1144.4z"/>
			<path id="XMLID_47_" fill="#909DA1" d="M161.9,1128.2c0-3.4,1.1-6,3.2-7.9c2.1-1.9,4.6-2.8,7.3-2.8c2.7,0,5.2,0.9,7.3,2.8
				s3.2,4.5,3.2,7.9v16.3c0,3.4-1.1,6-3.2,7.9c-2.1,1.8-4.6,2.8-7.3,2.8c-2.7,0-5.2-0.9-7.3-2.8c-2.1-1.8-3.2-4.5-3.2-7.9V1128.2z
				 M177.6,1128.5c0-1.8-0.5-3.2-1.4-4.2c-1-1-2.2-1.5-3.8-1.5c-1.6,0-2.8,0.5-3.8,1.5c-1,1-1.4,2.4-1.4,4.2v15.7
				c0,1.8,0.5,3.2,1.4,4.2c1,1,2.2,1.5,3.8,1.5c1.6,0,2.8-0.5,3.8-1.5c1-1,1.4-2.4,1.4-4.2V1128.5z"/>
		</g>
	</g>
	<g id="XMLID_513_">
		<g id="XMLID_38_">
			<path id="XMLID_39_" fill="#909DA1" d="M136.3,963H156v5.3h-14.7v8.4c0.9-0.7,1.8-1.2,2.8-1.5c1-0.3,2-0.5,3.1-0.5
				c1.4,0,2.7,0.3,3.9,0.8c1.2,0.5,2.1,1.2,2.7,1.9c0.1,0.1,0.1,0.1,0.2,0.2c0.1,0.1,0.2,0.2,0.2,0.3c0.8,1,1.4,2.1,1.8,3.4
				s0.6,3.4,0.6,6.2c0,2.4-0.2,4.2-0.5,5.4c-0.3,1.2-0.9,2.3-1.6,3.3c0,0-0.1,0.1-0.1,0.1c0,0,0,0.1-0.1,0.1c0,0-0.1,0.1-0.1,0.1
				c0,0.1-0.1,0.1-0.1,0.1c-0.8,0.9-1.9,1.8-3.2,2.5c-1.3,0.7-2.9,1.1-4.6,1.1c-0.2,0-0.5,0-0.7,0c-0.2,0-0.4,0-0.6,0
				c-2.2-0.2-4.2-1.1-6.1-2.6c-1.9-1.5-3-3.8-3.4-6.9h5.3c0.3,1.3,0.9,2.4,1.7,3.1c0.9,0.8,2.1,1.2,3.6,1.2c2.1,0,3.5-0.6,4.1-1.9
				c0.6-1.2,1-2.6,1-4.1c0-0.3,0.1-0.7,0.1-1c0-0.3,0-0.6,0-1c0-2-0.3-3.7-1-5.1c-0.7-1.4-2.1-2-4.3-2c-1,0-1.9,0.2-2.7,0.7
				s-1.5,1.3-2.1,2.4h-5V963z"/>
			<path id="XMLID_41_" fill="#909DA1" d="M161.9,973.4c0-3.4,1.1-6,3.2-7.9c2.1-1.9,4.6-2.8,7.3-2.8c2.7,0,5.2,0.9,7.3,2.8
				s3.2,4.5,3.2,7.9v16.3c0,3.4-1.1,6-3.2,7.9c-2.1,1.8-4.6,2.8-7.3,2.8c-2.7,0-5.2-0.9-7.3-2.8c-2.1-1.8-3.2-4.5-3.2-7.9V973.4z
				 M177.6,973.7c0-1.8-0.5-3.2-1.4-4.2c-1-1-2.2-1.5-3.8-1.5c-1.6,0-2.8,0.5-3.8,1.5c-1,1-1.4,2.4-1.4,4.2v15.7
				c0,1.8,0.5,3.2,1.4,4.2c1,1,2.2,1.5,3.8,1.5c1.6,0,2.8-0.5,3.8-1.5c1-1,1.4-2.4,1.4-4.2V973.7z"/>
		</g>
	</g>
	<g id="XMLID_511_">
		<g id="XMLID_31_">
			<path id="XMLID_32_" fill="#909DA1" d="M146.9,808.1h5.9l-7.8,15.7h0.1c0.2-0.1,0.5-0.2,0.8-0.2c0.3-0.1,0.6-0.1,0.8-0.1
				c0.2,0,0.4-0.1,0.6-0.1c0.2,0,0.4,0,0.6,0c2.4,0,4.4,0.8,6.2,2.4c1.8,1.6,2.7,4.2,2.7,7.9c0,4.2-1.1,7.3-3.4,9.1
				c-2.3,1.8-4.8,2.7-7.5,2.7c-2.6,0-4.9-1-7.1-3s-3.2-4.7-3.2-8.2c0-1.1,0.1-2.2,0.4-3.2c0.2-1,0.6-2,1-3L146.9,808.1z
				 M142.4,829.5c-1,1-1.6,2.5-1.6,4.6s0.5,3.6,1.5,4.6c1,1,2.3,1.5,3.8,1.5c0.1,0,0.3,0,0.5,0c0.2,0,0.3,0,0.5-0.1
				c1.1-0.2,2.1-0.7,3-1.7c0.9-0.9,1.4-2.4,1.4-4.3c0-2.1-0.5-3.6-1.6-4.6c-1-1-2.3-1.5-3.7-1.5C144.7,828,143.4,828.5,142.4,829.5z
				"/>
			<path id="XMLID_35_" fill="#909DA1" d="M161.9,818.5c0-3.4,1.1-6,3.2-7.9c2.1-1.9,4.6-2.8,7.3-2.8c2.7,0,5.2,0.9,7.3,2.8
				s3.2,4.5,3.2,7.9v16.3c0,3.4-1.1,6-3.2,7.9c-2.1,1.8-4.6,2.8-7.3,2.8c-2.7,0-5.2-0.9-7.3-2.8c-2.1-1.8-3.2-4.5-3.2-7.9V818.5z
				 M177.6,818.8c0-1.8-0.5-3.2-1.4-4.2c-1-1-2.2-1.5-3.8-1.5c-1.6,0-2.8,0.5-3.8,1.5c-1,1-1.4,2.4-1.4,4.2v15.7
				c0,1.8,0.5,3.2,1.4,4.2c1,1,2.2,1.5,3.8,1.5c1.6,0,2.8-0.5,3.8-1.5c1-1,1.4-2.4,1.4-4.2V818.8z"/>
		</g>
	</g>
	<g id="XMLID_465_">
		<g id="XMLID_25_">
			<path id="XMLID_26_" fill="#909DA1" d="M136.3,653.2h21.1v5.3l-12.5,31.7h-5.9l12.5-31.7h-9.8v5.4h-5.3V653.2z"/>
			<path id="XMLID_28_" fill="#909DA1" d="M161.9,663.6c0-3.4,1.1-6,3.2-7.9c2.1-1.9,4.6-2.8,7.3-2.8c2.7,0,5.2,0.9,7.3,2.8
				s3.2,4.5,3.2,7.9v16.3c0,3.4-1.1,6-3.2,7.9c-2.1,1.8-4.6,2.8-7.3,2.8c-2.7,0-5.2-0.9-7.3-2.8c-2.1-1.8-3.2-4.5-3.2-7.9V663.6z
				 M177.6,663.9c0-1.8-0.5-3.2-1.4-4.2c-1-1-2.2-1.5-3.8-1.5c-1.6,0-2.8,0.5-3.8,1.5c-1,1-1.4,2.4-1.4,4.2v15.7
				c0,1.8,0.5,3.2,1.4,4.2c1,1,2.2,1.5,3.8,1.5c1.6,0,2.8-0.5,3.8-1.5c1-1,1.4-2.4,1.4-4.2V663.9z"/>
		</g>
	</g>
	<g id="XMLID_463_">
		<g id="XMLID_17_">
			<path id="XMLID_18_" fill="#909DA1" d="M136,515.2c0.8-1.4,1.8-2.6,3.2-3.6c-1.1-1-2-2.1-2.7-3.3c-0.7-1.2-1-2.6-1-4.2
				c0-3,1-5.5,3.1-7.6s4.6-3.1,7.5-3.1c3,0,5.5,1,7.5,3.1s3.1,4.6,3.1,7.6c0,1.6-0.3,3-1,4.2c-0.7,1.2-1.6,2.3-2.7,3.3
				c1.4,0.9,2.5,2.1,3.3,3.6c0.7,1.4,1.1,3,1.1,4.8c0,3.3-1.1,5.9-3.3,8s-4.9,3.1-8,3.1c-3.1,0-5.7-1-7.9-3.1
				c-2.2-2.1-3.4-4.7-3.4-8C134.9,518.3,135.2,516.7,136,515.2z M142,524.2c1.2,1.1,2.6,1.7,4.2,1.7c1.6,0,3-0.6,4.2-1.7
				c1.2-1.1,1.8-2.5,1.8-4.2c0-1.7-0.6-3.1-1.8-4.2c-1.2-1.1-2.6-1.7-4.2-1.7c-1.6,0-3,0.6-4.2,1.7c-1.2,1.1-1.8,2.5-1.8,4.2
				C140.2,521.7,140.8,523.1,142,524.2z M142.5,508c1.1,0.9,2.3,1.4,3.7,1.4c1.4,0,2.6-0.5,3.7-1.4c1.1-0.9,1.6-2.2,1.6-4
				s-0.5-3.1-1.6-4s-2.3-1.4-3.7-1.4c-1.4,0-2.6,0.5-3.7,1.4s-1.6,2.2-1.6,4S141.4,507.1,142.5,508z"/>
			<path id="XMLID_22_" fill="#909DA1" d="M161.9,504.1c0-3.4,1.1-6,3.2-7.9c2.1-1.9,4.6-2.8,7.3-2.8c2.7,0,5.2,0.9,7.3,2.8
				s3.2,4.5,3.2,7.9v16.3c0,3.4-1.1,6-3.2,7.9c-2.1,1.8-4.6,2.8-7.3,2.8c-2.7,0-5.2-0.9-7.3-2.8c-2.1-1.8-3.2-4.5-3.2-7.9V504.1z
				 M177.6,504.5c0-1.8-0.5-3.2-1.4-4.2c-1-1-2.2-1.5-3.8-1.5c-1.6,0-2.8,0.5-3.8,1.5c-1,1-1.4,2.4-1.4,4.2v15.7
				c0,1.8,0.5,3.2,1.4,4.2c1,1,2.2,1.5,3.8,1.5c1.6,0,2.8-0.5,3.8-1.5c1-1,1.4-2.4,1.4-4.2V504.5z"/>
		</g>
	</g>
	<g id="XMLID_460_">
		<g id="XMLID_10_">
			<path id="XMLID_11_" fill="#909DA1" d="M145.4,375.9h-5.9l7.8-15.7h-0.1c-0.2,0.1-0.5,0.2-0.8,0.2c-0.3,0.1-0.6,0.1-0.8,0.1
				c-0.2,0-0.4,0.1-0.6,0.1s-0.4,0-0.6,0c-2.3,0-4.4-0.8-6.2-2.5c-1.8-1.6-2.7-4.3-2.7-7.8c0-4.2,1.1-7.3,3.4-9.1
				c2.3-1.8,4.8-2.8,7.5-2.8c2.6,0,4.9,1,7.1,3c2.2,2,3.2,4.8,3.2,8.3c0,1.1-0.1,2.1-0.3,3.2c-0.2,1.1-0.6,2.1-1.1,3L145.4,375.9z
				 M149.9,354.6c1-1,1.6-2.5,1.6-4.6s-0.5-3.6-1.4-4.6s-2.2-1.5-3.9-1.5c-0.1,0-0.3,0-0.5,0s-0.3,0-0.5,0.1c-1.1,0.2-2.1,0.7-3,1.7
				c-0.9,0.9-1.4,2.4-1.4,4.3c0,2.1,0.5,3.6,1.6,4.6c1,1,2.3,1.5,3.7,1.5C147.6,356.1,148.8,355.6,149.9,354.6z"/>
			<path id="XMLID_14_" fill="#909DA1" d="M161.9,349.3c0-3.4,1.1-6,3.2-7.9c2.1-1.9,4.6-2.8,7.3-2.8c2.7,0,5.2,0.9,7.3,2.8
				s3.2,4.5,3.2,7.9v16.3c0,3.4-1.1,6-3.2,7.9c-2.1,1.8-4.6,2.8-7.3,2.8c-2.7,0-5.2-0.9-7.3-2.8c-2.1-1.8-3.2-4.5-3.2-7.9V349.3z
				 M177.6,349.6c0-1.8-0.5-3.2-1.4-4.2c-1-1-2.2-1.5-3.8-1.5c-1.6,0-2.8,0.5-3.8,1.5c-1,1-1.4,2.4-1.4,4.2v15.7
				c0,1.8,0.5,3.2,1.4,4.2c1,1,2.2,1.5,3.8,1.5c1.6,0,2.8-0.5,3.8-1.5c1-1,1.4-2.4,1.4-4.2V349.6z"/>
		</g>
	</g>
	<g id="XMLID_458_">
		<g id="XMLID_1_">
			<path id="XMLID_2_" fill="#909DA1" d="M117.5,189.6l-5.3,3.8v-5.6l5.3-3.8h5.3v37h-5.3V189.6z"/>
			<path id="XMLID_4_" fill="#909DA1" d="M135.6,194.4c0-3.4,1.1-6,3.2-7.9c2.1-1.9,4.6-2.8,7.3-2.8c2.7,0,5.2,0.9,7.3,2.8
				s3.2,4.5,3.2,7.9v16.3c0,3.4-1.1,6-3.2,7.9c-2.1,1.8-4.6,2.8-7.3,2.8c-2.7,0-5.2-0.9-7.3-2.8c-2.1-1.8-3.2-4.5-3.2-7.9V194.4z
				 M151.3,194.7c0-1.8-0.5-3.2-1.4-4.2c-1-1-2.2-1.5-3.8-1.5c-1.6,0-2.8,0.5-3.8,1.5c-1,1-1.4,2.4-1.4,4.2v15.7
				c0,1.8,0.5,3.2,1.4,4.2c1,1,2.2,1.5,3.8,1.5c1.6,0,2.8-0.5,3.8-1.5c1-1,1.4-2.4,1.4-4.2V194.7z"/>
			<path id="XMLID_7_" fill="#909DA1" d="M161.9,194.4c0-3.4,1.1-6,3.2-7.9c2.1-1.9,4.6-2.8,7.3-2.8s5.2,0.9,7.3,2.8
				c2.1,1.9,3.2,4.5,3.2,7.9v16.3c0,3.4-1.1,6-3.2,7.9c-2.1,1.8-4.6,2.8-7.3,2.8s-5.2-0.9-7.3-2.8c-2.1-1.8-3.2-4.5-3.2-7.9V194.4z
				 M177.6,194.7c0-1.8-0.5-3.2-1.4-4.2s-2.2-1.5-3.8-1.5s-2.8,0.5-3.8,1.5c-1,1-1.4,2.4-1.4,4.2v15.7c0,1.8,0.5,3.2,1.4,4.2
				c1,1,2.2,1.5,3.8,1.5s2.8-0.5,3.8-1.5c1-1,1.4-2.4,1.4-4.2V194.7z"/>
		</g>
	</g>
</g>
</svg>
