<?xml version="1.0" encoding="utf-8"?>
<!-- Generator: Adobe Illustrator 19.0.0, SVG Export Plug-In . SVG Version: 6.00 Build 0)  -->
<svg version="1.2" baseProfile="tiny" xmlns="http://www.w3.org/2000/svg" xmlns:xlink="http://www.w3.org/1999/xlink" x="0px"
	 y="0px" width="3812px" height="1275.3px" viewBox="0 0 3812 1275.3" xml:space="preserve">
<g id="achterWebsite">
	<rect id="XMLID_1899_" fill="#FFFFFF" width="3812" height="1275.3"/>
</g>
<g id="achterGroen">
</g>
<g id="verbindingen">
	<g id="XMLID_3779_">
	</g>
</g>
<g id="Laag_1">
</g>
<g id="Laag_4">
</g>
<g id="nrs">
	
		<line id="XMLID_3069_" fill="none" stroke="#D3D8DA" stroke-width="8" stroke-linejoin="round" stroke-miterlimit="10" x1="1084.9" y1="1106.1" x2="1084.9" y2="1152"/>
	
		<line id="XMLID_3051_" fill="none" stroke="#D3D8DA" stroke-width="8" stroke-linejoin="round" stroke-miterlimit="10" x1="1141" y1="1106.1" x2="1141" y2="1128.1"/>
	
		<line id="XMLID_3050_" fill="none" stroke="#D3D8DA" stroke-width="8" stroke-linejoin="round" stroke-miterlimit="10" x1="1197.1" y1="1106.1" x2="1197.1" y2="1128.1"/>
	
		<line id="XMLID_3049_" fill="none" stroke="#D3D8DA" stroke-width="8" stroke-linejoin="round" stroke-miterlimit="10" x1="972.8" y1="1106.1" x2="972.8" y2="1128.1"/>
	
		<line id="XMLID_3048_" fill="none" stroke="#D3D8DA" stroke-width="8" stroke-linejoin="round" stroke-miterlimit="10" x1="1028.8" y1="1106.1" x2="1028.8" y2="1128.1"/>
	
		<line id="XMLID_3047_" fill="none" stroke="#D3D8DA" stroke-width="8" stroke-linejoin="round" stroke-miterlimit="10" x1="1253.1" y1="1106.1" x2="1253.1" y2="1128.1"/>
	
		<line id="XMLID_3031_" fill="none" stroke="#D3D8DA" stroke-width="8" stroke-linejoin="round" stroke-miterlimit="10" x1="1365.3" y1="1106.1" x2="1365.3" y2="1128.1"/>
	
		<line id="XMLID_3030_" fill="none" stroke="#D3D8DA" stroke-width="8" stroke-linejoin="round" stroke-miterlimit="10" x1="1421.3" y1="1106.1" x2="1421.3" y2="1128.1"/>
	
		<line id="XMLID_3029_" fill="none" stroke="#D3D8DA" stroke-width="8" stroke-linejoin="round" stroke-miterlimit="10" x1="1477.4" y1="1106.1" x2="1477.4" y2="1128.1"/>
	
		<line id="XMLID_3028_" fill="none" stroke="#D3D8DA" stroke-width="8" stroke-linejoin="round" stroke-miterlimit="10" x1="1589.5" y1="1106.1" x2="1589.5" y2="1128.1"/>
	
		<line id="XMLID_3027_" fill="none" stroke="#D3D8DA" stroke-width="8" stroke-linejoin="round" stroke-miterlimit="10" x1="1645.6" y1="1106.1" x2="1645.6" y2="1128.1"/>
	
		<line id="XMLID_3022_" fill="none" stroke="#D3D8DA" stroke-width="8" stroke-linejoin="round" stroke-miterlimit="10" x1="1701.7" y1="1106.1" x2="1701.7" y2="1128.1"/>
	
		<line id="XMLID_3021_" fill="none" stroke="#D3D8DA" stroke-width="8" stroke-linejoin="round" stroke-miterlimit="10" x1="1813.8" y1="1106.1" x2="1813.8" y2="1128.1"/>
	
		<line id="XMLID_3020_" fill="none" stroke="#D3D8DA" stroke-width="8" stroke-linejoin="round" stroke-miterlimit="10" x1="1869.9" y1="1106.1" x2="1869.9" y2="1128.1"/>
	
		<line id="XMLID_3019_" fill="none" stroke="#D3D8DA" stroke-width="8" stroke-linejoin="round" stroke-miterlimit="10" x1="1926" y1="1106.1" x2="1926" y2="1128.1"/>
	
		<line id="XMLID_3018_" fill="none" stroke="#D3D8DA" stroke-width="8" stroke-linejoin="round" stroke-miterlimit="10" x1="2038.1" y1="1106.1" x2="2038.1" y2="1128.1"/>
	
		<line id="XMLID_3017_" fill="none" stroke="#D3D8DA" stroke-width="8" stroke-linejoin="round" stroke-miterlimit="10" x1="2094.2" y1="1106.1" x2="2094.2" y2="1128.1"/>
	
		<line id="XMLID_3016_" fill="none" stroke="#D3D8DA" stroke-width="8" stroke-linejoin="round" stroke-miterlimit="10" x1="2150.2" y1="1106.1" x2="2150.2" y2="1128.1"/>
	
		<line id="XMLID_3015_" fill="none" stroke="#D3D8DA" stroke-width="8" stroke-linejoin="round" stroke-miterlimit="10" x1="2262.4" y1="1106.1" x2="2262.4" y2="1128.1"/>
	
		<line id="XMLID_3014_" fill="none" stroke="#D3D8DA" stroke-width="8" stroke-linejoin="round" stroke-miterlimit="10" x1="2318.4" y1="1106.1" x2="2318.4" y2="1128.1"/>
	
		<line id="XMLID_3013_" fill="none" stroke="#D3D8DA" stroke-width="8" stroke-linejoin="round" stroke-miterlimit="10" x1="2374.5" y1="1106.1" x2="2374.5" y2="1128.1"/>
	
		<line id="XMLID_3000_" fill="none" stroke="#D3D8DA" stroke-width="8" stroke-linejoin="round" stroke-miterlimit="10" x1="2486.7" y1="1106.1" x2="2486.7" y2="1128.1"/>
	
		<line id="XMLID_2994_" fill="none" stroke="#D3D8DA" stroke-width="8" stroke-linejoin="round" stroke-miterlimit="10" x1="2542.7" y1="1106.1" x2="2542.7" y2="1128.1"/>
	
		<line id="XMLID_2993_" fill="none" stroke="#D3D8DA" stroke-width="8" stroke-linejoin="round" stroke-miterlimit="10" x1="2598.8" y1="1106.1" x2="2598.8" y2="1128.1"/>
	
		<line id="XMLID_2992_" fill="none" stroke="#D3D8DA" stroke-width="8" stroke-linejoin="round" stroke-miterlimit="10" x1="916.7" y1="1106.1" x2="916.7" y2="1128.1"/>
	
		<line id="XMLID_2990_" fill="none" stroke="#D3D8DA" stroke-width="8" stroke-linejoin="round" stroke-miterlimit="10" x1="1309.2" y1="1106.1" x2="1309.2" y2="1152"/>
	
		<line id="XMLID_2989_" fill="none" stroke="#D3D8DA" stroke-width="8" stroke-linejoin="round" stroke-miterlimit="10" x1="1533.5" y1="1106.1" x2="1533.5" y2="1152"/>
	
		<line id="XMLID_2975_" fill="none" stroke="#D3D8DA" stroke-width="8" stroke-linejoin="round" stroke-miterlimit="10" x1="1757.7" y1="1106.1" x2="1757.7" y2="1152"/>
	
		<line id="XMLID_2974_" fill="none" stroke="#D3D8DA" stroke-width="8" stroke-linejoin="round" stroke-miterlimit="10" x1="1982" y1="1106.1" x2="1982" y2="1152"/>
	
		<line id="XMLID_2973_" fill="none" stroke="#D3D8DA" stroke-width="8" stroke-linejoin="round" stroke-miterlimit="10" x1="2206.3" y1="1106.1" x2="2206.3" y2="1152"/>
	
		<line id="XMLID_2972_" fill="none" stroke="#D3D8DA" stroke-width="8" stroke-linejoin="round" stroke-miterlimit="10" x1="2430.6" y1="1106.1" x2="2430.6" y2="1152"/>
	
		<line id="XMLID_2971_" fill="none" stroke="#D3D8DA" stroke-width="8" stroke-linejoin="round" stroke-miterlimit="10" x1="2654.9" y1="1106.1" x2="2654.9" y2="1152"/>
	<path id="XMLID_2935_" fill="none" stroke="#D3D8DA" stroke-width="8" stroke-linejoin="round" stroke-miterlimit="10" d="
		M863.9,126.7h1849.6 M863.9,223.9h1849.6 M863.9,321h1849.6 M863.9,418.1h1849.6 M863.9,518h1849.6 M863.9,615.2h1849.6
		 M863.9,712.3h1849.6 M863.9,812.2h1849.6 M863.9,909.3h1849.6 M863.9,1006.5h1849.6"/>
	<g id="XMLID_2922_">
		<g id="XMLID_282_">
			
				<line id="XMLID_289_" fill="none" stroke="#FFFFFF" stroke-width="8" stroke-linejoin="round" stroke-miterlimit="10" x1="863.9" y1="1103.6" x2="2713.4" y2="1103.6"/>
		</g>
		<g id="XMLID_278_">
			
				<line id="XMLID_281_" fill="none" stroke="#D3D8DA" stroke-width="8" stroke-linejoin="round" stroke-miterlimit="10" x1="863.9" y1="1103.6" x2="2713.4" y2="1103.6"/>
		</g>
	</g>
	<g id="XMLID_2920_">
		
			<polyline id="XMLID_2921_" fill="none" stroke="#99CC33" stroke-width="12" stroke-linecap="round" stroke-linejoin="round" stroke-miterlimit="10" points="
			891,1087.9 947.2,1085 1003.4,1070.7 1059.7,1010.7 1115.9,936.5 1172.1,856.5 1228.4,805.1 1284.6,748 1340.8,679.4 1397,590.9 
			1451.3,605.2 1507.5,548 1563.7,476.6 1620,393.8 1676.2,422.4 1732.4,376.7 1788.6,331 1844.9,302.4 1901.1,342.4 1955.3,313.8 
			2011.6,285.3 2067.8,288.1 2124,359.5 2180.3,333.8 2236.5,299.5 2292.7,273.8 2348.9,313.8 2405.2,282.4 2459.4,259.6 
			2515.6,245.3 2571.9,305.3 2628.1,262.4 2684.3,245.3 		"/>
	</g>
	<polyline id="XMLID_2919_" fill="none" stroke="#62ACC9" stroke-width="12" stroke-miterlimit="10" points="891,1002.2 
		947.2,976.5 1003.4,936.5 1059.7,953.6 1115.9,967.9 1172.1,942.2 1228.4,950.8 1284.6,939.3 1340.8,927.9 1397,959.3 
		1451.3,870.8 1507.5,885.1 1563.7,919.3 1620,965 1676.2,899.4 1732.4,927.9 1788.6,965 1844.9,985 1901.1,930.8 1955.3,953.6 
		2011.6,985 2067.8,982.2 2124,905.1 2180.3,930.8 2236.5,962.2 2292.7,976.5 2348.9,930.8 2405.2,959.3 2459.4,979.3 2515.6,993.6 
		2571.9,930.8 2628.1,970.8 2684.3,985 	"/>
	<g id="XMLID_2904_">
		
			<polyline id="XMLID_2918_" fill="none" stroke="#D8B921" stroke-width="12" stroke-linecap="round" stroke-linejoin="round" stroke-miterlimit="10" points="
			891,1005 947.2,1016.5 1003.4,1027.9 1059.7,1039.3 1115.9,1056.4 1172.1,1079.3 1228.4,1070.7 1284.6,1079.3 1340.8,1087.9 
			1397,1090.7 1451.3,1085 1507.5,1085 1563.7,1079.3 1620,1082.2 1676.2,1076.4 1732.4,1076.4 1788.6,1073.6 1844.9,1070.7 
			1901.1,1076.4 1955.3,1079.3 2011.6,1076.4 2067.8,1076.4 2124,1076.4 2180.3,1079.3 2236.5,1079.3 2292.7,1087.9 2348.9,1093.6 
			2405.2,1099.3 2459.4,1099.3 2515.6,1102.1 2571.9,1102.1 2628.1,1105 2684.3,1105 		"/>
	</g>
	<g id="XMLID_2807_">
		
			<polyline id="XMLID_2857_" fill="none" stroke="#F99900" stroke-width="12" stroke-linecap="round" stroke-linejoin="round" stroke-miterlimit="10" points="
			891,902.2 947.2,919.3 1003.4,902.2 1059.7,910.8 1115.9,922.2 1172.1,953.6 1228.4,962.2 1284.6,976.5 1340.8,990.8 1397,996.5 
			1451.3,1019.3 1507.5,1039.3 1563.7,1053.6 1620,1053.6 1676.2,1070.7 1732.4,1076.4 1788.6,1079.3 1844.9,1087.9 1901.1,1099.3 
			1955.3,1099.3 2011.6,1099.3 2067.8,1096.4 2124,1099.3 2180.3,1102.1 2236.5,1102.1 2292.7,1102.1 2348.9,1102.1 2405.2,1102.1 
			2459.4,1105 2515.6,1105 2571.9,1105 2628.1,1105 2684.3,1105 		"/>
	</g>
	<polyline id="XMLID_2773_" fill="none" stroke="#B17D9F" stroke-width="12" stroke-miterlimit="10" points="891,628 947.2,605.2 
		1003.4,668 1059.7,670.9 1115.9,705.1 1172.1,748 1228.4,788 1284.6,833.7 1340.8,887.9 1397,939.3 1451.3,990.8 1507.5,1022.2 
		1563.7,1047.9 1620,1079.3 1676.2,1093.6 1732.4,1099.3 1788.6,1102.1 1844.9,1102.1 1901.1,1099.3 1955.3,1105 2011.6,1105 
		2067.8,1105 2124,1105 2180.3,1105 2236.5,1105 2292.7,1105 2348.9,1105 2405.2,1105 2459.4,1105 2515.6,1105 2571.9,1105 
		2628.1,1105 2684.3,1105 	"/>
	<path id="XMLID_2672_" fill="#62ACC9" d="M2938.1,430c-1,0-2,0-3.1,0c-3.1-1.1-6.1-2.7-9.3-3.2c-4.5-0.8-9.3-1.6-13.8-1.1
		c-4.1,0.5-8.1,2.8-12.1,4.3c-1.8,0-3.6,0-5.4,0c-3-2.1-6.4-3.8-8.8-6.4c-13.4-15.1-20.7-32.6-19.4-53c0.7-11.8,5.6-21.7,16.4-27.7
		c6.9-3.9,14.4-5.1,21.7-1.7c7.6,3.5,14.8,3.8,22.2-0.1c2-1,4.4-1.4,6.6-1.8c10.2-1.8,22.5,3.7,26.7,11.8
		c-8.2,6-13.1,13.8-12.4,24.3c0.7,10.6,6.6,17.9,16.2,22.9c-2.1,4.4-3.7,8.7-6,12.5C2952.9,418.7,2948.2,427.1,2938.1,430z
		 M2936.6,309.9c-4.6,2.5-9.8,4.4-13.8,7.7c-5.8,4.9-8.7,11.7-8.1,19.8c5.6,0.6,10.1-1.5,14-4.7c7.3-5.8,10.2-13.7,10.2-22.9
		C2938.1,309.9,2937.4,309.9,2936.6,309.9z"/>
	<g id="XMLID_2594_">
		<g id="XMLID_2599_">
			<path id="XMLID_2671_" fill="#99CC33" d="M2900.2,203.5L2900.2,203.5c-4.6,0-8.4-3.8-8.4-8.4v-38.2c0-4.6,3.8-8.4,8.4-8.4l0,0
				c4.6,0,8.4,3.8,8.4,8.4v38.2C2908.6,199.7,2904.8,203.5,2900.2,203.5z"/>
			<path id="XMLID_2670_" fill="#99CC33" d="M2929.8,203.5L2929.8,203.5c-4.6,0-8.4-3.8-8.4-8.4v-38.2c0-4.6,3.8-8.4,8.4-8.4l0,0
				c4.6,0,8.4,3.8,8.4,8.4v38.2C2938.2,199.7,2934.4,203.5,2929.8,203.5z"/>
			<path id="XMLID_2669_" fill="#99CC33" d="M2863.3,161.2L2863.3,161.2c-4.6,0-8.4-3.8-8.4-8.4v-38.2c0-4.6,3.8-8.4,8.4-8.4l0,0
				c4.6,0,8.4,3.8,8.4,8.4v38.2C2871.7,157.4,2867.9,161.2,2863.3,161.2z"/>
			<path id="XMLID_2660_" fill="#99CC33" d="M2966.7,161.2L2966.7,161.2c-4.6,0-8.4-3.8-8.4-8.4v-38.2c0-4.6,3.8-8.4,8.4-8.4l0,0
				c4.6,0,8.4,3.8,8.4,8.4v38.2C2975.1,157.4,2971.3,161.2,2966.7,161.2z"/>
			<g id="XMLID_2602_">
				<path id="XMLID_334_" fill="#99CC33" d="M2914.8,69c-20.6,0-37.5,15.9-38.9,36.2h77.9C2952.3,84.9,2935.4,69,2914.8,69z
					 M2875.8,108.4V166c0,4.7,3.8,8.6,8.6,8.6h61c4.7,0,8.6-3.8,8.6-8.6v-57.6H2875.8z"/>
			</g>
			<path id="XMLID_2601_" fill="#99CC33" d="M2931.2,77.2L2931.2,77.2c-0.7-0.4-1-1.4-0.6-2.1l7.9-13.8c0.4-0.7,1.4-1,2.1-0.6l0,0
				c0.7,0.4,1,1.4,0.6,2.1l-7.9,13.8C2932.9,77.3,2931.9,77.6,2931.2,77.2z"/>
			<path id="XMLID_2600_" fill="#99CC33" d="M2898.8,77.2L2898.8,77.2c0.7-0.4,1-1.4,0.6-2.1l-7.9-13.8c-0.4-0.7-1.4-1-2.1-0.6l0,0
				c-0.7,0.4-1,1.4-0.6,2.1l7.9,13.8C2897.1,77.3,2898.1,77.6,2898.8,77.2z"/>
		</g>
		<g id="XMLID_2595_">
			<circle id="XMLID_2597_" fill="#FFFFFF" cx="2896.9" cy="88.1" r="3.2"/>
			<circle id="XMLID_2596_" fill="#FFFFFF" cx="2932.8" cy="88.1" r="3.2"/>
		</g>
	</g>
	<g id="XMLID_2593_">
		<path id="path5_1_" fill="#D8B921" d="M2908.9,546c26.4-4,52.8-7.8,79.2-11.5c0,23.2,0,46.3,0,69.4c-26.4,0.1-52.8,0.5-79.2,0.6
			C2908.9,585,2908.9,565.5,2908.9,546L2908.9,546z"/>
		<path id="path7_1_" fill="#D8B921" d="M2841.9,555.4c19.9-3.1,39.8-5.7,59.7-8.2c0,19.2,0,38.4,0,57.6c-19.9,0-39.8,0.3-59.8,0.2
			V555.4L2841.9,555.4z"/>
		<path id="path29_1_" fill="#D8B921" d="M2841.9,611.1c19.9-0.1,39.8,0.3,59.7,0.2c0,19.3,0.1,38.5,0,57.8
			c-19.9-2.9-39.8-5.5-59.7-8.2V611.1z"/>
		<path id="path31_1_" fill="#D8B921" d="M2908.8,611.8c26.5,0,52.9,0,79.3,0c0,23.1,0,46.2,0,69.3c-26.4-4-52.8-7.6-79.2-11.2
			C2908.8,650.5,2908.8,631.2,2908.8,611.8z"/>
	</g>
	<polygon id="XMLID_2592_" fill="#B17D9F" points="2836.8,1093.5 2836.9,1064.2 2848.3,1064.2 2848.3,1103.1 2828.5,1103.1 
		2804.7,1073.7 2804.6,1103 2793.2,1103.1 2793.1,1064.2 2793.3,1064.2 2813.1,1064.2 2836.8,1093.5 	"/>
	<path id="XMLID_2591_" fill="#B17D9F" d="M2976.2,1064.2l0.1,38.9h-12.2l-0.1-38.9l0.1-0.1
		C2968.2,1064.2,2972.2,1064.1,2976.2,1064.2L2976.2,1064.2z"/>
	<polygon id="XMLID_2590_" fill="#B17D9F" points="2921.7,1083 2921.8,1083 2923.2,1081.8 2942.7,1064.2 2958.9,1064.2 
		2936.6,1083.1 2936.7,1083.3 2961.7,1103 2944.1,1103.1 2921.8,1083.2 2921.7,1083.4 2921.7,1103.1 2909.6,1103.1 2909.6,1064.2 
		2921.7,1064.2 2921.7,1083 	"/>
	<path id="XMLID_2587_" fill="#B17D9F" d="M2890.6,1063.8c5,0.2,10.5,0.6,13.2,5.5c0.6,1.4,0.9,2.8,0.9,4.5l-0.1,21.2
		c-0.2,2.8-2.1,5.3-4.6,6.7c-5.3,2.3-11.7,1.7-17.9,1.9c-7.3-0.1-14.7,0.4-21.5-0.9c-3-0.5-6.2-3-7-5.9l-0.4-2.4l0.1-22.4
		c0.1-2.8,2.6-5.3,5-6.6c3.9-1.6,8.6-1.4,13.2-1.6L2890.6,1063.8L2890.6,1063.8z M2866.7,1073.4c-1,0.2-2.3,0.6-2.4,1.8
		c0,5.8-0.2,11.7,0.1,17.4c0.4,1,1.4,0.9,2.2,1.1l22,0.1c1.9-0.2,4.1,0.3,5.1-1.6l0.1-16.4l-0.2-1.3c-0.3-0.8-1.1-0.9-1.7-1.1
		L2866.7,1073.4L2866.7,1073.4z"/>
	<path id="XMLID_2583_" fill="#B17D9F" d="M3036.9,1103v0.2h-13.4c-1.2-2.2-2.4-4.4-3.6-6.6l-0.3-0.1h-23.9l-3.7,6.6l-13.6,0.1
		l21.4-38.9h15.7L3036.9,1103L3036.9,1103z M3007.8,1074l-7.5,13.9h15C3012.8,1083.3,3010.3,1078.6,3007.8,1074L3007.8,1074z"/>
	<g id="XMLID_2569_">
		<path id="XMLID_2570_" fill="#F99900" d="M2978.5,841.5c-11.4,0-23.8,0-23.8,0l6.5-30c0,0,16.7,0,22.8,0c14.8,0,18.3,7.3,18.3,13
			C3002.4,832.7,2997.1,841.5,2978.5,841.5z M2993.5,867.2c0,8.1-5.3,16.9-23.8,16.9c-11.4,0-23.8,0-23.8,0l6.5-30
			c0,0,16.7,0,22.8,0C2990,854.2,2993.5,861.5,2993.5,867.2z M2923.2,814.7c-11.4,0-23.7,0-23.7,0l6.5-30c0,0,16.7,0,22.8,0
			c14.8,0,18.4,7.3,18.4,13C2947.1,805.9,2941.8,814.7,2923.2,814.7z M2938.8,842.8c0,8.1-5.3,16.9-23.8,16.9c-11.4,0-23.7,0-23.7,0
			l6.5-29.9c0,0,16.7,0,22.8,0C2935.3,829.8,2938.8,837.1,2938.8,842.8z M2930,889.8c0,8.2-5.3,16.9-23.8,16.9
			c-11.5,0-23.8,0-23.8,0l6.5-30c0,0,16.7,0,22.8,0C2926.5,876.8,2930,884.1,2930,889.8z M2859.6,814.7c-11.4,0-23.7,0-23.7,0
			l6.4-30c0,0,16.7,0,22.8,0c14.8,0,18.3,7.3,18.3,13C2883.5,805.9,2878.2,814.7,2859.6,814.7z M2875.3,842.8
			c0,8.1-5.3,16.9-23.8,16.9c-11.5,0-23.8,0-23.8,0l6.5-29.9c0,0,16.7,0,22.8,0C2871.7,829.8,2875.3,837.1,2875.3,842.8z"/>
	</g>
</g>
<g id="typo">
	<g id="XMLID_385_">
		<g id="XMLID_401_">
			<path id="XMLID_402_" fill="#909DA1" d="M815.7,1080.6c0-3.4,1.1-6,3.2-7.9s4.6-2.8,7.3-2.8c2.7,0,5.2,0.9,7.3,2.8
				s3.2,4.5,3.2,7.9v16.3c0,3.4-1.1,6-3.2,7.9c-2.1,1.8-4.6,2.8-7.3,2.8c-2.7,0-5.2-0.9-7.3-2.8c-2.1-1.8-3.2-4.5-3.2-7.9V1080.6z
				 M831.4,1080.9c0-1.8-0.5-3.2-1.4-4.2c-1-1-2.2-1.5-3.8-1.5c-1.6,0-2.8,0.5-3.8,1.5c-1,1-1.4,2.4-1.4,4.2v15.7
				c0,1.8,0.5,3.2,1.4,4.2c1,1,2.2,1.5,3.8,1.5c1.6,0,2.8-0.5,3.8-1.5c1-1,1.4-2.4,1.4-4.2V1080.9z"/>
		</g>
	</g>
	<g id="XMLID_383_">
		<g id="XMLID_395_">
			<path id="XMLID_396_" fill="#909DA1" d="M797.5,975.9l-5.3,3.8v-5.6l5.3-3.8h5.3v37h-5.3V975.9z"/>
			<path id="XMLID_398_" fill="#909DA1" d="M815.7,980.7c0-3.4,1.1-6,3.2-7.9s4.6-2.8,7.3-2.8c2.7,0,5.2,0.9,7.3,2.8
				s3.2,4.5,3.2,7.9V997c0,3.4-1.1,6-3.2,7.9c-2.1,1.8-4.6,2.8-7.3,2.8c-2.7,0-5.2-0.9-7.3-2.8c-2.1-1.8-3.2-4.5-3.2-7.9V980.7z
				 M831.4,981c0-1.8-0.5-3.2-1.4-4.2c-1-1-2.2-1.5-3.8-1.5c-1.6,0-2.8,0.5-3.8,1.5c-1,1-1.4,2.4-1.4,4.2v15.7
				c0,1.8,0.5,3.2,1.4,4.2c1,1,2.2,1.5,3.8,1.5c1.6,0,2.8-0.5,3.8-1.5c1-1,1.4-2.4,1.4-4.2V981z"/>
		</g>
	</g>
	<g id="XMLID_381_">
		<g id="XMLID_232_">
			<path id="XMLID_233_" fill="#909DA1" d="M921.9,1185.8l14.5-18.1c0.6-0.7,1-1.4,1.1-2c0.2-0.6,0.2-1.2,0.2-1.7c0,0,0-0.1,0-0.1
				c0,0,0,0,0-0.1c0-1.3-0.5-2.5-1.4-3.5c-0.9-1.1-2.1-1.6-3.7-1.6c-1.4,0-2.6,0.5-3.7,1.4s-1.6,2.3-1.7,3.9h-5.3
				c0-3,1.1-5.5,3.1-7.6c2-2,4.4-3.1,7.2-3.1c3.1,0,5.7,1,7.7,3.1c2.1,2.1,3.1,4.6,3.1,7.5c0,1.2-0.2,2.4-0.5,3.4
				c-0.3,1.1-0.9,2.1-1.7,3.1l-11.9,14.9H943v5.3h-21.1V1185.8z"/>
			<path id="XMLID_387_" fill="#909DA1" d="M948.4,1164.1c0-3.4,1.1-6,3.2-7.9s4.6-2.8,7.3-2.8c2.7,0,5.2,0.9,7.3,2.8
				s3.2,4.5,3.2,7.9v16.3c0,3.4-1.1,6-3.2,7.9c-2.1,1.8-4.6,2.8-7.3,2.8c-2.7,0-5.2-0.9-7.3-2.8c-2.1-1.8-3.2-4.5-3.2-7.9V1164.1z
				 M964.1,1164.4c0-1.8-0.5-3.2-1.4-4.2c-1-1-2.2-1.5-3.8-1.5c-1.6,0-2.8,0.5-3.8,1.5c-1,1-1.4,2.4-1.4,4.2v15.7
				c0,1.8,0.5,3.2,1.4,4.2c1,1,2.2,1.5,3.8,1.5c1.6,0,2.8-0.5,3.8-1.5c1-1,1.4-2.4,1.4-4.2V1164.4z"/>
			<path id="XMLID_390_" fill="#909DA1" d="M982.8,1159.4l-5.3,3.8v-5.6l5.3-3.8h5.3v37h-5.3V1159.4z"/>
			<path id="XMLID_392_" fill="#909DA1" d="M1001,1164.1c0-3.4,1.1-6,3.2-7.9s4.6-2.8,7.3-2.8c2.7,0,5.2,0.9,7.3,2.8
				s3.2,4.5,3.2,7.9v16.3c0,3.4-1.1,6-3.2,7.9c-2.1,1.8-4.6,2.8-7.3,2.8c-2.7,0-5.2-0.9-7.3-2.8c-2.1-1.8-3.2-4.5-3.2-7.9V1164.1z
				 M1016.7,1164.4c0-1.8-0.5-3.2-1.4-4.2c-1-1-2.2-1.5-3.8-1.5c-1.6,0-2.8,0.5-3.8,1.5c-1,1-1.4,2.4-1.4,4.2v15.7
				c0,1.8,0.5,3.2,1.4,4.2c1,1,2.2,1.5,3.8,1.5c1.6,0,2.8-0.5,3.8-1.5c1-1,1.4-2.4,1.4-4.2V1164.4z"/>
		</g>
	</g>
	<g id="XMLID_379_">
		<g id="XMLID_222_">
			<path id="XMLID_223_" fill="#909DA1" d="M1146.1,1185.8l14.5-18.1c0.6-0.7,1-1.4,1.1-2c0.2-0.6,0.2-1.2,0.2-1.7c0,0,0-0.1,0-0.1
				c0,0,0,0,0-0.1c0-1.3-0.5-2.5-1.4-3.5c-0.9-1.1-2.1-1.6-3.7-1.6c-1.4,0-2.6,0.5-3.7,1.4s-1.6,2.3-1.7,3.9h-5.3
				c0-3,1.1-5.5,3.1-7.6c2-2,4.4-3.1,7.2-3.1c3.1,0,5.7,1,7.7,3.1c2.1,2.1,3.1,4.6,3.1,7.5c0,1.2-0.2,2.4-0.5,3.4
				c-0.3,1.1-0.9,2.1-1.7,3.1l-11.9,14.9h14.1v5.3h-21.1V1185.8z"/>
			<path id="XMLID_225_" fill="#909DA1" d="M1172.7,1164.1c0-3.4,1.1-6,3.2-7.9s4.6-2.8,7.3-2.8c2.7,0,5.2,0.9,7.3,2.8
				s3.2,4.5,3.2,7.9v16.3c0,3.4-1.1,6-3.2,7.9c-2.1,1.8-4.6,2.8-7.3,2.8c-2.7,0-5.2-0.9-7.3-2.8c-2.1-1.8-3.2-4.5-3.2-7.9V1164.1z
				 M1188.4,1164.4c0-1.8-0.5-3.2-1.4-4.2c-1-1-2.2-1.5-3.8-1.5c-1.6,0-2.8,0.5-3.8,1.5c-1,1-1.4,2.4-1.4,4.2v15.7
				c0,1.8,0.5,3.2,1.4,4.2c1,1,2.2,1.5,3.8,1.5c1.6,0,2.8-0.5,3.8-1.5c1-1,1.4-2.4,1.4-4.2V1164.4z"/>
			<path id="XMLID_228_" fill="#909DA1" d="M1207.1,1159.4l-5.3,3.8v-5.6l5.3-3.8h5.3v37h-5.3V1159.4z"/>
			<path id="XMLID_230_" fill="#909DA1" d="M1233.3,1159.4l-5.3,3.8v-5.6l5.3-3.8h5.3v37h-5.3V1159.4z"/>
		</g>
	</g>
	<g id="XMLID_377_">
		<g id="XMLID_206_">
			<path id="XMLID_207_" fill="#909DA1" d="M1370.4,1185.8l14.5-18.1c0.6-0.7,1-1.4,1.1-2c0.2-0.6,0.2-1.2,0.2-1.7c0,0,0-0.1,0-0.1
				c0,0,0,0,0-0.1c0-1.3-0.5-2.5-1.4-3.5c-0.9-1.1-2.1-1.6-3.7-1.6c-1.4,0-2.6,0.5-3.7,1.4s-1.6,2.3-1.7,3.9h-5.3
				c0-3,1.1-5.5,3.1-7.6c2-2,4.4-3.1,7.2-3.1c3.1,0,5.7,1,7.7,3.1c2.1,2.1,3.1,4.6,3.1,7.5c0,1.2-0.2,2.4-0.5,3.4
				c-0.3,1.1-0.9,2.1-1.7,3.1l-11.9,14.9h14.1v5.3h-21.1V1185.8z"/>
			<path id="XMLID_211_" fill="#909DA1" d="M1397,1164.1c0-3.4,1.1-6,3.2-7.9s4.6-2.8,7.3-2.8c2.7,0,5.2,0.9,7.3,2.8
				s3.2,4.5,3.2,7.9v16.3c0,3.4-1.1,6-3.2,7.9c-2.1,1.8-4.6,2.8-7.3,2.8c-2.7,0-5.2-0.9-7.3-2.8c-2.1-1.8-3.2-4.5-3.2-7.9V1164.1z
				 M1412.7,1164.4c0-1.8-0.5-3.2-1.4-4.2c-1-1-2.2-1.5-3.8-1.5c-1.6,0-2.8,0.5-3.8,1.5c-1,1-1.4,2.4-1.4,4.2v15.7
				c0,1.8,0.5,3.2,1.4,4.2c1,1,2.2,1.5,3.8,1.5c1.6,0,2.8-0.5,3.8-1.5c1-1,1.4-2.4,1.4-4.2V1164.4z"/>
			<path id="XMLID_214_" fill="#909DA1" d="M1431.4,1159.4l-5.3,3.8v-5.6l5.3-3.8h5.3v37h-5.3V1159.4z"/>
			<path id="XMLID_220_" fill="#909DA1" d="M1449.2,1185.8l14.5-18.1c0.6-0.7,1-1.4,1.1-2c0.2-0.6,0.2-1.2,0.2-1.7c0,0,0-0.1,0-0.1
				c0,0,0,0,0-0.1c0-1.3-0.5-2.5-1.4-3.5c-0.9-1.1-2.1-1.6-3.7-1.6c-1.4,0-2.6,0.5-3.7,1.4s-1.6,2.3-1.7,3.9h-5.3
				c0-3,1.1-5.5,3.1-7.6c2-2,4.4-3.1,7.2-3.1c3.1,0,5.7,1,7.7,3.1c2.1,2.1,3.1,4.6,3.1,7.5c0,1.2-0.2,2.4-0.5,3.4
				c-0.3,1.1-0.9,2.1-1.7,3.1l-11.9,14.9h14.1v5.3h-21.1V1185.8z"/>
		</g>
	</g>
	<g id="XMLID_375_">
		<g id="XMLID_189_">
			<path id="XMLID_190_" fill="#909DA1" d="M1594.7,1185.8l14.5-18.1c0.6-0.7,1-1.4,1.1-2c0.2-0.6,0.2-1.2,0.2-1.7c0,0,0-0.1,0-0.1
				c0,0,0,0,0-0.1c0-1.3-0.5-2.5-1.4-3.5c-0.9-1.1-2.1-1.6-3.7-1.6c-1.4,0-2.6,0.5-3.7,1.4s-1.6,2.3-1.7,3.9h-5.3
				c0-3,1.1-5.5,3.1-7.6c2-2,4.4-3.1,7.2-3.1c3.1,0,5.7,1,7.7,3.1c2.1,2.1,3.1,4.6,3.1,7.5c0,1.2-0.2,2.4-0.5,3.4
				c-0.3,1.1-0.9,2.1-1.7,3.1l-11.9,14.9h14.1v5.3h-21.1V1185.8z"/>
			<path id="XMLID_197_" fill="#909DA1" d="M1621.3,1164.1c0-3.4,1.1-6,3.2-7.9s4.6-2.8,7.3-2.8c2.7,0,5.2,0.9,7.3,2.8
				s3.2,4.5,3.2,7.9v16.3c0,3.4-1.1,6-3.2,7.9c-2.1,1.8-4.6,2.8-7.3,2.8c-2.7,0-5.2-0.9-7.3-2.8c-2.1-1.8-3.2-4.5-3.2-7.9V1164.1z
				 M1637,1164.4c0-1.8-0.5-3.2-1.4-4.2c-1-1-2.2-1.5-3.8-1.5c-1.6,0-2.8,0.5-3.8,1.5c-1,1-1.4,2.4-1.4,4.2v15.7
				c0,1.8,0.5,3.2,1.4,4.2c1,1,2.2,1.5,3.8,1.5c1.6,0,2.8-0.5,3.8-1.5c1-1,1.4-2.4,1.4-4.2V1164.4z"/>
			<path id="XMLID_200_" fill="#909DA1" d="M1655.6,1159.4l-5.3,3.8v-5.6l5.3-3.8h5.3v37h-5.3V1159.4z"/>
			<path id="XMLID_202_" fill="#909DA1" d="M1681,1169.4h1.8c1.8,0,3.2-0.5,4.2-1.5c1-1,1.5-2.3,1.5-3.7c0-1.5-0.5-2.8-1.6-3.8
				c-1.1-1-2.3-1.5-3.8-1.5c0,0-0.1,0-0.1,0s-0.1,0-0.1,0c-1.1,0-2.1,0.4-3,1.2c-1,0.7-1.6,1.8-1.8,3.3h-5.3
				c0.2-2.6,1.3-4.9,3.3-6.9c2-1.9,4.3-2.9,6.9-2.9c3.3,0,5.9,1.1,7.9,3.3c2,2.2,3,4.6,3,7.3c0,0.1,0,0.1,0,0.2c0,0.1,0,0.2,0,0.2
				c-0.1,1.3-0.4,2.6-0.9,3.9c-0.6,1.3-1.6,2.4-3,3.3c1.4,0.9,2.5,2,3.2,3.3s1.1,2.6,1.1,4c0,0.1,0.1,0.3,0.1,0.4c0,0.1,0,0.3,0,0.4
				c0,3.4-1.1,6.2-3.3,8.2c-2.2,2-4.8,3.1-8,3.1c-2.5,0-4.8-0.8-6.8-2.4c-2-1.6-3.3-4-3.7-7h5.3c0.5,1.3,1.2,2.3,2,3.1
				c0.8,0.8,2,1.1,3.5,1.1c1.5,0,2.8-0.5,3.9-1.6c1.1-1.1,1.7-2.5,1.7-4.3c0-1.8-0.6-3.3-1.7-4.3c-1.1-1-2.5-1.6-4-1.6h-2.2V1169.4z
				"/>
		</g>
	</g>
	<g id="XMLID_373_">
		<g id="XMLID_124_">
			<path id="XMLID_125_" fill="#909DA1" d="M1819,1185.8l14.5-18.1c0.6-0.7,1-1.4,1.1-2c0.2-0.6,0.2-1.2,0.2-1.7c0,0,0-0.1,0-0.1
				c0,0,0,0,0-0.1c0-1.3-0.5-2.5-1.4-3.5c-0.9-1.1-2.1-1.6-3.7-1.6c-1.4,0-2.6,0.5-3.7,1.4s-1.6,2.3-1.7,3.9h-5.3
				c0-3,1.1-5.5,3.1-7.6c2-2,4.4-3.1,7.2-3.1c3.1,0,5.7,1,7.7,3.1c2.1,2.1,3.1,4.6,3.1,7.5c0,1.2-0.2,2.4-0.5,3.4
				c-0.3,1.1-0.9,2.1-1.7,3.1l-11.9,14.9h14.1v5.3H1819V1185.8z"/>
			<path id="XMLID_127_" fill="#909DA1" d="M1845.6,1164.1c0-3.4,1.1-6,3.2-7.9s4.6-2.8,7.3-2.8c2.7,0,5.2,0.9,7.3,2.8
				s3.2,4.5,3.2,7.9v16.3c0,3.4-1.1,6-3.2,7.9c-2.1,1.8-4.6,2.8-7.3,2.8c-2.7,0-5.2-0.9-7.3-2.8c-2.1-1.8-3.2-4.5-3.2-7.9V1164.1z
				 M1861.3,1164.4c0-1.8-0.5-3.2-1.4-4.2c-1-1-2.2-1.5-3.8-1.5c-1.6,0-2.8,0.5-3.8,1.5c-1,1-1.4,2.4-1.4,4.2v15.7
				c0,1.8,0.5,3.2,1.4,4.2c1,1,2.2,1.5,3.8,1.5c1.6,0,2.8-0.5,3.8-1.5c1-1,1.4-2.4,1.4-4.2V1164.4z"/>
			<path id="XMLID_185_" fill="#909DA1" d="M1879.9,1159.4l-5.3,3.8v-5.6l5.3-3.8h5.3v37h-5.3V1159.4z"/>
			<path id="XMLID_187_" fill="#909DA1" d="M1896.7,1180.3l12.4-26.5h5.9l-12.5,26.5h9.7v-10.7h5.3v10.7h3v5h-3v5.5h-5.3v-5.5h-15.4
				V1180.3z"/>
		</g>
	</g>
	<g id="XMLID_371_">
		<g id="XMLID_113_">
			<path id="XMLID_114_" fill="#909DA1" d="M2043.3,1185.8l14.5-18.1c0.6-0.7,1-1.4,1.1-2c0.2-0.6,0.2-1.2,0.2-1.7c0,0,0-0.1,0-0.1
				c0,0,0,0,0-0.1c0-1.3-0.5-2.5-1.4-3.5c-0.9-1.1-2.1-1.6-3.7-1.6c-1.4,0-2.6,0.5-3.7,1.4s-1.6,2.3-1.7,3.9h-5.3
				c0-3,1.1-5.5,3.1-7.6c2-2,4.4-3.1,7.2-3.1c3.1,0,5.7,1,7.7,3.1c2.1,2.1,3.1,4.6,3.1,7.5c0,1.2-0.2,2.4-0.5,3.4
				c-0.3,1.1-0.9,2.1-1.7,3.1l-11.9,14.9h14.1v5.3h-21.1V1185.8z"/>
			<path id="XMLID_117_" fill="#909DA1" d="M2069.8,1164.1c0-3.4,1.1-6,3.2-7.9s4.6-2.8,7.3-2.8c2.7,0,5.2,0.9,7.3,2.8
				s3.2,4.5,3.2,7.9v16.3c0,3.4-1.1,6-3.2,7.9c-2.1,1.8-4.6,2.8-7.3,2.8c-2.7,0-5.2-0.9-7.3-2.8c-2.1-1.8-3.2-4.5-3.2-7.9V1164.1z
				 M2085.5,1164.4c0-1.8-0.5-3.2-1.4-4.2c-1-1-2.2-1.5-3.8-1.5c-1.6,0-2.8,0.5-3.8,1.5c-1,1-1.4,2.4-1.4,4.2v15.7
				c0,1.8,0.5,3.2,1.4,4.2c1,1,2.2,1.5,3.8,1.5c1.6,0,2.8-0.5,3.8-1.5c1-1,1.4-2.4,1.4-4.2V1164.4z"/>
			<path id="XMLID_120_" fill="#909DA1" d="M2104.2,1159.4l-5.3,3.8v-5.6l5.3-3.8h5.3v37h-5.3V1159.4z"/>
			<path id="XMLID_122_" fill="#909DA1" d="M2123,1153.8h19.7v5.3H2128v8.4c0.9-0.7,1.8-1.2,2.8-1.5c1-0.3,2-0.5,3.1-0.5
				c1.4,0,2.7,0.3,3.9,0.8c1.2,0.5,2.1,1.2,2.7,1.9c0.1,0.1,0.1,0.1,0.2,0.2c0.1,0.1,0.2,0.2,0.2,0.3c0.8,1,1.4,2.1,1.8,3.4
				c0.4,1.3,0.6,3.4,0.6,6.2c0,2.4-0.2,4.2-0.5,5.4c-0.3,1.2-0.9,2.3-1.6,3.3c0,0-0.1,0.1-0.1,0.1c0,0,0,0.1-0.1,0.1
				c0,0-0.1,0.1-0.1,0.1s-0.1,0.1-0.1,0.1c-0.8,0.9-1.9,1.8-3.2,2.5c-1.3,0.7-2.9,1.1-4.6,1.1c-0.2,0-0.5,0-0.7,0
				c-0.2,0-0.4,0-0.7,0c-2.2-0.2-4.2-1.1-6.1-2.6c-1.9-1.5-3-3.8-3.4-6.9h5.3c0.3,1.3,0.9,2.4,1.7,3.1s2.1,1.2,3.6,1.2
				c2.1,0,3.5-0.6,4.1-1.9s1-2.6,1-4.1c0-0.3,0.1-0.7,0.1-1c0-0.3,0-0.6,0-1c0-2-0.3-3.7-1-5.1c-0.7-1.4-2.1-2-4.3-2
				c-1,0-1.9,0.2-2.7,0.7c-0.8,0.5-1.5,1.3-2.1,2.4h-5V1153.8z"/>
		</g>
	</g>
	<g id="XMLID_369_">
		<g id="XMLID_101_">
			<path id="XMLID_103_" fill="#909DA1" d="M2267.5,1185.8l14.5-18.1c0.6-0.7,1-1.4,1.1-2c0.2-0.6,0.2-1.2,0.2-1.7c0,0,0-0.1,0-0.1
				c0,0,0,0,0-0.1c0-1.3-0.5-2.5-1.4-3.5c-0.9-1.1-2.1-1.6-3.7-1.6c-1.4,0-2.6,0.5-3.7,1.4s-1.6,2.3-1.7,3.9h-5.3
				c0-3,1.1-5.5,3.1-7.6c2-2,4.4-3.1,7.2-3.1c3.1,0,5.7,1,7.7,3.1c2.1,2.1,3.1,4.6,3.1,7.5c0,1.2-0.2,2.4-0.5,3.4
				c-0.3,1.1-0.9,2.1-1.7,3.1l-11.9,14.9h14.1v5.3h-21.1V1185.8z"/>
			<path id="XMLID_105_" fill="#909DA1" d="M2294.1,1164.1c0-3.4,1.1-6,3.2-7.9s4.6-2.8,7.3-2.8c2.7,0,5.2,0.9,7.3,2.8
				s3.2,4.5,3.2,7.9v16.3c0,3.4-1.1,6-3.2,7.9c-2.1,1.8-4.6,2.8-7.3,2.8c-2.7,0-5.2-0.9-7.3-2.8c-2.1-1.8-3.2-4.5-3.2-7.9V1164.1z
				 M2309.8,1164.4c0-1.8-0.5-3.2-1.4-4.2c-1-1-2.2-1.5-3.8-1.5c-1.6,0-2.8,0.5-3.8,1.5c-1,1-1.4,2.4-1.4,4.2v15.7
				c0,1.8,0.5,3.2,1.4,4.2c1,1,2.2,1.5,3.8,1.5c1.6,0,2.8-0.5,3.8-1.5c1-1,1.4-2.4,1.4-4.2V1164.4z"/>
			<path id="XMLID_108_" fill="#909DA1" d="M2328.5,1159.4l-5.3,3.8v-5.6l5.3-3.8h5.3v37h-5.3V1159.4z"/>
			<path id="XMLID_110_" fill="#909DA1" d="M2357.9,1153.8h5.9l-7.8,15.7h0.1c0.2-0.1,0.5-0.2,0.8-0.2c0.3-0.1,0.6-0.1,0.8-0.1
				c0.2,0,0.4-0.1,0.6-0.1c0.2,0,0.4,0,0.6,0c2.4,0,4.4,0.8,6.2,2.4c1.8,1.6,2.7,4.2,2.7,7.9c0,4.2-1.1,7.3-3.4,9.1
				c-2.3,1.8-4.8,2.7-7.5,2.7c-2.6,0-4.9-1-7.1-3s-3.2-4.7-3.2-8.2c0-1.1,0.1-2.2,0.4-3.2c0.2-1,0.6-2,1-3L2357.9,1153.8z
				 M2353.4,1175.1c-1,1-1.6,2.5-1.6,4.6s0.5,3.6,1.5,4.6c1,1,2.3,1.5,3.8,1.5c0.1,0,0.3,0,0.5,0c0.2,0,0.3,0,0.5-0.1
				c1.1-0.2,2.1-0.7,3-1.7c0.9-0.9,1.4-2.4,1.4-4.3c0-2.1-0.5-3.6-1.6-4.6c-1-1-2.3-1.5-3.7-1.5
				C2355.7,1173.6,2354.4,1174.1,2353.4,1175.1z"/>
		</g>
	</g>
	<g id="XMLID_367_">
		<g id="XMLID_91_">
			<path id="XMLID_92_" fill="#909DA1" d="M2491.8,1185.8l14.5-18.1c0.6-0.7,1-1.4,1.1-2c0.2-0.6,0.2-1.2,0.2-1.7c0,0,0-0.1,0-0.1
				c0,0,0,0,0-0.1c0-1.3-0.5-2.5-1.4-3.5c-0.9-1.1-2.1-1.6-3.7-1.6c-1.4,0-2.6,0.5-3.7,1.4s-1.6,2.3-1.7,3.9h-5.3
				c0-3,1.1-5.5,3.1-7.6c2-2,4.4-3.1,7.2-3.1c3.1,0,5.7,1,7.7,3.1c2.1,2.1,3.1,4.6,3.1,7.5c0,1.2-0.2,2.4-0.5,3.4
				c-0.3,1.1-0.9,2.1-1.7,3.1l-11.9,14.9h14.1v5.3h-21.1V1185.8z"/>
			<path id="XMLID_94_" fill="#909DA1" d="M2518.4,1164.1c0-3.4,1.1-6,3.2-7.9s4.6-2.8,7.3-2.8c2.7,0,5.2,0.9,7.3,2.8
				s3.2,4.5,3.2,7.9v16.3c0,3.4-1.1,6-3.2,7.9c-2.1,1.8-4.6,2.8-7.3,2.8c-2.7,0-5.2-0.9-7.3-2.8c-2.1-1.8-3.2-4.5-3.2-7.9V1164.1z
				 M2534.1,1164.4c0-1.8-0.5-3.2-1.4-4.2c-1-1-2.2-1.5-3.8-1.5c-1.6,0-2.8,0.5-3.8,1.5c-1,1-1.4,2.4-1.4,4.2v15.7
				c0,1.8,0.5,3.2,1.4,4.2c1,1,2.2,1.5,3.8,1.5c1.6,0,2.8-0.5,3.8-1.5c1-1,1.4-2.4,1.4-4.2V1164.4z"/>
			<path id="XMLID_97_" fill="#909DA1" d="M2552.8,1159.4l-5.3,3.8v-5.6l5.3-3.8h5.3v37h-5.3V1159.4z"/>
			<path id="XMLID_99_" fill="#909DA1" d="M2571.6,1153.8h21.1v5.3l-12.5,31.7h-5.9l12.5-31.7h-9.8v5.4h-5.3V1153.8z"/>
		</g>
	</g>
	<g id="XMLID_347_">
		<g id="XMLID_84_">
			<path id="XMLID_85_" fill="#909DA1" d="M789.1,905.2l14.5-18.1c0.6-0.7,1-1.4,1.1-2c0.2-0.6,0.2-1.2,0.2-1.7c0,0,0-0.1,0-0.1
				c0,0,0,0,0-0.1c0-1.3-0.5-2.5-1.4-3.5c-0.9-1.1-2.1-1.6-3.7-1.6c-1.4,0-2.6,0.5-3.7,1.4s-1.6,2.3-1.7,3.9h-5.3
				c0-3,1.1-5.5,3.1-7.6c2-2,4.4-3.1,7.2-3.1c3.1,0,5.7,1,7.7,3.1c2.1,2.1,3.1,4.6,3.1,7.5c0,1.2-0.2,2.4-0.5,3.4
				c-0.3,1.1-0.9,2.1-1.7,3.1l-11.9,14.9h14.1v5.3h-21.1V905.2z"/>
			<path id="XMLID_87_" fill="#909DA1" d="M815.7,883.5c0-3.4,1.1-6,3.2-7.9s4.6-2.8,7.3-2.8c2.7,0,5.2,0.9,7.3,2.8s3.2,4.5,3.2,7.9
				v16.3c0,3.4-1.1,6-3.2,7.9c-2.1,1.8-4.6,2.8-7.3,2.8c-2.7,0-5.2-0.9-7.3-2.8c-2.1-1.8-3.2-4.5-3.2-7.9V883.5z M831.4,883.9
				c0-1.8-0.5-3.2-1.4-4.2c-1-1-2.2-1.5-3.8-1.5c-1.6,0-2.8,0.5-3.8,1.5c-1,1-1.4,2.4-1.4,4.2v15.7c0,1.8,0.5,3.2,1.4,4.2
				c1,1,2.2,1.5,3.8,1.5c1.6,0,2.8-0.5,3.8-1.5c1-1,1.4-2.4,1.4-4.2V883.9z"/>
		</g>
	</g>
	<g id="XMLID_345_">
		<g id="XMLID_78_">
			<path id="XMLID_79_" fill="#909DA1" d="M796.6,791.7h1.8c1.8,0,3.2-0.5,4.2-1.5c1-1,1.5-2.3,1.5-3.7c0-1.5-0.5-2.8-1.6-3.8
				c-1.1-1-2.3-1.5-3.8-1.5c0,0-0.1,0-0.1,0s-0.1,0-0.1,0c-1.1,0-2.1,0.4-3,1.2c-1,0.7-1.6,1.8-1.8,3.3h-5.3
				c0.2-2.6,1.3-4.9,3.3-6.9c2-1.9,4.3-2.9,6.9-2.9c3.3,0,5.9,1.1,7.9,3.3c2,2.2,3,4.6,3,7.3c0,0.1,0,0.1,0,0.2c0,0.1,0,0.2,0,0.2
				c-0.1,1.3-0.4,2.6-0.9,3.9c-0.6,1.3-1.6,2.4-3,3.3c1.4,0.9,2.5,2,3.2,3.3s1.1,2.6,1.1,4c0,0.1,0.1,0.3,0.1,0.4c0,0.1,0,0.3,0,0.4
				c0,3.4-1.1,6.2-3.3,8.2c-2.2,2-4.8,3.1-8,3.1c-2.5,0-4.8-0.8-6.8-2.4c-2-1.6-3.3-4-3.7-7h5.3c0.5,1.3,1.2,2.3,2,3.1
				c0.8,0.8,2,1.1,3.5,1.1c1.5,0,2.8-0.5,3.9-1.6c1.1-1.1,1.7-2.5,1.7-4.3c0-1.8-0.6-3.3-1.7-4.3c-1.1-1-2.5-1.6-4-1.6h-2.2V791.7z"
				/>
			<path id="XMLID_81_" fill="#909DA1" d="M815.7,786.4c0-3.4,1.1-6,3.2-7.9s4.6-2.8,7.3-2.8c2.7,0,5.2,0.9,7.3,2.8s3.2,4.5,3.2,7.9
				v16.3c0,3.4-1.1,6-3.2,7.9c-2.1,1.8-4.6,2.8-7.3,2.8c-2.7,0-5.2-0.9-7.3-2.8c-2.1-1.8-3.2-4.5-3.2-7.9V786.4z M831.4,786.7
				c0-1.8-0.5-3.2-1.4-4.2c-1-1-2.2-1.5-3.8-1.5c-1.6,0-2.8,0.5-3.8,1.5c-1,1-1.4,2.4-1.4,4.2v15.7c0,1.8,0.5,3.2,1.4,4.2
				c1,1,2.2,1.5,3.8,1.5c1.6,0,2.8-0.5,3.8-1.5c1-1,1.4-2.4,1.4-4.2V786.7z"/>
		</g>
	</g>
	<g id="XMLID_343_">
		<g id="XMLID_71_">
			<path id="XMLID_72_" fill="#909DA1" d="M788.1,702.6l12.4-26.5h5.9l-12.5,26.5h9.7V692h5.3v10.7h3v5h-3v5.5h-5.3v-5.5h-15.4
				V702.6z"/>
			<path id="XMLID_74_" fill="#909DA1" d="M815.7,686.5c0-3.4,1.1-6,3.2-7.9s4.6-2.8,7.3-2.8c2.7,0,5.2,0.9,7.3,2.8s3.2,4.5,3.2,7.9
				v16.3c0,3.4-1.1,6-3.2,7.9c-2.1,1.8-4.6,2.8-7.3,2.8c-2.7,0-5.2-0.9-7.3-2.8c-2.1-1.8-3.2-4.5-3.2-7.9V686.5z M831.4,686.8
				c0-1.8-0.5-3.2-1.4-4.2c-1-1-2.2-1.5-3.8-1.5c-1.6,0-2.8,0.5-3.8,1.5c-1,1-1.4,2.4-1.4,4.2v15.7c0,1.8,0.5,3.2,1.4,4.2
				c1,1,2.2,1.5,3.8,1.5c1.6,0,2.8-0.5,3.8-1.5c1-1,1.4-2.4,1.4-4.2V686.8z"/>
		</g>
	</g>
	<g id="XMLID_341_">
		<g id="XMLID_65_">
			<path id="XMLID_66_" fill="#909DA1" d="M790,579h19.7v5.3H795v8.4c0.9-0.7,1.8-1.2,2.8-1.5c1-0.3,2-0.5,3.1-0.5
				c1.4,0,2.7,0.3,3.9,0.8c1.2,0.5,2.1,1.2,2.7,1.9c0.1,0.1,0.1,0.1,0.2,0.2c0.1,0.1,0.2,0.2,0.2,0.3c0.8,1,1.4,2.1,1.8,3.4
				c0.4,1.3,0.6,3.4,0.6,6.2c0,2.4-0.2,4.2-0.5,5.4c-0.3,1.2-0.9,2.3-1.6,3.3c0,0-0.1,0.1-0.1,0.1c0,0,0,0.1-0.1,0.1
				c0,0-0.1,0.1-0.1,0.1s-0.1,0.1-0.1,0.1c-0.8,0.9-1.9,1.8-3.2,2.5c-1.3,0.7-2.9,1.1-4.6,1.1c-0.2,0-0.5,0-0.7,0
				c-0.2,0-0.4,0-0.7,0c-2.2-0.2-4.2-1.1-6.1-2.6c-1.9-1.5-3-3.8-3.4-6.9h5.3c0.3,1.3,0.9,2.4,1.7,3.1s2.1,1.2,3.6,1.2
				c2.1,0,3.5-0.6,4.1-1.9s1-2.6,1-4.1c0-0.3,0.1-0.7,0.1-1c0-0.3,0-0.6,0-1c0-2-0.3-3.7-1-5.1c-0.7-1.4-2.1-2-4.3-2
				c-1,0-1.9,0.2-2.7,0.7c-0.8,0.5-1.5,1.3-2.1,2.4h-5V579z"/>
			<path id="XMLID_68_" fill="#909DA1" d="M815.7,589.4c0-3.4,1.1-6,3.2-7.9s4.6-2.8,7.3-2.8c2.7,0,5.2,0.9,7.3,2.8s3.2,4.5,3.2,7.9
				v16.3c0,3.4-1.1,6-3.2,7.9c-2.1,1.8-4.6,2.8-7.3,2.8c-2.7,0-5.2-0.9-7.3-2.8c-2.1-1.8-3.2-4.5-3.2-7.9V589.4z M831.4,589.7
				c0-1.8-0.5-3.2-1.4-4.2c-1-1-2.2-1.5-3.8-1.5c-1.6,0-2.8,0.5-3.8,1.5c-1,1-1.4,2.4-1.4,4.2v15.7c0,1.8,0.5,3.2,1.4,4.2
				c1,1,2.2,1.5,3.8,1.5c1.6,0,2.8-0.5,3.8-1.5c1-1,1.4-2.4,1.4-4.2V589.7z"/>
		</g>
	</g>
	<g id="XMLID_339_">
		<g id="XMLID_35_">
			<path id="XMLID_57_" fill="#909DA1" d="M800.7,481.9h5.9l-7.8,15.7h0.1c0.2-0.1,0.5-0.2,0.8-0.2c0.3-0.1,0.6-0.1,0.8-0.1
				c0.2,0,0.4-0.1,0.6-0.1c0.2,0,0.4,0,0.6,0c2.4,0,4.4,0.8,6.2,2.4c1.8,1.6,2.7,4.2,2.7,7.9c0,4.2-1.1,7.3-3.4,9.1
				c-2.3,1.8-4.8,2.7-7.5,2.7c-2.6,0-4.9-1-7.1-3s-3.2-4.7-3.2-8.2c0-1.1,0.1-2.2,0.4-3.2c0.2-1,0.6-2,1-3L800.7,481.9z
				 M796.2,503.2c-1,1-1.6,2.5-1.6,4.6s0.5,3.6,1.5,4.6c1,1,2.3,1.5,3.8,1.5c0.1,0,0.3,0,0.5,0c0.2,0,0.3,0,0.5-0.1
				c1.1-0.2,2.1-0.7,3-1.7c0.9-0.9,1.4-2.4,1.4-4.3c0-2.1-0.5-3.6-1.6-4.6c-1-1-2.3-1.5-3.7-1.5
				C798.5,501.8,797.2,502.3,796.2,503.2z"/>
			<path id="XMLID_60_" fill="#909DA1" d="M815.7,492.2c0-3.4,1.1-6,3.2-7.9s4.6-2.8,7.3-2.8c2.7,0,5.2,0.9,7.3,2.8s3.2,4.5,3.2,7.9
				v16.3c0,3.4-1.1,6-3.2,7.9c-2.1,1.8-4.6,2.8-7.3,2.8c-2.7,0-5.2-0.9-7.3-2.8c-2.1-1.8-3.2-4.5-3.2-7.9V492.2z M831.4,492.6
				c0-1.8-0.5-3.2-1.4-4.2c-1-1-2.2-1.5-3.8-1.5c-1.6,0-2.8,0.5-3.8,1.5c-1,1-1.4,2.4-1.4,4.2v15.7c0,1.8,0.5,3.2,1.4,4.2
				c1,1,2.2,1.5,3.8,1.5c1.6,0,2.8-0.5,3.8-1.5c1-1,1.4-2.4,1.4-4.2V492.6z"/>
		</g>
	</g>
	<g id="XMLID_337_">
		<g id="XMLID_25_">
			<path id="XMLID_26_" fill="#909DA1" d="M790.1,384.8h21.1v5.3l-12.5,31.7h-5.9l12.5-31.7h-9.8v5.4h-5.3V384.8z"/>
			<path id="XMLID_28_" fill="#909DA1" d="M815.7,395.1c0-3.4,1.1-6,3.2-7.9s4.6-2.8,7.3-2.8c2.7,0,5.2,0.9,7.3,2.8s3.2,4.5,3.2,7.9
				v16.3c0,3.4-1.1,6-3.2,7.9c-2.1,1.8-4.6,2.8-7.3,2.8c-2.7,0-5.2-0.9-7.3-2.8c-2.1-1.8-3.2-4.5-3.2-7.9V395.1z M831.4,395.4
				c0-1.8-0.5-3.2-1.4-4.2c-1-1-2.2-1.5-3.8-1.5c-1.6,0-2.8,0.5-3.8,1.5c-1,1-1.4,2.4-1.4,4.2v15.7c0,1.8,0.5,3.2,1.4,4.2
				c1,1,2.2,1.5,3.8,1.5c1.6,0,2.8-0.5,3.8-1.5c1-1,1.4-2.4,1.4-4.2V395.4z"/>
		</g>
	</g>
	<g id="XMLID_335_">
		<g id="XMLID_17_">
			<path id="XMLID_18_" fill="#909DA1" d="M789.8,306.3c0.8-1.4,1.8-2.6,3.2-3.6c-1.1-1-2-2.1-2.7-3.3c-0.7-1.2-1-2.6-1-4.2
				c0-3,1-5.5,3.1-7.6c2-2.1,4.6-3.1,7.5-3.1c3,0,5.5,1,7.5,3.1c2,2.1,3.1,4.6,3.1,7.6c0,1.6-0.3,3-1,4.2c-0.7,1.2-1.6,2.3-2.7,3.3
				c1.4,0.9,2.5,2.1,3.3,3.6c0.7,1.4,1.1,3,1.1,4.8c0,3.3-1.1,5.9-3.3,8s-4.9,3.1-8,3.1c-3.1,0-5.7-1-7.9-3.1
				c-2.2-2.1-3.4-4.7-3.4-8C788.6,309.3,789,307.7,789.8,306.3z M795.7,315.2c1.2,1.1,2.6,1.7,4.2,1.7c1.6,0,3-0.6,4.2-1.7
				c1.2-1.1,1.8-2.5,1.8-4.2c0-1.7-0.6-3.1-1.8-4.2c-1.2-1.1-2.6-1.7-4.2-1.7c-1.6,0-3,0.6-4.2,1.7c-1.2,1.1-1.8,2.5-1.8,4.2
				C793.9,312.7,794.5,314.1,795.7,315.2z M796.3,299.1c1.1,0.9,2.3,1.4,3.7,1.4c1.4,0,2.6-0.5,3.7-1.4c1.1-0.9,1.6-2.2,1.6-4
				s-0.5-3.1-1.6-4c-1.1-0.9-2.3-1.4-3.7-1.4c-1.4,0-2.6,0.5-3.7,1.4c-1.1,0.9-1.6,2.2-1.6,4S795.2,298.2,796.3,299.1z"/>
			<path id="XMLID_22_" fill="#909DA1" d="M815.7,295.2c0-3.4,1.1-6,3.2-7.9s4.6-2.8,7.3-2.8c2.7,0,5.2,0.9,7.3,2.8s3.2,4.5,3.2,7.9
				v16.3c0,3.4-1.1,6-3.2,7.9c-2.1,1.8-4.6,2.8-7.3,2.8c-2.7,0-5.2-0.9-7.3-2.8c-2.1-1.8-3.2-4.5-3.2-7.9V295.2z M831.4,295.5
				c0-1.8-0.5-3.2-1.4-4.2c-1-1-2.2-1.5-3.8-1.5c-1.6,0-2.8,0.5-3.8,1.5c-1,1-1.4,2.4-1.4,4.2v15.7c0,1.8,0.5,3.2,1.4,4.2
				c1,1,2.2,1.5,3.8,1.5c1.6,0,2.8-0.5,3.8-1.5c1-1,1.4-2.4,1.4-4.2V295.5z"/>
		</g>
	</g>
	<g id="XMLID_331_">
		<g id="XMLID_10_">
			<path id="XMLID_11_" fill="#909DA1" d="M799.2,224.7h-5.9l7.8-15.7H801c-0.2,0.1-0.5,0.2-0.8,0.2c-0.3,0.1-0.6,0.1-0.8,0.1
				c-0.2,0-0.4,0.1-0.6,0.1s-0.4,0-0.6,0c-2.3,0-4.4-0.8-6.2-2.5c-1.8-1.6-2.7-4.3-2.7-7.8c0-4.2,1.1-7.3,3.4-9.1
				c2.3-1.8,4.8-2.8,7.5-2.8c2.6,0,4.9,1,7.1,3c2.1,2,3.2,4.8,3.2,8.3c0,1.1-0.1,2.1-0.3,3.2c-0.2,1.1-0.6,2.1-1.1,3L799.2,224.7z
				 M803.7,203.4c1-1,1.6-2.5,1.6-4.6s-0.5-3.6-1.4-4.6s-2.2-1.5-3.9-1.5c-0.1,0-0.3,0-0.5,0s-0.3,0-0.5,0.1c-1.1,0.2-2.1,0.7-3,1.7
				c-0.9,0.9-1.4,2.4-1.4,4.3c0,2.1,0.5,3.6,1.6,4.6c1,1,2.3,1.5,3.7,1.5C801.4,204.9,802.6,204.4,803.7,203.4z"/>
			<path id="XMLID_14_" fill="#909DA1" d="M815.7,198.1c0-3.4,1.1-6,3.2-7.9s4.6-2.8,7.3-2.8c2.7,0,5.2,0.9,7.3,2.8s3.2,4.5,3.2,7.9
				v16.3c0,3.4-1.1,6-3.2,7.9c-2.1,1.8-4.6,2.8-7.3,2.8c-2.7,0-5.2-0.9-7.3-2.8c-2.1-1.8-3.2-4.5-3.2-7.9V198.1z M831.4,198.4
				c0-1.8-0.5-3.2-1.4-4.2c-1-1-2.2-1.5-3.8-1.5c-1.6,0-2.8,0.5-3.8,1.5c-1,1-1.4,2.4-1.4,4.2v15.7c0,1.8,0.5,3.2,1.4,4.2
				c1,1,2.2,1.5,3.8,1.5c1.6,0,2.8-0.5,3.8-1.5c1-1,1.4-2.4,1.4-4.2V198.4z"/>
		</g>
	</g>
	<g id="XMLID_313_">
		<g id="XMLID_1_">
			<path id="XMLID_2_" fill="#909DA1" d="M771.3,96.2l-5.3,3.8v-5.6l5.3-3.8h5.3v37h-5.3V96.2z"/>
			<path id="XMLID_4_" fill="#909DA1" d="M789.4,100.9c0-3.4,1.1-6,3.2-7.9s4.6-2.8,7.3-2.8c2.7,0,5.2,0.9,7.3,2.8s3.2,4.5,3.2,7.9
				v16.3c0,3.4-1.1,6-3.2,7.9c-2.1,1.8-4.6,2.8-7.3,2.8c-2.7,0-5.2-0.9-7.3-2.8c-2.1-1.8-3.2-4.5-3.2-7.9V100.9z M805.1,101.3
				c0-1.8-0.5-3.2-1.4-4.2c-1-1-2.2-1.5-3.8-1.5c-1.6,0-2.8,0.5-3.8,1.5c-1,1-1.4,2.4-1.4,4.2V117c0,1.8,0.5,3.2,1.4,4.2
				c1,1,2.2,1.5,3.8,1.5c1.6,0,2.8-0.5,3.8-1.5c1-1,1.4-2.4,1.4-4.2V101.3z"/>
			<path id="XMLID_7_" fill="#909DA1" d="M815.7,100.9c0-3.4,1.1-6,3.2-7.9s4.6-2.8,7.3-2.8c2.7,0,5.2,0.9,7.3,2.8s3.2,4.5,3.2,7.9
				v16.3c0,3.4-1.1,6-3.2,7.9c-2.1,1.8-4.6,2.8-7.3,2.8c-2.7,0-5.2-0.9-7.3-2.8c-2.1-1.8-3.2-4.5-3.2-7.9V100.9z M831.4,101.3
				c0-1.8-0.5-3.2-1.4-4.2c-1-1-2.2-1.5-3.8-1.5c-1.6,0-2.8,0.5-3.8,1.5c-1,1-1.4,2.4-1.4,4.2V117c0,1.8,0.5,3.2,1.4,4.2
				c1,1,2.2,1.5,3.8,1.5c1.6,0,2.8-0.5,3.8-1.5c1-1,1.4-2.4,1.4-4.2V101.3z"/>
		</g>
	</g>
</g>
</svg>
