<?xml version="1.0" encoding="utf-8"?>
<!-- Generator: Adobe Illustrator 19.0.0, SVG Export Plug-In . SVG Version: 6.00 Build 0)  -->
<svg version="1.2" baseProfile="tiny" xmlns="http://www.w3.org/2000/svg" xmlns:xlink="http://www.w3.org/1999/xlink" x="0px"
	 y="0px" width="3812px" height="2403.9px" viewBox="0 0 3812 2403.9" xml:space="preserve">
<g id="achterWebsite">
	<rect id="XMLID_1899_" x="0" y="0" fill="#FFFFFF" width="3812" height="2403.9"/>
</g>
<g id="achterGroen">
</g>
<g id="verbindingen">
	<g id="XMLID_3779_">
	</g>
</g>
<g id="Laag_1">
</g>
<g id="Laag_4">
</g>
<g id="picture1">
</g>
<g id="nrs">
	<g id="XMLID_503_">
		
			<line id="XMLID_1317_" fill="none" stroke="#D3D8DA" stroke-width="8" stroke-linejoin="round" stroke-miterlimit="10" x1="635" y1="2118" x2="635" y2="2206.4"/>
		
			<line id="XMLID_1316_" fill="none" stroke="#D3D8DA" stroke-width="8" stroke-linejoin="round" stroke-miterlimit="10" x1="719.4" y1="2118" x2="719.4" y2="2160.3"/>
		
			<line id="XMLID_1315_" fill="none" stroke="#D3D8DA" stroke-width="8" stroke-linejoin="round" stroke-miterlimit="10" x1="803.8" y1="2118" x2="803.8" y2="2160.3"/>
		
			<line id="XMLID_1314_" fill="none" stroke="#D3D8DA" stroke-width="8" stroke-linejoin="round" stroke-miterlimit="10" x1="466.2" y1="2118" x2="466.2" y2="2160.3"/>
		
			<line id="XMLID_1313_" fill="none" stroke="#D3D8DA" stroke-width="8" stroke-linejoin="round" stroke-miterlimit="10" x1="550.6" y1="2118" x2="550.6" y2="2160.3"/>
		
			<line id="XMLID_1312_" fill="none" stroke="#D3D8DA" stroke-width="8" stroke-linejoin="round" stroke-miterlimit="10" x1="888.3" y1="2118" x2="888.3" y2="2160.3"/>
		
			<line id="XMLID_1311_" fill="none" stroke="#D3D8DA" stroke-width="8" stroke-linejoin="round" stroke-miterlimit="10" x1="1057.1" y1="2118" x2="1057.1" y2="2160.3"/>
		
			<line id="XMLID_1310_" fill="none" stroke="#D3D8DA" stroke-width="8" stroke-linejoin="round" stroke-miterlimit="10" x1="1141.5" y1="2118" x2="1141.5" y2="2160.3"/>
		
			<line id="XMLID_1309_" fill="none" stroke="#D3D8DA" stroke-width="8" stroke-linejoin="round" stroke-miterlimit="10" x1="1225.9" y1="2118" x2="1225.9" y2="2160.3"/>
		
			<line id="XMLID_1308_" fill="none" stroke="#D3D8DA" stroke-width="8" stroke-linejoin="round" stroke-miterlimit="10" x1="1394.7" y1="2118" x2="1394.7" y2="2160.3"/>
		
			<line id="XMLID_1307_" fill="none" stroke="#D3D8DA" stroke-width="8" stroke-linejoin="round" stroke-miterlimit="10" x1="1479.1" y1="2118" x2="1479.1" y2="2160.3"/>
		
			<line id="XMLID_1306_" fill="none" stroke="#D3D8DA" stroke-width="8" stroke-linejoin="round" stroke-miterlimit="10" x1="1563.5" y1="2118" x2="1563.5" y2="2160.3"/>
		
			<line id="XMLID_1305_" fill="none" stroke="#D3D8DA" stroke-width="8" stroke-linejoin="round" stroke-miterlimit="10" x1="1732.3" y1="2118" x2="1732.3" y2="2160.3"/>
		
			<line id="XMLID_1304_" fill="none" stroke="#D3D8DA" stroke-width="8" stroke-linejoin="round" stroke-miterlimit="10" x1="1816.7" y1="2118" x2="1816.7" y2="2160.3"/>
		
			<line id="XMLID_1303_" fill="none" stroke="#D3D8DA" stroke-width="8" stroke-linejoin="round" stroke-miterlimit="10" x1="1901.1" y1="2118" x2="1901.1" y2="2160.3"/>
		
			<line id="XMLID_1289_" fill="none" stroke="#D3D8DA" stroke-width="8" stroke-linejoin="round" stroke-miterlimit="10" x1="2069.9" y1="2118" x2="2069.9" y2="2160.3"/>
		
			<line id="XMLID_1288_" fill="none" stroke="#D3D8DA" stroke-width="8" stroke-linejoin="round" stroke-miterlimit="10" x1="2154.3" y1="2118" x2="2154.3" y2="2160.3"/>
		
			<line id="XMLID_1287_" fill="none" stroke="#D3D8DA" stroke-width="8" stroke-linejoin="round" stroke-miterlimit="10" x1="2238.7" y1="2118" x2="2238.7" y2="2160.3"/>
		
			<line id="XMLID_1286_" fill="none" stroke="#D3D8DA" stroke-width="8" stroke-linejoin="round" stroke-miterlimit="10" x1="2407.6" y1="2118" x2="2407.6" y2="2160.3"/>
		
			<line id="XMLID_1273_" fill="none" stroke="#D3D8DA" stroke-width="8" stroke-linejoin="round" stroke-miterlimit="10" x1="2492" y1="2118" x2="2492" y2="2160.3"/>
		
			<line id="XMLID_1252_" fill="none" stroke="#D3D8DA" stroke-width="8" stroke-linejoin="round" stroke-miterlimit="10" x1="2576.4" y1="2118" x2="2576.4" y2="2160.3"/>
		
			<line id="XMLID_1239_" fill="none" stroke="#D3D8DA" stroke-width="8" stroke-linejoin="round" stroke-miterlimit="10" x1="2745.2" y1="2118" x2="2745.2" y2="2160.3"/>
		
			<line id="XMLID_1170_" fill="none" stroke="#D3D8DA" stroke-width="8" stroke-linejoin="round" stroke-miterlimit="10" x1="2829.6" y1="2118" x2="2829.6" y2="2160.3"/>
		
			<line id="XMLID_1168_" fill="none" stroke="#D3D8DA" stroke-width="8" stroke-linejoin="round" stroke-miterlimit="10" x1="2914" y1="2118" x2="2914" y2="2160.3"/>
		
			<line id="XMLID_1167_" fill="none" stroke="#D3D8DA" stroke-width="8" stroke-linejoin="round" stroke-miterlimit="10" x1="381.8" y1="2118" x2="381.8" y2="2160.3"/>
		
			<line id="XMLID_1162_" fill="none" stroke="#D3D8DA" stroke-width="8" stroke-linejoin="round" stroke-miterlimit="10" x1="972.7" y1="2118" x2="972.7" y2="2206.4"/>
		
			<line id="XMLID_1160_" fill="none" stroke="#D3D8DA" stroke-width="8" stroke-linejoin="round" stroke-miterlimit="10" x1="1310.3" y1="2118" x2="1310.3" y2="2206.4"/>
		
			<line id="XMLID_1159_" fill="none" stroke="#D3D8DA" stroke-width="8" stroke-linejoin="round" stroke-miterlimit="10" x1="1647.9" y1="2118" x2="1647.9" y2="2206.4"/>
		
			<line id="XMLID_1154_" fill="none" stroke="#D3D8DA" stroke-width="8" stroke-linejoin="round" stroke-miterlimit="10" x1="1985.5" y1="2118" x2="1985.5" y2="2206.4"/>
		
			<line id="XMLID_1153_" fill="none" stroke="#D3D8DA" stroke-width="8" stroke-linejoin="round" stroke-miterlimit="10" x1="2323.2" y1="2118" x2="2323.2" y2="2206.4"/>
		
			<line id="XMLID_1152_" fill="none" stroke="#D3D8DA" stroke-width="8" stroke-linejoin="round" stroke-miterlimit="10" x1="2660.8" y1="2118" x2="2660.8" y2="2206.4"/>
		
			<line id="XMLID_1146_" fill="none" stroke="#D3D8DA" stroke-width="8" stroke-linejoin="round" stroke-miterlimit="10" x1="2998.4" y1="2118" x2="2998.4" y2="2206.4"/>
		<path id="XMLID_778_" fill="none" stroke="#D3D8DA" stroke-width="8" stroke-linejoin="round" stroke-miterlimit="10" d="
			M302.3,232h2784.3 M302.3,419h2784.3 M302.3,606h2784.3 M302.3,793h2784.3 M302.3,985.6h2784.3 M302.3,1172.6h2784.3
			 M302.3,1359.6h2784.3 M302.3,1552.1h2784.3 M302.3,1739.1h2784.3 M302.3,1926.1h2784.3"/>
		<g id="XMLID_683_">
			<g id="XMLID_160_">
				
					<line id="XMLID_161_" fill="none" stroke="#FFFFFF" stroke-width="8" stroke-linejoin="round" stroke-miterlimit="10" x1="302.3" y1="2113.1" x2="3086.6" y2="2113.1"/>
			</g>
			<g id="XMLID_158_">
				
					<line id="XMLID_159_" fill="none" stroke="#D3D8DA" stroke-width="8" stroke-linejoin="round" stroke-miterlimit="10" x1="302.3" y1="2113.1" x2="3086.6" y2="2113.1"/>
			</g>
		</g>
		<g id="XMLID_681_">
			
				<polyline id="XMLID_682_" fill="none" stroke="#99CC33" stroke-width="12" stroke-linecap="round" stroke-linejoin="round" stroke-miterlimit="10" points="
				343.1,2082.8 427.7,2077.3 512.4,2049.8 597,1934.3 681.7,1791.3 766.3,1637.3 851,1538.3 935.6,1428.3 1020.3,1296.3 
				1104.9,1125.8 1186.5,1153.3 1271.2,1043.3 1355.8,905.8 1440.5,746.3 1525.1,801.3 1609.8,713.3 1694.4,625.3 1779.1,570.3 
				1863.7,647.3 1945.3,592.3 2030,537.3 2114.6,542.8 2199.3,680.3 2283.9,630.8 2368.6,564.8 2453.2,515.3 2537.9,592.3 
				2622.5,531.8 2704.2,487.8 2788.8,460.3 2873.4,575.8 2958.1,493.3 3042.7,460.3 			"/>
		</g>
		<polyline id="XMLID_675_" fill="none" stroke="#62ACC9" stroke-width="12" stroke-miterlimit="10" points="343.1,1917.8 
			427.7,1868.3 512.4,1791.3 597,1824.3 681.7,1851.8 766.3,1802.3 851,1818.8 935.6,1796.8 1020.3,1774.8 1104.9,1835.3 
			1186.5,1664.8 1271.2,1692.3 1355.8,1758.3 1440.5,1846.3 1525.1,1719.8 1609.8,1774.8 1694.4,1846.3 1779.1,1884.8 
			1863.7,1780.3 1945.3,1824.3 2030,1884.8 2114.6,1879.3 2199.3,1730.8 2283.9,1780.3 2368.6,1840.8 2453.2,1868.3 2537.9,1780.3 
			2622.5,1835.3 2704.2,1873.8 2788.8,1901.3 2873.4,1780.3 2958.1,1857.3 3042.7,1884.8 		"/>
		<g id="XMLID_673_">
			
				<polyline id="XMLID_674_" fill="none" stroke="#D8B921" stroke-width="12" stroke-linecap="round" stroke-linejoin="round" stroke-miterlimit="10" points="
				343.1,1923.3 427.7,1945.3 512.4,1967.3 597,1989.3 681.7,2022.3 766.3,2066.3 851,2049.8 935.6,2066.3 1020.3,2082.8 
				1104.9,2088.3 1186.5,2077.3 1271.2,2077.3 1355.8,2066.3 1440.5,2071.8 1525.1,2060.8 1609.8,2060.8 1694.4,2055.3 
				1779.1,2049.8 1863.7,2060.8 1945.3,2066.3 2030,2060.8 2114.6,2060.8 2199.3,2060.8 2283.9,2066.3 2368.6,2066.3 2453.2,2082.8 
				2537.9,2093.8 2622.5,2104.8 2704.2,2104.8 2788.8,2110.3 2873.4,2110.3 2958.1,2115.8 3042.7,2115.8 			"/>
		</g>
		<g id="XMLID_671_">
			
				<polyline id="XMLID_672_" fill="none" stroke="#F99900" stroke-width="12" stroke-linecap="round" stroke-linejoin="round" stroke-miterlimit="10" points="
				343.1,1725.3 427.7,1758.3 512.4,1725.3 597,1741.8 681.7,1763.8 766.3,1824.3 851,1840.8 935.6,1868.3 1020.3,1895.8 
				1104.9,1906.8 1186.5,1950.8 1271.2,1989.3 1355.8,2016.8 1440.5,2016.8 1525.1,2049.8 1609.8,2060.8 1694.4,2066.3 
				1779.1,2082.8 1863.7,2104.8 1945.3,2104.8 2030,2104.8 2114.6,2099.3 2199.3,2104.8 2283.9,2110.3 2368.6,2110.3 2453.2,2110.3 
				2537.9,2110.3 2622.5,2110.3 2704.2,2115.8 2788.8,2115.8 2873.4,2115.8 2958.1,2115.8 3042.7,2115.8 			"/>
		</g>
		<polyline id="XMLID_669_" fill="none" stroke="#B17D9F" stroke-width="12" stroke-miterlimit="10" points="343.1,1197.3 
			427.7,1153.3 512.4,1274.3 597,1279.8 681.7,1345.8 766.3,1428.3 851,1505.3 935.6,1593.3 1020.3,1697.8 1104.9,1796.8 
			1186.5,1895.8 1271.2,1956.3 1355.8,2005.8 1440.5,2066.3 1525.1,2093.8 1609.8,2104.8 1694.4,2110.3 1779.1,2110.3 
			1863.7,2104.8 1945.3,2115.8 2030,2115.8 2114.6,2115.8 2199.3,2115.8 2283.9,2115.8 2368.6,2115.8 2453.2,2115.8 2537.9,2115.8 
			2622.5,2115.8 2704.2,2115.8 2788.8,2115.8 2873.4,2115.8 2958.1,2115.8 3042.7,2115.8 		"/>
		<path id="XMLID_664_" fill="#62ACC9" d="M3519.3,815.9c-2,0-3.9,0-5.9,0c-6-2.1-11.8-5.1-17.9-6.2c-8.8-1.6-17.9-3.1-26.6-2.1
			c-8,1-15.5,5.4-23.3,8.3c-3.4,0-6.9,0-10.3,0c-5.7-4.1-12.4-7.3-16.9-12.4c-25.9-29-39.8-62.9-37.3-102.1
			c1.4-22.7,10.9-41.7,31.6-53.3c13.3-7.4,27.8-9.7,41.7-3.3c14.7,6.8,28.5,7.3,42.8-0.2c3.8-2,8.4-2.8,12.7-3.5
			c19.6-3.4,43.4,7.2,51.4,22.8c-15.8,11.5-25.2,26.6-23.9,46.8c1.4,20.5,12.7,34.4,31.2,44c-4,8.4-7.1,16.7-11.6,24.1
			C3547.6,794.3,3538.6,810.5,3519.3,815.9z M3516.3,584.6c-8.9,4.8-18.9,8.4-26.6,14.8c-11.3,9.4-16.7,22.5-15.7,38.2
			c10.8,1.1,19.4-2.9,26.9-9c14-11.3,19.7-26.4,19.7-44C3519.3,584.6,3517.8,584.6,3516.3,584.6z"/>
		<g id="XMLID_639_">
			<g id="XMLID_643_">
				<path id="XMLID_663_" fill="#99CC33" d="M3446.2,379.8L3446.2,379.8c-8.9,0-16.1-7.2-16.1-16.1v-73.5c0-8.9,7.2-16.1,16.1-16.1
					l0,0c8.9,0,16.1,7.2,16.1,16.1v73.5C3462.4,372.6,3455.2,379.8,3446.2,379.8z"/>
				<path id="XMLID_661_" fill="#99CC33" d="M3503.2,379.8L3503.2,379.8c-8.9,0-16.1-7.2-16.1-16.1v-73.5c0-8.9,7.2-16.1,16.1-16.1
					l0,0c8.9,0,16.1,7.2,16.1,16.1v73.5C3519.4,372.6,3512.2,379.8,3503.2,379.8z"/>
				<path id="XMLID_660_" fill="#99CC33" d="M3375.2,298.4L3375.2,298.4c-8.9,0-16.1-7.2-16.1-16.1v-73.5c0-8.9,7.2-16.1,16.1-16.1
					h0c8.9,0,16.1,7.2,16.1,16.1v73.5C3391.3,291.1,3384.1,298.4,3375.2,298.4z"/>
				<path id="XMLID_659_" fill="#99CC33" d="M3574.3,298.4L3574.3,298.4c-8.9,0-16.1-7.2-16.1-16.1v-73.5c0-8.9,7.2-16.1,16.1-16.1
					l0,0c8.9,0,16.1,7.2,16.1,16.1v73.5C3590.5,291.1,3583.2,298.4,3574.3,298.4z"/>
				<g id="XMLID_646_">
					<path id="XMLID_155_" fill="#99CC33" d="M3474.4,120.7c-39.7,0-72.1,30.7-75,69.6h150C3546.5,151.4,3514.1,120.7,3474.4,120.7z
						 M3399.2,196.7v110.8c0,9.1,7.4,16.5,16.5,16.5h117.4c9.1,0,16.5-7.4,16.5-16.5V196.7H3399.2z"/>
				</g>
				<path id="XMLID_645_" fill="#99CC33" d="M3505.9,136.6L3505.9,136.6c-1.4-0.8-1.9-2.7-1.1-4.1l15.3-26.5
					c0.8-1.4,2.7-1.9,4.1-1.1l0,0c1.4,0.8,1.9,2.7,1.1,4.1l-15.3,26.5C3509.1,136.9,3507.3,137.4,3505.9,136.6z"/>
				<path id="XMLID_644_" fill="#99CC33" d="M3443.6,136.6L3443.6,136.6c1.4-0.8,1.9-2.7,1.1-4.1l-15.3-26.5
					c-0.8-1.4-2.7-1.9-4.1-1.1l0,0c-1.4,0.8-1.9,2.7-1.1,4.1l15.3,26.5C3440.3,136.9,3442.2,137.4,3443.6,136.6z"/>
			</g>
			<g id="XMLID_640_">
				<circle id="XMLID_642_" fill="#FFFFFF" cx="3439.9" cy="157.7" r="6.2"/>
				<circle id="XMLID_641_" fill="#FFFFFF" cx="3508.9" cy="157.7" r="6.2"/>
			</g>
		</g>
		<g id="XMLID_638_">
			<path id="path5_2_" fill="#D8B921" d="M3462.9,1039.5c50.8-7.8,101.7-15.1,152.5-22.2c0,44.6,0,89.1,0,133.7
				c-50.8,0.2-101.7,1-152.6,1.1C3462.9,1114.6,3462.9,1077,3462.9,1039.5L3462.9,1039.5z"/>
			<path id="path7_2_" fill="#D8B921" d="M3334,1057.4c38.2-5.9,76.6-11,115-15.8c0,37,0,73.9,0.1,110.9c-38.4,0-76.7,0.5-115.1,0.5
				V1057.4L3334,1057.4z"/>
			<path id="path29_2_" fill="#D8B921" d="M3334,1164.7c38.3-0.1,76.7,0.5,115,0.4c0,37.1,0.1,74.2,0,111.2
				c-38.3-5.7-76.7-10.6-115-15.8V1164.7z"/>
			<path id="path31_2_" fill="#D8B921" d="M3462.7,1166.1c50.9,0,101.9,0,152.8,0c0.1,44.5,0,88.9,0,133.4
				c-50.8-7.6-101.7-14.7-152.5-21.6C3462.9,1240.7,3462.8,1203.4,3462.7,1166.1z"/>
		</g>
		<polygon id="XMLID_637_" fill="#B17D9F" points="3324.2,2093.7 3324.3,2037.3 3346.2,2037.2 3346.3,2112.3 3308.2,2112.3 
			3262.3,2055.6 3262.2,2112.1 3240.2,2112.3 3240,2037.3 3240.3,2037.2 3278.5,2037.2 3324.2,2093.7 		"/>
		<path id="XMLID_636_" fill="#B17D9F" d="M3592.6,2037.3l0.2,74.9h-23.4l-0.1-74.8l0.2-0.2
			C3577.2,2037.2,3584.9,2037.1,3592.6,2037.3L3592.6,2037.3z"/>
		<polygon id="XMLID_635_" fill="#B17D9F" points="3487.7,2073.5 3487.8,2073.6 3490.6,2071.2 3528.1,2037.3 3559.3,2037.3 
			3516.4,2073.7 3516.5,2074.1 3564.7,2112.1 3530.8,2112.3 3487.9,2073.9 3487.7,2074.2 3487.7,2112.3 3464.3,2112.3 
			3464.3,2037.3 3487.7,2037.3 3487.7,2073.5 		"/>
		<path id="XMLID_632_" fill="#B17D9F" d="M3427.7,2036.5c9.7,0.4,20.2,1.1,25.4,10.7c1.2,2.6,1.8,5.5,1.7,8.7l-0.1,40.7
			c-0.3,5.5-4.1,10.3-8.8,12.9c-10.2,4.4-22.5,3.3-34.4,3.6c-14-0.2-28.4,0.7-41.4-1.7c-5.8-0.9-11.9-5.7-13.5-11.5l-0.8-4.7
			l0.2-43.2c0.2-5.5,5-10.3,9.6-12.7c7.5-3.1,16.6-2.7,25.4-3.1L3427.7,2036.5L3427.7,2036.5z M3381.8,2055c-2,0.4-4.4,1.2-4.7,3.4
			c0,11.2-0.3,22.5,0.2,33.6c0.7,1.9,2.7,1.7,4.2,2.2l42.3,0.1c3.6-0.3,7.9,0.6,9.9-3l0.1-31.6l-0.3-2.5c-0.6-1.5-2.1-1.7-3.3-2.1
			L3381.8,2055L3381.8,2055z"/>
		<path id="XMLID_629_" fill="#B17D9F" d="M3709.5,2112v0.3h-25.9c-2.3-4.3-4.7-8.4-6.9-12.7l-0.5-0.2h-45.9l-7.1,12.7l-26.1,0.2
			l41.2-74.9h30.3L3709.5,2112L3709.5,2112z M3653.4,2056.1l-14.4,26.7h28.8C3663,2074,3658.2,2065,3653.4,2056.1L3653.4,2056.1z"/>
		<g id="XMLID_504_">
			<path id="XMLID_505_" fill="#F99900" d="M3597,1608.4c-22,0-45.7,0-45.7,0l12.5-57.7c0,0,32.2,0,43.9,0c28.5,0,35.3,14,35.3,25.1
				C3643,1591.5,3632.8,1608.4,3597,1608.4z M3625.9,1658c0,15.7-10.1,32.6-45.9,32.6c-22,0-45.7,0-45.7,0l12.5-57.7
				c0,0,32.2,0,43.9,0C3619.1,1632.9,3625.9,1647,3625.9,1658z M3490.5,1556.8c-22,0-45.7,0-45.7,0l12.5-57.7c0,0,32.2,0,43.9,0
				c28.5,0,35.3,14,35.3,25.1C3536.5,1539.9,3526.3,1556.8,3490.5,1556.8z M3520.6,1611c0,15.7-10.1,32.6-45.9,32.6
				c-22,0-45.7,0-45.7,0l12.4-57.7c0,0,32.2,0,43.9,0C3513.8,1586,3520.6,1599.9,3520.6,1611z M3503.6,1701.5
				c0,15.7-10.1,32.6-45.8,32.6c-22.1,0-45.8,0-45.8,0l12.5-57.7c0,0,32.2,0,43.9,0C3496.9,1676.3,3503.6,1690.4,3503.6,1701.5z
				 M3368.1,1556.8c-22,0-45.7,0-45.7,0l12.4-57.7c0,0,32.2,0,43.9,0c28.5,0,35.3,14,35.3,25.1
				C3414.1,1539.9,3403.9,1556.8,3368.1,1556.8z M3398.2,1611c0,15.7-10.2,32.6-45.9,32.6c-22.1,0-45.8,0-45.8,0l12.5-57.7
				c0,0,32.2,0,43.9,0C3391.4,1586,3398.2,1599.9,3398.2,1611z"/>
		</g>
	</g>
</g>
<g id="typo">
	<g id="XMLID_2072_">
		<g id="XMLID_150_">
			<path id="XMLID_151_" fill="#909DA1" d="M233.4,2084.4c0-4.6,1.4-8.1,4.3-10.6c2.9-2.5,6.1-3.7,9.8-3.7s7,1.2,9.8,3.7
				c2.9,2.5,4.3,6,4.3,10.6v22c0,4.6-1.4,8.1-4.3,10.6c-2.9,2.5-6.1,3.7-9.8,3.7s-7-1.2-9.8-3.7c-2.9-2.5-4.3-6-4.3-10.6V2084.4z
				 M254.5,2084.8c0-2.4-0.6-4.3-1.9-5.6c-1.3-1.3-3-2-5.1-2c-2.1,0-3.8,0.7-5.1,2c-1.3,1.3-1.9,3.2-1.9,5.6v21.1
				c0,2.4,0.6,4.3,1.9,5.6c1.3,1.3,3,2,5.1,2c2.1,0,3.8-0.7,5.1-2c1.3-1.3,1.9-3.2,1.9-5.6V2084.8z"/>
		</g>
	</g>
	<g id="XMLID_2070_">
		<g id="XMLID_144_">
			<path id="XMLID_145_" fill="#909DA1" d="M209,1885.5l-7.1,5.2v-7.6l7.1-5.2h7.1v49.8H209V1885.5z"/>
			<path id="XMLID_147_" fill="#909DA1" d="M233.4,1891.9c0-4.6,1.4-8.1,4.3-10.6c2.9-2.5,6.1-3.7,9.8-3.7s7,1.2,9.8,3.7
				c2.9,2.5,4.3,6,4.3,10.6v22c0,4.6-1.4,8.1-4.3,10.6c-2.9,2.5-6.1,3.7-9.8,3.7s-7-1.2-9.8-3.7c-2.9-2.5-4.3-6-4.3-10.6V1891.9z
				 M254.5,1892.3c0-2.4-0.6-4.3-1.9-5.6c-1.3-1.3-3-2-5.1-2c-2.1,0-3.8,0.7-5.1,2c-1.3,1.3-1.9,3.2-1.9,5.6v21.1
				c0,2.4,0.6,4.3,1.9,5.6c1.3,1.3,3,2,5.1,2c2.1,0,3.8-0.7,5.1-2c1.3-1.3,1.9-3.2,1.9-5.6V1892.3z"/>
		</g>
	</g>
	<g id="XMLID_2068_">
		<g id="XMLID_133_">
			<path id="XMLID_134_" fill="#909DA1" d="M397.6,2271.3l19.5-24.4c0.8-1,1.3-1.9,1.5-2.7c0.2-0.8,0.3-1.6,0.3-2.3c0,0,0-0.1,0-0.1
				c0,0,0-0.1,0-0.1c0-1.7-0.7-3.3-1.9-4.7c-1.2-1.4-2.9-2.1-5-2.1c-1.9,0-3.6,0.6-4.9,1.9c-1.4,1.3-2.2,3-2.3,5.3h-7.1
				c0-4.1,1.4-7.5,4.2-10.2c2.7-2.8,6-4.1,9.7-4.1c4.2,0,7.6,1.4,10.4,4.2c2.8,2.8,4.2,6.1,4.2,10.1c0,1.6-0.2,3.2-0.7,4.6
				c-0.5,1.4-1.2,2.8-2.3,4.1l-16,20.1h19v7.1h-28.4V2271.3z"/>
			<path id="XMLID_136_" fill="#909DA1" d="M433.3,2242.1c0-4.6,1.4-8.1,4.3-10.6c2.9-2.5,6.1-3.7,9.8-3.7c3.7,0,7,1.2,9.8,3.7
				c2.9,2.5,4.3,6,4.3,10.6v22c0,4.6-1.4,8.1-4.3,10.6c-2.9,2.5-6.1,3.7-9.8,3.7c-3.7,0-7-1.2-9.8-3.7c-2.9-2.5-4.3-6-4.3-10.6
				V2242.1z M454.5,2242.5c0-2.4-0.6-4.3-1.9-5.6c-1.3-1.3-3-2-5.1-2s-3.8,0.7-5.1,2c-1.3,1.3-1.9,3.2-1.9,5.6v21.1
				c0,2.4,0.6,4.3,1.9,5.6c1.3,1.3,3,2,5.1,2s3.8-0.7,5.1-2c1.3-1.3,1.9-3.2,1.9-5.6V2242.5z"/>
			<path id="XMLID_139_" fill="#909DA1" d="M479.6,2235.7l-7.1,5.2v-7.6l7.1-5.2h7.1v49.8h-7.1V2235.7z"/>
			<path id="XMLID_141_" fill="#909DA1" d="M504,2242.1c0-4.6,1.4-8.1,4.3-10.6c2.9-2.5,6.1-3.7,9.8-3.7c3.7,0,7,1.2,9.8,3.7
				c2.9,2.5,4.3,6,4.3,10.6v22c0,4.6-1.4,8.1-4.3,10.6c-2.9,2.5-6.1,3.7-9.8,3.7c-3.7,0-7-1.2-9.8-3.7c-2.9-2.5-4.3-6-4.3-10.6
				V2242.1z M525.2,2242.5c0-2.4-0.6-4.3-1.9-5.6c-1.3-1.3-3-2-5.1-2s-3.8,0.7-5.1,2c-1.3,1.3-1.9,3.2-1.9,5.6v21.1
				c0,2.4,0.6,4.3,1.9,5.6c1.3,1.3,3,2,5.1,2s3.8-0.7,5.1-2c1.3-1.3,1.9-3.2,1.9-5.6V2242.5z"/>
		</g>
	</g>
	<g id="XMLID_2066_">
		<g id="XMLID_123_">
			<path id="XMLID_124_" fill="#909DA1" d="M735.2,2271.3l19.5-24.4c0.8-1,1.3-1.9,1.5-2.7c0.2-0.8,0.3-1.6,0.3-2.3c0,0,0-0.1,0-0.1
				c0,0,0-0.1,0-0.1c0-1.7-0.7-3.3-1.9-4.7c-1.2-1.4-2.9-2.1-5-2.1c-1.9,0-3.6,0.6-4.9,1.9c-1.4,1.3-2.2,3-2.3,5.3h-7.1
				c0-4.1,1.4-7.5,4.2-10.2c2.7-2.8,6-4.1,9.7-4.1c4.2,0,7.6,1.4,10.4,4.2c2.8,2.8,4.2,6.1,4.2,10.1c0,1.6-0.2,3.2-0.7,4.6
				c-0.5,1.4-1.2,2.8-2.3,4.1l-16,20.1h19v7.1h-28.4V2271.3z"/>
			<path id="XMLID_126_" fill="#909DA1" d="M771,2242.1c0-4.6,1.4-8.1,4.3-10.6c2.9-2.5,6.1-3.7,9.8-3.7s7,1.2,9.8,3.7
				c2.9,2.5,4.3,6,4.3,10.6v22c0,4.6-1.4,8.1-4.3,10.6c-2.9,2.5-6.1,3.7-9.8,3.7s-7-1.2-9.8-3.7c-2.9-2.5-4.3-6-4.3-10.6V2242.1z
				 M792.1,2242.5c0-2.4-0.6-4.3-1.9-5.6c-1.3-1.3-3-2-5.1-2c-2.1,0-3.8,0.7-5.1,2c-1.3,1.3-1.9,3.2-1.9,5.6v21.1
				c0,2.4,0.6,4.3,1.9,5.6c1.3,1.3,3,2,5.1,2c2.1,0,3.8-0.7,5.1-2c1.3-1.3,1.9-3.2,1.9-5.6V2242.5z"/>
			<path id="XMLID_129_" fill="#909DA1" d="M817.2,2235.7l-7.1,5.2v-7.6l7.1-5.2h7.1v49.8h-7.1V2235.7z"/>
			<path id="XMLID_131_" fill="#909DA1" d="M852.6,2235.7l-7.1,5.2v-7.6l7.1-5.2h7.1v49.8h-7.1V2235.7z"/>
		</g>
	</g>
	<g id="XMLID_2063_">
		<g id="XMLID_113_">
			<path id="XMLID_114_" fill="#909DA1" d="M1072.8,2271.3l19.5-24.4c0.8-1,1.3-1.9,1.5-2.7c0.2-0.8,0.3-1.6,0.3-2.3
				c0,0,0-0.1,0-0.1c0,0,0-0.1,0-0.1c0-1.7-0.7-3.3-1.9-4.7c-1.2-1.4-2.9-2.1-5-2.1c-1.9,0-3.6,0.6-4.9,1.9c-1.4,1.3-2.2,3-2.3,5.3
				h-7.1c0-4.1,1.4-7.5,4.2-10.2c2.7-2.8,6-4.1,9.7-4.1c4.2,0,7.6,1.4,10.4,4.2c2.8,2.8,4.2,6.1,4.2,10.1c0,1.6-0.2,3.2-0.7,4.6
				c-0.5,1.4-1.2,2.8-2.3,4.1l-16,20.1h19v7.1h-28.4V2271.3z"/>
			<path id="XMLID_116_" fill="#909DA1" d="M1108.6,2242.1c0-4.6,1.4-8.1,4.3-10.6c2.9-2.5,6.1-3.7,9.8-3.7c3.7,0,7,1.2,9.8,3.7
				c2.9,2.5,4.3,6,4.3,10.6v22c0,4.6-1.4,8.1-4.3,10.6c-2.9,2.5-6.1,3.7-9.8,3.7c-3.7,0-7-1.2-9.8-3.7c-2.9-2.5-4.3-6-4.3-10.6
				V2242.1z M1129.7,2242.5c0-2.4-0.6-4.3-1.9-5.6c-1.3-1.3-3-2-5.1-2s-3.8,0.7-5.1,2c-1.3,1.3-1.9,3.2-1.9,5.6v21.1
				c0,2.4,0.6,4.3,1.9,5.6c1.3,1.3,3,2,5.1,2s3.8-0.7,5.1-2c1.3-1.3,1.9-3.2,1.9-5.6V2242.5z"/>
			<path id="XMLID_119_" fill="#909DA1" d="M1154.9,2235.7l-7.1,5.2v-7.6l7.1-5.2h7.1v49.8h-7.1V2235.7z"/>
			<path id="XMLID_121_" fill="#909DA1" d="M1178.9,2271.3l19.5-24.4c0.8-1,1.3-1.9,1.5-2.7c0.2-0.8,0.3-1.6,0.3-2.3
				c0,0,0-0.1,0-0.1c0,0,0-0.1,0-0.1c0-1.7-0.7-3.3-1.9-4.7c-1.2-1.4-2.9-2.1-5-2.1c-1.9,0-3.6,0.6-4.9,1.9c-1.4,1.3-2.2,3-2.3,5.3
				h-7.1c0-4.1,1.4-7.5,4.2-10.2c2.7-2.8,6-4.1,9.7-4.1c4.2,0,7.6,1.4,10.4,4.2c2.8,2.8,4.2,6.1,4.2,10.1c0,1.6-0.2,3.2-0.7,4.6
				c-0.5,1.4-1.2,2.8-2.3,4.1l-16,20.1h19v7.1h-28.4V2271.3z"/>
		</g>
	</g>
	<g id="XMLID_2060_">
		<g id="XMLID_103_">
			<path id="XMLID_104_" fill="#909DA1" d="M1410.5,2271.3l19.5-24.4c0.8-1,1.3-1.9,1.5-2.7c0.2-0.8,0.3-1.6,0.3-2.3
				c0,0,0-0.1,0-0.1c0,0,0-0.1,0-0.1c0-1.7-0.7-3.3-1.9-4.7c-1.2-1.4-2.9-2.1-5-2.1c-1.9,0-3.6,0.6-4.9,1.9c-1.4,1.3-2.2,3-2.3,5.3
				h-7.1c0-4.1,1.4-7.5,4.2-10.2c2.7-2.8,6-4.1,9.7-4.1c4.2,0,7.6,1.4,10.4,4.2c2.8,2.8,4.2,6.1,4.2,10.1c0,1.6-0.2,3.2-0.7,4.6
				c-0.5,1.4-1.2,2.8-2.3,4.1l-16,20.1h19v7.1h-28.4V2271.3z"/>
			<path id="XMLID_106_" fill="#909DA1" d="M1446.2,2242.1c0-4.6,1.4-8.1,4.3-10.6c2.9-2.5,6.1-3.7,9.8-3.7c3.7,0,7,1.2,9.8,3.7
				c2.9,2.5,4.3,6,4.3,10.6v22c0,4.6-1.4,8.1-4.3,10.6c-2.9,2.5-6.1,3.7-9.8,3.7c-3.7,0-7-1.2-9.8-3.7c-2.9-2.5-4.3-6-4.3-10.6
				V2242.1z M1467.4,2242.5c0-2.4-0.6-4.3-1.9-5.6c-1.3-1.3-3-2-5.1-2s-3.8,0.7-5.1,2c-1.3,1.3-1.9,3.2-1.9,5.6v21.1
				c0,2.4,0.6,4.3,1.9,5.6c1.3,1.3,3,2,5.1,2s3.8-0.7,5.1-2c1.3-1.3,1.9-3.2,1.9-5.6V2242.5z"/>
			<path id="XMLID_109_" fill="#909DA1" d="M1492.5,2235.7l-7.1,5.2v-7.6l7.1-5.2h7.1v49.8h-7.1V2235.7z"/>
			<path id="XMLID_111_" fill="#909DA1" d="M1526.6,2249.1h2.5c2.4,0,4.3-0.7,5.6-2c1.4-1.4,2.1-3,2.1-5c0-2.1-0.7-3.8-2.1-5.1
				c-1.4-1.4-3.1-2.1-5.1-2.1c0,0-0.1,0-0.1,0c0,0-0.1,0-0.1,0c-1.4,0-2.8,0.6-4.1,1.6c-1.3,1-2.1,2.5-2.5,4.4h-7.1
				c0.3-3.5,1.8-6.6,4.4-9.2c2.7-2.6,5.8-3.9,9.3-3.9c4.4,0,8,1.5,10.7,4.4c2.7,2.9,4,6.2,4,9.8c0,0.1,0,0.2,0,0.3
				c0,0.1,0,0.2,0,0.3c-0.1,1.8-0.5,3.5-1.3,5.2c-0.7,1.7-2.1,3.2-4.1,4.4c1.9,1.2,3.3,2.7,4.3,4.4s1.4,3.6,1.5,5.4
				c0,0.2,0.1,0.4,0.1,0.5c0,0.2,0,0.3,0,0.5c0,4.6-1.5,8.3-4.4,11.1c-2.9,2.8-6.5,4.1-10.7,4.1c-3.4,0-6.4-1.1-9.1-3.3
				c-2.7-2.2-4.4-5.3-5-9.5h7.1c0.7,1.7,1.6,3.1,2.7,4.1c1.1,1,2.7,1.5,4.7,1.5c2,0,3.8-0.7,5.3-2.1c1.5-1.4,2.3-3.3,2.3-5.8
				c0-2.5-0.8-4.4-2.3-5.8c-1.5-1.4-3.3-2.1-5.4-2.1h-3V2249.1z"/>
		</g>
	</g>
	<g id="XMLID_2058_">
		<g id="XMLID_93_">
			<path id="XMLID_94_" fill="#909DA1" d="M1748.1,2271.3l19.5-24.4c0.8-1,1.3-1.9,1.5-2.7c0.2-0.8,0.3-1.6,0.3-2.3c0,0,0-0.1,0-0.1
				c0,0,0-0.1,0-0.1c0-1.7-0.7-3.3-1.9-4.7c-1.2-1.4-2.9-2.1-5-2.1c-1.9,0-3.6,0.6-4.9,1.9c-1.4,1.3-2.2,3-2.3,5.3h-7.1
				c0-4.1,1.4-7.5,4.2-10.2c2.7-2.8,6-4.1,9.7-4.1c4.2,0,7.6,1.4,10.4,4.2c2.8,2.8,4.2,6.1,4.2,10.1c0,1.6-0.2,3.2-0.7,4.6
				c-0.5,1.4-1.2,2.8-2.3,4.1l-16,20.1h19v7.1h-28.4V2271.3z"/>
			<path id="XMLID_96_" fill="#909DA1" d="M1783.8,2242.1c0-4.6,1.4-8.1,4.3-10.6c2.9-2.5,6.1-3.7,9.8-3.7c3.7,0,7,1.2,9.8,3.7
				c2.9,2.5,4.3,6,4.3,10.6v22c0,4.6-1.4,8.1-4.3,10.6c-2.9,2.5-6.1,3.7-9.8,3.7c-3.7,0-7-1.2-9.8-3.7c-2.9-2.5-4.3-6-4.3-10.6
				V2242.1z M1805,2242.5c0-2.4-0.6-4.3-1.9-5.6c-1.3-1.3-3-2-5.1-2c-2.1,0-3.8,0.7-5.1,2s-1.9,3.2-1.9,5.6v21.1
				c0,2.4,0.6,4.3,1.9,5.6s3,2,5.1,2c2.1,0,3.8-0.7,5.1-2c1.3-1.3,1.9-3.2,1.9-5.6V2242.5z"/>
			<path id="XMLID_99_" fill="#909DA1" d="M1830.1,2235.7l-7.1,5.2v-7.6l7.1-5.2h7.1v49.8h-7.1V2235.7z"/>
			<path id="XMLID_101_" fill="#909DA1" d="M1852.7,2263.8l16.7-35.7h8l-16.9,35.7h13v-14.4h7.1v14.4h4v6.7h-4v7.4h-7.1v-7.4h-20.8
				V2263.8z"/>
		</g>
	</g>
	<g id="XMLID_2039_">
		<g id="XMLID_83_">
			<path id="XMLID_84_" fill="#909DA1" d="M2085.7,2271.3l19.5-24.4c0.8-1,1.3-1.9,1.5-2.7c0.2-0.8,0.3-1.6,0.3-2.3c0,0,0-0.1,0-0.1
				c0,0,0-0.1,0-0.1c0-1.7-0.7-3.3-1.9-4.7c-1.2-1.4-2.9-2.1-5-2.1c-1.9,0-3.6,0.6-4.9,1.9c-1.4,1.3-2.2,3-2.3,5.3h-7.1
				c0-4.1,1.4-7.5,4.2-10.2c2.7-2.8,6-4.1,9.7-4.1c4.2,0,7.6,1.4,10.4,4.2c2.8,2.8,4.2,6.1,4.2,10.1c0,1.6-0.2,3.2-0.7,4.6
				c-0.5,1.4-1.2,2.8-2.3,4.1l-16,20.1h19v7.1h-28.4V2271.3z"/>
			<path id="XMLID_86_" fill="#909DA1" d="M2121.5,2242.1c0-4.6,1.4-8.1,4.3-10.6c2.9-2.5,6.1-3.7,9.8-3.7c3.7,0,7,1.2,9.8,3.7
				c2.9,2.5,4.3,6,4.3,10.6v22c0,4.6-1.4,8.1-4.3,10.6c-2.9,2.5-6.1,3.7-9.8,3.7c-3.7,0-7-1.2-9.8-3.7c-2.9-2.5-4.3-6-4.3-10.6
				V2242.1z M2142.6,2242.5c0-2.4-0.6-4.3-1.9-5.6s-3-2-5.1-2s-3.8,0.7-5.1,2s-1.9,3.2-1.9,5.6v21.1c0,2.4,0.6,4.3,1.9,5.6
				s3,2,5.1,2s3.8-0.7,5.1-2s1.9-3.2,1.9-5.6V2242.5z"/>
			<path id="XMLID_89_" fill="#909DA1" d="M2167.7,2235.7l-7.1,5.2v-7.6l7.1-5.2h7.1v49.8h-7.1V2235.7z"/>
			<path id="XMLID_91_" fill="#909DA1" d="M2193,2228.1h26.5v7.1h-19.8v11.3c1.2-0.9,2.5-1.6,3.7-2.1c1.3-0.4,2.7-0.7,4.2-0.7
				c1.9,0,3.7,0.4,5.2,1.1c1.6,0.7,2.8,1.6,3.7,2.6c0.1,0.1,0.2,0.2,0.3,0.3c0.1,0.1,0.2,0.2,0.3,0.4c1.1,1.3,1.9,2.8,2.5,4.6
				s0.8,4.5,0.8,8.4c0,3.2-0.2,5.6-0.7,7.3c-0.4,1.6-1.2,3.1-2.2,4.4c0,0-0.1,0.1-0.1,0.1c0,0-0.1,0.1-0.1,0.1c0,0-0.1,0.1-0.1,0.2
				c0,0.1-0.1,0.1-0.1,0.2c-1.1,1.3-2.5,2.4-4.3,3.4c-1.8,1-3.8,1.5-6.2,1.5c-0.3,0-0.6,0-0.9,0c-0.3,0-0.6,0-0.9,0
				c-2.9-0.3-5.7-1.4-8.2-3.5c-2.5-2-4-5.1-4.5-9.3h7.1c0.4,1.8,1.2,3.2,2.3,4.2c1.2,1,2.8,1.6,4.8,1.6c2.8,0,4.7-0.8,5.5-2.5
				c0.8-1.7,1.3-3.5,1.4-5.5c0-0.5,0.1-0.9,0.1-1.4s0-0.9,0-1.3c0-2.8-0.5-5-1.4-6.9s-2.9-2.7-5.8-2.7c-1.4,0-2.6,0.3-3.6,0.9
				c-1,0.6-2,1.7-2.8,3.2h-6.7V2228.1z"/>
		</g>
	</g>
	<g id="XMLID_2035_">
		<g id="XMLID_72_">
			<path id="XMLID_73_" fill="#909DA1" d="M2423.3,2271.3l19.5-24.4c0.8-1,1.3-1.9,1.5-2.7c0.2-0.8,0.3-1.6,0.3-2.3c0,0,0-0.1,0-0.1
				c0,0,0-0.1,0-0.1c0-1.7-0.7-3.3-1.9-4.7c-1.2-1.4-2.9-2.1-5-2.1c-1.9,0-3.6,0.6-4.9,1.9c-1.4,1.3-2.2,3-2.3,5.3h-7.1
				c0-4.1,1.4-7.5,4.2-10.2c2.7-2.8,6-4.1,9.7-4.1c4.2,0,7.6,1.4,10.4,4.2c2.8,2.8,4.2,6.1,4.2,10.1c0,1.6-0.2,3.2-0.7,4.6
				c-0.5,1.4-1.2,2.8-2.3,4.1l-16,20.1h19v7.1h-28.4V2271.3z"/>
			<path id="XMLID_75_" fill="#909DA1" d="M2459.1,2242.1c0-4.6,1.4-8.1,4.3-10.6c2.9-2.5,6.1-3.7,9.8-3.7c3.7,0,7,1.2,9.8,3.7
				c2.9,2.5,4.3,6,4.3,10.6v22c0,4.6-1.4,8.1-4.3,10.6c-2.9,2.5-6.1,3.7-9.8,3.7c-3.7,0-7-1.2-9.8-3.7c-2.9-2.5-4.3-6-4.3-10.6
				V2242.1z M2480.2,2242.5c0-2.4-0.6-4.3-1.9-5.6s-3-2-5.1-2s-3.8,0.7-5.1,2s-1.9,3.2-1.9,5.6v21.1c0,2.4,0.6,4.3,1.9,5.6
				s3,2,5.1,2s3.8-0.7,5.1-2s1.9-3.2,1.9-5.6V2242.5z"/>
			<path id="XMLID_78_" fill="#909DA1" d="M2505.4,2235.7l-7.1,5.2v-7.6l7.1-5.2h7.1v49.8h-7.1V2235.7z"/>
			<path id="XMLID_80_" fill="#909DA1" d="M2544.9,2228.1h8l-10.5,21.1h0.1c0.3-0.1,0.7-0.2,1.1-0.3c0.4-0.1,0.7-0.1,1.1-0.2
				c0.3,0,0.6-0.1,0.8-0.1c0.3,0,0.5,0,0.8,0c3.2,0,6,1.1,8.3,3.3c2.4,2.2,3.6,5.7,3.6,10.6c0,5.7-1.5,9.8-4.5,12.2
				c-3,2.5-6.4,3.7-10.2,3.7c-3.5,0-6.6-1.4-9.5-4.1c-2.9-2.7-4.3-6.4-4.3-11.1c0-1.5,0.2-2.9,0.5-4.3c0.3-1.4,0.8-2.7,1.4-4
				L2544.9,2228.1z M2538.9,2256.9c-1.4,1.3-2.1,3.4-2.1,6.2s0.7,4.9,2,6.2c1.3,1.3,3,2,5.2,2c0.2,0,0.4,0,0.6,0
				c0.2,0,0.4-0.1,0.6-0.1c1.5-0.2,2.8-1,4.1-2.2c1.2-1.3,1.8-3.2,1.8-5.8c0-2.8-0.7-4.9-2.1-6.2c-1.4-1.3-3.1-2-5-2
				C2542,2254.9,2540.3,2255.5,2538.9,2256.9z"/>
		</g>
	</g>
	<g id="XMLID_2031_">
		<g id="XMLID_62_">
			<path id="XMLID_63_" fill="#909DA1" d="M2761,2271.3l19.5-24.4c0.8-1,1.3-1.9,1.5-2.7c0.2-0.8,0.3-1.6,0.3-2.3c0,0,0-0.1,0-0.1
				c0,0,0-0.1,0-0.1c0-1.7-0.7-3.3-1.9-4.7c-1.2-1.4-2.9-2.1-5-2.1c-1.9,0-3.6,0.6-4.9,1.9c-1.4,1.3-2.2,3-2.3,5.3h-7.1
				c0-4.1,1.4-7.5,4.2-10.2c2.7-2.8,6-4.1,9.7-4.1c4.2,0,7.6,1.4,10.4,4.2c2.8,2.8,4.2,6.1,4.2,10.1c0,1.6-0.2,3.2-0.7,4.6
				c-0.5,1.4-1.2,2.8-2.3,4.1l-16,20.1h19v7.1H2761V2271.3z"/>
			<path id="XMLID_65_" fill="#909DA1" d="M2796.7,2242.1c0-4.6,1.4-8.1,4.3-10.6c2.9-2.5,6.1-3.7,9.8-3.7s7,1.2,9.8,3.7
				c2.9,2.5,4.3,6,4.3,10.6v22c0,4.6-1.4,8.1-4.3,10.6c-2.9,2.5-6.1,3.7-9.8,3.7s-7-1.2-9.8-3.7c-2.9-2.5-4.3-6-4.3-10.6V2242.1z
				 M2817.9,2242.5c0-2.4-0.6-4.3-1.9-5.6c-1.3-1.3-3-2-5.1-2c-2.1,0-3.8,0.7-5.1,2s-1.9,3.2-1.9,5.6v21.1c0,2.4,0.6,4.3,1.9,5.6
				s3,2,5.1,2c2.1,0,3.8-0.7,5.1-2c1.3-1.3,1.9-3.2,1.9-5.6V2242.5z"/>
			<path id="XMLID_68_" fill="#909DA1" d="M2843,2235.7l-7.1,5.2v-7.6l7.1-5.2h7.1v49.8h-7.1V2235.7z"/>
			<path id="XMLID_70_" fill="#909DA1" d="M2868.3,2228.1h28.3v7.1l-16.9,42.7h-8l16.9-42.7h-13.2v7.2h-7.1V2228.1z"/>
		</g>
	</g>
	<g id="XMLID_2025_">
		<g id="XMLID_56_">
			<path id="XMLID_57_" fill="#909DA1" d="M197.6,1734l19.5-24.4c0.8-1,1.3-1.9,1.5-2.7c0.2-0.8,0.3-1.6,0.3-2.3c0,0,0-0.1,0-0.1
				c0,0,0-0.1,0-0.1c0-1.7-0.7-3.3-1.9-4.7c-1.2-1.4-2.9-2.1-5-2.1c-1.9,0-3.6,0.6-4.9,1.9c-1.4,1.3-2.2,3-2.3,5.3h-7.1
				c0-4.1,1.4-7.5,4.2-10.2c2.7-2.8,6-4.1,9.7-4.1c4.2,0,7.6,1.4,10.4,4.2c2.8,2.8,4.2,6.1,4.2,10.1c0,1.6-0.2,3.2-0.7,4.6
				c-0.5,1.4-1.2,2.8-2.3,4.1l-16,20.1h19v7.1h-28.4V1734z"/>
			<path id="XMLID_59_" fill="#909DA1" d="M233.4,1704.9c0-4.6,1.4-8.1,4.3-10.6c2.9-2.5,6.1-3.7,9.8-3.7s7,1.2,9.8,3.7
				c2.9,2.5,4.3,6,4.3,10.6v22c0,4.6-1.4,8.1-4.3,10.6c-2.9,2.5-6.1,3.7-9.8,3.7s-7-1.2-9.8-3.7c-2.9-2.5-4.3-6-4.3-10.6V1704.9z
				 M254.5,1705.3c0-2.4-0.6-4.3-1.9-5.6c-1.3-1.3-3-2-5.1-2c-2.1,0-3.8,0.7-5.1,2c-1.3,1.3-1.9,3.2-1.9,5.6v21.1
				c0,2.4,0.6,4.3,1.9,5.6c1.3,1.3,3,2,5.1,2c2.1,0,3.8-0.7,5.1-2c1.3-1.3,1.9-3.2,1.9-5.6V1705.3z"/>
		</g>
	</g>
	<g id="XMLID_2013_">
		<g id="XMLID_50_">
			<path id="XMLID_51_" fill="#909DA1" d="M207.7,1524.9h2.5c2.4,0,4.3-0.7,5.6-2c1.4-1.4,2.1-3,2.1-5c0-2.1-0.7-3.8-2.1-5.1
				c-1.4-1.4-3.1-2.1-5.1-2.1c0,0-0.1,0-0.1,0c0,0-0.1,0-0.1,0c-1.4,0-2.8,0.6-4.1,1.6c-1.3,1-2.1,2.5-2.5,4.4h-7.1
				c0.3-3.5,1.8-6.6,4.4-9.2c2.7-2.6,5.8-3.9,9.3-3.9c4.4,0,8,1.5,10.7,4.4c2.7,2.9,4,6.2,4,9.8c0,0.1,0,0.2,0,0.3
				c0,0.1,0,0.2,0,0.3c-0.1,1.8-0.5,3.5-1.3,5.2c-0.7,1.7-2.1,3.2-4.1,4.4c1.9,1.2,3.3,2.7,4.3,4.4c0.9,1.8,1.4,3.6,1.5,5.4
				c0,0.2,0.1,0.4,0.1,0.5c0,0.2,0,0.3,0,0.5c0,4.6-1.5,8.3-4.4,11.1c-2.9,2.8-6.5,4.1-10.7,4.1c-3.4,0-6.4-1.1-9.1-3.3
				c-2.7-2.2-4.4-5.3-5-9.5h7.1c0.7,1.7,1.6,3.1,2.7,4.1s2.7,1.5,4.7,1.5c2,0,3.8-0.7,5.3-2.1c1.5-1.4,2.3-3.3,2.3-5.8
				c0-2.5-0.8-4.4-2.3-5.8c-1.5-1.4-3.3-2.1-5.4-2.1h-3V1524.9z"/>
			<path id="XMLID_53_" fill="#909DA1" d="M233.4,1517.8c0-4.6,1.4-8.1,4.3-10.6c2.9-2.5,6.1-3.7,9.8-3.7s7,1.2,9.8,3.7
				c2.9,2.5,4.3,6,4.3,10.6v22c0,4.6-1.4,8.1-4.3,10.6c-2.9,2.5-6.1,3.7-9.8,3.7s-7-1.2-9.8-3.7c-2.9-2.5-4.3-6-4.3-10.6V1517.8z
				 M254.5,1518.3c0-2.4-0.6-4.3-1.9-5.6c-1.3-1.3-3-2-5.1-2c-2.1,0-3.8,0.7-5.1,2c-1.3,1.3-1.9,3.2-1.9,5.6v21.1
				c0,2.4,0.6,4.3,1.9,5.6c1.3,1.3,3,2,5.1,2c2.1,0,3.8-0.7,5.1-2c1.3-1.3,1.9-3.2,1.9-5.6V1518.3z"/>
		</g>
	</g>
	<g id="XMLID_2007_">
		<g id="XMLID_44_">
			<path id="XMLID_45_" fill="#909DA1" d="M196.2,1347.1l16.7-35.7h8l-16.9,35.7h13v-14.4h7.1v14.4h4v6.7h-4v7.4H217v-7.4h-20.8
				V1347.1z"/>
			<path id="XMLID_47_" fill="#909DA1" d="M233.4,1325.3c0-4.6,1.4-8.1,4.3-10.6c2.9-2.5,6.1-3.7,9.8-3.7s7,1.2,9.8,3.7
				c2.9,2.5,4.3,6,4.3,10.6v22c0,4.6-1.4,8.1-4.3,10.6c-2.9,2.5-6.1,3.7-9.8,3.7s-7-1.2-9.8-3.7c-2.9-2.5-4.3-6-4.3-10.6V1325.3z
				 M254.5,1325.8c0-2.4-0.6-4.3-1.9-5.6c-1.3-1.3-3-2-5.1-2c-2.1,0-3.8,0.7-5.1,2c-1.3,1.3-1.9,3.2-1.9,5.6v21.1
				c0,2.4,0.6,4.3,1.9,5.6c1.3,1.3,3,2,5.1,2c2.1,0,3.8-0.7,5.1-2c1.3-1.3,1.9-3.2,1.9-5.6V1325.8z"/>
		</g>
	</g>
	<g id="XMLID_2004_">
		<g id="XMLID_38_">
			<path id="XMLID_39_" fill="#909DA1" d="M198.9,1124.4h26.5v7.1h-19.8v11.3c1.2-0.9,2.5-1.6,3.7-2.1c1.3-0.4,2.7-0.7,4.2-0.7
				c1.9,0,3.7,0.4,5.2,1.1c1.6,0.7,2.8,1.6,3.7,2.6c0.1,0.1,0.2,0.2,0.3,0.3c0.1,0.1,0.2,0.2,0.3,0.4c1.1,1.3,1.9,2.8,2.5,4.6
				c0.5,1.8,0.8,4.5,0.8,8.4c0,3.2-0.2,5.6-0.7,7.3c-0.4,1.6-1.2,3.1-2.2,4.4c0,0-0.1,0.1-0.1,0.1c0,0-0.1,0.1-0.1,0.1
				c0,0-0.1,0.1-0.1,0.2c0,0.1-0.1,0.1-0.1,0.2c-1.1,1.3-2.5,2.4-4.3,3.4c-1.8,1-3.8,1.5-6.2,1.5c-0.3,0-0.6,0-0.9,0
				c-0.3,0-0.6,0-0.9,0c-2.9-0.3-5.7-1.4-8.2-3.5c-2.5-2-4-5.1-4.5-9.3h7.1c0.4,1.8,1.2,3.2,2.3,4.2s2.8,1.6,4.8,1.6
				c2.8,0,4.7-0.8,5.5-2.5c0.8-1.7,1.3-3.5,1.4-5.5c0-0.5,0.1-0.9,0.1-1.4s0-0.9,0-1.3c0-2.8-0.5-5-1.4-6.9
				c-0.9-1.8-2.9-2.7-5.8-2.7c-1.4,0-2.6,0.3-3.6,0.9c-1.1,0.6-2,1.7-2.8,3.2h-6.7V1124.4z"/>
			<path id="XMLID_41_" fill="#909DA1" d="M233.4,1138.3c0-4.6,1.4-8.1,4.3-10.6c2.9-2.5,6.1-3.7,9.8-3.7s7,1.2,9.8,3.7
				c2.9,2.5,4.3,6,4.3,10.6v22c0,4.6-1.4,8.1-4.3,10.6c-2.9,2.5-6.1,3.7-9.8,3.7s-7-1.2-9.8-3.7c-2.9-2.5-4.3-6-4.3-10.6V1138.3z
				 M254.5,1138.8c0-2.4-0.6-4.3-1.9-5.6c-1.3-1.3-3-2-5.1-2c-2.1,0-3.8,0.7-5.1,2c-1.3,1.3-1.9,3.2-1.9,5.6v21.1
				c0,2.4,0.6,4.3,1.9,5.6c1.3,1.3,3,2,5.1,2c2.1,0,3.8-0.7,5.1-2c1.3-1.3,1.9-3.2,1.9-5.6V1138.8z"/>
		</g>
	</g>
	<g id="XMLID_1973_">
		<g id="XMLID_31_">
			<path id="XMLID_32_" fill="#909DA1" d="M213.2,937.4h8l-10.5,21.1h0.1c0.3-0.1,0.7-0.2,1-0.3c0.4-0.1,0.7-0.1,1.1-0.2
				c0.3,0,0.6-0.1,0.8-0.1c0.3,0,0.5,0,0.8,0c3.2,0,5.9,1.1,8.3,3.3c2.4,2.2,3.6,5.7,3.6,10.6c0,5.7-1.5,9.8-4.5,12.2
				c-3,2.5-6.4,3.7-10.2,3.7c-3.5,0-6.6-1.4-9.5-4.1c-2.9-2.7-4.3-6.4-4.3-11.1c0-1.5,0.2-2.9,0.5-4.3c0.3-1.4,0.8-2.7,1.4-4
				L213.2,937.4z M207.1,966.1c-1.4,1.3-2.1,3.4-2.1,6.2s0.7,4.9,2,6.2c1.3,1.3,3,2,5.2,2c0.2,0,0.4,0,0.6,0c0.2,0,0.4-0.1,0.6-0.1
				c1.5-0.2,2.8-1,4.1-2.2c1.2-1.3,1.8-3.2,1.8-5.8c0-2.8-0.7-4.9-2.1-6.2c-1.4-1.3-3.1-2-5-2S208.5,964.8,207.1,966.1z"/>
			<path id="XMLID_35_" fill="#909DA1" d="M233.4,951.3c0-4.6,1.4-8.1,4.3-10.6c2.9-2.5,6.1-3.7,9.8-3.7s7,1.2,9.8,3.7
				c2.9,2.5,4.3,6,4.3,10.6v22c0,4.6-1.4,8.1-4.3,10.6c-2.9,2.5-6.1,3.7-9.8,3.7s-7-1.2-9.8-3.7c-2.9-2.5-4.3-6-4.3-10.6V951.3z
				 M254.5,951.7c0-2.4-0.6-4.3-1.9-5.6c-1.3-1.3-3-2-5.1-2c-2.1,0-3.8,0.7-5.1,2c-1.3,1.3-1.9,3.2-1.9,5.6v21.1
				c0,2.4,0.6,4.3,1.9,5.6c1.3,1.3,3,2,5.1,2c2.1,0,3.8-0.7,5.1-2c1.3-1.3,1.9-3.2,1.9-5.6V951.7z"/>
		</g>
	</g>
	<g id="XMLID_693_">
		<g id="XMLID_25_">
			<path id="XMLID_26_" fill="#909DA1" d="M199,750.4h28.3v7.1l-16.9,42.7h-8l16.9-42.7h-13.2v7.2H199V750.4z"/>
			<path id="XMLID_28_" fill="#909DA1" d="M233.4,764.3c0-4.6,1.4-8.1,4.3-10.6c2.9-2.5,6.1-3.7,9.8-3.7s7,1.2,9.8,3.7
				c2.9,2.5,4.3,6,4.3,10.6v22c0,4.6-1.4,8.1-4.3,10.6c-2.9,2.5-6.1,3.7-9.8,3.7s-7-1.2-9.8-3.7c-2.9-2.5-4.3-6-4.3-10.6V764.3z
				 M254.5,764.7c0-2.4-0.6-4.3-1.9-5.6c-1.3-1.3-3-2-5.1-2c-2.1,0-3.8,0.7-5.1,2c-1.3,1.3-1.9,3.2-1.9,5.6v21.1
				c0,2.4,0.6,4.3,1.9,5.6c1.3,1.3,3,2,5.1,2c2.1,0,3.8-0.7,5.1-2c1.3-1.3,1.9-3.2,1.9-5.6V764.7z"/>
		</g>
	</g>
	<g id="XMLID_686_">
		<g id="XMLID_17_">
			<path id="XMLID_18_" fill="#909DA1" d="M198.5,586.8c1-1.9,2.5-3.5,4.3-4.8c-1.4-1.4-2.6-2.8-3.6-4.4s-1.4-3.5-1.4-5.6
				c0-4,1.4-7.4,4.1-10.2c2.8-2.8,6.1-4.2,10.1-4.2s7.4,1.4,10.2,4.2c2.8,2.8,4.1,6.2,4.1,10.2c0,2.1-0.5,4-1.4,5.6
				c-0.9,1.6-2.1,3.1-3.6,4.4c1.9,1.3,3.4,2.9,4.4,4.8c1,1.9,1.5,4.1,1.5,6.4c0,4.4-1.5,8-4.5,10.7c-3,2.8-6.6,4.2-10.7,4.2
				c-4.1,0-7.7-1.4-10.7-4.2c-3-2.8-4.5-6.4-4.5-10.7C197,590.8,197.5,588.7,198.5,586.8z M206.5,598.8c1.6,1.5,3.5,2.2,5.6,2.2
				s4-0.7,5.6-2.2c1.6-1.5,2.4-3.4,2.4-5.7c0-2.3-0.8-4.2-2.4-5.7c-1.6-1.5-3.5-2.2-5.6-2.2s-4,0.7-5.6,2.2
				c-1.6,1.5-2.4,3.4-2.4,5.7C204.1,595.4,204.9,597.3,206.5,598.8z M207.3,577.1c1.5,1.2,3.1,1.8,4.9,1.8c1.8,0,3.5-0.6,4.9-1.8
				c1.5-1.2,2.2-3,2.2-5.3c0-2.3-0.7-4.1-2.2-5.3c-1.5-1.2-3.1-1.8-4.9-1.8c-1.8,0-3.5,0.6-4.9,1.8c-1.5,1.2-2.2,3-2.2,5.3
				C205,574.1,205.8,575.8,207.3,577.1z"/>
			<path id="XMLID_22_" fill="#909DA1" d="M233.4,571.8c0-4.6,1.4-8.1,4.3-10.6c2.9-2.5,6.1-3.7,9.8-3.7s7,1.2,9.8,3.7
				c2.9,2.5,4.3,6,4.3,10.6v22c0,4.6-1.4,8.1-4.3,10.6c-2.9,2.5-6.1,3.7-9.8,3.7s-7-1.2-9.8-3.7c-2.9-2.5-4.3-6-4.3-10.6V571.8z
				 M254.5,572.2c0-2.4-0.6-4.3-1.9-5.6c-1.3-1.3-3-2-5.1-2c-2.1,0-3.8,0.7-5.1,2c-1.3,1.3-1.9,3.2-1.9,5.6v21.1
				c0,2.4,0.6,4.3,1.9,5.6c1.3,1.3,3,2,5.1,2c2.1,0,3.8-0.7,5.1-2c1.3-1.3,1.9-3.2,1.9-5.6V572.2z"/>
		</g>
	</g>
	<g id="XMLID_679_">
		<g id="XMLID_10_">
			<path id="XMLID_11_" fill="#909DA1" d="M211.2,420.7h-8l10.5-21.1h-0.1c-0.3,0.1-0.7,0.2-1,0.3c-0.4,0.1-0.7,0.1-1.1,0.2
				c-0.3,0-0.6,0.1-0.8,0.1s-0.5,0-0.8,0c-3.1,0-5.9-1.1-8.3-3.3c-2.4-2.2-3.6-5.7-3.6-10.5c0-5.7,1.5-9.8,4.6-12.3
				c3.1-2.5,6.4-3.7,10.1-3.7c3.5,0,6.6,1.4,9.5,4.1c2.9,2.7,4.3,6.4,4.3,11.1c0,1.4-0.2,2.9-0.5,4.3c-0.3,1.4-0.8,2.8-1.4,4
				L211.2,420.7z M217.2,392c1.4-1.3,2.1-3.4,2.1-6.2c0-2.8-0.6-4.9-1.9-6.2c-1.3-1.3-3-2-5.2-2c-0.2,0-0.4,0-0.6,0
				c-0.2,0-0.4,0.1-0.6,0.1c-1.5,0.2-2.8,1-4.1,2.2c-1.2,1.3-1.8,3.2-1.8,5.8c0,2.8,0.7,4.9,2.1,6.2c1.4,1.3,3.1,2,5,2
				S215.8,393.3,217.2,392z"/>
			<path id="XMLID_14_" fill="#909DA1" d="M233.4,384.8c0-4.6,1.4-8.1,4.3-10.6c2.9-2.5,6.1-3.7,9.8-3.7s7,1.2,9.8,3.7
				c2.9,2.5,4.3,6,4.3,10.6v22c0,4.6-1.4,8.1-4.3,10.6c-2.9,2.5-6.1,3.7-9.8,3.7s-7-1.2-9.8-3.7c-2.9-2.5-4.3-6-4.3-10.6V384.8z
				 M254.5,385.2c0-2.4-0.6-4.3-1.9-5.6c-1.3-1.3-3-2-5.1-2c-2.1,0-3.8,0.7-5.1,2c-1.3,1.3-1.9,3.2-1.9,5.6v21.1
				c0,2.4,0.6,4.3,1.9,5.6c1.3,1.3,3,2,5.1,2c2.1,0,3.8-0.7,5.1-2c1.3-1.3,1.9-3.2,1.9-5.6V385.2z"/>
		</g>
	</g>
	<g id="XMLID_677_">
		<g id="XMLID_1_">
			<path id="XMLID_2_" fill="#909DA1" d="M173.6,191.4l-7.1,5.2V189l7.1-5.2h7.1v49.8h-7.1V191.4z"/>
			<path id="XMLID_4_" fill="#909DA1" d="M198,197.8c0-4.6,1.4-8.1,4.3-10.6c2.9-2.5,6.1-3.7,9.8-3.7s7,1.2,9.8,3.7
				c2.9,2.5,4.3,6,4.3,10.6v22c0,4.6-1.4,8.1-4.3,10.6c-2.9,2.5-6.1,3.7-9.8,3.7s-7-1.2-9.8-3.7c-2.9-2.5-4.3-6-4.3-10.6V197.8z
				 M219.2,198.2c0-2.4-0.6-4.3-1.9-5.6c-1.3-1.3-3-2-5.1-2c-2.1,0-3.8,0.7-5.1,2c-1.3,1.3-1.9,3.2-1.9,5.6v21.1
				c0,2.4,0.6,4.3,1.9,5.6c1.3,1.3,3,2,5.1,2c2.1,0,3.8-0.7,5.1-2c1.3-1.3,1.9-3.2,1.9-5.6V198.2z"/>
			<path id="XMLID_7_" fill="#909DA1" d="M233.4,197.8c0-4.6,1.4-8.1,4.3-10.6c2.9-2.5,6.1-3.7,9.8-3.7s7,1.2,9.8,3.7
				c2.9,2.5,4.3,6,4.3,10.6v22c0,4.6-1.4,8.1-4.3,10.6c-2.9,2.5-6.1,3.7-9.8,3.7s-7-1.2-9.8-3.7c-2.9-2.5-4.3-6-4.3-10.6V197.8z
				 M254.5,198.2c0-2.4-0.6-4.3-1.9-5.6c-1.3-1.3-3-2-5.1-2c-2.1,0-3.8,0.7-5.1,2c-1.3,1.3-1.9,3.2-1.9,5.6v21.1
				c0,2.4,0.6,4.3,1.9,5.6c1.3,1.3,3,2,5.1,2c2.1,0,3.8-0.7,5.1-2c1.3-1.3,1.9-3.2,1.9-5.6V198.2z"/>
		</g>
	</g>
</g>
</svg>
