<?xml version="1.0" encoding="utf-8"?>
<!-- Generator: Adobe Illustrator 19.0.0, SVG Export Plug-In . SVG Version: 6.00 Build 0)  -->
<svg version="1.2" baseProfile="tiny" xmlns="http://www.w3.org/2000/svg" xmlns:xlink="http://www.w3.org/1999/xlink" x="0px"
	 y="0px" width="3812.2px" height="1598.8px" viewBox="0 0 3812.2 1598.8" xml:space="preserve">
<g id="achterWebsite">
	<rect id="XMLID_608_" x="0" y="0" fill="#C2DF8A" width="3812.2" height="1598.8"/>
</g>
<g id="Laag_1">
</g>
<g id="nrs">
	<g id="XMLID_3203_">
		<path id="XMLID_3242_" fill="#1D1C20" d="M3614.1,809.2h-686.6V414.1c0-17.7,14.4-32.1,32.1-32.1H3582c17.7,0,32.1,14.4,32.1,32.1
			V809.2z"/>
		<polygon id="XMLID_3241_" fill="#E0E1E2" points="3576.5,419.5 3576.5,675.8 3000,419.5 		"/>
		<polygon id="XMLID_3239_" fill="#FFFFFF" points="3576.5,675.8 3576.5,808.1 3406.6,808.1 2965,611.8 2965,419.5 3000,419.5 		"/>
		<polygon id="XMLID_3238_" fill="#E0E1E2" points="3406.6,808.1 2965,808.1 2965,611.8 		"/>
		<path id="XMLID_3228_" fill="#1D1C20" d="M3614.1,809.2h-686.6l-103.6,253.4c-7.7,18.5,5.9,38.9,26,38.9h197.3h447.2h197.3
			c20.1,0,33.7-20.4,26-38.9L3614.1,809.2z"/>
		<polygon id="XMLID_3222_" fill="#FFFFFF" points="3576.5,836.2 2965,836.2 2916.9,952.4 3366.5,952.4 3546.2,952.4 3624.6,952.4 
					"/>
		<polygon id="XMLID_3221_" fill="#FFFFFF" points="3347.1,980.5 3194.5,980.5 3172,1034.7 3369.5,1034.7 		"/>
		<polygon id="XMLID_3220_" fill="#1D1C20" points="3557.7,1062.9 3519.6,1062.9 3414.5,809.2 3452.6,809.2 		"/>
		
			<line id="XMLID_3219_" fill="none" stroke="#FFFFFF" stroke-width="14.651" stroke-linecap="round" stroke-linejoin="round" stroke-miterlimit="10" x1="2854.3" y1="1071.7" x2="3687.3" y2="1071.7"/>
		<rect id="XMLID_3218_" x="3461.1" y="867.3" fill="#1D1C20" width="158.3" height="27"/>
	</g>
	
		<line id="XMLID_3202_" fill="none" stroke="#1D1C20" stroke-width="8" stroke-linecap="round" stroke-linejoin="round" stroke-miterlimit="10" x1="1009.1" y1="880.9" x2="1422.4" y2="880.9"/>
	
		<line id="XMLID_3201_" fill="none" stroke="#1D1C20" stroke-width="8" stroke-linecap="round" stroke-linejoin="round" stroke-miterlimit="10" x1="2503.8" y1="880.9" x2="2795.2" y2="880.9"/>
	<path id="XMLID_3200_" fill="#ECEDED" d="M2494.2,585.8c89.7,165.2,94.9,363.4,14,533.1l-530.1-252.8L2494.2,585.8z"/>
	<path id="XMLID_3199_" fill="#767A7E" d="M2437.7,1120.7c-139.6,292.8-490.2,416.9-782.9,277.2
		c-292.8-139.6-416.9-490.2-277.2-782.9c139.6-292.8,490.2-416.9,782.9-277.2c111.9,53.4,204.1,140.9,263.3,249.8l-516.1,280.2
		L2437.7,1120.7z"/>
	<g id="XMLID_2105_">
		<g id="XMLID_2151_">
			<g id="XMLID_3188_">
				
					<path id="XMLID_3198_" fill="#FFFFFF" stroke="#1D1C20" stroke-width="8" stroke-linecap="round" stroke-linejoin="round" stroke-miterlimit="10" d="
					M677.4,1097.5H301.9c-9.8,0-17.8-8-17.8-17.8v-556c0-9.8,8-17.8,17.8-17.8h375.5c9.8,0,17.8,8,17.8,17.8v556
					C695.2,1089.5,687.2,1097.5,677.4,1097.5z"/>
				
					<rect id="XMLID_3197_" x="316.7" y="568.5" fill="none" stroke="#1D1C20" stroke-width="8" stroke-linecap="round" stroke-linejoin="round" stroke-miterlimit="10" width="345.8" height="459.7"/>
				<circle id="XMLID_3191_" fill="#1D1C20" cx="478.1" cy="1062.4" r="14.7"/>
				<circle id="XMLID_3189_" fill="#1D1C20" cx="478.1" cy="535.7" r="7.4"/>
			</g>
			<g id="XMLID_3134_">
				<g id="XMLID_150_">
					<path id="XMLID_155_" fill="#C4C9CA" d="M374.2,632h-15.3c-4.9,0-8.9-4-8.9-8.9v-15.3c0-4.9,4-8.9,8.9-8.9h15.3
						c4.9,0,8.9,4,8.9,8.9V623C383.1,628,379.1,632,374.2,632z"/>
					<path id="XMLID_154_" fill="#C4C9CA" d="M435.3,632h-15.3c-4.9,0-8.9-4-8.9-8.9v-15.3c0-4.9,4-8.9,8.9-8.9h15.3
						c4.9,0,8.9,4,8.9,8.9V623C444.2,628,440.2,632,435.3,632z"/>
					<path id="XMLID_153_" fill="#C4C9CA" d="M496.4,632h-15.3c-4.9,0-8.9-4-8.9-8.9v-15.3c0-4.9,4-8.9,8.9-8.9h15.3
						c4.9,0,8.9,4,8.9,8.9V623C505.4,628,501.4,632,496.4,632z"/>
					<path id="XMLID_152_" fill="#C4C9CA" d="M557.6,632h-15.3c-4.9,0-8.9-4-8.9-8.9v-15.3c0-4.9,4-8.9,8.9-8.9h15.3
						c4.9,0,8.9,4,8.9,8.9V623C566.5,628,562.5,632,557.6,632z"/>
					<path id="XMLID_151_" fill="#C4C9CA" d="M618.7,632h-15.3c-4.9,0-8.9-4-8.9-8.9v-15.3c0-4.9,4-8.9,8.9-8.9h15.3
						c4.9,0,8.9,4,8.9,8.9V623C627.6,628,623.6,632,618.7,632z"/>
				</g>
				<g id="XMLID_144_">
					<path id="XMLID_149_" fill="#C4C9CA" d="M374.2,632h-15.3c-4.9,0-8.9-4-8.9-8.9v-15.3c0-4.9,4-8.9,8.9-8.9h15.3
						c4.9,0,8.9,4,8.9,8.9V623C383.1,628,379.1,632,374.2,632z"/>
					<path id="XMLID_148_" fill="#C4C9CA" d="M435.3,632h-15.3c-4.9,0-8.9-4-8.9-8.9v-15.3c0-4.9,4-8.9,8.9-8.9h15.3
						c4.9,0,8.9,4,8.9,8.9V623C444.2,628,440.2,632,435.3,632z"/>
					<path id="XMLID_147_" fill="#C4C9CA" d="M496.4,632h-15.3c-4.9,0-8.9-4-8.9-8.9v-15.3c0-4.9,4-8.9,8.9-8.9h15.3
						c4.9,0,8.9,4,8.9,8.9V623C505.4,628,501.4,632,496.4,632z"/>
					<path id="XMLID_146_" fill="#C4C9CA" d="M557.6,632h-15.3c-4.9,0-8.9-4-8.9-8.9v-15.3c0-4.9,4-8.9,8.9-8.9h15.3
						c4.9,0,8.9,4,8.9,8.9V623C566.5,628,562.5,632,557.6,632z"/>
					<path id="XMLID_145_" fill="#C4C9CA" d="M618.7,632h-15.3c-4.9,0-8.9-4-8.9-8.9v-15.3c0-4.9,4-8.9,8.9-8.9h15.3
						c4.9,0,8.9,4,8.9,8.9V623C627.6,628,623.6,632,618.7,632z"/>
				</g>
			</g>
			<g id="XMLID_3081_">
				<g id="XMLID_138_">
					<path id="XMLID_143_" fill="#C4C9CA" d="M374.2,687.3h-15.3c-4.9,0-8.9-4-8.9-8.9v-15.3c0-4.9,4-8.9,8.9-8.9h15.3
						c4.9,0,8.9,4,8.9,8.9v15.3C383.1,683.3,379.1,687.3,374.2,687.3z"/>
					<path id="XMLID_142_" fill="#C4C9CA" d="M435.3,687.3h-15.3c-4.9,0-8.9-4-8.9-8.9v-15.3c0-4.9,4-8.9,8.9-8.9h15.3
						c4.9,0,8.9,4,8.9,8.9v15.3C444.2,683.3,440.2,687.3,435.3,687.3z"/>
					<path id="XMLID_141_" fill="#C4C9CA" d="M496.4,687.3h-15.3c-4.9,0-8.9-4-8.9-8.9v-15.3c0-4.9,4-8.9,8.9-8.9h15.3
						c4.9,0,8.9,4,8.9,8.9v15.3C505.4,683.3,501.4,687.3,496.4,687.3z"/>
					<path id="XMLID_140_" fill="#C4C9CA" d="M557.6,687.3h-15.3c-4.9,0-8.9-4-8.9-8.9v-15.3c0-4.9,4-8.9,8.9-8.9h15.3
						c4.9,0,8.9,4,8.9,8.9v15.3C566.5,683.3,562.5,687.3,557.6,687.3z"/>
					<path id="XMLID_139_" fill="#C4C9CA" d="M618.7,687.3h-15.3c-4.9,0-8.9-4-8.9-8.9v-15.3c0-4.9,4-8.9,8.9-8.9h15.3
						c4.9,0,8.9,4,8.9,8.9v15.3C627.6,683.3,623.6,687.3,618.7,687.3z"/>
				</g>
				<g id="XMLID_132_">
					<path id="XMLID_137_" fill="#C4C9CA" d="M374.2,687.3h-15.3c-4.9,0-8.9-4-8.9-8.9v-15.3c0-4.9,4-8.9,8.9-8.9h15.3
						c4.9,0,8.9,4,8.9,8.9v15.3C383.1,683.3,379.1,687.3,374.2,687.3z"/>
					<path id="XMLID_136_" fill="#C4C9CA" d="M435.3,687.3h-15.3c-4.9,0-8.9-4-8.9-8.9v-15.3c0-4.9,4-8.9,8.9-8.9h15.3
						c4.9,0,8.9,4,8.9,8.9v15.3C444.2,683.3,440.2,687.3,435.3,687.3z"/>
					<path id="XMLID_135_" fill="#C4C9CA" d="M496.4,687.3h-15.3c-4.9,0-8.9-4-8.9-8.9v-15.3c0-4.9,4-8.9,8.9-8.9h15.3
						c4.9,0,8.9,4,8.9,8.9v15.3C505.4,683.3,501.4,687.3,496.4,687.3z"/>
					<path id="XMLID_134_" fill="#C4C9CA" d="M557.6,687.3h-15.3c-4.9,0-8.9-4-8.9-8.9v-15.3c0-4.9,4-8.9,8.9-8.9h15.3
						c4.9,0,8.9,4,8.9,8.9v15.3C566.5,683.3,562.5,687.3,557.6,687.3z"/>
					<path id="XMLID_133_" fill="#C4C9CA" d="M618.7,687.3h-15.3c-4.9,0-8.9-4-8.9-8.9v-15.3c0-4.9,4-8.9,8.9-8.9h15.3
						c4.9,0,8.9,4,8.9,8.9v15.3C627.6,683.3,623.6,687.3,618.7,687.3z"/>
				</g>
			</g>
			<g id="XMLID_2551_">
				<g id="XMLID_126_">
					<path id="XMLID_131_" fill="#C4C9CA" d="M374.2,742.6h-15.3c-4.9,0-8.9-4-8.9-8.9v-15.3c0-4.9,4-8.9,8.9-8.9h15.3
						c4.9,0,8.9,4,8.9,8.9v15.3C383.1,738.6,379.1,742.6,374.2,742.6z"/>
					<path id="XMLID_130_" fill="#C4C9CA" d="M435.3,742.6h-15.3c-4.9,0-8.9-4-8.9-8.9v-15.3c0-4.9,4-8.9,8.9-8.9h15.3
						c4.9,0,8.9,4,8.9,8.9v15.3C444.2,738.6,440.2,742.6,435.3,742.6z"/>
					<path id="XMLID_129_" fill="#C4C9CA" d="M496.4,742.6h-15.3c-4.9,0-8.9-4-8.9-8.9v-15.3c0-4.9,4-8.9,8.9-8.9h15.3
						c4.9,0,8.9,4,8.9,8.9v15.3C505.4,738.6,501.4,742.6,496.4,742.6z"/>
					<path id="XMLID_128_" fill="#C4C9CA" d="M557.6,742.6h-15.3c-4.9,0-8.9-4-8.9-8.9v-15.3c0-4.9,4-8.9,8.9-8.9h15.3
						c4.9,0,8.9,4,8.9,8.9v15.3C566.5,738.6,562.5,742.6,557.6,742.6z"/>
					<path id="XMLID_127_" fill="#C4C9CA" d="M618.7,742.6h-15.3c-4.9,0-8.9-4-8.9-8.9v-15.3c0-4.9,4-8.9,8.9-8.9h15.3
						c4.9,0,8.9,4,8.9,8.9v15.3C627.6,738.6,623.6,742.6,618.7,742.6z"/>
				</g>
				<g id="XMLID_120_">
					<path id="XMLID_125_" fill="#C4C9CA" d="M374.2,742.6h-15.3c-4.9,0-8.9-4-8.9-8.9v-15.3c0-4.9,4-8.9,8.9-8.9h15.3
						c4.9,0,8.9,4,8.9,8.9v15.3C383.1,738.6,379.1,742.6,374.2,742.6z"/>
					<path id="XMLID_124_" fill="#C4C9CA" d="M435.3,742.6h-15.3c-4.9,0-8.9-4-8.9-8.9v-15.3c0-4.9,4-8.9,8.9-8.9h15.3
						c4.9,0,8.9,4,8.9,8.9v15.3C444.2,738.6,440.2,742.6,435.3,742.6z"/>
					<path id="XMLID_123_" fill="#C4C9CA" d="M496.4,742.6h-15.3c-4.9,0-8.9-4-8.9-8.9v-15.3c0-4.9,4-8.9,8.9-8.9h15.3
						c4.9,0,8.9,4,8.9,8.9v15.3C505.4,738.6,501.4,742.6,496.4,742.6z"/>
					<path id="XMLID_122_" fill="#C4C9CA" d="M557.6,742.6h-15.3c-4.9,0-8.9-4-8.9-8.9v-15.3c0-4.9,4-8.9,8.9-8.9h15.3
						c4.9,0,8.9,4,8.9,8.9v15.3C566.5,738.6,562.5,742.6,557.6,742.6z"/>
					<path id="XMLID_121_" fill="#C4C9CA" d="M618.7,742.6h-15.3c-4.9,0-8.9-4-8.9-8.9v-15.3c0-4.9,4-8.9,8.9-8.9h15.3
						c4.9,0,8.9,4,8.9,8.9v15.3C627.6,738.6,623.6,742.6,618.7,742.6z"/>
				</g>
			</g>
			<g id="XMLID_2322_">
				<g id="XMLID_114_">
					<path id="XMLID_119_" fill="#C4C9CA" d="M374.2,797.9h-15.3c-4.9,0-8.9-4-8.9-8.9v-15.3c0-4.9,4-8.9,8.9-8.9h15.3
						c4.9,0,8.9,4,8.9,8.9V789C383.1,793.9,379.1,797.9,374.2,797.9z"/>
					<path id="XMLID_118_" fill="#C4C9CA" d="M435.3,797.9h-15.3c-4.9,0-8.9-4-8.9-8.9v-15.3c0-4.9,4-8.9,8.9-8.9h15.3
						c4.9,0,8.9,4,8.9,8.9V789C444.2,793.9,440.2,797.9,435.3,797.9z"/>
					<path id="XMLID_117_" fill="#C4C9CA" d="M496.4,797.9h-15.3c-4.9,0-8.9-4-8.9-8.9v-15.3c0-4.9,4-8.9,8.9-8.9h15.3
						c4.9,0,8.9,4,8.9,8.9V789C505.4,793.9,501.4,797.9,496.4,797.9z"/>
					<path id="XMLID_116_" fill="#C4C9CA" d="M557.6,797.9h-15.3c-4.9,0-8.9-4-8.9-8.9v-15.3c0-4.9,4-8.9,8.9-8.9h15.3
						c4.9,0,8.9,4,8.9,8.9V789C566.5,793.9,562.5,797.9,557.6,797.9z"/>
					<path id="XMLID_115_" fill="#C4C9CA" d="M618.7,797.9h-15.3c-4.9,0-8.9-4-8.9-8.9v-15.3c0-4.9,4-8.9,8.9-8.9h15.3
						c4.9,0,8.9,4,8.9,8.9V789C627.6,793.9,623.6,797.9,618.7,797.9z"/>
				</g>
				<g id="XMLID_108_">
					<path id="XMLID_113_" fill="#C4C9CA" d="M374.2,797.9h-15.3c-4.9,0-8.9-4-8.9-8.9v-15.3c0-4.9,4-8.9,8.9-8.9h15.3
						c4.9,0,8.9,4,8.9,8.9V789C383.1,793.9,379.1,797.9,374.2,797.9z"/>
					<path id="XMLID_112_" fill="#C4C9CA" d="M435.3,797.9h-15.3c-4.9,0-8.9-4-8.9-8.9v-15.3c0-4.9,4-8.9,8.9-8.9h15.3
						c4.9,0,8.9,4,8.9,8.9V789C444.2,793.9,440.2,797.9,435.3,797.9z"/>
					<path id="XMLID_111_" fill="#C4C9CA" d="M496.4,797.9h-15.3c-4.9,0-8.9-4-8.9-8.9v-15.3c0-4.9,4-8.9,8.9-8.9h15.3
						c4.9,0,8.9,4,8.9,8.9V789C505.4,793.9,501.4,797.9,496.4,797.9z"/>
					<path id="XMLID_110_" fill="#C4C9CA" d="M557.6,797.9h-15.3c-4.9,0-8.9-4-8.9-8.9v-15.3c0-4.9,4-8.9,8.9-8.9h15.3
						c4.9,0,8.9,4,8.9,8.9V789C566.5,793.9,562.5,797.9,557.6,797.9z"/>
					<path id="XMLID_109_" fill="#C4C9CA" d="M618.7,797.9h-15.3c-4.9,0-8.9-4-8.9-8.9v-15.3c0-4.9,4-8.9,8.9-8.9h15.3
						c4.9,0,8.9,4,8.9,8.9V789C627.6,793.9,623.6,797.9,618.7,797.9z"/>
				</g>
			</g>
			<g id="XMLID_2156_">
				<g id="XMLID_102_">
					<path id="XMLID_107_" fill="#C4C9CA" d="M374.2,853.2h-15.3c-4.9,0-8.9-4-8.9-8.9V829c0-4.9,4-8.9,8.9-8.9h15.3
						c4.9,0,8.9,4,8.9,8.9v15.3C383.1,849.2,379.1,853.2,374.2,853.2z"/>
					<path id="XMLID_106_" fill="#C4C9CA" d="M435.3,853.2h-15.3c-4.9,0-8.9-4-8.9-8.9V829c0-4.9,4-8.9,8.9-8.9h15.3
						c4.9,0,8.9,4,8.9,8.9v15.3C444.2,849.2,440.2,853.2,435.3,853.2z"/>
					<path id="XMLID_105_" fill="#C4C9CA" d="M496.4,853.2h-15.3c-4.9,0-8.9-4-8.9-8.9V829c0-4.9,4-8.9,8.9-8.9h15.3
						c4.9,0,8.9,4,8.9,8.9v15.3C505.4,849.2,501.4,853.2,496.4,853.2z"/>
					<path id="XMLID_104_" fill="#C4C9CA" d="M557.6,853.2h-15.3c-4.9,0-8.9-4-8.9-8.9V829c0-4.9,4-8.9,8.9-8.9h15.3
						c4.9,0,8.9,4,8.9,8.9v15.3C566.5,849.2,562.5,853.2,557.6,853.2z"/>
					<path id="XMLID_103_" fill="#C4C9CA" d="M618.7,853.2h-15.3c-4.9,0-8.9-4-8.9-8.9V829c0-4.9,4-8.9,8.9-8.9h15.3
						c4.9,0,8.9,4,8.9,8.9v15.3C627.6,849.2,623.6,853.2,618.7,853.2z"/>
				</g>
				<g id="XMLID_96_">
					<path id="XMLID_101_" fill="#C4C9CA" d="M374.2,853.2h-15.3c-4.9,0-8.9-4-8.9-8.9V829c0-4.9,4-8.9,8.9-8.9h15.3
						c4.9,0,8.9,4,8.9,8.9v15.3C383.1,849.2,379.1,853.2,374.2,853.2z"/>
					<path id="XMLID_100_" fill="#C4C9CA" d="M435.3,853.2h-15.3c-4.9,0-8.9-4-8.9-8.9V829c0-4.9,4-8.9,8.9-8.9h15.3
						c4.9,0,8.9,4,8.9,8.9v15.3C444.2,849.2,440.2,853.2,435.3,853.2z"/>
					<path id="XMLID_99_" fill="#C4C9CA" d="M496.4,853.2h-15.3c-4.9,0-8.9-4-8.9-8.9V829c0-4.9,4-8.9,8.9-8.9h15.3
						c4.9,0,8.9,4,8.9,8.9v15.3C505.4,849.2,501.4,853.2,496.4,853.2z"/>
					<path id="XMLID_98_" fill="#C4C9CA" d="M557.6,853.2h-15.3c-4.9,0-8.9-4-8.9-8.9V829c0-4.9,4-8.9,8.9-8.9h15.3
						c4.9,0,8.9,4,8.9,8.9v15.3C566.5,849.2,562.5,853.2,557.6,853.2z"/>
					<path id="XMLID_97_" fill="#C4C9CA" d="M618.7,853.2h-15.3c-4.9,0-8.9-4-8.9-8.9V829c0-4.9,4-8.9,8.9-8.9h15.3
						c4.9,0,8.9,4,8.9,8.9v15.3C627.6,849.2,623.6,853.2,618.7,853.2z"/>
				</g>
			</g>
			<g id="XMLID_2152_">
				<path id="XMLID_2155_" fill="#C4C9CA" d="M435.4,983.8h-15.3c-4.9,0-8.9-4-8.9-8.9v-15.3c0-4.9,4-8.9,8.9-8.9h15.3
					c4.9,0,8.9,4,8.9,8.9v15.3C444.3,979.8,440.4,983.8,435.4,983.8z"/>
				<path id="XMLID_2154_" fill="#C4C9CA" d="M557.6,983.8h-15.3c-4.9,0-8.9-4-8.9-8.9v-15.3c0-4.9,4-8.9,8.9-8.9h15.3
					c4.9,0,8.9,4,8.9,8.9v15.3C566.5,979.8,562.5,983.8,557.6,983.8z"/>
				<path id="XMLID_2153_" fill="#C4C9CA" d="M496.5,983.8h-15.3c-4.9,0-8.9-4-8.9-8.9v-15.3c0-4.9,4-8.9,8.9-8.9h15.3
					c4.9,0,8.9,4,8.9,8.9v15.3C505.4,979.8,501.4,983.8,496.5,983.8z"/>
			</g>
		</g>
		<g id="XMLID_2106_">
			
				<path id="XMLID_2145_" fill="#1D1C20" stroke="#1D1C20" stroke-width="9.7673" stroke-linecap="round" stroke-linejoin="round" stroke-miterlimit="10" d="
				M916.1,1017.7H797c-4.9,0-8.9-4-8.9-8.9V753.1c0-4.9,4-8.9,8.9-8.9h119.1c4.9,0,8.9,4,8.9,8.9v255.7
				C925,1013.7,921,1017.7,916.1,1017.7z"/>
			<rect id="XMLID_2118_" x="799" y="778.7" fill="#FFFFFF" width="115.2" height="185.4"/>
			
				<line id="XMLID_2116_" fill="none" stroke="#FFFFFF" stroke-width="2.4418" stroke-linecap="round" stroke-linejoin="round" stroke-miterlimit="10" x1="841.6" y1="760.9" x2="871.5" y2="760.9"/>
			<circle id="XMLID_2115_" fill="#FFFFFF" cx="856.5" cy="991.1" r="10.5"/>
			
				<line id="XMLID_2109_" fill="#FFFFFF" stroke="#C4C9CA" stroke-width="9.7673" stroke-linecap="round" stroke-linejoin="round" stroke-miterlimit="10" x1="863.2" y1="791.4" x2="899.8" y2="839.9"/>
			
				<line id="XMLID_2108_" fill="#FFFFFF" stroke="#C4C9CA" stroke-width="9.7673" stroke-linecap="round" stroke-linejoin="round" stroke-miterlimit="10" x1="901.7" y1="804.3" x2="891.4" y2="790.6"/>
			
				<line id="XMLID_2107_" fill="#FFFFFF" stroke="#C4C9CA" stroke-width="9.7673" stroke-linecap="round" stroke-linejoin="round" stroke-miterlimit="10" x1="833.5" y1="949.3" x2="812.9" y2="921.9"/>
		</g>
	</g>
	
		<path id="XMLID_2103_" fill="none" stroke="#1E1D21" stroke-width="12" stroke-linecap="round" stroke-linejoin="round" stroke-miterlimit="10" d="
		M2494.2,585.8c89.7,165.2,94.9,363.4,14,533.1"/>
	
		<path id="XMLID_2052_" fill="none" stroke="#1E1D21" stroke-width="12" stroke-linecap="round" stroke-linejoin="round" stroke-miterlimit="10" d="
		M2437.7,1120.7c-139.6,292.8-490.2,416.9-782.9,277.2c-292.8-139.6-416.9-490.2-277.2-782.9c139.6-292.8,490.2-416.9,782.9-277.2
		c111.9,53.4,204.1,140.9,263.3,249.8"/>
</g>
<g id="typo">
	<g id="XMLID_76_">
		<path id="XMLID_77_" fill="#223B44" d="M3157.6,1248.4c-1.3,1.4-2.9,2.6-4.8,3.4c-1.9,0.9-3.9,1.3-6,1.3c-2.5,0-4.7-0.5-6.6-1.5
			c-1.9-1-3.4-2.3-4.6-3.8c-0.1-0.1-0.1-0.1-0.1-0.2c0-0.1-0.1-0.1-0.1-0.1c-1-1.4-1.8-3.1-2.1-5.2c-0.4-2-0.6-5.5-0.6-10.5
			c0-4.9,0.2-8.4,0.6-10.4c0.4-2,1.1-3.7,2.1-5.2c0.1,0,0.1,0,0.1-0.1c0-0.1,0.1-0.1,0.1-0.2c1.2-1.6,2.7-2.9,4.6-3.9
			c1.9-1,4-1.5,6.6-1.5c2.1,0,4.1,0.5,5.8,1.4c1.7,0.9,3.4,2.1,4.9,3.6v-21.2h8.4v58.4h-8.4V1248.4z M3142.4,1223
			c-0.8,2.6-1.2,5.5-1.2,8.7c0,0.1,0,0.1,0,0.1c0,0,0,0.1,0,0.1c0,3.2,0.4,6.2,1.2,8.9c0.8,2.7,3.2,4.1,7.1,4.1
			c3.5,0,5.7-1.1,6.6-3.4c0.9-2.3,1.4-4.8,1.6-7.5c0-0.3,0-0.7,0-1s0-0.7,0-1s0-0.7,0-1s0-0.7,0-1.1c-0.1-2.7-0.6-5.1-1.6-7.4
			c-1-2.2-3.2-3.4-6.6-3.4C3145.5,1219,3143.2,1220.4,3142.4,1223z"/>
		<path id="XMLID_80_" fill="#223B44" d="M3183.7,1235.1c0,3.4,0.9,5.9,2.8,7.7c1.9,1.7,4.3,2.6,7.1,2.6c0.3,0,0.7,0,1,0
			c0.3,0,0.7-0.1,1-0.1c1.3-0.2,2.5-0.7,3.8-1.3c1.3-0.7,2.4-1.5,3.4-2.5l6.1,5.2c-2,2.4-4.3,4-6.9,5.1c-2.6,1-5.3,1.6-8.1,1.6
			c-0.5,0-1.1,0-1.6,0c-0.5,0-1.1-0.1-1.6-0.1c-3.8-0.5-7.3-2.2-10.5-5.2c-3.2-3-4.8-8.2-4.8-15.7c0-7.2,1.5-12.4,4.6-15.6
			s6.4-5.1,10-5.6c0.4-0.1,0.9-0.1,1.3-0.1c0.4,0,0.8,0,1.3,0c4.6,0,8.6,1.6,12,4.8c3.4,3.2,5.1,7.4,5.1,12.8v6.9H3183.7z
			 M3201.2,1228.2c-0.1-3.2-1-5.6-2.6-7.2c-1.6-1.6-3.7-2.5-6.2-2.5s-4.5,0.8-6.2,2.5c-1.6,1.6-2.5,4-2.6,7.2H3201.2z"/>
		<path id="XMLID_83_" fill="#223B44" d="M3221.6,1240c1.8,1.8,3.7,3.1,5.8,4c2.1,0.9,4.5,1.4,7.3,1.4c2.4,0,4.4-0.5,5.9-1.4
			c1.5-0.9,2.3-2.2,2.3-4c0-1.5-0.5-2.5-1.5-3.1c-1-0.6-2.2-0.9-3.6-1l-7.4-0.7c-3.4-0.3-6.3-1.4-8.6-3.4c-2.3-2-3.4-4.8-3.4-8.4
			c0-4.2,1.5-7.4,4.5-9.6c3-2.2,6.7-3.2,11-3.2c3.7,0,6.8,0.5,9.4,1.5c2.6,1,4.9,2.4,6.9,4.1l-5.2,6.1c-1.6-1.1-3.3-2.1-5.1-2.8
			c-1.8-0.7-3.8-1.1-6-1.1c-2.7,0-4.5,0.5-5.6,1.4c-1,1-1.6,2.1-1.6,3.6c0,0.9,0.4,1.7,1.2,2.5c0.8,0.8,2.2,1.3,4.3,1.4l6.9,0.5
			c4.3,0.3,7.4,1.6,9.3,3.9c1.9,2.4,2.8,5.2,2.8,8.5c0,4-1.7,7.2-5,9.4c-3.3,2.2-7.4,3.3-12.3,3.3c-3.3,0-6.5-0.6-9.6-1.8
			c-3.1-1.2-6-3.1-8.7-5.6L3221.6,1240z"/>
		<path id="XMLID_85_" fill="#223B44" d="M3261.8,1194.4h8.4v36.3h0.2l16-19.5h10l-14.3,16.2l16.3,25.3h-10.5l-11.1-19.4l-6.6,7.5
			v12h-8.4V1194.4z"/>
		<path id="XMLID_88_" fill="#223B44" d="M3306.9,1198.5h8.4v12.6h6.1v6.4h-6.1v24.2c0,1.1,0.2,2,0.7,2.4c0.5,0.5,1.2,0.7,2.3,0.7
			h3.1v7.9h-4.3c-2.9,0-5.3-0.9-7.2-2.7c-1.9-1.8-2.9-4.3-2.9-7.6v-24.9h-4.2v-6.4h4.2V1198.5z"/>
		<path id="XMLID_90_" fill="#223B44" d="M3330.3,1222c0.7-2.2,1.8-4.1,3.3-5.9c0.1-0.1,0.1-0.1,0.2-0.2c0.1-0.1,0.2-0.2,0.3-0.3
			c0.1-0.1,0.2-0.2,0.3-0.3c1.2-1.1,2.8-2.2,4.7-3.2c1.9-1,4.4-1.5,7.3-1.5s5.4,0.5,7.3,1.5c1.9,1,3.5,2,4.7,3.2
			c0.1,0.1,0.2,0.2,0.3,0.3c0.1,0.1,0.2,0.2,0.3,0.3c0.1,0.1,0.1,0.1,0.2,0.2c1.5,1.8,2.6,3.7,3.3,5.9c0.7,2.2,1,5.5,1,9.9
			s-0.3,7.7-1,9.9c-0.7,2.2-1.8,4.2-3.3,5.9c-0.1,0.1-0.1,0.1-0.2,0.2c-0.1,0.1-0.2,0.2-0.3,0.3c-0.1,0.1-0.2,0.2-0.3,0.3
			c-1.2,1.1-2.8,2.2-4.7,3.2c-1.9,1-4.4,1.4-7.3,1.4s-5.4-0.5-7.3-1.4c-1.9-1-3.5-2-4.7-3.2c-0.1-0.1-0.2-0.2-0.3-0.3
			c-0.1-0.1-0.2-0.2-0.3-0.3c-0.1-0.1-0.1-0.1-0.2-0.2c-1.5-1.7-2.6-3.7-3.3-5.9c-0.7-2.2-1-5.5-1-9.9S3329.6,1224.2,3330.3,1222z
			 M3354.8,1226.1c-0.2-1.2-0.6-2.3-1.2-3.3c-0.1-0.1-0.1-0.2-0.2-0.4c-0.1-0.1-0.2-0.3-0.3-0.4c-0.6-0.9-1.5-1.6-2.7-2.2
			c-1.2-0.6-2.6-0.9-4-0.9c-1.4,0-2.7,0.3-4,0.9c-1.2,0.6-2.1,1.3-2.7,2.2c-0.1,0.1-0.2,0.2-0.3,0.4c-0.1,0.1-0.2,0.3-0.2,0.4
			c-0.6,1-1,2.1-1.2,3.3c-0.2,1.2-0.3,3.2-0.3,5.8c0,2.7,0.1,4.6,0.3,5.9c0.2,1.2,0.6,2.3,1.2,3.3c0.1,0.1,0.1,0.2,0.2,0.4
			c0.1,0.1,0.2,0.3,0.3,0.4c0.6,0.9,1.5,1.6,2.7,2.2c1.2,0.6,2.6,0.9,4,0.9c1.4,0,2.7-0.3,4-0.9c1.2-0.6,2.1-1.3,2.7-2.2
			c0.1-0.1,0.2-0.2,0.3-0.4c0.1-0.1,0.2-0.3,0.2-0.4c0.6-1,1-2.1,1.2-3.3c0.2-1.2,0.3-3.2,0.3-5.8
			C3355.1,1229.3,3355,1227.4,3354.8,1226.1z"/>
		<path id="XMLID_93_" fill="#223B44" d="M3374.3,1211.2h8.4v4.3c1.3-1.4,2.9-2.6,4.8-3.5c1.9-0.9,3.9-1.4,6-1.4
			c2.6,0,4.8,0.5,6.6,1.5c1.8,1,3.3,2.3,4.6,3.9c0.1,0.1,0.1,0.1,0.1,0.2c0,0.1,0.1,0.1,0.1,0.1c1,1.4,1.7,3.1,2.1,5.2
			c0.4,2,0.6,5.5,0.6,10.5c0,4.9-0.2,8.4-0.6,10.4c-0.4,2-1.1,3.7-2.1,5.2c-0.1,0-0.1,0-0.1,0.1c0,0.1-0.1,0.1-0.1,0.2
			c-1.2,1.5-2.7,2.8-4.6,3.8c-1.8,1-4,1.5-6.6,1.5c-2.1,0-4.1-0.4-5.8-1.3c-1.7-0.9-3.4-2-5-3.5v21.2h-8.4V1211.2z M3397.9,1240.9
			c0.8-2.6,1.2-5.5,1.2-8.7c0-0.1,0-0.1,0-0.1c0,0,0-0.1,0-0.1c0-3.2-0.4-6.2-1.2-8.9c-0.8-2.7-3.2-4.1-7.1-4.1
			c-3.5,0-5.7,1.1-6.6,3.4c-0.9,2.3-1.4,4.8-1.6,7.5c0,0.3,0,0.7,0,1c0,0.3,0,0.7,0,1s0,0.7,0,1s0,0.7,0,1.1
			c0.1,2.7,0.6,5.1,1.6,7.4c1,2.2,3.2,3.4,6.6,3.4C3394.8,1244.9,3397.1,1243.6,3397.9,1240.9z"/>
	</g>
	<g id="XMLID_59_">
		<path id="XMLID_60_" fill="#223B44" d="M486.7,1211.2h8.4v4.4h0.2c1.3-1.6,2.9-2.9,4.8-3.7c1.9-0.8,3.9-1.2,6.1-1.2
			c2.9,0,5.2,0.5,6.9,1.6c1.7,1,3.3,2.3,4.8,3.9c1.7-1.9,3.7-3.3,5.7-4.1c2.1-0.8,4.5-1.3,7.4-1.3c0.3,0,0.7,0,1.1,0
			c0.4,0,0.7,0.1,1.1,0.1c3,0.5,5.6,1.9,8.1,4.3c2.4,2.4,3.6,5.7,3.6,9.9v27.6h-8.4V1228c0-2.8-0.8-5-2.3-6.6
			c-1.6-1.6-3.5-2.3-5.9-2.3c-2.4,0-4.3,0.8-5.9,2.3c-1.6,1.6-2.4,3.8-2.4,6.6v24.8h-8.4V1228c0-2.8-0.8-5-2.3-6.6
			c-1.6-1.6-3.5-2.3-5.9-2.3c-2.4,0-4.3,0.8-5.9,2.3c-1.6,1.6-2.4,3.8-2.4,6.6v24.8h-8.4V1211.2z"/>
		<path id="XMLID_62_" fill="#223B44" d="M557.1,1222c0.7-2.2,1.8-4.1,3.3-5.9c0.1-0.1,0.1-0.1,0.2-0.2c0.1-0.1,0.2-0.2,0.3-0.3
			c0.1-0.1,0.2-0.2,0.3-0.3c1.2-1.1,2.8-2.2,4.7-3.2c1.9-1,4.4-1.5,7.3-1.5s5.4,0.5,7.3,1.5c1.9,1,3.5,2,4.7,3.2
			c0.1,0.1,0.2,0.2,0.3,0.3c0.1,0.1,0.2,0.2,0.3,0.3c0.1,0.1,0.1,0.1,0.2,0.2c1.5,1.8,2.6,3.7,3.3,5.9c0.7,2.2,1,5.5,1,9.9
			s-0.3,7.7-1,9.9c-0.7,2.2-1.8,4.2-3.3,5.9c-0.1,0.1-0.1,0.1-0.2,0.2c-0.1,0.1-0.2,0.2-0.3,0.3c-0.1,0.1-0.2,0.2-0.3,0.3
			c-1.2,1.1-2.8,2.2-4.7,3.2c-1.9,1-4.4,1.4-7.3,1.4s-5.4-0.5-7.3-1.4c-1.9-1-3.5-2-4.7-3.2c-0.1-0.1-0.2-0.2-0.3-0.3
			c-0.1-0.1-0.2-0.2-0.3-0.3c-0.1-0.1-0.1-0.1-0.2-0.2c-1.5-1.7-2.6-3.7-3.3-5.9c-0.7-2.2-1-5.5-1-9.9S556.5,1224.2,557.1,1222z
			 M581.7,1226.1c-0.2-1.2-0.6-2.3-1.2-3.3c-0.1-0.1-0.1-0.2-0.2-0.4c-0.1-0.1-0.2-0.3-0.3-0.4c-0.6-0.9-1.5-1.6-2.7-2.2
			c-1.2-0.6-2.6-0.9-4-0.9c-1.4,0-2.7,0.3-4,0.9c-1.2,0.6-2.1,1.3-2.7,2.2c-0.1,0.1-0.2,0.2-0.3,0.4c-0.1,0.1-0.2,0.3-0.2,0.4
			c-0.6,1-1,2.1-1.2,3.3c-0.2,1.2-0.3,3.2-0.3,5.8c0,2.7,0.1,4.6,0.3,5.9c0.2,1.2,0.6,2.3,1.2,3.3c0.1,0.1,0.1,0.2,0.2,0.4
			c0.1,0.1,0.2,0.3,0.3,0.4c0.6,0.9,1.5,1.6,2.7,2.2c1.2,0.6,2.6,0.9,4,0.9c1.4,0,2.7-0.3,4-0.9c1.2-0.6,2.1-1.3,2.7-2.2
			c0.1-0.1,0.2-0.2,0.3-0.4c0.1-0.1,0.2-0.3,0.2-0.4c0.6-1,1-2.1,1.2-3.3c0.2-1.2,0.3-3.2,0.3-5.8
			C582,1229.3,581.9,1227.4,581.7,1226.1z"/>
		<path id="XMLID_65_" fill="#223B44" d="M601.2,1194.4h8.4v21.2c1.6-1.5,3.2-2.7,5-3.6c1.7-0.9,3.6-1.4,5.8-1.4
			c2.6,0,4.8,0.5,6.6,1.5c1.8,1,3.3,2.3,4.6,3.9c0.1,0.1,0.1,0.1,0.1,0.2c0,0.1,0.1,0.1,0.1,0.1c1,1.5,1.7,3.2,2.1,5.2
			c0.4,2,0.6,5.5,0.6,10.4c0,5-0.2,8.5-0.6,10.5c-0.4,2-1.1,3.7-2.1,5.2c-0.1,0-0.1,0-0.1,0.1c0,0.1-0.1,0.1-0.1,0.2
			c-1.2,1.5-2.7,2.8-4.6,3.8c-1.8,1-4,1.5-6.6,1.5c-2.1,0-4.1-0.4-6-1.3c-1.9-0.9-3.4-2-4.8-3.4v4.3h-8.4V1194.4z M611.2,1222.4
			c-1,2.2-1.5,4.7-1.6,7.4c0,0.4,0,0.8,0,1.1s0,0.7,0,1s0,0.7,0,1s0,0.7,0,1c0.1,2.7,0.6,5.2,1.6,7.5c0.9,2.3,3.1,3.4,6.6,3.4
			c3.9,0,6.3-1.4,7.1-4.1c0.8-2.7,1.2-5.7,1.2-8.9c0-0.1,0-0.1,0-0.1c0,0,0-0.1,0-0.1c0-3.2-0.4-6.1-1.2-8.7
			c-0.8-2.6-3.2-3.9-7.1-3.9C614.3,1219,612.1,1220.2,611.2,1222.4z"/>
		<path id="XMLID_68_" fill="#223B44" d="M646.1,1194.4h8.4v8.4h-8.4V1194.4z M646.1,1211.2h8.4v41.6h-8.4V1211.2z"/>
		<path id="XMLID_71_" fill="#223B44" d="M667.5,1194.4h8.4v47.6c0,0.9,0.3,1.6,0.8,2.1c0.5,0.5,1.3,0.7,2.3,0.7h2.9v7.9h-3.7
			c-3,0-5.5-0.8-7.6-2.3c-2.1-1.5-3.1-4.1-3.1-7.8V1194.4z"/>
		<path id="XMLID_73_" fill="#223B44" d="M697.1,1235.1c0,3.4,0.9,5.9,2.8,7.7c1.9,1.7,4.3,2.6,7.1,2.6c0.3,0,0.7,0,1,0
			c0.3,0,0.7-0.1,1-0.1c1.3-0.2,2.5-0.7,3.8-1.3c1.3-0.7,2.4-1.5,3.4-2.5l6.1,5.2c-2,2.4-4.3,4-6.9,5.1c-2.6,1-5.3,1.6-8.1,1.6
			c-0.5,0-1.1,0-1.6,0c-0.5,0-1.1-0.1-1.6-0.1c-3.8-0.5-7.3-2.2-10.5-5.2c-3.2-3-4.8-8.2-4.8-15.7c0-7.2,1.5-12.4,4.6-15.6
			s6.4-5.1,10-5.6c0.4-0.1,0.9-0.1,1.3-0.1c0.4,0,0.8,0,1.3,0c4.6,0,8.6,1.6,12,4.8c3.4,3.2,5.1,7.4,5.1,12.8v6.9H697.1z
			 M714.6,1228.2c-0.1-3.2-1-5.6-2.6-7.2c-1.6-1.6-3.7-2.5-6.2-2.5s-4.5,0.8-6.2,2.5c-1.6,1.6-2.5,4-2.6,7.2H714.6z"/>
	</g>
	<g id="XMLID_25_">
		<path id="XMLID_26_" fill="#223B44" d="M1626.3,132.1c0.3-2.2,0.8-4,1.5-5.4c0.1-0.2,0.2-0.4,0.3-0.6c0.1-0.2,0.2-0.4,0.3-0.6
			c0.1-0.2,0.1-0.3,0.2-0.5c0.1-0.1,0.2-0.3,0.2-0.5c1.5-2.4,3.8-4.6,6.8-6.6c3-2,6.7-3,11-3c4.3,0,8,1,11,3c3,2,5.3,4.2,6.8,6.6
			c0.1,0.2,0.1,0.3,0.2,0.5c0.1,0.1,0.2,0.3,0.2,0.5c0.1,0.2,0.2,0.4,0.3,0.6c0.1,0.2,0.2,0.4,0.3,0.6c0.7,1.4,1.2,3.2,1.5,5.4
			c0.3,2.2,0.4,6.4,0.4,12.5c0,6.1-0.1,10.3-0.4,12.5c-0.3,2.2-0.8,4-1.5,5.5c-0.1,0.2-0.2,0.4-0.3,0.6c-0.1,0.2-0.2,0.4-0.3,0.6
			c-0.1,0.2-0.1,0.3-0.2,0.5c-0.1,0.1-0.2,0.3-0.2,0.5c-1.5,2.4-3.8,4.6-6.8,6.6c-3,2-6.7,3-11,3c-4.3,0-8-1-11-3
			c-3-2-5.3-4.2-6.8-6.6c-0.1-0.2-0.1-0.3-0.2-0.5c-0.1-0.1-0.2-0.3-0.2-0.5c-0.1-0.2-0.2-0.4-0.3-0.6c-0.1-0.2-0.2-0.4-0.3-0.6
			c-0.7-1.4-1.2-3.2-1.5-5.5c-0.3-2.2-0.4-6.4-0.4-12.5C1625.9,138.5,1626,134.3,1626.3,132.1z M1635.2,155.5
			c0.3,1.9,0.9,3.5,1.7,4.8c0.1,0.2,0.2,0.3,0.4,0.5c0.1,0.2,0.3,0.3,0.4,0.5c0.9,1.1,2.1,2.1,3.6,3c1.5,0.8,3.3,1.3,5.4,1.3
			c2.1,0,3.9-0.4,5.4-1.3c1.5-0.8,2.7-1.8,3.6-3c0.1-0.2,0.2-0.3,0.4-0.5c0.1-0.2,0.3-0.3,0.4-0.5c0.8-1.3,1.4-2.8,1.7-4.8
			c0.3-1.9,0.5-5.5,0.5-10.8c0-5.3-0.2-8.9-0.5-10.8c-0.3-1.9-0.9-3.5-1.7-4.8c-0.1-0.2-0.2-0.3-0.4-0.5c-0.1-0.2-0.3-0.3-0.4-0.5
			c-0.9-1.1-2.1-2.1-3.6-3c-1.5-0.8-3.3-1.3-5.4-1.3c-2.1,0-3.9,0.4-5.4,1.3c-1.5,0.8-2.7,1.8-3.6,3c-0.1,0.2-0.2,0.3-0.4,0.5
			c-0.1,0.2-0.3,0.3-0.4,0.5c-0.8,1.3-1.4,2.8-1.7,4.8c-0.3,1.9-0.5,5.5-0.5,10.8C1634.7,150,1634.9,153.6,1635.2,155.5z"/>
		<path id="XMLID_29_" fill="#223B44" d="M1679.2,132.3h8.4v4.4h0.2c1.3-1.6,2.9-2.9,4.8-3.7c1.9-0.8,3.9-1.2,6.1-1.2
			c0.3,0,0.7,0,1.1,0c0.4,0,0.7,0.1,1.1,0.1c3,0.5,5.6,1.9,8.1,4.3c2.4,2.4,3.6,5.7,3.6,9.9v27.6h-8.4v-24.8c0-2.8-0.8-5-2.3-6.6
			c-1.6-1.6-3.5-2.3-5.9-2.3s-4.3,0.8-5.9,2.3c-1.6,1.6-2.4,3.8-2.4,6.6v24.8h-8.4V132.3z"/>
		<path id="XMLID_31_" fill="#223B44" d="M1725.2,115.5h8.4v47.6c0,0.9,0.3,1.6,0.8,2.1c0.5,0.5,1.3,0.7,2.3,0.7h2.9v7.9h-3.7
			c-3,0-5.5-0.8-7.6-2.3c-2.1-1.5-3.1-4.1-3.1-7.8V115.5z"/>
		<path id="XMLID_33_" fill="#223B44" d="M1748.7,115.5h8.4v8.4h-8.4V115.5z M1748.7,132.3h8.4v41.6h-8.4V132.3z"/>
		<path id="XMLID_36_" fill="#223B44" d="M1770.2,132.3h8.4v4.4h0.2c1.3-1.6,2.9-2.9,4.8-3.7c1.9-0.8,3.9-1.2,6.1-1.2
			c0.3,0,0.7,0,1.1,0c0.4,0,0.7,0.1,1.1,0.1c3,0.5,5.6,1.9,8.1,4.3c2.4,2.4,3.6,5.7,3.6,9.9v27.6h-8.4v-24.8c0-2.8-0.8-5-2.3-6.6
			c-1.6-1.6-3.5-2.3-5.9-2.3s-4.3,0.8-5.9,2.3c-1.6,1.6-2.4,3.8-2.4,6.6v24.8h-8.4V132.3z"/>
		<path id="XMLID_38_" fill="#223B44" d="M1822.6,156.2c0,3.4,0.9,5.9,2.8,7.7c1.9,1.7,4.3,2.6,7.1,2.6c0.3,0,0.7,0,1,0
			c0.3,0,0.7-0.1,1-0.1c1.3-0.2,2.5-0.7,3.8-1.3c1.3-0.7,2.4-1.5,3.4-2.5l6.1,5.2c-2,2.4-4.3,4-6.9,5.1c-2.6,1-5.3,1.6-8.1,1.6
			c-0.5,0-1.1,0-1.6,0c-0.5,0-1.1-0.1-1.6-0.1c-3.8-0.5-7.3-2.2-10.5-5.2c-3.2-3-4.8-8.2-4.8-15.7c0-7.2,1.5-12.4,4.6-15.6
			s6.4-5.1,10-5.6c0.4-0.1,0.9-0.1,1.3-0.1c0.4,0,0.8,0,1.3,0c4.6,0,8.6,1.6,12,4.8c3.4,3.2,5.1,7.4,5.1,12.8v6.9H1822.6z
			 M1840.1,149.3c-0.1-3.2-1-5.6-2.6-7.2c-1.6-1.6-3.7-2.5-6.2-2.5s-4.5,0.8-6.2,2.5c-1.6,1.6-2.5,4-2.6,7.2H1840.1z"/>
		<path id="XMLID_41_" fill="#223B44" d="M1881,115.5h8.4v21.2c1.6-1.5,3.2-2.7,5-3.6c1.7-0.9,3.6-1.4,5.8-1.4
			c2.6,0,4.8,0.5,6.6,1.5c1.8,1,3.3,2.3,4.6,3.9c0.1,0.1,0.1,0.1,0.1,0.2c0,0.1,0.1,0.1,0.1,0.1c1,1.5,1.7,3.2,2.1,5.2
			c0.4,2,0.6,5.5,0.6,10.4c0,5-0.2,8.5-0.6,10.5c-0.4,2-1.1,3.7-2.1,5.2c-0.1,0-0.1,0-0.1,0.1c0,0.1-0.1,0.1-0.1,0.2
			c-1.2,1.5-2.7,2.8-4.6,3.8c-1.8,1-4,1.5-6.6,1.5c-2.1,0-4.1-0.4-6-1.3c-1.9-0.9-3.4-2-4.8-3.4v4.3h-8.4V115.5z M1891,143.5
			c-1,2.2-1.5,4.7-1.6,7.4c0,0.4,0,0.8,0,1.1s0,0.7,0,1s0,0.7,0,1s0,0.7,0,1c0.1,2.7,0.6,5.2,1.6,7.5c0.9,2.3,3.1,3.4,6.6,3.4
			c3.9,0,6.3-1.4,7.1-4.1c0.8-2.7,1.2-5.7,1.2-8.9c0-0.1,0-0.1,0-0.1c0,0,0-0.1,0-0.1c0-3.2-0.4-6.1-1.2-8.7
			c-0.8-2.6-3.2-3.9-7.1-3.9C1894.2,140.1,1892,141.3,1891,143.5z"/>
		<path id="XMLID_44_" fill="#223B44" d="M1947.5,170.2h-0.2c-0.9,1.4-2.1,2.5-3.6,3.1c-1.6,0.7-3.8,1-6.6,1
			c-4.6,0-8.3-1.2-10.8-3.6c-2.6-2.4-3.9-5.4-3.9-9c0-3.3,1.1-6.2,3.4-8.7c2.3-2.4,5.6-3.6,10.1-3.6h11.6V145c0-2-0.7-3.3-2-4.1
			c-1.3-0.8-3.5-1.2-6.5-1.2c-2.2,0-3.9,0.2-5,0.7c-1.1,0.5-2.1,1.3-2.9,2.5l-6.6-5c1.6-2.2,3.5-3.8,5.9-4.7c2.3-0.9,5-1.4,8.2-1.4
			c5.1,0,9.3,1,12.5,3c3.2,2,4.8,5.6,4.8,10.7v28.4h-8.4V170.2z M1947.5,156.2h-10c-2.5,0-4.3,0.5-5.5,1.4c-1.2,0.9-1.8,2.1-1.8,3.6
			c0,1.4,0.6,2.6,1.8,3.6c1.2,1.1,3.2,1.6,6.1,1.6c3.5,0,5.9-0.4,7.3-1.2c1.4-0.8,2-2.8,2-6V156.2z"/>
		<path id="XMLID_47_" fill="#223B44" d="M1968.7,132.3h8.4v4.4h0.2c1.3-1.6,2.9-2.9,4.8-3.7c1.9-0.8,3.9-1.2,6.1-1.2
			c0.3,0,0.7,0,1.1,0c0.4,0,0.7,0.1,1.1,0.1c3,0.5,5.6,1.9,8.1,4.3c2.4,2.4,3.6,5.7,3.6,9.9v27.6h-8.4v-24.8c0-2.8-0.8-5-2.3-6.6
			c-1.6-1.6-3.5-2.3-5.9-2.3s-4.3,0.8-5.9,2.3c-1.6,1.6-2.4,3.8-2.4,6.6v24.8h-8.4V132.3z"/>
		<path id="XMLID_49_" fill="#223B44" d="M2014.8,115.5h8.4v36.3h0.2l16-19.5h10l-14.3,16.2l16.3,25.3h-10.5l-11.1-19.4l-6.6,7.5v12
			h-8.4V115.5z"/>
		<path id="XMLID_51_" fill="#223B44" d="M2059.6,115.5h8.4v8.4h-8.4V115.5z M2059.6,132.3h8.4v41.6h-8.4V132.3z"/>
		<path id="XMLID_54_" fill="#223B44" d="M2081.1,132.3h8.4v4.4h0.2c1.3-1.6,2.9-2.9,4.8-3.7c1.9-0.8,3.9-1.2,6.1-1.2
			c0.3,0,0.7,0,1.1,0c0.4,0,0.7,0.1,1.1,0.1c3,0.5,5.6,1.9,8.1,4.3c2.4,2.4,3.6,5.7,3.6,9.9v27.6h-8.4v-24.8c0-2.8-0.8-5-2.3-6.6
			c-1.6-1.6-3.5-2.3-5.9-2.3s-4.3,0.8-5.9,2.3c-1.6,1.6-2.4,3.8-2.4,6.6v24.8h-8.4V132.3z"/>
		<path id="XMLID_56_" fill="#223B44" d="M2150.6,169.6c-1.3,1.4-2.9,2.6-4.8,3.4c-1.9,0.9-3.9,1.3-6,1.3c-2.4,0-4.5-0.4-6.2-1.3
			c-1.7-0.9-3.1-1.9-4.1-3c-0.1-0.1-0.2-0.2-0.3-0.4c-0.1-0.1-0.2-0.3-0.3-0.4c-0.2-0.2-0.3-0.4-0.5-0.6c-0.1-0.2-0.3-0.4-0.5-0.6
			c-0.8-1.3-1.4-2.8-1.7-4.7s-0.5-5.3-0.5-10.3c0-5,0.2-8.5,0.5-10.4c0.3-1.9,0.9-3.4,1.7-4.7c0.2-0.2,0.3-0.4,0.5-0.6
			c0.1-0.2,0.3-0.4,0.5-0.6c0.1-0.1,0.2-0.2,0.3-0.4c0.1-0.1,0.2-0.3,0.3-0.4c1-1.1,2.4-2.1,4.1-3c1.7-0.9,3.8-1.4,6.2-1.4
			c2.1,0,4.1,0.4,5.8,1.2c1.7,0.8,3.4,2,4.9,3.7v-4.4h8.4v40.7c0,6.2-1.8,10.8-5.5,13.7c-3.6,2.9-7.8,4.4-12.6,4.4
			c-0.1,0-0.2,0-0.4,0c-0.1,0-0.3,0-0.4,0c-2.5-0.1-5-0.8-7.4-2c-2.4-1.3-4.5-2.9-6.3-4.9l6.5-5.1c1,1,2.3,1.8,3.6,2.6
			c1.4,0.7,2.9,1.1,4.5,1.1c2.8,0,5.1-0.8,6.8-2.3c1.8-1.5,2.7-3.7,2.7-6.5V169.6z M2134.3,159.3c0.1,1.1,0.5,2.1,0.9,2.9
			c0.1,0.1,0.2,0.2,0.2,0.3c0.1,0.1,0.1,0.2,0.2,0.3c0.1,0.1,0.1,0.2,0.2,0.3c0.1,0.1,0.2,0.2,0.3,0.3c0.6,0.7,1.4,1.3,2.4,1.8
			c1,0.5,2.3,0.8,3.7,0.8c1.4,0,2.6-0.3,3.6-0.8c1-0.5,1.8-1.1,2.4-1.8c0.1-0.1,0.2-0.2,0.3-0.3c0.1-0.1,0.2-0.2,0.2-0.3
			c0.1-0.1,0.2-0.2,0.2-0.3c0.1-0.1,0.1-0.2,0.2-0.3c0.5-0.8,0.8-1.7,0.9-2.9c0.1-1.1,0.2-3.2,0.2-6.2s-0.1-5-0.2-6.2
			c-0.1-1.2-0.5-2.1-0.9-2.9c-0.1-0.1-0.2-0.2-0.2-0.3c-0.1-0.1-0.1-0.2-0.2-0.3c-0.1-0.1-0.1-0.2-0.2-0.3c-0.1-0.1-0.2-0.2-0.3-0.3
			c-0.6-0.7-1.4-1.3-2.4-1.8c-1-0.5-2.2-0.8-3.6-0.8c-1.5,0-2.7,0.3-3.7,0.8c-1,0.5-1.8,1.1-2.4,1.8c-0.1,0.1-0.2,0.2-0.3,0.3
			c-0.1,0.1-0.2,0.2-0.2,0.3c-0.1,0.1-0.2,0.2-0.2,0.3c-0.1,0.1-0.1,0.2-0.2,0.3c-0.5,0.8-0.8,1.7-0.9,2.9c-0.1,1.2-0.2,3.2-0.2,6.2
			S2134.2,158.1,2134.3,159.3z"/>
	</g>
	<g id="XMLID_14_">
		<path id="XMLID_15_" fill="#3A3C3F" d="M2240,823.9l-16.2,11.8v-17.3l16.2-11.8h16.3v113.9H2240V823.9z"/>
		<path id="XMLID_17_" fill="#3A3C3F" d="M2297.7,806.6h60.6V823h-45.3v25.8c2.8-2.1,5.6-3.7,8.6-4.7c2.9-1,6.2-1.5,9.7-1.5
			c4.4,0,8.3,0.8,11.9,2.5c3.6,1.7,6.4,3.6,8.4,5.8c0.2,0.2,0.5,0.5,0.7,0.7c0.3,0.3,0.5,0.6,0.7,0.9c2.6,3,4.5,6.5,5.7,10.5
			c1.2,4,1.8,10.4,1.8,19.1c0,7.4-0.5,12.9-1.5,16.6c-1,3.7-2.7,7.1-5,10.1c-0.1,0.1-0.2,0.2-0.2,0.3c-0.1,0.1-0.1,0.2-0.2,0.3
			c-0.1,0.1-0.2,0.2-0.3,0.4c-0.1,0.2-0.2,0.3-0.3,0.4c-2.5,2.9-5.7,5.5-9.8,7.8c-4.1,2.3-8.8,3.4-14.2,3.4c-0.7,0-1.5,0-2.2-0.1
			c-0.7-0.1-1.4-0.1-2-0.1c-6.7-0.6-13-3.3-18.8-7.9c-5.8-4.6-9.3-11.8-10.3-21.4h16.3c0.9,4.1,2.6,7.3,5.4,9.7
			c2.7,2.4,6.4,3.6,11,3.6c6.5,0,10.7-1.9,12.6-5.8s3-8.1,3.2-12.6c0.1-1.1,0.2-2.1,0.2-3.1c0-1,0-2,0-3c0-6.3-1.1-11.5-3.2-15.7
			c-2.1-4.2-6.6-6.2-13.3-6.2c-3.1,0-5.8,0.7-8.2,2.2c-2.4,1.4-4.6,3.9-6.5,7.3h-15.4V806.6z"/>
		<path id="XMLID_19_" fill="#3A3C3F" d="M2378.7,821.5c0-5.7,1.5-9.7,4.6-12.2c3.1-2.5,6.6-3.7,10.4-3.7s7.3,1.2,10.4,3.7
			c3.1,2.5,4.6,6.5,4.6,12.2v10.9c0,5.5-1.5,9.6-4.6,12.1c-3.1,2.5-6.6,3.8-10.4,3.8s-7.3-1.3-10.4-3.8c-3.1-2.5-4.6-6.5-4.6-12.1
			V821.5z M2433.7,806.6h10.6l-53.9,113.9h-10.6L2433.7,806.6z M2387.8,831.3c0,2.6,0.5,4.5,1.5,5.8c1,1.3,2.5,2,4.4,2
			s3.4-0.7,4.4-2c1-1.3,1.5-3.3,1.5-5.8v-8.6c0-2.6-0.5-4.5-1.5-5.8c-1-1.3-2.5-2-4.4-2s-3.4,0.7-4.4,2c-1,1.3-1.5,3.3-1.5,5.8
			V831.3z M2415.3,894.8c0-5.7,1.5-9.7,4.6-12.2c3.1-2.5,6.6-3.7,10.4-3.7s7.3,1.2,10.4,3.7c3.1,2.5,4.6,6.5,4.6,12.2v10.9
			c0,5.5-1.5,9.5-4.6,12c-3.1,2.5-6.6,3.7-10.4,3.7s-7.3-1.2-10.4-3.7c-3.1-2.5-4.6-6.5-4.6-12V894.8z M2424.4,904.6
			c0,2.6,0.5,4.5,1.5,5.8c1,1.3,2.5,2,4.4,2s3.4-0.7,4.4-2c1-1.3,1.5-3.3,1.5-5.8v-8.6c0-2.6-0.5-4.5-1.5-5.8c-1-1.3-2.5-2-4.4-2
			s-3.4,0.7-4.4,2c-1,1.3-1.5,3.3-1.5,5.8V904.6z"/>
	</g>
	<g id="XMLID_1_">
		<path id="XMLID_2_" fill="#ECEDED" d="M1516.1,872.6c2.3-4.4,5.7-8.1,9.9-11c-3.3-3.1-6-6.5-8.2-10.2c-2.1-3.7-3.2-8-3.2-12.9
			c0-9.2,3.1-17,9.4-23.4c6.3-6.4,14-9.6,23.2-9.6c9.2,0,16.9,3.2,23.2,9.6c6.3,6.4,9.4,14.2,9.4,23.4c0,4.9-1,9.2-3.1,12.9
			s-4.8,7.1-8.2,10.2c4.4,2.9,7.7,6.5,10,11c2.3,4.4,3.4,9.3,3.4,14.6c0,10-3.4,18.2-10.2,24.6c-6.8,6.3-15,9.5-24.5,9.5
			c-9.4,0-17.5-3.2-24.4-9.5c-6.9-6.3-10.3-14.5-10.3-24.6C1512.6,882,1513.8,877.1,1516.1,872.6z M1534.5,900.1
			c3.7,3.4,8,5.1,12.9,5.1c4.9,0,9.2-1.7,12.9-5.1c3.7-3.4,5.5-7.7,5.5-13c0-5.2-1.8-9.5-5.5-13c-3.7-3.4-8-5.1-12.9-5.1
			c-4.9,0-9.2,1.7-12.9,5.1c-3.7,3.4-5.5,7.7-5.5,13C1528.9,892.4,1530.8,896.7,1534.5,900.1z M1536.1,850.5
			c3.4,2.8,7.1,4.2,11.3,4.2c4.2,0,7.9-1.4,11.3-4.2c3.4-2.8,5-6.8,5-12.2c0-5.3-1.7-9.4-5-12.2c-3.4-2.8-7.1-4.2-11.3-4.2
			c-4.2,0-7.9,1.4-11.3,4.2c-3.4,2.8-5,6.8-5,12.2C1531,843.7,1532.7,847.7,1536.1,850.5z"/>
		<path id="XMLID_6_" fill="#ECEDED" d="M1597.7,806.6h60.6V823h-45.3v25.8c2.8-2.1,5.6-3.7,8.6-4.7c2.9-1,6.2-1.5,9.7-1.5
			c4.4,0,8.3,0.8,11.9,2.5c3.6,1.7,6.4,3.6,8.4,5.8c0.2,0.2,0.5,0.5,0.7,0.7c0.3,0.3,0.5,0.6,0.7,0.9c2.6,3,4.5,6.5,5.7,10.5
			c1.2,4,1.8,10.4,1.8,19.1c0,7.4-0.5,12.9-1.5,16.6c-1,3.7-2.7,7.1-5,10.1c-0.1,0.1-0.2,0.2-0.2,0.3c-0.1,0.1-0.1,0.2-0.2,0.3
			c-0.1,0.1-0.2,0.2-0.3,0.4c-0.1,0.2-0.2,0.3-0.3,0.4c-2.5,2.9-5.7,5.5-9.8,7.8c-4.1,2.3-8.8,3.4-14.2,3.4c-0.7,0-1.5,0-2.2-0.1
			c-0.7-0.1-1.4-0.1-2-0.1c-6.7-0.6-13-3.3-18.8-7.9c-5.8-4.6-9.3-11.8-10.3-21.4h16.3c0.9,4.1,2.6,7.3,5.4,9.7
			c2.7,2.4,6.4,3.6,11,3.6c6.5,0,10.7-1.9,12.6-5.8s3-8.1,3.2-12.6c0.1-1.1,0.2-2.1,0.2-3.1c0-1,0-2,0-3c0-6.3-1.1-11.5-3.2-15.7
			c-2.1-4.2-6.6-6.2-13.3-6.2c-3.1,0-5.8,0.7-8.2,2.2c-2.4,1.4-4.6,3.9-6.5,7.3h-15.4V806.6z"/>
		<path id="XMLID_8_" fill="#ECEDED" d="M1678.7,821.5c0-5.7,1.5-9.7,4.6-12.2c3.1-2.5,6.6-3.7,10.4-3.7s7.3,1.2,10.4,3.7
			c3.1,2.5,4.6,6.5,4.6,12.2v10.9c0,5.5-1.5,9.6-4.6,12.1c-3.1,2.5-6.6,3.8-10.4,3.8s-7.3-1.3-10.4-3.8c-3.1-2.5-4.6-6.5-4.6-12.1
			V821.5z M1733.7,806.6h10.6l-53.9,113.9h-10.6L1733.7,806.6z M1687.8,831.3c0,2.6,0.5,4.5,1.5,5.8c1,1.3,2.5,2,4.4,2
			s3.4-0.7,4.4-2c1-1.3,1.5-3.3,1.5-5.8v-8.6c0-2.6-0.5-4.5-1.5-5.8c-1-1.3-2.5-2-4.4-2s-3.4,0.7-4.4,2c-1,1.3-1.5,3.3-1.5,5.8
			V831.3z M1715.3,894.8c0-5.7,1.5-9.7,4.6-12.2c3.1-2.5,6.6-3.7,10.4-3.7s7.3,1.2,10.4,3.7c3.1,2.5,4.6,6.5,4.6,12.2v10.9
			c0,5.5-1.5,9.5-4.6,12c-3.1,2.5-6.6,3.7-10.4,3.7s-7.3-1.2-10.4-3.7c-3.1-2.5-4.6-6.5-4.6-12V894.8z M1724.5,904.6
			c0,2.6,0.5,4.5,1.5,5.8c1,1.3,2.5,2,4.4,2s3.4-0.7,4.4-2c1-1.3,1.5-3.3,1.5-5.8v-8.6c0-2.6-0.5-4.5-1.5-5.8c-1-1.3-2.5-2-4.4-2
			s-3.4,0.7-4.4,2c-1,1.3-1.5,3.3-1.5,5.8V904.6z"/>
	</g>
</g>
</svg>
