<?xml version="1.0" encoding="utf-8"?>
<!-- Generator: Adobe Illustrator 19.0.0, SVG Export Plug-In . SVG Version: 6.00 Build 0)  -->
<svg version="1.2" baseProfile="tiny" xmlns="http://www.w3.org/2000/svg" xmlns:xlink="http://www.w3.org/1999/xlink" x="0px"
	 y="0px" width="3812.2px" height="1741.6px" viewBox="0 0 3812.2 1741.6" xml:space="preserve">
<g id="achterWebsite">
	<rect id="XMLID_608_" x="0" y="0" fill="#C2DF8A" width="3812.2" height="1739.5"/>
</g>
<g id="Laag_1">
</g>
<g id="picture1">
</g>
<g id="nrs">
	<g id="XMLID_2268_">
		<path id="XMLID_2382_" fill="#1D1C20" d="M3614.1,879.5h-686.6V484.4c0-17.7,14.4-32.1,32.1-32.1H3582c17.7,0,32.1,14.4,32.1,32.1
			V879.5z"/>
		<polygon id="XMLID_2381_" fill="#E0E1E2" points="3576.5,489.9 3576.5,746.1 3000,489.9 		"/>
		<polygon id="XMLID_2380_" fill="#FFFFFF" points="3576.5,746.1 3576.5,878.4 3406.6,878.4 2965,682.1 2965,489.9 3000,489.9 		"/>
		<polygon id="XMLID_2379_" fill="#E0E1E2" points="3406.6,878.4 2965,878.4 2965,682.1 		"/>
		<path id="XMLID_2378_" fill="#1D1C20" d="M3614.1,879.5h-686.6l-103.6,253.4c-7.7,18.5,5.9,38.9,26,38.9h197.3h447.2h197.3
			c20.1,0,33.7-20.4,26-38.9L3614.1,879.5z"/>
		<polygon id="XMLID_2346_" fill="#FFFFFF" points="3576.5,906.5 2965,906.5 2916.9,1022.7 3366.5,1022.7 3546.2,1022.7 
			3624.6,1022.7 		"/>
		<polygon id="XMLID_2332_" fill="#FFFFFF" points="3347.1,1050.9 3194.5,1050.9 3172,1105 3369.5,1105 		"/>
		<polygon id="XMLID_2329_" fill="#1D1C20" points="3557.7,1133.2 3519.6,1133.2 3414.5,879.5 3452.6,879.5 		"/>
		
			<line id="XMLID_2304_" fill="none" stroke="#FFFFFF" stroke-width="14.651" stroke-linecap="round" stroke-linejoin="round" stroke-miterlimit="10" x1="2854.3" y1="1142" x2="3687.3" y2="1142"/>
		<rect id="XMLID_2281_" x="3461.1" y="937.6" fill="#1D1C20" width="158.3" height="27"/>
	</g>
	
		<line id="XMLID_2199_" fill="none" stroke="#1D1C20" stroke-width="8" stroke-linecap="round" stroke-linejoin="round" stroke-miterlimit="10" x1="1009.1" y1="951.2" x2="1422.4" y2="951.2"/>
	
		<line id="XMLID_2198_" fill="none" stroke="#1D1C20" stroke-width="8" stroke-linecap="round" stroke-linejoin="round" stroke-miterlimit="10" x1="2503.8" y1="951.2" x2="2795.2" y2="951.2"/>
	<path id="XMLID_2197_" fill="#ECEDED" d="M2494.2,656.1c89.7,165.2,94.9,363.4,14,533.1l-530.1-252.8L2494.2,656.1z"/>
	<path id="XMLID_2196_" fill="#767A7E" d="M2437.7,1191c-139.6,292.8-490.2,416.9-782.9,277.2c-292.8-139.6-416.9-490.2-277.2-782.9
		c139.6-292.8,490.2-416.9,782.9-277.2c111.9,53.4,204.1,140.9,263.3,249.8l-516.1,280.2L2437.7,1191z"/>
	<g id="XMLID_1428_">
		<g id="XMLID_1442_">
			<g id="XMLID_2190_">
				
					<path id="XMLID_2194_" fill="#FFFFFF" stroke="#1D1C20" stroke-width="8" stroke-linecap="round" stroke-linejoin="round" stroke-miterlimit="10" d="
					M677.4,1167.8H301.9c-9.8,0-17.8-8-17.8-17.8V594c0-9.8,8-17.8,17.8-17.8h375.5c9.8,0,17.8,8,17.8,17.8v556
					C695.2,1159.9,687.2,1167.8,677.4,1167.8z"/>
				
					<rect id="XMLID_2193_" x="316.7" y="638.8" fill="none" stroke="#1D1C20" stroke-width="8" stroke-linecap="round" stroke-linejoin="round" stroke-miterlimit="10" width="345.8" height="459.7"/>
				<circle id="XMLID_2192_" fill="#1D1C20" cx="478.1" cy="1132.7" r="14.7"/>
				<circle id="XMLID_2191_" fill="#1D1C20" cx="478.1" cy="606.1" r="7.4"/>
			</g>
			<g id="XMLID_2161_">
				<g id="XMLID_152_">
					<path id="XMLID_213_" fill="#C4C9CA" d="M374.2,702.3h-15.3c-4.9,0-8.9-4-8.9-8.9v-15.3c0-4.9,4-8.9,8.9-8.9h15.3
						c4.9,0,8.9,4,8.9,8.9v15.3C383.1,698.3,379.1,702.3,374.2,702.3z"/>
					<path id="XMLID_212_" fill="#C4C9CA" d="M435.3,702.3h-15.3c-4.9,0-8.9-4-8.9-8.9v-15.3c0-4.9,4-8.9,8.9-8.9h15.3
						c4.9,0,8.9,4,8.9,8.9v15.3C444.2,698.3,440.2,702.3,435.3,702.3z"/>
					<path id="XMLID_211_" fill="#C4C9CA" d="M496.4,702.3h-15.3c-4.9,0-8.9-4-8.9-8.9v-15.3c0-4.9,4-8.9,8.9-8.9h15.3
						c4.9,0,8.9,4,8.9,8.9v15.3C505.4,698.3,501.4,702.3,496.4,702.3z"/>
					<path id="XMLID_210_" fill="#C4C9CA" d="M557.6,702.3h-15.3c-4.9,0-8.9-4-8.9-8.9v-15.3c0-4.9,4-8.9,8.9-8.9h15.3
						c4.9,0,8.9,4,8.9,8.9v15.3C566.5,698.3,562.5,702.3,557.6,702.3z"/>
					<path id="XMLID_209_" fill="#C4C9CA" d="M618.7,702.3h-15.3c-4.9,0-8.9-4-8.9-8.9v-15.3c0-4.9,4-8.9,8.9-8.9h15.3
						c4.9,0,8.9,4,8.9,8.9v15.3C627.6,698.3,623.6,702.3,618.7,702.3z"/>
				</g>
				<g id="XMLID_145_">
					<path id="XMLID_151_" fill="#C4C9CA" d="M374.2,702.3h-15.3c-4.9,0-8.9-4-8.9-8.9v-15.3c0-4.9,4-8.9,8.9-8.9h15.3
						c4.9,0,8.9,4,8.9,8.9v15.3C383.1,698.3,379.1,702.3,374.2,702.3z"/>
					<path id="XMLID_150_" fill="#C4C9CA" d="M435.3,702.3h-15.3c-4.9,0-8.9-4-8.9-8.9v-15.3c0-4.9,4-8.9,8.9-8.9h15.3
						c4.9,0,8.9,4,8.9,8.9v15.3C444.2,698.3,440.2,702.3,435.3,702.3z"/>
					<path id="XMLID_149_" fill="#C4C9CA" d="M496.4,702.3h-15.3c-4.9,0-8.9-4-8.9-8.9v-15.3c0-4.9,4-8.9,8.9-8.9h15.3
						c4.9,0,8.9,4,8.9,8.9v15.3C505.4,698.3,501.4,702.3,496.4,702.3z"/>
					<path id="XMLID_147_" fill="#C4C9CA" d="M557.6,702.3h-15.3c-4.9,0-8.9-4-8.9-8.9v-15.3c0-4.9,4-8.9,8.9-8.9h15.3
						c4.9,0,8.9,4,8.9,8.9v15.3C566.5,698.3,562.5,702.3,557.6,702.3z"/>
					<path id="XMLID_146_" fill="#C4C9CA" d="M618.7,702.3h-15.3c-4.9,0-8.9-4-8.9-8.9v-15.3c0-4.9,4-8.9,8.9-8.9h15.3
						c4.9,0,8.9,4,8.9,8.9v15.3C627.6,698.3,623.6,702.3,618.7,702.3z"/>
				</g>
			</g>
			<g id="XMLID_2083_">
				<g id="XMLID_138_">
					<path id="XMLID_144_" fill="#C4C9CA" d="M374.2,757.6h-15.3c-4.9,0-8.9-4-8.9-8.9v-15.3c0-4.9,4-8.9,8.9-8.9h15.3
						c4.9,0,8.9,4,8.9,8.9v15.3C383.1,753.6,379.1,757.6,374.2,757.6z"/>
					<path id="XMLID_143_" fill="#C4C9CA" d="M435.3,757.6h-15.3c-4.9,0-8.9-4-8.9-8.9v-15.3c0-4.9,4-8.9,8.9-8.9h15.3
						c4.9,0,8.9,4,8.9,8.9v15.3C444.2,753.6,440.2,757.6,435.3,757.6z"/>
					<path id="XMLID_142_" fill="#C4C9CA" d="M496.4,757.6h-15.3c-4.9,0-8.9-4-8.9-8.9v-15.3c0-4.9,4-8.9,8.9-8.9h15.3
						c4.9,0,8.9,4,8.9,8.9v15.3C505.4,753.6,501.4,757.6,496.4,757.6z"/>
					<path id="XMLID_141_" fill="#C4C9CA" d="M557.6,757.6h-15.3c-4.9,0-8.9-4-8.9-8.9v-15.3c0-4.9,4-8.9,8.9-8.9h15.3
						c4.9,0,8.9,4,8.9,8.9v15.3C566.5,753.6,562.5,757.6,557.6,757.6z"/>
					<path id="XMLID_139_" fill="#C4C9CA" d="M618.7,757.6h-15.3c-4.9,0-8.9-4-8.9-8.9v-15.3c0-4.9,4-8.9,8.9-8.9h15.3
						c4.9,0,8.9,4,8.9,8.9v15.3C627.6,753.6,623.6,757.6,618.7,757.6z"/>
				</g>
				<g id="XMLID_132_">
					<path id="XMLID_137_" fill="#C4C9CA" d="M374.2,757.6h-15.3c-4.9,0-8.9-4-8.9-8.9v-15.3c0-4.9,4-8.9,8.9-8.9h15.3
						c4.9,0,8.9,4,8.9,8.9v15.3C383.1,753.6,379.1,757.6,374.2,757.6z"/>
					<path id="XMLID_136_" fill="#C4C9CA" d="M435.3,757.6h-15.3c-4.9,0-8.9-4-8.9-8.9v-15.3c0-4.9,4-8.9,8.9-8.9h15.3
						c4.9,0,8.9,4,8.9,8.9v15.3C444.2,753.6,440.2,757.6,435.3,757.6z"/>
					<path id="XMLID_135_" fill="#C4C9CA" d="M496.4,757.6h-15.3c-4.9,0-8.9-4-8.9-8.9v-15.3c0-4.9,4-8.9,8.9-8.9h15.3
						c4.9,0,8.9,4,8.9,8.9v15.3C505.4,753.6,501.4,757.6,496.4,757.6z"/>
					<path id="XMLID_134_" fill="#C4C9CA" d="M557.6,757.6h-15.3c-4.9,0-8.9-4-8.9-8.9v-15.3c0-4.9,4-8.9,8.9-8.9h15.3
						c4.9,0,8.9,4,8.9,8.9v15.3C566.5,753.6,562.5,757.6,557.6,757.6z"/>
					<path id="XMLID_133_" fill="#C4C9CA" d="M618.7,757.6h-15.3c-4.9,0-8.9-4-8.9-8.9v-15.3c0-4.9,4-8.9,8.9-8.9h15.3
						c4.9,0,8.9,4,8.9,8.9v15.3C627.6,753.6,623.6,757.6,618.7,757.6z"/>
				</g>
			</g>
			<g id="XMLID_1842_">
				<g id="XMLID_126_">
					<path id="XMLID_131_" fill="#C4C9CA" d="M374.2,812.9h-15.3c-4.9,0-8.9-4-8.9-8.9v-15.3c0-4.9,4-8.9,8.9-8.9h15.3
						c4.9,0,8.9,4,8.9,8.9V804C383.1,808.9,379.1,812.9,374.2,812.9z"/>
					<path id="XMLID_130_" fill="#C4C9CA" d="M435.3,812.9h-15.3c-4.9,0-8.9-4-8.9-8.9v-15.3c0-4.9,4-8.9,8.9-8.9h15.3
						c4.9,0,8.9,4,8.9,8.9V804C444.2,808.9,440.2,812.9,435.3,812.9z"/>
					<path id="XMLID_129_" fill="#C4C9CA" d="M496.4,812.9h-15.3c-4.9,0-8.9-4-8.9-8.9v-15.3c0-4.9,4-8.9,8.9-8.9h15.3
						c4.9,0,8.9,4,8.9,8.9V804C505.4,808.9,501.4,812.9,496.4,812.9z"/>
					<path id="XMLID_128_" fill="#C4C9CA" d="M557.6,812.9h-15.3c-4.9,0-8.9-4-8.9-8.9v-15.3c0-4.9,4-8.9,8.9-8.9h15.3
						c4.9,0,8.9,4,8.9,8.9V804C566.5,808.9,562.5,812.9,557.6,812.9z"/>
					<path id="XMLID_127_" fill="#C4C9CA" d="M618.7,812.9h-15.3c-4.9,0-8.9-4-8.9-8.9v-15.3c0-4.9,4-8.9,8.9-8.9h15.3
						c4.9,0,8.9,4,8.9,8.9V804C627.6,808.9,623.6,812.9,618.7,812.9z"/>
				</g>
				<g id="XMLID_120_">
					<path id="XMLID_125_" fill="#C4C9CA" d="M374.2,812.9h-15.3c-4.9,0-8.9-4-8.9-8.9v-15.3c0-4.9,4-8.9,8.9-8.9h15.3
						c4.9,0,8.9,4,8.9,8.9V804C383.1,808.9,379.1,812.9,374.2,812.9z"/>
					<path id="XMLID_124_" fill="#C4C9CA" d="M435.3,812.9h-15.3c-4.9,0-8.9-4-8.9-8.9v-15.3c0-4.9,4-8.9,8.9-8.9h15.3
						c4.9,0,8.9,4,8.9,8.9V804C444.2,808.9,440.2,812.9,435.3,812.9z"/>
					<path id="XMLID_123_" fill="#C4C9CA" d="M496.4,812.9h-15.3c-4.9,0-8.9-4-8.9-8.9v-15.3c0-4.9,4-8.9,8.9-8.9h15.3
						c4.9,0,8.9,4,8.9,8.9V804C505.4,808.9,501.4,812.9,496.4,812.9z"/>
					<path id="XMLID_122_" fill="#C4C9CA" d="M557.6,812.9h-15.3c-4.9,0-8.9-4-8.9-8.9v-15.3c0-4.9,4-8.9,8.9-8.9h15.3
						c4.9,0,8.9,4,8.9,8.9V804C566.5,808.9,562.5,812.9,557.6,812.9z"/>
					<path id="XMLID_121_" fill="#C4C9CA" d="M618.7,812.9h-15.3c-4.9,0-8.9-4-8.9-8.9v-15.3c0-4.9,4-8.9,8.9-8.9h15.3
						c4.9,0,8.9,4,8.9,8.9V804C627.6,808.9,623.6,812.9,618.7,812.9z"/>
				</g>
			</g>
			<g id="XMLID_1781_">
				<g id="XMLID_114_">
					<path id="XMLID_119_" fill="#C4C9CA" d="M374.2,868.2h-15.3c-4.9,0-8.9-4-8.9-8.9V844c0-4.9,4-8.9,8.9-8.9h15.3
						c4.9,0,8.9,4,8.9,8.9v15.3C383.1,864.2,379.1,868.2,374.2,868.2z"/>
					<path id="XMLID_118_" fill="#C4C9CA" d="M435.3,868.2h-15.3c-4.9,0-8.9-4-8.9-8.9V844c0-4.9,4-8.9,8.9-8.9h15.3
						c4.9,0,8.9,4,8.9,8.9v15.3C444.2,864.2,440.2,868.2,435.3,868.2z"/>
					<path id="XMLID_117_" fill="#C4C9CA" d="M496.4,868.2h-15.3c-4.9,0-8.9-4-8.9-8.9V844c0-4.9,4-8.9,8.9-8.9h15.3
						c4.9,0,8.9,4,8.9,8.9v15.3C505.4,864.2,501.4,868.2,496.4,868.2z"/>
					<path id="XMLID_116_" fill="#C4C9CA" d="M557.6,868.2h-15.3c-4.9,0-8.9-4-8.9-8.9V844c0-4.9,4-8.9,8.9-8.9h15.3
						c4.9,0,8.9,4,8.9,8.9v15.3C566.5,864.2,562.5,868.2,557.6,868.2z"/>
					<path id="XMLID_115_" fill="#C4C9CA" d="M618.7,868.2h-15.3c-4.9,0-8.9-4-8.9-8.9V844c0-4.9,4-8.9,8.9-8.9h15.3
						c4.9,0,8.9,4,8.9,8.9v15.3C627.6,864.2,623.6,868.2,618.7,868.2z"/>
				</g>
				<g id="XMLID_108_">
					<path id="XMLID_113_" fill="#C4C9CA" d="M374.2,868.2h-15.3c-4.9,0-8.9-4-8.9-8.9V844c0-4.9,4-8.9,8.9-8.9h15.3
						c4.9,0,8.9,4,8.9,8.9v15.3C383.1,864.2,379.1,868.2,374.2,868.2z"/>
					<path id="XMLID_112_" fill="#C4C9CA" d="M435.3,868.2h-15.3c-4.9,0-8.9-4-8.9-8.9V844c0-4.9,4-8.9,8.9-8.9h15.3
						c4.9,0,8.9,4,8.9,8.9v15.3C444.2,864.2,440.2,868.2,435.3,868.2z"/>
					<path id="XMLID_111_" fill="#C4C9CA" d="M496.4,868.2h-15.3c-4.9,0-8.9-4-8.9-8.9V844c0-4.9,4-8.9,8.9-8.9h15.3
						c4.9,0,8.9,4,8.9,8.9v15.3C505.4,864.2,501.4,868.2,496.4,868.2z"/>
					<path id="XMLID_110_" fill="#C4C9CA" d="M557.6,868.2h-15.3c-4.9,0-8.9-4-8.9-8.9V844c0-4.9,4-8.9,8.9-8.9h15.3
						c4.9,0,8.9,4,8.9,8.9v15.3C566.5,864.2,562.5,868.2,557.6,868.2z"/>
					<path id="XMLID_109_" fill="#C4C9CA" d="M618.7,868.2h-15.3c-4.9,0-8.9-4-8.9-8.9V844c0-4.9,4-8.9,8.9-8.9h15.3
						c4.9,0,8.9,4,8.9,8.9v15.3C627.6,864.2,623.6,868.2,618.7,868.2z"/>
				</g>
			</g>
			<g id="XMLID_1465_">
				<g id="XMLID_102_">
					<path id="XMLID_107_" fill="#C4C9CA" d="M374.2,923.5h-15.3c-4.9,0-8.9-4-8.9-8.9v-15.3c0-4.9,4-8.9,8.9-8.9h15.3
						c4.9,0,8.9,4,8.9,8.9v15.3C383.1,919.5,379.1,923.5,374.2,923.5z"/>
					<path id="XMLID_106_" fill="#C4C9CA" d="M435.3,923.5h-15.3c-4.9,0-8.9-4-8.9-8.9v-15.3c0-4.9,4-8.9,8.9-8.9h15.3
						c4.9,0,8.9,4,8.9,8.9v15.3C444.2,919.5,440.2,923.5,435.3,923.5z"/>
					<path id="XMLID_105_" fill="#C4C9CA" d="M496.4,923.5h-15.3c-4.9,0-8.9-4-8.9-8.9v-15.3c0-4.9,4-8.9,8.9-8.9h15.3
						c4.9,0,8.9,4,8.9,8.9v15.3C505.4,919.5,501.4,923.5,496.4,923.5z"/>
					<path id="XMLID_104_" fill="#C4C9CA" d="M557.6,923.5h-15.3c-4.9,0-8.9-4-8.9-8.9v-15.3c0-4.9,4-8.9,8.9-8.9h15.3
						c4.9,0,8.9,4,8.9,8.9v15.3C566.5,919.5,562.5,923.5,557.6,923.5z"/>
					<path id="XMLID_103_" fill="#C4C9CA" d="M618.7,923.5h-15.3c-4.9,0-8.9-4-8.9-8.9v-15.3c0-4.9,4-8.9,8.9-8.9h15.3
						c4.9,0,8.9,4,8.9,8.9v15.3C627.6,919.5,623.6,923.5,618.7,923.5z"/>
				</g>
				<g id="XMLID_7_">
					<path id="XMLID_86_" fill="#C4C9CA" d="M374.2,923.5h-15.3c-4.9,0-8.9-4-8.9-8.9v-15.3c0-4.9,4-8.9,8.9-8.9h15.3
						c4.9,0,8.9,4,8.9,8.9v15.3C383.1,919.5,379.1,923.5,374.2,923.5z"/>
					<path id="XMLID_12_" fill="#C4C9CA" d="M435.3,923.5h-15.3c-4.9,0-8.9-4-8.9-8.9v-15.3c0-4.9,4-8.9,8.9-8.9h15.3
						c4.9,0,8.9,4,8.9,8.9v15.3C444.2,919.5,440.2,923.5,435.3,923.5z"/>
					<path id="XMLID_11_" fill="#C4C9CA" d="M496.4,923.5h-15.3c-4.9,0-8.9-4-8.9-8.9v-15.3c0-4.9,4-8.9,8.9-8.9h15.3
						c4.9,0,8.9,4,8.9,8.9v15.3C505.4,919.5,501.4,923.5,496.4,923.5z"/>
					<path id="XMLID_9_" fill="#C4C9CA" d="M557.6,923.5h-15.3c-4.9,0-8.9-4-8.9-8.9v-15.3c0-4.9,4-8.9,8.9-8.9h15.3
						c4.9,0,8.9,4,8.9,8.9v15.3C566.5,919.5,562.5,923.5,557.6,923.5z"/>
					<path id="XMLID_8_" fill="#C4C9CA" d="M618.7,923.5h-15.3c-4.9,0-8.9-4-8.9-8.9v-15.3c0-4.9,4-8.9,8.9-8.9h15.3
						c4.9,0,8.9,4,8.9,8.9v15.3C627.6,919.5,623.6,923.5,618.7,923.5z"/>
				</g>
			</g>
			<g id="XMLID_1461_">
				<path id="XMLID_1464_" fill="#C4C9CA" d="M435.4,1054.1h-15.3c-4.9,0-8.9-4-8.9-8.9v-15.3c0-4.9,4-8.9,8.9-8.9h15.3
					c4.9,0,8.9,4,8.9,8.9v15.3C444.3,1050.1,440.4,1054.1,435.4,1054.1z"/>
				<path id="XMLID_1463_" fill="#C4C9CA" d="M557.6,1054.1h-15.3c-4.9,0-8.9-4-8.9-8.9v-15.3c0-4.9,4-8.9,8.9-8.9h15.3
					c4.9,0,8.9,4,8.9,8.9v15.3C566.5,1050.1,562.5,1054.1,557.6,1054.1z"/>
				<path id="XMLID_1462_" fill="#C4C9CA" d="M496.5,1054.1h-15.3c-4.9,0-8.9-4-8.9-8.9v-15.3c0-4.9,4-8.9,8.9-8.9h15.3
					c4.9,0,8.9,4,8.9,8.9v15.3C505.4,1050.1,501.4,1054.1,496.5,1054.1z"/>
			</g>
		</g>
		<g id="XMLID_1429_">
			
				<path id="XMLID_1441_" fill="#1D1C20" stroke="#1D1C20" stroke-width="9.7673" stroke-linecap="round" stroke-linejoin="round" stroke-miterlimit="10" d="
				M916.1,1088H797c-4.9,0-8.9-4-8.9-8.9V823.4c0-4.9,4-8.9,8.9-8.9h119.1c4.9,0,8.9,4,8.9,8.9v255.7C925,1084,921,1088,916.1,1088z
				"/>
			<rect id="XMLID_1440_" x="799" y="849.1" fill="#FFFFFF" width="115.2" height="185.4"/>
			
				<line id="XMLID_1439_" fill="none" stroke="#FFFFFF" stroke-width="2.4418" stroke-linecap="round" stroke-linejoin="round" stroke-miterlimit="10" x1="841.6" y1="831.3" x2="871.5" y2="831.3"/>
			<circle id="XMLID_1438_" fill="#FFFFFF" cx="856.5" cy="1061.4" r="10.5"/>
			
				<line id="XMLID_1432_" fill="#FFFFFF" stroke="#C4C9CA" stroke-width="9.7673" stroke-linecap="round" stroke-linejoin="round" stroke-miterlimit="10" x1="863.2" y1="861.7" x2="899.8" y2="910.2"/>
			
				<line id="XMLID_1431_" fill="#FFFFFF" stroke="#C4C9CA" stroke-width="9.7673" stroke-linecap="round" stroke-linejoin="round" stroke-miterlimit="10" x1="901.7" y1="874.6" x2="891.4" y2="860.9"/>
			
				<line id="XMLID_1430_" fill="#FFFFFF" stroke="#C4C9CA" stroke-width="9.7673" stroke-linecap="round" stroke-linejoin="round" stroke-miterlimit="10" x1="833.5" y1="1019.7" x2="812.9" y2="992.2"/>
		</g>
	</g>
	
		<path id="XMLID_1414_" fill="none" stroke="#1E1D21" stroke-width="12" stroke-linecap="round" stroke-linejoin="round" stroke-miterlimit="10" d="
		M2494.2,656.1c89.7,165.2,94.9,363.4,14,533.1"/>
	
		<path id="XMLID_1408_" fill="none" stroke="#1E1D21" stroke-width="12" stroke-linecap="round" stroke-linejoin="round" stroke-miterlimit="10" d="
		M2437.7,1191c-139.6,292.8-490.2,416.9-782.9,277.2c-292.8-139.6-416.9-490.2-277.2-782.9c139.6-292.8,490.2-416.9,782.9-277.2
		c111.9,53.4,204.1,140.9,263.3,249.8"/>
</g>
<g id="typo">
	<g id="XMLID_82_">
		<path id="XMLID_83_" fill="#223B44" d="M3119.4,1317.2c-1.8,1.9-3.9,3.4-6.4,4.6c-2.5,1.2-5.2,1.8-8,1.8c-3.4,0-6.3-0.7-8.8-2
			c-2.5-1.4-4.5-3.1-6.2-5.1c-0.1-0.1-0.1-0.1-0.2-0.2c0-0.1-0.1-0.1-0.2-0.1c-1.4-1.9-2.3-4.2-2.9-6.9c-0.5-2.7-0.8-7.4-0.8-14.1
			c0-6.6,0.3-11.2,0.8-13.9c0.5-2.7,1.5-5,2.9-7c0.1,0,0.1,0,0.2-0.1c0-0.1,0.1-0.1,0.2-0.2c1.6-2.1,3.7-3.9,6.2-5.2
			c2.5-1.4,5.4-2,8.8-2c2.9,0,5.5,0.6,7.8,1.8c2.3,1.2,4.5,2.8,6.6,4.8v-28.5h11.2v78.3h-11.2V1317.2z M3099,1283.1
			c-1.1,3.5-1.6,7.4-1.6,11.7c0,0.1,0,0.1,0,0.2c0,0,0,0.1,0,0.2c0,4.3,0.5,8.3,1.6,11.9c1.1,3.6,4.2,5.4,9.5,5.4
			c4.7,0,7.7-1.5,8.9-4.6c1.2-3.1,1.9-6.5,2.1-10.1c0-0.4,0-0.9,0-1.3c0-0.4,0-0.9,0-1.3c0-0.4,0-0.9,0-1.4c0-0.5,0-1,0-1.5
			c-0.1-3.6-0.9-6.9-2.1-9.9c-1.3-3-4.2-4.5-8.9-4.5C3103.2,1277.9,3100.1,1279.6,3099,1283.1z"/>
		<path id="XMLID_87_" fill="#223B44" d="M3154.4,1299.4c0,4.5,1.3,8,3.8,10.3c2.5,2.3,5.7,3.5,9.5,3.5c0.4,0,0.9,0,1.3-0.1
			c0.4,0,0.9-0.1,1.3-0.2c1.7-0.3,3.4-0.9,5.1-1.8c1.7-0.9,3.2-2,4.5-3.4l8.1,6.9c-2.7,3.2-5.8,5.4-9.3,6.8
			c-3.5,1.4-7.1,2.1-10.8,2.1c-0.7,0-1.4,0-2.1-0.1c-0.7,0-1.4-0.1-2.1-0.2c-5.1-0.7-9.8-3-14.1-7c-4.3-4-6.4-11-6.4-21.1
			c0-9.7,2-16.7,6.1-21c4.1-4.3,8.6-6.8,13.5-7.5c0.6-0.1,1.2-0.1,1.7-0.2c0.5,0,1.1-0.1,1.7-0.1c6.2,0,11.5,2.1,16.1,6.4
			c4.6,4.3,6.9,10,6.9,17.2v9.2H3154.4z M3177.9,1290.2c-0.1-4.3-1.3-7.5-3.5-9.7c-2.2-2.2-5-3.3-8.3-3.3s-6,1.1-8.3,3.3
			c-2.2,2.2-3.4,5.4-3.5,9.7H3177.9z"/>
		<path id="XMLID_90_" fill="#223B44" d="M3205.3,1306c2.4,2.3,5,4.1,7.8,5.3c2.8,1.2,6,1.8,9.8,1.8c3.2,0,5.9-0.6,7.9-1.8
			c2.1-1.2,3.1-3,3.1-5.3c0-2-0.7-3.4-2-4.1c-1.3-0.8-2.9-1.2-4.8-1.4l-9.9-0.9c-4.6-0.4-8.5-1.9-11.5-4.6c-3-2.7-4.6-6.5-4.6-11.2
			c0-5.6,2-9.9,6-12.8c4-2.9,8.9-4.3,14.8-4.3c4.9,0,9.1,0.7,12.6,2c3.5,1.4,6.6,3.2,9.3,5.6l-6.9,8.1c-2.2-1.5-4.5-2.8-6.9-3.7
			c-2.4-1-5.1-1.4-8.1-1.4c-3.6,0-6.1,0.6-7.5,1.9c-1.4,1.3-2.1,2.9-2.1,4.8c0,1.2,0.5,2.3,1.6,3.4c1.1,1.1,3,1.7,5.8,1.9l9.2,0.7
			c5.8,0.4,9.9,2.1,12.4,5.3c2.5,3.2,3.7,7,3.7,11.4c0,5.4-2.2,9.6-6.7,12.6c-4.4,3-9.9,4.5-16.4,4.5c-4.5,0-8.8-0.8-12.9-2.4
			c-4.1-1.6-8-4.1-11.6-7.5L3205.3,1306z"/>
		<path id="XMLID_92_" fill="#223B44" d="M3259.2,1244.7h11.2v48.7h0.2l21.5-26.2h13.4l-19.3,21.8l21.9,34h-14.1l-14.8-26.1l-8.8,10
			v16.1h-11.2V1244.7z"/>
		<path id="XMLID_94_" fill="#223B44" d="M3319.7,1250.4h11.2v16.9h8.1v8.6h-8.1v32.5c0,1.5,0.3,2.6,0.9,3.2c0.6,0.6,1.6,0.9,3,0.9
			h4.2v10.6h-5.8c-3.9,0-7.1-1.2-9.7-3.6c-2.6-2.4-3.8-5.8-3.8-10.2v-33.4h-5.6v-8.6h5.6V1250.4z"/>
		<path id="XMLID_96_" fill="#223B44" d="M3351,1281.9c0.9-2.9,2.4-5.5,4.5-7.9c0.1-0.1,0.1-0.1,0.2-0.2c0.1-0.1,0.3-0.3,0.4-0.4
			c0.1-0.1,0.2-0.3,0.4-0.4c1.6-1.5,3.7-3,6.3-4.3c2.6-1.3,5.9-2,9.8-2s7.2,0.7,9.8,2c2.6,1.3,4.7,2.8,6.3,4.3
			c0.1,0.1,0.3,0.3,0.4,0.4c0.1,0.1,0.2,0.3,0.4,0.4c0.1,0.1,0.1,0.1,0.2,0.2c2.1,2.3,3.5,5,4.5,7.9c0.9,2.9,1.4,7.3,1.4,13.3
			c0,5.9-0.5,10.4-1.4,13.3c-0.9,2.9-2.4,5.6-4.5,7.9c-0.1,0.1-0.1,0.1-0.2,0.2c-0.1,0.1-0.3,0.3-0.4,0.4c-0.1,0.1-0.2,0.3-0.4,0.4
			c-1.6,1.5-3.7,3-6.3,4.2c-2.6,1.3-5.9,1.9-9.8,1.9s-7.2-0.6-9.8-1.9c-2.6-1.3-4.7-2.7-6.3-4.2c-0.1-0.1-0.3-0.3-0.4-0.4
			c-0.1-0.1-0.2-0.3-0.4-0.4c-0.1-0.1-0.1-0.1-0.2-0.2c-2.1-2.3-3.5-5-4.5-7.9c-0.9-2.9-1.4-7.4-1.4-13.3
			C3349.7,1289.2,3350.1,1284.8,3351,1281.9z M3384,1287.4c-0.3-1.6-0.8-3.1-1.7-4.5c-0.1-0.1-0.2-0.3-0.3-0.5
			c-0.1-0.2-0.2-0.3-0.4-0.5c-0.8-1.2-2-2.1-3.7-2.9c-1.7-0.8-3.4-1.2-5.3-1.2c-1.9,0-3.7,0.4-5.3,1.2c-1.7,0.8-2.9,1.7-3.7,2.9
			c-0.1,0.1-0.3,0.3-0.4,0.5c-0.1,0.2-0.2,0.3-0.3,0.5c-0.8,1.3-1.4,2.8-1.7,4.5c-0.3,1.7-0.4,4.2-0.4,7.8c0,3.6,0.1,6.2,0.4,7.9
			c0.3,1.7,0.8,3.1,1.7,4.5c0.1,0.1,0.2,0.3,0.3,0.5c0.1,0.2,0.2,0.3,0.4,0.5c0.8,1.2,2,2.1,3.7,2.9c1.7,0.8,3.4,1.2,5.3,1.2
			c1.9,0,3.7-0.4,5.3-1.2c1.7-0.8,2.9-1.7,3.7-2.9c0.1-0.1,0.3-0.3,0.4-0.5c0.1-0.2,0.2-0.3,0.3-0.5c0.8-1.3,1.4-2.8,1.7-4.5
			c0.3-1.6,0.4-4.2,0.4-7.8C3384.4,1291.6,3384.3,1289,3384,1287.4z"/>
		<path id="XMLID_99_" fill="#223B44" d="M3410.2,1267.3h11.2v5.8c1.8-1.9,3.9-3.5,6.4-4.7c2.5-1.2,5.2-1.8,8-1.8
			c3.4,0,6.4,0.7,8.9,2c2.5,1.4,4.5,3.1,6.1,5.2c0.1,0.1,0.1,0.1,0.2,0.2c0,0.1,0.1,0.1,0.2,0.1c1.4,1.9,2.3,4.2,2.9,6.9
			c0.5,2.7,0.8,7.4,0.8,14.1c0,6.6-0.3,11.2-0.8,13.9c-0.5,2.7-1.5,5-2.9,7c-0.1,0-0.1,0-0.2,0.1c0,0.1-0.1,0.1-0.2,0.2
			c-1.6,2.1-3.6,3.8-6.1,5.1c-2.5,1.4-5.4,2-8.9,2c-2.9,0-5.4-0.6-7.8-1.8c-2.3-1.2-4.5-2.8-6.7-4.7v28.5h-11.2V1267.3z
			 M3441.8,1307.2c1.1-3.5,1.6-7.4,1.6-11.7c0-0.1,0-0.1,0-0.2c0,0,0-0.1,0-0.2c0-4.3-0.5-8.3-1.6-11.9c-1.1-3.6-4.2-5.4-9.5-5.4
			c-4.7,0-7.7,1.5-8.9,4.6c-1.2,3.1-1.9,6.5-2.1,10.1c0,0.4,0,0.9,0,1.3c0,0.4,0,0.9,0,1.3c0,0.4,0,0.9,0,1.4c0,0.5,0,1,0,1.5
			c0.1,3.6,0.9,6.9,2.1,9.9c1.3,3,4.2,4.5,8.9,4.5C3437.6,1312.5,3440.7,1310.7,3441.8,1307.2z"/>
	</g>
	<g id="XMLID_65_">
		<path id="XMLID_66_" fill="#223B44" d="M446.8,1267.3h11.2v5.9h0.2c1.8-2.2,3.9-3.8,6.4-5c2.5-1.1,5.2-1.6,8.1-1.6
			c3.9,0,7,0.7,9.3,2.1c2.3,1.4,4.5,3.1,6.4,5.2c2.3-2.6,4.9-4.4,7.7-5.6c2.8-1.1,6.1-1.7,9.9-1.7c0.4,0,0.9,0,1.4,0.1
			c0.5,0,1,0.1,1.4,0.2c4,0.7,7.6,2.6,10.8,5.8c3.3,3.2,4.9,7.7,4.9,13.3v37.1h-11.2v-33.2c0-3.8-1-6.8-3.1-8.9s-4.7-3.1-7.9-3.1
			c-3.2,0-5.8,1-7.9,3.1c-2.1,2.1-3.2,5-3.2,8.9v33.2h-11.2v-33.2c0-3.8-1-6.8-3.1-8.9s-4.7-3.1-7.9-3.1c-3.2,0-5.8,1-7.9,3.1
			c-2.1,2.1-3.2,5-3.2,8.9v33.2h-11.2V1267.3z"/>
		<path id="XMLID_68_" fill="#223B44" d="M541.3,1281.9c0.9-2.9,2.4-5.5,4.5-7.9c0.1-0.1,0.1-0.1,0.2-0.2c0.1-0.1,0.3-0.3,0.4-0.4
			c0.1-0.1,0.2-0.3,0.4-0.4c1.6-1.5,3.7-3,6.3-4.3c2.6-1.3,5.9-2,9.8-2s7.2,0.7,9.8,2c2.6,1.3,4.7,2.8,6.3,4.3
			c0.1,0.1,0.3,0.3,0.4,0.4c0.1,0.1,0.2,0.3,0.4,0.4c0.1,0.1,0.1,0.1,0.2,0.2c2.1,2.3,3.5,5,4.5,7.9c0.9,2.9,1.4,7.3,1.4,13.3
			c0,5.9-0.5,10.4-1.4,13.3c-0.9,2.9-2.4,5.6-4.5,7.9c-0.1,0.1-0.1,0.1-0.2,0.2c-0.1,0.1-0.3,0.3-0.4,0.4c-0.1,0.1-0.2,0.3-0.4,0.4
			c-1.6,1.5-3.7,3-6.3,4.2c-2.6,1.3-5.9,1.9-9.8,1.9s-7.2-0.6-9.8-1.9c-2.6-1.3-4.7-2.7-6.3-4.2c-0.1-0.1-0.3-0.3-0.4-0.4
			c-0.1-0.1-0.2-0.3-0.4-0.4c-0.1-0.1-0.1-0.1-0.2-0.2c-2.1-2.3-3.5-5-4.5-7.9c-0.9-2.9-1.4-7.4-1.4-13.3
			C539.9,1289.2,540.4,1284.8,541.3,1281.9z M574.2,1287.4c-0.3-1.6-0.8-3.1-1.7-4.5c-0.1-0.1-0.2-0.3-0.3-0.5
			c-0.1-0.2-0.2-0.3-0.4-0.5c-0.8-1.2-2-2.1-3.7-2.9c-1.7-0.8-3.4-1.2-5.3-1.2c-1.9,0-3.7,0.4-5.3,1.2c-1.7,0.8-2.9,1.7-3.7,2.9
			c-0.1,0.1-0.3,0.3-0.4,0.5c-0.1,0.2-0.2,0.3-0.3,0.5c-0.8,1.3-1.4,2.8-1.7,4.5c-0.3,1.7-0.4,4.2-0.4,7.8c0,3.6,0.1,6.2,0.4,7.9
			c0.3,1.7,0.8,3.1,1.7,4.5c0.1,0.1,0.2,0.3,0.3,0.5c0.1,0.2,0.2,0.3,0.4,0.5c0.8,1.2,2,2.1,3.7,2.9c1.7,0.8,3.4,1.2,5.3,1.2
			c1.9,0,3.7-0.4,5.3-1.2c1.7-0.8,2.9-1.7,3.7-2.9c0.1-0.1,0.3-0.3,0.4-0.5c0.1-0.2,0.2-0.3,0.3-0.5c0.8-1.3,1.4-2.8,1.7-4.5
			c0.3-1.6,0.4-4.2,0.4-7.8C574.7,1291.6,574.5,1289,574.2,1287.4z"/>
		<path id="XMLID_71_" fill="#223B44" d="M600.4,1244.7h11.2v28.5c2.1-2,4.3-3.6,6.7-4.8c2.3-1.2,4.9-1.8,7.8-1.8
			c3.4,0,6.4,0.7,8.9,2c2.5,1.4,4.5,3.1,6.1,5.2c0.1,0.1,0.1,0.1,0.2,0.2c0,0.1,0.1,0.1,0.2,0.1c1.4,2,2.3,4.3,2.9,7
			c0.5,2.7,0.8,7.3,0.8,13.9c0,6.7-0.3,11.4-0.8,14.1c-0.5,2.7-1.5,5-2.9,6.9c-0.1,0-0.1,0-0.2,0.1c0,0.1-0.1,0.1-0.2,0.2
			c-1.6,2.1-3.6,3.8-6.1,5.1c-2.5,1.4-5.4,2-8.9,2c-2.9,0-5.5-0.6-8-1.8c-2.5-1.2-4.6-2.7-6.4-4.6v5.8h-11.2V1244.7z M613.8,1282.4
			c-1.3,3-2,6.3-2.1,9.9c0,0.5,0,1,0,1.5c0,0.5,0,0.9,0,1.4c0,0.4,0,0.9,0,1.3c0,0.4,0,0.9,0,1.3c0.1,3.7,0.8,7,2.1,10.1
			c1.2,3.1,4.2,4.6,8.9,4.6c5.3,0,8.5-1.8,9.5-5.4c1.1-3.6,1.6-7.6,1.6-11.9c0-0.1,0-0.1,0-0.2c0,0,0-0.1,0-0.2
			c0-4.3-0.5-8.1-1.6-11.7c-1.1-3.5-4.3-5.3-9.5-5.3C618,1277.9,615,1279.4,613.8,1282.4z"/>
		<path id="XMLID_74_" fill="#223B44" d="M660.6,1244.7h11.2v11.2h-11.2V1244.7z M660.6,1267.3h11.2v55.8h-11.2V1267.3z"/>
		<path id="XMLID_77_" fill="#223B44" d="M689.4,1244.7h11.2v63.9c0,1.2,0.3,2.2,1,2.9c0.7,0.7,1.7,1,3.1,1h3.8v10.6h-5
			c-4,0-7.4-1-10.2-3c-2.8-2-4.1-5.5-4.1-10.5V1244.7z"/>
		<path id="XMLID_79_" fill="#223B44" d="M729,1299.4c0,4.5,1.3,8,3.8,10.3c2.5,2.3,5.7,3.5,9.5,3.5c0.4,0,0.9,0,1.3-0.1
			c0.4,0,0.9-0.1,1.3-0.2c1.7-0.3,3.4-0.9,5.1-1.8c1.7-0.9,3.2-2,4.5-3.4l8.1,6.9c-2.7,3.2-5.8,5.4-9.3,6.8
			c-3.5,1.4-7.1,2.1-10.8,2.1c-0.7,0-1.4,0-2.1-0.1c-0.7,0-1.4-0.1-2.1-0.2c-5.1-0.7-9.8-3-14.1-7c-4.3-4-6.4-11-6.4-21.1
			c0-9.7,2-16.7,6.1-21c4.1-4.3,8.6-6.8,13.5-7.5c0.6-0.1,1.2-0.1,1.7-0.2c0.5,0,1.1-0.1,1.7-0.1c6.2,0,11.5,2.1,16.1,6.4
			c4.6,4.3,6.9,10,6.9,17.2v9.2H729z M752.5,1290.2c-0.1-4.3-1.3-7.5-3.5-9.7c-2.2-2.2-5-3.3-8.3-3.3s-6,1.1-8.3,3.3
			c-2.2,2.2-3.4,5.4-3.5,9.7H752.5z"/>
	</g>
	<g id="XMLID_31_">
		<path id="XMLID_32_" fill="#223B44" d="M1531.5,160.7c0.4-2.9,1-5.4,2-7.3c0.1-0.3,0.3-0.6,0.4-0.8c0.1-0.3,0.3-0.5,0.4-0.8
			c0.1-0.2,0.2-0.4,0.3-0.6c0.1-0.2,0.3-0.4,0.3-0.6c2.1-3.2,5.1-6.2,9.1-8.9c4-2.7,8.9-4,14.7-4c5.8,0,10.7,1.3,14.7,4
			c4,2.7,7.1,5.6,9.1,8.9c0.1,0.2,0.2,0.4,0.3,0.6c0.1,0.2,0.3,0.4,0.3,0.6c0.1,0.3,0.3,0.6,0.4,0.8c0.1,0.3,0.3,0.5,0.4,0.8
			c1,1.9,1.6,4.3,2,7.3c0.4,2.9,0.5,8.5,0.5,16.8c0,8.2-0.2,13.8-0.5,16.8c-0.4,3-1,5.4-2,7.3c-0.1,0.3-0.3,0.6-0.4,0.8
			c-0.1,0.3-0.3,0.5-0.4,0.8c-0.1,0.2-0.2,0.4-0.3,0.6c-0.1,0.2-0.3,0.4-0.3,0.6c-2.1,3.2-5.1,6.2-9.1,8.8c-4,2.6-8.9,4-14.7,4
			c-5.8,0-10.7-1.3-14.7-4c-4-2.6-7.1-5.6-9.1-8.8c-0.1-0.2-0.2-0.4-0.3-0.6c-0.1-0.2-0.3-0.4-0.3-0.6c-0.1-0.3-0.3-0.6-0.4-0.8
			c-0.1-0.3-0.3-0.5-0.4-0.8c-1-1.9-1.6-4.3-2-7.3c-0.4-3-0.5-8.6-0.5-16.8C1530.9,169.2,1531.1,163.6,1531.5,160.7z M1543.5,192
			c0.4,2.6,1.2,4.7,2.3,6.4c0.1,0.2,0.3,0.4,0.5,0.7c0.2,0.2,0.3,0.4,0.5,0.7c1.2,1.5,2.9,2.9,4.9,4c2,1.1,4.4,1.7,7.2,1.7
			c2.8,0,5.2-0.6,7.3-1.7c2.1-1.1,3.7-2.5,4.8-4c0.1-0.2,0.3-0.4,0.5-0.7c0.2-0.2,0.3-0.4,0.5-0.7c1.1-1.7,1.9-3.8,2.3-6.4
			c0.4-2.6,0.7-7.4,0.7-14.5c0-7.1-0.2-12-0.7-14.5c-0.4-2.6-1.2-4.7-2.3-6.4c-0.1-0.2-0.3-0.4-0.5-0.7c-0.2-0.2-0.3-0.4-0.5-0.7
			c-1.2-1.5-2.8-2.9-4.8-4c-2.1-1.1-4.5-1.7-7.3-1.7c-2.8,0-5.2,0.6-7.2,1.7c-2,1.1-3.6,2.5-4.9,4c-0.1,0.2-0.3,0.4-0.5,0.7
			c-0.2,0.2-0.3,0.4-0.5,0.7c-1.1,1.7-1.9,3.8-2.3,6.4c-0.4,2.6-0.7,7.4-0.7,14.5C1542.8,184.6,1543,189.5,1543.5,192z"/>
		<path id="XMLID_35_" fill="#223B44" d="M1602.4,160.9h11.2v5.9h0.2c1.8-2.2,3.9-3.8,6.4-5c2.5-1.1,5.2-1.6,8.1-1.6
			c0.4,0,0.9,0,1.4,0.1c0.5,0,1,0.1,1.4,0.2c4,0.7,7.6,2.6,10.8,5.8c3.3,3.2,4.9,7.7,4.9,13.3v37.1h-11.2v-33.2c0-3.8-1-6.8-3.1-8.9
			s-4.7-3.1-7.9-3.1c-3.2,0-5.8,1-7.9,3.1c-2.1,2.1-3.2,5-3.2,8.9v33.2h-11.2V160.9z"/>
		<path id="XMLID_37_" fill="#223B44" d="M1664.2,138.3h11.2v63.9c0,1.2,0.3,2.2,1,2.9c0.7,0.7,1.7,1,3.1,1h3.8v10.6h-5
			c-4,0-7.4-1-10.2-3c-2.8-2-4.1-5.5-4.1-10.5V138.3z"/>
		<path id="XMLID_39_" fill="#223B44" d="M1695.7,138.3h11.2v11.2h-11.2V138.3z M1695.7,160.9h11.2v55.8h-11.2V160.9z"/>
		<path id="XMLID_42_" fill="#223B44" d="M1724.5,160.9h11.2v5.9h0.2c1.8-2.2,3.9-3.8,6.4-5c2.5-1.1,5.2-1.6,8.1-1.6
			c0.4,0,0.9,0,1.4,0.1c0.5,0,1,0.1,1.4,0.2c4,0.7,7.6,2.6,10.8,5.8c3.3,3.2,4.9,7.7,4.9,13.3v37.1h-11.2v-33.2c0-3.8-1-6.8-3.1-8.9
			s-4.7-3.1-7.9-3.1c-3.2,0-5.8,1-7.9,3.1c-2.1,2.1-3.2,5-3.2,8.9v33.2h-11.2V160.9z"/>
		<path id="XMLID_44_" fill="#223B44" d="M1794.8,193c0,4.5,1.3,8,3.8,10.3c2.5,2.3,5.7,3.5,9.5,3.5c0.4,0,0.9,0,1.3-0.1
			c0.4,0,0.9-0.1,1.3-0.2c1.7-0.3,3.4-0.9,5.1-1.8c1.7-0.9,3.2-2,4.5-3.4l8.1,6.9c-2.7,3.2-5.8,5.4-9.3,6.8
			c-3.5,1.4-7.1,2.1-10.8,2.1c-0.7,0-1.4,0-2.1-0.1c-0.7,0-1.4-0.1-2.1-0.2c-5.1-0.7-9.8-3-14.1-7c-4.3-4-6.4-11-6.4-21.1
			c0-9.7,2-16.7,6.1-21c4.1-4.3,8.6-6.8,13.5-7.5c0.6-0.1,1.2-0.1,1.7-0.2c0.5,0,1.1-0.1,1.7-0.1c6.2,0,11.5,2.1,16.1,6.4
			c4.6,4.3,6.9,10,6.9,17.2v9.2H1794.8z M1818.4,183.8c-0.1-4.3-1.3-7.5-3.5-9.7c-2.2-2.2-5-3.3-8.3-3.3s-6,1.1-8.3,3.3
			c-2.2,2.2-3.4,5.4-3.5,9.7H1818.4z"/>
		<path id="XMLID_47_" fill="#223B44" d="M1873.2,138.3h11.2v28.5c2.1-2,4.3-3.6,6.7-4.8c2.3-1.2,4.9-1.8,7.8-1.8
			c3.4,0,6.4,0.7,8.9,2c2.5,1.4,4.5,3.1,6.1,5.2c0.1,0.1,0.1,0.1,0.2,0.2c0,0.1,0.1,0.1,0.2,0.1c1.4,2,2.3,4.3,2.9,7
			c0.5,2.7,0.8,7.3,0.8,13.9c0,6.7-0.3,11.4-0.8,14.1c-0.5,2.7-1.5,5-2.9,6.9c-0.1,0-0.1,0-0.2,0.1c0,0.1-0.1,0.1-0.2,0.2
			c-1.6,2.1-3.6,3.8-6.1,5.1c-2.5,1.4-5.4,2-8.9,2c-2.9,0-5.5-0.6-8-1.8c-2.5-1.2-4.6-2.7-6.4-4.6v5.8h-11.2V138.3z M1886.6,176
			c-1.3,3-2,6.3-2.1,9.9c0,0.5,0,1,0,1.5c0,0.5,0,0.9,0,1.4c0,0.4,0,0.9,0,1.3c0,0.4,0,0.9,0,1.3c0.1,3.7,0.8,7,2.1,10.1
			c1.2,3.1,4.2,4.6,8.9,4.6c5.3,0,8.5-1.8,9.5-5.4c1.1-3.6,1.6-7.6,1.6-11.9c0-0.1,0-0.1,0-0.2c0,0,0-0.1,0-0.2
			c0-4.3-0.5-8.1-1.6-11.7c-1.1-3.5-4.3-5.3-9.5-5.3C1890.8,171.5,1887.9,173,1886.6,176z"/>
		<path id="XMLID_50_" fill="#223B44" d="M1962.3,211.7h-0.2c-1.2,1.9-2.8,3.3-4.9,4.2c-2.1,0.9-5,1.3-8.9,1.3
			c-6.2,0-11.1-1.6-14.5-4.8c-3.4-3.2-5.2-7.3-5.2-12.1c0-4.5,1.5-8.3,4.6-11.6c3-3.3,7.6-4.9,13.6-4.9h15.5v-5.8
			c0-2.6-0.9-4.5-2.7-5.6c-1.8-1.1-4.7-1.6-8.7-1.6c-2.9,0-5.2,0.3-6.7,0.9s-2.8,1.7-3.9,3.4l-8.8-6.7c2.1-3,4.7-5.1,7.9-6.3
			c3.1-1.2,6.8-1.8,10.9-1.8c6.9,0,12.5,1.3,16.8,4c4.3,2.7,6.4,7.5,6.4,14.4v38.1h-11.2V211.7z M1962.3,193h-13.4
			c-3.3,0-5.7,0.6-7.3,1.8c-1.6,1.2-2.4,2.8-2.4,4.9c0,1.8,0.8,3.5,2.4,4.9c1.6,1.4,4.3,2.1,8.1,2.1c4.7,0,8-0.5,9.8-1.6
			c1.8-1.1,2.8-3.8,2.8-8.1V193z"/>
		<path id="XMLID_53_" fill="#223B44" d="M1990.8,160.9h11.2v5.9h0.2c1.8-2.2,3.9-3.8,6.4-5c2.5-1.1,5.2-1.6,8.1-1.6
			c0.4,0,0.9,0,1.4,0.1c0.5,0,1,0.1,1.4,0.2c4,0.7,7.6,2.6,10.8,5.8c3.3,3.2,4.9,7.7,4.9,13.3v37.1h-11.2v-33.2c0-3.8-1-6.8-3.1-8.9
			s-4.7-3.1-7.9-3.1c-3.2,0-5.8,1-7.9,3.1c-2.1,2.1-3.2,5-3.2,8.9v33.2h-11.2V160.9z"/>
		<path id="XMLID_55_" fill="#223B44" d="M2052.6,138.3h11.2v48.7h0.2l21.5-26.2h13.4l-19.3,21.8l21.9,34h-14.1l-14.8-26.1l-8.8,10
			v16.1h-11.2V138.3z"/>
		<path id="XMLID_57_" fill="#223B44" d="M2112.8,138.3h11.2v11.2h-11.2V138.3z M2112.8,160.9h11.2v55.8h-11.2V160.9z"/>
		<path id="XMLID_60_" fill="#223B44" d="M2141.6,160.9h11.2v5.9h0.2c1.8-2.2,3.9-3.8,6.4-5c2.5-1.1,5.2-1.6,8.1-1.6
			c0.4,0,0.9,0,1.4,0.1c0.5,0,1,0.1,1.4,0.2c4,0.7,7.6,2.6,10.8,5.8c3.3,3.2,4.9,7.7,4.9,13.3v37.1H2175v-33.2c0-3.8-1-6.8-3.1-8.9
			s-4.7-3.1-7.9-3.1c-3.2,0-5.8,1-7.9,3.1c-2.1,2.1-3.2,5-3.2,8.9v33.2h-11.2V160.9z"/>
		<path id="XMLID_62_" fill="#223B44" d="M2234.8,210.9c-1.8,1.9-3.9,3.4-6.4,4.6c-2.5,1.2-5.2,1.8-8,1.8c-3.2,0-6-0.6-8.3-1.8
			c-2.3-1.2-4.2-2.5-5.6-4c-0.1-0.1-0.3-0.3-0.4-0.5c-0.1-0.2-0.3-0.3-0.4-0.5c-0.2-0.3-0.4-0.6-0.6-0.8c-0.2-0.3-0.4-0.5-0.6-0.8
			c-1.1-1.7-1.9-3.8-2.3-6.3c-0.4-2.5-0.7-7.1-0.7-13.8c0-6.8,0.2-11.4,0.7-13.9c0.4-2.5,1.2-4.6,2.3-6.3c0.2-0.3,0.4-0.6,0.6-0.8
			c0.2-0.3,0.4-0.5,0.6-0.8c0.1-0.1,0.3-0.3,0.4-0.5c0.1-0.2,0.3-0.3,0.4-0.5c1.4-1.5,3.2-2.8,5.6-4c2.3-1.2,5.1-1.8,8.3-1.8
			c2.9,0,5.5,0.5,7.8,1.6c2.3,1.1,4.5,2.8,6.6,5v-5.9h11.2v54.6c0,8.3-2.4,14.5-7.3,18.4c-4.9,3.9-10.5,5.9-16.9,5.9
			c-0.1,0-0.3,0-0.5,0c-0.2,0-0.3,0-0.5,0c-3.4-0.1-6.7-1.1-10-2.8c-3.3-1.7-6.1-3.9-8.4-6.6l8.7-6.8c1.4,1.3,3,2.5,4.9,3.5
			c1.9,1,3.9,1.5,6,1.5c3.7,0,6.8-1,9.2-3.1c2.4-2.1,3.6-5,3.6-8.8V210.9z M2213,197.1c0.2,1.5,0.6,2.8,1.3,3.8
			c0.1,0.1,0.3,0.3,0.3,0.4c0.1,0.1,0.2,0.3,0.3,0.4c0.1,0.1,0.2,0.3,0.3,0.4c0.1,0.1,0.2,0.2,0.4,0.4c0.8,0.9,1.9,1.7,3.2,2.4
			c1.4,0.7,3,1.1,5,1.1c1.9,0,3.5-0.4,4.9-1.1c1.4-0.7,2.4-1.5,3.2-2.4c0.1-0.1,0.3-0.3,0.4-0.4c0.1-0.1,0.2-0.2,0.3-0.4
			c0.1-0.1,0.3-0.3,0.3-0.4c0.1-0.1,0.2-0.3,0.3-0.4c0.7-1,1.1-2.3,1.3-3.8c0.2-1.5,0.3-4.3,0.3-8.3s-0.1-6.7-0.3-8.3
			c-0.2-1.6-0.6-2.9-1.3-3.9c-0.1-0.1-0.3-0.3-0.3-0.4c-0.1-0.1-0.2-0.3-0.3-0.4c-0.1-0.1-0.2-0.3-0.3-0.4c-0.1-0.1-0.2-0.2-0.4-0.4
			c-0.8-0.9-1.9-1.7-3.2-2.4c-1.4-0.7-3-1.1-4.9-1.1c-2,0-3.6,0.4-5,1.1c-1.4,0.7-2.4,1.5-3.2,2.4c-0.1,0.1-0.3,0.3-0.4,0.4
			c-0.1,0.1-0.2,0.2-0.3,0.4c-0.1,0.1-0.3,0.3-0.3,0.4c-0.1,0.1-0.2,0.3-0.3,0.4c-0.7,1-1.1,2.3-1.3,3.9c-0.2,1.6-0.3,4.3-0.3,8.3
			S2212.8,195.5,2213,197.1z"/>
	</g>
	<g id="XMLID_20_">
		<g id="XMLID_19_">
			<path id="XMLID_169_" fill="#C4C9CA" d="M2240,894.2l-16.2,11.8v-17.3L2240,877h16.3v113.9H2240V894.2z"/>
			<path id="XMLID_167_" fill="#C4C9CA" d="M2297.7,877h60.6v16.3h-45.3V919c2.8-2.1,5.6-3.7,8.6-4.7c2.9-1,6.2-1.5,9.7-1.5
				c4.4,0,8.3,0.8,11.9,2.5c3.6,1.7,6.4,3.6,8.4,5.8c0.2,0.2,0.5,0.5,0.7,0.7c0.3,0.3,0.5,0.6,0.7,0.9c2.6,3,4.5,6.5,5.7,10.5
				c1.2,4,1.8,10.4,1.8,19.1c0,7.4-0.5,12.9-1.5,16.6c-1,3.7-2.7,7.1-5,10.1c-0.1,0.1-0.2,0.2-0.2,0.3c-0.1,0.1-0.1,0.2-0.2,0.3
				c-0.1,0.1-0.2,0.2-0.3,0.4c-0.1,0.2-0.2,0.3-0.3,0.4c-2.5,2.9-5.7,5.5-9.8,7.8c-4.1,2.3-8.8,3.4-14.2,3.4c-0.7,0-1.5,0-2.2-0.1
				c-0.7-0.1-1.4-0.1-2-0.1c-6.7-0.6-13-3.3-18.8-7.9c-5.8-4.6-9.3-11.8-10.3-21.4h16.3c0.9,4.1,2.6,7.3,5.4,9.7
				c2.7,2.4,6.4,3.6,11,3.6c6.5,0,10.7-1.9,12.6-5.8s3-8.1,3.2-12.6c0.1-1.1,0.2-2.1,0.2-3.1c0-1,0-2,0-3c0-6.3-1.1-11.5-3.2-15.7
				c-2.1-4.2-6.6-6.2-13.3-6.2c-3.1,0-5.8,0.7-8.2,2.2c-2.4,1.4-4.6,3.9-6.5,7.3h-15.4V877z"/>
			<path id="XMLID_148_" fill="#C4C9CA" d="M2378.7,891.8c0-5.7,1.5-9.7,4.6-12.2c3.1-2.5,6.6-3.7,10.4-3.7s7.3,1.2,10.4,3.7
				c3.1,2.5,4.6,6.5,4.6,12.2v10.9c0,5.5-1.5,9.6-4.6,12.1c-3.1,2.5-6.6,3.8-10.4,3.8s-7.3-1.3-10.4-3.8c-3.1-2.5-4.6-6.5-4.6-12.1
				V891.8z M2433.7,877h10.6l-53.9,113.9h-10.6L2433.7,877z M2387.8,901.6c0,2.6,0.5,4.5,1.5,5.8c1,1.3,2.5,2,4.4,2s3.4-0.7,4.4-2
				c1-1.3,1.5-3.3,1.5-5.8V893c0-2.6-0.5-4.5-1.5-5.8c-1-1.3-2.5-2-4.4-2s-3.4,0.7-4.4,2c-1,1.3-1.5,3.3-1.5,5.8V901.6z
				 M2415.3,965.1c0-5.7,1.5-9.7,4.6-12.2c3.1-2.5,6.6-3.7,10.4-3.7s7.3,1.2,10.4,3.7c3.1,2.5,4.6,6.5,4.6,12.2V976
				c0,5.5-1.5,9.5-4.6,12c-3.1,2.5-6.6,3.7-10.4,3.7s-7.3-1.2-10.4-3.7c-3.1-2.5-4.6-6.5-4.6-12V965.1z M2424.4,974.9
				c0,2.6,0.5,4.5,1.5,5.8c1,1.3,2.5,2,4.4,2s3.4-0.7,4.4-2c1-1.3,1.5-3.3,1.5-5.8v-8.6c0-2.6-0.5-4.5-1.5-5.8c-1-1.3-2.5-2-4.4-2
				s-3.4,0.7-4.4,2c-1,1.3-1.5,3.3-1.5,5.8V974.9z"/>
		</g>
		<g id="XMLID_3_">
			<path id="XMLID_17_" fill="#3A3C3F" d="M2240,894.2l-16.2,11.8v-17.3L2240,877h16.3v113.9H2240V894.2z"/>
			<path id="XMLID_15_" fill="#3A3C3F" d="M2297.7,877h60.6v16.3h-45.3V919c2.8-2.1,5.6-3.7,8.6-4.7c2.9-1,6.2-1.5,9.7-1.5
				c4.4,0,8.3,0.8,11.9,2.5c3.6,1.7,6.4,3.6,8.4,5.8c0.2,0.2,0.5,0.5,0.7,0.7c0.3,0.3,0.5,0.6,0.7,0.9c2.6,3,4.5,6.5,5.7,10.5
				c1.2,4,1.8,10.4,1.8,19.1c0,7.4-0.5,12.9-1.5,16.6c-1,3.7-2.7,7.1-5,10.1c-0.1,0.1-0.2,0.2-0.2,0.3c-0.1,0.1-0.1,0.2-0.2,0.3
				c-0.1,0.1-0.2,0.2-0.3,0.4c-0.1,0.2-0.2,0.3-0.3,0.4c-2.5,2.9-5.7,5.5-9.8,7.8c-4.1,2.3-8.8,3.4-14.2,3.4c-0.7,0-1.5,0-2.2-0.1
				c-0.7-0.1-1.4-0.1-2-0.1c-6.7-0.6-13-3.3-18.8-7.9c-5.8-4.6-9.3-11.8-10.3-21.4h16.3c0.9,4.1,2.6,7.3,5.4,9.7
				c2.7,2.4,6.4,3.6,11,3.6c6.5,0,10.7-1.9,12.6-5.8s3-8.1,3.2-12.6c0.1-1.1,0.2-2.1,0.2-3.1c0-1,0-2,0-3c0-6.3-1.1-11.5-3.2-15.7
				c-2.1-4.2-6.6-6.2-13.3-6.2c-3.1,0-5.8,0.7-8.2,2.2c-2.4,1.4-4.6,3.9-6.5,7.3h-15.4V877z"/>
			<path id="XMLID_4_" fill="#3A3C3F" d="M2378.7,891.8c0-5.7,1.5-9.7,4.6-12.2c3.1-2.5,6.6-3.7,10.4-3.7s7.3,1.2,10.4,3.7
				c3.1,2.5,4.6,6.5,4.6,12.2v10.9c0,5.5-1.5,9.6-4.6,12.1c-3.1,2.5-6.6,3.8-10.4,3.8s-7.3-1.3-10.4-3.8c-3.1-2.5-4.6-6.5-4.6-12.1
				V891.8z M2433.7,877h10.6l-53.9,113.9h-10.6L2433.7,877z M2387.8,901.6c0,2.6,0.5,4.5,1.5,5.8c1,1.3,2.5,2,4.4,2s3.4-0.7,4.4-2
				c1-1.3,1.5-3.3,1.5-5.8V893c0-2.6-0.5-4.5-1.5-5.8c-1-1.3-2.5-2-4.4-2s-3.4,0.7-4.4,2c-1,1.3-1.5,3.3-1.5,5.8V901.6z
				 M2415.3,965.1c0-5.7,1.5-9.7,4.6-12.2c3.1-2.5,6.6-3.7,10.4-3.7s7.3,1.2,10.4,3.7c3.1,2.5,4.6,6.5,4.6,12.2V976
				c0,5.5-1.5,9.5-4.6,12c-3.1,2.5-6.6,3.7-10.4,3.7s-7.3-1.2-10.4-3.7c-3.1-2.5-4.6-6.5-4.6-12V965.1z M2424.4,974.9
				c0,2.6,0.5,4.5,1.5,5.8c1,1.3,2.5,2,4.4,2s3.4-0.7,4.4-2c1-1.3,1.5-3.3,1.5-5.8v-8.6c0-2.6-0.5-4.5-1.5-5.8c-1-1.3-2.5-2-4.4-2
				s-3.4,0.7-4.4,2c-1,1.3-1.5,3.3-1.5,5.8V974.9z"/>
		</g>
	</g>
	<g id="XMLID_1_">
		<g id="XMLID_227_">
			<path id="XMLID_236_" fill="#C4C9CA" d="M1516.1,943c2.3-4.4,5.7-8.1,9.9-11c-3.3-3.1-6-6.5-8.2-10.2c-2.1-3.7-3.2-8-3.2-12.9
				c0-9.2,3.1-17,9.4-23.4c6.3-6.4,14-9.6,23.2-9.6c9.2,0,16.9,3.2,23.2,9.6c6.3,6.4,9.4,14.2,9.4,23.4c0,4.9-1,9.2-3.1,12.9
				s-4.8,7.1-8.2,10.2c4.4,2.9,7.7,6.5,10,11c2.3,4.4,3.4,9.3,3.4,14.6c0,10-3.4,18.2-10.2,24.6c-6.8,6.3-15,9.5-24.5,9.5
				c-9.4,0-17.5-3.2-24.4-9.5c-6.9-6.3-10.3-14.5-10.3-24.6C1512.6,952.3,1513.8,947.4,1516.1,943z M1534.5,970.4
				c3.7,3.4,8,5.1,12.9,5.1c4.9,0,9.2-1.7,12.9-5.1c3.7-3.4,5.5-7.7,5.5-13c0-5.2-1.8-9.5-5.5-13c-3.7-3.4-8-5.1-12.9-5.1
				c-4.9,0-9.2,1.7-12.9,5.1c-3.7,3.4-5.5,7.7-5.5,13C1528.9,962.7,1530.8,967,1534.5,970.4z M1536.1,920.8
				c3.4,2.8,7.1,4.2,11.3,4.2c4.2,0,7.9-1.4,11.3-4.2c3.4-2.8,5-6.8,5-12.2c0-5.3-1.7-9.4-5-12.2c-3.4-2.8-7.1-4.2-11.3-4.2
				c-4.2,0-7.9,1.4-11.3,4.2c-3.4,2.8-5,6.8-5,12.2C1531,914,1532.7,918,1536.1,920.8z"/>
			<path id="XMLID_234_" fill="#C4C9CA" d="M1597.7,877h60.6v16.3h-45.3V919c2.8-2.1,5.6-3.7,8.6-4.7c2.9-1,6.2-1.5,9.7-1.5
				c4.4,0,8.3,0.8,11.9,2.5c3.6,1.7,6.4,3.6,8.4,5.8c0.2,0.2,0.5,0.5,0.7,0.7c0.3,0.3,0.5,0.6,0.7,0.9c2.6,3,4.5,6.5,5.7,10.5
				c1.2,4,1.8,10.4,1.8,19.1c0,7.4-0.5,12.9-1.5,16.6c-1,3.7-2.7,7.1-5,10.1c-0.1,0.1-0.2,0.2-0.2,0.3c-0.1,0.1-0.1,0.2-0.2,0.3
				c-0.1,0.1-0.2,0.2-0.3,0.4c-0.1,0.2-0.2,0.3-0.3,0.4c-2.5,2.9-5.7,5.5-9.8,7.8c-4.1,2.3-8.8,3.4-14.2,3.4c-0.7,0-1.5,0-2.2-0.1
				c-0.7-0.1-1.4-0.1-2-0.1c-6.7-0.6-13-3.3-18.8-7.9c-5.8-4.6-9.3-11.8-10.3-21.4h16.3c0.9,4.1,2.6,7.3,5.4,9.7
				c2.7,2.4,6.4,3.6,11,3.6c6.5,0,10.7-1.9,12.6-5.8s3-8.1,3.2-12.6c0.1-1.1,0.2-2.1,0.2-3.1c0-1,0-2,0-3c0-6.3-1.1-11.5-3.2-15.7
				c-2.1-4.2-6.6-6.2-13.3-6.2c-3.1,0-5.8,0.7-8.2,2.2c-2.4,1.4-4.6,3.9-6.5,7.3h-15.4V877z"/>
			<path id="XMLID_228_" fill="#C4C9CA" d="M1678.7,891.8c0-5.7,1.5-9.7,4.6-12.2c3.1-2.5,6.6-3.7,10.4-3.7s7.3,1.2,10.4,3.7
				c3.1,2.5,4.6,6.5,4.6,12.2v10.9c0,5.5-1.5,9.6-4.6,12.1c-3.1,2.5-6.6,3.8-10.4,3.8s-7.3-1.3-10.4-3.8c-3.1-2.5-4.6-6.5-4.6-12.1
				V891.8z M1733.7,877h10.6l-53.9,113.9h-10.6L1733.7,877z M1687.8,901.6c0,2.6,0.5,4.5,1.5,5.8c1,1.3,2.5,2,4.4,2s3.4-0.7,4.4-2
				c1-1.3,1.5-3.3,1.5-5.8V893c0-2.6-0.5-4.5-1.5-5.8c-1-1.3-2.5-2-4.4-2s-3.4,0.7-4.4,2c-1,1.3-1.5,3.3-1.5,5.8V901.6z
				 M1715.3,965.1c0-5.7,1.5-9.7,4.6-12.2c3.1-2.5,6.6-3.7,10.4-3.7s7.3,1.2,10.4,3.7c3.1,2.5,4.6,6.5,4.6,12.2V976
				c0,5.5-1.5,9.5-4.6,12c-3.1,2.5-6.6,3.7-10.4,3.7s-7.3-1.2-10.4-3.7c-3.1-2.5-4.6-6.5-4.6-12V965.1z M1724.5,974.9
				c0,2.6,0.5,4.5,1.5,5.8c1,1.3,2.5,2,4.4,2s3.4-0.7,4.4-2c1-1.3,1.5-3.3,1.5-5.8v-8.6c0-2.6-0.5-4.5-1.5-5.8c-1-1.3-2.5-2-4.4-2
				s-3.4,0.7-4.4,2c-1,1.3-1.5,3.3-1.5,5.8V974.9z"/>
		</g>
		<g id="XMLID_214_">
			<path id="XMLID_223_" fill="#ECEDED" d="M1516.1,943c2.3-4.4,5.7-8.1,9.9-11c-3.3-3.1-6-6.5-8.2-10.2c-2.1-3.7-3.2-8-3.2-12.9
				c0-9.2,3.1-17,9.4-23.4c6.3-6.4,14-9.6,23.2-9.6c9.2,0,16.9,3.2,23.2,9.6c6.3,6.4,9.4,14.2,9.4,23.4c0,4.9-1,9.2-3.1,12.9
				s-4.8,7.1-8.2,10.2c4.4,2.9,7.7,6.5,10,11c2.3,4.4,3.4,9.3,3.4,14.6c0,10-3.4,18.2-10.2,24.6c-6.8,6.3-15,9.5-24.5,9.5
				c-9.4,0-17.5-3.2-24.4-9.5c-6.9-6.3-10.3-14.5-10.3-24.6C1512.6,952.3,1513.8,947.4,1516.1,943z M1534.5,970.4
				c3.7,3.4,8,5.1,12.9,5.1c4.9,0,9.2-1.7,12.9-5.1c3.7-3.4,5.5-7.7,5.5-13c0-5.2-1.8-9.5-5.5-13c-3.7-3.4-8-5.1-12.9-5.1
				c-4.9,0-9.2,1.7-12.9,5.1c-3.7,3.4-5.5,7.7-5.5,13C1528.9,962.7,1530.8,967,1534.5,970.4z M1536.1,920.8
				c3.4,2.8,7.1,4.2,11.3,4.2c4.2,0,7.9-1.4,11.3-4.2c3.4-2.8,5-6.8,5-12.2c0-5.3-1.7-9.4-5-12.2c-3.4-2.8-7.1-4.2-11.3-4.2
				c-4.2,0-7.9,1.4-11.3,4.2c-3.4,2.8-5,6.8-5,12.2C1531,914,1532.7,918,1536.1,920.8z"/>
			<path id="XMLID_221_" fill="#ECEDED" d="M1597.7,877h60.6v16.3h-45.3V919c2.8-2.1,5.6-3.7,8.6-4.7c2.9-1,6.2-1.5,9.7-1.5
				c4.4,0,8.3,0.8,11.9,2.5c3.6,1.7,6.4,3.6,8.4,5.8c0.2,0.2,0.5,0.5,0.7,0.7c0.3,0.3,0.5,0.6,0.7,0.9c2.6,3,4.5,6.5,5.7,10.5
				c1.2,4,1.8,10.4,1.8,19.1c0,7.4-0.5,12.9-1.5,16.6c-1,3.7-2.7,7.1-5,10.1c-0.1,0.1-0.2,0.2-0.2,0.3c-0.1,0.1-0.1,0.2-0.2,0.3
				c-0.1,0.1-0.2,0.2-0.3,0.4c-0.1,0.2-0.2,0.3-0.3,0.4c-2.5,2.9-5.7,5.5-9.8,7.8c-4.1,2.3-8.8,3.4-14.2,3.4c-0.7,0-1.5,0-2.2-0.1
				c-0.7-0.1-1.4-0.1-2-0.1c-6.7-0.6-13-3.3-18.8-7.9c-5.8-4.6-9.3-11.8-10.3-21.4h16.3c0.9,4.1,2.6,7.3,5.4,9.7
				c2.7,2.4,6.4,3.6,11,3.6c6.5,0,10.7-1.9,12.6-5.8s3-8.1,3.2-12.6c0.1-1.1,0.2-2.1,0.2-3.1c0-1,0-2,0-3c0-6.3-1.1-11.5-3.2-15.7
				c-2.1-4.2-6.6-6.2-13.3-6.2c-3.1,0-5.8,0.7-8.2,2.2c-2.4,1.4-4.6,3.9-6.5,7.3h-15.4V877z"/>
			<path id="XMLID_215_" fill="#ECEDED" d="M1678.7,891.8c0-5.7,1.5-9.7,4.6-12.2c3.1-2.5,6.6-3.7,10.4-3.7s7.3,1.2,10.4,3.7
				c3.1,2.5,4.6,6.5,4.6,12.2v10.9c0,5.5-1.5,9.6-4.6,12.1c-3.1,2.5-6.6,3.8-10.4,3.8s-7.3-1.3-10.4-3.8c-3.1-2.5-4.6-6.5-4.6-12.1
				V891.8z M1733.7,877h10.6l-53.9,113.9h-10.6L1733.7,877z M1687.8,901.6c0,2.6,0.5,4.5,1.5,5.8c1,1.3,2.5,2,4.4,2s3.4-0.7,4.4-2
				c1-1.3,1.5-3.3,1.5-5.8V893c0-2.6-0.5-4.5-1.5-5.8c-1-1.3-2.5-2-4.4-2s-3.4,0.7-4.4,2c-1,1.3-1.5,3.3-1.5,5.8V901.6z
				 M1715.3,965.1c0-5.7,1.5-9.7,4.6-12.2c3.1-2.5,6.6-3.7,10.4-3.7s7.3,1.2,10.4,3.7c3.1,2.5,4.6,6.5,4.6,12.2V976
				c0,5.5-1.5,9.5-4.6,12c-3.1,2.5-6.6,3.7-10.4,3.7s-7.3-1.2-10.4-3.7c-3.1-2.5-4.6-6.5-4.6-12V965.1z M1724.5,974.9
				c0,2.6,0.5,4.5,1.5,5.8c1,1.3,2.5,2,4.4,2s3.4-0.7,4.4-2c1-1.3,1.5-3.3,1.5-5.8v-8.6c0-2.6-0.5-4.5-1.5-5.8c-1-1.3-2.5-2-4.4-2
				s-3.4,0.7-4.4,2c-1,1.3-1.5,3.3-1.5,5.8V974.9z"/>
		</g>
	</g>
</g>
</svg>
