<?xml version="1.0" encoding="utf-8"?>
<!-- Generator: Adobe Illustrator 19.0.0, SVG Export Plug-In . SVG Version: 6.00 Build 0)  -->
<svg version="1.2" baseProfile="tiny" xmlns="http://www.w3.org/2000/svg" xmlns:xlink="http://www.w3.org/1999/xlink" x="0px"
	 y="0px" width="3812px" height="1010.7px" viewBox="0 0 3812 1010.7" xml:space="preserve">
<g id="achterWebsite">
</g>
<g id="achterGroen">
	<rect id="XMLID_4501_" y="0" fill="#C2DF8A" width="3812" height="1010.7"/>
</g>
<g id="Laag_1">
</g>
<g id="nrs">
	<g id="XMLID_5060_">
		<path id="XMLID_5065_" fill="#BCD28F" d="M0.4,7.5h738.3l159.1,205.2C978.3,316.5,1153.9,383,1347.2,383h565.4v52.6h-565.4
			c-193.3,0-368.9-39.9-449.4-102.2L643,136.2H0.4V7.5z"/>
		<path id="XMLID_5064_" fill="#BCD28F" d="M0.4,388.4H643v-1.3l254.8,66.4c80.5,21,256.1,34.4,449.4,34.4h565.4v53.1h-565.4
			c-193.3,0-368.9,13.4-449.4,34.4L643,641.9v-1.3H0.4V388.4z"/>
		<path id="XMLID_5063_" fill="#CFE3AA" d="M643,136.2L643,136.2l254.8,197.2c80.5,62.3,256.1,102.2,449.4,102.2h565.4v52.6h-565.4
			c-193.3,0-368.9-13.3-449.4-34.1L643,388.4v0H0l0-252.2H643z"/>
		<path id="XMLID_5062_" fill="#CFE3AA" d="M643,640.6L643,640.6l254.8-65.7c80.5-20.8,256.1-34.1,449.4-34.1h565.4v52.6h-565.4
			c-193.3,0-368.9,39.9-449.4,102.2L643,892.8v0H0l0-252.2H643z"/>
		<path id="XMLID_5061_" fill="#BCD28F" d="M643,892.7l254.8-197.2c80.5-62.3,256.1-102.2,449.4-102.2h565.4v52.6h-565.4
			c-193.3,0-368.9,66.6-449.4,170.3l-156.6,201.9H0.4V892.7H643z"/>
	</g>
	<g id="XMLID_160_">
		<path id="XMLID_408_" fill="#BCD28F" d="M3811.6,7.5h-738.3l-159.1,205.2C2833.7,316.5,2658.1,383,2464.8,383h-565.4v52.6h565.4
			c193.3,0,368.9-39.9,449.4-102.2L3169,136.2h642.6V7.5z"/>
		<path id="XMLID_407_" fill="#BCD28F" d="M3811.6,388.4H3169v-1.3l-254.8,66.4c-80.5,21-256.1,34.4-449.4,34.4h-565.4v53.1h565.4
			c193.3,0,368.9,13.4,449.4,34.4l254.8,66.4v-1.3h642.6V388.4z"/>
		<path id="XMLID_163_" fill="#CFE3AA" d="M3169,136.2L3169,136.2l-254.8,197.2c-80.5,62.3-256.1,102.2-449.4,102.2h-565.4v52.6
			h565.4c193.3,0,368.9-13.3,449.4-34.1l254.8-65.7v0h643V136.2H3169z"/>
		<path id="XMLID_162_" fill="#CFE3AA" d="M3169,640.6L3169,640.6l-254.8-65.7c-80.5-20.8-256.1-34.1-449.4-34.1h-565.4v52.6h565.4
			c193.3,0,368.9,39.9,449.4,102.2L3169,892.8v0h643V640.6H3169z"/>
		<path id="XMLID_161_" fill="#BCD28F" d="M3169,892.7l-254.8-197.2c-80.5-62.3-256.1-102.2-449.4-102.2h-565.4v52.6h565.4
			c193.3,0,368.9,66.6,449.4,170.3l156.6,201.9h740.8V892.7H3169z"/>
	</g>
	<g id="XMLID_107_">
		<g id="XMLID_5054_">
			
				<path id="XMLID_5058_" fill="#FFFFFF" stroke="#1E1D21" stroke-width="4.6549" stroke-linecap="round" stroke-linejoin="round" stroke-miterlimit="10" d="
				M3761.5,544.4h-229.2c-5.8,0-10.4-4.7-10.4-10.4v-339c0-5.8,4.7-10.4,10.4-10.4h229.2c5.8,0,10.4,4.7,10.4,10.4v339
				C3772,539.7,3767.3,544.4,3761.5,544.4z"/>
			
				<rect id="XMLID_5057_" x="3541.7" y="222.6" fill="none" stroke="#1E1D21" stroke-width="4.6549" stroke-linecap="round" stroke-linejoin="round" stroke-miterlimit="10" width="210.4" height="279.7"/>
			
				<circle id="XMLID_5056_" fill="#FFFFFF" stroke="#C4C9CA" stroke-width="4.6549" stroke-linecap="round" stroke-linejoin="round" stroke-miterlimit="10" cx="3639.9" cy="523" r="9"/>
			<circle id="XMLID_5055_" fill="#C4C9CA" cx="3639.9" cy="202.7" r="4.5"/>
		</g>
		<g id="XMLID_5030_">
			<g id="XMLID_150_">
				<path id="XMLID_156_" fill="#A7B9C0" d="M3576.9,261.2h-9.7c-2.9,0-5.2-2.3-5.2-5.2v-9.7c0-2.9,2.3-5.2,5.2-5.2h9.7
					c2.9,0,5.2,2.3,5.2,5.2v9.7C3582.1,258.9,3579.8,261.2,3576.9,261.2z"/>
				<path id="XMLID_155_" fill="#A7B9C0" d="M3614.1,261.2h-9.7c-2.9,0-5.2-2.3-5.2-5.2v-9.7c0-2.9,2.3-5.2,5.2-5.2h9.7
					c2.9,0,5.2,2.3,5.2,5.2v9.7C3619.3,258.9,3617,261.2,3614.1,261.2z"/>
				<path id="XMLID_154_" fill="#A7B9C0" d="M3651.3,261.2h-9.7c-2.9,0-5.2-2.3-5.2-5.2v-9.7c0-2.9,2.3-5.2,5.2-5.2h9.7
					c2.9,0,5.2,2.3,5.2,5.2v9.7C3656.5,258.9,3654.1,261.2,3651.3,261.2z"/>
				<path id="XMLID_152_" fill="#A7B9C0" d="M3688.4,261.2h-9.7c-2.9,0-5.2-2.3-5.2-5.2v-9.7c0-2.9,2.3-5.2,5.2-5.2h9.7
					c2.9,0,5.2,2.3,5.2,5.2v9.7C3693.7,258.9,3691.3,261.2,3688.4,261.2z"/>
				<path id="XMLID_151_" fill="#A7B9C0" d="M3725.6,261.2h-9.7c-2.9,0-5.2-2.3-5.2-5.2v-9.7c0-2.9,2.3-5.2,5.2-5.2h9.7
					c2.9,0,5.2,2.3,5.2,5.2v9.7C3730.8,258.9,3728.5,261.2,3725.6,261.2z"/>
			</g>
			<g id="XMLID_21_">
				<path id="XMLID_138_" fill="#A7B9C0" d="M3576.9,261.2h-9.7c-2.9,0-5.2-2.3-5.2-5.2v-9.7c0-2.9,2.3-5.2,5.2-5.2h9.7
					c2.9,0,5.2,2.3,5.2,5.2v9.7C3582.1,258.9,3579.8,261.2,3576.9,261.2z"/>
				<path id="XMLID_25_" fill="#A7B9C0" d="M3614.1,261.2h-9.7c-2.9,0-5.2-2.3-5.2-5.2v-9.7c0-2.9,2.3-5.2,5.2-5.2h9.7
					c2.9,0,5.2,2.3,5.2,5.2v9.7C3619.3,258.9,3617,261.2,3614.1,261.2z"/>
				<path id="XMLID_24_" fill="#A7B9C0" d="M3651.3,261.2h-9.7c-2.9,0-5.2-2.3-5.2-5.2v-9.7c0-2.9,2.3-5.2,5.2-5.2h9.7
					c2.9,0,5.2,2.3,5.2,5.2v9.7C3656.5,258.9,3654.1,261.2,3651.3,261.2z"/>
				<path id="XMLID_23_" fill="#A7B9C0" d="M3688.4,261.2h-9.7c-2.9,0-5.2-2.3-5.2-5.2v-9.7c0-2.9,2.3-5.2,5.2-5.2h9.7
					c2.9,0,5.2,2.3,5.2,5.2v9.7C3693.7,258.9,3691.3,261.2,3688.4,261.2z"/>
				<path id="XMLID_22_" fill="#A7B9C0" d="M3725.6,261.2h-9.7c-2.9,0-5.2-2.3-5.2-5.2v-9.7c0-2.9,2.3-5.2,5.2-5.2h9.7
					c2.9,0,5.2,2.3,5.2,5.2v9.7C3730.8,258.9,3728.5,261.2,3725.6,261.2z"/>
			</g>
		</g>
		<g id="XMLID_5006_">
			<g id="XMLID_171_">
				<path id="XMLID_246_" fill="#A7B9C0" d="M3576.9,294.8h-9.7c-2.9,0-5.2-2.3-5.2-5.2v-9.7c0-2.9,2.3-5.2,5.2-5.2h9.7
					c2.9,0,5.2,2.3,5.2,5.2v9.7C3582.1,292.5,3579.8,294.8,3576.9,294.8z"/>
				<path id="XMLID_183_" fill="#A7B9C0" d="M3614.1,294.8h-9.7c-2.9,0-5.2-2.3-5.2-5.2v-9.7c0-2.9,2.3-5.2,5.2-5.2h9.7
					c2.9,0,5.2,2.3,5.2,5.2v9.7C3619.3,292.5,3617,294.8,3614.1,294.8z"/>
				<path id="XMLID_182_" fill="#A7B9C0" d="M3651.3,294.8h-9.7c-2.9,0-5.2-2.3-5.2-5.2v-9.7c0-2.9,2.3-5.2,5.2-5.2h9.7
					c2.9,0,5.2,2.3,5.2,5.2v9.7C3656.5,292.5,3654.1,294.8,3651.3,294.8z"/>
				<path id="XMLID_181_" fill="#A7B9C0" d="M3688.4,294.8h-9.7c-2.9,0-5.2-2.3-5.2-5.2v-9.7c0-2.9,2.3-5.2,5.2-5.2h9.7
					c2.9,0,5.2,2.3,5.2,5.2v9.7C3693.7,292.5,3691.3,294.8,3688.4,294.8z"/>
				<path id="XMLID_180_" fill="#A7B9C0" d="M3725.6,294.8h-9.7c-2.9,0-5.2-2.3-5.2-5.2v-9.7c0-2.9,2.3-5.2,5.2-5.2h9.7
					c2.9,0,5.2,2.3,5.2,5.2v9.7C3730.8,292.5,3728.5,294.8,3725.6,294.8z"/>
			</g>
			<g id="XMLID_16_">
				<path id="XMLID_139_" fill="#A7B9C0" d="M3576.9,294.8h-9.7c-2.9,0-5.2-2.3-5.2-5.2v-9.7c0-2.9,2.3-5.2,5.2-5.2h9.7
					c2.9,0,5.2,2.3,5.2,5.2v9.7C3582.1,292.5,3579.8,294.8,3576.9,294.8z"/>
				<path id="XMLID_20_" fill="#A7B9C0" d="M3614.1,294.8h-9.7c-2.9,0-5.2-2.3-5.2-5.2v-9.7c0-2.9,2.3-5.2,5.2-5.2h9.7
					c2.9,0,5.2,2.3,5.2,5.2v9.7C3619.3,292.5,3617,294.8,3614.1,294.8z"/>
				<path id="XMLID_19_" fill="#A7B9C0" d="M3651.3,294.8h-9.7c-2.9,0-5.2-2.3-5.2-5.2v-9.7c0-2.9,2.3-5.2,5.2-5.2h9.7
					c2.9,0,5.2,2.3,5.2,5.2v9.7C3656.5,292.5,3654.1,294.8,3651.3,294.8z"/>
				<path id="XMLID_18_" fill="#A7B9C0" d="M3688.4,294.8h-9.7c-2.9,0-5.2-2.3-5.2-5.2v-9.7c0-2.9,2.3-5.2,5.2-5.2h9.7
					c2.9,0,5.2,2.3,5.2,5.2v9.7C3693.7,292.5,3691.3,294.8,3688.4,294.8z"/>
				<path id="XMLID_17_" fill="#A7B9C0" d="M3725.6,294.8h-9.7c-2.9,0-5.2-2.3-5.2-5.2v-9.7c0-2.9,2.3-5.2,5.2-5.2h9.7
					c2.9,0,5.2,2.3,5.2,5.2v9.7C3730.8,292.5,3728.5,294.8,3725.6,294.8z"/>
			</g>
		</g>
		<g id="XMLID_4982_">
			<g id="XMLID_290_">
				<path id="XMLID_336_" fill="#A7B9C0" d="M3576.9,328.5h-9.7c-2.9,0-5.2-2.3-5.2-5.2v-9.7c0-2.9,2.3-5.2,5.2-5.2h9.7
					c2.9,0,5.2,2.3,5.2,5.2v9.7C3582.1,326.1,3579.8,328.5,3576.9,328.5z"/>
				<path id="XMLID_335_" fill="#A7B9C0" d="M3614.1,328.5h-9.7c-2.9,0-5.2-2.3-5.2-5.2v-9.7c0-2.9,2.3-5.2,5.2-5.2h9.7
					c2.9,0,5.2,2.3,5.2,5.2v9.7C3619.3,326.1,3617,328.5,3614.1,328.5z"/>
				<path id="XMLID_334_" fill="#A7B9C0" d="M3651.3,328.5h-9.7c-2.9,0-5.2-2.3-5.2-5.2v-9.7c0-2.9,2.3-5.2,5.2-5.2h9.7
					c2.9,0,5.2,2.3,5.2,5.2v9.7C3656.5,326.1,3654.1,328.5,3651.3,328.5z"/>
				<path id="XMLID_331_" fill="#A7B9C0" d="M3688.4,328.5h-9.7c-2.9,0-5.2-2.3-5.2-5.2v-9.7c0-2.9,2.3-5.2,5.2-5.2h9.7
					c2.9,0,5.2,2.3,5.2,5.2v9.7C3693.7,326.1,3691.3,328.5,3688.4,328.5z"/>
				<path id="XMLID_298_" fill="#A7B9C0" d="M3725.6,328.5h-9.7c-2.9,0-5.2-2.3-5.2-5.2v-9.7c0-2.9,2.3-5.2,5.2-5.2h9.7
					c2.9,0,5.2,2.3,5.2,5.2v9.7C3730.8,326.1,3728.5,328.5,3725.6,328.5z"/>
			</g>
			<g id="XMLID_6_">
				<path id="XMLID_142_" fill="#A7B9C0" d="M3576.9,328.5h-9.7c-2.9,0-5.2-2.3-5.2-5.2v-9.7c0-2.9,2.3-5.2,5.2-5.2h9.7
					c2.9,0,5.2,2.3,5.2,5.2v9.7C3582.1,326.1,3579.8,328.5,3576.9,328.5z"/>
				<path id="XMLID_15_" fill="#A7B9C0" d="M3614.1,328.5h-9.7c-2.9,0-5.2-2.3-5.2-5.2v-9.7c0-2.9,2.3-5.2,5.2-5.2h9.7
					c2.9,0,5.2,2.3,5.2,5.2v9.7C3619.3,326.1,3617,328.5,3614.1,328.5z"/>
				<path id="XMLID_9_" fill="#A7B9C0" d="M3651.3,328.5h-9.7c-2.9,0-5.2-2.3-5.2-5.2v-9.7c0-2.9,2.3-5.2,5.2-5.2h9.7
					c2.9,0,5.2,2.3,5.2,5.2v9.7C3656.5,326.1,3654.1,328.5,3651.3,328.5z"/>
				<path id="XMLID_8_" fill="#A7B9C0" d="M3688.4,328.5h-9.7c-2.9,0-5.2-2.3-5.2-5.2v-9.7c0-2.9,2.3-5.2,5.2-5.2h9.7
					c2.9,0,5.2,2.3,5.2,5.2v9.7C3693.7,326.1,3691.3,328.5,3688.4,328.5z"/>
				<path id="XMLID_7_" fill="#A7B9C0" d="M3725.6,328.5h-9.7c-2.9,0-5.2-2.3-5.2-5.2v-9.7c0-2.9,2.3-5.2,5.2-5.2h9.7
					c2.9,0,5.2,2.3,5.2,5.2v9.7C3730.8,326.1,3728.5,328.5,3725.6,328.5z"/>
			</g>
		</g>
		<g id="XMLID_4958_">
			<g id="XMLID_309_">
				<path id="XMLID_322_" fill="#A7B9C0" d="M3576.9,362.1h-9.7c-2.9,0-5.2-2.3-5.2-5.2v-9.7c0-2.9,2.3-5.2,5.2-5.2h9.7
					c2.9,0,5.2,2.3,5.2,5.2v9.7C3582.1,359.8,3579.8,362.1,3576.9,362.1z"/>
				<path id="XMLID_313_" fill="#A7B9C0" d="M3614.1,362.1h-9.7c-2.9,0-5.2-2.3-5.2-5.2v-9.7c0-2.9,2.3-5.2,5.2-5.2h9.7
					c2.9,0,5.2,2.3,5.2,5.2v9.7C3619.3,359.8,3617,362.1,3614.1,362.1z"/>
				<path id="XMLID_312_" fill="#A7B9C0" d="M3651.3,362.1h-9.7c-2.9,0-5.2-2.3-5.2-5.2v-9.7c0-2.9,2.3-5.2,5.2-5.2h9.7
					c2.9,0,5.2,2.3,5.2,5.2v9.7C3656.5,359.8,3654.1,362.1,3651.3,362.1z"/>
				<path id="XMLID_311_" fill="#A7B9C0" d="M3688.4,362.1h-9.7c-2.9,0-5.2-2.3-5.2-5.2v-9.7c0-2.9,2.3-5.2,5.2-5.2h9.7
					c2.9,0,5.2,2.3,5.2,5.2v9.7C3693.7,359.8,3691.3,362.1,3688.4,362.1z"/>
				<path id="XMLID_310_" fill="#A7B9C0" d="M3725.6,362.1h-9.7c-2.9,0-5.2-2.3-5.2-5.2v-9.7c0-2.9,2.3-5.2,5.2-5.2h9.7
					c2.9,0,5.2,2.3,5.2,5.2v9.7C3730.8,359.8,3728.5,362.1,3725.6,362.1z"/>
			</g>
			<g id="XMLID_4_">
				<path id="XMLID_140_" fill="#A7B9C0" d="M3576.9,362.1h-9.7c-2.9,0-5.2-2.3-5.2-5.2v-9.7c0-2.9,2.3-5.2,5.2-5.2h9.7
					c2.9,0,5.2,2.3,5.2,5.2v9.7C3582.1,359.8,3579.8,362.1,3576.9,362.1z"/>
				<path id="XMLID_12_" fill="#A7B9C0" d="M3614.1,362.1h-9.7c-2.9,0-5.2-2.3-5.2-5.2v-9.7c0-2.9,2.3-5.2,5.2-5.2h9.7
					c2.9,0,5.2,2.3,5.2,5.2v9.7C3619.3,359.8,3617,362.1,3614.1,362.1z"/>
				<path id="XMLID_11_" fill="#A7B9C0" d="M3651.3,362.1h-9.7c-2.9,0-5.2-2.3-5.2-5.2v-9.7c0-2.9,2.3-5.2,5.2-5.2h9.7
					c2.9,0,5.2,2.3,5.2,5.2v9.7C3656.5,359.8,3654.1,362.1,3651.3,362.1z"/>
				<path id="XMLID_10_" fill="#A7B9C0" d="M3688.4,362.1h-9.7c-2.9,0-5.2-2.3-5.2-5.2v-9.7c0-2.9,2.3-5.2,5.2-5.2h9.7
					c2.9,0,5.2,2.3,5.2,5.2v9.7C3693.7,359.8,3691.3,362.1,3688.4,362.1z"/>
				<path id="XMLID_5_" fill="#A7B9C0" d="M3725.6,362.1h-9.7c-2.9,0-5.2-2.3-5.2-5.2v-9.7c0-2.9,2.3-5.2,5.2-5.2h9.7
					c2.9,0,5.2,2.3,5.2,5.2v9.7C3730.8,359.8,3728.5,362.1,3725.6,362.1z"/>
			</g>
		</g>
		<g id="XMLID_4934_">
			<g id="XMLID_303_">
				<path id="XMLID_308_" fill="#A7B9C0" d="M3576.9,395.8h-9.7c-2.9,0-5.2-2.3-5.2-5.2v-9.7c0-2.9,2.3-5.2,5.2-5.2h9.7
					c2.9,0,5.2,2.3,5.2,5.2v9.7C3582.1,393.4,3579.8,395.8,3576.9,395.8z"/>
				<path id="XMLID_307_" fill="#A7B9C0" d="M3614.1,395.8h-9.7c-2.9,0-5.2-2.3-5.2-5.2v-9.7c0-2.9,2.3-5.2,5.2-5.2h9.7
					c2.9,0,5.2,2.3,5.2,5.2v9.7C3619.3,393.4,3617,395.8,3614.1,395.8z"/>
				<path id="XMLID_306_" fill="#A7B9C0" d="M3651.3,395.8h-9.7c-2.9,0-5.2-2.3-5.2-5.2v-9.7c0-2.9,2.3-5.2,5.2-5.2h9.7
					c2.9,0,5.2,2.3,5.2,5.2v9.7C3656.5,393.4,3654.1,395.8,3651.3,395.8z"/>
				<path id="XMLID_305_" fill="#A7B9C0" d="M3688.4,395.8h-9.7c-2.9,0-5.2-2.3-5.2-5.2v-9.7c0-2.9,2.3-5.2,5.2-5.2h9.7
					c2.9,0,5.2,2.3,5.2,5.2v9.7C3693.7,393.4,3691.3,395.8,3688.4,395.8z"/>
				<path id="XMLID_304_" fill="#A7B9C0" d="M3725.6,395.8h-9.7c-2.9,0-5.2-2.3-5.2-5.2v-9.7c0-2.9,2.3-5.2,5.2-5.2h9.7
					c2.9,0,5.2,2.3,5.2,5.2v9.7C3730.8,393.4,3728.5,395.8,3725.6,395.8z"/>
			</g>
			<g id="XMLID_274_">
				<path id="XMLID_302_" fill="#A7B9C0" d="M3576.9,395.8h-9.7c-2.9,0-5.2-2.3-5.2-5.2v-9.7c0-2.9,2.3-5.2,5.2-5.2h9.7
					c2.9,0,5.2,2.3,5.2,5.2v9.7C3582.1,393.4,3579.8,395.8,3576.9,395.8z"/>
				<path id="XMLID_301_" fill="#A7B9C0" d="M3614.1,395.8h-9.7c-2.9,0-5.2-2.3-5.2-5.2v-9.7c0-2.9,2.3-5.2,5.2-5.2h9.7
					c2.9,0,5.2,2.3,5.2,5.2v9.7C3619.3,393.4,3617,395.8,3614.1,395.8z"/>
				<path id="XMLID_300_" fill="#A7B9C0" d="M3651.3,395.8h-9.7c-2.9,0-5.2-2.3-5.2-5.2v-9.7c0-2.9,2.3-5.2,5.2-5.2h9.7
					c2.9,0,5.2,2.3,5.2,5.2v9.7C3656.5,393.4,3654.1,395.8,3651.3,395.8z"/>
				<path id="XMLID_299_" fill="#A7B9C0" d="M3688.4,395.8h-9.7c-2.9,0-5.2-2.3-5.2-5.2v-9.7c0-2.9,2.3-5.2,5.2-5.2h9.7
					c2.9,0,5.2,2.3,5.2,5.2v9.7C3693.7,393.4,3691.3,395.8,3688.4,395.8z"/>
				<path id="XMLID_297_" fill="#A7B9C0" d="M3725.6,395.8h-9.7c-2.9,0-5.2-2.3-5.2-5.2v-9.7c0-2.9,2.3-5.2,5.2-5.2h9.7
					c2.9,0,5.2,2.3,5.2,5.2v9.7C3730.8,393.4,3728.5,395.8,3725.6,395.8z"/>
			</g>
		</g>
		<g id="XMLID_4930_">
			<path id="XMLID_4933_" fill="#A7B9C0" d="M3614.1,475.2h-9.7c-2.9,0-5.2-2.3-5.2-5.2v-9.7c0-2.9,2.3-5.2,5.2-5.2h9.7
				c2.9,0,5.2,2.3,5.2,5.2v9.7C3619.4,472.9,3617,475.2,3614.1,475.2z"/>
			<path id="XMLID_4932_" fill="#A7B9C0" d="M3688.5,475.2h-9.7c-2.9,0-5.2-2.3-5.2-5.2v-9.7c0-2.9,2.3-5.2,5.2-5.2h9.7
				c2.9,0,5.2,2.3,5.2,5.2v9.7C3693.7,472.9,3691.4,475.2,3688.5,475.2z"/>
			<path id="XMLID_4931_" fill="#A7B9C0" d="M3651.3,475.2h-9.7c-2.9,0-5.2-2.3-5.2-5.2v-9.7c0-2.9,2.3-5.2,5.2-5.2h9.7
				c2.9,0,5.2,2.3,5.2,5.2v9.7C3656.5,472.9,3654.2,475.2,3651.3,475.2z"/>
		</g>
	</g>
	<circle id="XMLID_5059_" fill="#DCE3E6" cx="480.2" cy="469.8" r="393.8"/>
	
		<line id="XMLID_4910_" fill="none" stroke="#1E1D21" stroke-width="5" stroke-linecap="round" stroke-linejoin="round" stroke-miterlimit="10" x1="870.4" y1="467.3" x2="767.2" y2="467.3"/>
	<path id="XMLID_2983_" fill="#A7B9C0" d="M480.2,75.7C263.9,75.7,88.6,251,88.6,467.3s175.3,391.6,391.6,391.6V75.7z"/>
	
		<path id="XMLID_2982_" fill="none" stroke="#1E1D21" stroke-width="5" stroke-linecap="round" stroke-linejoin="round" stroke-miterlimit="10" d="
		M204.4,722.5c67.7-33.1,159.8-54.1,261.9-55.8"/>
	
		<path id="XMLID_113_" fill="none" stroke="#1E1D21" stroke-width="5" stroke-linecap="round" stroke-linejoin="round" stroke-miterlimit="10" d="
		M496.2,666.7c28.2,0.6,56.4,2.6,84.5,6.2c26,3.4,51.8,8.2,77.2,14.5c13.4,3.4,26.6,7.2,39.7,11.5"/>
	
		<path id="XMLID_2980_" fill="none" stroke="#1E1D21" stroke-width="5" stroke-linecap="round" stroke-linejoin="round" stroke-miterlimit="10" d="
		M760.3,212C693.7,245.6,601.9,266.7,498,268"/>
	
		<path id="XMLID_2979_" fill="none" stroke="#1E1D21" stroke-width="5" stroke-linecap="round" stroke-linejoin="round" stroke-miterlimit="10" d="
		M466.4,268c-104.6-1.3-198-22.7-265.7-56.7"/>
	
		<path id="XMLID_2978_" fill="none" stroke="#1E1D21" stroke-width="5" stroke-linecap="round" stroke-linejoin="round" stroke-miterlimit="10" d="
		M508.4,843.1c57.7-34.2,106.7-83.7,142.3-143.5"/>
	
		<path id="XMLID_2977_" fill="none" stroke="#1E1D21" stroke-width="5" stroke-linecap="round" stroke-linejoin="round" stroke-miterlimit="10" d="
		M307.5,695.9c35.8,61.6,85.7,112.5,144.7,147.4"/>
	
		<path id="XMLID_2976_" fill="none" stroke="#1E1D21" stroke-width="5" stroke-linecap="round" stroke-linejoin="round" stroke-miterlimit="10" d="
		M295.8,260.1c-31.2,61.4-49,132-49,207.2c0,76.2,18.3,147.8,50.4,209.8"/>
	
		<path id="XMLID_2850_" fill="none" stroke="#1E1D21" stroke-width="5" stroke-linecap="round" stroke-linejoin="round" stroke-miterlimit="10" d="
		M452,93.1c-58.3,33.5-103.8,78.5-140.1,138.1"/>
	
		<path id="XMLID_2837_" fill="none" stroke="#1E1D21" stroke-width="5" stroke-linecap="round" stroke-linejoin="round" stroke-miterlimit="10" d="
		M650.4,234.4c-36-60.3-85.6-110.1-144-144.2"/>
	
		<line id="XMLID_2824_" fill="none" stroke="#1E1D21" stroke-width="5" stroke-linecap="round" stroke-linejoin="round" stroke-miterlimit="10" x1="480.2" y1="450" x2="480.2" y2="92.1"/>
	
		<line id="XMLID_2823_" fill="none" stroke="#1E1D21" stroke-width="5" stroke-linecap="round" stroke-linejoin="round" stroke-miterlimit="10" x1="480.2" y1="842.4" x2="480.2" y2="487"/>
	
		<line id="XMLID_2822_" fill="none" stroke="#1E1D21" stroke-width="5" stroke-linecap="round" stroke-linejoin="round" stroke-miterlimit="10" x1="265.3" y1="467.3" x2="616.8" y2="467.3"/>
	
		<line id="XMLID_2821_" fill="none" stroke="#1E1D21" stroke-width="5" stroke-linecap="round" stroke-linejoin="round" stroke-miterlimit="10" x1="90" y1="467.3" x2="229.4" y2="467.3"/>
	
		<path id="XMLID_2820_" fill="none" stroke="#1E1D21" stroke-width="5" stroke-linecap="round" stroke-linejoin="round" stroke-miterlimit="10" d="
		M810.1,256.2c39,60.9,61.7,133.3,61.7,211.1c0,77.4-19.2,153.5-77.3,241.3"/>
	
		<path id="XMLID_112_" fill="none" stroke="#1E1D21" stroke-width="5" stroke-linecap="round" stroke-linejoin="round" stroke-miterlimit="10" d="
		M742.4,758.1c-15.6,14.1-31.6,26.1-49.6,39.1c-19,12-37,21-56,30c-34,15-70,25-107,30c-28,3-54,4-82,1c-39-5-77-12-114-26
		c-59-23-109-59-151-107c-30-35-51-74-68-116c-14-34-23-69-26-106c-3-41-2-81,8-123c2-9,5-18,7-27c16-52,41-98,76-140
		c41-48,91-82,147-108c6-3,11-4,17-7c2-1,3,0,5-1c61-25,128-28,194-18c51,8,95,25,140,52c12,7,44,31,49,35c12,11,24,20,34.2,32.8"/>
	
		<path id="XMLID_206_" fill="none" stroke="#1E1D21" stroke-width="5" stroke-linecap="round" stroke-linejoin="round" stroke-miterlimit="10" d="
		M669.6,664.3c-2,4.3-4.1,8.5-6.3,12.7"/>
	
		<path id="XMLID_118_" fill="none" stroke="#1E1D21" stroke-width="5" stroke-linecap="round" stroke-linejoin="round" stroke-miterlimit="10" d="
		M664.6,260.1c4.8,9.5,9.3,19.2,13.4,29"/>
	<g id="XMLID_2984_">
		<g id="XMLID_4594_">
			<g id="XMLID_4595_">
				<g id="XMLID_4878_">
					<polygon id="XMLID_296_" fill="#C4C9CA" points="800.2,212.4 885.6,175.2 992.5,262 940.3,326.3 					"/>
					<path id="XMLID_196_" fill="#FFFFFF" d="M885.2,178.1L989,262.4l-49,60.3L805,213.1L885.2,178.1 M886,172.3l-90.5,39.5
						l145.2,118l55.3-68.1L886,172.3L886,172.3z"/>
					<path id="XMLID_168_" fill="#1D1C20" d="M886,172.3l110,89.4l-55.3,68.1l-145.2-118L886,172.3 M886.8,166.5l-2.8,1.2
						l-90.5,39.5l-7.5,3.3l6.4,5.2l145.2,118l3.9,3.2l3.2-3.9l55.3-68.1l3.2-3.9l-3.9-3.2l-110-89.4L886.8,166.5L886.8,166.5z"/>
				</g>
				<path id="XMLID_4877_" fill="#FFFFFF" d="M876.1,181.8l88.5,74.3c5.8,4.7,6.7,13.2,2,19l-18.8,23.1c-4.7,5.8-13.2,6.7-19,2
					l-101.8-82.7c-5.8-4.7-6.7-13.2-2-19l32.1-14.7C861.8,177.9,870.3,177.1,876.1,181.8z"/>
				<g id="XMLID_4866_">
					<g id="XMLID_4867_">
						
							<line id="XMLID_294_" fill="#FFFFFF" stroke="#1E1D21" stroke-width="5" stroke-linecap="round" stroke-linejoin="round" stroke-miterlimit="10" x1="939" y1="306.9" x2="818.6" y2="209"/>
						
							<line id="XMLID_293_" fill="#FFFFFF" stroke="#1E1D21" stroke-width="5" stroke-linecap="round" stroke-linejoin="round" stroke-miterlimit="10" x1="947.5" y1="296.4" x2="832.1" y2="202.7"/>
						
							<line id="XMLID_292_" fill="#FFFFFF" stroke="#1E1D21" stroke-width="5" stroke-linecap="round" stroke-linejoin="round" stroke-miterlimit="10" x1="956" y1="286" x2="845.7" y2="196.4"/>
						
							<line id="XMLID_291_" fill="#FFFFFF" stroke="#1E1D21" stroke-width="5" stroke-linecap="round" stroke-linejoin="round" stroke-miterlimit="10" x1="964.5" y1="275.5" x2="859.3" y2="190"/>
						
							<line id="XMLID_289_" fill="#FFFFFF" stroke="#1E1D21" stroke-width="5" stroke-linecap="round" stroke-linejoin="round" stroke-miterlimit="10" x1="872.9" y1="183.7" x2="972.9" y2="265.1"/>
					</g>
				</g>
				
					<circle id="XMLID_4865_" fill="#FFFFFF" stroke="#1E1D21" stroke-linecap="round" stroke-linejoin="round" stroke-miterlimit="10" cx="895.8" cy="237" r="37"/>
				
					<circle id="XMLID_4864_" fill="#FFFFFF" stroke="#1E1D21" stroke-width="5" stroke-linecap="round" stroke-linejoin="round" stroke-miterlimit="10" cx="895.8" cy="237" r="37"/>
				
					<circle id="XMLID_4863_" fill="#FFFFFF" stroke="#1E1D21" stroke-linecap="round" stroke-linejoin="round" stroke-miterlimit="10" cx="818.5" cy="209.6" r="8.4"/>
				
					<circle id="XMLID_4641_" fill="#FFFFFF" stroke="#1E1D21" stroke-linecap="round" stroke-linejoin="round" stroke-miterlimit="10" cx="973" cy="263.9" r="8.4"/>
				
					<circle id="XMLID_4640_" fill="#FFFFFF" stroke="#1E1D21" stroke-width="5" stroke-linecap="round" stroke-linejoin="round" stroke-miterlimit="10" cx="818.5" cy="209.6" r="8.4"/>
				
					<circle id="XMLID_4639_" fill="#FFFFFF" stroke="#1E1D21" stroke-width="5" stroke-linecap="round" stroke-linejoin="round" stroke-miterlimit="10" cx="973" cy="263.9" r="8.4"/>
				<g id="XMLID_4635_">
					
						<line id="XMLID_288_" fill="none" stroke="#FFFFFF" stroke-width="5.84" stroke-linecap="round" stroke-linejoin="round" stroke-miterlimit="10" x1="909" y1="215" x2="876.1" y2="255.8"/>
					
						<line id="XMLID_287_" fill="none" stroke="#1D1C20" stroke-width="2.92" stroke-linecap="round" stroke-linejoin="round" stroke-miterlimit="10" x1="909" y1="215" x2="876.1" y2="255.8"/>
				</g>
				<g id="XMLID_4631_">
					
						<line id="XMLID_286_" fill="none" stroke="#FFFFFF" stroke-width="5.84" stroke-linecap="round" stroke-linejoin="round" stroke-miterlimit="10" x1="914.7" y1="219.7" x2="881.8" y2="260.5"/>
					
						<line id="XMLID_285_" fill="none" stroke="#1D1C20" stroke-width="2.92" stroke-linecap="round" stroke-linejoin="round" stroke-miterlimit="10" x1="914.7" y1="219.7" x2="881.8" y2="260.5"/>
				</g>
				<g id="XMLID_4609_">
					
						<path id="XMLID_284_" fill="none" stroke="#FFFFFF" stroke-width="5.84" stroke-linecap="round" stroke-linejoin="round" stroke-miterlimit="10" d="
						M876.5,242.8c0.3,2.8,1.6,5.6,4,8l0.2,0.2l0.2,0.2l0.6,0.6l0.6,0.6c2.2,2.2,4.9,3.6,7.5,3.9c2.6,0.4,5.2-0.2,7.2-1.7l0,0l0,0
						c1.7-1.3,2.7-3.3,2.9-5.4s-0.1-4.5-1.3-6.8l-2.9-5.5l-2.9-5.5c-1.2-2.3-1.6-4.7-1.3-6.8c0.3-2.2,1.3-4.1,2.9-5.4l0,0v0
						c2-1.6,4.5-2.1,7.2-1.7c2.6,0.4,5.3,1.7,7.5,3.9l0.6,0.6l0.6,0.6l0.2,0.2l0.2,0.2c2.3,2.3,3.7,5.2,4,8"/>
					
						<path id="XMLID_283_" fill="none" stroke="#1D1C20" stroke-width="2.92" stroke-linecap="round" stroke-linejoin="round" stroke-miterlimit="10" d="
						M876.5,242.8c0.3,2.8,1.6,5.6,4,8l0.2,0.2l0.2,0.2l0.6,0.6l0.6,0.6c2.2,2.2,4.9,3.6,7.5,3.9c2.6,0.4,5.2-0.2,7.2-1.7l0,0l0,0
						c1.7-1.3,2.7-3.3,2.9-5.4s-0.1-4.5-1.3-6.8l-2.9-5.5l-2.9-5.5c-1.2-2.3-1.6-4.7-1.3-6.8c0.3-2.2,1.3-4.1,2.9-5.4l0,0v0
						c2-1.6,4.5-2.1,7.2-1.7c2.6,0.4,5.3,1.7,7.5,3.9l0.6,0.6l0.6,0.6l0.2,0.2l0.2,0.2c2.3,2.3,3.7,5.2,4,8"/>
				</g>
				<g id="XMLID_4600_">
					
						<line id="XMLID_280_" fill="none" stroke="#FFFFFF" stroke-width="5.84" stroke-linejoin="round" stroke-miterlimit="10" x1="905.2" y1="231.5" x2="891.2" y2="248.9"/>
					
						<line id="XMLID_266_" fill="none" stroke="#1D1C20" stroke-width="2.92" stroke-linecap="round" stroke-linejoin="round" stroke-miterlimit="10" x1="905.2" y1="231.5" x2="891.2" y2="248.9"/>
				</g>
				
					<line id="XMLID_4599_" fill="none" stroke="#1E1D21" stroke-width="2.92" stroke-linejoin="round" stroke-miterlimit="10" x1="914.3" y1="220.2" x2="907" y2="229.3"/>
				
					<line id="XMLID_4598_" fill="none" stroke="#1E1D21" stroke-width="2.92" stroke-linejoin="round" stroke-miterlimit="10" x1="900.9" y1="225" x2="908.7" y2="215.4"/>
				
					<line id="XMLID_4597_" fill="none" stroke="#1E1D21" stroke-width="2.92" stroke-linejoin="round" stroke-miterlimit="10" x1="889.6" y1="250.8" x2="882.3" y2="259.8"/>
				
					<line id="XMLID_4596_" fill="none" stroke="#1E1D21" stroke-width="2.92" stroke-linejoin="round" stroke-miterlimit="10" x1="876.3" y1="255.6" x2="884" y2="245.9"/>
			</g>
		</g>
		<g id="XMLID_4529_">
			<g id="XMLID_4535_">
				<g id="XMLID_4584_">
					<path id="XMLID_279_" fill="#C4C9CA" d="M668.5,392.4c1.3-1.1,2.6-2.2,3.8-3.4c9.8-9.8,16-24.8,15.4-37.4c-0.1-3-0.5-6-1-9
						c3.9-2.3,7.5-5,10.5-8c6.6-6.6,11.6-15.7,14-24.9l80,112.5l-67.4,48L668.5,392.4z"/>
					<path id="XMLID_153_" fill="#FFFFFF" d="M712.2,315.3l75.6,106.3l-63.4,45.1l-52.6-73.9c0.8-0.7,1.5-1.4,2.2-2.1
						c10.3-10.3,16.8-26,16.2-39.3c-0.1-2.5-0.4-5.1-0.7-7.6c3.5-2.2,6.7-4.7,9.5-7.5C704.7,330.8,709.4,323.2,712.2,315.3
						 M709.9,303.5c-1.3,10.8-7.1,22-14.4,29.3c-3.3,3.3-7.3,6.2-11.5,8.5c0.7,3.4,1.1,6.9,1.3,10.4c0.6,12.5-6,26.8-14.7,35.5
						c-1.7,1.7-3.5,3.2-5.5,4.7l58.2,81.8l71.5-50.9L709.9,303.5L709.9,303.5z"/>
					<path id="XMLID_135_" fill="#1D1C20" d="M709.9,303.5l84.8,119.3l-71.5,50.9l-58.2-81.8c2-1.4,3.8-3,5.5-4.7
						c8.7-8.7,15.3-23,14.7-35.5c-0.2-3.5-0.6-6.9-1.3-10.4c4.3-2.3,8.2-5.1,11.5-8.5C702.8,325.6,708.6,314.4,709.9,303.5
						 M706.6,290.2l-1.6,12.8c-1.2,9.3-6.3,19.7-13,26.4c-2.9,2.9-6.4,5.5-10.3,7.6l-3.3,1.8l0.8,3.7c0.6,3.1,1,6.3,1.2,9.6
						c0.5,10.4-5,23.5-13.2,31.7c-1.5,1.5-3.1,2.9-4.9,4.2l-4,2.9l2.9,4l58.2,81.8l2.9,4.1l4.1-2.9l71.5-50.9l4.1-2.9l-2.9-4.1
						L714,300.6L706.6,290.2L706.6,290.2z"/>
				</g>
				<path id="XMLID_4583_" fill="#FFFFFF" d="M766,409L697,312.1c0.1,1.2,0.2,2.4,0.3,3.6c0.6,12.5-6,26.8-14.7,35.5
					c-5.2,5.2-11.9,9.3-19.1,11.8l56.2,79c4.3,6.1,12.8,7.5,18.8,3.2l24.3-17.3C768.9,423.5,770.3,415.1,766,409z"/>
				<g id="XMLID_4567_">
					<g id="XMLID_4568_">
						
							<line id="XMLID_272_" fill="#FFFFFF" stroke="#1E1D21" stroke-width="5" stroke-linecap="round" stroke-linejoin="round" stroke-miterlimit="10" x1="727.8" y1="451.1" x2="670" y2="369.9"/>
						
							<line id="XMLID_271_" fill="#FFFFFF" stroke="#1E1D21" stroke-width="5" stroke-linecap="round" stroke-linejoin="round" stroke-miterlimit="10" x1="738.7" y1="443.3" x2="676.3" y2="355.5"/>
						
							<line id="XMLID_270_" fill="#FFFFFF" stroke="#1E1D21" stroke-width="5" stroke-linecap="round" stroke-linejoin="round" stroke-miterlimit="10" x1="749.7" y1="435.5" x2="682.6" y2="341.2"/>
						
							<line id="XMLID_269_" fill="#FFFFFF" stroke="#1E1D21" stroke-width="5" stroke-linecap="round" stroke-linejoin="round" stroke-miterlimit="10" x1="760.7" y1="427.7" x2="688.9" y2="326.8"/>
						
							<line id="XMLID_268_" fill="#FFFFFF" stroke="#1E1D21" stroke-width="5" stroke-linecap="round" stroke-linejoin="round" stroke-miterlimit="10" x1="695.2" y1="312.4" x2="771.6" y2="419.9"/>
					</g>
				</g>
				
					<circle id="XMLID_4566_" fill="#FFFFFF" stroke="#1E1D21" stroke-linecap="round" stroke-linejoin="round" stroke-miterlimit="10" cx="704.7" cy="372.3" r="37"/>
				
					<circle id="XMLID_4565_" fill="#FFFFFF" stroke="#1E1D21" stroke-width="5" stroke-linecap="round" stroke-linejoin="round" stroke-miterlimit="10" cx="704.7" cy="372.3" r="37"/>
				
					<circle id="XMLID_4563_" fill="#FFFFFF" stroke="#1E1D21" stroke-linecap="round" stroke-linejoin="round" stroke-miterlimit="10" cx="772" cy="418.8" r="8.4"/>
				
					<circle id="XMLID_4562_" fill="#FFFFFF" stroke="#1E1D21" stroke-width="5" stroke-linecap="round" stroke-linejoin="round" stroke-miterlimit="10" cx="772" cy="418.8" r="8.4"/>
				<g id="XMLID_4553_">
					
						<line id="XMLID_267_" fill="none" stroke="#FFFFFF" stroke-width="5.84" stroke-linecap="round" stroke-linejoin="round" stroke-miterlimit="10" x1="723.3" y1="354.6" x2="680.7" y2="385.2"/>
					
						<line id="XMLID_265_" fill="none" stroke="#1D1C20" stroke-width="2.92" stroke-linecap="round" stroke-linejoin="round" stroke-miterlimit="10" x1="723.3" y1="354.6" x2="680.7" y2="385.2"/>
				</g>
				<g id="XMLID_4549_">
					
						<line id="XMLID_264_" fill="none" stroke="#FFFFFF" stroke-width="5.84" stroke-linecap="round" stroke-linejoin="round" stroke-miterlimit="10" x1="727.6" y1="360.6" x2="685" y2="391.2"/>
					
						<line id="XMLID_263_" fill="none" stroke="#1D1C20" stroke-width="2.92" stroke-linecap="round" stroke-linejoin="round" stroke-miterlimit="10" x1="727.6" y1="360.6" x2="685" y2="391.2"/>
				</g>
				<g id="XMLID_4545_">
					
						<path id="XMLID_262_" fill="none" stroke="#FFFFFF" stroke-width="5.84" stroke-linecap="round" stroke-linejoin="round" stroke-miterlimit="10" d="
						M684.6,372.7c-0.5,2.7,0.1,5.9,1.7,8.8l0.2,0.3l0.2,0.3l0.4,0.7l0.4,0.7c1.5,2.7,3.8,4.7,6.2,5.8c2.4,1.1,5.1,1.2,7.4,0.2l0,0
						l0,0c2-0.9,3.4-2.4,4.3-4.4s1.1-4.4,0.5-6.9l-1.3-6.1l-1.3-6.1c-0.5-2.5-0.3-4.9,0.5-6.9c0.8-2,2.3-3.6,4.3-4.4l0,0l0,0
						c2.3-1,4.9-0.8,7.4,0.2c2.4,1.1,4.7,3.1,6.2,5.8l0.4,0.7l0.4,0.7l0.2,0.3l0.2,0.3c1.6,2.9,2.1,6,1.7,8.8"/>
					
						<path id="XMLID_261_" fill="none" stroke="#1D1C20" stroke-width="2.92" stroke-linecap="round" stroke-linejoin="round" stroke-miterlimit="10" d="
						M684.6,372.7c-0.5,2.7,0.1,5.9,1.7,8.8l0.2,0.3l0.2,0.3l0.4,0.7l0.4,0.7c1.5,2.7,3.8,4.7,6.2,5.8c2.4,1.1,5.1,1.2,7.4,0.2l0,0
						l0,0c2-0.9,3.4-2.4,4.3-4.4s1.1-4.4,0.5-6.9l-1.3-6.1l-1.3-6.1c-0.5-2.5-0.3-4.9,0.5-6.9c0.8-2,2.3-3.6,4.3-4.4l0,0l0,0
						c2.3-1,4.9-0.8,7.4,0.2c2.4,1.1,4.7,3.1,6.2,5.8l0.4,0.7l0.4,0.7l0.2,0.3l0.2,0.3c1.6,2.9,2.1,6,1.7,8.8"/>
				</g>
				<g id="XMLID_4541_">
					
						<line id="XMLID_260_" fill="none" stroke="#FFFFFF" stroke-width="5.84" stroke-linejoin="round" stroke-miterlimit="10" x1="715.2" y1="369.5" x2="697.1" y2="382.5"/>
					
						<line id="XMLID_258_" fill="none" stroke="#1D1C20" stroke-width="2.92" stroke-linecap="round" stroke-linejoin="round" stroke-miterlimit="10" x1="715.2" y1="369.5" x2="697.1" y2="382.5"/>
				</g>
				
					<line id="XMLID_4539_" fill="none" stroke="#1E1D21" stroke-width="2.92" stroke-linejoin="round" stroke-miterlimit="10" x1="727" y1="361.1" x2="717.6" y2="367.8"/>
				
					<line id="XMLID_4538_" fill="none" stroke="#1E1D21" stroke-width="2.92" stroke-linejoin="round" stroke-miterlimit="10" x1="712.9" y1="362.1" x2="722.9" y2="354.9"/>
				
					<line id="XMLID_4537_" fill="none" stroke="#1E1D21" stroke-width="2.92" stroke-linejoin="round" stroke-miterlimit="10" x1="695.2" y1="383.9" x2="685.7" y2="390.7"/>
				
					<line id="XMLID_4536_" fill="none" stroke="#1E1D21" stroke-width="2.92" stroke-linejoin="round" stroke-miterlimit="10" x1="681" y1="385" x2="691" y2="377.8"/>
			</g>
		</g>
		<g id="XMLID_4397_">
			<g id="XMLID_4398_">
				<g id="XMLID_4520_">
					<polygon id="XMLID_259_" fill="#C4C9CA" points="1020.8,210.8 1099.2,189.1 1167.9,256 1043.2,290.4 					"/>
					<path id="XMLID_127_" fill="#FFFFFF" d="M1098.4,191.9l64.6,62.8L1045,287.3l-21-74.9L1098.4,191.9 M1099.9,186.3l-82.1,22.7
						l23.7,84.5l131.3-36.3L1099.9,186.3L1099.9,186.3z"/>
					<path id="XMLID_121_" fill="#1D1C20" d="M1099.9,186.3l72.9,70.9l-131.3,36.3l-23.7-84.5L1099.9,186.3 M1101.3,180.8l-2.8,0.8
						l-82.1,22.7l-4.8,1.3l1.4,4.8l23.7,84.5l1.3,4.8l4.8-1.3l131.3-36.3l8.4-2.3l-6.3-6.1l-72.9-70.9L1101.3,180.8L1101.3,180.8z"
						/>
				</g>
				<path id="XMLID_4519_" fill="#FFFFFF" d="M1048.9,216.3l69.8-18c7.2-2,14.6,2.2,16.7,9.4l8.1,28.7c2,7.2,23.3,5.9,16.1,7.9
					l-95.3,26.8c-7.2,2-14.6-2.2-16.7-9.4l-8.1-28.7C1037.5,225.8,1041.7,218.4,1048.9,216.3z"/>
				<g id="XMLID_4502_">
					<g id="XMLID_4503_">
						
							<line id="XMLID_256_" fill="#FFFFFF" stroke="#1E1D21" stroke-width="5" stroke-linecap="round" stroke-linejoin="round" stroke-miterlimit="10" x1="1169.1" y1="244.6" x2="1052.5" y2="273"/>
						
							<line id="XMLID_255_" fill="#FFFFFF" stroke="#1E1D21" stroke-width="5" stroke-linecap="round" stroke-linejoin="round" stroke-miterlimit="10" x1="1156.1" y1="233.8" x2="1048.9" y2="260.1"/>
						
							<line id="XMLID_254_" fill="#FFFFFF" stroke="#1E1D21" stroke-width="5" stroke-linecap="round" stroke-linejoin="round" stroke-miterlimit="10" x1="1143" y1="223" x2="1045.2" y2="247.1"/>
						
							<line id="XMLID_253_" fill="#FFFFFF" stroke="#1E1D21" stroke-width="5" stroke-linecap="round" stroke-linejoin="round" stroke-miterlimit="10" x1="1130" y1="212.2" x2="1041.6" y2="234.2"/>
						
							<line id="XMLID_252_" fill="#FFFFFF" stroke="#1E1D21" stroke-width="5" stroke-linecap="round" stroke-linejoin="round" stroke-miterlimit="10" x1="1037.9" y1="221.2" x2="1116.9" y2="201.3"/>
					</g>
				</g>
				
					<path id="XMLID_4500_" fill="#FFFFFF" stroke="#1E1D21" stroke-width="5" stroke-linecap="round" stroke-linejoin="round" stroke-miterlimit="10" d="
					M1084.3,236.1c-5.5-19.7,6.7-37.8,25.6-45.6c7-2.9,45.6,25.6,45.6,25.6c5.5,19.7-5.9,40.1-25.6,45.6
					C1110.3,267.3,1089.8,255.8,1084.3,236.1z"/>
				
					<circle id="XMLID_4499_" fill="#FFFFFF" stroke="#1E1D21" stroke-linecap="round" stroke-linejoin="round" stroke-miterlimit="10" cx="1052.9" cy="273.4" r="8.4"/>
				
					<circle id="XMLID_4498_" fill="#FFFFFF" stroke="#1E1D21" stroke-width="5" stroke-linecap="round" stroke-linejoin="round" stroke-miterlimit="10" cx="1052.9" cy="273.4" r="8.4"/>
				<g id="XMLID_4494_">
					
						<line id="XMLID_251_" fill="none" stroke="#FFFFFF" stroke-width="5.84" stroke-linecap="round" stroke-linejoin="round" stroke-miterlimit="10" x1="1109.6" y1="202.7" x2="1124" y2="253.1"/>
					
						<line id="XMLID_249_" fill="none" stroke="#1D1C20" stroke-width="2.92" stroke-linecap="round" stroke-linejoin="round" stroke-miterlimit="10" x1="1109.6" y1="202.7" x2="1124" y2="253.1"/>
				</g>
				<g id="XMLID_4432_">
					
						<line id="XMLID_248_" fill="none" stroke="#FFFFFF" stroke-width="5.84" stroke-linecap="round" stroke-linejoin="round" stroke-miterlimit="10" x1="1116.7" y1="200.6" x2="1131.1" y2="251"/>
					
						<line id="XMLID_247_" fill="none" stroke="#1D1C20" stroke-width="2.92" stroke-linecap="round" stroke-linejoin="round" stroke-miterlimit="10" x1="1116.7" y1="200.6" x2="1131.1" y2="251"/>
				</g>
				<g id="XMLID_4407_">
					
						<path id="XMLID_245_" fill="none" stroke="#FFFFFF" stroke-width="5.84" stroke-linecap="round" stroke-linejoin="round" stroke-miterlimit="10" d="
						M1113.5,245.2c2.4,1.4,5.6,1.9,8.8,1.4l0.3-0.1l0.3-0.1l0.8-0.1l0.8-0.1c3.1-0.5,5.7-1.9,7.6-3.9c1.8-1.9,2.9-4.3,2.7-6.9l0,0
						v0c-0.1-2.1-1.1-4-2.7-5.5c-1.6-1.5-3.8-2.5-6.3-2.9l-6.2-0.9l-6.2-0.9c-2.6-0.4-4.8-1.4-6.3-2.9c-1.6-1.5-2.6-3.4-2.7-5.5l0,0
						v0c-0.2-2.5,0.9-4.9,2.7-6.9c1.8-1.9,4.5-3.3,7.6-3.9l0.8-0.1l0.8-0.1l0.3-0.1l0.3-0.1c3.3-0.6,6.4,0,8.8,1.4"/>
					
						<path id="XMLID_244_" fill="none" stroke="#1D1C20" stroke-width="2.92" stroke-linecap="round" stroke-linejoin="round" stroke-miterlimit="10" d="
						M1113.5,245.2c2.4,1.4,5.6,1.9,8.8,1.4l0.3-0.1l0.3-0.1l0.8-0.1l0.8-0.1c3.1-0.5,5.7-1.9,7.6-3.9c1.8-1.9,2.9-4.3,2.7-6.9l0,0
						v0c-0.1-2.1-1.1-4-2.7-5.5c-1.6-1.5-3.8-2.5-6.3-2.9l-6.2-0.9l-6.2-0.9c-2.6-0.4-4.8-1.4-6.3-2.9c-1.6-1.5-2.6-3.4-2.7-5.5l0,0
						v0c-0.2-2.5,0.9-4.9,2.7-6.9c1.8-1.9,4.5-3.3,7.6-3.9l0.8-0.1l0.8-0.1l0.3-0.1l0.3-0.1c3.3-0.6,6.4,0,8.8,1.4"/>
				</g>
				<g id="XMLID_4403_">
					
						<line id="XMLID_243_" fill="none" stroke="#FFFFFF" stroke-width="5.84" stroke-linejoin="round" stroke-miterlimit="10" x1="1120.9" y1="215.3" x2="1127" y2="236.7"/>
					
						<line id="XMLID_242_" fill="none" stroke="#1D1C20" stroke-width="2.92" stroke-linecap="round" stroke-linejoin="round" stroke-miterlimit="10" x1="1120.9" y1="215.3" x2="1127" y2="236.7"/>
				</g>
				
					<line id="XMLID_4402_" fill="none" stroke="#1E1D21" stroke-width="2.92" stroke-linejoin="round" stroke-miterlimit="10" x1="1116.9" y1="201.3" x2="1120.1" y2="212.5"/>
				
					<line id="XMLID_4401_" fill="none" stroke="#1E1D21" stroke-width="2.92" stroke-linejoin="round" stroke-miterlimit="10" x1="1113.1" y1="215" x2="1109.7" y2="203.1"/>
				
					<line id="XMLID_4400_" fill="none" stroke="#1E1D21" stroke-width="2.92" stroke-linejoin="round" stroke-miterlimit="10" x1="1127.6" y1="239.1" x2="1130.8" y2="250.2"/>
				
					<line id="XMLID_4399_" fill="none" stroke="#1E1D21" stroke-width="2.92" stroke-linejoin="round" stroke-miterlimit="10" x1="1123.9" y1="252.7" x2="1120.5" y2="240.8"/>
			</g>
		</g>
		<g id="XMLID_4258_">
			<g id="XMLID_4259_">
				<g id="XMLID_281_">
					<path id="XMLID_241_" fill="#C4C9CA" d="M1117.5,433.7l112.9-114.9c1.6,1.6,3.2,3.3,4.6,5c1,3.7,3.3,6.9,6.4,8.9
						c0.4,0.8,0.7,1.5,1,2.1c3.3,8.1,4.5,18.8,5.6,29c0.3,2.5,0.5,5,0.8,7.4c1.5,12.5,3.3,26.6,7.2,39.9l-79.6,80.6L1117.5,433.7z"
						/>
					<path id="XMLID_99_" fill="#FFFFFF" d="M1230.4,322.3c0.8,0.9,1.6,1.8,2.4,2.6c1.2,3.8,3.5,7.1,6.7,9.4
						c0.2,0.5,0.5,0.9,0.6,1.4c3.2,7.8,4.3,18.2,5.4,28.4c0.3,2.6,0.5,5,0.8,7.4c1.5,12.1,3.2,25.8,6.9,38.9l-76.8,77.8l-55.5-54.5
						L1230.4,322.3 M1230.4,315.1l-116.5,118.6l62.6,61.5l82.4-83.4c-4-13.2-5.8-27.3-7.5-40.9c-1.5-12-2.3-26.5-6.6-37
						c-0.4-1-0.9-2-1.5-3c-3-1.7-5.2-4.7-6-8.3C1235.1,320,1232.7,317.6,1230.4,315.1L1230.4,315.1z"/>
					<path id="XMLID_90_" fill="#1D1C20" d="M1230.4,315.1c2.3,2.5,4.7,4.9,6.9,7.4c0.8,3.5,3,6.6,6,8.3c0.5,1,1,2,1.5,3
						c4.3,10.5,5.1,25.1,6.6,37c1.7,13.7,3.5,27.8,7.5,40.9l-82.4,83.4l-62.6-61.5L1230.4,315.1 M1230.5,307.9l-3.6,3.7
						l-116.5,118.6l-3.5,3.6l3.6,3.5l62.6,61.5l3.6,3.5l3.5-3.5l82.4-83.4l2.1-2.1l-0.9-2.8c-4-13.2-5.8-27.5-7.4-40.1
						c-0.3-2.3-0.5-4.7-0.8-7.3c-1.1-10.3-2.4-22-6.1-31.1c-0.4-1.1-1-2.2-1.7-3.5l-0.7-1.2l-1.2-0.7c-1.8-1-3.1-2.8-3.6-5l-0.3-1.2
						l-0.8-1c-1.7-2-3.5-3.9-5.3-5.7c-0.6-0.6-1.1-1.2-1.7-1.8L1230.5,307.9L1230.5,307.9z"/>
				</g>
				<path id="XMLID_4382_" fill="#FFFFFF" d="M1144.6,424.6l91.9-93.6c5.2-5.3,13.8-5.4,19.1-0.2l21.3,20.9
					c5.3,5.2,5.4,13.8,0.2,19.1l-91.9,93.6c-5.2,5.3-13.8,5.4-19.1,0.2l-21.3-20.9C1139.4,438.5,1139.3,429.9,1144.6,424.6z"/>
				<g id="XMLID_4335_">
					<g id="XMLID_4336_">
						
							<line id="XMLID_239_" fill="#FFFFFF" stroke="#1E1D21" stroke-width="5" stroke-linecap="round" stroke-linejoin="round" stroke-miterlimit="10" x1="1266.9" y1="381.1" x2="1175.9" y2="472"/>
						
							<line id="XMLID_238_" fill="#FFFFFF" stroke="#1E1D21" stroke-width="5" stroke-linecap="round" stroke-linejoin="round" stroke-miterlimit="10" x1="1261.8" y1="366.7" x2="1166.3" y2="462.5"/>
						
							<line id="XMLID_237_" fill="#FFFFFF" stroke="#1E1D21" stroke-width="5" stroke-linecap="round" stroke-linejoin="round" stroke-miterlimit="10" x1="1256.6" y1="352.3" x2="1156.7" y2="453.1"/>
						
							<line id="XMLID_236_" fill="#FFFFFF" stroke="#1E1D21" stroke-width="5" stroke-linecap="round" stroke-linejoin="round" stroke-miterlimit="10" x1="1251.4" y1="337.9" x2="1147.1" y2="443.7"/>
						
							<line id="XMLID_235_" fill="#FFFFFF" stroke="#1E1D21" stroke-width="5" stroke-linecap="round" stroke-linejoin="round" stroke-miterlimit="10" x1="1137.5" y1="434.2" x2="1246.3" y2="323.5"/>
					</g>
				</g>
				
					<circle id="XMLID_4334_" fill="#FFFFFF" stroke="#1E1D21" stroke-linecap="round" stroke-linejoin="round" stroke-miterlimit="10" cx="1211.1" cy="397.8" r="37"/>
				
					<circle id="XMLID_4333_" fill="#FFFFFF" stroke="#1E1D21" stroke-width="5" stroke-linecap="round" stroke-linejoin="round" stroke-miterlimit="10" cx="1211.1" cy="397.8" r="37"/>
				
					<circle id="XMLID_4332_" fill="#FFFFFF" stroke="#1E1D21" stroke-linecap="round" stroke-linejoin="round" stroke-miterlimit="10" cx="1176.5" cy="472.1" r="8.4"/>
				
					<circle id="XMLID_4318_" fill="#FFFFFF" stroke="#1E1D21" stroke-linecap="round" stroke-linejoin="round" stroke-miterlimit="10" cx="1245.1" cy="323.3" r="8.4"/>
				
					<circle id="XMLID_4312_" fill="#FFFFFF" stroke="#1E1D21" stroke-width="5" stroke-linecap="round" stroke-linejoin="round" stroke-miterlimit="10" cx="1176.5" cy="472.1" r="8.4"/>
				
					<circle id="XMLID_4311_" fill="#FFFFFF" stroke="#1E1D21" stroke-width="5" stroke-linecap="round" stroke-linejoin="round" stroke-miterlimit="10" cx="1245.1" cy="323.3" r="8.4"/>
				<g id="XMLID_4294_">
					
						<line id="XMLID_234_" fill="none" stroke="#FFFFFF" stroke-width="5.84" stroke-linecap="round" stroke-linejoin="round" stroke-miterlimit="10" x1="1190.5" y1="382.5" x2="1228" y2="419.1"/>
					
						<line id="XMLID_233_" fill="none" stroke="#1D1C20" stroke-width="2.92" stroke-linecap="round" stroke-linejoin="round" stroke-miterlimit="10" x1="1190.5" y1="382.5" x2="1228" y2="419.1"/>
				</g>
				<g id="XMLID_4285_">
					
						<line id="XMLID_232_" fill="none" stroke="#FFFFFF" stroke-width="5.84" stroke-linecap="round" stroke-linejoin="round" stroke-miterlimit="10" x1="1195.6" y1="377.2" x2="1233.1" y2="413.8"/>
					
						<line id="XMLID_231_" fill="none" stroke="#1D1C20" stroke-width="2.92" stroke-linecap="round" stroke-linejoin="round" stroke-miterlimit="10" x1="1195.6" y1="377.2" x2="1233.1" y2="413.8"/>
				</g>
				<g id="XMLID_4268_">
					
						<path id="XMLID_230_" fill="none" stroke="#FFFFFF" stroke-width="5.84" stroke-linecap="round" stroke-linejoin="round" stroke-miterlimit="10" d="
						M1215,417.4c2.8,0,5.8-1.1,8.3-3.2l0.2-0.2l0.2-0.2l0.6-0.5l0.6-0.5c2.4-2,4-4.5,4.6-7.1c0.6-2.6,0.3-5.2-1.1-7.3l0,0l0,0
						c-1.2-1.8-3-2.9-5.1-3.4c-2.1-0.5-4.5-0.3-6.9,0.7l-5.8,2.3l-5.8,2.3c-2.4,1-4.8,1.2-6.9,0.7c-2.1-0.5-3.9-1.7-5.1-3.4l0,0v0
						c-1.4-2.1-1.7-4.7-1.1-7.3c0.6-2.6,2.2-5.1,4.6-7.1l0.6-0.5l0.6-0.5l0.2-0.2l0.2-0.2c2.6-2.1,5.5-3.2,8.3-3.2"/>
					
						<path id="XMLID_229_" fill="none" stroke="#1D1C20" stroke-width="2.92" stroke-linecap="round" stroke-linejoin="round" stroke-miterlimit="10" d="
						M1215,417.4c2.8,0,5.8-1.1,8.3-3.2l0.2-0.2l0.2-0.2l0.6-0.5l0.6-0.5c2.4-2,4-4.5,4.6-7.1c0.6-2.6,0.3-5.2-1.1-7.3l0,0l0,0
						c-1.2-1.8-3-2.9-5.1-3.4c-2.1-0.5-4.5-0.3-6.9,0.7l-5.8,2.3l-5.8,2.3c-2.4,1-4.8,1.2-6.9,0.7c-2.1-0.5-3.9-1.7-5.1-3.4l0,0v0
						c-1.4-2.1-1.7-4.7-1.1-7.3c0.6-2.6,2.2-5.1,4.6-7.1l0.6-0.5l0.6-0.5l0.2-0.2l0.2-0.2c2.6-2.1,5.5-3.2,8.3-3.2"/>
				</g>
				<g id="XMLID_4264_">
					
						<line id="XMLID_228_" fill="none" stroke="#FFFFFF" stroke-width="5.84" stroke-linejoin="round" stroke-miterlimit="10" x1="1206.5" y1="387.9" x2="1222.5" y2="403.4"/>
					
						<line id="XMLID_227_" fill="none" stroke="#1D1C20" stroke-width="2.92" stroke-linecap="round" stroke-linejoin="round" stroke-miterlimit="10" x1="1206.5" y1="387.9" x2="1222.5" y2="403.4"/>
				</g>
				
					<line id="XMLID_4263_" fill="none" stroke="#1E1D21" stroke-width="2.92" stroke-linejoin="round" stroke-miterlimit="10" x1="1196.1" y1="377.7" x2="1204.5" y2="385.9"/>
				
					<line id="XMLID_4262_" fill="none" stroke="#1E1D21" stroke-width="2.92" stroke-linejoin="round" stroke-miterlimit="10" x1="1199.6" y1="391.5" x2="1190.8" y2="382.9"/>
				
					<line id="XMLID_4261_" fill="none" stroke="#1E1D21" stroke-width="2.92" stroke-linejoin="round" stroke-miterlimit="10" x1="1224.2" y1="405.1" x2="1232.5" y2="413.2"/>
				
					<line id="XMLID_4260_" fill="none" stroke="#1E1D21" stroke-width="2.92" stroke-linejoin="round" stroke-miterlimit="10" x1="1227.7" y1="418.9" x2="1218.9" y2="410.2"/>
			</g>
		</g>
		<g id="XMLID_4207_">
			<g id="XMLID_4213_">
				<g id="XMLID_4249_">
					<polygon id="XMLID_226_" fill="#C4C9CA" points="1053.3,759.4 1063.4,677.3 1202,694 1119.6,765.5 					"/>
					<path id="XMLID_105_" fill="#FFFFFF" d="M1065.6,680.1l130.6,15.7l-77.3,67.2l-62.7-5.8L1065.6,680.1 M1061.2,674.5l-10.6,87.1
						l69.9,6.5l87.4-76L1061.2,674.5L1061.2,674.5z"/>
					<path id="XMLID_101_" fill="#1D1C20" d="M1061.2,674.5l146.7,17.7l-87.4,76l-69.9-6.5L1061.2,674.5 M1056.8,669l-0.6,5
						l-10.6,87.1l-0.6,5.1l5.1,0.5l69.9,6.5l2.1,0.2l1.6-1.4l87.4-76l8.5-7.4l-11.2-1.3l-146.7-17.7L1056.8,669L1056.8,669z"/>
				</g>
				<path id="XMLID_4248_" fill="#FFFFFF" d="M1156.5,731.8c8.7-9.2,18-17.8,26.9-26.8l-96.4-11.8c-7.4-0.9-14.1,4.4-15,11.8
					l-3.6,29.6c-0.9,7.4,4.4,14.1,11.8,15l55.6,6.8C1142.2,747.9,1149.1,739.6,1156.5,731.8z"/>
				<g id="XMLID_4237_">
					<g id="XMLID_4238_">
						
							<line id="XMLID_224_" fill="#FFFFFF" stroke="#1E1D21" stroke-width="5" stroke-linecap="round" stroke-linejoin="round" stroke-miterlimit="10" x1="1074.8" y1="693" x2="1228.9" y2="711.9"/>
						
							<line id="XMLID_223_" fill="#FFFFFF" stroke="#1E1D21" stroke-width="5" stroke-linecap="round" stroke-linejoin="round" stroke-miterlimit="10" x1="1073.2" y1="706.4" x2="1207.1" y2="722.2"/>
						
							<line id="XMLID_222_" fill="#FFFFFF" stroke="#1E1D21" stroke-width="5" stroke-linecap="round" stroke-linejoin="round" stroke-miterlimit="10" x1="1071.6" y1="719.8" x2="1185.4" y2="732.5"/>
						
							<line id="XMLID_221_" fill="#FFFFFF" stroke="#1E1D21" stroke-width="5" stroke-linecap="round" stroke-linejoin="round" stroke-miterlimit="10" x1="1069.9" y1="733.1" x2="1163.6" y2="742.9"/>
						
							<line id="XMLID_220_" fill="#FFFFFF" stroke="#1E1D21" stroke-width="5" stroke-linecap="round" stroke-linejoin="round" stroke-miterlimit="10" x1="1141.8" y1="753.2" x2="1068.3" y2="746.5"/>
					</g>
				</g>
				
					<path id="XMLID_4236_" fill="#FFFFFF" stroke="#1E1D21" stroke-width="5" stroke-linecap="round" stroke-linejoin="round" stroke-miterlimit="10" d="
					M1185.3,733.7l-41.2,32.2c-20.3-2.5-34.7-20.9-32.2-41.2c2.5-20.3,20.9-34.7,41.2-32.2S1187.8,713.4,1185.3,733.7z"/>
				
					<circle id="XMLID_4235_" fill="#FFFFFF" stroke="#1E1D21" stroke-linecap="round" stroke-linejoin="round" stroke-miterlimit="10" cx="1068.9" cy="747.5" r="8.4"/>
				
					<circle id="XMLID_4234_" fill="#FFFFFF" stroke="#1E1D21" stroke-width="5" stroke-linecap="round" stroke-linejoin="round" stroke-miterlimit="10" cx="1068.9" cy="747.5" r="8.4"/>
				<g id="XMLID_4230_">
					
						<line id="XMLID_219_" fill="none" stroke="#FFFFFF" stroke-width="5.84" stroke-linecap="round" stroke-linejoin="round" stroke-miterlimit="10" x1="1149.1" y1="754.8" x2="1155.2" y2="702.8"/>
					
						<line id="XMLID_218_" fill="none" stroke="#1D1C20" stroke-width="2.92" stroke-linecap="round" stroke-linejoin="round" stroke-miterlimit="10" x1="1149.1" y1="754.8" x2="1155.2" y2="702.8"/>
				</g>
				<g id="XMLID_4226_">
					
						<line id="XMLID_217_" fill="none" stroke="#FFFFFF" stroke-width="5.84" stroke-linecap="round" stroke-linejoin="round" stroke-miterlimit="10" x1="1141.7" y1="753.9" x2="1147.9" y2="701.9"/>
					
						<line id="XMLID_216_" fill="none" stroke="#1D1C20" stroke-width="2.92" stroke-linecap="round" stroke-linejoin="round" stroke-miterlimit="10" x1="1141.7" y1="753.9" x2="1147.9" y2="701.9"/>
				</g>
				<g id="XMLID_4222_">
					
						<path id="XMLID_214_" fill="none" stroke="#FFFFFF" stroke-width="5.84" stroke-linecap="round" stroke-linejoin="round" stroke-miterlimit="10" d="
						M1161.8,714.1c-1.7-2.2-4.4-3.9-7.6-4.7l-0.3-0.1l-0.3-0.1l-0.8-0.2l-0.8-0.2c-3-0.7-6-0.4-8.5,0.7c-2.4,1.1-4.3,2.9-5.1,5.3v0
						l0,0c-0.7,2-0.5,4.2,0.4,6.1c0.9,2,2.5,3.8,4.8,5.1l5.4,3.2l5.4,3.2c2.2,1.3,3.9,3.1,4.8,5.1c0.9,2,1.1,4.1,0.4,6.1l0,0l0,0
						c-0.8,2.4-2.7,4.2-5.1,5.3c-2.4,1.1-5.4,1.4-8.5,0.7l-0.8-0.2l-0.8-0.2l-0.3-0.1l-0.3-0.1c-3.2-0.7-5.9-2.5-7.6-4.7"/>
					
						<path id="XMLID_213_" fill="none" stroke="#1D1C20" stroke-width="2.92" stroke-linecap="round" stroke-linejoin="round" stroke-miterlimit="10" d="
						M1161.8,714.1c-1.7-2.2-4.4-3.9-7.6-4.7l-0.3-0.1l-0.3-0.1l-0.8-0.2l-0.8-0.2c-3-0.7-6-0.4-8.5,0.7c-2.4,1.1-4.3,2.9-5.1,5.3v0
						l0,0c-0.7,2-0.5,4.2,0.4,6.1c0.9,2,2.5,3.8,4.8,5.1l5.4,3.2l5.4,3.2c2.2,1.3,3.9,3.1,4.8,5.1c0.9,2,1.1,4.1,0.4,6.1l0,0l0,0
						c-0.8,2.4-2.7,4.2-5.1,5.3c-2.4,1.1-5.4,1.4-8.5,0.7l-0.8-0.2l-0.8-0.2l-0.3-0.1l-0.3-0.1c-3.2-0.7-5.9-2.5-7.6-4.7"/>
				</g>
				<g id="XMLID_4218_">
					
						<line id="XMLID_212_" fill="none" stroke="#FFFFFF" stroke-width="5.84" stroke-linejoin="round" stroke-miterlimit="10" x1="1143.5" y1="738.8" x2="1146.2" y2="716.7"/>
					
						<line id="XMLID_211_" fill="none" stroke="#1D1C20" stroke-width="2.92" stroke-linecap="round" stroke-linejoin="round" stroke-miterlimit="10" x1="1143.5" y1="738.8" x2="1146.2" y2="716.7"/>
				</g>
				
					<line id="XMLID_4217_" fill="none" stroke="#1E1D21" stroke-width="2.92" stroke-linejoin="round" stroke-miterlimit="10" x1="1141.8" y1="753.2" x2="1143.2" y2="741.7"/>
				
					<line id="XMLID_4216_" fill="none" stroke="#1E1D21" stroke-width="2.92" stroke-linejoin="round" stroke-miterlimit="10" x1="1150.6" y1="742.1" x2="1149.1" y2="754.3"/>
				
					<line id="XMLID_4215_" fill="none" stroke="#1E1D21" stroke-width="2.92" stroke-linejoin="round" stroke-miterlimit="10" x1="1146.4" y1="714.3" x2="1147.8" y2="702.7"/>
				
					<line id="XMLID_4214_" fill="none" stroke="#1E1D21" stroke-width="2.92" stroke-linejoin="round" stroke-miterlimit="10" x1="1155.2" y1="703.1" x2="1153.8" y2="715.4"/>
			</g>
		</g>
		<g id="XMLID_3851_">
			<g id="XMLID_3852_">
				<g id="XMLID_4198_">
					<polygon id="XMLID_210_" fill="#C4C9CA" points="1146.8,583.4 1200.9,520.8 1272.6,583 1234.6,659.2 					"/>
					<path id="XMLID_50_" fill="#FFFFFF" d="M1201.2,524.3l68.4,59.3l-35.8,71.6l-83.4-72.1L1201.2,524.3 M1200.7,517.3l-57.4,66.4
						l92.1,79.6l40.4-80.8L1200.7,517.3L1200.7,517.3z"/>
					<path id="XMLID_47_" fill="#1D1C20" d="M1200.7,517.3l75.1,65.2l-40.4,80.8l-92.1-79.6L1200.7,517.3 M1200.2,510.2l-3.3,3.8
						l-57.4,66.4l-3.3,3.8l3.8,3.3l92.1,79.6l4.9,4.2l2.9-5.8l40.4-80.8l1.7-3.5l-2.9-2.5l-75.1-65.2L1200.2,510.2L1200.2,510.2z"/>
				</g>
				<path id="XMLID_4197_" fill="#FFFFFF" d="M1268,611.1c1-3.8,2.9-7.4,5.3-10.6l-61.6-53.2c-5.6-4.9-14.2-4.3-19,1.4l-19.5,22.6
					c-4.9,5.6-4.3,14.2,1.4,19l76.1,65.8C1255.8,640.8,1263.8,626.6,1268,611.1z"/>
				<g id="XMLID_4010_">
					<g id="XMLID_4011_">
						
							<line id="XMLID_208_" fill="#FFFFFF" stroke="#1E1D21" stroke-width="5" stroke-linecap="round" stroke-linejoin="round" stroke-miterlimit="10" x1="1201.7" y1="540.2" x2="1262.8" y2="593.4"/>
						
							<line id="XMLID_207_" fill="#FFFFFF" stroke="#1E1D21" stroke-width="5" stroke-linecap="round" stroke-linejoin="round" stroke-miterlimit="10" x1="1192.9" y1="550.4" x2="1260.4" y2="609.1"/>
						
							<line id="XMLID_149_" fill="#FFFFFF" stroke="#1E1D21" stroke-width="5" stroke-linecap="round" stroke-linejoin="round" stroke-miterlimit="10" x1="1184.1" y1="560.6" x2="1258.1" y2="624.8"/>
						
							<line id="XMLID_148_" fill="#FFFFFF" stroke="#1E1D21" stroke-width="5" stroke-linecap="round" stroke-linejoin="round" stroke-miterlimit="10" x1="1175.3" y1="570.8" x2="1255.8" y2="640.4"/>
						
							<line id="XMLID_147_" fill="#FFFFFF" stroke="#1E1D21" stroke-width="5" stroke-linecap="round" stroke-linejoin="round" stroke-miterlimit="10" x1="1253.5" y1="656.1" x2="1166.5" y2="581"/>
					</g>
				</g>
				
					<path id="XMLID_4009_" fill="#FFFFFF" stroke="#1E1D21" stroke-width="5" stroke-linecap="round" stroke-linejoin="round" stroke-miterlimit="10" d="
					M1270.8,635.5c-15.4,13.4-36.7,17.2-52.2,3.8c-15.5-13.4-17.2-36.7-3.8-52.2c13.4-15.5,36.7-17.2,52.2-3.8
					S1274.4,632.3,1270.8,635.5z"/>
				
					<circle id="XMLID_4008_" fill="#FFFFFF" stroke="#1E1D21" stroke-linecap="round" stroke-linejoin="round" stroke-miterlimit="10" cx="1166.3" cy="582.1" r="8.4"/>
				
					<circle id="XMLID_4007_" fill="#FFFFFF" stroke="#1E1D21" stroke-width="5" stroke-linecap="round" stroke-linejoin="round" stroke-miterlimit="10" cx="1166.3" cy="582.1" r="8.4"/>
				<g id="XMLID_3968_">
					
						<line id="XMLID_146_" fill="none" stroke="#FFFFFF" stroke-width="5.84" stroke-linecap="round" stroke-linejoin="round" stroke-miterlimit="10" x1="1228.9" y1="632.9" x2="1263" y2="593.1"/>
					
						<line id="XMLID_145_" fill="none" stroke="#1D1C20" stroke-width="2.92" stroke-linecap="round" stroke-linejoin="round" stroke-miterlimit="10" x1="1228.9" y1="632.9" x2="1263" y2="593.1"/>
				</g>
				<g id="XMLID_3914_">
					
						<line id="XMLID_144_" fill="none" stroke="#FFFFFF" stroke-width="5.84" stroke-linecap="round" stroke-linejoin="round" stroke-miterlimit="10" x1="1223.3" y1="628.1" x2="1257.4" y2="588.3"/>
					
						<line id="XMLID_136_" fill="none" stroke="#1D1C20" stroke-width="2.92" stroke-linecap="round" stroke-linejoin="round" stroke-miterlimit="10" x1="1223.3" y1="628.1" x2="1257.4" y2="588.3"/>
				</g>
				<g id="XMLID_3861_">
					
						<path id="XMLID_133_" fill="none" stroke="#FFFFFF" stroke-width="5.84" stroke-linecap="round" stroke-linejoin="round" stroke-miterlimit="10" d="
						M1262.2,606.1c-0.2-2.8-1.5-5.7-3.7-8.1l-0.2-0.2l-0.2-0.2l-0.5-0.6l-0.5-0.6c-2.1-2.3-4.8-3.7-7.4-4.2c-2.6-0.5-5.2,0-7.2,1.5
						l0,0l0,0c-1.7,1.3-2.8,3.2-3.1,5.3c-0.3,2.1,0,4.5,1.1,6.9l2.7,5.6l2.7,5.6c1.1,2.3,1.5,4.7,1.1,6.9c-0.3,2.1-1.4,4-3.1,5.3
						l0,0l0,0c-2,1.5-4.6,2-7.2,1.5c-2.6-0.5-5.3-1.9-7.4-4.2l-0.5-0.6l-0.5-0.6l-0.2-0.2l-0.2-0.2c-2.3-2.4-3.5-5.3-3.7-8.1"/>
					
						<path id="XMLID_132_" fill="none" stroke="#1D1C20" stroke-width="2.92" stroke-linecap="round" stroke-linejoin="round" stroke-miterlimit="10" d="
						M1262.2,606.1c-0.2-2.8-1.5-5.7-3.7-8.1l-0.2-0.2l-0.2-0.2l-0.5-0.6l-0.5-0.6c-2.1-2.3-4.8-3.7-7.4-4.2c-2.6-0.5-5.2,0-7.2,1.5
						l0,0l0,0c-1.7,1.3-2.8,3.2-3.1,5.3c-0.3,2.1,0,4.5,1.1,6.9l2.7,5.6l2.7,5.6c1.1,2.3,1.5,4.7,1.1,6.9c-0.3,2.1-1.4,4-3.1,5.3
						l0,0l0,0c-2,1.5-4.6,2-7.2,1.5c-2.6-0.5-5.3-1.9-7.4-4.2l-0.5-0.6l-0.5-0.6l-0.2-0.2l-0.2-0.2c-2.3-2.4-3.5-5.3-3.7-8.1"/>
				</g>
				<g id="XMLID_3857_">
					
						<line id="XMLID_131_" fill="none" stroke="#FFFFFF" stroke-width="5.84" stroke-linejoin="round" stroke-miterlimit="10" x1="1233.2" y1="616.5" x2="1247.7" y2="599.6"/>
					
						<line id="XMLID_130_" fill="none" stroke="#1D1C20" stroke-width="2.92" stroke-linecap="round" stroke-linejoin="round" stroke-miterlimit="10" x1="1233.2" y1="616.5" x2="1247.7" y2="599.6"/>
				</g>
				
					<line id="XMLID_3856_" fill="none" stroke="#1E1D21" stroke-width="2.92" stroke-linejoin="round" stroke-miterlimit="10" x1="1223.8" y1="627.5" x2="1231.3" y2="618.7"/>
				
					<line id="XMLID_3855_" fill="none" stroke="#1E1D21" stroke-width="2.92" stroke-linejoin="round" stroke-miterlimit="10" x1="1237.2" y1="623.2" x2="1229.2" y2="632.5"/>
				
					<line id="XMLID_3854_" fill="none" stroke="#1E1D21" stroke-width="2.92" stroke-linejoin="round" stroke-miterlimit="10" x1="1249.3" y1="597.8" x2="1256.9" y2="588.9"/>
				
					<line id="XMLID_3853_" fill="none" stroke="#1E1D21" stroke-width="2.92" stroke-linejoin="round" stroke-miterlimit="10" x1="1262.8" y1="593.4" x2="1254.7" y2="602.8"/>
			</g>
		</g>
		<g id="XMLID_3799_">
			<g id="XMLID_3800_">
				<g id="XMLID_3837_">
					<path id="XMLID_129_" fill="#C4C9CA" d="M706.9,671.4c-0.3-0.3-0.5-0.5-0.8-0.8c-4.1-3.7-8.4-6.8-12.9-9.2
						c0.4-2.6,0.5-5.1,0.4-7.4c-0.3-6.4-1.4-12.4-3.3-18c0.2-2,0.3-3.9,0.2-5.6c-0.7-15.5-6.2-28.7-15.5-37.2c-3.4-3.1-7-5.8-10.8-8
						l52.6-81.3l69.5,44.9L706.9,671.4z"/>
					<path id="XMLID_55_" fill="#FFFFFF" d="M717.4,507.2l65.3,42.2l-76.3,118.1c-3.4-2.9-6.9-5.4-10.6-7.5c0.2-2.1,0.3-4.2,0.2-6.2
						c-0.3-6.4-1.4-12.5-3.3-18.1c0.2-1.9,0.2-3.7,0.1-5.5c-0.7-16.1-6.5-30-16.3-39c-2.9-2.6-5.9-5-9-7L717.4,507.2 M715.9,500.3
						L660.6,586c4.5,2.4,8.8,5.4,12.7,9c9.9,9.1,14.1,22.5,14.7,35.5c0.1,1.9,0,3.8-0.2,5.8c2,5.7,3.1,11.8,3.4,17.8
						c0.1,2.8-0.1,5.8-0.7,8.7c5.1,2.5,9.8,5.8,14,9.7c1,0.9,2,1.9,2.9,2.9l82.4-127.5L715.9,500.3L715.9,500.3z"/>
					<path id="XMLID_52_" fill="#1D1C20" d="M715.9,500.3l73.7,47.6l-82.4,127.5c-0.9-1-1.8-2-2.9-2.9c-4.3-3.9-9-7.2-14-9.7
						c0.5-2.9,0.8-5.9,0.7-8.7c-0.3-6-1.3-12.1-3.4-17.8c0.2-2,0.3-3.9,0.2-5.8c-0.6-13-4.8-26.5-14.7-35.5c-3.9-3.6-8.1-6.6-12.7-9
						L715.9,500.3 M714.5,493.4l-2.7,4.2l-55.4,85.7l-3,4.6l4.9,2.5c4.1,2.1,8,4.9,11.6,8.2c10.6,9.7,12.7,24.2,13.1,32
						c0.1,1.5,0,3.2-0.2,5l-0.1,1.2l0.4,1.1c1.8,5,2.8,10.5,3.1,16.3c0.1,2.3-0.1,4.9-0.6,7.6l-0.7,3.7l3.4,1.7
						c4.5,2.2,8.8,5.2,12.8,8.9c0.8,0.7,1.6,1.6,2.5,2.6l4.4,5l3.6-5.5l82.4-127.5l2.7-4.2l-4.2-2.7l-73.7-47.6L714.5,493.4
						L714.5,493.4z"/>
				</g>
				<path id="XMLID_3836_" fill="#FFFFFF" d="M761.5,563L705,650.4c-4,6.3-14.3-3.2-20.5-7.3l-7-31.1c-6.3-4-8.1-12.4-4-18.7
					l40.4-61.2c4-6.3,12.4-8.1,18.7-4l25,16.2C763.7,548.4,765.5,556.8,761.5,563z"/>
				<g id="XMLID_3825_">
					<g id="XMLID_3826_">
						
							<line id="XMLID_126_" fill="#FFFFFF" stroke="#1E1D21" stroke-width="5" stroke-linecap="round" stroke-linejoin="round" stroke-miterlimit="10" x1="667.9" y1="605.5" x2="721.2" y2="522.9"/>
						
							<line id="XMLID_124_" fill="#FFFFFF" stroke="#1E1D21" stroke-width="5" stroke-linecap="round" stroke-linejoin="round" stroke-miterlimit="10" x1="676.7" y1="616.7" x2="732.5" y2="530.3"/>
						
							<line id="XMLID_123_" fill="#FFFFFF" stroke="#1E1D21" stroke-width="5" stroke-linecap="round" stroke-linejoin="round" stroke-miterlimit="10" x1="685.4" y1="627.9" x2="743.8" y2="537.6"/>
						
							<line id="XMLID_120_" fill="#FFFFFF" stroke="#1E1D21" stroke-width="5" stroke-linecap="round" stroke-linejoin="round" stroke-miterlimit="10" x1="694.2" y1="639.2" x2="755.1" y2="544.9"/>
						
							<line id="XMLID_117_" fill="#FFFFFF" stroke="#1E1D21" stroke-width="5" stroke-linecap="round" stroke-linejoin="round" stroke-miterlimit="10" x1="766.4" y1="552.2" x2="702.9" y2="650.4"/>
					</g>
				</g>
				
					<circle id="XMLID_3824_" fill="#FFFFFF" stroke="#1E1D21" stroke-linecap="round" stroke-linejoin="round" stroke-miterlimit="10" cx="701.7" cy="602.7" r="37"/>
				
					<circle id="XMLID_3823_" fill="#FFFFFF" stroke="#1E1D21" stroke-width="5" stroke-linecap="round" stroke-linejoin="round" stroke-miterlimit="10" cx="701.7" cy="602.7" r="37"/>
				
					<circle id="XMLID_3822_" fill="#FFFFFF" stroke="#1E1D21" stroke-linecap="round" stroke-linejoin="round" stroke-miterlimit="10" cx="720.6" cy="522.9" r="8.4"/>
				
					<circle id="XMLID_3821_" fill="#FFFFFF" stroke="#1E1D21" stroke-width="5" stroke-linecap="round" stroke-linejoin="round" stroke-miterlimit="10" cx="720.6" cy="522.9" r="8.4"/>
				<g id="XMLID_3817_">
					
						<line id="XMLID_116_" fill="none" stroke="#FFFFFF" stroke-width="5.84" stroke-linecap="round" stroke-linejoin="round" stroke-miterlimit="10" x1="725" y1="613.5" x2="680.9" y2="585.2"/>
					
						<line id="XMLID_115_" fill="none" stroke="#1D1C20" stroke-width="2.92" stroke-linecap="round" stroke-linejoin="round" stroke-miterlimit="10" x1="725" y1="613.5" x2="680.9" y2="585.2"/>
				</g>
				<g id="XMLID_3813_">
					
						<line id="XMLID_114_" fill="none" stroke="#FFFFFF" stroke-width="5.84" stroke-linecap="round" stroke-linejoin="round" stroke-miterlimit="10" x1="721" y1="619.7" x2="676.9" y2="591.4"/>
					
						<line id="XMLID_111_" fill="none" stroke="#1D1C20" stroke-width="2.92" stroke-linecap="round" stroke-linejoin="round" stroke-miterlimit="10" x1="721" y1="619.7" x2="676.9" y2="591.4"/>
				</g>
				<g id="XMLID_3809_">
					
						<path id="XMLID_110_" fill="none" stroke="#FFFFFF" stroke-width="5.84" stroke-linecap="round" stroke-linejoin="round" stroke-miterlimit="10" d="
						M693.9,584.2c-2.7,0.6-5.4,2.2-7.5,4.8l-0.2,0.2l-0.2,0.2l-0.5,0.6l-0.5,0.6c-2,2.4-3,5.2-3.1,7.9c-0.1,2.7,0.7,5.2,2.5,6.9
						l0,0l0,0c1.5,1.5,3.5,2.3,5.7,2.3c2.2,0,4.5-0.6,6.7-2.1l5.2-3.4l5.2-3.4c2.2-1.4,4.5-2.1,6.7-2.1c2.2,0,4.2,0.8,5.7,2.3l0,0
						l0,0c1.8,1.8,2.6,4.3,2.5,6.9c-0.1,2.7-1.2,5.5-3.1,7.9l-0.5,0.6l-0.5,0.6l-0.2,0.2l-0.2,0.2c-2.1,2.6-4.8,4.2-7.5,4.8"/>
					
						<path id="XMLID_109_" fill="none" stroke="#1D1C20" stroke-width="2.92" stroke-linecap="round" stroke-linejoin="round" stroke-miterlimit="10" d="
						M693.9,584.2c-2.7,0.6-5.4,2.2-7.5,4.8l-0.2,0.2l-0.2,0.2l-0.5,0.6l-0.5,0.6c-2,2.4-3,5.2-3.1,7.9c-0.1,2.7,0.7,5.2,2.5,6.9
						l0,0l0,0c1.5,1.5,3.5,2.3,5.7,2.3c2.2,0,4.5-0.6,6.7-2.1l5.2-3.4l5.2-3.4c2.2-1.4,4.5-2.1,6.7-2.1c2.2,0,4.2,0.8,5.7,2.3l0,0
						l0,0c1.8,1.8,2.6,4.3,2.5,6.9c-0.1,2.7-1.2,5.5-3.1,7.9l-0.5,0.6l-0.5,0.6l-0.2,0.2l-0.2,0.2c-2.1,2.6-4.8,4.2-7.5,4.8"/>
				</g>
				<g id="XMLID_3805_">
					
						<line id="XMLID_108_" fill="none" stroke="#FFFFFF" stroke-width="5.84" stroke-linejoin="round" stroke-miterlimit="10" x1="708.2" y1="611.5" x2="689.4" y2="599.5"/>
					
						<line id="XMLID_104_" fill="none" stroke="#1D1C20" stroke-width="2.92" stroke-linecap="round" stroke-linejoin="round" stroke-miterlimit="10" x1="708.2" y1="611.5" x2="689.4" y2="599.5"/>
				</g>
				
					<line id="XMLID_3804_" fill="none" stroke="#1E1D21" stroke-width="2.92" stroke-linejoin="round" stroke-miterlimit="10" x1="720.4" y1="619.3" x2="710.6" y2="613"/>
				
					<line id="XMLID_3803_" fill="none" stroke="#1E1D21" stroke-width="2.92" stroke-linejoin="round" stroke-miterlimit="10" x1="714.2" y1="606.6" x2="724.6" y2="613.2"/>
				
					<line id="XMLID_3802_" fill="none" stroke="#1E1D21" stroke-width="2.92" stroke-linejoin="round" stroke-miterlimit="10" x1="687.4" y1="598.2" x2="677.6" y2="591.9"/>
				
					<line id="XMLID_3801_" fill="none" stroke="#1E1D21" stroke-width="2.92" stroke-linejoin="round" stroke-miterlimit="10" x1="681.2" y1="585.4" x2="691.6" y2="592.1"/>
			</g>
		</g>
		<g id="XMLID_3386_">
			<g id="XMLID_3387_">
				<g id="XMLID_344_">
					<path id="XMLID_96_" fill="#C4C9CA" d="M919.6,793.6c-9.1-2.5-18.2-5.7-27-8.8c-5.5-2-11.3-4-16.9-5.8
						c-5.4-1.7-10.9-3.8-16.2-5.8c-8.3-3.2-16.8-6.4-25.5-8.5L937,652l61.1,55.8L919.6,793.6z"/>
					<path id="XMLID_41_" fill="#FFFFFF" d="M937.1,655.5l57.4,52.5l-75.8,82.8c-8.5-2.4-17.1-5.4-25.4-8.4c-5.6-2-11.3-4-17-5.8
						c-5.4-1.7-10.8-3.8-16.1-5.8c-7.1-2.7-14.3-5.5-21.8-7.5L937.1,655.5 M936.8,648.4L829.1,766.2c15.6,3,30.4,10.3,45.8,15.2
						c15,4.8,30.1,11,45.5,15l81.2-88.8L936.8,648.4L936.8,648.4z"/>
					<path id="XMLID_2_" fill="#1D1C20" d="M936.8,648.4l64.8,59.2l-81.2,88.8c-15.4-4.1-30.5-10.2-45.5-15
						c-15.4-4.9-30.2-12.2-45.8-15.2L936.8,648.4 M936.5,641.4l-3.4,3.7L825.4,762.8l-6.1,6.6l8.8,1.7c9.6,1.8,18.8,5.3,28.6,9.1
						c5.4,2.1,11,4.2,16.6,6c5.5,1.8,11.2,3.8,16.7,5.7c9.4,3.3,19.2,6.8,29.1,9.4l2.9,0.8l2-2.2l81.2-88.8l3.4-3.7l-3.7-3.4
						l-64.8-59.2L936.5,641.4L936.5,641.4z"/>
				</g>
				<path id="XMLID_200_" fill="#FFFFFF" d="M970.5,698.8l-22-20.1c-5.5-5-14-4.7-19.1,0.9l-83.5,91.3c9.7,3.3,19.2,7.4,29,10.6
					c9.6,3.1,19.3,6.7,29.1,10l67.3-73.6C976.3,712.3,976,703.8,970.5,698.8z"/>
				<g id="XMLID_3599_">
					<g id="XMLID_3605_">
						
							<line id="XMLID_94_" fill="#FFFFFF" stroke="#1E1D21" stroke-width="5" stroke-linecap="round" stroke-linejoin="round" stroke-miterlimit="10" x1="833.5" y1="786.2" x2="938.3" y2="671.6"/>
						
							<line id="XMLID_93_" fill="#FFFFFF" stroke="#1E1D21" stroke-width="5" stroke-linecap="round" stroke-linejoin="round" stroke-miterlimit="10" x1="848.8" y1="789.2" x2="948.2" y2="680.7"/>
						
							<line id="XMLID_92_" fill="#FFFFFF" stroke="#1E1D21" stroke-width="5" stroke-linecap="round" stroke-linejoin="round" stroke-miterlimit="10" x1="864" y1="792.2" x2="958.1" y2="689.8"/>
						
							<line id="XMLID_91_" fill="#FFFFFF" stroke="#1E1D21" stroke-width="5" stroke-linecap="round" stroke-linejoin="round" stroke-miterlimit="10" x1="879.3" y1="795.2" x2="968.1" y2="698.9"/>
						
							<line id="XMLID_78_" fill="#FFFFFF" stroke="#1E1D21" stroke-width="5" stroke-linecap="round" stroke-linejoin="round" stroke-miterlimit="10" x1="978" y1="707.9" x2="894.5" y2="798.2"/>
					</g>
				</g>
				
					<circle id="XMLID_3598_" fill="#FFFFFF" stroke="#1E1D21" stroke-linecap="round" stroke-linejoin="round" stroke-miterlimit="10" cx="905.8" cy="747.1" r="37"/>
				
					<circle id="XMLID_3597_" fill="#FFFFFF" stroke="#1E1D21" stroke-width="5" stroke-linecap="round" stroke-linejoin="round" stroke-miterlimit="10" cx="905.8" cy="747.1" r="37"/>
				
					<circle id="XMLID_3596_" fill="#FFFFFF" stroke="#1E1D21" stroke-linecap="round" stroke-linejoin="round" stroke-miterlimit="10" cx="937.7" cy="671.5" r="8.4"/>
				
					<circle id="XMLID_3595_" fill="#FFFFFF" stroke="#1E1D21" stroke-width="5" stroke-linecap="round" stroke-linejoin="round" stroke-miterlimit="10" cx="937.7" cy="671.5" r="8.4"/>
				<g id="XMLID_3591_">
					
						<line id="XMLID_77_" fill="none" stroke="#FFFFFF" stroke-width="5.84" stroke-linecap="round" stroke-linejoin="round" stroke-miterlimit="10" x1="926.9" y1="761.5" x2="888.1" y2="726.3"/>
					
						<line id="XMLID_74_" fill="none" stroke="#1D1C20" stroke-width="2.92" stroke-linecap="round" stroke-linejoin="round" stroke-miterlimit="10" x1="926.9" y1="761.5" x2="888.1" y2="726.3"/>
				</g>
				<g id="XMLID_3587_">
					
						<line id="XMLID_73_" fill="none" stroke="#FFFFFF" stroke-width="5.84" stroke-linecap="round" stroke-linejoin="round" stroke-miterlimit="10" x1="922" y1="767" x2="883.2" y2="731.8"/>
					
						<line id="XMLID_72_" fill="none" stroke="#1D1C20" stroke-width="2.92" stroke-linecap="round" stroke-linejoin="round" stroke-miterlimit="10" x1="922" y1="767" x2="883.2" y2="731.8"/>
				</g>
				<g id="XMLID_3571_">
					
						<path id="XMLID_71_" fill="none" stroke="#FFFFFF" stroke-width="5.84" stroke-linecap="round" stroke-linejoin="round" stroke-miterlimit="10" d="
						M901.1,727.5c-2.8,0.1-5.7,1.3-8.2,3.5l-0.2,0.2l-0.2,0.2l-0.6,0.5l-0.6,0.5c-2.3,2.1-3.8,4.7-4.4,7.3
						c-0.5,2.6-0.1,5.2,1.3,7.3v0l0,0c1.2,1.7,3.1,2.8,5.2,3.2c2.1,0.4,4.5,0.1,6.9-0.9l5.7-2.5l5.7-2.5c2.4-1,4.8-1.3,6.9-0.9
						c2.1,0.4,4,1.5,5.2,3.2l0,0l0,0c1.5,2,1.9,4.6,1.3,7.3c-0.5,2.6-2,5.2-4.4,7.3l-0.6,0.5l-0.6,0.5l-0.2,0.2l-0.2,0.2
						c-2.5,2.2-5.4,3.4-8.2,3.5"/>
					
						<path id="XMLID_57_" fill="none" stroke="#1D1C20" stroke-width="2.92" stroke-linecap="round" stroke-linejoin="round" stroke-miterlimit="10" d="
						M901.1,727.5c-2.8,0.1-5.7,1.3-8.2,3.5l-0.2,0.2l-0.2,0.2l-0.6,0.5l-0.6,0.5c-2.3,2.1-3.8,4.7-4.4,7.3
						c-0.5,2.6-0.1,5.2,1.3,7.3v0l0,0c1.2,1.7,3.1,2.8,5.2,3.2c2.1,0.4,4.5,0.1,6.9-0.9l5.7-2.5l5.7-2.5c2.4-1,4.8-1.3,6.9-0.9
						c2.1,0.4,4,1.5,5.2,3.2l0,0l0,0c1.5,2,1.9,4.6,1.3,7.3c-0.5,2.6-2,5.2-4.4,7.3l-0.6,0.5l-0.6,0.5l-0.2,0.2l-0.2,0.2
						c-2.5,2.2-5.4,3.4-8.2,3.5"/>
				</g>
				<g id="XMLID_3562_">
					
						<line id="XMLID_14_" fill="none" stroke="#FFFFFF" stroke-width="5.84" stroke-linejoin="round" stroke-miterlimit="10" x1="910.7" y1="756.8" x2="894.2" y2="741.8"/>
					
						<line id="XMLID_13_" fill="none" stroke="#1D1C20" stroke-width="2.92" stroke-linecap="round" stroke-linejoin="round" stroke-miterlimit="10" x1="910.7" y1="756.8" x2="894.2" y2="741.8"/>
				</g>
				
					<line id="XMLID_3559_" fill="none" stroke="#1E1D21" stroke-width="2.92" stroke-linejoin="round" stroke-miterlimit="10" x1="921.4" y1="766.5" x2="912.8" y2="758.7"/>
				
					<line id="XMLID_3558_" fill="none" stroke="#1E1D21" stroke-width="2.92" stroke-linejoin="round" stroke-miterlimit="10" x1="917.5" y1="752.9" x2="926.6" y2="761.2"/>
				
					<line id="XMLID_3389_" fill="none" stroke="#1E1D21" stroke-width="2.92" stroke-linejoin="round" stroke-miterlimit="10" x1="892.4" y1="740.2" x2="883.8" y2="732.3"/>
				
					<line id="XMLID_3388_" fill="none" stroke="#1E1D21" stroke-width="2.92" stroke-linejoin="round" stroke-miterlimit="10" x1="888.4" y1="726.6" x2="897.5" y2="734.8"/>
			</g>
		</g>
		<g id="XMLID_2985_">
			
				<rect id="XMLID_3011_" x="1219" y="697" transform="matrix(0.7071 -0.7071 0.7071 0.7071 -177.1101 1108.6788)" fill="#DCE3E6" width="61.5" height="142.3"/>
			<g id="XMLID_3009_">
				
					<path id="XMLID_3010_" fill="#DCE3E6" stroke="#1E1D21" stroke-width="5" stroke-linecap="round" stroke-linejoin="round" stroke-miterlimit="10" d="
					M1585.1,1009.6l-214.7-214.7c-19.3-19.3-50.5-19.3-69.8,0l-23.5,23.5c-19.3,19.3-19.3,50.5,0,69.8l122.6,122.6"/>
			</g>
			<g id="XMLID_2999_">
				
					<path id="XMLID_3001_" fill="#FFFFFF" stroke="#1E1D21" stroke-width="5" stroke-linecap="round" stroke-linejoin="round" stroke-miterlimit="10" d="
					M970.2,820.8c-89.2,0-173-34.7-236.1-97.8S636.3,576.2,636.3,487c0-89.2,34.7-173,97.8-236.1s146.9-97.8,236.1-97.8
					s173,34.7,236.1,97.8c63.1,63.1,97.8,146.9,97.8,236.1s-34.7,173-97.8,236.1l0,0C1143.2,786.1,1059.4,820.8,970.2,820.8z
					 M970.2,188.2c-76.6,0-153.1,29.1-211.4,87.4c-56.5,56.5-87.6,131.5-87.6,211.4c0,79.9,31.1,154.9,87.6,211.4
					c116.6,116.6,306.2,116.6,422.8,0l0,0c116.6-116.6,116.6-306.2,0-422.8C1123.3,217.3,1046.7,188.2,970.2,188.2z"/>
			</g>
			
				<line id="XMLID_2998_" fill="none" stroke="#1E1D21" stroke-width="5" stroke-linecap="round" stroke-linejoin="round" stroke-miterlimit="10" x1="1194" y1="758.1" x2="1254.3" y2="818.4"/>
			
				<line id="XMLID_2997_" fill="none" stroke="#1E1D21" stroke-width="5" stroke-linecap="round" stroke-linejoin="round" stroke-miterlimit="10" x1="1299" y1="773.8" x2="1238.6" y2="713.5"/>
			<g id="XMLID_202_">
				<line id="XMLID_198_" fill="#1D1C20" x1="1265.3" y1="747.1" x2="1229.1" y2="783.3"/>
				
					<path id="XMLID_199_" fill="#FFFFFF" stroke="#1E1D21" stroke-width="5" stroke-linecap="round" stroke-linejoin="round" stroke-miterlimit="10" d="
					M1229.1,795.3c-3.1,0-6.1-1.2-8.5-3.5c-4.7-4.7-4.7-12.3,0-17l36.2-36.2c4.7-4.7,12.3-4.7,17,0c4.7,4.7,4.7,12.3,0,17
					l-36.2,36.2C1235.2,794.1,1232.2,795.3,1229.1,795.3z"/>
			</g>
		</g>
	</g>
	
		<path id="XMLID_2816_" fill="#FFFFFF" stroke="#1E1D21" stroke-width="5" stroke-linecap="round" stroke-linejoin="round" stroke-miterlimit="10" d="
		M1053.7,320.6c-12.4,12.4-16.7,31.1-11.3,48.9v0c0.4,1.4,0.9,2.8,6.3,9L867,560.2c-6.2-5.3-7.6-5.8-9-6.3
		c-17.9-5.4-36.5-1.1-48.9,11.3c-12.4,12.4-16.7,31.1-11.3,48.9v0c0.5,1.6,1.1,3.2,1.7,4.7l28.1-28.1l24.6,6.6l6.6,24.6l-28.1,28.1
		c1.6,0.6,3.1,1.2,4.7,1.7c17.9,5.4,36.5,1.1,48.9-11.3c12.4-12.4,16.7-31.1,11.3-48.9c-0.4-1.4-0.9-2.8-6.3-9l181.7-181.7
		c6.2,5.3,7.6,5.8,9,6.3c17.9,5.4,36.5,1.1,48.9-11.3h0c12.4-12.4,16.7-31.1,11.3-48.9l0,0c-0.5-1.6-1.1-3.2-1.7-4.7l-28.1,28.1
		l-24.6-6.6l-6.6-24.6l28.1-28.1c-1.6-0.6-3.1-1.2-4.7-1.7C1084.8,303.9,1066.1,308.2,1053.7,320.6z"/>
	<g id="XMLID_2810_">
		<g id="XMLID_3_">
			<g id="XMLID_88_">
				<polygon id="XMLID_89_" fill="#FFFFFF" points="1125.9,624.1 1113.8,609 1107.4,611.1 945.1,448.8 937.9,456 1099.7,617.8 
					1097.1,625.6 1112.2,637.7 1131.5,654.1 1136.9,648.7 1142.3,643.4 				"/>
			</g>
			<g id="XMLID_86_">
				
					<polygon id="XMLID_87_" fill="none" stroke="#1E1D21" stroke-width="5" stroke-linecap="round" stroke-linejoin="round" stroke-miterlimit="10" points="
					1125.9,624.1 1113.8,609 1107.4,611.1 945.1,448.8 937.9,456 1099.7,617.8 1097.1,625.6 1112.2,637.7 1131.5,654.1 
					1136.9,648.7 1142.3,643.4 				"/>
			</g>
		</g>
		
			<path id="XMLID_2814_" fill="#FFFFFF" stroke="#1E1D21" stroke-width="5" stroke-linecap="round" stroke-linejoin="round" stroke-miterlimit="10" d="
			M842.5,313.5l122.8,122.8L925,476.6L802.1,353.8c-8.5-8.5-8.5-22.2,0-30.6l9.7-9.7C820.3,305,834,305,842.5,313.5z"/>
		
			<line id="XMLID_2812_" fill="none" stroke="#1E1D21" stroke-width="5" stroke-linecap="round" stroke-linejoin="round" stroke-miterlimit="10" x1="938.8" y1="436.7" x2="833.2" y2="331.1"/>
		
			<line id="XMLID_2811_" fill="none" stroke="#1E1D21" stroke-width="5" stroke-linecap="round" stroke-linejoin="round" stroke-miterlimit="10" x1="925.3" y1="450.1" x2="819.8" y2="344.5"/>
	</g>
	<g id="XMLID_4893_">
		<g id="XMLID_4902_">
			<path id="XMLID_4907_" fill="#FFFFFF" d="M2895.5,216.6c-2.1-6.4-5.4-12.1-9.8-17l9-15.6l-25.5-14.7l-9,15.6
				c-3.2-0.7-6.4-1-9.8-1s-6.6,0.4-9.8,1l-9-15.6l-25.5,14.7l9,15.6c-4.4,4.9-7.7,10.6-9.8,17h-18.1V246h18.1
				c2.1,6.4,5.4,12.1,9.8,17l-9,15.6l25.5,14.7l9-15.6c3.2,0.7,6.4,1,9.8,1s6.6-0.4,9.8-1l9,15.6l25.5-14.7l-9-15.6
				c4.4-4.9,7.7-10.6,9.8-17h18.1v-29.4H2895.5z M2850.4,254.5c-12.8,0-23.2-10.4-23.2-23.2c0-12.8,10.4-23.2,23.2-23.2
				c12.8,0,23.2,10.4,23.2,23.2C2873.6,244.1,2863.2,254.5,2850.4,254.5z"/>
			<path id="XMLID_4906_" fill="#A7B9C0" d="M2827.1,231.3c0-12.8,10.4-23.2,23.2-23.2v-24.2l0,0c-3.4,0-6.6,0.4-9.8,1l-9-15.6
				l-25.5,14.7l9,15.6c-4.4,4.9-7.7,10.6-9.8,17h-18.1V246h18.1c2.1,6.4,5.4,12.1,9.8,17l-9,15.6l25.5,14.7l9-15.6
				c3.2,0.7,6.4,1,9.8,1l0,0v-24.2C2837.5,254.5,2827.1,244.1,2827.1,231.3z"/>
			
				<path id="XMLID_4903_" fill="none" stroke="#1E1D21" stroke-width="5" stroke-linecap="round" stroke-linejoin="round" stroke-miterlimit="10" d="
				M2895.5,216.6c-2.1-6.4-5.4-12.1-9.8-17l9-15.6l-25.5-14.7l-9,15.6c-3.2-0.7-6.4-1-9.8-1s-6.6,0.4-9.8,1l-9-15.6l-25.5,14.7
				l9,15.6c-4.4,4.9-7.7,10.6-9.8,17h-18.1V246h18.1c2.1,6.4,5.4,12.1,9.8,17l-9,15.6l25.5,14.7l9-15.6c3.2,0.7,6.4,1,9.8,1
				s6.6-0.4,9.8-1l9,15.6l25.5-14.7l-9-15.6c4.4-4.9,7.7-10.6,9.8-17h18.1v-29.4H2895.5z M2850.4,254.5c-12.8,0-23.2-10.4-23.2-23.2
				c0-12.8,10.4-23.2,23.2-23.2c12.8,0,23.2,10.4,23.2,23.2C2873.6,244.1,2863.2,254.5,2850.4,254.5z"/>
		</g>
		<g id="XMLID_4894_">
			<path id="XMLID_4899_" fill="#FFFFFF" d="M2812.1,302c-2.1-6.4-5.4-12.1-9.8-17l9-15.6l-25.5-14.7l-9,15.6c-3.2-0.7-6.4-1-9.8-1
				c-3.4,0-6.6,0.4-9.8,1l-9-15.6l-25.5,14.7l9,15.6c-4.4,4.9-7.7,10.6-9.8,17h-18.1v29.4h18.1c2.1,6.4,5.4,12.1,9.8,17l-9,15.6
				l25.5,14.7l9-15.6c3.2,0.7,6.4,1,9.8,1c3.4,0,6.6-0.4,9.8-1l9,15.6l25.5-14.7l-9-15.6c4.4-4.9,7.7-10.6,9.8-17h18.1V302H2812.1z
				 M2767,340c-12.8,0-23.2-10.4-23.2-23.2c0-12.8,10.4-23.2,23.2-23.2c12.8,0,23.2,10.4,23.2,23.2
				C2790.2,329.6,2779.8,340,2767,340z"/>
			<path id="XMLID_4898_" fill="#A7B9C0" d="M2743.8,316.8c0-12.8,10.4-23.2,23.2-23.2v-24.2l0,0c-3.4,0-6.6,0.4-9.8,1l-9-15.6
				l-25.5,14.7l9,15.6c-4.4,4.9-7.7,10.6-9.8,17h-18.1v29.4h18.1c2.1,6.4,5.4,12.1,9.8,17l-9,15.6l25.5,14.7l9-15.6
				c3.2,0.7,6.4,1,9.8,1l0,0V340C2754.2,340,2743.8,329.6,2743.8,316.8z"/>
			
				<path id="XMLID_4895_" fill="none" stroke="#1E1D21" stroke-width="5" stroke-linecap="round" stroke-linejoin="round" stroke-miterlimit="10" d="
				M2812.1,302c-2.1-6.4-5.4-12.1-9.8-17l9-15.6l-25.5-14.7l-9,15.6c-3.2-0.7-6.4-1-9.8-1c-3.4,0-6.6,0.4-9.8,1l-9-15.6l-25.5,14.7
				l9,15.6c-4.4,4.9-7.7,10.6-9.8,17h-18.1v29.4h18.1c2.1,6.4,5.4,12.1,9.8,17l-9,15.6l25.5,14.7l9-15.6c3.2,0.7,6.4,1,9.8,1
				c3.4,0,6.6-0.4,9.8-1l9,15.6l25.5-14.7l-9-15.6c4.4-4.9,7.7-10.6,9.8-17h18.1V302H2812.1z M2767,340c-12.8,0-23.2-10.4-23.2-23.2
				c0-12.8,10.4-23.2,23.2-23.2c12.8,0,23.2,10.4,23.2,23.2C2790.2,329.6,2779.8,340,2767,340z"/>
		</g>
	</g>
	
		<rect id="XMLID_4892_" x="2734.1" y="622.2" fill="#A7B9C0" stroke="#1E1D21" stroke-width="5" stroke-miterlimit="10" width="138.7" height="32.8"/>
	
		<rect id="XMLID_4891_" x="2768" y="547.6" fill="#A7B9C0" stroke="#1E1D21" stroke-width="5" stroke-miterlimit="10" width="138.7" height="32.8"/>
	
		<rect id="XMLID_4890_" x="2768" y="695" fill="#A7B9C0" stroke="#1E1D21" stroke-width="5" stroke-miterlimit="10" width="138.7" height="32.8"/>
	
		<path id="XMLID_4889_" fill="none" stroke="#1E1D21" stroke-width="5" stroke-linecap="round" stroke-linejoin="round" stroke-miterlimit="10" d="
		M2888.7,638.6h20.3c20.2,0,36.6,16.3,36.6,36.4l0,0c0,20.1-16.4,36.4-36.6,36.4"/>
	
		<polyline id="XMLID_4888_" fill="none" stroke="#1E1D21" stroke-width="5" stroke-linecap="round" stroke-linejoin="round" stroke-miterlimit="10" points="
		2909.4,615.4 2886.1,638.6 2909.4,661.8 	"/>
	<g id="XMLID_2729_">
		<path id="XMLID_85_" fill="#FFFFFF" d="M2971.1,538.7c-0.2,0-0.4,0-0.5-0.1l-23-5c-0.7-0.1-1.3-0.6-1.6-1.1
			c-0.4-0.6-0.5-1.3-0.3-2c4.5-16.6,6.8-33.7,6.8-51c0-28.1-5.9-55.1-17.5-80.4l-2.8,10.4c-0.2,0.6-0.6,1.2-1.2,1.5
			c-0.4,0.2-0.8,0.3-1.3,0.3c-0.2,0-0.4,0-0.6-0.1l-15.2-4.1c-1.3-0.4-2.1-1.7-1.8-3.1l13-48.6c0.3-1.1,1.3-1.9,2.4-1.9
			c0.2,0,0.4,0,0.7,0.1l48.6,13c0.6,0.2,1.2,0.6,1.5,1.2c0.3,0.6,0.4,1.3,0.3,1.9l-4.1,15.2c-0.3,1.1-1.3,1.9-2.4,1.9
			c-0.2,0-0.4,0-0.6-0.1l-12.3-3.3c14.5,30,21.8,62.3,21.8,95.9c0,19.5-2.5,38.8-7.5,57.4C2973.3,537.9,2972.2,538.7,2971.1,538.7z"
			/>
		<path id="XMLID_82_" fill="#1E1D21" d="M2927.7,356.1l48.6,13l-4.1,15.2l-17.7-4.7c15.3,29.9,24,63.9,24,99.8
			c0,19.6-2.6,38.6-7.4,56.7l-23-5c4.5-16.5,6.9-33.8,6.9-51.7c0-31.5-7.4-61.2-20.6-87.5l-4.5,16.9l-15.2-4.1L2927.7,356.1
			L2927.7,356.1 M2927.7,351.1L2927.7,351.1c-2.3,0-4.3,1.5-4.8,3.7l-13,48.6c-0.7,2.7,0.9,5.4,3.5,6.1l15.2,4.1
			c0.4,0.1,0.9,0.2,1.3,0.2c0.9,0,1.7-0.2,2.5-0.7c1.1-0.7,2-1.8,2.3-3l0.9-3.5c9.6,23,14.4,47.5,14.4,72.8c0,17.1-2.3,34-6.7,50.4
			c-0.4,1.3-0.2,2.7,0.5,3.9s1.9,2,3.2,2.3l23,5c0.4,0.1,0.7,0.1,1.1,0.1c2.2,0,4.2-1.5,4.8-3.7c5-18.8,7.6-38.3,7.6-58
			c0-32.2-6.6-63.2-19.8-92.1l7.1,1.9c0.4,0.1,0.9,0.2,1.3,0.2c2.2,0,4.2-1.5,4.8-3.7l4.1-15.2c0.3-1.3,0.2-2.6-0.5-3.8
			c-0.7-1.1-1.8-2-3-2.3l-48.6-13C2928.6,351.2,2928.1,351.1,2927.7,351.1L2927.7,351.1z"/>
	</g>
	<polygon id="XMLID_2728_" fill="#9CA7AB" points="2936.9,351.1 2937.5,351.3 2936.7,351.8 	"/>
	<g id="XMLID_2722_">
		<path id="XMLID_81_" fill="#FFFFFF" d="M2678.8,769.2c-0.6,0-1.3-0.2-1.8-0.7l-11.1-11.1c-0.5-0.5-0.7-1.1-0.7-1.8
			s0.3-1.3,0.7-1.8l9.1-9.1c-54.6-4.1-105.3-28-143.4-67.8c-0.9-0.9-0.9-2.4,0-3.4l15.9-17.4c0.5-0.5,1.1-0.8,1.8-0.8c0,0,0,0,0,0
			c0.7,0,1.3,0.3,1.8,0.8c32.4,34.4,75.6,55.6,122.4,60l-7.6-7.6c-0.5-0.5-0.7-1.1-0.7-1.8s0.3-1.3,0.7-1.8l11.1-11.1
			c0.5-0.5,1.1-0.7,1.8-0.7s1.3,0.2,1.8,0.7l35.6,35.6c0.5,0.5,0.7,1.1,0.7,1.8s-0.3,1.3-0.7,1.8l-35.6,35.6
			C2680,769,2679.4,769.2,2678.8,769.2z"/>
		<path id="XMLID_76_" fill="#1E1D21" d="M2549.2,657.8c33.2,35.3,79.3,58.2,130.8,61.2l-12.3-12.3l11.1-11.1l35.6,35.6l-35.6,35.6
			l-11.1-11.1l13-13c-57.8-2.9-109.8-28.2-147.3-67.4L2549.2,657.8 M2549.2,652.8C2549.2,652.8,2549.2,652.8,2549.2,652.8
			c-1.4,0-2.8,0.6-3.7,1.6l-15.9,17.4c-1.8,1.9-1.7,4.9,0.1,6.8c37.2,38.9,86.5,62.9,139.6,68.1l-5.3,5.3c-0.9,0.9-1.5,2.2-1.5,3.5
			c0,1.3,0.5,2.6,1.5,3.5l11.1,11.1c1,1,2.3,1.5,3.5,1.5c1.3,0,2.6-0.5,3.5-1.5l35.6-35.6c2-2,2-5.1,0-7.1l-35.6-35.6
			c-1-1-2.3-1.5-3.5-1.5c-1.3,0-2.6,0.5-3.5,1.5l-11.1,11.1c-0.9,0.9-1.5,2.2-1.5,3.5c0,1.3,0.5,2.6,1.5,3.5l2.5,2.5
			c-43.4-5.7-83.4-26.1-113.7-58.4C2551.9,653.4,2550.6,652.8,2549.2,652.8L2549.2,652.8z"/>
	</g>
	<polygon id="XMLID_2721_" fill="#9CA7AB" points="2712.6,739.9 2713.1,740.4 2712.6,740.8 	"/>
	<g id="XMLID_2715_">
		<path id="XMLID_75_" fill="#FFFFFF" d="M2509.2,348.9c-1.1,0-2.1-0.8-2.4-1.9l-10.4-38.9c-0.4-1.3,0.4-2.7,1.8-3.1l12.2-3.3
			c0.2-0.1,0.4-0.1,0.6-0.1c0.4,0,0.9,0.1,1.3,0.3c0.6,0.3,1,0.9,1.2,1.5l2.4,8.8c24.4-35.2,60.3-60.3,101.8-71
			c0.2-0.1,0.4-0.1,0.6-0.1c1.1,0,2,0.7,2.4,1.7l5.7,18c0.2,0.7,0.1,1.4-0.2,2c-0.3,0.6-0.9,1-1.6,1.2c-35.2,8.8-65.9,29.6-87.2,59
			l6.9-1.9c0.2-0.1,0.4-0.1,0.6-0.1c1.1,0,2.1,0.7,2.4,1.9l3.3,12.2c0.2,0.6,0.1,1.3-0.3,1.9c-0.3,0.6-0.9,1-1.5,1.2l-38.9,10.4
			C2509.6,348.8,2509.4,348.9,2509.2,348.9L2509.2,348.9z"/>
		<path id="XMLID_68_" fill="#1E1D21" d="M2618.1,243.8l5.7,18c-38.4,9.6-71.3,33.4-92.5,65.6l13.5-3.6l3.3,12.2l-38.9,10.4h0
			l-10.4-38.9l12.2-3.3l3.8,14.2C2538.3,282,2575,254.9,2618.1,243.8 M2618.1,238.8c-0.4,0-0.8,0.1-1.2,0.2
			c-40.3,10.4-75.4,34.2-100.1,67.6l-1-3.7c-0.3-1.3-1.2-2.4-2.3-3c-0.8-0.4-1.6-0.7-2.5-0.7c-0.4,0-0.9,0.1-1.3,0.2l-12.2,3.3
			c-2.7,0.7-4.2,3.5-3.5,6.1l10.4,38.9c0.6,2.2,2.6,3.7,4.8,3.7c0.4,0,0.9-0.1,1.3-0.2l38.9-10.4c1.3-0.3,2.4-1.2,3-2.3
			c0.7-1.1,0.8-2.5,0.5-3.8l-3.3-12.2c-0.6-2.2-2.6-3.7-4.8-3.7c-0.4,0-0.8,0-1.2,0.1c20.7-25.8,49.1-44.2,81.4-52.3
			c1.3-0.3,2.5-1.2,3.2-2.4c0.7-1.2,0.8-2.6,0.4-4l-5.7-18C2622.2,240.2,2620.2,238.8,2618.1,238.8L2618.1,238.8z"/>
	</g>
	<polygon id="XMLID_2714_" fill="#9CA7AB" points="2488.5,351.8 2487.9,351.9 2487.7,351.3 	"/>
	<path id="XMLID_61_" fill="#FFFFFF" d="M2585.5,545.9c-9.7,0-17.5-7.9-17.5-17.5v-47.6c0-27.7-18.9-51.4-44.6-57.8
		c1-2,1.6-4.3,1.6-6.7c0-8.6-7-15.6-15.6-15.6c-8.6,0-15.6,7-15.6,15.6c0,2.4,0.6,4.7,1.5,6.7c-25.6,6.3-44.6,29.4-44.6,57v48.5
		c0,9.7-7.9,17.5-17.5,17.5v14.8h62.3v9.5c0,7.7,6.2,13.9,13.9,13.9c7.7,0,13.9-6.2,13.9-13.9v-9.5h62.3V545.9z"/>
	
		<path id="XMLID_45_" fill="none" stroke="#1E1D21" stroke-width="5" stroke-linecap="round" stroke-linejoin="round" stroke-miterlimit="10" d="
		M2523.2,570.2c0,7.7-6.2,13.9-13.9,13.9c-7.7,0-13.9-6.2-13.9-13.9"/>
	
		<path id="XMLID_44_" fill="none" stroke="#1E1D21" stroke-width="5" stroke-linecap="round" stroke-linejoin="round" stroke-miterlimit="10" d="
		M2426.6,515.3c-5.4-8-9.2-17-11.3-26.5s-2.2-19.7-0.2-29.9c2-10.2,5.9-19.5,11.4-27.6"/>
	
		<path id="XMLID_43_" fill="none" stroke="#1E1D21" stroke-width="5" stroke-linecap="round" stroke-linejoin="round" stroke-miterlimit="10" d="
		M2592,431.2c5.4,8,9.2,17,11.3,26.5c2,9.6,2.2,19.7,0.2,29.9c-2,10.2-5.9,19.5-11.4,27.6"/>
	
		<path id="XMLID_42_" fill="none" stroke="#1E1D21" stroke-width="5" stroke-linecap="round" stroke-linejoin="round" stroke-miterlimit="10" d="
		M2405.8,529.4c-7.2-10.6-12.3-22.7-15-35.4c-2.7-12.8-2.9-26.3-0.3-39.9c2.6-13.6,7.9-26,15.2-36.8"/>
	
		<path id="XMLID_38_" fill="none" stroke="#1E1D21" stroke-width="5" stroke-linecap="round" stroke-linejoin="round" stroke-miterlimit="10" d="
		M2612.8,417.1c7.2,10.6,12.3,22.7,15,35.4c2.7,12.8,2.9,26.3,0.3,39.9c-2.6,13.6-7.9,26-15.2,36.8"/>
	<path id="XMLID_37_" fill="#DFE0E1" d="M2554.2,442.5c-4.5-4.7-18.9-7.2-25.9-7.2c-14.5,0-26.3,11.8-26.3,26.3v96.3l-68.9,2.9
		v-14.8c8.8-0.5,17.2-5.3,17.2-14.2l0.3-51.8c0-11.2,4.9-26.1,12-35.5c1.5-2,3.1-3.9,4.9-5.6
		C2488.1,418.1,2528.3,415.4,2554.2,442.5z"/>
	
		<path id="XMLID_31_" fill="none" stroke="#1E1D21" stroke-width="5" stroke-linecap="round" stroke-linejoin="round" stroke-miterlimit="10" d="
		M2585.5,545.9L2585.5,545.9c-9.7,0-17.5-7.9-17.5-17.5v-47.6c0-27.7-18.9-51.4-44.6-57.8c1-2,1.6-4.3,1.6-6.7
		c0-8.6-7-15.6-15.6-15.6c-8.6,0-15.6,7-15.6,15.6c0,2.4,0.6,4.7,1.5,6.7c-25.6,6.3-44.6,29.4-44.6,57v48.5
		c0,9.7-7.9,17.5-17.5,17.5 M2433.1,560.7h152.4 M2508.1,410.7c1.5-0.3,3.1,0.1,4.3,1.3c1.9,1.9,1.9,4.9,0,6.7
		c-1.9,1.9-4.9,1.9-6.7,0 M2585.5,545.9L2585.5,545.9c-9.7,0-17.5-7.9-17.5-17.5v-47.6c0-27.7-18.9-51.4-44.6-57.8
		c1-2,1.6-4.3,1.6-6.7c0-8.6-7-15.6-15.6-15.6c-8.6,0-15.6,7-15.6,15.6c0,2.4,0.6,4.7,1.5,6.7c-25.6,6.3-44.6,29.4-44.6,57v48.5
		c0,9.7-7.9,17.5-17.5,17.5"/>
	<path id="XMLID_2748_" fill="#FFFFFF" d="M2087.9,607.8V292.1h-339.4v61c-1.3-0.3-2.7-0.4-4-0.4c-12,0-21.7,9.9-21.7,22.1
		c0,12.2,9.7,22.1,21.7,22.1c1.4,0,2.7-0.1,4-0.4V602l-8.7,12.2v48.2h355.7v-50.2L2087.9,607.8z"/>
	<path id="XMLID_2747_" fill="#FFFFFF" d="M2139.6,340.6h-443.5c-4.9,0-8.8-4-8.8-8.8v-18.6h465.3v14.4
		C2152.6,334.8,2146.8,340.6,2139.6,340.6z"/>
	<path id="XMLID_2746_" fill="#A7B9C0" d="M2025.2,394.2c-5.3-3.2-8.6-9.6-9.2-15.7c-0.7-8.3,4.2-14.4,11-17.4l-238.8-0.2V641H2032
		c0.1-9-1.4-17.8,0.2-26.8c0.7-3.7,3.8-4.7,6.6-3.9V393.8C2035,396.8,2029.6,396.8,2025.2,394.2z"/>
	<polygon id="XMLID_2745_" fill="#C6CACB" points="1771.5,643.7 1801.2,643.7 1800.4,608.7 1771.2,609.1 	"/>
	<polygon id="XMLID_2744_" fill="#C6CACB" points="1771.5,607.8 1795.1,607.8 1795.1,358.3 1771.9,360.9 	"/>
	<ellipse id="XMLID_2743_" fill="#C6CACB" cx="1798.6" cy="376" rx="23.4" ry="20.9"/>
	
		<line id="XMLID_2742_" fill="none" stroke="#1E1D21" stroke-width="5" stroke-linecap="round" stroke-linejoin="round" stroke-miterlimit="10" x1="1747.6" y1="607.8" x2="1747.6" y2="409.1"/>
	
		<path id="XMLID_2741_" fill="none" stroke="#1E1D21" stroke-width="5" stroke-linecap="round" stroke-linejoin="round" stroke-miterlimit="10" d="
		M1740.7,639.6v-23.7c0-4.4,3.6-8.1,8.1-8.1h46c4.5,0,8.1,3.6,8.1,8.1v23.7"/>
	
		<path id="XMLID_2740_" fill="#E0E1E2" stroke="#1E1D21" stroke-width="5" stroke-linecap="round" stroke-linejoin="round" stroke-miterlimit="10" d="
		M1799.1,382.9"/>
	
		<path id="XMLID_2739_" fill="#FFFFFF" stroke="#1E1D21" stroke-width="5" stroke-linecap="round" stroke-linejoin="round" stroke-miterlimit="10" d="
		M1744.4,382.9"/>
	
		<path id="XMLID_2738_" fill="none" stroke="#1E1D21" stroke-width="4" stroke-linecap="round" stroke-linejoin="round" stroke-miterlimit="10" d="
		M1954.5,641"/>
	
		<path id="XMLID_2737_" fill="none" stroke="#1E1D21" stroke-width="4" stroke-linecap="round" stroke-linejoin="round" stroke-miterlimit="10" d="
		M1752.9,641"/>
	<path id="XMLID_2713_" fill="#FFFFFF" d="M1748.5,607.8"/>
	
		<path id="XMLID_2712_" fill="none" stroke="#1E1D21" stroke-width="5" stroke-linecap="round" stroke-linejoin="round" stroke-miterlimit="10" d="
		M1790.5,377.2h-32.7c0.1,0.5,0.1,5.1,0.1,5.6c0,5.1-2.9,10-7.8,12.3c-2.8,1.3-5.7,1.9-8.5,1.9c-7.6,0-15-4.3-18.5-11.7
		c-4.7-10.2-0.3-22.2,9.8-27h30.8"/>
	
		<path id="XMLID_2711_" fill="none" stroke="#1E1D21" stroke-width="5" stroke-linecap="round" stroke-linejoin="round" stroke-miterlimit="10" d="
		M1779.9,358.3h30.6c10.1,4.8,14.5,16.8,9.8,27c-3.5,7.4-10.8,11.7-18.5,11.7c-2,0-4-0.3-6-0.9v211.7"/>
	<polygon id="XMLID_2710_" fill="#C6CACB" points="2064.4,643.7 2094.1,643.7 2093.3,608.7 2064.1,609.1 	"/>
	<polygon id="XMLID_2709_" fill="#C6CACB" points="2064.4,607.8 2087.9,607.8 2087.9,358.3 2064.8,360.9 	"/>
	<ellipse id="XMLID_2708_" fill="#C6CACB" cx="2091.5" cy="376" rx="23.4" ry="20.9"/>
	
		<line id="XMLID_2707_" fill="none" stroke="#1E1D21" stroke-width="5" stroke-linecap="round" stroke-linejoin="round" stroke-miterlimit="10" x1="2040.5" y1="607.8" x2="2040.5" y2="409.1"/>
	
		<path id="XMLID_2706_" fill="none" stroke="#1E1D21" stroke-width="5" stroke-linecap="round" stroke-linejoin="round" stroke-miterlimit="10" d="
		M2033.6,639.6v-23.7c0-4.4,3.6-8.1,8.1-8.1h46c4.5,0,8.1,3.6,8.1,8.1v23.7"/>
	
		<path id="XMLID_2705_" fill="none" stroke="#1E1D21" stroke-width="5" stroke-linecap="round" stroke-linejoin="round" stroke-miterlimit="10" d="
		M2083.4,377.2h-32.6c0.1,0.5,0.1,5.1,0.1,5.6c0,5.1-2.9,10-7.8,12.3c-2.8,1.3-5.7,1.9-8.5,1.9c-7.6,0-15-4.3-18.5-11.7
		c-4.7-10.2-0.3-22.2,9.8-27h30.8"/>
	
		<path id="XMLID_2704_" fill="none" stroke="#1E1D21" stroke-width="5" stroke-linecap="round" stroke-linejoin="round" stroke-miterlimit="10" d="
		M2072.8,358.3h30.6c10.1,4.8,14.5,16.8,9.8,27c-3.5,7.4-10.8,11.7-18.5,11.7c-2,0-4-0.3-6-0.9v211.7"/>
	<path id="XMLID_2703_" fill="#FFFFFF" d="M2152.6,716.1v-36.2c0-4.4-3.6-8.1-8.1-8.1h-24.2v-24.2c0-4.4-3.6-8.1-8.1-8.1h-386.5
		c-4.4,0-8.1,3.6-8.1,8.1v24.2h-24.2c-4.4,0-8.1,3.6-8.1,8.1v36.2"/>
	
		<path id="XMLID_2702_" fill="none" stroke="#1E1D21" stroke-width="5" stroke-linecap="round" stroke-linejoin="round" stroke-miterlimit="10" d="
		M1685.5,712v-32.2c0-4.4,3.6-8.1,8.1-8.1h24.1v-24.2c0-4.4,3.6-8.1,8.1-8.1h14.9"/>
	
		<path id="XMLID_2701_" fill="none" stroke="#1E1D21" stroke-width="5" stroke-linecap="round" stroke-linejoin="round" stroke-miterlimit="10" d="
		M2064.6,639.6h47.7c4.5,0,8.1,3.6,8.1,8.1v24.2h24.2c4.5,0,8.1,3.6,8.1,8.1V712"/>
	
		<line id="XMLID_2700_" fill="none" stroke="#1E1D21" stroke-width="5" stroke-linecap="round" stroke-linejoin="round" stroke-miterlimit="10" x1="2033.6" y1="639.6" x2="1771.8" y2="639.6"/>
	
		<path id="XMLID_2699_" fill="none" stroke="#1E1D21" stroke-width="5" stroke-linecap="round" stroke-linejoin="round" stroke-miterlimit="10" d="
		M1964.4,261.3"/>
	
		<polyline id="XMLID_2698_" fill="none" stroke="#1E1D21" stroke-width="5" stroke-linecap="round" stroke-linejoin="round" stroke-miterlimit="10" points="
		1824.6,282.6 1920.4,227 2015.7,282.6 	"/>
	
		<path id="XMLID_2697_" fill="#FFFFFF" stroke="#1E1D21" stroke-width="5" stroke-linecap="round" stroke-linejoin="round" stroke-miterlimit="10" d="
		M2152.6,317.2v15.3c0,4-4,7.3-9,7.3h-9.2v11.3c0,4-3.6,7.3-8.1,7.3h-414.5c-4.4,0-8.1-3.3-8.1-7.3v-11.3h-9.2c-5,0-9-3.3-9-7.3
		v-15.3"/>
	
		<path id="XMLID_2696_" fill="#FFFFFF" stroke="#1E1D21" stroke-width="5" stroke-linecap="round" stroke-linejoin="round" stroke-miterlimit="10" d="
		M1920.1,315.6"/>
	
		<polyline id="XMLID_2695_" fill="#FFFFFF" stroke="#1E1D21" stroke-width="5" stroke-linecap="round" stroke-linejoin="round" stroke-miterlimit="10" points="
		1685.5,315.6 1919.1,201.8 2152.6,315.6 	"/>
	
		<path id="XMLID_2694_" fill="#FFFFFF" stroke="#1E1D21" stroke-width="5" stroke-linecap="round" stroke-linejoin="round" stroke-miterlimit="10" d="
		M2095.7,315.6"/>
	<path id="XMLID_2693_" fill="#C6CACB" d="M2042,299.6h-246c-4.1,0-5.3-5.5-1.7-7.3l123-59.9c1.1-0.5,2.3-0.5,3.4,0l123,59.9
		C2047.4,294.1,2046.1,299.6,2042,299.6z"/>
	
		<line id="XMLID_2692_" fill="none" stroke="#C6CACB" stroke-width="5" stroke-linecap="round" stroke-linejoin="round" stroke-miterlimit="10" x1="2114.9" y1="319.3" x2="1723.2" y2="319.3"/>
	
		<line id="XMLID_2691_" fill="none" stroke="#C6CACB" stroke-width="5" stroke-linecap="round" stroke-linejoin="round" stroke-miterlimit="10" x1="2099.6" y1="339" x2="1738.5" y2="339"/>
	
		<line id="XMLID_2690_" fill="none" stroke="#C6CACB" stroke-width="5" stroke-linecap="round" stroke-linejoin="round" stroke-miterlimit="10" x1="1723.2" y1="698.1" x2="2114.9" y2="698.1"/>
	
		<line id="XMLID_2677_" fill="none" stroke="#C6CACB" stroke-width="5" stroke-linecap="round" stroke-linejoin="round" stroke-miterlimit="10" x1="1738.5" y1="678.4" x2="2099.6" y2="678.4"/>
	
		<line id="XMLID_2673_" fill="none" stroke="#C6CACB" stroke-width="5" stroke-linecap="round" stroke-linejoin="round" stroke-miterlimit="10" x1="1754.6" y1="658.8" x2="2083.5" y2="658.8"/>
	<g id="XMLID_2635_">
		<g id="XMLID_2652_">
			
				<line id="XMLID_67_" fill="none" stroke="#FFFFFF" stroke-width="24" stroke-linecap="round" stroke-linejoin="round" stroke-miterlimit="10" x1="1901.2" y1="403.8" x2="1900.2" y2="602.8"/>
			
				<line id="XMLID_66_" fill="none" stroke="#272425" stroke-width="8" stroke-linecap="round" stroke-linejoin="round" stroke-miterlimit="10" x1="1901.2" y1="403.8" x2="1900.2" y2="602.8"/>
		</g>
		<g id="XMLID_2648_">
			
				<line id="XMLID_65_" fill="none" stroke="#FFFFFF" stroke-width="24" stroke-linecap="round" stroke-linejoin="round" stroke-miterlimit="10" x1="1933.3" y1="403.9" x2="1932.4" y2="602.9"/>
			
				<line id="XMLID_64_" fill="none" stroke="#272425" stroke-width="8" stroke-linecap="round" stroke-linejoin="round" stroke-miterlimit="10" x1="1933.3" y1="403.9" x2="1932.4" y2="602.9"/>
		</g>
		<g id="XMLID_2644_">
			
				<path id="XMLID_62_" fill="none" stroke="#FFFFFF" stroke-width="24" stroke-linecap="round" stroke-linejoin="round" stroke-miterlimit="10" d="
				M1866.3,563c8.5,7.5,20.9,12.9,35.2,14.3l1.4,0.1l1.4,0.1l3.4,0.3l3.4,0.3c13.4,1.3,26.3-1.1,36.3-6.1
				c10-5.1,17.3-12.8,19.6-22.1l0,0v0c2-7.9,0.2-16-4.7-23s-12.8-13.1-23.1-17.1l-24.8-9.7l-24.8-9.7c-10.2-4-18.2-10.1-23.1-17.1
				s-6.7-15.1-4.7-23v0v0c2.3-9.3,9.6-17.1,19.6-22.1c10-5.1,22.8-7.5,36.3-6.1l3.4,0.3l3.4,0.3l1.4,0.1l1.4,0.1
				c14.3,1.4,26.7,6.8,35.2,14.3"/>
			
				<path id="XMLID_60_" fill="none" stroke="#272425" stroke-width="8" stroke-linecap="round" stroke-linejoin="round" stroke-miterlimit="10" d="
				M1866.3,563c8.5,7.5,20.9,12.9,35.2,14.3l1.4,0.1l1.4,0.1l3.4,0.3l3.4,0.3c13.4,1.3,26.3-1.1,36.3-6.1
				c10-5.1,17.3-12.8,19.6-22.1l0,0v0c2-7.9,0.2-16-4.7-23s-12.8-13.1-23.1-17.1l-24.8-9.7l-24.8-9.7c-10.2-4-18.2-10.1-23.1-17.1
				s-6.7-15.1-4.7-23v0v0c2.3-9.3,9.6-17.1,19.6-22.1c10-5.1,22.8-7.5,36.3-6.1l3.4,0.3l3.4,0.3l1.4,0.1l1.4,0.1
				c14.3,1.4,26.7,6.8,35.2,14.3"/>
		</g>
		
			<line id="XMLID_2639_" fill="none" stroke="#272425" stroke-width="8" stroke-linejoin="round" stroke-miterlimit="10" x1="1933.3" y1="406.6" x2="1933.1" y2="450.8"/>
		
			<line id="XMLID_2638_" fill="none" stroke="#272425" stroke-width="8" stroke-linejoin="round" stroke-miterlimit="10" x1="1900.9" y1="452.4" x2="1901.1" y2="405.6"/>
		
			<line id="XMLID_2637_" fill="none" stroke="#272425" stroke-width="8" stroke-linejoin="round" stroke-miterlimit="10" x1="1932.6" y1="555.5" x2="1932.4" y2="599.7"/>
		
			<line id="XMLID_2636_" fill="none" stroke="#272425" stroke-width="8" stroke-linejoin="round" stroke-miterlimit="10" x1="1900.2" y1="601.4" x2="1900.5" y2="554.5"/>
		<g id="XMLID_2640_">
			
				<line id="XMLID_59_" fill="none" stroke="#FFFFFF" stroke-width="24" stroke-linejoin="round" stroke-miterlimit="10" x1="1933" y1="461.8" x2="1932.6" y2="546.4"/>
			
				<line id="XMLID_58_" fill="none" stroke="#272425" stroke-width="8" stroke-linecap="round" stroke-linejoin="round" stroke-miterlimit="10" x1="1933" y1="461.8" x2="1932.6" y2="546.4"/>
		</g>
	</g>
	<g id="XMLID_119_">
		
			<path id="XMLID_4034_" fill="#1D1C20" stroke="#1E1D21" stroke-width="5" stroke-linecap="round" stroke-linejoin="round" stroke-miterlimit="10" d="
			M3425.5,424h-78.3c-3.1,0-5.6-2.5-5.6-5.6V250.9c0-3.1,2.5-5.6,5.6-5.6h78.3c3.1,0,5.6,2.5,5.6,5.6v167.5
			C3431.1,421.5,3428.6,424,3425.5,424z"/>
		<rect id="XMLID_4030_" x="3348.7" y="267.9" fill="#FFFFFF" width="75.3" height="121.1"/>
		
			<line id="XMLID_4028_" fill="none" stroke="#FFFFFF" stroke-width="5" stroke-linecap="round" stroke-linejoin="round" stroke-miterlimit="10" x1="3376.5" y1="256.3" x2="3396.1" y2="256.3"/>
		<circle id="XMLID_4027_" fill="#FFFFFF" cx="3386.3" cy="406.6" r="6.9"/>
		
			<line id="XMLID_4033_" fill="#FFFFFF" stroke="#C4C9CA" stroke-width="5" stroke-linecap="round" stroke-linejoin="round" stroke-miterlimit="10" x1="3384.9" y1="276" x2="3416" y2="316.8"/>
		
			<line id="XMLID_4032_" fill="#FFFFFF" stroke="#C4C9CA" stroke-width="5" stroke-linecap="round" stroke-linejoin="round" stroke-miterlimit="10" x1="3416" y1="296" x2="3402.5" y2="278"/>
		
			<line id="XMLID_4031_" fill="#FFFFFF" stroke="#C4C9CA" stroke-width="5" stroke-linecap="round" stroke-linejoin="round" stroke-miterlimit="10" x1="3371.3" y1="379.4" x2="3357.8" y2="361.4"/>
	</g>
	<g id="XMLID_3203_">
		<path id="XMLID_3242_" fill="#1D1C20" d="M3606.2,721.6h-370.5V508.4c0-9.6,7.8-17.3,17.3-17.3h335.9c9.6,0,17.3,7.8,17.3,17.3
			V721.6z"/>
		<rect id="XMLID_215_" x="3255.9" y="511.3" fill="#FFFFFF" width="330" height="209.7"/>
		
			<line id="XMLID_204_" fill="#FFFFFF" stroke="#C4C9CA" stroke-width="5" stroke-linecap="round" stroke-linejoin="round" stroke-miterlimit="10" x1="3460.3" y1="525.2" x2="3566.9" y2="665.1"/>
		
			<line id="XMLID_203_" fill="#FFFFFF" stroke="#C4C9CA" stroke-width="5" stroke-linecap="round" stroke-linejoin="round" stroke-miterlimit="10" x1="3566.9" y1="586.7" x2="3520.8" y2="525.2"/>
		
			<line id="XMLID_201_" fill="#FFFFFF" stroke="#C4C9CA" stroke-width="5" stroke-linecap="round" stroke-linejoin="round" stroke-miterlimit="10" x1="3317.1" y1="704.1" x2="3271" y2="642.6"/>
		
			<line id="XMLID_205_" fill="#FFFFFF" stroke="#C4C9CA" stroke-width="5" stroke-linecap="round" stroke-linejoin="round" stroke-miterlimit="10" x1="3290.4" y1="704.1" x2="3271" y2="678.2"/>
		<path id="XMLID_3228_" fill="#1D1C20" d="M3606.2,721.6h-370.5l-61,143.9c-2.8,6.6,2,13.9,9.2,13.9h116.4h241.3h116.4
			c7.2,0,12-7.3,9.2-13.9L3606.2,721.6z"/>
		<polygon id="XMLID_3222_" fill="#FFFFFF" points="3585.9,736.2 3255.9,736.2 3229.9,798.9 3472.6,798.9 3569.5,798.9 
			3611.9,798.9 		"/>
		<polygon id="XMLID_3221_" fill="#FFFFFF" points="3462.1,814.1 3379.7,814.1 3367.6,843.3 3474.2,843.3 		"/>
		<polygon id="XMLID_3220_" fill="#1D1C20" points="3575.7,858.6 3555.2,858.6 3498.5,721.6 3519,721.6 		"/>
		
			<line id="XMLID_3219_" fill="none" stroke="#FFFFFF" stroke-width="10" stroke-linecap="round" stroke-linejoin="round" stroke-miterlimit="10" x1="3184.3" y1="869.4" x2="3658.1" y2="869.4"/>
		<rect id="XMLID_3218_" x="3523.6" y="753" fill="#1D1C20" width="85.4" height="14.6"/>
	</g>
	<text transform="matrix(1 0 0 1 779.1469 951.491)" font-family="'Roboto-Regular'" font-size="64px">T</text>
	<text transform="matrix(1 0 0 1 819.894 951.491)" font-family="'Roboto-Regular'" font-size="64px">h</text>
	<text transform="matrix(1 0 0 1 857.7045 951.491)" font-family="'Roboto-Regular'" font-size="64px">r</text>
	<text transform="matrix(1 0 0 1 881.3266 951.491)" font-family="'Roboto-Regular'" font-size="64px">e</text>
	<text transform="matrix(1 0 0 1 917.7934 951.491)" font-family="'Roboto-Regular'" font-size="64px">a</text>
	<text transform="matrix(1 0 0 1 955.1655 951.491)" font-family="'Roboto-Regular'" font-size="64px">t</text>
	<text transform="matrix(1 0 0 1 978.6323 951.491)" font-family="'Roboto-Regular'" font-size="64px">F</text>
	<text transform="matrix(1 0 0 1 1015.5043 951.491)" font-family="'Roboto-Regular'" font-size="64px">a</text>
	<text transform="matrix(1 0 0 1 1052.8773 951.491)" font-family="'Roboto-Regular'" font-size="64px">b</text>
	<text transform="matrix(1 0 0 1 1091.3431 951.491)" font-family="'Roboto-Regular'" font-size="64px">r</text>
	<text transform="matrix(1 0 0 1 1115.559 951.491)" font-family="'Roboto-Regular'" font-size="64px">i</text>
	<text transform="matrix(1 0 0 1 1133.6508 951.491)" font-family="'Roboto-Regular'" font-size="64px">c</text>
	<text transform="matrix(1 0 0 1 2657.3794 951.491)" font-family="'Roboto-Regular'" font-size="64px">C</text>
	<text transform="matrix(1 0 0 1 2701.5952 951.491)" font-family="'Roboto-Regular'" font-size="64px">S</text>
	<text transform="matrix(1 0 0 1 2742.1245 951.491)" font-family="'Roboto-Regular'" font-size="64px">D</text>
</g>
<g id="typo">
</g>
</svg>
