<?xml version="1.0" encoding="utf-8"?>
<!-- Generator: Adobe Illustrator 19.0.0, SVG Export Plug-In . SVG Version: 6.00 Build 0)  -->
<svg version="1.2" baseProfile="tiny" xmlns="http://www.w3.org/2000/svg" xmlns:xlink="http://www.w3.org/1999/xlink" x="0px"
	 y="0px" width="3812.2px" height="1013.1px" viewBox="0 0 3812.2 1013.1" xml:space="preserve">
<g id="achterWebsite">
	<rect id="XMLID_608_" x="0" fill="#C2DF8A" width="3812.2" height="1013.1"/>
</g>
<g id="Laag_1">
</g>
<g id="nrs">
	<g id="XMLID_3203_">
		<path id="XMLID_3242_" fill="#1D1C20" d="M3051,569.3h-460V304.5c0-11.9,9.6-21.5,21.5-21.5h417c11.9,0,21.5,9.6,21.5,21.5V569.3z
			"/>
		<polygon id="XMLID_3241_" fill="#E0E1E2" points="3025.8,308.2 3025.8,479.9 2639.5,308.2 		"/>
		<polygon id="XMLID_3239_" fill="#FFFFFF" points="3025.8,479.9 3025.8,568.5 2911.9,568.5 2616.1,437 2616.1,308.2 2639.5,308.2 
					"/>
		<polygon id="XMLID_3238_" fill="#E0E1E2" points="2911.9,568.5 2616.1,568.5 2616.1,437 		"/>
		<path id="XMLID_3228_" fill="#1D1C20" d="M3051,569.3h-460L2521.5,739c-5.1,12.4,4,26.1,17.4,26.1h132.2h299.6h132.2
			c13.4,0,22.6-13.7,17.4-26.1L3051,569.3z"/>
		<polygon id="XMLID_3222_" fill="#FFFFFF" points="3025.8,587.4 2616.1,587.4 2583.9,665.2 2885.1,665.2 3005.5,665.2 3058,665.2 
					"/>
		<polygon id="XMLID_3221_" fill="#FFFFFF" points="2872.1,684.1 2769.8,684.1 2754.8,720.4 2887.1,720.4 		"/>
		<polygon id="XMLID_3220_" fill="#1D1C20" points="3013.2,739.2 2987.6,739.2 2917.2,569.3 2942.8,569.3 		"/>
		
			<line id="XMLID_3219_" fill="none" stroke="#FFFFFF" stroke-width="12" stroke-linecap="round" stroke-linejoin="round" stroke-miterlimit="10" x1="2538.4" y1="747.7" x2="3104" y2="747.7"/>
		<rect id="XMLID_3218_" x="2948.4" y="608.2" fill="#1D1C20" width="106.1" height="18.1"/>
	</g>
	
		<line id="XMLID_3202_" fill="none" stroke="#1D1C20" stroke-width="8" stroke-linecap="round" stroke-linejoin="round" stroke-miterlimit="10" x1="1305.7" y1="574.8" x2="1582.6" y2="574.8"/>
	
		<line id="XMLID_3201_" fill="none" stroke="#1D1C20" stroke-width="8" stroke-linecap="round" stroke-linejoin="round" stroke-miterlimit="10" x1="2307.1" y1="574.8" x2="2502.3" y2="574.8"/>
	<path id="XMLID_3200_" fill="#ECEDED" d="M2263.7,396c54.1,99.6,57.2,219.1,8.4,321.4L1952.5,565L2263.7,396z"/>
	<path id="XMLID_3199_" fill="#767A7E" d="M2229.7,718.6c-84.2,176.5-295.6,251.4-472.1,167.2c-176.5-84.2-251.4-295.6-167.2-472.1
		c84.2-176.5,295.6-251.4,472.1-167.2c67.5,32.2,123.1,84.9,158.8,150.7l-311.2,169L2229.7,718.6z"/>
	<g id="XMLID_2105_">
		<g id="XMLID_2151_">
			<g id="XMLID_3188_">
				
					<path id="XMLID_3198_" fill="#FFFFFF" stroke="#1D1C20" stroke-width="8" stroke-linecap="round" stroke-linejoin="round" stroke-miterlimit="10" d="
					M1083.4,720H831.8c-6.6,0-11.9-5.3-11.9-11.9V335.5c0-6.6,5.3-11.9,11.9-11.9h251.6c6.6,0,11.9,5.3,11.9,11.9V708
					C1095.3,714.6,1090,720,1083.4,720z"/>
				
					<rect id="XMLID_3197_" x="841.7" y="365.5" fill="none" stroke="#1D1C20" stroke-width="8" stroke-linecap="round" stroke-linejoin="round" stroke-miterlimit="10" width="231.7" height="308"/>
				<circle id="XMLID_3191_" fill="#1D1C20" cx="949.8" cy="696.4" r="9.9"/>
				<circle id="XMLID_3189_" fill="#1D1C20" cx="949.8" cy="343.5" r="4.9"/>
			</g>
			<g id="XMLID_3134_">
				<g id="XMLID_88_">
					<path id="XMLID_93_" fill="#C4C9CA" d="M880.2,408H870c-3.3,0-6-2.7-6-6v-10.2c0-3.3,2.7-6,6-6h10.2c3.3,0,6,2.7,6,6V402
						C886.2,405.3,883.5,408,880.2,408z"/>
					<path id="XMLID_92_" fill="#C4C9CA" d="M921.2,408H911c-3.3,0-6-2.7-6-6v-10.2c0-3.3,2.7-6,6-6h10.2c3.3,0,6,2.7,6,6V402
						C927.2,405.3,924.5,408,921.2,408z"/>
					<path id="XMLID_91_" fill="#C4C9CA" d="M962.1,408h-10.2c-3.3,0-6-2.7-6-6v-10.2c0-3.3,2.7-6,6-6h10.2c3.3,0,6,2.7,6,6V402
						C968.1,405.3,965.4,408,962.1,408z"/>
					<path id="XMLID_90_" fill="#C4C9CA" d="M1003.1,408h-10.2c-3.3,0-6-2.7-6-6v-10.2c0-3.3,2.7-6,6-6h10.2c3.3,0,6,2.7,6,6V402
						C1009.1,405.3,1006.4,408,1003.1,408z"/>
					<path id="XMLID_89_" fill="#C4C9CA" d="M1044.1,408h-10.2c-3.3,0-6-2.7-6-6v-10.2c0-3.3,2.7-6,6-6h10.2c3.3,0,6,2.7,6,6V402
						C1050,405.3,1047.4,408,1044.1,408z"/>
				</g>
				<g id="XMLID_81_">
					<path id="XMLID_87_" fill="#C4C9CA" d="M880.2,408H870c-3.3,0-6-2.7-6-6v-10.2c0-3.3,2.7-6,6-6h10.2c3.3,0,6,2.7,6,6V402
						C886.2,405.3,883.5,408,880.2,408z"/>
					<path id="XMLID_85_" fill="#C4C9CA" d="M921.2,408H911c-3.3,0-6-2.7-6-6v-10.2c0-3.3,2.7-6,6-6h10.2c3.3,0,6,2.7,6,6V402
						C927.2,405.3,924.5,408,921.2,408z"/>
					<path id="XMLID_84_" fill="#C4C9CA" d="M962.1,408h-10.2c-3.3,0-6-2.7-6-6v-10.2c0-3.3,2.7-6,6-6h10.2c3.3,0,6,2.7,6,6V402
						C968.1,405.3,965.4,408,962.1,408z"/>
					<path id="XMLID_83_" fill="#C4C9CA" d="M1003.1,408h-10.2c-3.3,0-6-2.7-6-6v-10.2c0-3.3,2.7-6,6-6h10.2c3.3,0,6,2.7,6,6V402
						C1009.1,405.3,1006.4,408,1003.1,408z"/>
					<path id="XMLID_82_" fill="#C4C9CA" d="M1044.1,408h-10.2c-3.3,0-6-2.7-6-6v-10.2c0-3.3,2.7-6,6-6h10.2c3.3,0,6,2.7,6,6V402
						C1050,405.3,1047.4,408,1044.1,408z"/>
				</g>
			</g>
			<g id="XMLID_3081_">
				<g id="XMLID_75_">
					<path id="XMLID_80_" fill="#C4C9CA" d="M880.2,445.1H870c-3.3,0-6-2.7-6-6v-10.2c0-3.3,2.7-6,6-6h10.2c3.3,0,6,2.7,6,6v10.2
						C886.2,442.4,883.5,445.1,880.2,445.1z"/>
					<path id="XMLID_79_" fill="#C4C9CA" d="M921.2,445.1H911c-3.3,0-6-2.7-6-6v-10.2c0-3.3,2.7-6,6-6h10.2c3.3,0,6,2.7,6,6v10.2
						C927.2,442.4,924.5,445.1,921.2,445.1z"/>
					<path id="XMLID_78_" fill="#C4C9CA" d="M962.1,445.1h-10.2c-3.3,0-6-2.7-6-6v-10.2c0-3.3,2.7-6,6-6h10.2c3.3,0,6,2.7,6,6v10.2
						C968.1,442.4,965.4,445.1,962.1,445.1z"/>
					<path id="XMLID_77_" fill="#C4C9CA" d="M1003.1,445.1h-10.2c-3.3,0-6-2.7-6-6v-10.2c0-3.3,2.7-6,6-6h10.2c3.3,0,6,2.7,6,6v10.2
						C1009.1,442.4,1006.4,445.1,1003.1,445.1z"/>
					<path id="XMLID_76_" fill="#C4C9CA" d="M1044.1,445.1h-10.2c-3.3,0-6-2.7-6-6v-10.2c0-3.3,2.7-6,6-6h10.2c3.3,0,6,2.7,6,6v10.2
						C1050,442.4,1047.4,445.1,1044.1,445.1z"/>
				</g>
				<g id="XMLID_69_">
					<path id="XMLID_74_" fill="#C4C9CA" d="M880.2,445.1H870c-3.3,0-6-2.7-6-6v-10.2c0-3.3,2.7-6,6-6h10.2c3.3,0,6,2.7,6,6v10.2
						C886.2,442.4,883.5,445.1,880.2,445.1z"/>
					<path id="XMLID_73_" fill="#C4C9CA" d="M921.2,445.1H911c-3.3,0-6-2.7-6-6v-10.2c0-3.3,2.7-6,6-6h10.2c3.3,0,6,2.7,6,6v10.2
						C927.2,442.4,924.5,445.1,921.2,445.1z"/>
					<path id="XMLID_72_" fill="#C4C9CA" d="M962.1,445.1h-10.2c-3.3,0-6-2.7-6-6v-10.2c0-3.3,2.7-6,6-6h10.2c3.3,0,6,2.7,6,6v10.2
						C968.1,442.4,965.4,445.1,962.1,445.1z"/>
					<path id="XMLID_71_" fill="#C4C9CA" d="M1003.1,445.1h-10.2c-3.3,0-6-2.7-6-6v-10.2c0-3.3,2.7-6,6-6h10.2c3.3,0,6,2.7,6,6v10.2
						C1009.1,442.4,1006.4,445.1,1003.1,445.1z"/>
					<path id="XMLID_70_" fill="#C4C9CA" d="M1044.1,445.1h-10.2c-3.3,0-6-2.7-6-6v-10.2c0-3.3,2.7-6,6-6h10.2c3.3,0,6,2.7,6,6v10.2
						C1050,442.4,1047.4,445.1,1044.1,445.1z"/>
				</g>
			</g>
			<g id="XMLID_2551_">
				<g id="XMLID_63_">
					<path id="XMLID_68_" fill="#C4C9CA" d="M880.2,482.1H870c-3.3,0-6-2.7-6-6v-10.2c0-3.3,2.7-6,6-6h10.2c3.3,0,6,2.7,6,6v10.2
						C886.2,479.5,883.5,482.1,880.2,482.1z"/>
					<path id="XMLID_67_" fill="#C4C9CA" d="M921.2,482.1H911c-3.3,0-6-2.7-6-6v-10.2c0-3.3,2.7-6,6-6h10.2c3.3,0,6,2.7,6,6v10.2
						C927.2,479.5,924.5,482.1,921.2,482.1z"/>
					<path id="XMLID_66_" fill="#C4C9CA" d="M962.1,482.1h-10.2c-3.3,0-6-2.7-6-6v-10.2c0-3.3,2.7-6,6-6h10.2c3.3,0,6,2.7,6,6v10.2
						C968.1,479.5,965.4,482.1,962.1,482.1z"/>
					<path id="XMLID_65_" fill="#C4C9CA" d="M1003.1,482.1h-10.2c-3.3,0-6-2.7-6-6v-10.2c0-3.3,2.7-6,6-6h10.2c3.3,0,6,2.7,6,6v10.2
						C1009.1,479.5,1006.4,482.1,1003.1,482.1z"/>
					<path id="XMLID_64_" fill="#C4C9CA" d="M1044.1,482.1h-10.2c-3.3,0-6-2.7-6-6v-10.2c0-3.3,2.7-6,6-6h10.2c3.3,0,6,2.7,6,6v10.2
						C1050,479.5,1047.4,482.1,1044.1,482.1z"/>
				</g>
				<g id="XMLID_53_">
					<path id="XMLID_62_" fill="#C4C9CA" d="M880.2,482.1H870c-3.3,0-6-2.7-6-6v-10.2c0-3.3,2.7-6,6-6h10.2c3.3,0,6,2.7,6,6v10.2
						C886.2,479.5,883.5,482.1,880.2,482.1z"/>
					<path id="XMLID_61_" fill="#C4C9CA" d="M921.2,482.1H911c-3.3,0-6-2.7-6-6v-10.2c0-3.3,2.7-6,6-6h10.2c3.3,0,6,2.7,6,6v10.2
						C927.2,479.5,924.5,482.1,921.2,482.1z"/>
					<path id="XMLID_56_" fill="#C4C9CA" d="M962.1,482.1h-10.2c-3.3,0-6-2.7-6-6v-10.2c0-3.3,2.7-6,6-6h10.2c3.3,0,6,2.7,6,6v10.2
						C968.1,479.5,965.4,482.1,962.1,482.1z"/>
					<path id="XMLID_55_" fill="#C4C9CA" d="M1003.1,482.1h-10.2c-3.3,0-6-2.7-6-6v-10.2c0-3.3,2.7-6,6-6h10.2c3.3,0,6,2.7,6,6v10.2
						C1009.1,479.5,1006.4,482.1,1003.1,482.1z"/>
					<path id="XMLID_54_" fill="#C4C9CA" d="M1044.1,482.1h-10.2c-3.3,0-6-2.7-6-6v-10.2c0-3.3,2.7-6,6-6h10.2c3.3,0,6,2.7,6,6v10.2
						C1050,479.5,1047.4,482.1,1044.1,482.1z"/>
				</g>
			</g>
			<g id="XMLID_2322_">
				<g id="XMLID_22_">
					<path id="XMLID_27_" fill="#C4C9CA" d="M880.2,519.2H870c-3.3,0-6-2.7-6-6V503c0-3.3,2.7-6,6-6h10.2c3.3,0,6,2.7,6,6v10.2
						C886.2,516.5,883.5,519.2,880.2,519.2z"/>
					<path id="XMLID_26_" fill="#C4C9CA" d="M921.2,519.2H911c-3.3,0-6-2.7-6-6V503c0-3.3,2.7-6,6-6h10.2c3.3,0,6,2.7,6,6v10.2
						C927.2,516.5,924.5,519.2,921.2,519.2z"/>
					<path id="XMLID_25_" fill="#C4C9CA" d="M962.1,519.2h-10.2c-3.3,0-6-2.7-6-6V503c0-3.3,2.7-6,6-6h10.2c3.3,0,6,2.7,6,6v10.2
						C968.1,516.5,965.4,519.2,962.1,519.2z"/>
					<path id="XMLID_24_" fill="#C4C9CA" d="M1003.1,519.2h-10.2c-3.3,0-6-2.7-6-6V503c0-3.3,2.7-6,6-6h10.2c3.3,0,6,2.7,6,6v10.2
						C1009.1,516.5,1006.4,519.2,1003.1,519.2z"/>
					<path id="XMLID_23_" fill="#C4C9CA" d="M1044.1,519.2h-10.2c-3.3,0-6-2.7-6-6V503c0-3.3,2.7-6,6-6h10.2c3.3,0,6,2.7,6,6v10.2
						C1050,516.5,1047.4,519.2,1044.1,519.2z"/>
				</g>
				<g id="XMLID_16_">
					<path id="XMLID_21_" fill="#C4C9CA" d="M880.2,519.2H870c-3.3,0-6-2.7-6-6V503c0-3.3,2.7-6,6-6h10.2c3.3,0,6,2.7,6,6v10.2
						C886.2,516.5,883.5,519.2,880.2,519.2z"/>
					<path id="XMLID_20_" fill="#C4C9CA" d="M921.2,519.2H911c-3.3,0-6-2.7-6-6V503c0-3.3,2.7-6,6-6h10.2c3.3,0,6,2.7,6,6v10.2
						C927.2,516.5,924.5,519.2,921.2,519.2z"/>
					<path id="XMLID_19_" fill="#C4C9CA" d="M962.1,519.2h-10.2c-3.3,0-6-2.7-6-6V503c0-3.3,2.7-6,6-6h10.2c3.3,0,6,2.7,6,6v10.2
						C968.1,516.5,965.4,519.2,962.1,519.2z"/>
					<path id="XMLID_18_" fill="#C4C9CA" d="M1003.1,519.2h-10.2c-3.3,0-6-2.7-6-6V503c0-3.3,2.7-6,6-6h10.2c3.3,0,6,2.7,6,6v10.2
						C1009.1,516.5,1006.4,519.2,1003.1,519.2z"/>
					<path id="XMLID_17_" fill="#C4C9CA" d="M1044.1,519.2h-10.2c-3.3,0-6-2.7-6-6V503c0-3.3,2.7-6,6-6h10.2c3.3,0,6,2.7,6,6v10.2
						C1050,516.5,1047.4,519.2,1044.1,519.2z"/>
				</g>
			</g>
			<g id="XMLID_2156_">
				<g id="XMLID_10_">
					<path id="XMLID_15_" fill="#C4C9CA" d="M880.2,556.3H870c-3.3,0-6-2.7-6-6v-10.2c0-3.3,2.7-6,6-6h10.2c3.3,0,6,2.7,6,6v10.2
						C886.2,553.6,883.5,556.3,880.2,556.3z"/>
					<path id="XMLID_14_" fill="#C4C9CA" d="M921.2,556.3H911c-3.3,0-6-2.7-6-6v-10.2c0-3.3,2.7-6,6-6h10.2c3.3,0,6,2.7,6,6v10.2
						C927.2,553.6,924.5,556.3,921.2,556.3z"/>
					<path id="XMLID_13_" fill="#C4C9CA" d="M962.1,556.3h-10.2c-3.3,0-6-2.7-6-6v-10.2c0-3.3,2.7-6,6-6h10.2c3.3,0,6,2.7,6,6v10.2
						C968.1,553.6,965.4,556.3,962.1,556.3z"/>
					<path id="XMLID_12_" fill="#C4C9CA" d="M1003.1,556.3h-10.2c-3.3,0-6-2.7-6-6v-10.2c0-3.3,2.7-6,6-6h10.2c3.3,0,6,2.7,6,6v10.2
						C1009.1,553.6,1006.4,556.3,1003.1,556.3z"/>
					<path id="XMLID_11_" fill="#C4C9CA" d="M1044.1,556.3h-10.2c-3.3,0-6-2.7-6-6v-10.2c0-3.3,2.7-6,6-6h10.2c3.3,0,6,2.7,6,6v10.2
						C1050,553.6,1047.4,556.3,1044.1,556.3z"/>
				</g>
				<g id="XMLID_4_">
					<path id="XMLID_9_" fill="#C4C9CA" d="M880.2,556.3H870c-3.3,0-6-2.7-6-6v-10.2c0-3.3,2.7-6,6-6h10.2c3.3,0,6,2.7,6,6v10.2
						C886.2,553.6,883.5,556.3,880.2,556.3z"/>
					<path id="XMLID_8_" fill="#C4C9CA" d="M921.2,556.3H911c-3.3,0-6-2.7-6-6v-10.2c0-3.3,2.7-6,6-6h10.2c3.3,0,6,2.7,6,6v10.2
						C927.2,553.6,924.5,556.3,921.2,556.3z"/>
					<path id="XMLID_7_" fill="#C4C9CA" d="M962.1,556.3h-10.2c-3.3,0-6-2.7-6-6v-10.2c0-3.3,2.7-6,6-6h10.2c3.3,0,6,2.7,6,6v10.2
						C968.1,553.6,965.4,556.3,962.1,556.3z"/>
					<path id="XMLID_6_" fill="#C4C9CA" d="M1003.1,556.3h-10.2c-3.3,0-6-2.7-6-6v-10.2c0-3.3,2.7-6,6-6h10.2c3.3,0,6,2.7,6,6v10.2
						C1009.1,553.6,1006.4,556.3,1003.1,556.3z"/>
					<path id="XMLID_5_" fill="#C4C9CA" d="M1044.1,556.3h-10.2c-3.3,0-6-2.7-6-6v-10.2c0-3.3,2.7-6,6-6h10.2c3.3,0,6,2.7,6,6v10.2
						C1050,553.6,1047.4,556.3,1044.1,556.3z"/>
				</g>
			</g>
			<g id="XMLID_2152_">
				<path id="XMLID_2155_" fill="#C4C9CA" d="M921.3,643.7H911c-3.3,0-6-2.7-6-6v-10.2c0-3.3,2.7-6,6-6h10.2c3.3,0,6,2.7,6,6v10.2
					C927.2,641.1,924.6,643.7,921.3,643.7z"/>
				<path id="XMLID_2154_" fill="#C4C9CA" d="M1003.1,643.7h-10.2c-3.3,0-6-2.7-6-6v-10.2c0-3.3,2.7-6,6-6h10.2c3.3,0,6,2.7,6,6
					v10.2C1009.1,641.1,1006.4,643.7,1003.1,643.7z"/>
				<path id="XMLID_2153_" fill="#C4C9CA" d="M962.2,643.7H952c-3.3,0-6-2.7-6-6v-10.2c0-3.3,2.7-6,6-6h10.2c3.3,0,6,2.7,6,6v10.2
					C968.2,641.1,965.5,643.7,962.2,643.7z"/>
			</g>
		</g>
		<g id="XMLID_2106_">
			
				<path id="XMLID_2145_" fill="#1D1C20" stroke="#1D1C20" stroke-width="9.7673" stroke-linecap="round" stroke-linejoin="round" stroke-miterlimit="10" d="
				M1243.3,666.5h-79.8c-3.3,0-6-2.7-6-6V489.2c0-3.3,2.7-6,6-6h79.8c3.3,0,6,2.7,6,6v171.3C1249.3,663.8,1246.6,666.5,1243.3,666.5
				z"/>
			<rect id="XMLID_2118_" x="1164.8" y="506.4" fill="#FFFFFF" width="77.2" height="124.2"/>
			
				<line id="XMLID_2116_" fill="none" stroke="#FFFFFF" stroke-width="2.4418" stroke-linecap="round" stroke-linejoin="round" stroke-miterlimit="10" x1="1193.4" y1="494.4" x2="1213.5" y2="494.4"/>
			<circle id="XMLID_2115_" fill="#FFFFFF" cx="1203.4" cy="648.6" r="7"/>
			
				<line id="XMLID_2109_" fill="#FFFFFF" stroke="#C4C9CA" stroke-width="9.7673" stroke-linecap="round" stroke-linejoin="round" stroke-miterlimit="10" x1="1207.9" y1="514.8" x2="1232.4" y2="547.3"/>
			
				<line id="XMLID_2108_" fill="#FFFFFF" stroke="#C4C9CA" stroke-width="9.7673" stroke-linecap="round" stroke-linejoin="round" stroke-miterlimit="10" x1="1233.6" y1="523.5" x2="1226.7" y2="514.3"/>
			
				<line id="XMLID_2107_" fill="#FFFFFF" stroke="#C4C9CA" stroke-width="9.7673" stroke-linecap="round" stroke-linejoin="round" stroke-miterlimit="10" x1="1188" y1="620.7" x2="1174.2" y2="602.3"/>
		</g>
	</g>
	
		<path id="XMLID_2103_" fill="none" stroke="#1E1D21" stroke-width="8" stroke-linecap="round" stroke-linejoin="round" stroke-miterlimit="10" d="
		M2263.7,396c54.1,99.6,57.2,219.1,8.4,321.4"/>
	
		<path id="XMLID_2052_" fill="none" stroke="#1E1D21" stroke-width="8" stroke-linecap="round" stroke-linejoin="round" stroke-miterlimit="10" d="
		M2229.7,718.6c-84.2,176.5-295.6,251.4-472.1,167.2c-176.5-84.2-251.4-295.6-167.2-472.1c84.2-176.5,295.6-251.4,472.1-167.2
		c67.5,32.2,123.1,84.9,158.8,150.7"/>
</g>
<g id="typo">
	<text transform="matrix(1 0 0 1 2677.8652 871.6648)" fill="#223B44" font-family="'DINMittelschrift'" font-size="82px">d</text>
	<text transform="matrix(1 0 0 1 2722.4727 871.6648)" fill="#223B44" font-family="'DINMittelschrift'" font-size="82px">e</text>
	<text transform="matrix(1 0 0 1 2765.5234 871.6648)" fill="#223B44" font-family="'DINMittelschrift'" font-size="82px">s</text>
	<text transform="matrix(1 0 0 1 2806.9326 871.6648)" fill="#223B44" font-family="'DINMittelschrift'" font-size="82px">k</text>
	<text transform="matrix(1 0 0 1 2851.54 871.6648)" fill="#223B44" font-family="'DINMittelschrift'" font-size="82px">t</text>
	<text transform="matrix(1 0 0 1 2876.3867 871.6648)" fill="#223B44" font-family="'DINMittelschrift'" font-size="82px">o</text>
	<text transform="matrix(1 0 0 1 2919.4365 871.6648)" fill="#223B44" font-family="'DINMittelschrift'" font-size="82px">p</text>
	<text transform="matrix(1 0 0 1 910.7813 871.6648)" fill="#223B44" font-family="'DINMittelschrift'" font-size="82px">m</text>
	<text transform="matrix(1 0 0 1 982.6943 871.6648)" fill="#223B44" font-family="'DINMittelschrift'" font-size="82px">o</text>
	<text transform="matrix(1 0 0 1 1025.7441 871.6648)" fill="#223B44" font-family="'DINMittelschrift'" font-size="82px">b</text>
	<text transform="matrix(1 0 0 1 1070.3525 871.6648)" fill="#223B44" font-family="'DINMittelschrift'" font-size="82px">i</text>
	<text transform="matrix(1 0 0 1 1092.0811 871.6648)" fill="#223B44" font-family="'DINMittelschrift'" font-size="82px">l</text>
	<text transform="matrix(1 0 0 1 1115.2871 871.6648)" fill="#223B44" font-family="'DINMittelschrift'" font-size="82px">e</text>
	<text transform="matrix(1 0 0 1 1621.6777 131.0413)" fill="#223B44" font-family="'DINMittelschrift'" font-size="82px">O</text>
	<text transform="matrix(1 0 0 1 1673.7461 131.0413)" fill="#223B44" font-family="'DINMittelschrift'" font-size="82px">n</text>
	<text transform="matrix(1 0 0 1 1719.8291 131.0413)" fill="#223B44" font-family="'DINMittelschrift'" font-size="82px">l</text>
	<text transform="matrix(1 0 0 1 1743.0352 131.0413)" fill="#223B44" font-family="'DINMittelschrift'" font-size="82px">i</text>
	<text transform="matrix(1 0 0 1 1764.7646 131.0413)" fill="#223B44" font-family="'DINMittelschrift'" font-size="82px">n</text>
	<text transform="matrix(1 0 0 1 1810.8477 131.0413)" fill="#223B44" font-family="'DINMittelschrift'" font-size="82px">e</text>
	<text transform="matrix(1 0 0 1 1853.8975 131.0413)" fill="#223B44" font-family="'DINMittelschrift'" font-size="82px"> </text>
	<text transform="matrix(1 0 0 1 1875.627 131.0413)" fill="#223B44" font-family="'DINMittelschrift'" font-size="82px">b</text>
	<text transform="matrix(1 0 0 1 1920.2344 131.0413)" fill="#223B44" font-family="'DINMittelschrift'" font-size="82px">a</text>
	<text transform="matrix(1 0 0 1 1963.2842 131.0413)" fill="#223B44" font-family="'DINMittelschrift'" font-size="82px">n</text>
	<text transform="matrix(1 0 0 1 2009.3672 131.0413)" fill="#223B44" font-family="'DINMittelschrift'" font-size="82px">k</text>
	<text transform="matrix(1 0 0 1 2053.9746 131.0413)" fill="#223B44" font-family="'DINMittelschrift'" font-size="82px">i</text>
	<text transform="matrix(1 0 0 1 2075.7041 131.0413)" fill="#223B44" font-family="'DINMittelschrift'" font-size="82px">n</text>
	<text transform="matrix(1 0 0 1 2121.7871 131.0413)" fill="#223B44" font-family="'DINMittelschrift'" font-size="82px">g</text>
	<text transform="matrix(1 0 0 1 2166.3945 131.0413)" fill="#223B44" font-family="'DINMittelschrift'" font-size="82px"> </text>
	<text transform="matrix(1 0 0 1 2091.6777 597.8568)" fill="#3A3C3F" font-family="'DINMittelschrift'" font-size="96.48px">1</text>
	<text transform="matrix(1 0 0 1 2140.3999 597.8568)" fill="#3A3C3F" font-family="'DINMittelschrift'" font-size="96.48px">5</text>
	<text transform="matrix(1 0 0 1 2189.1216 597.8568)" fill="#3A3C3F" font-family="'DINMittelschrift'" font-size="96.48px">%</text>
	<text transform="matrix(1 0 0 1 1669.5884 597.8568)" fill="#ECEDED" font-family="'DINMittelschrift'" font-size="96.48px">8</text>
	<text transform="matrix(1 0 0 1 1718.3105 597.8568)" fill="#ECEDED" font-family="'DINMittelschrift'" font-size="96.48px">5</text>
	<text transform="matrix(1 0 0 1 1767.0322 597.8568)" fill="#ECEDED" font-family="'DINMittelschrift'" font-size="96.48px">%</text>
</g>
</svg>
