<?xml version="1.0" encoding="utf-8"?>
<!-- Generator: Adobe Illustrator 19.0.0, SVG Export Plug-In . SVG Version: 6.00 Build 0)  -->
<svg version="1.2" baseProfile="tiny" xmlns="http://www.w3.org/2000/svg" xmlns:xlink="http://www.w3.org/1999/xlink" x="0px"
	 y="0px" width="3812px" height="1171.7px" viewBox="0 0 3812 1171.7" xml:space="preserve">
<g id="achterWebsite">
</g>
<g id="achterGroen">
	<rect id="XMLID_1693_" x="0" y="0" fill="#C2DF8A" width="3812" height="1171.7"/>
</g>
<g id="verbindingen">
	<g id="XMLID_3779_">
	</g>
</g>
<g id="Laag_1">
</g>
<g id="Laag_4">
</g>
<g id="nrs">
	
		<polyline id="XMLID_45_" fill="none" stroke="#FFFFFF" stroke-width="8" stroke-linecap="round" stroke-linejoin="round" stroke-miterlimit="10" points="
		1132.5,128.2 1252.1,128.2 1825.9,405.4 	"/>
	
		<polyline id="XMLID_30_" fill="none" stroke="#FFFFFF" stroke-width="8" stroke-linecap="round" stroke-linejoin="round" stroke-miterlimit="10" points="
		1132.5,193.7 1252.1,193.7 1825.9,430.4 	"/>
	
		<polyline id="XMLID_14_" fill="none" stroke="#FFFFFF" stroke-width="8" stroke-linecap="round" stroke-linejoin="round" stroke-miterlimit="10" points="
		1132.5,259.2 1252.1,259.2 1825.9,455.4 	"/>
	
		<polyline id="XMLID_13_" fill="none" stroke="#FFFFFF" stroke-width="8" stroke-linecap="round" stroke-linejoin="round" stroke-miterlimit="10" points="
		1132.5,324.6 1252.1,324.6 1825.9,480.4 	"/>
	
		<polyline id="XMLID_12_" fill="none" stroke="#FFFFFF" stroke-width="8" stroke-linecap="round" stroke-linejoin="round" stroke-miterlimit="10" points="
		1132.5,390.1 1252.1,390.1 1825.9,505.3 	"/>
	
		<polyline id="XMLID_11_" fill="none" stroke="#FFFFFF" stroke-width="8" stroke-linecap="round" stroke-linejoin="round" stroke-miterlimit="10" points="
		1132.5,455.6 1252.1,455.6 1825.9,530.3 	"/>
	
		<polyline id="XMLID_10_" fill="none" stroke="#FFFFFF" stroke-width="8" stroke-linecap="round" stroke-linejoin="round" stroke-miterlimit="10" points="
		1132.5,521.1 1252.1,521.1 1825.9,555.3 	"/>
	
		<polyline id="XMLID_9_" fill="none" stroke="#FFFFFF" stroke-width="8" stroke-linecap="round" stroke-linejoin="round" stroke-miterlimit="10" points="
		1132.5,586.5 1252.1,586.5 1825.9,580.3 	"/>
	
		<polyline id="XMLID_8_" fill="none" stroke="#FFFFFF" stroke-width="8" stroke-linecap="round" stroke-linejoin="round" stroke-miterlimit="10" points="
		1132.5,652 1252.1,652 1825.9,605.2 	"/>
	
		<polyline id="XMLID_7_" fill="none" stroke="#FFFFFF" stroke-width="8" stroke-linecap="round" stroke-linejoin="round" stroke-miterlimit="10" points="
		1132.5,717.5 1252.1,717.5 1825.9,630.2 	"/>
	
		<polyline id="XMLID_6_" fill="none" stroke="#FFFFFF" stroke-width="8" stroke-linecap="round" stroke-linejoin="round" stroke-miterlimit="10" points="
		1132.5,782.9 1252.1,782.9 1825.9,655.2 	"/>
	
		<polyline id="XMLID_5_" fill="none" stroke="#FFFFFF" stroke-width="8" stroke-linecap="round" stroke-linejoin="round" stroke-miterlimit="10" points="
		1132.5,848.4 1252.1,848.4 1825.9,680.2 	"/>
	
		<polyline id="XMLID_4_" fill="none" stroke="#FFFFFF" stroke-width="8" stroke-linecap="round" stroke-linejoin="round" stroke-miterlimit="10" points="
		1132.5,913.9 1252.1,913.9 1825.9,705.2 	"/>
	
		<polyline id="XMLID_3_" fill="none" stroke="#FFFFFF" stroke-width="8" stroke-linecap="round" stroke-linejoin="round" stroke-miterlimit="10" points="
		1132.5,979.3 1252.1,979.3 1825.9,730.1 	"/>
	
		<polyline id="XMLID_2_" fill="none" stroke="#FFFFFF" stroke-width="8" stroke-linecap="round" stroke-linejoin="round" stroke-miterlimit="10" points="
		1132.5,1044.8 1252.1,1044.8 1825.9,755.1 	"/>
	
		<polyline id="XMLID_44_" fill="none" stroke="#FFFFFF" stroke-width="8" stroke-linecap="round" stroke-linejoin="round" stroke-miterlimit="10" points="
		2703.4,128.2 2593.7,128.2 2010,405.4 	"/>
	
		<polyline id="XMLID_43_" fill="none" stroke="#FFFFFF" stroke-width="8" stroke-linecap="round" stroke-linejoin="round" stroke-miterlimit="10" points="
		2703.4,193.6 2593.7,193.6 2010,433.7 	"/>
	
		<polyline id="XMLID_42_" fill="none" stroke="#FFFFFF" stroke-width="8" stroke-linecap="round" stroke-linejoin="round" stroke-miterlimit="10" points="
		2703.4,259 2593.7,259 2010,461.9 	"/>
	
		<polyline id="XMLID_41_" fill="none" stroke="#FFFFFF" stroke-width="8" stroke-linecap="round" stroke-linejoin="round" stroke-miterlimit="10" points="
		2703.4,324.4 2593.7,324.4 2010,490.2 	"/>
	
		<polyline id="XMLID_40_" fill="none" stroke="#FFFFFF" stroke-width="8" stroke-linecap="round" stroke-linejoin="round" stroke-miterlimit="10" points="
		2703.4,389.8 2593.7,389.8 2010,518.4 	"/>
	
		<polyline id="XMLID_39_" fill="none" stroke="#FFFFFF" stroke-width="8" stroke-linecap="round" stroke-linejoin="round" stroke-miterlimit="10" points="
		2703.4,455.2 2593.7,455.2 2010,546.7 	"/>
	
		<polyline id="XMLID_38_" fill="none" stroke="#FFFFFF" stroke-width="8" stroke-linecap="round" stroke-linejoin="round" stroke-miterlimit="10" points="
		2703.4,520.6 2593.7,520.6 2010,574.9 	"/>
	
		<polyline id="XMLID_37_" fill="none" stroke="#FFFFFF" stroke-width="8" stroke-linecap="round" stroke-linejoin="round" stroke-miterlimit="10" points="
		2703.4,586 2593.7,586 2010,603.1 	"/>
	
		<polyline id="XMLID_36_" fill="none" stroke="#FFFFFF" stroke-width="8" stroke-linecap="round" stroke-linejoin="round" stroke-miterlimit="10" points="
		2703.4,651.3 2593.7,651.3 2010,631.4 	"/>
	
		<polyline id="XMLID_35_" fill="none" stroke="#FFFFFF" stroke-width="8" stroke-linecap="round" stroke-linejoin="round" stroke-miterlimit="10" points="
		2703.4,716.7 2593.7,716.7 2010,659.6 	"/>
	
		<polyline id="XMLID_34_" fill="none" stroke="#FFFFFF" stroke-width="8" stroke-linecap="round" stroke-linejoin="round" stroke-miterlimit="10" points="
		2703.4,782.1 2593.7,782.1 2010,687.9 	"/>
	
		<polyline id="XMLID_33_" fill="none" stroke="#FFFFFF" stroke-width="8" stroke-linecap="round" stroke-linejoin="round" stroke-miterlimit="10" points="
		2703.4,847.5 2593.7,847.5 2010,716.1 	"/>
	
		<polyline id="XMLID_32_" fill="none" stroke="#FFFFFF" stroke-width="8" stroke-linecap="round" stroke-linejoin="round" stroke-miterlimit="10" points="
		2703.4,912.9 2593.7,912.9 2010,744.4 	"/>
	
		<polyline id="XMLID_31_" fill="none" stroke="#FFFFFF" stroke-width="8" stroke-linecap="round" stroke-linejoin="round" stroke-miterlimit="10" points="
		2703.4,978.3 2593.7,978.3 2010,772.6 	"/>
	<g id="XMLID_941_">
		<circle id="XMLID_1096_" fill="#C2DF8A" cx="1906" cy="593.9" r="482.6"/>
		<polygon id="XMLID_1095_" fill="#1E1D21" points="2221.4,917.4 2121.5,839.4 2185.9,948.6 2094.6,860.6 2147.3,975.9 
			2065.7,878.9 2106,999 2035.1,894 2062.6,1017.7 2003,905.8 2017.4,1031.8 1969.9,914.3 1971,1041 1936,919.2 1924,1045.4 
			1901.9,920.6 1876.7,1044.8 1867.8,918.3 1829.7,1039.2 1834.1,912.6 1783.6,1028.8 1801.2,903.3 1738.8,1013.7 1769.4,890.6 
			1695.8,993.9 1739.1,874.7 1655.2,969.7 1710.7,855.8 1617.3,941.4 1684.4,833.9 1582.5,909.4 1660.5,809.4 1551.3,873.8 
			1639.3,782.6 1524,835.2 1621.1,753.7 1500.9,794 1606,723 1482.2,750.5 1594.1,691 1468.2,705.4 1585.7,657.8 1458.9,659 
			1580.7,624 1454.6,611.9 1579.4,589.8 1455.2,564.6 1581.6,555.7 1460.7,517.7 1587.4,522 1471.1,471.5 1596.6,489.1 
			1486.3,426.7 1609.3,457.3 1506.1,383.8 1625.2,427.1 1530.2,343.1 1644.2,398.6 1558.5,305.2 1666,372.3 1590.6,270.5 
			1690.5,348.5 1626.1,239.3 1717.4,327.3 1664.7,212 1746.3,309 1706,188.9 1776.9,293.9 1749.4,170.2 1809,282.1 1794.6,156.1 
			1842.1,273.6 1841,146.9 1876,268.7 1888,142.5 1910.1,267.3 1935.3,143.1 1944.2,269.6 1982.3,148.7 1977.9,275.3 2028.4,159.1 
			2010.8,284.6 2073.2,174.2 2042.6,297.2 2116.2,194 2072.9,313.2 2156.8,218.2 2101.3,332.1 2194.7,246.5 2127.6,354 
			2229.5,278.5 2151.5,378.5 2260.7,314.1 2172.7,405.3 2288,352.7 2190.9,434.2 2311.1,393.9 2206,464.9 2329.8,437.4 
			2217.9,496.9 2343.8,482.5 2226.3,530.1 2353.1,528.9 2231.3,563.9 2357.4,576 2232.6,598.1 2356.8,623.3 2230.4,632.2 
			2351.3,670.2 2224.6,665.9 2340.9,716.4 2215.4,698.8 2325.7,761.2 2202.7,730.6 2305.9,804.1 2186.8,760.8 2281.8,844.8 
			2167.8,789.3 2253.5,882.7 2146,815.6 		"/>
		<path id="XMLID_975_" fill="#F85400" d="M1850.8,860.4L1850.8,860.4c17.3,0,31.2-14,31.2-31.2V686.9c0-17.3-14-31.2-31.2-31.2l0,0
			c-17.3,0-31.2,14-31.2,31.2v142.3C1819.6,846.4,1833.6,860.4,1850.8,860.4z"/>
		<path id="XMLID_974_" fill="#F97E3E" d="M1961.2,860.4L1961.2,860.4c17.3,0,31.2-14,31.2-31.2V686.9c0-17.3-14-31.2-31.2-31.2l0,0
			c-17.3,0-31.2,14-31.2,31.2v142.3C1929.9,846.4,1943.9,860.4,1961.2,860.4z"/>
		<path id="XMLID_973_" fill="#F97E3E" d="M2098.8,702.8L2098.8,702.8c17.3,0,31.2-14,31.2-31.2V529.3c0-17.3-14-31.2-31.2-31.2l0,0
			c-17.3,0-31.2,14-31.2,31.2v142.3C2067.5,688.8,2081.5,702.8,2098.8,702.8z"/>
		<path id="XMLID_970_" fill="#FA8F57" d="M1979.2,378.3c-21.4-12.3-46.2-19.4-72.6-19.4c-76.8,0-139.7,59.4-145.2,134.8h290.4
			C2048.2,444.3,2019.9,401.7,1979.2,378.3z M1761,506v214.5c0,17.6,14.3,31.9,31.9,31.9h227.4c17.6,0,31.9-14.3,31.9-31.9V506H1761
			z"/>
		<path id="XMLID_969_" fill="#FA8F57" d="M1966.3,389.5L1966.3,389.5c-2.8-1.6-3.7-5.1-2.1-7.9l29.6-51.3c1.6-2.8,5.1-3.7,7.9-2.1
			l0,0c2.8,1.6,3.7,5.1,2.1,7.9l-29.6,51.3C1972.6,390.2,1969,391.1,1966.3,389.5z"/>
		<path id="XMLID_968_" fill="#F85400" d="M1713.2,702.8L1713.2,702.8c17.3,0,31.2-14,31.2-31.2V529.3c0-17.3-14-31.2-31.2-31.2h0
			c-17.3,0-31.2,14-31.2,31.2v142.3C1682,688.8,1696,702.8,1713.2,702.8z"/>
		<path id="XMLID_967_" fill="#F85400" d="M1845.7,389.5L1845.7,389.5c2.8-1.6,3.7-5.1,2.1-7.9l-29.6-51.3c-1.6-2.8-5.1-3.7-7.9-2.1
			l0,0c-2.8,1.6-3.7,5.1-2.1,7.9l29.6,51.3C1839.4,390.2,1843,391.1,1845.7,389.5z"/>
		<g id="XMLID_953_">
			<path id="XMLID_960_" fill="#F85400" d="M1878.7,752.4h-85.8c-17.6,0-31.9-14.3-31.9-31.9V506h85.8v214.5
				C1846.8,738.2,1861.1,752.4,1878.7,752.4z"/>
			<path id="XMLID_959_" fill="#F85400" d="M1949.5,365.3c-56.2,17.3-97.8,67.7-102.3,128.4h-85.8c5.5-75.4,68.4-134.8,145.2-134.8
				C1921.5,358.9,1935.9,361.1,1949.5,365.3z"/>
			<path id="XMLID_957_" fill="#F97E3E" d="M2051.8,493.7h-204.6c4.4-60.7,46.1-111.1,102.3-128.4c10.4,3.2,20.4,7.6,29.7,12.9
				C2019.9,401.7,2048.2,444.3,2051.8,493.7z"/>
			<path id="XMLID_956_" fill="#F97E3E" d="M2052.2,506v214.5c0,17.6-14.3,31.9-31.9,31.9h-141.5c-17.6,0-31.9-14.3-31.9-31.9V506
				H2052.2z"/>
		</g>
		<g id="XMLID_942_">
			<path id="XMLID_951_" fill="#1E1D21" d="M1925.4,450.4c9.2,15.7,29.3,21.1,45.1,11.9c15.7-9.2,21.1-29.3,11.9-45.1L1925.4,450.4z
				"/>
			<path id="XMLID_950_" fill="#1E1D21" d="M1886.6,450.4c-9.2,15.7-29.3,21.1-45.1,11.9c-15.7-9.2-21.1-29.3-11.9-45.1
				L1886.6,450.4z"/>
		</g>
	</g>
</g>
<g id="typo">
	<text transform="matrix(1 0 0 1 834.7031 151.2512)" fill="#010103" font-family="'DINMittelschrift'" font-size="52px">P</text>
	<text transform="matrix(1 0 0 1 866.8379 151.2512)" fill="#010103" font-family="'DINMittelschrift'" font-size="52px">e</text>
	<text transform="matrix(1 0 0 1 894.1377 151.2512)" fill="#010103" font-family="'DINMittelschrift'" font-size="52px">r</text>
	<text transform="matrix(1 0 0 1 915.666 151.2512)" fill="#010103" font-family="'DINMittelschrift'" font-size="52px">k</text>
	<text transform="matrix(1 0 0 1 943.9541 151.2512)" fill="#010103" font-family="'DINMittelschrift'" font-size="52px">e</text>
	<text transform="matrix(1 0 0 1 971.2539 151.2512)" fill="#010103" font-family="'DINMittelschrift'" font-size="52px">l</text>
	<text transform="matrix(1 0 0 1 985.9697 151.2512)" fill="#010103" font-family="'DINMittelschrift'" font-size="52px">e</text>
	<text transform="matrix(1 0 0 1 1013.2695 151.2512)" fill="#010103" font-family="'DINMittelschrift'" font-size="52px"> </text>
	<text transform="matrix(1 0 0 1 1027.0498 151.2512)" fill="#010103" font-family="'DINMittelschrift'" font-size="52px">3</text>
	<text transform="matrix(1 0 0 1 1053.3096 151.2512)" fill="#010103" font-family="'DINMittelschrift'" font-size="52px">.</text>
	<text transform="matrix(1 0 0 1 1067.0889 151.2512)" fill="#010103" font-family="'DINMittelschrift'" font-size="52px">0</text>
	<text transform="matrix(1 0 0 1 967.5088 216.2512)" fill="#010103" font-family="'DINMittelschrift'" font-size="52px">Z</text>
	<text transform="matrix(1 0 0 1 995.7969 216.2512)" fill="#010103" font-family="'DINMittelschrift'" font-size="52px">i</text>
	<text transform="matrix(1 0 0 1 1009.5762 216.2512)" fill="#010103" font-family="'DINMittelschrift'" font-size="52px">t</text>
	<text transform="matrix(1 0 0 1 1025.333 216.2512)" fill="#010103" font-family="'DINMittelschrift'" font-size="52px">M</text>
	<text transform="matrix(1 0 0 1 1066.0488 216.2512)" fill="#010103" font-family="'DINMittelschrift'" font-size="52px">o</text>
	<text transform="matrix(1 0 0 1 890.4473 281.2512)" fill="#010103" font-family="'DINMittelschrift'" font-size="52px">i</text>
	<text transform="matrix(1 0 0 1 904.2266 281.2512)" fill="#010103" font-family="'DINMittelschrift'" font-size="52px">B</text>
	<text transform="matrix(1 0 0 1 937.2461 281.2512)" fill="#010103" font-family="'DINMittelschrift'" font-size="52px">a</text>
	<text transform="matrix(1 0 0 1 964.5469 281.2512)" fill="#010103" font-family="'DINMittelschrift'" font-size="52px">n</text>
	<text transform="matrix(1 0 0 1 993.7705 281.2512)" fill="#010103" font-family="'DINMittelschrift'" font-size="52px">k</text>
	<text transform="matrix(1 0 0 1 1022.0586 281.2512)" fill="#010103" font-family="'DINMittelschrift'" font-size="52px">i</text>
	<text transform="matrix(1 0 0 1 1035.8379 281.2512)" fill="#010103" font-family="'DINMittelschrift'" font-size="52px">n</text>
	<text transform="matrix(1 0 0 1 1065.0605 281.2512)" fill="#010103" font-family="'DINMittelschrift'" font-size="52px">g</text>
	<text transform="matrix(1 0 0 1 963.9209 346.2512)" fill="#010103" font-family="'DINMittelschrift'" font-size="52px">m</text>
	<text transform="matrix(1 0 0 1 1009.5244 346.2512)" fill="#010103" font-family="'DINMittelschrift'" font-size="52px">T</text>
	<text transform="matrix(1 0 0 1 1036.8242 346.2512)" fill="#010103" font-family="'DINMittelschrift'" font-size="52px">a</text>
	<text transform="matrix(1 0 0 1 1064.125 346.2512)" fill="#010103" font-family="'DINMittelschrift'" font-size="52px">n</text>
	<text transform="matrix(1 0 0 1 926.2744 411.2512)" fill="#010103" font-family="'DINMittelschrift'" font-size="52px">G</text>
	<text transform="matrix(1 0 0 1 959.2939 411.2512)" fill="#010103" font-family="'DINMittelschrift'" font-size="52px">M</text>
	<text transform="matrix(1 0 0 1 1000.0098 411.2512)" fill="#010103" font-family="'DINMittelschrift'" font-size="52px">B</text>
	<text transform="matrix(1 0 0 1 1033.0293 411.2512)" fill="#010103" font-family="'DINMittelschrift'" font-size="52px">O</text>
	<text transform="matrix(1 0 0 1 1066.0479 411.2512)" fill="#010103" font-family="'DINMittelschrift'" font-size="52px">T</text>
	<text transform="matrix(1 0 0 1 880.7734 476.2512)" fill="#010103" font-family="'DINMittelschrift'" font-size="52px">M</text>
	<text transform="matrix(1 0 0 1 921.4893 476.2512)" fill="#010103" font-family="'DINMittelschrift'" font-size="52px">a</text>
	<text transform="matrix(1 0 0 1 948.7891 476.2512)" fill="#010103" font-family="'DINMittelschrift'" font-size="52px">z</text>
	<text transform="matrix(1 0 0 1 973.1768 476.2512)" fill="#010103" font-family="'DINMittelschrift'" font-size="52px">a</text>
	<text transform="matrix(1 0 0 1 1000.4766 476.2512)" fill="#010103" font-family="'DINMittelschrift'" font-size="52px">r</text>
	<text transform="matrix(1 0 0 1 1022.0039 476.2512)" fill="#010103" font-family="'DINMittelschrift'" font-size="52px">b</text>
	<text transform="matrix(1 0 0 1 1050.292 476.2512)" fill="#010103" font-family="'DINMittelschrift'" font-size="52px">o</text>
	<text transform="matrix(1 0 0 1 1077.5918 476.2512)" fill="#010103" font-family="'DINMittelschrift'" font-size="52px">t</text>
	<text transform="matrix(1 0 0 1 901.3662 541.2512)" fill="#010103" font-family="'DINMittelschrift'" font-size="52px">M</text>
	<text transform="matrix(1 0 0 1 942.082 541.2512)" fill="#010103" font-family="'DINMittelschrift'" font-size="52px">a</text>
	<text transform="matrix(1 0 0 1 969.3818 541.2512)" fill="#010103" font-family="'DINMittelschrift'" font-size="52px">r</text>
	<text transform="matrix(1 0 0 1 990.9102 541.2512)" fill="#010103" font-family="'DINMittelschrift'" font-size="52px">c</text>
	<text transform="matrix(1 0 0 1 1015.2969 541.2512)" fill="#010103" font-family="'DINMittelschrift'" font-size="52px">h</text>
	<text transform="matrix(1 0 0 1 1044.5195 541.2512)" fill="#010103" font-family="'DINMittelschrift'" font-size="52px">e</text>
	<text transform="matrix(1 0 0 1 1071.8193 541.2512)" fill="#010103" font-family="'DINMittelschrift'" font-size="52px">r</text>
	<text transform="matrix(1 0 0 1 929.3945 606.2512)" fill="#010103" font-family="'DINMittelschrift'" font-size="52px">A</text>
	<text transform="matrix(1 0 0 1 962.4131 606.2512)" fill="#010103" font-family="'DINMittelschrift'" font-size="52px">b</text>
	<text transform="matrix(1 0 0 1 990.7012 606.2512)" fill="#010103" font-family="'DINMittelschrift'" font-size="52px">r</text>
	<text transform="matrix(1 0 0 1 1012.2295 606.2512)" fill="#010103" font-family="'DINMittelschrift'" font-size="52px">v</text>
	<text transform="matrix(1 0 0 1 1036.6162 606.2512)" fill="#010103" font-family="'DINMittelschrift'" font-size="52px">a</text>
	<text transform="matrix(1 0 0 1 1063.916 606.2512)" fill="#010103" font-family="'DINMittelschrift'" font-size="52px">l</text>
	<text transform="matrix(1 0 0 1 1078.6318 606.2512)" fill="#010103" font-family="'DINMittelschrift'" font-size="52px">l</text>
	<text transform="matrix(1 0 0 1 958.8252 671.2512)" fill="#010103" font-family="'DINMittelschrift'" font-size="52px">C</text>
	<text transform="matrix(1 0 0 1 989.0371 671.2512)" fill="#010103" font-family="'DINMittelschrift'" font-size="52px">e</text>
	<text transform="matrix(1 0 0 1 1016.3369 671.2512)" fill="#010103" font-family="'DINMittelschrift'" font-size="52px">r</text>
	<text transform="matrix(1 0 0 1 1037.8652 671.2512)" fill="#010103" font-family="'DINMittelschrift'" font-size="52px">u</text>
	<text transform="matrix(1 0 0 1 1067.0889 671.2512)" fill="#010103" font-family="'DINMittelschrift'" font-size="52px">s</text>
	<text transform="matrix(1 0 0 1 797.0039 736.2512)" fill="#010103" font-family="'DINMittelschrift'" font-size="52px">A</text>
	<text transform="matrix(1 0 0 1 830.0225 736.2512)" fill="#010103" font-family="'DINMittelschrift'" font-size="52px">n</text>
	<text transform="matrix(1 0 0 1 859.2461 736.2512)" fill="#010103" font-family="'DINMittelschrift'" font-size="52px">d</text>
	<text transform="matrix(1 0 0 1 887.5352 736.2512)" fill="#010103" font-family="'DINMittelschrift'" font-size="52px">r</text>
	<text transform="matrix(1 0 0 1 909.0625 736.2512)" fill="#010103" font-family="'DINMittelschrift'" font-size="52px">o</text>
	<text transform="matrix(1 0 0 1 936.3623 736.2512)" fill="#010103" font-family="'DINMittelschrift'" font-size="52px">i</text>
	<text transform="matrix(1 0 0 1 950.1416 736.2512)" fill="#010103" font-family="'DINMittelschrift'" font-size="52px">d</text>
	<text transform="matrix(1 0 0 1 978.4297 736.2512)" fill="#010103" font-family="'DINMittelschrift'" font-size="52px"> </text>
	<text transform="matrix(1 0 0 1 992.21 736.2512)" fill="#010103" font-family="'DINMittelschrift'" font-size="52px">K</text>
	<text transform="matrix(1 0 0 1 1026.2695 736.2512)" fill="#010103" font-family="'DINMittelschrift'" font-size="52px">N</text>
	<text transform="matrix(1 0 0 1 1063.1367 736.2512)" fill="#010103" font-family="'DINMittelschrift'" font-size="52px">L</text>
	<text transform="matrix(1 0 0 1 989.0381 801.2512)" fill="#010103" font-family="'DINMittelschrift'" font-size="52px">G</text>
	<text transform="matrix(1 0 0 1 1022.0576 801.2512)" fill="#010103" font-family="'DINMittelschrift'" font-size="52px">u</text>
	<text transform="matrix(1 0 0 1 1051.2813 801.2512)" fill="#010103" font-family="'DINMittelschrift'" font-size="52px">g</text>
	<text transform="matrix(1 0 0 1 1079.5703 801.2512)" fill="#010103" font-family="'DINMittelschrift'" font-size="52px">i</text>
	<text transform="matrix(1 0 0 1 875.9385 866.2512)" fill="#010103" font-family="'DINMittelschrift'" font-size="52px">S</text>
	<text transform="matrix(1 0 0 1 907.0859 866.2512)" fill="#010103" font-family="'DINMittelschrift'" font-size="52px">w</text>
	<text transform="matrix(1 0 0 1 945.9287 866.2512)" fill="#010103" font-family="'DINMittelschrift'" font-size="52px">e</text>
	<text transform="matrix(1 0 0 1 973.2295 866.2512)" fill="#010103" font-family="'DINMittelschrift'" font-size="52px">a</text>
	<text transform="matrix(1 0 0 1 1000.5293 866.2512)" fill="#010103" font-family="'DINMittelschrift'" font-size="52px">r</text>
	<text transform="matrix(1 0 0 1 1022.0566 866.2512)" fill="#010103" font-family="'DINMittelschrift'" font-size="52px">i</text>
	<text transform="matrix(1 0 0 1 1035.8359 866.2512)" fill="#010103" font-family="'DINMittelschrift'" font-size="52px">n</text>
	<text transform="matrix(1 0 0 1 1065.0586 866.2512)" fill="#010103" font-family="'DINMittelschrift'" font-size="52px">g</text>
	<text transform="matrix(1 0 0 1 771.2637 931.2512)" fill="#010103" font-family="'DINMittelschrift'" font-size="52px">B</text>
	<text transform="matrix(1 0 0 1 804.2822 931.2512)" fill="#010103" font-family="'DINMittelschrift'" font-size="52px">i</text>
	<text transform="matrix(1 0 0 1 818.0615 931.2512)" fill="#010103" font-family="'DINMittelschrift'" font-size="52px">l</text>
	<text transform="matrix(1 0 0 1 832.7783 931.2512)" fill="#010103" font-family="'DINMittelschrift'" font-size="52px">a</text>
	<text transform="matrix(1 0 0 1 860.0781 931.2512)" fill="#010103" font-family="'DINMittelschrift'" font-size="52px">l</text>
	<text transform="matrix(1 0 0 1 874.7939 931.2512)" fill="#010103" font-family="'DINMittelschrift'" font-size="52px">’</text>
	<text transform="matrix(1 0 0 1 888.5732 931.2512)" fill="#010103" font-family="'DINMittelschrift'" font-size="52px">s</text>
	<text transform="matrix(1 0 0 1 914.833 931.2512)" fill="#010103" font-family="'DINMittelschrift'" font-size="52px"> </text>
	<text transform="matrix(1 0 0 1 928.6133 931.2512)" fill="#010103" font-family="'DINMittelschrift'" font-size="52px">B</text>
	<text transform="matrix(1 0 0 1 961.6318 931.2512)" fill="#010103" font-family="'DINMittelschrift'" font-size="52px">o</text>
	<text transform="matrix(1 0 0 1 988.9316 931.2512)" fill="#010103" font-family="'DINMittelschrift'" font-size="52px">t</text>
	<text transform="matrix(1 0 0 1 1004.6875 931.2512)" fill="#010103" font-family="'DINMittelschrift'" font-size="52px">m</text>
	<text transform="matrix(1 0 0 1 1050.291 931.2512)" fill="#010103" font-family="'DINMittelschrift'" font-size="52px">e</text>
	<text transform="matrix(1 0 0 1 1077.5918 931.2512)" fill="#010103" font-family="'DINMittelschrift'" font-size="52px">t</text>
	<text transform="matrix(1 0 0 1 970.8379 996.2512)" fill="#010103" font-family="'DINMittelschrift'" font-size="52px">X</text>
	<text transform="matrix(1 0 0 1 1000.0098 996.2512)" fill="#010103" font-family="'DINMittelschrift'" font-size="52px">B</text>
	<text transform="matrix(1 0 0 1 1033.0293 996.2512)" fill="#010103" font-family="'DINMittelschrift'" font-size="52px">O</text>
	<text transform="matrix(1 0 0 1 1066.0488 996.2512)" fill="#010103" font-family="'DINMittelschrift'" font-size="52px">T</text>
	<text transform="matrix(1 0 0 1 938.2324 1061.2512)" fill="#010103" font-family="'DINMittelschrift'" font-size="52px">E</text>
	<text transform="matrix(1 0 0 1 968.4443 1061.2512)" fill="#010103" font-family="'DINMittelschrift'" font-size="52px">x</text>
	<text transform="matrix(1 0 0 1 994.7041 1061.2512)" fill="#010103" font-family="'DINMittelschrift'" font-size="52px">o</text>
	<text transform="matrix(1 0 0 1 1022.0049 1061.2512)" fill="#010103" font-family="'DINMittelschrift'" font-size="52px">b</text>
	<text transform="matrix(1 0 0 1 1050.293 1061.2512)" fill="#010103" font-family="'DINMittelschrift'" font-size="52px">o</text>
	<text transform="matrix(1 0 0 1 1077.5928 1061.2512)" fill="#010103" font-family="'DINMittelschrift'" font-size="52px">t</text>
	<text transform="matrix(1 0 0 1 2741.6392 151.251)" fill="#010103" font-family="'DINMittelschrift'" font-size="52px">C</text>
	<text transform="matrix(1 0 0 1 2771.8511 151.251)" fill="#010103" font-family="'DINMittelschrift'" font-size="52px">a</text>
	<text transform="matrix(1 0 0 1 2799.1509 151.251)" fill="#010103" font-family="'DINMittelschrift'" font-size="52px">t</text>
	<text transform="matrix(1 0 0 1 2814.9077 151.251)" fill="#010103" font-family="'DINMittelschrift'" font-size="52px">e</text>
	<text transform="matrix(1 0 0 1 2842.2075 151.251)" fill="#010103" font-family="'DINMittelschrift'" font-size="52px">l</text>
	<text transform="matrix(1 0 0 1 2856.9233 151.251)" fill="#010103" font-family="'DINMittelschrift'" font-size="52px">i</text>
	<text transform="matrix(1 0 0 1 2870.7026 151.251)" fill="#010103" font-family="'DINMittelschrift'" font-size="52px">t</text>
	<text transform="matrix(1 0 0 1 2886.4585 151.251)" fill="#010103" font-family="'DINMittelschrift'" font-size="52px">e</text>
	<text transform="matrix(1 0 0 1 2913.7593 151.251)" fill="#010103" font-family="'DINMittelschrift'" font-size="52px">s</text>
	<text transform="matrix(1 0 0 1 2741.6392 216.251)" fill="#010103" font-family="'DINMittelschrift'" font-size="52px">C</text>
	<text transform="matrix(1 0 0 1 2771.8511 216.251)" fill="#010103" font-family="'DINMittelschrift'" font-size="52px">r</text>
	<text transform="matrix(1 0 0 1 2793.3784 216.251)" fill="#010103" font-family="'DINMittelschrift'" font-size="52px">o</text>
	<text transform="matrix(1 0 0 1 2820.6792 216.251)" fill="#010103" font-family="'DINMittelschrift'" font-size="52px">n</text>
	<text transform="matrix(1 0 0 1 2849.9019 216.251)" fill="#010103" font-family="'DINMittelschrift'" font-size="52px">B</text>
	<text transform="matrix(1 0 0 1 2882.9204 216.251)" fill="#010103" font-family="'DINMittelschrift'" font-size="52px">o</text>
	<text transform="matrix(1 0 0 1 2910.2202 216.251)" fill="#010103" font-family="'DINMittelschrift'" font-size="52px">t</text>
	<text transform="matrix(1 0 0 1 2741.6392 281.251)" fill="#010103" font-family="'DINMittelschrift'" font-size="52px">E</text>
	<text transform="matrix(1 0 0 1 2771.8511 281.251)" fill="#010103" font-family="'DINMittelschrift'" font-size="52px">a</text>
	<text transform="matrix(1 0 0 1 2799.1509 281.251)" fill="#010103" font-family="'DINMittelschrift'" font-size="52px">s</text>
	<text transform="matrix(1 0 0 1 2825.4116 281.251)" fill="#010103" font-family="'DINMittelschrift'" font-size="52px">y</text>
	<text transform="matrix(1 0 0 1 2849.7983 281.251)" fill="#010103" font-family="'DINMittelschrift'" font-size="52px">B</text>
	<text transform="matrix(1 0 0 1 2882.8169 281.251)" fill="#010103" font-family="'DINMittelschrift'" font-size="52px">o</text>
	<text transform="matrix(1 0 0 1 2910.1167 281.251)" fill="#010103" font-family="'DINMittelschrift'" font-size="52px">t</text>
	<text transform="matrix(1 0 0 1 2741.6392 346.251)" fill="#010103" font-family="'DINMittelschrift'" font-size="52px">C</text>
	<text transform="matrix(1 0 0 1 2771.8511 346.251)" fill="#010103" font-family="'DINMittelschrift'" font-size="52px">r</text>
	<text transform="matrix(1 0 0 1 2793.3784 346.251)" fill="#010103" font-family="'DINMittelschrift'" font-size="52px">y</text>
	<text transform="matrix(1 0 0 1 2817.7661 346.251)" fill="#010103" font-family="'DINMittelschrift'" font-size="52px">E</text>
	<text transform="matrix(1 0 0 1 2847.978 346.251)" fill="#010103" font-family="'DINMittelschrift'" font-size="52px">y</text>
	<text transform="matrix(1 0 0 1 2872.3647 346.251)" fill="#010103" font-family="'DINMittelschrift'" font-size="52px">e</text>
	<text transform="matrix(1 0 0 1 2899.6646 346.251)" fill="#010103" font-family="'DINMittelschrift'" font-size="52px"> </text>
	<text transform="matrix(1 0 0 1 2913.4438 346.251)" fill="#010103" font-family="'DINMittelschrift'" font-size="52px">/</text>
	<text transform="matrix(1 0 0 1 2932.0601 346.251)" fill="#010103" font-family="'DINMittelschrift'" font-size="52px"> </text>
	<text transform="matrix(1 0 0 1 2945.8394 346.251)" fill="#010103" font-family="'DINMittelschrift'" font-size="52px">S</text>
	<text transform="matrix(1 0 0 1 2976.9868 346.251)" fill="#010103" font-family="'DINMittelschrift'" font-size="52px">v</text>
	<text transform="matrix(1 0 0 1 3001.3735 346.251)" fill="#010103" font-family="'DINMittelschrift'" font-size="52px">p</text>
	<text transform="matrix(1 0 0 1 3029.6616 346.251)" fill="#010103" font-family="'DINMittelschrift'" font-size="52px">e</text>
	<text transform="matrix(1 0 0 1 3056.9624 346.251)" fill="#010103" font-family="'DINMittelschrift'" font-size="52px">n</text>
	<text transform="matrix(1 0 0 1 3086.1851 346.251)" fill="#010103" font-family="'DINMittelschrift'" font-size="52px">g</text>
	<text transform="matrix(1 0 0 1 2741.6392 411.251)" fill="#010103" font-family="'DINMittelschrift'" font-size="52px">B</text>
	<text transform="matrix(1 0 0 1 2774.6577 411.251)" fill="#010103" font-family="'DINMittelschrift'" font-size="52px">a</text>
	<text transform="matrix(1 0 0 1 2801.9575 411.251)" fill="#010103" font-family="'DINMittelschrift'" font-size="52px">n</text>
	<text transform="matrix(1 0 0 1 2831.1821 411.251)" fill="#010103" font-family="'DINMittelschrift'" font-size="52px">k</text>
	<text transform="matrix(1 0 0 1 2859.4702 411.251)" fill="#010103" font-family="'DINMittelschrift'" font-size="52px">b</text>
	<text transform="matrix(1 0 0 1 2887.7583 411.251)" fill="#010103" font-family="'DINMittelschrift'" font-size="52px">o</text>
	<text transform="matrix(1 0 0 1 2915.0581 411.251)" fill="#010103" font-family="'DINMittelschrift'" font-size="52px">t</text>
	<text transform="matrix(1 0 0 1 2930.814 411.251)" fill="#010103" font-family="'DINMittelschrift'" font-size="52px"> </text>
	<text transform="matrix(1 0 0 1 2944.5942 411.251)" fill="#010103" font-family="'DINMittelschrift'" font-size="52px">/</text>
	<text transform="matrix(1 0 0 1 2963.2095 411.251)" fill="#010103" font-family="'DINMittelschrift'" font-size="52px"> </text>
	<text transform="matrix(1 0 0 1 2976.9888 411.251)" fill="#010103" font-family="'DINMittelschrift'" font-size="52px">A</text>
	<text transform="matrix(1 0 0 1 3010.0073 411.251)" fill="#010103" font-family="'DINMittelschrift'" font-size="52px">n</text>
	<text transform="matrix(1 0 0 1 3039.231 411.251)" fill="#010103" font-family="'DINMittelschrift'" font-size="52px">u</text>
	<text transform="matrix(1 0 0 1 3068.4556 411.251)" fill="#010103" font-family="'DINMittelschrift'" font-size="52px">b</text>
	<text transform="matrix(1 0 0 1 3096.7437 411.251)" fill="#010103" font-family="'DINMittelschrift'" font-size="52px">i</text>
	<text transform="matrix(1 0 0 1 3110.5229 411.251)" fill="#010103" font-family="'DINMittelschrift'" font-size="52px">s</text>
	<text transform="matrix(1 0 0 1 2741.6392 476.251)" fill="#010103" font-family="'DINMittelschrift'" font-size="52px">Z</text>
	<text transform="matrix(1 0 0 1 2769.9272 476.251)" fill="#010103" font-family="'DINMittelschrift'" font-size="52px">b</text>
	<text transform="matrix(1 0 0 1 2798.2153 476.251)" fill="#010103" font-family="'DINMittelschrift'" font-size="52px">i</text>
	<text transform="matrix(1 0 0 1 2811.9956 476.251)" fill="#010103" font-family="'DINMittelschrift'" font-size="52px">u</text>
	<text transform="matrix(1 0 0 1 2841.2183 476.251)" fill="#010103" font-family="'DINMittelschrift'" font-size="52px"> </text>
	<text transform="matrix(1 0 0 1 2854.9976 476.251)" fill="#010103" font-family="'DINMittelschrift'" font-size="52px">/</text>
	<text transform="matrix(1 0 0 1 2873.6128 476.251)" fill="#010103" font-family="'DINMittelschrift'" font-size="52px"> </text>
	<text transform="matrix(1 0 0 1 2887.3921 476.251)" fill="#010103" font-family="'DINMittelschrift'" font-size="52px">D</text>
	<text transform="matrix(1 0 0 1 2921.4526 476.251)" fill="#010103" font-family="'DINMittelschrift'" font-size="52px">i</text>
	<text transform="matrix(1 0 0 1 2935.2319 476.251)" fill="#010103" font-family="'DINMittelschrift'" font-size="52px">r</text>
	<text transform="matrix(1 0 0 1 2956.7593 476.251)" fill="#010103" font-family="'DINMittelschrift'" font-size="52px">t</text>
	<text transform="matrix(1 0 0 1 2972.5151 476.251)" fill="#010103" font-family="'DINMittelschrift'" font-size="52px">y</text>
	<text transform="matrix(1 0 0 1 2996.9019 476.251)" fill="#010103" font-family="'DINMittelschrift'" font-size="52px"> </text>
	<text transform="matrix(1 0 0 1 3010.6821 476.251)" fill="#010103" font-family="'DINMittelschrift'" font-size="52px">C</text>
	<text transform="matrix(1 0 0 1 3040.894 476.251)" fill="#010103" font-family="'DINMittelschrift'" font-size="52px">o</text>
	<text transform="matrix(1 0 0 1 3068.1938 476.251)" fill="#010103" font-family="'DINMittelschrift'" font-size="52px">w</text>
	<text transform="matrix(1 0 0 1 2741.6392 541.251)" fill="#010103" font-family="'DINMittelschrift'" font-size="52px">S</text>
	<text transform="matrix(1 0 0 1 2772.7866 541.251)" fill="#010103" font-family="'DINMittelschrift'" font-size="52px">h</text>
	<text transform="matrix(1 0 0 1 2802.0103 541.251)" fill="#010103" font-family="'DINMittelschrift'" font-size="52px">i</text>
	<text transform="matrix(1 0 0 1 2815.7905 541.251)" fill="#010103" font-family="'DINMittelschrift'" font-size="52px">z</text>
	<text transform="matrix(1 0 0 1 2840.1772 541.251)" fill="#010103" font-family="'DINMittelschrift'" font-size="52px"> </text>
	<text transform="matrix(1 0 0 1 2853.9565 541.251)" fill="#010103" font-family="'DINMittelschrift'" font-size="52px">/</text>
	<text transform="matrix(1 0 0 1 2872.5718 541.251)" fill="#010103" font-family="'DINMittelschrift'" font-size="52px"> </text>
	<text transform="matrix(1 0 0 1 2886.3511 541.251)" fill="#010103" font-family="'DINMittelschrift'" font-size="52px">S</text>
	<text transform="matrix(1 0 0 1 2917.4995 541.251)" fill="#010103" font-family="'DINMittelschrift'" font-size="52px">h</text>
	<text transform="matrix(1 0 0 1 2946.7222 541.251)" fill="#010103" font-family="'DINMittelschrift'" font-size="52px">i</text>
	<text transform="matrix(1 0 0 1 2960.5015 541.251)" fill="#010103" font-family="'DINMittelschrift'" font-size="52px">f</text>
	<text transform="matrix(1 0 0 1 2976.2573 541.251)" fill="#010103" font-family="'DINMittelschrift'" font-size="52px">u</text>
	<text transform="matrix(1 0 0 1 3005.481 541.251)" fill="#010103" font-family="'DINMittelschrift'" font-size="52px"> </text>
	<text transform="matrix(1 0 0 1 3019.2612 541.251)" fill="#010103" font-family="'DINMittelschrift'" font-size="52px">/</text>
	<text transform="matrix(1 0 0 1 3037.8765 541.251)" fill="#010103" font-family="'DINMittelschrift'" font-size="52px"> </text>
	<text transform="matrix(1 0 0 1 3051.6558 541.251)" fill="#010103" font-family="'DINMittelschrift'" font-size="52px">S</text>
	<text transform="matrix(1 0 0 1 3082.8032 541.251)" fill="#010103" font-family="'DINMittelschrift'" font-size="52px">t</text>
	<text transform="matrix(1 0 0 1 3098.5591 541.251)" fill="#010103" font-family="'DINMittelschrift'" font-size="52px">a</text>
	<text transform="matrix(1 0 0 1 3125.8599 541.251)" fill="#010103" font-family="'DINMittelschrift'" font-size="52px">g</text>
	<text transform="matrix(1 0 0 1 3154.1479 541.251)" fill="#010103" font-family="'DINMittelschrift'" font-size="52px">e</text>
	<text transform="matrix(1 0 0 1 3181.4478 541.251)" fill="#010103" font-family="'DINMittelschrift'" font-size="52px">F</text>
	<text transform="matrix(1 0 0 1 3210.6714 541.251)" fill="#010103" font-family="'DINMittelschrift'" font-size="52px">r</text>
	<text transform="matrix(1 0 0 1 3232.1987 541.251)" fill="#010103" font-family="'DINMittelschrift'" font-size="52px">i</text>
	<text transform="matrix(1 0 0 1 3245.979 541.251)" fill="#010103" font-family="'DINMittelschrift'" font-size="52px">g</text>
	<text transform="matrix(1 0 0 1 3274.2671 541.251)" fill="#010103" font-family="'DINMittelschrift'" font-size="52px">h</text>
	<text transform="matrix(1 0 0 1 3303.4907 541.251)" fill="#010103" font-family="'DINMittelschrift'" font-size="52px">t</text>
	<text transform="matrix(1 0 0 1 2741.6392 606.251)" fill="#010103" font-family="'DINMittelschrift'" font-size="52px">A</text>
	<text transform="matrix(1 0 0 1 2774.6577 606.251)" fill="#010103" font-family="'DINMittelschrift'" font-size="52px">c</text>
	<text transform="matrix(1 0 0 1 2799.0444 606.251)" fill="#010103" font-family="'DINMittelschrift'" font-size="52px">e</text>
	<text transform="matrix(1 0 0 1 2826.3452 606.251)" fill="#010103" font-family="'DINMittelschrift'" font-size="52px">C</text>
	<text transform="matrix(1 0 0 1 2856.5571 606.251)" fill="#010103" font-family="'DINMittelschrift'" font-size="52px">a</text>
	<text transform="matrix(1 0 0 1 2883.8569 606.251)" fill="#010103" font-family="'DINMittelschrift'" font-size="52px">r</text>
	<text transform="matrix(1 0 0 1 2905.3843 606.251)" fill="#010103" font-family="'DINMittelschrift'" font-size="52px">d</text>
	<text transform="matrix(1 0 0 1 2741.6392 671.251)" fill="#010103" font-family="'DINMittelschrift'" font-size="52px">L</text>
	<text transform="matrix(1 0 0 1 2771.8511 671.251)" fill="#010103" font-family="'DINMittelschrift'" font-size="52px">o</text>
	<text transform="matrix(1 0 0 1 2799.1509 671.251)" fill="#010103" font-family="'DINMittelschrift'" font-size="52px">k</text>
	<text transform="matrix(1 0 0 1 2827.4399 671.251)" fill="#010103" font-family="'DINMittelschrift'" font-size="52px">i</text>
	<text transform="matrix(1 0 0 1 2841.2192 671.251)" fill="#010103" font-family="'DINMittelschrift'" font-size="52px">b</text>
	<text transform="matrix(1 0 0 1 2869.5073 671.251)" fill="#010103" font-family="'DINMittelschrift'" font-size="52px">o</text>
	<text transform="matrix(1 0 0 1 2896.8071 671.251)" fill="#010103" font-family="'DINMittelschrift'" font-size="52px">t</text>
	<text transform="matrix(1 0 0 1 2741.6392 736.251)" fill="#010103" font-family="'DINMittelschrift'" font-size="52px">D</text>
	<text transform="matrix(1 0 0 1 2775.6987 736.251)" fill="#010103" font-family="'DINMittelschrift'" font-size="52px">a</text>
	<text transform="matrix(1 0 0 1 2802.9985 736.251)" fill="#010103" font-family="'DINMittelschrift'" font-size="52px">r</text>
	<text transform="matrix(1 0 0 1 2824.5269 736.251)" fill="#010103" font-family="'DINMittelschrift'" font-size="52px">k</text>
	<text transform="matrix(1 0 0 1 2852.8149 736.251)" fill="#010103" font-family="'DINMittelschrift'" font-size="52px"> </text>
	<text transform="matrix(1 0 0 1 2866.5942 736.251)" fill="#010103" font-family="'DINMittelschrift'" font-size="52px">C</text>
	<text transform="matrix(1 0 0 1 2896.8062 736.251)" fill="#010103" font-family="'DINMittelschrift'" font-size="52px">a</text>
	<text transform="matrix(1 0 0 1 2924.106 736.251)" fill="#010103" font-family="'DINMittelschrift'" font-size="52px">r</text>
	<text transform="matrix(1 0 0 1 2945.6343 736.251)" fill="#010103" font-family="'DINMittelschrift'" font-size="52px">a</text>
	<text transform="matrix(1 0 0 1 2972.9341 736.251)" fill="#010103" font-family="'DINMittelschrift'" font-size="52px">c</text>
	<text transform="matrix(1 0 0 1 2997.3208 736.251)" fill="#010103" font-family="'DINMittelschrift'" font-size="52px">a</text>
	<text transform="matrix(1 0 0 1 3024.6206 736.251)" fill="#010103" font-family="'DINMittelschrift'" font-size="52px">l</text>
	<text transform="matrix(1 0 0 1 2741.6392 801.251)" fill="#010103" font-family="'DINMittelschrift'" font-size="52px">C</text>
	<text transform="matrix(1 0 0 1 2771.8511 801.251)" fill="#010103" font-family="'DINMittelschrift'" font-size="52px">h</text>
	<text transform="matrix(1 0 0 1 2801.0747 801.251)" fill="#010103" font-family="'DINMittelschrift'" font-size="52px">r</text>
	<text transform="matrix(1 0 0 1 2822.603 801.251)" fill="#010103" font-family="'DINMittelschrift'" font-size="52px">y</text>
	<text transform="matrix(1 0 0 1 2846.9897 801.251)" fill="#010103" font-family="'DINMittelschrift'" font-size="52px">s</text>
	<text transform="matrix(1 0 0 1 2873.2495 801.251)" fill="#010103" font-family="'DINMittelschrift'" font-size="52px">a</text>
	<text transform="matrix(1 0 0 1 2900.5493 801.251)" fill="#010103" font-family="'DINMittelschrift'" font-size="52px">o</text>
	<text transform="matrix(1 0 0 1 2927.8491 801.251)" fill="#010103" font-family="'DINMittelschrift'" font-size="52px">r</text>
	<text transform="matrix(1 0 0 1 2949.3774 801.251)" fill="#010103" font-family="'DINMittelschrift'" font-size="52px"> </text>
	<text transform="matrix(1 0 0 1 2963.1567 801.251)" fill="#010103" font-family="'DINMittelschrift'" font-size="52px">P</text>
	<text transform="matrix(1 0 0 1 2995.2915 801.251)" fill="#010103" font-family="'DINMittelschrift'" font-size="52px">e</text>
	<text transform="matrix(1 0 0 1 3022.5913 801.251)" fill="#010103" font-family="'DINMittelschrift'" font-size="52px">g</text>
	<text transform="matrix(1 0 0 1 3050.8794 801.251)" fill="#010103" font-family="'DINMittelschrift'" font-size="52px">a</text>
	<text transform="matrix(1 0 0 1 3078.1802 801.251)" fill="#010103" font-family="'DINMittelschrift'" font-size="52px">s</text>
	<text transform="matrix(1 0 0 1 3104.4399 801.251)" fill="#010103" font-family="'DINMittelschrift'" font-size="52px">u</text>
	<text transform="matrix(1 0 0 1 3133.6626 801.251)" fill="#010103" font-family="'DINMittelschrift'" font-size="52px">s</text>
	<text transform="matrix(1 0 0 1 2741.6392 866.251)" fill="#010103" font-family="'DINMittelschrift'" font-size="52px">S</text>
	<text transform="matrix(1 0 0 1 2772.7866 866.251)" fill="#010103" font-family="'DINMittelschrift'" font-size="52px">k</text>
	<text transform="matrix(1 0 0 1 2801.0747 866.251)" fill="#010103" font-family="'DINMittelschrift'" font-size="52px">y</text>
	<text transform="matrix(1 0 0 1 2825.4624 866.251)" fill="#010103" font-family="'DINMittelschrift'" font-size="52px">G</text>
	<text transform="matrix(1 0 0 1 2858.4819 866.251)" fill="#010103" font-family="'DINMittelschrift'" font-size="52px">o</text>
	<text transform="matrix(1 0 0 1 2885.7817 866.251)" fill="#010103" font-family="'DINMittelschrift'" font-size="52px">F</text>
	<text transform="matrix(1 0 0 1 2915.0054 866.251)" fill="#010103" font-family="'DINMittelschrift'" font-size="52px">r</text>
	<text transform="matrix(1 0 0 1 2936.5327 866.251)" fill="#010103" font-family="'DINMittelschrift'" font-size="52px">e</text>
	<text transform="matrix(1 0 0 1 2963.8335 866.251)" fill="#010103" font-family="'DINMittelschrift'" font-size="52px">e</text>
	<text transform="matrix(1 0 0 1 2741.6392 931.251)" fill="#010103" font-family="'DINMittelschrift'" font-size="52px">L</text>
	<text transform="matrix(1 0 0 1 2771.8511 931.251)" fill="#010103" font-family="'DINMittelschrift'" font-size="52px">a</text>
	<text transform="matrix(1 0 0 1 2799.1509 931.251)" fill="#010103" font-family="'DINMittelschrift'" font-size="52px">z</text>
	<text transform="matrix(1 0 0 1 2823.5386 931.251)" fill="#010103" font-family="'DINMittelschrift'" font-size="52px">a</text>
	<text transform="matrix(1 0 0 1 2850.8384 931.251)" fill="#010103" font-family="'DINMittelschrift'" font-size="52px">r</text>
	<text transform="matrix(1 0 0 1 2872.3657 931.251)" fill="#010103" font-family="'DINMittelschrift'" font-size="52px">u</text>
	<text transform="matrix(1 0 0 1 2901.5894 931.251)" fill="#010103" font-family="'DINMittelschrift'" font-size="52px">s</text>
	<text transform="matrix(1 0 0 1 2741.6392 996.251)" fill="#010103" font-family="'DINMittelschrift'" font-size="52px">G</text>
	<text transform="matrix(1 0 0 1 2774.6577 996.251)" fill="#010103" font-family="'DINMittelschrift'" font-size="52px">n</text>
	<text transform="matrix(1 0 0 1 2803.8813 996.251)" fill="#010103" font-family="'DINMittelschrift'" font-size="52px">a</text>
	<text transform="matrix(1 0 0 1 2831.1821 996.251)" fill="#010103" font-family="'DINMittelschrift'" font-size="52px">t</text>
	<text transform="matrix(1 0 0 1 2846.938 996.251)" fill="#010103" font-family="'DINMittelschrift'" font-size="52px">S</text>
	<text transform="matrix(1 0 0 1 2878.0854 996.251)" fill="#010103" font-family="'DINMittelschrift'" font-size="52px">p</text>
	<text transform="matrix(1 0 0 1 2906.3735 996.251)" fill="#010103" font-family="'DINMittelschrift'" font-size="52px">y</text>
	<text transform="matrix(1 0 0 1 2930.7603 996.251)" fill="#010103" font-family="'DINMittelschrift'" font-size="52px">v</text>
</g>
</svg>
