<?xml version="1.0" encoding="utf-8"?>
<!-- Generator: Adobe Illustrator 19.0.0, SVG Export Plug-In . SVG Version: 6.00 Build 0)  -->
<svg version="1.1" id="Laag_1" xmlns="http://www.w3.org/2000/svg" xmlns:xlink="http://www.w3.org/1999/xlink" x="0px" y="0px"
	 width="3812.2px" height="1013.1px" viewBox="1485 -209.8 3812.2 1013.1"
	 style="enable-background:new 1485 -209.8 3812.2 1013.1;" xml:space="preserve">
<style type="text/css">
	.st0{fill:#C2DF8A;}
	.st1{fill:#1D1C20;}
	.st2{fill:#E0E1E2;}
	.st3{fill:#FFFFFF;}
	.st4{fill:none;stroke:#FFFFFF;stroke-width:12;stroke-linecap:round;stroke-linejoin:round;stroke-miterlimit:10;}
	.st5{fill:none;stroke:#1D1C20;stroke-width:8;stroke-linecap:round;stroke-linejoin:round;stroke-miterlimit:10;}
	.st6{fill:#ECEDED;}
	.st7{fill:#767A7E;}
	.st8{fill:#FFFFFF;stroke:#1D1C20;stroke-width:8;stroke-linecap:round;stroke-linejoin:round;stroke-miterlimit:10;}
	.st9{fill:#C4C9CA;}
	.st10{fill:#1D1C20;stroke:#1D1C20;stroke-width:9.7673;stroke-linecap:round;stroke-linejoin:round;stroke-miterlimit:10;}
	.st11{fill:none;stroke:#FFFFFF;stroke-width:2.4418;stroke-linecap:round;stroke-linejoin:round;stroke-miterlimit:10;}
	.st12{fill:none;stroke:#C4C9CA;stroke-width:9.7673;stroke-linecap:round;stroke-linejoin:round;stroke-miterlimit:10;}
	.st13{fill:none;stroke:#1E1D21;stroke-width:8;stroke-linecap:round;stroke-linejoin:round;stroke-miterlimit:10;}
	.st14{enable-background:new    ;}
	.st15{fill:#223B44;}
	.st16{fill:#3A3C3F;}
</style>
<g id="achterWebsite">
	<rect id="XMLID_608_" x="1485" y="-209.8" class="st0" width="3812.2" height="1013.1"/>
</g>
<g id="Laag_1_1_">
</g>
<g id="nrs">
	<g id="XMLID_3203_">
		<path id="XMLID_3242_" class="st1" d="M4536,359.5h-460V94.7c0-11.9,9.6-21.5,21.5-21.5h417c11.9,0,21.5,9.6,21.5,21.5V359.5z"/>
		<polygon id="XMLID_3241_" class="st2" points="4510.8,98.4 4510.8,270.1 4124.5,98.4 		"/>
		<polygon id="XMLID_3239_" class="st3" points="4510.8,270.1 4510.8,358.7 4396.9,358.7 4101.1,227.2 4101.1,98.4 4124.5,98.4 		
			"/>
		<polygon id="XMLID_3238_" class="st2" points="4396.9,358.7 4101.1,358.7 4101.1,227.2 		"/>
		<path id="XMLID_3228_" class="st1" d="M4536,359.5h-460l-69.5,169.7c-5.1,12.4,4,26.1,17.4,26.1h132.2h299.6h132.2
			c13.4,0,22.6-13.7,17.4-26.1L4536,359.5z"/>
		<polygon id="XMLID_3222_" class="st3" points="4510.8,377.6 4101.1,377.6 4068.9,455.4 4370.1,455.4 4490.5,455.4 4543,455.4 		
			"/>
		<polygon id="XMLID_3221_" class="st3" points="4357.1,474.3 4254.8,474.3 4239.8,510.6 4372.1,510.6 		"/>
		<polygon id="XMLID_3220_" class="st1" points="4498.2,529.4 4472.6,529.4 4402.2,359.5 4427.8,359.5 		"/>
		<line id="XMLID_3219_" class="st4" x1="4023.4" y1="537.9" x2="4589" y2="537.9"/>
		<rect id="XMLID_3218_" x="4433.4" y="398.4" class="st1" width="106.1" height="18.1"/>
	</g>
	<line id="XMLID_3202_" class="st5" x1="2790.7" y1="365" x2="3067.6" y2="365"/>
	<line id="XMLID_3201_" class="st5" x1="3792.1" y1="365" x2="3987.3" y2="365"/>
	<path id="XMLID_3200_" class="st6" d="M3748.7,186.2c54.1,99.6,57.2,219.1,8.4,321.4l-319.6-152.4L3748.7,186.2z"/>
	<path id="XMLID_3199_" class="st7" d="M3714.7,508.8c-84.2,176.5-295.6,251.4-472.1,167.2s-251.4-295.6-167.2-472.1
		C3159.6,27.4,3371-47.5,3547.5,36.7c67.5,32.2,123.1,84.9,158.8,150.7l-311.2,169L3714.7,508.8z"/>
	<g id="XMLID_2105_">
		<g id="XMLID_2151_">
			<g id="XMLID_3188_">
				<path id="XMLID_3198_" class="st8" d="M2568.4,510.2h-251.6c-6.6,0-11.9-5.3-11.9-11.9V125.7c0-6.6,5.3-11.9,11.9-11.9h251.6
					c6.6,0,11.9,5.3,11.9,11.9v372.5C2580.3,504.8,2575,510.2,2568.4,510.2z"/>
				<rect id="XMLID_3197_" x="2326.7" y="155.7" class="st5" width="231.7" height="308"/>
				<circle id="XMLID_3191_" class="st1" cx="2434.8" cy="486.6" r="9.9"/>
				<circle id="XMLID_3189_" class="st1" cx="2434.8" cy="133.7" r="4.9"/>
			</g>
			<g id="XMLID_3134_">
				<g id="XMLID_93_">
					<path id="XMLID_98_" class="st9" d="M2365.2,198.2H2355c-3.3,0-6-2.7-6-6V182c0-3.3,2.7-6,6-6h10.2c3.3,0,6,2.7,6,6v10.2
						C2371.2,195.5,2368.5,198.2,2365.2,198.2z"/>
					<path id="XMLID_97_" class="st9" d="M2406.2,198.2H2396c-3.3,0-6-2.7-6-6V182c0-3.3,2.7-6,6-6h10.2c3.3,0,6,2.7,6,6v10.2
						C2412.2,195.5,2409.5,198.2,2406.2,198.2z"/>
					<path id="XMLID_96_" class="st9" d="M2447.1,198.2h-10.2c-3.3,0-6-2.7-6-6V182c0-3.3,2.7-6,6-6h10.2c3.3,0,6,2.7,6,6v10.2
						C2453.1,195.5,2450.4,198.2,2447.1,198.2z"/>
					<path id="XMLID_95_" class="st9" d="M2488.1,198.2h-10.2c-3.3,0-6-2.7-6-6V182c0-3.3,2.7-6,6-6h10.2c3.3,0,6,2.7,6,6v10.2
						C2494.1,195.5,2491.4,198.2,2488.1,198.2z"/>
					<path id="XMLID_94_" class="st9" d="M2529.1,198.2h-10.2c-3.3,0-6-2.7-6-6V182c0-3.3,2.7-6,6-6h10.2c3.3,0,6,2.7,6,6v10.2
						C2535,195.5,2532.4,198.2,2529.1,198.2z"/>
				</g>
				<g id="XMLID_18_">
					<path id="XMLID_85_" class="st9" d="M2365.2,198.2H2355c-3.3,0-6-2.7-6-6V182c0-3.3,2.7-6,6-6h10.2c3.3,0,6,2.7,6,6v10.2
						C2371.2,195.5,2368.5,198.2,2365.2,198.2z"/>
					<path id="XMLID_22_" class="st9" d="M2406.2,198.2H2396c-3.3,0-6-2.7-6-6V182c0-3.3,2.7-6,6-6h10.2c3.3,0,6,2.7,6,6v10.2
						C2412.2,195.5,2409.5,198.2,2406.2,198.2z"/>
					<path id="XMLID_21_" class="st9" d="M2447.1,198.2h-10.2c-3.3,0-6-2.7-6-6V182c0-3.3,2.7-6,6-6h10.2c3.3,0,6,2.7,6,6v10.2
						C2453.1,195.5,2450.4,198.2,2447.1,198.2z"/>
					<path id="XMLID_20_" class="st9" d="M2488.1,198.2h-10.2c-3.3,0-6-2.7-6-6V182c0-3.3,2.7-6,6-6h10.2c3.3,0,6,2.7,6,6v10.2
						C2494.1,195.5,2491.4,198.2,2488.1,198.2z"/>
					<path id="XMLID_19_" class="st9" d="M2529.1,198.2h-10.2c-3.3,0-6-2.7-6-6V182c0-3.3,2.7-6,6-6h10.2c3.3,0,6,2.7,6,6v10.2
						C2535,195.5,2532.4,198.2,2529.1,198.2z"/>
				</g>
			</g>
			<g id="XMLID_3081_">
				<g id="XMLID_87_">
					<path id="XMLID_92_" class="st9" d="M2365.2,235.3H2355c-3.3,0-6-2.7-6-6v-10.2c0-3.3,2.7-6,6-6h10.2c3.3,0,6,2.7,6,6v10.2
						C2371.2,232.6,2368.5,235.3,2365.2,235.3z"/>
					<path id="XMLID_91_" class="st9" d="M2406.2,235.3H2396c-3.3,0-6-2.7-6-6v-10.2c0-3.3,2.7-6,6-6h10.2c3.3,0,6,2.7,6,6v10.2
						C2412.2,232.6,2409.5,235.3,2406.2,235.3z"/>
					<path id="XMLID_90_" class="st9" d="M2447.1,235.3h-10.2c-3.3,0-6-2.7-6-6v-10.2c0-3.3,2.7-6,6-6h10.2c3.3,0,6,2.7,6,6v10.2
						C2453.1,232.6,2450.4,235.3,2447.1,235.3z"/>
					<path id="XMLID_89_" class="st9" d="M2488.1,235.3h-10.2c-3.3,0-6-2.7-6-6v-10.2c0-3.3,2.7-6,6-6h10.2c3.3,0,6,2.7,6,6v10.2
						C2494.1,232.6,2491.4,235.3,2488.1,235.3z"/>
					<path id="XMLID_88_" class="st9" d="M2529.1,235.3h-10.2c-3.3,0-6-2.7-6-6v-10.2c0-3.3,2.7-6,6-6h10.2c3.3,0,6,2.7,6,6v10.2
						C2535,232.6,2532.4,235.3,2529.1,235.3z"/>
				</g>
				<g id="XMLID_13_">
					<path id="XMLID_84_" class="st9" d="M2365.2,235.3H2355c-3.3,0-6-2.7-6-6v-10.2c0-3.3,2.7-6,6-6h10.2c3.3,0,6,2.7,6,6v10.2
						C2371.2,232.6,2368.5,235.3,2365.2,235.3z"/>
					<path id="XMLID_17_" class="st9" d="M2406.2,235.3H2396c-3.3,0-6-2.7-6-6v-10.2c0-3.3,2.7-6,6-6h10.2c3.3,0,6,2.7,6,6v10.2
						C2412.2,232.6,2409.5,235.3,2406.2,235.3z"/>
					<path id="XMLID_16_" class="st9" d="M2447.1,235.3h-10.2c-3.3,0-6-2.7-6-6v-10.2c0-3.3,2.7-6,6-6h10.2c3.3,0,6,2.7,6,6v10.2
						C2453.1,232.6,2450.4,235.3,2447.1,235.3z"/>
					<path id="XMLID_15_" class="st9" d="M2488.1,235.3h-10.2c-3.3,0-6-2.7-6-6v-10.2c0-3.3,2.7-6,6-6h10.2c3.3,0,6,2.7,6,6v10.2
						C2494.1,232.6,2491.4,235.3,2488.1,235.3z"/>
					<path id="XMLID_14_" class="st9" d="M2529.1,235.3h-10.2c-3.3,0-6-2.7-6-6v-10.2c0-3.3,2.7-6,6-6h10.2c3.3,0,6,2.7,6,6v10.2
						C2535,232.6,2532.4,235.3,2529.1,235.3z"/>
				</g>
			</g>
			<g id="XMLID_2551_">
				<g id="XMLID_78_">
					<path id="XMLID_83_" class="st9" d="M2365.2,272.3H2355c-3.3,0-6-2.7-6-6v-10.2c0-3.3,2.7-6,6-6h10.2c3.3,0,6,2.7,6,6v10.2
						C2371.2,269.7,2368.5,272.3,2365.2,272.3z"/>
					<path id="XMLID_82_" class="st9" d="M2406.2,272.3H2396c-3.3,0-6-2.7-6-6v-10.2c0-3.3,2.7-6,6-6h10.2c3.3,0,6,2.7,6,6v10.2
						C2412.2,269.7,2409.5,272.3,2406.2,272.3z"/>
					<path id="XMLID_81_" class="st9" d="M2447.1,272.3h-10.2c-3.3,0-6-2.7-6-6v-10.2c0-3.3,2.7-6,6-6h10.2c3.3,0,6,2.7,6,6v10.2
						C2453.1,269.7,2450.4,272.3,2447.1,272.3z"/>
					<path id="XMLID_80_" class="st9" d="M2488.1,272.3h-10.2c-3.3,0-6-2.7-6-6v-10.2c0-3.3,2.7-6,6-6h10.2c3.3,0,6,2.7,6,6v10.2
						C2494.1,269.7,2491.4,272.3,2488.1,272.3z"/>
					<path id="XMLID_79_" class="st9" d="M2529.1,272.3h-10.2c-3.3,0-6-2.7-6-6v-10.2c0-3.3,2.7-6,6-6h10.2c3.3,0,6,2.7,6,6v10.2
						C2535,269.7,2532.4,272.3,2529.1,272.3z"/>
				</g>
				<g id="XMLID_8_">
					<path id="XMLID_77_" class="st9" d="M2365.2,272.3H2355c-3.3,0-6-2.7-6-6v-10.2c0-3.3,2.7-6,6-6h10.2c3.3,0,6,2.7,6,6v10.2
						C2371.2,269.7,2368.5,272.3,2365.2,272.3z"/>
					<path id="XMLID_12_" class="st9" d="M2406.2,272.3H2396c-3.3,0-6-2.7-6-6v-10.2c0-3.3,2.7-6,6-6h10.2c3.3,0,6,2.7,6,6v10.2
						C2412.2,269.7,2409.5,272.3,2406.2,272.3z"/>
					<path id="XMLID_11_" class="st9" d="M2447.1,272.3h-10.2c-3.3,0-6-2.7-6-6v-10.2c0-3.3,2.7-6,6-6h10.2c3.3,0,6,2.7,6,6v10.2
						C2453.1,269.7,2450.4,272.3,2447.1,272.3z"/>
					<path id="XMLID_10_" class="st9" d="M2488.1,272.3h-10.2c-3.3,0-6-2.7-6-6v-10.2c0-3.3,2.7-6,6-6h10.2c3.3,0,6,2.7,6,6v10.2
						C2494.1,269.7,2491.4,272.3,2488.1,272.3z"/>
					<path id="XMLID_9_" class="st9" d="M2529.1,272.3h-10.2c-3.3,0-6-2.7-6-6v-10.2c0-3.3,2.7-6,6-6h10.2c3.3,0,6,2.7,6,6v10.2
						C2535,269.7,2532.4,272.3,2529.1,272.3z"/>
				</g>
			</g>
			<g id="XMLID_2322_">
				<g id="XMLID_71_">
					<path id="XMLID_76_" class="st9" d="M2365.2,309.4H2355c-3.3,0-6-2.7-6-6v-10.2c0-3.3,2.7-6,6-6h10.2c3.3,0,6,2.7,6,6v10.2
						C2371.2,306.7,2368.5,309.4,2365.2,309.4z"/>
					<path id="XMLID_75_" class="st9" d="M2406.2,309.4H2396c-3.3,0-6-2.7-6-6v-10.2c0-3.3,2.7-6,6-6h10.2c3.3,0,6,2.7,6,6v10.2
						C2412.2,306.7,2409.5,309.4,2406.2,309.4z"/>
					<path id="XMLID_74_" class="st9" d="M2447.1,309.4h-10.2c-3.3,0-6-2.7-6-6v-10.2c0-3.3,2.7-6,6-6h10.2c3.3,0,6,2.7,6,6v10.2
						C2453.1,306.7,2450.4,309.4,2447.1,309.4z"/>
					<path id="XMLID_73_" class="st9" d="M2488.1,309.4h-10.2c-3.3,0-6-2.7-6-6v-10.2c0-3.3,2.7-6,6-6h10.2c3.3,0,6,2.7,6,6v10.2
						C2494.1,306.7,2491.4,309.4,2488.1,309.4z"/>
					<path id="XMLID_72_" class="st9" d="M2529.1,309.4h-10.2c-3.3,0-6-2.7-6-6v-10.2c0-3.3,2.7-6,6-6h10.2c3.3,0,6,2.7,6,6v10.2
						C2535,306.7,2532.4,309.4,2529.1,309.4z"/>
				</g>
				<g id="XMLID_4_">
					<path id="XMLID_70_" class="st9" d="M2365.2,309.4H2355c-3.3,0-6-2.7-6-6v-10.2c0-3.3,2.7-6,6-6h10.2c3.3,0,6,2.7,6,6v10.2
						C2371.2,306.7,2368.5,309.4,2365.2,309.4z"/>
					<path id="XMLID_53_" class="st9" d="M2406.2,309.4H2396c-3.3,0-6-2.7-6-6v-10.2c0-3.3,2.7-6,6-6h10.2c3.3,0,6,2.7,6,6v10.2
						C2412.2,306.7,2409.5,309.4,2406.2,309.4z"/>
					<path id="XMLID_7_" class="st9" d="M2447.1,309.4h-10.2c-3.3,0-6-2.7-6-6v-10.2c0-3.3,2.7-6,6-6h10.2c3.3,0,6,2.7,6,6v10.2
						C2453.1,306.7,2450.4,309.4,2447.1,309.4z"/>
					<path id="XMLID_6_" class="st9" d="M2488.1,309.4h-10.2c-3.3,0-6-2.7-6-6v-10.2c0-3.3,2.7-6,6-6h10.2c3.3,0,6,2.7,6,6v10.2
						C2494.1,306.7,2491.4,309.4,2488.1,309.4z"/>
					<path id="XMLID_5_" class="st9" d="M2529.1,309.4h-10.2c-3.3,0-6-2.7-6-6v-10.2c0-3.3,2.7-6,6-6h10.2c3.3,0,6,2.7,6,6v10.2
						C2535,306.7,2532.4,309.4,2529.1,309.4z"/>
				</g>
			</g>
			<g id="XMLID_2156_">
				<g id="XMLID_64_">
					<path id="XMLID_69_" class="st9" d="M2365.2,346.5H2355c-3.3,0-6-2.7-6-6v-10.2c0-3.3,2.7-6,6-6h10.2c3.3,0,6,2.7,6,6v10.2
						C2371.2,343.8,2368.5,346.5,2365.2,346.5z"/>
					<path id="XMLID_68_" class="st9" d="M2406.2,346.5H2396c-3.3,0-6-2.7-6-6v-10.2c0-3.3,2.7-6,6-6h10.2c3.3,0,6,2.7,6,6v10.2
						C2412.2,343.8,2409.5,346.5,2406.2,346.5z"/>
					<path id="XMLID_67_" class="st9" d="M2447.1,346.5h-10.2c-3.3,0-6-2.7-6-6v-10.2c0-3.3,2.7-6,6-6h10.2c3.3,0,6,2.7,6,6v10.2
						C2453.1,343.8,2450.4,346.5,2447.1,346.5z"/>
					<path id="XMLID_66_" class="st9" d="M2488.1,346.5h-10.2c-3.3,0-6-2.7-6-6v-10.2c0-3.3,2.7-6,6-6h10.2c3.3,0,6,2.7,6,6v10.2
						C2494.1,343.8,2491.4,346.5,2488.1,346.5z"/>
					<path id="XMLID_65_" class="st9" d="M2529.1,346.5h-10.2c-3.3,0-6-2.7-6-6v-10.2c0-3.3,2.7-6,6-6h10.2c3.3,0,6,2.7,6,6v10.2
						C2535,343.8,2532.4,346.5,2529.1,346.5z"/>
				</g>
				<g id="XMLID_54_">
					<path id="XMLID_63_" class="st9" d="M2365.2,346.5H2355c-3.3,0-6-2.7-6-6v-10.2c0-3.3,2.7-6,6-6h10.2c3.3,0,6,2.7,6,6v10.2
						C2371.2,343.8,2368.5,346.5,2365.2,346.5z"/>
					<path id="XMLID_62_" class="st9" d="M2406.2,346.5H2396c-3.3,0-6-2.7-6-6v-10.2c0-3.3,2.7-6,6-6h10.2c3.3,0,6,2.7,6,6v10.2
						C2412.2,343.8,2409.5,346.5,2406.2,346.5z"/>
					<path id="XMLID_61_" class="st9" d="M2447.1,346.5h-10.2c-3.3,0-6-2.7-6-6v-10.2c0-3.3,2.7-6,6-6h10.2c3.3,0,6,2.7,6,6v10.2
						C2453.1,343.8,2450.4,346.5,2447.1,346.5z"/>
					<path id="XMLID_56_" class="st9" d="M2488.1,346.5h-10.2c-3.3,0-6-2.7-6-6v-10.2c0-3.3,2.7-6,6-6h10.2c3.3,0,6,2.7,6,6v10.2
						C2494.1,343.8,2491.4,346.5,2488.1,346.5z"/>
					<path id="XMLID_55_" class="st9" d="M2529.1,346.5h-10.2c-3.3,0-6-2.7-6-6v-10.2c0-3.3,2.7-6,6-6h10.2c3.3,0,6,2.7,6,6v10.2
						C2535,343.8,2532.4,346.5,2529.1,346.5z"/>
				</g>
			</g>
			<g id="XMLID_2152_">
				<path id="XMLID_2155_" class="st9" d="M2406.3,433.9H2396c-3.3,0-6-2.7-6-6v-10.2c0-3.3,2.7-6,6-6h10.2c3.3,0,6,2.7,6,6v10.2
					C2412.2,431.3,2409.6,433.9,2406.3,433.9z"/>
				<path id="XMLID_2154_" class="st9" d="M2488.1,433.9h-10.2c-3.3,0-6-2.7-6-6v-10.2c0-3.3,2.7-6,6-6h10.2c3.3,0,6,2.7,6,6v10.2
					C2494.1,431.3,2491.4,433.9,2488.1,433.9z"/>
				<path id="XMLID_2153_" class="st9" d="M2447.2,433.9H2437c-3.3,0-6-2.7-6-6v-10.2c0-3.3,2.7-6,6-6h10.2c3.3,0,6,2.7,6,6v10.2
					C2453.2,431.3,2450.5,433.9,2447.2,433.9z"/>
			</g>
		</g>
		<g id="XMLID_2106_">
			<path id="XMLID_2145_" class="st10" d="M2728.3,456.7h-79.8c-3.3,0-6-2.7-6-6V279.4c0-3.3,2.7-6,6-6h79.8c3.3,0,6,2.7,6,6v171.3
				C2734.3,454,2731.6,456.7,2728.3,456.7z"/>
			<rect id="XMLID_2118_" x="2649.8" y="296.6" class="st3" width="77.2" height="124.2"/>
			<line id="XMLID_2116_" class="st11" x1="2678.4" y1="284.6" x2="2698.5" y2="284.6"/>
			<circle id="XMLID_2115_" class="st3" cx="2688.4" cy="438.8" r="7"/>
			<line id="XMLID_2109_" class="st12" x1="2692.9" y1="305" x2="2717.4" y2="337.5"/>
			<line id="XMLID_2108_" class="st12" x1="2718.6" y1="313.7" x2="2711.7" y2="304.5"/>
			<line id="XMLID_2107_" class="st12" x1="2673" y1="410.9" x2="2659.2" y2="392.5"/>
		</g>
	</g>
	<path id="XMLID_2103_" class="st13" d="M3748.7,186.2c54.1,99.6,57.2,219.1,8.4,321.4"/>
	<path id="XMLID_2052_" class="st13" d="M3714.7,508.8c-84.2,176.5-295.6,251.4-472.1,167.2s-251.4-295.6-167.2-472.1
		C3159.6,27.4,3371-47.5,3547.5,36.7c67.5,32.2,123.1,84.9,158.8,150.7"/>
</g>
<g id="typo">
	<g class="st14">
		<path class="st15" d="M4193.1,657.5c-1.3,1.4-2.9,2.6-4.8,3.4c-1.9,0.9-3.9,1.3-6,1.3c-2.5,0-4.7-0.5-6.6-1.5
			c-1.9-1-3.4-2.3-4.6-3.8c-0.1-0.1-0.1-0.1-0.1-0.2c0-0.1-0.1-0.1-0.1-0.1c-1-1.4-1.8-3.1-2.1-5.2c-0.4-2-0.6-5.5-0.6-10.5
			c0-4.9,0.2-8.4,0.6-10.4c0.4-2,1.1-3.7,2.1-5.2c0.1,0,0.1,0,0.1-0.1c0-0.1,0.1-0.1,0.1-0.2c1.2-1.6,2.7-2.9,4.6-3.9
			c1.9-1,4-1.5,6.6-1.5c2.1,0,4.1,0.5,5.8,1.4c1.7,0.9,3.4,2.1,4.9,3.6v-21.2h8.4v58.4h-8.4V657.5z M4177.9,632.1
			c-0.8,2.6-1.2,5.5-1.2,8.7c0,0.1,0,0.1,0,0.1c0,0,0,0.1,0,0.1c0,3.2,0.4,6.2,1.2,8.9c0.8,2.7,3.2,4.1,7.1,4.1
			c3.5,0,5.7-1.1,6.6-3.4c0.9-2.3,1.4-4.8,1.6-7.5c0-0.3,0-0.7,0-1s0-0.7,0-1s0-0.7,0-1s0-0.7,0-1.1c-0.1-2.7-0.6-5.1-1.6-7.4
			c-1-2.2-3.2-3.4-6.6-3.4C4181,628.1,4178.7,629.5,4177.9,632.1z"/>
	</g>
	<g class="st14">
		<path class="st15" d="M4219.2,644.2c0,3.4,0.9,5.9,2.8,7.7c1.9,1.7,4.3,2.6,7.1,2.6c0.3,0,0.7,0,1,0c0.3,0,0.7-0.1,1-0.1
			c1.3-0.2,2.5-0.7,3.8-1.3c1.3-0.7,2.4-1.5,3.4-2.5l6.1,5.2c-2,2.4-4.3,4-6.9,5.1c-2.6,1-5.3,1.6-8.1,1.6c-0.5,0-1.1,0-1.6,0
			c-0.5,0-1.1-0.1-1.6-0.1c-3.8-0.5-7.3-2.2-10.5-5.2c-3.2-3-4.8-8.2-4.8-15.7c0-7.2,1.5-12.4,4.6-15.6s6.4-5.1,10-5.6
			c0.4-0.1,0.9-0.1,1.3-0.1c0.4,0,0.8,0,1.3,0c4.6,0,8.6,1.6,12,4.8c3.4,3.2,5.1,7.4,5.1,12.8v6.9H4219.2z M4236.7,637.3
			c-0.1-3.2-1-5.6-2.6-7.2c-1.6-1.6-3.7-2.5-6.2-2.5s-4.5,0.8-6.2,2.5c-1.6,1.6-2.5,4-2.6,7.2H4236.7z"/>
	</g>
	<g class="st14">
		<path class="st15" d="M4257.2,649.1c1.8,1.8,3.7,3.1,5.8,4c2.1,0.9,4.5,1.4,7.3,1.4c2.4,0,4.4-0.5,5.9-1.4c1.5-0.9,2.3-2.2,2.3-4
			c0-1.5-0.5-2.5-1.5-3.1s-2.2-0.9-3.6-1l-7.4-0.7c-3.4-0.3-6.3-1.4-8.6-3.4c-2.3-2-3.4-4.8-3.4-8.4c0-4.2,1.5-7.4,4.5-9.6
			c3-2.2,6.7-3.2,11-3.2c3.7,0,6.8,0.5,9.4,1.5c2.6,1,4.9,2.4,6.9,4.1l-5.2,6.1c-1.6-1.1-3.3-2.1-5.1-2.8c-1.8-0.7-3.8-1.1-6-1.1
			c-2.7,0-4.5,0.5-5.6,1.4c-1,1-1.6,2.1-1.6,3.6c0,0.9,0.4,1.7,1.2,2.5c0.8,0.8,2.2,1.3,4.3,1.4l6.9,0.5c4.3,0.3,7.4,1.6,9.3,3.9
			c1.9,2.4,2.8,5.2,2.8,8.5c0,4-1.7,7.2-5,9.4c-3.3,2.2-7.4,3.3-12.3,3.3c-3.3,0-6.5-0.6-9.6-1.8c-3.1-1.2-6-3.1-8.7-5.6
			L4257.2,649.1z"/>
	</g>
	<g class="st14">
		<path class="st15" d="M4297.3,603.5h8.4v36.3h0.2l16-19.5h10l-14.4,16.2l16.3,25.3h-10.5l-11.1-19.4l-6.6,7.5v12h-8.4V603.5z"/>
	</g>
	<g class="st14">
		<path class="st15" d="M4342.4,607.6h8.4v12.6h6.1v6.4h-6.1v24.2c0,1.1,0.2,2,0.7,2.4c0.5,0.5,1.2,0.7,2.3,0.7h3.1v7.9h-4.3
			c-2.9,0-5.3-0.9-7.2-2.7c-1.9-1.8-2.9-4.3-2.9-7.6v-24.9h-4.2v-6.4h4.2V607.6z"/>
	</g>
	<g class="st14">
		<path class="st15" d="M4365.8,631.1c0.7-2.2,1.8-4.1,3.3-5.9c0.1-0.1,0.1-0.1,0.2-0.2c0.1-0.1,0.2-0.2,0.3-0.3
			c0.1-0.1,0.2-0.2,0.3-0.3c1.2-1.1,2.8-2.2,4.7-3.2c1.9-1,4.4-1.5,7.3-1.5s5.4,0.5,7.3,1.5c1.9,1,3.5,2,4.7,3.2
			c0.1,0.1,0.2,0.2,0.3,0.3c0.1,0.1,0.2,0.2,0.3,0.3c0.1,0.1,0.1,0.1,0.2,0.2c1.5,1.8,2.6,3.7,3.3,5.9c0.7,2.2,1,5.5,1,9.9
			s-0.3,7.7-1,9.9c-0.7,2.2-1.8,4.2-3.3,5.9c-0.1,0.1-0.1,0.1-0.2,0.2c-0.1,0.1-0.2,0.2-0.3,0.3c-0.1,0.1-0.2,0.2-0.3,0.3
			c-1.2,1.1-2.8,2.2-4.7,3.2c-1.9,1-4.4,1.4-7.3,1.4s-5.4-0.5-7.3-1.4c-1.9-1-3.5-2-4.7-3.2c-0.1-0.1-0.2-0.2-0.3-0.3
			c-0.1-0.1-0.2-0.2-0.3-0.3c-0.1-0.1-0.1-0.1-0.2-0.2c-1.5-1.7-2.6-3.7-3.3-5.9c-0.7-2.2-1-5.5-1-9.9S4365.1,633.3,4365.8,631.1z
			 M4390.3,635.2c-0.2-1.2-0.6-2.3-1.2-3.3c-0.1-0.1-0.1-0.2-0.2-0.4c-0.1-0.1-0.2-0.3-0.3-0.4c-0.6-0.9-1.5-1.6-2.7-2.2
			c-1.2-0.6-2.6-0.9-4-0.9c-1.4,0-2.7,0.3-4,0.9c-1.2,0.6-2.1,1.3-2.7,2.2c-0.1,0.1-0.2,0.2-0.3,0.4c-0.1,0.1-0.2,0.3-0.2,0.4
			c-0.6,1-1,2.1-1.2,3.3c-0.2,1.2-0.3,3.2-0.3,5.8c0,2.7,0.1,4.6,0.3,5.9c0.2,1.2,0.6,2.3,1.2,3.3c0.1,0.1,0.1,0.2,0.2,0.4
			c0.1,0.1,0.2,0.3,0.3,0.4c0.6,0.9,1.5,1.6,2.7,2.2c1.2,0.6,2.6,0.9,4,0.9c1.4,0,2.7-0.3,4-0.9c1.2-0.6,2.1-1.3,2.7-2.2
			c0.1-0.1,0.2-0.2,0.3-0.4c0.1-0.1,0.1-0.3,0.2-0.4c0.6-1,1-2.1,1.2-3.3c0.2-1.2,0.3-3.2,0.3-5.8
			C4390.7,638.4,4390.6,636.5,4390.3,635.2z"/>
	</g>
	<g class="st14">
		<path class="st15" d="M4409.8,620.3h8.4v4.3c1.3-1.4,2.9-2.6,4.8-3.5c1.9-0.9,3.9-1.4,6-1.4c2.6,0,4.8,0.5,6.6,1.5
			c1.8,1,3.3,2.3,4.6,3.9c0.1,0.1,0.1,0.1,0.1,0.2c0,0.1,0.1,0.1,0.1,0.1c1,1.4,1.7,3.1,2.1,5.2c0.4,2,0.6,5.5,0.6,10.5
			c0,4.9-0.2,8.4-0.6,10.4c-0.4,2-1.1,3.7-2.1,5.2c-0.1,0-0.1,0-0.1,0.1c0,0.1-0.1,0.1-0.1,0.2c-1.2,1.5-2.7,2.8-4.6,3.8
			c-1.8,1-4,1.5-6.6,1.5c-2.1,0-4.1-0.4-5.8-1.3c-1.7-0.9-3.4-2-5-3.5v21.2h-8.4V620.3z M4433.5,650c0.8-2.6,1.2-5.5,1.2-8.7
			c0-0.1,0-0.1,0-0.1c0,0,0-0.1,0-0.1c0-3.2-0.4-6.2-1.2-8.9c-0.8-2.7-3.2-4.1-7.1-4.1c-3.5,0-5.7,1.1-6.6,3.4
			c-0.9,2.3-1.4,4.8-1.6,7.5c0,0.3,0,0.7,0,1c0,0.3,0,0.7,0,1s0,0.7,0,1s0,0.7,0,1.1c0.1,2.7,0.6,5.1,1.6,7.4c1,2.2,3.2,3.4,6.6,3.4
			C4430.3,654,4432.6,652.7,4433.5,650z"/>
	</g>
	<g class="st14">
		<path class="st15" d="M2401.7,620.3h8.4v4.4h0.2c1.3-1.6,2.9-2.9,4.8-3.7c1.9-0.8,3.9-1.2,6.1-1.2c2.9,0,5.2,0.5,6.9,1.6
			c1.7,1,3.3,2.3,4.8,3.9c1.7-1.9,3.7-3.3,5.7-4.1c2.1-0.8,4.5-1.3,7.4-1.3c0.3,0,0.7,0,1.1,0c0.4,0,0.7,0.1,1.1,0.1
			c3,0.5,5.6,1.9,8.1,4.3c2.4,2.4,3.6,5.7,3.6,9.9v27.6h-8.4v-24.8c0-2.8-0.8-5-2.3-6.6c-1.6-1.6-3.5-2.3-5.9-2.3
			c-2.4,0-4.3,0.8-5.9,2.3c-1.6,1.6-2.4,3.8-2.4,6.6v24.8h-8.4v-24.8c0-2.8-0.8-5-2.3-6.6c-1.6-1.6-3.5-2.3-5.9-2.3
			c-2.4,0-4.3,0.8-5.9,2.3c-1.6,1.6-2.4,3.8-2.4,6.6v24.8h-8.4V620.3z"/>
	</g>
	<g class="st14">
		<path class="st15" d="M2472.1,631.1c0.7-2.2,1.8-4.1,3.3-5.9c0.1-0.1,0.1-0.1,0.2-0.2c0.1-0.1,0.2-0.2,0.3-0.3
			c0.1-0.1,0.2-0.2,0.3-0.3c1.2-1.1,2.8-2.2,4.7-3.2c1.9-1,4.4-1.5,7.3-1.5s5.4,0.5,7.3,1.5c1.9,1,3.5,2,4.7,3.2
			c0.1,0.1,0.2,0.2,0.3,0.3c0.1,0.1,0.2,0.2,0.3,0.3c0.1,0.1,0.1,0.1,0.2,0.2c1.5,1.8,2.6,3.7,3.3,5.9c0.7,2.2,1,5.5,1,9.9
			s-0.3,7.7-1,9.9c-0.7,2.2-1.8,4.2-3.3,5.9c-0.1,0.1-0.1,0.1-0.2,0.2c-0.1,0.1-0.2,0.2-0.3,0.3c-0.1,0.1-0.2,0.2-0.3,0.3
			c-1.2,1.1-2.8,2.2-4.7,3.2c-1.9,1-4.4,1.4-7.3,1.4s-5.4-0.5-7.3-1.4c-1.9-1-3.5-2-4.7-3.2c-0.1-0.1-0.2-0.2-0.3-0.3
			c-0.1-0.1-0.2-0.2-0.3-0.3c-0.1-0.1-0.1-0.1-0.2-0.2c-1.5-1.7-2.6-3.7-3.3-5.9c-0.7-2.2-1-5.5-1-9.9S2471.4,633.3,2472.1,631.1z
			 M2496.6,635.2c-0.2-1.2-0.6-2.3-1.2-3.3c-0.1-0.1-0.1-0.2-0.2-0.4c-0.1-0.1-0.2-0.3-0.3-0.4c-0.6-0.9-1.5-1.6-2.7-2.2
			s-2.6-0.9-4-0.9c-1.4,0-2.7,0.3-4,0.9s-2.1,1.3-2.7,2.2c-0.1,0.1-0.2,0.2-0.3,0.4c-0.1,0.1-0.2,0.3-0.2,0.4c-0.6,1-1,2.1-1.2,3.3
			c-0.2,1.2-0.3,3.2-0.3,5.8c0,2.7,0.1,4.6,0.3,5.9c0.2,1.2,0.6,2.3,1.2,3.3c0.1,0.1,0.1,0.2,0.2,0.4c0.1,0.1,0.2,0.3,0.3,0.4
			c0.6,0.9,1.5,1.6,2.7,2.2c1.2,0.6,2.6,0.9,4,0.9c1.4,0,2.7-0.3,4-0.9c1.2-0.6,2.1-1.3,2.7-2.2c0.1-0.1,0.2-0.2,0.3-0.4
			c0.1-0.1,0.1-0.3,0.2-0.4c0.6-1,1-2.1,1.2-3.3c0.2-1.2,0.3-3.2,0.3-5.8C2497,638.4,2496.9,636.5,2496.6,635.2z"/>
	</g>
	<g class="st14">
		<path class="st15" d="M2516.2,603.5h8.4v21.2c1.6-1.5,3.2-2.7,5-3.6c1.7-0.9,3.6-1.4,5.8-1.4c2.6,0,4.8,0.5,6.6,1.5
			c1.8,1,3.3,2.3,4.6,3.9c0.1,0.1,0.1,0.1,0.1,0.2c0,0.1,0.1,0.1,0.1,0.1c1,1.5,1.7,3.2,2.1,5.2c0.4,2,0.6,5.5,0.6,10.4
			c0,5-0.2,8.5-0.6,10.5c-0.4,2-1.1,3.7-2.1,5.2c-0.1,0-0.1,0-0.1,0.1c0,0.1-0.1,0.1-0.1,0.2c-1.2,1.5-2.7,2.8-4.6,3.8
			c-1.8,1-4,1.5-6.6,1.5c-2.1,0-4.1-0.4-6-1.3c-1.9-0.9-3.4-2-4.8-3.4v4.3h-8.4V603.5z M2526.1,631.5c-1,2.2-1.5,4.7-1.6,7.4
			c0,0.4,0,0.8,0,1.1s0,0.7,0,1s0,0.7,0,1s0,0.7,0,1c0.1,2.7,0.6,5.2,1.6,7.5c0.9,2.3,3.1,3.4,6.6,3.4c3.9,0,6.3-1.4,7.1-4.1
			c0.8-2.7,1.2-5.7,1.2-8.9c0-0.1,0-0.1,0-0.1c0,0,0-0.1,0-0.1c0-3.2-0.4-6.1-1.2-8.7c-0.8-2.6-3.2-3.9-7.1-3.9
			C2529.3,628.1,2527.1,629.3,2526.1,631.5z"/>
	</g>
	<g class="st14">
		<path class="st15" d="M2561,603.5h8.4v8.4h-8.4V603.5z M2561,620.3h8.4v41.6h-8.4V620.3z"/>
	</g>
	<g class="st14">
		<path class="st15" d="M2582.5,603.5h8.4v47.6c0,0.9,0.3,1.6,0.8,2.1c0.5,0.5,1.3,0.7,2.3,0.7h2.9v7.9h-3.7c-3,0-5.5-0.8-7.6-2.3
			c-2-1.5-3.1-4.1-3.1-7.8V603.5z"/>
	</g>
	<g class="st14">
		<path class="st15" d="M2612,644.2c0,3.4,0.9,5.9,2.8,7.7c1.9,1.7,4.2,2.6,7.1,2.6c0.3,0,0.7,0,1,0c0.3,0,0.7-0.1,1-0.1
			c1.3-0.2,2.5-0.7,3.8-1.3c1.3-0.7,2.4-1.5,3.4-2.5l6.1,5.2c-2,2.4-4.3,4-6.9,5.1c-2.6,1-5.3,1.6-8.1,1.6c-0.5,0-1.1,0-1.6,0
			c-0.5,0-1.1-0.1-1.6-0.1c-3.8-0.5-7.3-2.2-10.5-5.2c-3.2-3-4.8-8.2-4.8-15.7c0-7.2,1.5-12.4,4.6-15.6c3-3.2,6.4-5.1,10-5.6
			c0.4-0.1,0.9-0.1,1.3-0.1c0.4,0,0.8,0,1.3,0c4.6,0,8.6,1.6,12,4.8c3.4,3.2,5.1,7.4,5.1,12.8v6.9H2612z M2629.6,637.3
			c-0.1-3.2-1-5.6-2.6-7.2c-1.6-1.6-3.7-2.5-6.1-2.5s-4.5,0.8-6.1,2.5c-1.6,1.6-2.5,4-2.6,7.2H2629.6z"/>
	</g>
	<g class="st14">
		<path class="st15" d="M3122.1-120.5c0.3-2.2,0.8-4,1.5-5.4c0.1-0.2,0.2-0.4,0.3-0.6c0.1-0.2,0.2-0.4,0.3-0.6
			c0.1-0.2,0.1-0.3,0.2-0.5c0.1-0.1,0.2-0.3,0.2-0.5c1.5-2.4,3.8-4.6,6.8-6.6c3-2,6.7-3,11-3c4.3,0,8,1,11,3c3,2,5.3,4.2,6.8,6.6
			c0.1,0.2,0.1,0.3,0.2,0.5c0.1,0.1,0.2,0.3,0.2,0.5c0.1,0.2,0.2,0.4,0.3,0.6c0.1,0.2,0.2,0.4,0.3,0.6c0.7,1.4,1.2,3.2,1.5,5.4
			c0.3,2.2,0.4,6.4,0.4,12.5c0,6.1-0.1,10.3-0.4,12.5c-0.3,2.2-0.8,4-1.5,5.5c-0.1,0.2-0.2,0.4-0.3,0.6c-0.1,0.2-0.2,0.4-0.3,0.6
			c-0.1,0.2-0.1,0.3-0.2,0.5c-0.1,0.1-0.2,0.3-0.2,0.5c-1.5,2.4-3.8,4.6-6.8,6.6c-3,2-6.7,3-11,3c-4.3,0-8-1-11-3
			c-3-2-5.3-4.2-6.8-6.6c-0.1-0.2-0.1-0.3-0.2-0.5c-0.1-0.1-0.2-0.3-0.2-0.5c-0.1-0.2-0.2-0.4-0.3-0.6c-0.1-0.2-0.2-0.4-0.3-0.6
			c-0.7-1.4-1.2-3.2-1.5-5.5c-0.3-2.2-0.4-6.4-0.4-12.5C3121.7-114.1,3121.9-118.3,3122.1-120.5z M3131.1-97.1
			c0.3,1.9,0.9,3.5,1.7,4.8c0.1,0.2,0.2,0.3,0.4,0.5c0.1,0.2,0.3,0.3,0.4,0.5c0.9,1.1,2.1,2.1,3.6,3c1.5,0.8,3.3,1.3,5.4,1.3
			c2.1,0,3.9-0.4,5.4-1.3c1.5-0.8,2.7-1.8,3.6-3c0.1-0.2,0.2-0.3,0.4-0.5c0.1-0.2,0.3-0.3,0.4-0.5c0.8-1.3,1.4-2.8,1.7-4.8
			c0.3-1.9,0.5-5.5,0.5-10.8c0-5.3-0.2-8.9-0.5-10.8c-0.3-1.9-0.9-3.5-1.7-4.8c-0.1-0.2-0.2-0.3-0.4-0.5c-0.1-0.2-0.3-0.3-0.4-0.5
			c-0.9-1.1-2.1-2.1-3.6-3c-1.5-0.8-3.3-1.3-5.4-1.3c-2.1,0-3.9,0.4-5.4,1.3c-1.5,0.8-2.7,1.8-3.6,3c-0.1,0.2-0.2,0.3-0.4,0.5
			c-0.1,0.2-0.3,0.3-0.4,0.5c-0.8,1.3-1.4,2.8-1.7,4.8c-0.3,1.9-0.5,5.5-0.5,10.8C3130.6-102.7,3130.7-99.1,3131.1-97.1z"/>
	</g>
	<g class="st14">
		<path class="st15" d="M3175-120.4h8.4v4.4h0.2c1.3-1.6,2.9-2.9,4.8-3.7c1.9-0.8,3.9-1.2,6.1-1.2c0.3,0,0.7,0,1.1,0
			c0.4,0,0.7,0.1,1.1,0.1c3,0.5,5.6,1.9,8.1,4.3c2.4,2.4,3.6,5.7,3.6,9.9v27.6h-8.4v-24.8c0-2.8-0.8-5-2.3-6.6
			c-1.6-1.6-3.5-2.3-5.9-2.3c-2.4,0-4.3,0.8-5.9,2.3c-1.6,1.6-2.4,3.8-2.4,6.6v24.8h-8.4V-120.4z"/>
	</g>
	<g class="st14">
		<path class="st15" d="M3221.1-137.2h8.4v47.6c0,0.9,0.3,1.6,0.8,2.1c0.5,0.5,1.3,0.7,2.3,0.7h2.9v7.9h-3.7c-3,0-5.5-0.8-7.6-2.3
			c-2-1.5-3.1-4.1-3.1-7.8V-137.2z"/>
	</g>
	<g class="st14">
		<path class="st15" d="M3244.6-137.2h8.4v8.4h-8.4V-137.2z M3244.6-120.4h8.4v41.6h-8.4V-120.4z"/>
	</g>
	<g class="st14">
		<path class="st15" d="M3266-120.4h8.4v4.4h0.2c1.3-1.6,2.9-2.9,4.8-3.7c1.9-0.8,3.9-1.2,6.1-1.2c0.3,0,0.7,0,1.1,0
			c0.4,0,0.7,0.1,1.1,0.1c3,0.5,5.6,1.9,8.1,4.3c2.4,2.4,3.6,5.7,3.6,9.9v27.6h-8.4v-24.8c0-2.8-0.8-5-2.3-6.6
			c-1.6-1.6-3.5-2.3-5.9-2.3c-2.4,0-4.3,0.8-5.9,2.3c-1.6,1.6-2.4,3.8-2.4,6.6v24.8h-8.4V-120.4z"/>
	</g>
	<g class="st14">
		<path class="st15" d="M3318.4-96.4c0,3.4,0.9,5.9,2.8,7.7c1.9,1.7,4.2,2.6,7.1,2.6c0.3,0,0.7,0,1,0c0.3,0,0.7-0.1,1-0.1
			c1.3-0.2,2.5-0.7,3.8-1.3c1.3-0.7,2.4-1.5,3.4-2.5l6.1,5.2c-2,2.4-4.3,4-6.9,5.1c-2.6,1-5.3,1.6-8.1,1.6c-0.5,0-1.1,0-1.6,0
			c-0.5,0-1.1-0.1-1.6-0.1c-3.8-0.5-7.3-2.2-10.5-5.2c-3.2-3-4.8-8.2-4.8-15.7c0-7.2,1.5-12.4,4.6-15.6c3-3.2,6.4-5.1,10-5.6
			c0.4-0.1,0.9-0.1,1.3-0.1c0.4,0,0.8,0,1.3,0c4.6,0,8.6,1.6,12,4.8c3.4,3.2,5.1,7.4,5.1,12.8v6.9H3318.4z M3336-103.3
			c-0.1-3.2-1-5.6-2.6-7.2c-1.6-1.6-3.7-2.5-6.1-2.5s-4.5,0.8-6.1,2.5c-1.6,1.6-2.5,4-2.6,7.2H3336z"/>
	</g>
	<g class="st14">
		<path class="st15" d="M3376.9-137.2h8.4v21.2c1.6-1.5,3.2-2.7,5-3.6c1.7-0.9,3.6-1.4,5.8-1.4c2.6,0,4.8,0.5,6.6,1.5
			c1.8,1,3.3,2.3,4.6,3.9c0.1,0.1,0.1,0.1,0.1,0.2c0,0.1,0.1,0.1,0.1,0.1c1,1.5,1.7,3.2,2.1,5.2c0.4,2,0.6,5.5,0.6,10.4
			c0,5-0.2,8.5-0.6,10.5c-0.4,2-1.1,3.7-2.1,5.2c-0.1,0-0.1,0-0.1,0.1c0,0.1-0.1,0.1-0.1,0.2c-1.2,1.5-2.7,2.8-4.6,3.8
			c-1.8,1-4,1.5-6.6,1.5c-2.1,0-4.1-0.4-6-1.3c-1.9-0.9-3.4-2-4.8-3.4v4.3h-8.4V-137.2z M3386.9-109.1c-1,2.2-1.5,4.7-1.6,7.4
			c0,0.4,0,0.8,0,1.1s0,0.7,0,1s0,0.7,0,1s0,0.7,0,1c0.1,2.7,0.6,5.2,1.6,7.5c0.9,2.3,3.1,3.4,6.6,3.4c3.9,0,6.3-1.4,7.1-4.1
			c0.8-2.7,1.2-5.7,1.2-8.9c0-0.1,0-0.1,0-0.1c0,0,0-0.1,0-0.1c0-3.2-0.4-6.1-1.2-8.7s-3.2-3.9-7.1-3.9
			C3390-112.5,3387.8-111.4,3386.9-109.1z"/>
	</g>
	<g class="st14">
		<path class="st15" d="M3443.3-82.5h-0.2c-0.9,1.4-2.1,2.5-3.6,3.1s-3.8,1-6.6,1c-4.6,0-8.3-1.2-10.8-3.6c-2.6-2.4-3.9-5.4-3.9-9
			c0-3.3,1.1-6.2,3.4-8.7c2.3-2.4,5.6-3.6,10.1-3.6h11.6v-4.3c0-2-0.7-3.3-2-4.1c-1.3-0.8-3.5-1.2-6.5-1.2c-2.2,0-3.9,0.2-5,0.7
			c-1.1,0.5-2.1,1.3-2.9,2.5l-6.6-5c1.6-2.2,3.5-3.8,5.9-4.7c2.3-0.9,5-1.4,8.2-1.4c5.1,0,9.3,1,12.5,3c3.2,2,4.8,5.6,4.8,10.7v28.4
			h-8.4V-82.5z M3443.3-96.4h-10c-2.5,0-4.3,0.5-5.5,1.4c-1.2,0.9-1.8,2.1-1.8,3.6c0,1.4,0.6,2.6,1.8,3.6c1.2,1.1,3.2,1.6,6.1,1.6
			c3.5,0,5.9-0.4,7.3-1.2c1.4-0.8,2-2.8,2-6V-96.4z"/>
	</g>
	<g class="st14">
		<path class="st15" d="M3464.6-120.4h8.4v4.4h0.2c1.3-1.6,2.9-2.9,4.8-3.7s3.9-1.2,6.1-1.2c0.3,0,0.7,0,1.1,0
			c0.4,0,0.7,0.1,1.1,0.1c3,0.5,5.6,1.9,8.1,4.3c2.4,2.4,3.6,5.7,3.6,9.9v27.6h-8.4v-24.8c0-2.8-0.8-5-2.3-6.6
			c-1.6-1.6-3.5-2.3-5.9-2.3c-2.4,0-4.3,0.8-5.9,2.3c-1.6,1.6-2.4,3.8-2.4,6.6v24.8h-8.4V-120.4z"/>
	</g>
	<g class="st14">
		<path class="st15" d="M3510.6-137.2h8.4v36.3h0.2l16-19.5h10l-14.4,16.2l16.3,25.3h-10.5l-11.1-19.4l-6.6,7.5v12h-8.4V-137.2z"/>
	</g>
	<g class="st14">
		<path class="st15" d="M3555.5-137.2h8.4v8.4h-8.4V-137.2z M3555.5-120.4h8.4v41.6h-8.4V-120.4z"/>
	</g>
	<g class="st14">
		<path class="st15" d="M3577-120.4h8.4v4.4h0.2c1.3-1.6,2.9-2.9,4.8-3.7s3.9-1.2,6.1-1.2c0.3,0,0.7,0,1.1,0c0.4,0,0.7,0.1,1.1,0.1
			c3,0.5,5.6,1.9,8.1,4.3c2.4,2.4,3.6,5.7,3.6,9.9v27.6h-8.4v-24.8c0-2.8-0.8-5-2.3-6.6c-1.6-1.6-3.5-2.3-5.9-2.3
			c-2.4,0-4.3,0.8-5.9,2.3c-1.6,1.6-2.4,3.8-2.4,6.6v24.8h-8.4V-120.4z"/>
	</g>
	<g class="st14">
		<path class="st15" d="M3646.4-83c-1.3,1.4-2.9,2.6-4.8,3.4c-1.9,0.9-3.9,1.3-6,1.3c-2.4,0-4.5-0.4-6.2-1.3c-1.7-0.9-3.1-1.9-4.1-3
			c-0.1-0.1-0.2-0.2-0.3-0.4c-0.1-0.1-0.2-0.3-0.3-0.4c-0.2-0.2-0.3-0.4-0.5-0.6c-0.1-0.2-0.3-0.4-0.5-0.6c-0.8-1.3-1.4-2.8-1.7-4.7
			c-0.3-1.9-0.5-5.3-0.5-10.3c0-5,0.2-8.5,0.5-10.4c0.3-1.9,0.9-3.4,1.7-4.7c0.2-0.2,0.3-0.4,0.5-0.6s0.3-0.4,0.5-0.6
			c0.1-0.1,0.2-0.2,0.3-0.4c0.1-0.1,0.2-0.3,0.3-0.4c1-1.1,2.4-2.1,4.1-3c1.7-0.9,3.8-1.4,6.2-1.4c2.1,0,4.1,0.4,5.8,1.2
			c1.7,0.8,3.4,2,4.9,3.7v-4.4h8.4v40.7c0,6.2-1.8,10.8-5.5,13.7c-3.6,2.9-7.8,4.4-12.6,4.4c-0.1,0-0.2,0-0.4,0c-0.1,0-0.3,0-0.4,0
			c-2.5-0.1-5-0.8-7.4-2c-2.4-1.3-4.5-2.9-6.3-4.9l6.5-5.1c1,1,2.3,1.8,3.6,2.6s2.9,1.1,4.5,1.1c2.8,0,5.1-0.8,6.8-2.3
			c1.8-1.5,2.7-3.7,2.7-6.5V-83z M3630.2-93.4c0.1,1.1,0.5,2.1,0.9,2.9c0.1,0.1,0.2,0.2,0.2,0.3c0.1,0.1,0.1,0.2,0.2,0.3
			c0.1,0.1,0.1,0.2,0.2,0.3s0.2,0.2,0.3,0.3c0.6,0.7,1.4,1.3,2.4,1.8c1,0.5,2.3,0.8,3.7,0.8c1.4,0,2.6-0.3,3.6-0.8
			c1-0.5,1.8-1.1,2.4-1.8c0.1-0.1,0.2-0.2,0.3-0.3s0.2-0.2,0.2-0.3c0.1-0.1,0.2-0.2,0.2-0.3c0.1-0.1,0.1-0.2,0.2-0.3
			c0.5-0.8,0.8-1.7,0.9-2.9c0.1-1.1,0.2-3.2,0.2-6.2s-0.1-5-0.2-6.2c-0.1-1.2-0.5-2.1-0.9-2.9c-0.1-0.1-0.2-0.2-0.2-0.3
			c-0.1-0.1-0.1-0.2-0.2-0.3c-0.1-0.1-0.1-0.2-0.2-0.3s-0.2-0.2-0.3-0.3c-0.6-0.7-1.4-1.3-2.4-1.8c-1-0.5-2.2-0.8-3.6-0.8
			c-1.5,0-2.7,0.3-3.7,0.8c-1,0.5-1.8,1.1-2.4,1.8c-0.1,0.1-0.2,0.2-0.3,0.3s-0.2,0.2-0.2,0.3c-0.1,0.1-0.2,0.2-0.2,0.3
			c-0.1,0.1-0.1,0.2-0.2,0.3c-0.5,0.8-0.8,1.7-0.9,2.9c-0.1,1.2-0.2,3.2-0.2,6.2S3630-94.5,3630.2-93.4z"/>
	</g>
	<g class="st14">
		<path class="st16" d="M3595.4,329.8l-9.7,7.1v-10.4l9.7-7.1h9.8V388h-9.8V329.8z"/>
	</g>
	<g class="st14">
		<path class="st16" d="M3630.2,319.3h36.6v9.8h-27.3v15.5c1.7-1.3,3.4-2.2,5.2-2.8c1.8-0.6,3.7-0.9,5.8-0.9c2.6,0,5,0.5,7.2,1.5
			c2.2,1,3.8,2.2,5.1,3.5c0.1,0.1,0.3,0.3,0.4,0.4c0.2,0.2,0.3,0.3,0.4,0.5c1.5,1.8,2.7,3.9,3.4,6.3c0.7,2.4,1.1,6.3,1.1,11.5
			c0,4.4-0.3,7.8-0.9,10c-0.6,2.3-1.6,4.3-3,6.1c-0.1,0.1-0.1,0.1-0.1,0.2c0,0.1-0.1,0.1-0.1,0.2c-0.1,0.1-0.1,0.1-0.2,0.2
			c-0.1,0.1-0.1,0.2-0.2,0.2c-1.5,1.7-3.4,3.3-5.9,4.7c-2.4,1.4-5.3,2.1-8.6,2.1c-0.5,0-0.9,0-1.3,0c-0.4,0-0.8,0-1.2,0
			c-4.1-0.4-7.8-2-11.3-4.8c-3.5-2.8-5.6-7.1-6.2-12.9h9.8c0.5,2.4,1.6,4.4,3.2,5.8s3.8,2.2,6.6,2.2c3.9,0,6.5-1.2,7.6-3.5
			s1.8-4.9,1.9-7.6c0.1-0.6,0.1-1.3,0.1-1.9s0-1.2,0-1.8c0-3.8-0.6-6.9-1.9-9.5c-1.3-2.5-4-3.8-8-3.8c-1.9,0-3.5,0.4-5,1.3
			s-2.8,2.3-3.9,4.4h-9.3V319.3z"/>
	</g>
	<g class="st14">
		<path class="st16" d="M3679,328.3c0-3.4,0.9-5.9,2.8-7.3c1.9-1.5,4-2.2,6.3-2.2s4.4,0.7,6.3,2.2c1.9,1.5,2.8,3.9,2.8,7.3v6.6
			c0,3.3-0.9,5.8-2.8,7.3c-1.9,1.5-4,2.3-6.3,2.3s-4.4-0.8-6.3-2.3c-1.9-1.5-2.8-3.9-2.8-7.3V328.3z M3712.2,319.3h6.4l-32.5,68.7
			h-6.4L3712.2,319.3z M3684.5,334.2c0,1.5,0.3,2.7,0.9,3.5c0.6,0.8,1.5,1.2,2.7,1.2s2-0.4,2.7-1.2c0.6-0.8,0.9-2,0.9-3.5V329
			c0-1.5-0.3-2.7-0.9-3.5c-0.6-0.8-1.5-1.2-2.7-1.2s-2,0.4-2.7,1.2c-0.6,0.8-0.9,2-0.9,3.5V334.2z M3701.1,372.5
			c0-3.4,0.9-5.9,2.8-7.3c1.9-1.5,4-2.2,6.3-2.2s4.4,0.7,6.3,2.2c1.9,1.5,2.8,3.9,2.8,7.3v6.6c0,3.3-0.9,5.8-2.8,7.2
			c-1.9,1.5-4,2.2-6.3,2.2s-4.4-0.7-6.3-2.2c-1.9-1.5-2.8-3.9-2.8-7.2V372.5z M3706.6,378.4c0,1.5,0.3,2.7,0.9,3.5
			c0.6,0.8,1.5,1.2,2.7,1.2s2-0.4,2.7-1.2c0.6-0.8,0.9-2,0.9-3.5v-5.2c0-1.5-0.3-2.7-0.9-3.5c-0.6-0.8-1.5-1.2-2.7-1.2
			s-2,0.4-2.7,1.2c-0.6,0.8-0.9,2-0.9,3.5V378.4z"/>
	</g>
	<g class="st14">
		<path class="st6" d="M3158.9,359.1c1.4-2.7,3.4-4.9,6-6.6c-2-1.9-3.6-3.9-4.9-6.1c-1.3-2.2-1.9-4.8-1.9-7.8
			c0-5.5,1.9-10.2,5.7-14.1c3.8-3.9,8.5-5.8,14-5.8c5.5,0,10.2,1.9,14,5.8c3.8,3.9,5.7,8.6,5.7,14.1c0,3-0.6,5.5-1.9,7.8
			c-1.3,2.2-2.9,4.3-5,6.1c2.6,1.7,4.6,3.9,6,6.6c1.4,2.7,2.1,5.6,2.1,8.8c0,6-2.1,11-6.2,14.8c-4.1,3.8-9,5.7-14.8,5.7
			c-5.7,0-10.6-1.9-14.7-5.7c-4.1-3.8-6.2-8.8-6.2-14.8C3156.8,364.8,3157.5,361.8,3158.9,359.1z M3170,375.7
			c2.2,2.1,4.8,3.1,7.8,3.1c3,0,5.5-1,7.8-3.1c2.2-2.1,3.3-4.7,3.3-7.8c0-3.2-1.1-5.8-3.3-7.8c-2.2-2.1-4.8-3.1-7.8-3.1
			c-3,0-5.5,1-7.8,3.1c-2.2,2.1-3.3,4.7-3.3,7.8C3166.6,371,3167.8,373.6,3170,375.7z M3170.9,345.8c2,1.7,4.3,2.5,6.8,2.5
			c2.5,0,4.8-0.8,6.8-2.5c2-1.7,3-4.1,3-7.3c0-3.2-1-5.7-3-7.3c-2-1.7-4.3-2.5-6.8-2.5c-2.5,0-4.8,0.8-6.8,2.5c-2,1.7-3,4.1-3,7.3
			C3167.9,341.7,3168.9,344.1,3170.9,345.8z"/>
	</g>
	<g class="st14">
		<path class="st6" d="M3208.1,319.3h36.6v9.8h-27.3v15.5c1.7-1.3,3.4-2.2,5.2-2.8c1.8-0.6,3.7-0.9,5.8-0.9c2.6,0,5,0.5,7.2,1.5
			c2.2,1,3.8,2.2,5.1,3.5c0.1,0.1,0.3,0.3,0.4,0.4c0.2,0.2,0.3,0.3,0.4,0.5c1.5,1.8,2.7,3.9,3.4,6.3c0.7,2.4,1.1,6.3,1.1,11.5
			c0,4.4-0.3,7.8-0.9,10c-0.6,2.3-1.6,4.3-3,6.1c-0.1,0.1-0.1,0.1-0.1,0.2c0,0.1-0.1,0.1-0.1,0.2c-0.1,0.1-0.1,0.1-0.2,0.2
			c-0.1,0.1-0.1,0.2-0.2,0.2c-1.5,1.7-3.4,3.3-5.9,4.7c-2.4,1.4-5.3,2.1-8.6,2.1c-0.5,0-0.9,0-1.3,0c-0.4,0-0.8,0-1.2,0
			c-4.1-0.4-7.8-2-11.3-4.8c-3.5-2.8-5.6-7.1-6.2-12.9h9.8c0.5,2.4,1.6,4.4,3.2,5.8c1.6,1.4,3.8,2.2,6.6,2.2c3.9,0,6.5-1.2,7.6-3.5
			s1.8-4.9,1.9-7.6c0.1-0.6,0.1-1.3,0.1-1.9s0-1.2,0-1.8c0-3.8-0.6-6.9-1.9-9.5c-1.3-2.5-4-3.8-8-3.8c-1.9,0-3.5,0.4-5,1.3
			s-2.8,2.3-3.9,4.4h-9.3V319.3z"/>
	</g>
	<g class="st14">
		<path class="st6" d="M3257,328.3c0-3.4,0.9-5.9,2.8-7.3c1.9-1.5,4-2.2,6.3-2.2s4.4,0.7,6.3,2.2c1.9,1.5,2.8,3.9,2.8,7.3v6.6
			c0,3.3-0.9,5.8-2.8,7.3c-1.9,1.5-4,2.3-6.3,2.3s-4.4-0.8-6.3-2.3c-1.9-1.5-2.8-3.9-2.8-7.3V328.3z M3290.1,319.3h6.4L3264,388
			h-6.4L3290.1,319.3z M3262.5,334.2c0,1.5,0.3,2.7,0.9,3.5c0.6,0.8,1.5,1.2,2.7,1.2s2-0.4,2.7-1.2c0.6-0.8,0.9-2,0.9-3.5V329
			c0-1.5-0.3-2.7-0.9-3.5c-0.6-0.8-1.5-1.2-2.7-1.2s-2,0.4-2.7,1.2c-0.6,0.8-0.9,2-0.9,3.5V334.2z M3279,372.5
			c0-3.4,0.9-5.9,2.8-7.3c1.9-1.5,4-2.2,6.3-2.2s4.4,0.7,6.3,2.2c1.9,1.5,2.8,3.9,2.8,7.3v6.6c0,3.3-0.9,5.8-2.8,7.2
			c-1.9,1.5-4,2.2-6.3,2.2s-4.4-0.7-6.3-2.2c-1.9-1.5-2.8-3.9-2.8-7.2V372.5z M3284.5,378.4c0,1.5,0.3,2.7,0.9,3.5
			c0.6,0.8,1.5,1.2,2.7,1.2s2-0.4,2.7-1.2c0.6-0.8,0.9-2,0.9-3.5v-5.2c0-1.5-0.3-2.7-0.9-3.5c-0.6-0.8-1.5-1.2-2.7-1.2
			s-2,0.4-2.7,1.2c-0.6,0.8-0.9,2-0.9,3.5V378.4z"/>
	</g>
</g>
</svg>
